<?xml version="1.0" encoding="UTF-8" standalone="no"?>
<!-- Created with Inkscape (http://www.inkscape.org/) -->

<svg
   xmlns:dc="http://purl.org/dc/elements/1.1/"
   xmlns:cc="http://creativecommons.org/ns#"
   xmlns:rdf="http://www.w3.org/1999/02/22-rdf-syntax-ns#"
   xmlns:svg="http://www.w3.org/2000/svg"
   xmlns="http://www.w3.org/2000/svg"
   xmlns:sodipodi="http://sodipodi.sourceforge.net/DTD/sodipodi-0.dtd"
   xmlns:inkscape="http://www.inkscape.org/namespaces/inkscape"
   width="128"
   height="128"
   viewBox="0 0 128 128.00001"
   version="1.1"
   id="svg6294"
   inkscape:version="0.92.3 (2405546, 2018-03-11)"
   sodipodi:docname="menu_find_server.svg">
  <defs
     id="defs6288" />
  <sodipodi:namedview
     id="base"
     pagecolor="#ffffff"
     bordercolor="#666666"
     borderopacity="1.0"
     inkscape:pageopacity="0.0"
     inkscape:pageshadow="2"
     inkscape:zoom="2.3239734"
     inkscape:cx="68.486086"
     inkscape:cy="-10.034519"
     inkscape:document-units="px"
     inkscape:current-layer="layer1"
     showgrid="false"
     units="px"
     inkscape:window-width="1366"
     inkscape:window-height="713"
     inkscape:window-x="0"
     inkscape:window-y="27"
     inkscape:window-maximized="1" />
  <metadata
     id="metadata6291">
    <rdf:RDF>
      <cc:Work
         rdf:about="">
        <dc:format>image/svg+xml</dc:format>
        <dc:type
           rdf:resource="http://purl.org/dc/dcmitype/StillImage" />
        <dc:title />
      </cc:Work>
    </rdf:RDF>
  </metadata>
  <g
     inkscape:label="Layer 1"
     inkscape:groupmode="layer"
     id="layer1"
     transform="translate(0,-994.51965)">
    <path
       transform="matrix(1.6448174,0,0,1.6448174,-5347.1221,-862.54982)"
       sodipodi:type="inkscape:offset"
       inkscape:radius="3.7528543"
       inkscape:original="M 3301.8164 1139.3027 L 3274.9414 1140.582 L 3260.7227 1155.0859 L 3260.7227 1181.1074 L 3276.6484 1197.0312 L 3303.3809 1196.748 L 3318.8789 1179.9688 L 3318.4512 1155.5137 L 3301.8164 1139.3027 z "
       style="fill:#000000;stroke:none;stroke-width:1px;stroke-linecap:butt;stroke-linejoin:miter;stroke-opacity:1"
       id="path8988-8-2"
       d="m 3301.7129,1135.5508 a 3.7532296,3.7532296 0 0 0 -0.074,0 l -26.875,1.2793 a 3.7532296,3.7532296 0 0 0 -2.502,1.1211 l -14.2187,14.5039 a 3.7532296,3.7532296 0 0 0 -1.0723,2.6269 v 26.0215 a 3.7532296,3.7532296 0 0 0 1.0977,2.6543 l 15.9257,15.9238 a 3.7532296,3.7532296 0 0 0 2.6934,1.0977 l 26.7324,-0.2832 a 3.7532296,3.7532296 0 0 0 2.7188,-1.2051 l 15.4961,-16.7793 a 3.7532296,3.7532296 0 0 0 0.9961,-2.6133 l -0.4278,-24.455 a 3.7532296,3.7532296 0 0 0 -1.1328,-2.6211 l -16.6348,-16.211 a 3.7532296,3.7532296 0 0 0 -2.7226,-1.0644 z" />
    <path
       style="fill:#2c5aa0;stroke:none;stroke-width:1.64481747px;stroke-linecap:butt;stroke-linejoin:miter;stroke-opacity:1"
       d="m 42.366516,1106.349 -26.193884,-26.1939 v -42.7989 l 23.387332,-23.8553 44.202165,-2.1047 27.363341,26.6617 0.70152,40.2263 -25.492202,27.5972 z"
       id="path8988-8"
       inkscape:connector-curvature="0"
       sodipodi:nodetypes="ccccccccc" />
    <path
       style="fill:#37c837;stroke:none;stroke-width:1.64481747px;stroke-linecap:butt;stroke-linejoin:miter;stroke-opacity:1"
       d="m 48.090316,1013.0968 -8.529365,0.4047 -14.604172,14.8935 11.446287,-2.9652 10.405444,-0.1185 7.250684,-5.6122 -5.962463,-6.5474 z m 34.852694,15.6066 -8.885797,4.0928 5.496651,2.2199 -6.315934,2.9233 -4.327186,-4.0928 -10.639995,0.7037 -0.234551,3.3891 -3.742453,1.1695 7.016133,2.5731 1.288221,-2.2198 5.2621,3.5081 5.143344,9.4705 3.273516,-4.0928 6.081383,-0.2344 -3.623862,4.4428 -0.350181,2.9235 -12.981722,-0.1151 -9.236143,-12.1628 -10.64312,-0.7002 -8.419985,8.0698 2.338766,12.0439 9.704916,7.3663 -2.688783,21.3987 8.419985,11.9281 12.397153,-13.6823 17.187191,-13.6789 -9.354899,-2.3419 1.98842,-5.1432 19.294534,9.4705 -0.11514,8.42 7.016128,-4.0928 3.36678,1.6225 5.169,-5.5964 -0.70036,-40.2273 -6.43798,-6.2741 -6.074798,-2.6149 -4.91209,3.7426 -4.44281,-3.2737 z m -62.631524,4.43 -4.137703,4.2213 v 18.1637 l 12.978598,-13.7174 z"
       id="path8990-0"
       inkscape:connector-curvature="0" />
    <path
       style="opacity:0.4;fill:#ffffff;fill-opacity:1;stroke:none;stroke-width:1.64481747px;stroke-linecap:butt;stroke-linejoin:miter;stroke-opacity:1"
       d="m 16.172632,1080.1551 4.309257,-38.549 22.685817,-23.6213 -3.607742,-4.4839 -23.386181,23.8538 z"
       id="path9013-2"
       inkscape:connector-curvature="0" />
    <path
       style="opacity:0.6;fill:#ffffff;fill-opacity:1;stroke:none;stroke-width:1.64481747px;stroke-linecap:butt;stroke-linejoin:miter;stroke-opacity:1"
       d="m 43.167706,1017.9848 40.594423,-6.5886 -44.201178,2.1053 z"
       id="path9015-4"
       inkscape:connector-curvature="0" />
    <path
       style="opacity:0.6;fill:#000000;fill-opacity:1;stroke:none;stroke-width:1.64481747px;stroke-linecap:butt;stroke-linejoin:miter;stroke-opacity:1"
       d="m 42.366516,1106.349 40.092096,-4.6374 23.621218,-26.4277 5.74765,3.0022 -25.492692,27.5953 z"
       id="path9017-9"
       inkscape:connector-curvature="0" />
    <path
       style="opacity:0.4;fill:#000000;fill-opacity:1;stroke:none;stroke-width:1.64481747px;stroke-linecap:butt;stroke-linejoin:miter;stroke-opacity:1"
       d="m 106.07983,1075.2839 5.04564,-37.226 0.70152,40.2263 z"
       id="path9019-0"
       inkscape:connector-curvature="0" />
    <path
       style="fill:#000000;stroke:none;stroke-width:1.17710364px;stroke-linecap:butt;stroke-linejoin:miter;stroke-opacity:1"
       d="M 99.314453 57.302734 L 76.351562 57.972656 A 7.4775138 7.4775138 0 0 0 70.804688 60.683594 L 60.970703 72.589844 A 7.4775138 7.4775138 0 0 0 59.28125 76.794922 L 57.927734 94.914062 A 7.4775138 7.4775138 0 0 0 59.611328 100.22266 L 70.986328 114.03711 A 7.4775138 7.4775138 0 0 0 76.857422 116.76172 L 97.601562 116.48633 A 7.4775138 7.4775138 0 0 0 99.761719 116.13477 L 107.66406 123.83789 A 7.4775138 7.4775138 0 0 0 113.94141 125.88672 L 120.18359 124.99414 A 7.4775138 7.4775138 0 0 0 126.48828 118.89062 L 127.82617 111.31055 A 7.4775138 7.4775138 0 0 0 125.37891 104.37891 L 118.42969 98.316406 A 7.4775138 7.4775138 0 0 0 119.02344 95.332031 L 118.8418 78.001953 A 7.4775138 7.4775138 0 0 0 116.95312 73.111328 L 105.12109 59.806641 A 7.4775138 7.4775138 0 0 0 99.314453 57.302734 z M 96.496094 71.357422 L 103.82812 78.787109 L 104.65234 93.84375 L 96.007812 101.99609 L 80.1875 101.87891 L 73.171875 93.304688 L 73.574219 79.705078 L 81.171875 71.769531 L 96.496094 71.357422 z "
       transform="translate(0,994.51965)"
       id="path4845-36" />
    <path
       style="fill:#999999;stroke:none;stroke-width:1.17710364px;stroke-linecap:butt;stroke-linejoin:miter;stroke-opacity:1"
       d="m 99.534025,1059.2952 -22.962802,0.669 -9.8352,11.9067 -1.3541,18.1186 11.3756,13.815 20.7442,-0.276 2.717107,-2.8685 12.6638,12.344 6.2418,-0.892 1.338,-7.5799 -12.6716,-11.0585 3.7556,-3.5438 -0.1816,-17.3301 z m -18.361302,6.9934 15.3237,-0.4121 7.332007,7.431 0.8237,15.0564 -8.645107,8.1517 -15.8195,-0.1178 -7.0164,-8.5726 0.4037,-13.6011 z"
       id="path4845"
       inkscape:connector-curvature="0"
       sodipodi:nodetypes="ccccccccccccccccccccccc" />
    <path
       style="opacity:0.5;fill:#55ddff;stroke:none;stroke-width:1.17710364px;stroke-linecap:butt;stroke-linejoin:miter;stroke-opacity:1"
       d="m 73.574823,1074.2241 -0.4037,13.6011 7.0164,8.5726 15.8195,0.1178 8.645107,-8.1516 -0.8237,-15.0565 -7.332007,-7.431 -15.3237,0.4121 z"
       id="path4847"
       inkscape:connector-curvature="0"
       sodipodi:nodetypes="ccccccccc" />
    <path
       style="fill:#cccccc;stroke:none;stroke-width:1.17710364px;stroke-linecap:butt;stroke-linejoin:miter;stroke-opacity:1"
       d="m 66.736023,1071.871 11.2445,-9.0898 -1.4093,-2.817 z"
       id="path4870"
       inkscape:connector-curvature="0" />
    <path
       style="fill:#b3b3b3;stroke:none;stroke-width:1.17710364px;stroke-linecap:butt;stroke-linejoin:miter;stroke-opacity:1"
       d="m 77.980523,1062.7812 21.553502,-3.486 -22.962802,0.669 z"
       id="path4872"
       inkscape:connector-curvature="0" />
    <path
       style="fill:#b3b3b3;stroke:none;stroke-width:1.17710364px;stroke-linecap:butt;stroke-linejoin:miter;stroke-opacity:1"
       d="m 66.736023,1071.871 1.6286,1.5509 -2.9827,16.5677 z"
       id="path4874"
       inkscape:connector-curvature="0" />
    <path
       style="fill:#666666;stroke:none;stroke-width:1.17710364px;stroke-linecap:butt;stroke-linejoin:miter;stroke-opacity:1"
       d="m 76.757523,1103.8045 19.6286,-3.1742 1.1156,2.8982 z"
       id="path4876"
       inkscape:connector-curvature="0" />
    <path
       style="fill:#808080;stroke:none;stroke-width:1.17710364px;stroke-linecap:butt;stroke-linejoin:miter;stroke-opacity:1"
       d="m 96.386123,1100.6303 15.160307,-10.7005 -14.044707,13.5987 z"
       id="path4878"
       inkscape:connector-curvature="0" />
    <path
       style="fill:#808080;stroke:none;stroke-width:1.17710364px;stroke-linecap:butt;stroke-linejoin:miter;stroke-opacity:1"
       d="m 112.88263,1113.004 6.2418,-0.892 -2.3397,-1.8397 z"
       id="path4880"
       inkscape:connector-curvature="0"
       sodipodi:nodetypes="cccc" />
    <path
       style="fill:#666666;stroke:none;stroke-width:1.17710364px;stroke-linecap:butt;stroke-linejoin:miter;stroke-opacity:1"
       d="m 116.78473,1110.2723 3.6777,-5.7402 -1.338,7.5799 z"
       id="path4882"
       inkscape:connector-curvature="0"
       sodipodi:nodetypes="cccc" />
    <path
       style="fill:#666666;stroke:none;stroke-width:1.17710364px;stroke-linecap:butt;stroke-linejoin:miter;stroke-opacity:1"
       d="m 111.54643,1089.9298 -2.1167,-0.1922 1.9351,-17.1379 z"
       id="path4884"
       inkscape:connector-curvature="0" />
  </g>
</svg>
