<?xml version="1.0" encoding="UTF-8" standalone="no"?>
<!-- Created with Inkscape (http://www.inkscape.org/) -->

<svg
   xmlns:dc="http://purl.org/dc/elements/1.1/"
   xmlns:cc="http://creativecommons.org/ns#"
   xmlns:rdf="http://www.w3.org/1999/02/22-rdf-syntax-ns#"
   xmlns:svg="http://www.w3.org/2000/svg"
   xmlns="http://www.w3.org/2000/svg"
   xmlns:sodipodi="http://sodipodi.sourceforge.net/DTD/sodipodi-0.dtd"
   xmlns:inkscape="http://www.inkscape.org/namespaces/inkscape"
   width="128"
   height="128"
   viewBox="0 0 128 128.00001"
   version="1.1"
   id="svg6294"
   inkscape:version="0.92.3 (2405546, 2018-03-11)"
   sodipodi:docname="menu_quick_play.svg">
  <defs
     id="defs6288" />
  <sodipodi:namedview
     id="base"
     pagecolor="#ffffff"
     bordercolor="#666666"
     borderopacity="1.0"
     inkscape:pageopacity="0.0"
     inkscape:pageshadow="2"
     inkscape:zoom="3.4984259"
     inkscape:cx="38.02005"
     inkscape:cy="67.550685"
     inkscape:document-units="px"
     inkscape:current-layer="layer1"
     showgrid="false"
     units="px"
     inkscape:window-width="1366"
     inkscape:window-height="713"
     inkscape:window-x="0"
     inkscape:window-y="27"
     inkscape:window-maximized="1" />
  <metadata
     id="metadata6291">
    <rdf:RDF>
      <cc:Work
         rdf:about="">
        <dc:format>image/svg+xml</dc:format>
        <dc:type
           rdf:resource="http://purl.org/dc/dcmitype/StillImage" />
        <dc:title />
      </cc:Work>
    </rdf:RDF>
  </metadata>
  <g
     inkscape:label="Layer 1"
     inkscape:groupmode="layer"
     id="layer1"
     transform="translate(0,-994.51965)">
    <path
       transform="matrix(1.6448174,0,0,1.6448174,-5347.1221,-862.54982)"
       sodipodi:type="inkscape:offset"
       inkscape:radius="3.7528543"
       inkscape:original="M 3301.8164 1139.3027 L 3274.9414 1140.582 L 3260.7227 1155.0859 L 3260.7227 1181.1074 L 3276.6484 1197.0312 L 3303.3809 1196.748 L 3318.8789 1179.9688 L 3318.4512 1155.5137 L 3301.8164 1139.3027 z "
       style="fill:#000000;stroke:none;stroke-width:1px;stroke-linecap:butt;stroke-linejoin:miter;stroke-opacity:1"
       id="path8988-8-2"
       d="m 3301.7129,1135.5508 a 3.7532296,3.7532296 0 0 0 -0.074,0 l -26.875,1.2793 a 3.7532296,3.7532296 0 0 0 -2.502,1.1211 l -14.2187,14.5039 a 3.7532296,3.7532296 0 0 0 -1.0723,2.6269 v 26.0215 a 3.7532296,3.7532296 0 0 0 1.0977,2.6543 l 15.9257,15.9238 a 3.7532296,3.7532296 0 0 0 2.6934,1.0977 l 26.7324,-0.2832 a 3.7532296,3.7532296 0 0 0 2.7188,-1.2051 l 15.4961,-16.7793 a 3.7532296,3.7532296 0 0 0 0.9961,-2.6133 l -0.4278,-24.455 a 3.7532296,3.7532296 0 0 0 -1.1328,-2.6211 l -16.6348,-16.211 a 3.7532296,3.7532296 0 0 0 -2.7226,-1.0644 z" />
    <path
       style="fill:#2c5aa0;stroke:none;stroke-width:1.64481747px;stroke-linecap:butt;stroke-linejoin:miter;stroke-opacity:1"
       d="m 42.366516,1106.349 -26.193884,-26.1939 v -42.7989 l 23.387332,-23.8553 44.202165,-2.1047 27.363341,26.6617 0.70152,40.2263 -25.492202,27.5972 z"
       id="path8988-8"
       inkscape:connector-curvature="0"
       sodipodi:nodetypes="ccccccccc" />
    <path
       style="fill:#37c837;stroke:none;stroke-width:1.64481747px;stroke-linecap:butt;stroke-linejoin:miter;stroke-opacity:1"
       d="m 48.090316,1013.0968 -8.529365,0.4047 -14.604172,14.8935 11.446287,-2.9652 10.405444,-0.1185 7.250684,-5.6122 -5.962463,-6.5474 z m 34.852694,15.6066 -8.885797,4.0928 5.496651,2.2199 -6.315934,2.9233 -4.327186,-4.0928 -10.639995,0.7037 -0.234551,3.3891 -3.742453,1.1695 7.016133,2.5731 1.288221,-2.2198 5.2621,3.5081 5.143344,9.4705 3.273516,-4.0928 6.081383,-0.2344 -3.623862,4.4428 -0.350181,2.9235 -12.981722,-0.1151 -9.236143,-12.1628 -10.64312,-0.7002 -8.419985,8.0698 2.338766,12.0439 9.704916,7.3663 -2.688783,21.3987 8.419985,11.9281 12.397153,-13.6823 17.187191,-13.6789 -9.354899,-2.3419 1.98842,-5.1432 19.294534,9.4705 -0.11514,8.42 7.016128,-4.0928 3.36678,1.6225 5.169,-5.5964 -0.70036,-40.2273 -6.43798,-6.2741 -6.074798,-2.6149 -4.91209,3.7426 -4.44281,-3.2737 z m -62.631524,4.43 -4.137703,4.2213 v 18.1637 l 12.978598,-13.7174 z"
       id="path8990-0"
       inkscape:connector-curvature="0" />
    <path
       style="opacity:0.4;fill:#ffffff;fill-opacity:1;stroke:none;stroke-width:1.64481747px;stroke-linecap:butt;stroke-linejoin:miter;stroke-opacity:1"
       d="m 16.172632,1080.1551 4.309257,-38.549 22.685817,-23.6213 -3.607742,-4.4839 -23.386181,23.8538 z"
       id="path9013-2"
       inkscape:connector-curvature="0" />
    <path
       style="opacity:0.6;fill:#ffffff;fill-opacity:1;stroke:none;stroke-width:1.64481747px;stroke-linecap:butt;stroke-linejoin:miter;stroke-opacity:1"
       d="m 43.167706,1017.9848 40.594423,-6.5886 -44.201178,2.1053 z"
       id="path9015-4"
       inkscape:connector-curvature="0" />
    <path
       style="opacity:0.6;fill:#000000;fill-opacity:1;stroke:none;stroke-width:1.64481747px;stroke-linecap:butt;stroke-linejoin:miter;stroke-opacity:1"
       d="m 42.366516,1106.349 40.092096,-4.6374 23.621218,-26.4277 5.74765,3.0022 -25.492692,27.5953 z"
       id="path9017-9"
       inkscape:connector-curvature="0" />
    <path
       style="opacity:0.4;fill:#000000;fill-opacity:1;stroke:none;stroke-width:1.64481747px;stroke-linecap:butt;stroke-linejoin:miter;stroke-opacity:1"
       d="m 106.07983,1075.2839 5.04564,-37.226 0.70152,40.2263 z"
       id="path9019-0"
       inkscape:connector-curvature="0" />
    <path
       transform="matrix(-0.98595289,0,0,0.98595289,1342.6494,18.62786)"
       sodipodi:type="inkscape:offset"
       inkscape:radius="8.5605402"
       inkscape:original="M 1274.9141 1063.2988 L 1240.7949 1082.9219 L 1274.207 1107.1406 L 1274.75 1094.8945 L 1302.8125 1094.5195 L 1302.6875 1076.2695 L 1274.9141 1076.3809 L 1274.9141 1063.2988 z "
       style="fill:#000000;stroke:none;stroke-width:1px;stroke-linecap:butt;stroke-linejoin:miter;stroke-opacity:1"
       id="path3921-0-7-6-9"
       d="m 1274.6621,1054.7422 a 8.5613963,8.5613963 0 0 0 -4.0156,1.1367 l -34.1192,19.6231 a 8.5613963,8.5613963 0 0 0 -0.7558,14.3515 l 33.4121,24.2188 a 8.5613963,8.5613963 0 0 0 13.5762,-6.5528 l 0.1836,-4.1738 19.9843,-0.2656 a 8.5613963,8.5613963 0 0 0 8.4453,-8.6192 l -0.125,-18.25 a 8.5613963,8.5613963 0 0 0 -8.5957,-8.5019 l -19.1777,0.076 v -4.4864 a 8.5613963,8.5613963 0 0 0 -8.8125,-8.5566 z" />
    <path
       style="fill:#ff6600;stroke:none;stroke-width:0.98595285px;stroke-linecap:butt;stroke-linejoin:miter;stroke-opacity:1"
       d="m 86.341703,1110.2158 32.941467,-23.8782 -33.638634,-19.3466 v 12.8978 l -27.383855,-0.1091 -0.123244,17.9937 27.668302,0.3696 z"
       id="path3921-6-5-1"
       inkscape:connector-curvature="0" />
    <path
       style="fill:#aa4400;fill-opacity:1;stroke:none;stroke-width:0.98595285px;stroke-linecap:butt;stroke-linejoin:miter;stroke-opacity:1"
       d="m 86.341703,1110.2158 22.676227,-21.2007 10.26524,-2.6775 z"
       id="path3923-3-0-0"
       inkscape:connector-curvature="0"
       sodipodi:nodetypes="cccc" />
    <path
       style="fill:#ff9955;fill-opacity:1;stroke:none;stroke-width:0.98595285px;stroke-linecap:butt;stroke-linejoin:miter;stroke-opacity:1"
       d="m 85.644536,1066.991 4.351504,12.9113 -4.351504,-0.014 z"
       id="path3927-7-8-4"
       inkscape:connector-curvature="0"
       sodipodi:nodetypes="cccc" />
    <path
       style="fill:#ff7f2a;stroke:none;stroke-width:0.98595285px;stroke-linecap:butt;stroke-linejoin:miter;stroke-opacity:1"
       d="m 89.99604,1079.9023 -26.320407,5.1216 -5.414952,-5.2448 z"
       id="path3929-6-1-2"
       inkscape:connector-curvature="0"
       sodipodi:nodetypes="cccc" />
    <path
       style="fill:#d45500;stroke:none;stroke-width:0.98595285px;stroke-linecap:butt;stroke-linejoin:miter;stroke-opacity:1"
       d="m 90.489017,1098.2657 -6.97404,-3.3674 -25.37754,2.8745 z"
       id="path3931-1-2-7"
       inkscape:connector-curvature="0"
       sodipodi:nodetypes="cccc" />
    <path
       style="fill:#ff9955;fill-opacity:1;stroke:none;stroke-width:0.98595285px;stroke-linecap:butt;stroke-linejoin:miter;stroke-opacity:1"
       d="m 63.675633,1085.0239 -5.414952,-5.2448 -0.123244,17.9937 z"
       id="path3933-5-2-4"
       inkscape:connector-curvature="0"
       sodipodi:nodetypes="cccc" />
    <path
       style="fill:#ff9955;fill-opacity:1;stroke:none;stroke-width:0.98595285px;stroke-linecap:butt;stroke-linejoin:miter;stroke-opacity:1"
       d="m 85.805739,1098.1424 4.683278,0.1233 -4.147314,11.9501 z"
       id="path3935-0-6-0"
       inkscape:connector-curvature="0"
       sodipodi:nodetypes="cccc" />
  </g>
</svg>
