<?xml version="1.0" encoding="UTF-8" standalone="no"?>
<!-- Created with Inkscape (http://www.inkscape.org/) -->

<svg
   xmlns:dc="http://purl.org/dc/elements/1.1/"
   xmlns:cc="http://creativecommons.org/ns#"
   xmlns:rdf="http://www.w3.org/1999/02/22-rdf-syntax-ns#"
   xmlns:svg="http://www.w3.org/2000/svg"
   xmlns="http://www.w3.org/2000/svg"
   xmlns:sodipodi="http://sodipodi.sourceforge.net/DTD/sodipodi-0.dtd"
   xmlns:inkscape="http://www.inkscape.org/namespaces/inkscape"
   width="128"
   height="128"
   viewBox="0 0 128 128.00001"
   version="1.1"
   id="svg6294"
   inkscape:version="0.92.3 (2405546, 2018-03-11)"
   sodipodi:docname="drift.svg">
  <defs
     id="defs6288" />
  <sodipodi:namedview
     id="base"
     pagecolor="#ffffff"
     bordercolor="#666666"
     borderopacity="1.0"
     inkscape:pageopacity="0.0"
     inkscape:pageshadow="2"
     inkscape:zoom="3.2865946"
     inkscape:cx="42.252732"
     inkscape:cy="68.072"
     inkscape:document-units="px"
     inkscape:current-layer="layer1"
     showgrid="false"
     units="px"
     inkscape:window-width="1366"
     inkscape:window-height="713"
     inkscape:window-x="0"
     inkscape:window-y="27"
     inkscape:window-maximized="1" />
  <metadata
     id="metadata6291">
    <rdf:RDF>
      <cc:Work
         rdf:about="">
        <dc:format>image/svg+xml</dc:format>
        <dc:type
           rdf:resource="http://purl.org/dc/dcmitype/StillImage" />
        <dc:title />
      </cc:Work>
    </rdf:RDF>
  </metadata>
  <g
     inkscape:label="Layer 1"
     inkscape:groupmode="layer"
     id="layer1"
     transform="translate(0,-994.51965)">
    <path
       sodipodi:type="inkscape:offset"
       inkscape:radius="3.7726128"
       inkscape:original="M 4183.75 1061.0957 L 4177.3516 1064.6504 L 4172.5176 1073.6074 L 4171.0957 1087.1152 L 4172.6582 1099.2012 L 4174.6719 1103.1719 L 4174.7266 1107.4277 L 4160.5664 1098.0703 L 4170.877 1111.8223 L 4163.207 1116.2578 L 4186.3086 1115.127 L 4202.9453 1113.2773 L 4210.9082 1094.793 L 4208.4902 1075.0293 L 4200.2441 1061.3789 L 4183.75 1061.0957 z "
       style="fill:#000000;stroke:none;stroke-width:1px;stroke-linecap:butt;stroke-linejoin:miter;stroke-opacity:1"
       id="path2025-5"
       d="m 4183.8145,1057.3242 a 3.7729901,3.7729901 0 0 0 -1.8965,0.4727 l -6.3985,3.5566 a 3.7729901,3.7729901 0 0 0 -1.4883,1.5059 l -4.8339,8.957 a 3.7729901,3.7729901 0 0 0 -0.4317,1.3965 l -1.4218,13.5078 a 3.7729901,3.7729901 0 0 0 0.01,0.8789 l 1.4746,11.4082 -6.1816,-4.0859 a 3.7729901,3.7729901 0 0 0 -5.0977,5.4121 l 7.7598,10.3496 -3.9902,2.3086 a 3.7729901,3.7729901 0 0 0 2.0722,7.0332 l 23.1016,-1.1309 a 3.7729901,3.7729901 0 0 0 0.2324,-0.018 l 16.6367,-1.8497 a 3.7729901,3.7729901 0 0 0 3.0489,-2.2578 l 7.9628,-18.4843 a 3.7729901,3.7729901 0 0 0 0.2793,-1.9512 l -2.4179,-19.7637 a 3.7729901,3.7729901 0 0 0 -0.5156,-1.4922 l -8.2461,-13.6504 a 3.7729901,3.7729901 0 0 0 -3.1641,-1.8203 z"
       transform="matrix(1.72232,0,0,1.72232,-7143.3298,-816.52994)" />
    <path
       style="fill:#4d4d4d;stroke:none;stroke-width:1.72231984px;stroke-linecap:butt;stroke-linejoin:miter;stroke-opacity:1"
       d="m 90.834236,1011.504 14.203964,23.51 4.16317,34.0399 -13.714024,31.8365 -28.652725,3.1835 -3.183784,-5.1426 -12.989067,-8.9421 -7.336826,-13.3434 -2.693843,-20.816 2.448707,-23.2652 v 0 l 8.326831,-15.4281 5.519632,-3.0666 5.500213,-3.0555 z"
       id="path2025"
       inkscape:connector-curvature="0"
       sodipodi:nodetypes="ccccccccccccccc" />
    <path
       style="fill:#b3b3b3;stroke:none;stroke-width:1.18359172px;stroke-linecap:butt;stroke-linejoin:miter;stroke-opacity:1"
       d="m 53.292117,1034.4676 -7.381082,8.4966 -1.682771,15.988 1.85123,14.3049 6.058499,11.9488 7.909615,3.366 6.900226,-19.3538 -2.356266,-23.7292 -5.553577,-11.2757 z"
       id="path2027"
       inkscape:connector-curvature="0"
       sodipodi:nodetypes="cccccccccc" />
    <path
       style="fill:#999999;stroke:none;stroke-width:1.31735408px;stroke-linecap:butt;stroke-linejoin:miter;stroke-opacity:1"
       d="m 63.343575,1067.4886 -4.896504,17.5397 -6.309078,0.1776 7.909615,3.366 6.900226,-19.3538 z"
       id="path2072"
       inkscape:connector-curvature="0"
       sodipodi:nodetypes="cccccc" />
    <path
       style="fill:#ff6600;stroke:none;stroke-width:2.94121456px;stroke-linecap:butt;stroke-linejoin:miter;stroke-opacity:1"
       d="m 66.834621,1104.0739 -20.222661,-34.468 0.273185,21.208 -24.386159,-16.1182 17.755365,23.6854 -13.207482,7.6407 z"
       id="path1976"
       inkscape:connector-curvature="0"
       sodipodi:nodetypes="ccccccc" />
    <path
       style="fill:#ffcc00;stroke:none;stroke-width:1.91696596px;stroke-linecap:butt;stroke-linejoin:miter;stroke-opacity:1"
       d="m 60.664059,1101.1948 -22.993347,2.31 6.040608,-4.0439 -9.067053,-12.4974 14.659545,7.8217 -0.39733,-14.8734 z"
       id="path2053"
       inkscape:connector-curvature="0"
       sodipodi:nodetypes="ccccccc" />
    <path
       style="fill:#333333;stroke:none;stroke-width:1.91696596px;stroke-linecap:butt;stroke-linejoin:miter;stroke-opacity:1"
       d="m 65.831338,1015.4658 3.008354,7.3342 9.66172,4.7409 -1.734708,11.1789 4.625552,8.673 -3.083534,9.0586 4.240174,12.1426 -7.131354,10.6001 1.546002,14.004 -4.317684,9.106 4.548712,-1.6616 4.575764,-6.7324 -1.53438,-12.0177 7.51674,-10.9856 -4.24018,-12.9136 3.85463,-11.3713 -5.58934,-9.0588 1.34916,-11.3712 -10.503512,-5.2308 -2.180501,-6.2707 -3.495141,0.5464 z"
       id="path2092"
       inkscape:connector-curvature="0"
       sodipodi:nodetypes="cccccccccccccccccccccc" />
    <path
       style="fill:#808080;stroke:none;stroke-width:1.91696596px;stroke-linecap:butt;stroke-linejoin:miter;stroke-opacity:1"
       d="m 43.079808,1032.5646 11.186145,-14.7254 9.541136,-1.9579 4.117709,11.6697 -0.976986,-12.3142 -4.521328,-4.2224 -11.019845,6.1221 z"
       id="path2057"
       inkscape:connector-curvature="0"
       sodipodi:nodetypes="cccccccc" />
    <path
       style="fill:#666666;stroke:none;stroke-width:1.91696596px;stroke-linecap:butt;stroke-linejoin:miter;stroke-opacity:1"
       d="m 66.947812,1015.2368 23.886424,-3.7328 -28.407752,-0.4896 z"
       id="path2059"
       inkscape:connector-curvature="0"
       sodipodi:nodetypes="cccc" />
    <path
       style="fill:#e6e6e6;stroke:none;stroke-width:1.31735408px;stroke-linecap:butt;stroke-linejoin:miter;stroke-opacity:1"
       d="m 53.292117,1034.4676 5.745874,-0.2544 -5.156208,2.1233 -5.382835,7.5037 -2.587913,-0.876 z"
       id="path2061"
       inkscape:connector-curvature="0"
       sodipodi:nodetypes="cccccc" />
    <path
       style="fill:#cccccc;stroke:none;stroke-width:1.31735408px;stroke-linecap:butt;stroke-linejoin:miter;stroke-opacity:1"
       d="m 48.498948,1043.8402 -2.958137,15.2183 0.538683,14.1986 -1.85123,-14.3049 1.682771,-15.988 z"
       id="path2063"
       inkscape:connector-curvature="0"
       sodipodi:nodetypes="cccccc" />
    <path
       style="fill:#333333;stroke:none;stroke-width:1.91696596px;stroke-linecap:butt;stroke-linejoin:miter;stroke-opacity:1"
       d="m 105.0382,1035.014 4.16317,34.0399 -13.714024,31.8365 -3.88002,-4.9281 12.528174,-26.9831 z"
       id="path2065"
       inkscape:connector-curvature="0" />
    <path
       style="fill:#1a1a1a;stroke:none;stroke-width:1.91696596px;stroke-linecap:butt;stroke-linejoin:miter;stroke-opacity:1"
       d="m 91.607326,1095.9623 -18.961466,6.3418 -3.887912,-1.1487 3.227232,-11.8331 1.054117,-18.7622 -3.451276,18.6033 -6.746895,15.4049 32.64622,-3.6779 z"
       id="path2068"
       inkscape:connector-curvature="0"
       sodipodi:nodetypes="ccccccccc" />
    <path
       style="fill:#808080;stroke:none;stroke-width:1.31735408px;stroke-linecap:butt;stroke-linejoin:miter;stroke-opacity:1"
       d="m 64.591568,1045.4889 -1.247993,21.9997 3.604259,1.7295 z"
       id="path2070"
       inkscape:connector-curvature="0" />
    <path
       style="fill:#ff7f2a;stroke:none;stroke-width:1.91696596px;stroke-linecap:butt;stroke-linejoin:miter;stroke-opacity:1"
       d="m 46.885145,1090.8139 1.765579,-13.6619 -2.038764,-7.5461 z"
       id="path2074"
       inkscape:connector-curvature="0"
       sodipodi:nodetypes="cccc" />
    <path
       style="fill:#ff7f2a;stroke:none;stroke-width:1.91696596px;stroke-linecap:butt;stroke-linejoin:miter;stroke-opacity:1"
       d="m 27.046869,1106.0218 12.584269,-4.9988 0.623213,-2.6419 z"
       id="path2076"
       inkscape:connector-curvature="0"
       sodipodi:nodetypes="cccc" />
    <path
       style="fill:#d45500;fill-opacity:1;stroke:none;stroke-width:1.91696596px;stroke-linecap:butt;stroke-linejoin:miter;stroke-opacity:1"
       d="m 27.046869,1106.0218 35.939262,-3.6992 3.84849,1.7513 z"
       id="path2078"
       inkscape:connector-curvature="0" />
    <path
       style="fill:#d45500;stroke:none;stroke-width:1.91696596px;stroke-linecap:butt;stroke-linejoin:miter;stroke-opacity:1"
       d="m 62.986131,1102.3226 -16.374171,-32.7167 20.222661,34.468 z"
       id="path2080"
       inkscape:connector-curvature="0" />
    <path
       style="fill:#d4aa00;fill-opacity:1;stroke:none;stroke-width:1.91696596px;stroke-linecap:butt;stroke-linejoin:miter;stroke-opacity:1"
       d="m 37.670712,1103.5048 19.055898,-3.7714 3.937449,1.4614 z"
       id="path2082"
       inkscape:connector-curvature="0" />
    <path
       style="fill:#d4aa00;stroke:none;stroke-width:1.91696596px;stroke-linecap:butt;stroke-linejoin:miter;stroke-opacity:1"
       d="m 56.72661,1099.7334 -7.820128,-19.8216 11.757577,21.283 z"
       id="path2084"
       inkscape:connector-curvature="0" />
    <path
       style="fill:#ffdd55;stroke:none;stroke-width:1.91696596px;stroke-linecap:butt;stroke-linejoin:miter;stroke-opacity:1"
       d="m 49.303812,1094.7852 1.357958,-4.796 -1.755288,-10.0774 z"
       id="path2088"
       inkscape:connector-curvature="0" />
    <path
       style="fill:#ffdd55;stroke:none;stroke-width:1.91696596px;stroke-linecap:butt;stroke-linejoin:miter;stroke-opacity:1"
       d="m 37.670712,1103.5048 6.040608,-4.0439 0.272521,2.0443 z"
       id="path2090"
       inkscape:connector-curvature="0" />
    <path
       style="fill:#333333;stroke:none;stroke-width:1.91696596px;stroke-linecap:butt;stroke-linejoin:miter;stroke-opacity:1"
       d="m 78.995996,1013.3539 3.47407,6.531 9.4745,6.4512 -1.73454,11.1789 4.62556,8.2875 -3.08354,9.4439 4.24001,12.1427 -7.13136,10.6004 -0.77076,12.9132 -3.12519,7.1908 3.83405,-1.2295 4.30241,-4.2267 0.57807,-11.9496 7.516914,-10.9857 -4.240514,-12.9135 3.854634,-11.7569 -5.589184,-8.6731 1.34917,-11.3712 -9.64662,-5.7795 -3.48153,-6.5487 z"
       id="path2092-6"
       inkscape:connector-curvature="0"
       sodipodi:nodetypes="ccccccccccccccccccccc" />
  </g>
</svg>
