<?xml version="1.0" encoding="UTF-8" standalone="no"?>
<!-- Created with Inkscape (http://www.inkscape.org/) -->

<svg
   xmlns:dc="http://purl.org/dc/elements/1.1/"
   xmlns:cc="http://creativecommons.org/ns#"
   xmlns:rdf="http://www.w3.org/1999/02/22-rdf-syntax-ns#"
   xmlns:svg="http://www.w3.org/2000/svg"
   xmlns="http://www.w3.org/2000/svg"
   xmlns:sodipodi="http://sodipodi.sourceforge.net/DTD/sodipodi-0.dtd"
   xmlns:inkscape="http://www.inkscape.org/namespaces/inkscape"
   width="128"
   height="128"
   viewBox="0 0 128 128.00001"
   version="1.1"
   id="svg6294"
   inkscape:version="0.92.4 (5da689c313, 2019-01-14)"
   sodipodi:docname="nitro.svg">
  <defs
     id="defs6288" />
  <sodipodi:namedview
     id="base"
     pagecolor="#ffffff"
     bordercolor="#666666"
     borderopacity="1.0"
     inkscape:pageopacity="0.0"
     inkscape:pageshadow="2"
     inkscape:zoom="2.0510585"
     inkscape:cx="180.81096"
     inkscape:cy="85.780936"
     inkscape:document-units="px"
     inkscape:current-layer="layer1"
     showgrid="false"
     units="px"
     inkscape:window-width="1366"
     inkscape:window-height="707"
     inkscape:window-x="0"
     inkscape:window-y="29"
     inkscape:window-maximized="1" />
  <metadata
     id="metadata6291">
    <rdf:RDF>
      <cc:Work
         rdf:about="">
        <dc:format>image/svg+xml</dc:format>
        <dc:type
           rdf:resource="http://purl.org/dc/dcmitype/StillImage" />
        <dc:title />
      </cc:Work>
    </rdf:RDF>
  </metadata>
  <g
     inkscape:label="Layer 1"
     inkscape:groupmode="layer"
     id="layer1"
     transform="translate(0,-994.51965)">
    <path
       transform="matrix(1.4134868,0,0,1.4134868,-2768.3696,-483.39324)"
       sodipodi:type="inkscape:offset"
       inkscape:radius="3.300112"
       inkscape:original="M 2010.8262 1048.8789 L 2009.4238 1051.0293 L 2013.9141 1054.0234 L 2010.0488 1059.1523 L 2007.4121 1057.7188 L 2002.2637 1058.1758 L 1993.2852 1062.1172 L 1972.3281 1090.7441 L 1971.7441 1099.502 L 1975.6758 1106.4844 L 1984.7988 1111.043 L 1994.9648 1110.0488 L 2004.6992 1103.2812 L 2020.8848 1077.3672 L 2020.4902 1070.1582 L 2017.4512 1063.1758 L 2014.4121 1061.5234 L 2017.8438 1056.9238 L 2022.8945 1059.6836 L 2024.3926 1057.8125 L 2010.8262 1048.8789 z "
       style="fill:#000000;stroke:none;stroke-width:1.05846429px;stroke-linecap:butt;stroke-linejoin:miter;stroke-opacity:1"
       id="path4386-9"
       d="m 2010.7676,1045.5801 a 3.300442,3.300442 0 0 0 -2.7051,1.4961 l -1.4023,2.1504 a 3.300442,3.300442 0 0 0 0.9336,4.5488 l 1.58,1.0547 -0.049,0.064 -0.1367,-0.074 a 3.300442,3.300442 0 0 0 -1.8672,-0.3887 l -5.1484,0.4571 a 3.300442,3.300442 0 0 0 -1.0352,0.2656 l -8.9785,3.9414 a 3.300442,3.300442 0 0 0 -1.336,1.0723 l -20.957,28.6269 a 3.300442,3.300442 0 0 0 -0.6308,1.7305 l -0.584,8.7578 a 3.300442,3.300442 0 0 0 0.4179,1.8379 l 3.9317,6.9824 a 3.300442,3.300442 0 0 0 1.4004,1.332 l 9.123,4.5586 a 3.300442,3.300442 0 0 0 1.7949,0.334 l 10.1661,-0.9941 a 3.300442,3.300442 0 0 0 1.5625,-0.5762 l 9.7343,-6.7676 a 3.300442,3.300442 0 0 0 0.916,-0.9609 l 16.1856,-25.9141 a 3.300442,3.300442 0 0 0 0.4961,-1.9277 l -0.3945,-7.209 a 3.300442,3.300442 0 0 0 -0.2696,-1.1367 l -2.8886,-6.6367 0.6855,0.375 a 3.300442,3.300442 0 0 0 4.1582,-0.834 l 1.4981,-1.8711 a 3.300442,3.300442 0 0 0 -0.7618,-4.8184 l -13.5664,-8.9336 a 3.300442,3.300442 0 0 0 -1.873,-0.5429 z" />
    <path
       style="fill:#3778c8;stroke:none;stroke-width:1.49612522px;stroke-linecap:butt;stroke-linejoin:miter;stroke-opacity:1;fill-opacity:1"
       d="m 71.790785,1015.0512 6.479844,-8.5956 -6.347684,-4.2319 1.983687,-3.04153 19.174655,12.62923 -2.115847,2.6448 -7.140792,-3.9012 -5.818619,7.8022 z"
       id="path4386"
       inkscape:connector-curvature="0"
       sodipodi:nodetypes="ccccccccc" />
    <path
       style="fill:#87a7de;stroke:none;stroke-width:1.49612522px;stroke-linecap:butt;stroke-linejoin:miter;stroke-opacity:1;fill-opacity:1"
       d="m 71.790785,1015.0512 6.87746,-6.5952 -0.397616,-2.0004 z"
       id="path4412"
       inkscape:connector-curvature="0" />
    <path
       style="fill:#2c89a0;stroke:none;stroke-width:1.49612522px;stroke-linecap:butt;stroke-linejoin:miter;stroke-opacity:1"
       d="m 83.824648,1010.555 -5.156403,4.6804 -0.662216,3.1218 z"
       id="path4410"
       inkscape:connector-curvature="0" />
    <path
       style="fill:#2c60a0;stroke:none;stroke-width:1.49612522px;stroke-linecap:butt;stroke-linejoin:miter;stroke-opacity:1;fill-opacity:1"
       d="m 19.489794,1058.3599 29.621736,-40.4655 12.692404,-5.5702 7.275924,-0.6452 14.191408,7.713 4.294593,9.8699 0.556496,10.1876 -22.877571,36.6307 -13.758031,9.5648 -14.370072,1.4069 -12.894674,-6.4456 -5.557548,-9.8692 z"
       id="path4384"
       inkscape:connector-curvature="0"
       sodipodi:nodetypes="ccccccccccccc" />
    <path
       style="fill:#87cdde;stroke:none;stroke-width:1.80562663px;stroke-linecap:butt;stroke-linejoin:miter;stroke-opacity:1"
       d="m 70.199621,1025.728 -12.106938,13.4329 -1.962909,-4.2531 -2.61594,4.247 -3.083662,-5.7175 -1.837392,9.3216 -3.906312,1.7613 -9.122502,12.1329 0.232801,7.6585 7.545334,5.3962 9.769596,-1.1702 10.107986,-13.2958 0.494154,-3.3443 6.981073,-4.8823 -5.929015,-0.8886 3.557606,-3.5888 -5.614653,-0.782 z m -17.376134,21.4217 4.303361,2.3776 1.471439,4.4442 -6.917604,10.6552 -6.652433,1.065 -4.441317,-3.7881 0.380652,-5.7827 6.564656,-8.5864 z"
       id="path4388"
       inkscape:connector-curvature="0"
       sodipodi:nodetypes="ccccccccccccccccccccccccccc" />
    <path
       style="fill:#377dc8;stroke:none;stroke-width:1.49612522px;stroke-linecap:butt;stroke-linejoin:miter;stroke-opacity:1;fill-opacity:1"
       d="m 19.489794,1058.3599 32.520656,-36.4878 -2.89892,-3.9777 z"
       id="path4394"
       inkscape:connector-curvature="0"
       sodipodi:nodetypes="cccc" />
    <path
       style="fill:#6f9fdd;stroke:none;stroke-width:1.49612522px;stroke-linecap:butt;stroke-linejoin:miter;stroke-opacity:1;fill-opacity:1"
       d="m 52.01045,1021.8721 11.41758,-5.4248 5.495496,0.1706 14.34774,2.7739 -14.191408,-7.7129 -7.275924,0.6453 -12.692404,5.57 z"
       id="path4396"
       inkscape:connector-curvature="0"
       sodipodi:nodetypes="cccccccc" />
    <path
       style="fill:#163150;stroke:none;stroke-width:1.49612522px;stroke-linecap:butt;stroke-linejoin:miter;stroke-opacity:1;fill-opacity:1"
       d="m 51.486753,1085.645 -14.370072,1.4069 -12.894674,-6.4456 12.894674,1.6981 13.995215,-1.5319 10.426161,-8.3869 3.706727,3.6946 z"
       id="path4398"
       inkscape:connector-curvature="0"
       sodipodi:nodetypes="cccccccc" />
    <path
       style="fill:#214878;stroke:none;stroke-width:1.49612522px;stroke-linecap:butt;stroke-linejoin:miter;stroke-opacity:1;fill-opacity:1"
       d="m 61.538057,1072.3856 26.584298,-32.9361 -22.877571,36.6307 z"
       id="path4400"
       inkscape:connector-curvature="0"
       sodipodi:nodetypes="cccc" />
    <path
       style="fill:#87abde;stroke:none;stroke-width:1.49612522px;stroke-linecap:butt;stroke-linejoin:miter;stroke-opacity:1;fill-opacity:1"
       d="m 71.922945,1002.2237 2.397133,-1.0615 -0.413446,-1.98003 z"
       id="path4402"
       inkscape:connector-curvature="0" />
    <path
       style="fill:#87aade;stroke:none;stroke-width:1.49612522px;stroke-linecap:butt;stroke-linejoin:miter;stroke-opacity:1;fill-opacity:1"
       d="m 74.320078,1001.1622 18.761209,10.6492 -19.174655,-12.62923 0.413446,1.98003"
       id="path4404"
       inkscape:connector-curvature="0" />
    <path
       style="fill:#2c58a0;stroke:none;stroke-width:1.49612522px;stroke-linecap:butt;stroke-linejoin:miter;stroke-opacity:1;fill-opacity:1"
       d="m 83.824648,1010.555 6.251568,2.1557 0.889224,1.7455 z"
       id="path4406"
       inkscape:connector-curvature="0" />
    <path
       style="fill:#2c56a0;stroke:none;stroke-width:1.49612522px;stroke-linecap:butt;stroke-linejoin:miter;stroke-opacity:1;fill-opacity:1"
       d="m 90.076216,1012.7107 3.005071,-0.8993 -2.115847,2.6448 z"
       id="path4408"
       inkscape:connector-curvature="0" />
  </g>
</svg>
