<?xml version="1.0" encoding="UTF-8" standalone="no"?>
<!-- Created with Inkscape (http://www.inkscape.org/) -->

<svg
   xmlns:dc="http://purl.org/dc/elements/1.1/"
   xmlns:cc="http://creativecommons.org/ns#"
   xmlns:rdf="http://www.w3.org/1999/02/22-rdf-syntax-ns#"
   xmlns:svg="http://www.w3.org/2000/svg"
   xmlns="http://www.w3.org/2000/svg"
   xmlns:sodipodi="http://sodipodi.sourceforge.net/DTD/sodipodi-0.dtd"
   xmlns:inkscape="http://www.inkscape.org/namespaces/inkscape"
   width="128"
   height="128"
   viewBox="0 0 128 128.00001"
   version="1.1"
   id="svg6294"
   inkscape:version="0.92.4 (5da689c313, 2019-01-14)"
   sodipodi:docname="nitro_empty.svg">
  <defs
     id="defs6288" />
  <sodipodi:namedview
     id="base"
     pagecolor="#ffffff"
     bordercolor="#666666"
     borderopacity="1.0"
     inkscape:pageopacity="0.0"
     inkscape:pageshadow="2"
     inkscape:zoom="2.9006348"
     inkscape:cx="100.17204"
     inkscape:cy="57.207194"
     inkscape:document-units="px"
     inkscape:current-layer="layer1"
     showgrid="false"
     units="px"
     inkscape:window-width="1366"
     inkscape:window-height="707"
     inkscape:window-x="0"
     inkscape:window-y="29"
     inkscape:window-maximized="1" />
  <metadata
     id="metadata6291">
    <rdf:RDF>
      <cc:Work
         rdf:about="">
        <dc:format>image/svg+xml</dc:format>
        <dc:type
           rdf:resource="http://purl.org/dc/dcmitype/StillImage" />
        <dc:title></dc:title>
      </cc:Work>
    </rdf:RDF>
  </metadata>
  <g
     inkscape:label="Layer 1"
     inkscape:groupmode="layer"
     id="layer1"
     transform="translate(0,-994.51965)">
    <path
       transform="matrix(1.4134868,0,0,1.4134868,-2768.3696,-483.39324)"
       sodipodi:type="inkscape:offset"
       inkscape:radius="3.300112"
       inkscape:original="M 2010.8262 1048.8789 L 2009.4238 1051.0293 L 2013.9141 1054.0234 L 2010.0488 1059.1523 L 2007.4121 1057.7188 L 2002.2637 1058.1758 L 1993.2852 1062.1172 L 1972.3281 1090.7441 L 1971.7441 1099.502 L 1975.6758 1106.4844 L 1984.7988 1111.043 L 1994.9648 1110.0488 L 2004.6992 1103.2812 L 2020.8848 1077.3672 L 2020.4902 1070.1582 L 2017.4512 1063.1758 L 2014.4121 1061.5234 L 2017.8438 1056.9238 L 2022.8945 1059.6836 L 2024.3926 1057.8125 L 2010.8262 1048.8789 z "
       style="fill:#000000;stroke:none;stroke-width:1.05846429px;stroke-linecap:butt;stroke-linejoin:miter;stroke-opacity:1"
       id="path4386-9-0"
       d="m 2010.7676,1045.5801 a 3.300442,3.300442 0 0 0 -2.7051,1.4961 l -1.4023,2.1504 a 3.300442,3.300442 0 0 0 0.9336,4.5488 l 1.58,1.0547 -0.049,0.064 -0.1367,-0.074 a 3.300442,3.300442 0 0 0 -1.8672,-0.3887 l -5.1484,0.4571 a 3.300442,3.300442 0 0 0 -1.0352,0.2656 l -8.9785,3.9414 a 3.300442,3.300442 0 0 0 -1.336,1.0723 l -20.957,28.6269 a 3.300442,3.300442 0 0 0 -0.6308,1.7305 l -0.584,8.7578 a 3.300442,3.300442 0 0 0 0.4179,1.8379 l 3.9317,6.9824 a 3.300442,3.300442 0 0 0 1.4004,1.332 l 9.123,4.5586 a 3.300442,3.300442 0 0 0 1.7949,0.334 l 10.1661,-0.9941 a 3.300442,3.300442 0 0 0 1.5625,-0.5762 l 9.7343,-6.7676 a 3.300442,3.300442 0 0 0 0.916,-0.9609 l 16.1856,-25.9141 a 3.300442,3.300442 0 0 0 0.4961,-1.9277 l -0.3945,-7.209 a 3.300442,3.300442 0 0 0 -0.2696,-1.1367 l -2.8886,-6.6367 0.6855,0.375 a 3.300442,3.300442 0 0 0 4.1582,-0.834 l 1.4981,-1.8711 a 3.300442,3.300442 0 0 0 -0.7618,-4.8184 l -13.5664,-8.9336 a 3.300442,3.300442 0 0 0 -1.873,-0.5429 z" />
    <path
       style="fill:#999999;stroke:none;stroke-width:1.49612522px;stroke-linecap:butt;stroke-linejoin:miter;stroke-opacity:1"
       d="m 71.790615,1015.0511 6.479848,-8.5956 -6.347687,-4.2319 1.983687,-3.04151 19.174653,12.62911 -2.115847,2.6449 -7.140793,-3.9012 -5.818618,7.8021 z"
       id="path4386-8"
       inkscape:connector-curvature="0"
       sodipodi:nodetypes="ccccccccc" />
    <path
       style="fill:#cccccc;stroke:none;stroke-width:1.49612522px;stroke-linecap:butt;stroke-linejoin:miter;stroke-opacity:1"
       d="m 71.790615,1015.0511 6.877462,-6.5953 -0.397614,-2.0003 z"
       id="path4412-9"
       inkscape:connector-curvature="0" />
    <path
       style="fill:#4d4d4d;stroke:none;stroke-width:1.49612522px;stroke-linecap:butt;stroke-linejoin:miter;stroke-opacity:1"
       d="m 83.824476,1010.5549 -5.156399,4.6803 -0.662219,3.1218 z"
       id="path4410-2"
       inkscape:connector-curvature="0" />
    <path
       style="fill:#808080;stroke:none;stroke-width:1.49612522px;stroke-linecap:butt;stroke-linejoin:miter;stroke-opacity:1"
       d="m 19.489628,1058.3599 29.621733,-40.4657 12.692405,-5.57 7.275923,-0.6453 14.191407,7.713 4.294601,9.87 0.556487,10.1875 -22.877567,36.6306 -13.758032,9.565 -14.370072,1.4068 -12.894674,-6.4457 -5.557546,-9.8691 z"
       id="path4384-2"
       inkscape:connector-curvature="0"
       sodipodi:nodetypes="ccccccccccccc" />
    <path
       style="fill:#cccccc;stroke:none;stroke-width:1.49612522px;stroke-linecap:butt;stroke-linejoin:miter;stroke-opacity:1"
       d="m 19.489628,1058.3599 30.896558,-38.4869 -1.274825,-1.9788 z"
       id="path4394-1"
       inkscape:connector-curvature="0"
       sodipodi:nodetypes="cccc" />
    <path
       style="fill:#b3b3b3;stroke:none;stroke-width:1.49612522px;stroke-linecap:butt;stroke-linejoin:miter;stroke-opacity:1"
       d="m 50.386186,1019.873 12.167152,-4.9252 6.245067,-0.079 14.472691,4.523 -14.191407,-7.7129 -7.275923,0.6452 -12.692405,5.5702 z"
       id="path4396-8"
       inkscape:connector-curvature="0"
       sodipodi:nodetypes="cccccccc" />
    <path
       style="fill:#666666;stroke:none;stroke-width:1.49612522px;stroke-linecap:butt;stroke-linejoin:miter;stroke-opacity:1"
       d="m 51.486585,1085.645 -14.370072,1.4068 -12.894674,-6.4457 13.644246,3.4473 13.745452,-2.0316 11.300685,-7.2625 2.332395,1.3207 z"
       id="path4398-3"
       inkscape:connector-curvature="0"
       sodipodi:nodetypes="cccccccc" />
    <path
       style="fill:#333333;stroke:none;stroke-width:1.49612522px;stroke-linecap:butt;stroke-linejoin:miter;stroke-opacity:1"
       d="M 62.912222,1074.7593 88.122184,1039.4494 65.244617,1076.08 Z"
       id="path4400-4"
       inkscape:connector-curvature="0"
       sodipodi:nodetypes="cccc" />
    <path
       style="fill:#cccccc;stroke:none;stroke-width:1.49612522px;stroke-linecap:butt;stroke-linejoin:miter;stroke-opacity:1"
       d="m 71.922776,1002.2236 2.397132,-1.0615 -0.413445,-1.98001 z"
       id="path4402-2"
       inkscape:connector-curvature="0" />
    <path
       style="fill:#cccccc;stroke:none;stroke-width:1.49612522px;stroke-linecap:butt;stroke-linejoin:miter;stroke-opacity:1"
       d="m 74.319908,1001.1621 18.761208,10.6491 -19.174653,-12.62911 0.413445,1.98001"
       id="path4404-2"
       inkscape:connector-curvature="0" />
    <path
       style="fill:#4d4d4d;stroke:none;stroke-width:1.49612522px;stroke-linecap:butt;stroke-linejoin:miter;stroke-opacity:1"
       d="m 83.824476,1010.5549 6.251569,2.1557 0.889224,1.7455 z"
       id="path4406-4"
       inkscape:connector-curvature="0" />
    <path
       style="fill:#4d4d4d;stroke:none;stroke-width:1.49612522px;stroke-linecap:butt;stroke-linejoin:miter;stroke-opacity:1"
       d="m 90.076045,1012.7106 3.005071,-0.8994 -2.115847,2.6449 z"
       id="path4408-5"
       inkscape:connector-curvature="0" />
  </g>
</svg>
