<?xml version="1.0" encoding="UTF-8" standalone="no"?>
<!-- Created with Inkscape (http://www.inkscape.org/) -->

<svg
   xmlns:dc="http://purl.org/dc/elements/1.1/"
   xmlns:cc="http://creativecommons.org/ns#"
   xmlns:rdf="http://www.w3.org/1999/02/22-rdf-syntax-ns#"
   xmlns:svg="http://www.w3.org/2000/svg"
   xmlns="http://www.w3.org/2000/svg"
   xmlns:sodipodi="http://sodipodi.sourceforge.net/DTD/sodipodi-0.dtd"
   xmlns:inkscape="http://www.inkscape.org/namespaces/inkscape"
   width="128"
   height="128"
   viewBox="0 0 128 128.00001"
   version="1.1"
   id="svg6294"
   inkscape:version="0.92.3 (2405546, 2018-03-11)"
   sodipodi:docname="pause.svg">
  <defs
     id="defs6288" />
  <sodipodi:namedview
     id="base"
     pagecolor="#ffffff"
     bordercolor="#666666"
     borderopacity="1.0"
     inkscape:pageopacity="0.0"
     inkscape:pageshadow="2"
     inkscape:zoom="2.1832557"
     inkscape:cx="7.698611"
     inkscape:cy="40.4102"
     inkscape:document-units="px"
     inkscape:current-layer="layer1"
     showgrid="false"
     units="px"
     inkscape:window-width="1366"
     inkscape:window-height="713"
     inkscape:window-x="0"
     inkscape:window-y="27"
     inkscape:window-maximized="1" />
  <metadata
     id="metadata6291">
    <rdf:RDF>
      <cc:Work
         rdf:about="">
        <dc:format>image/svg+xml</dc:format>
        <dc:type
           rdf:resource="http://purl.org/dc/dcmitype/StillImage" />
        <dc:title />
      </cc:Work>
    </rdf:RDF>
  </metadata>
  <g
     inkscape:label="Layer 1"
     inkscape:groupmode="layer"
     id="layer1"
     transform="translate(0,-994.51965)">
    <path
       sodipodi:type="inkscape:offset"
       inkscape:radius="6.8892794"
       inkscape:original="M 27.996094 1010.5176 L 35.966797 1106.5234 L 63.863281 1106.1621 L 66.398438 1015.2285 L 27.996094 1010.5176 z M 104.88867 1017.4609 L 73.455078 1017.8496 L 77.722656 1105.168 L 100.61914 1104.7793 L 104.88867 1017.4609 z "
       style="fill:#000000;stroke:none;stroke-width:2.04940462px;stroke-linecap:butt;stroke-linejoin:miter;stroke-opacity:1"
       id="path4456-3"
       d="m 28.148438,1003.6309 a 6.8899683,6.8899683 0 0 0 -7.017579,7.457 l 7.970703,96.0059 a 6.8899683,6.8899683 0 0 0 6.955079,6.3183 l 27.896484,-0.3613 A 6.8899683,6.8899683 0 0 0 70.75,1106.3535 l 0.04883,-1.7363 0.04297,0.8867 a 6.8899683,6.8899683 0 0 0 6.998047,6.5527 l 22.896486,-0.3886 a 6.8899683,6.8899683 0 0 0 6.76367,-6.5528 l 4.26953,-87.3183 a 6.8899683,6.8899683 0 0 0 -6.9668,-7.2246 l -31.433589,0.3886 a 6.8899683,6.8899683 0 0 0 -1.439453,0.1739 6.8899683,6.8899683 0 0 0 -4.69336,-2.7442 l -38.402344,-4.7109 a 6.8899683,6.8899683 0 0 0 -0.685546,-0.049 z"
       transform="matrix(0.98375502,0,0,0.98375502,-0.76446098,17.194344)" />
    <path
       style="fill:#ff6600;stroke:none;stroke-width:2.01611209px;stroke-linecap:butt;stroke-linejoin:miter;stroke-opacity:1"
       d="m 26.77822,1011.2967 37.778621,4.6333 -2.494825,89.4566 -27.442896,0.3566 z"
       id="path4456"
       inkscape:connector-curvature="0" />
    <path
       style="fill:#ff6600;stroke:none;stroke-width:2.1596632px;stroke-linecap:butt;stroke-linejoin:miter;stroke-opacity:1"
       d="m 71.498035,1018.5093 30.923945,-0.3817 -4.199516,85.9001 -22.524926,0.3816 z"
       id="path4458"
       inkscape:connector-curvature="0" />
    <path
       style="fill:#ff9955;stroke:none;stroke-width:2.01611209px;stroke-linecap:butt;stroke-linejoin:miter;stroke-opacity:1"
       d="m 34.61912,1105.7432 1.069113,-83.7545 -8.910013,-10.692 z"
       id="path4460"
       inkscape:connector-curvature="0" />
    <path
       style="fill:#ff7f2a;stroke:none;stroke-width:2.01611209px;stroke-linecap:butt;stroke-linejoin:miter;stroke-opacity:1"
       d="M 35.688233,1021.9887 64.556841,1015.93 26.77822,1011.2967 Z"
       id="path4462"
       inkscape:connector-curvature="0" />
    <path
       style="fill:#d45500;stroke:none;stroke-width:2.01611209px;stroke-linecap:butt;stroke-linejoin:miter;stroke-opacity:1"
       d="m 64.556841,1015.93 -11.761267,80.1901 9.266442,9.2665 z"
       id="path4464"
       inkscape:connector-curvature="0" />
    <path
       style="fill:#aa4400;stroke:none;stroke-width:2.01611209px;stroke-linecap:butt;stroke-linejoin:miter;stroke-opacity:1"
       d="m 52.795574,1096.1201 -18.176454,9.6231 27.442896,-0.3566 z"
       id="path4466"
       inkscape:connector-curvature="0" />
    <path
       style="fill:#ff9955;stroke:none;stroke-width:2.1596632px;stroke-linecap:butt;stroke-linejoin:miter;stroke-opacity:1"
       d="m 75.697538,1104.4093 3.817697,-74.4466 -8.0172,-11.4534 z"
       id="path4470"
       inkscape:connector-curvature="0" />
    <path
       style="fill:#ff7f2a;stroke:none;stroke-width:2.1596632px;stroke-linecap:butt;stroke-linejoin:miter;stroke-opacity:1"
       d="m 79.515235,1029.9627 22.906745,-11.8351 -30.923945,0.3817 z"
       id="path4472"
       inkscape:connector-curvature="0" />
    <path
       style="fill:#aa4400;stroke:none;stroke-width:2.1596632px;stroke-linecap:butt;stroke-linejoin:miter;stroke-opacity:1"
       d="m 75.697538,1104.4093 16.416393,-7.2537 6.108533,6.8721 z"
       id="path4474"
       inkscape:connector-curvature="0" />
    <path
       style="fill:#d45500;stroke:none;stroke-width:2.1596632px;stroke-linecap:butt;stroke-linejoin:miter;stroke-opacity:1"
       d="m 92.113931,1097.1556 10.308049,-79.028 -4.199516,85.9001 z"
       id="path4476"
       inkscape:connector-curvature="0" />
  </g>
</svg>
