<?xml version="1.0" encoding="UTF-8" standalone="no"?>
<!-- Created with Inkscape (http://www.inkscape.org/) -->

<svg
   xmlns:dc="http://purl.org/dc/elements/1.1/"
   xmlns:cc="http://creativecommons.org/ns#"
   xmlns:rdf="http://www.w3.org/1999/02/22-rdf-syntax-ns#"
   xmlns:svg="http://www.w3.org/2000/svg"
   xmlns="http://www.w3.org/2000/svg"
   xmlns:sodipodi="http://sodipodi.sourceforge.net/DTD/sodipodi-0.dtd"
   xmlns:inkscape="http://www.inkscape.org/namespaces/inkscape"
   width="128"
   height="128"
   viewBox="0 0 128 128.00001"
   version="1.1"
   id="svg6294"
   inkscape:version="0.92.3 (2405546, 2018-03-11)"
   sodipodi:docname="thunderbird_reset.svg">
  <defs
     id="defs6288" />
  <sodipodi:namedview
     id="base"
     pagecolor="#ffffff"
     bordercolor="#666666"
     borderopacity="1.0"
     inkscape:pageopacity="0.0"
     inkscape:pageshadow="2"
     inkscape:zoom="3.2865946"
     inkscape:cx="38.343623"
     inkscape:cy="47.690671"
     inkscape:document-units="px"
     inkscape:current-layer="layer1"
     showgrid="false"
     units="px"
     inkscape:window-width="1366"
     inkscape:window-height="713"
     inkscape:window-x="0"
     inkscape:window-y="27"
     inkscape:window-maximized="1"
     showguides="false" />
  <metadata
     id="metadata6291">
    <rdf:RDF>
      <cc:Work
         rdf:about="">
        <dc:format>image/svg+xml</dc:format>
        <dc:type
           rdf:resource="http://purl.org/dc/dcmitype/StillImage" />
        <dc:title />
      </cc:Work>
    </rdf:RDF>
  </metadata>
  <g
     inkscape:label="Layer 1"
     inkscape:groupmode="layer"
     id="layer1"
     transform="translate(0,-994.51965)">
    <path
       sodipodi:type="inkscape:offset"
       inkscape:radius="5.2081971"
       inkscape:original="M 64.330078 1037.4043 L 48.355469 1043.9453 L 32.990234 1057.4844 L 26.601562 1072.8516 L 21.732422 1077.5664 L 21.023438 1086.1484 L 25.080078 1082.8926 L 30.9375 1083.043 L 53.376953 1080.457 L 53.224609 1092.4766 L 78.25 1095.291 L 103.56836 1066.5957 L 97.53125 1057.9512 L 75.585938 1047.1934 L 68.970703 1047.1406 L 73.837891 1043.4121 L 59.310547 1047.5957 L 64.939453 1042.2715 L 74.675781 1037.8594 L 64.330078 1037.4043 z "
       style="fill:#000000;stroke:none;stroke-width:1px;stroke-linecap:butt;stroke-linejoin:miter;stroke-opacity:1"
       id="path884-7"
       d="m 64.558594,1032.2012 a 5.2087179,5.2087179 0 0 0 -2.201172,0.3828 l -15.97461,6.541 a 5.2087179,5.2087179 0 0 0 -1.470703,0.9121 l -15.365234,13.5391 a 5.2087179,5.2087179 0 0 0 -1.365234,1.9082 l -5.976563,14.375 -4.095703,3.9648 a 5.2087179,5.2087179 0 0 0 -1.568359,3.3125 l -0.708985,8.5821 a 5.2087179,5.2087179 0 0 0 8.451172,4.4921 l 2.570313,-2.0625 3.951172,0.1016 a 5.2087179,5.2087179 0 0 0 0.728515,-0.033 l 16.5625,-1.9082 -0.07813,6.1016 a 5.2087179,5.2087179 0 0 0 4.625,5.2421 l 25.025391,2.8145 a 5.2087179,5.2087179 0 0 0 4.488281,-1.7305 l 25.31836,-28.6953 a 5.2087179,5.2087179 0 0 0 0.36328,-6.4277 l -6.03711,-8.6445 a 5.2087179,5.2087179 0 0 0 -1.976561,-1.6934 L 79.029297,1043.082 a 5.2087179,5.2087179 0 0 0 -0.443359,-1.791 5.2087179,5.2087179 0 0 0 -3.681641,-8.6348 z" />
    <path
       style="fill:#3771c8;stroke:none;stroke-width:1px;stroke-linecap:butt;stroke-linejoin:miter;stroke-opacity:1"
       d="m 53.376275,1080.4574 -0.152143,12.0186 25.025915,2.8145 25.318393,-28.695 -6.037125,-8.6446 -21.94518,-10.7576 z"
       id="path884"
       inkscape:connector-curvature="0"
       sodipodi:nodetypes="ccccccc" />
    <path
       sodipodi:type="inkscape:offset"
       inkscape:radius="6.1468868"
       inkscape:original="M 73.875 1010.2402 L 71.548828 1021.0977 L 45.117188 1023.998 L 21.722656 1048.125 L 23.548828 1084.8633 L 49.503906 1106.7969 L 84.597656 1102.4102 L 103.78906 1081.5742 L 106.16602 1063.2969 L 88.253906 1063.4785 L 86.910156 1076.1035 L 77.558594 1087.3594 L 56.267578 1089.4336 L 40.181641 1076.0898 L 39.816406 1053.791 L 51.332031 1041.9102 L 68.513672 1040.084 L 66.378906 1052.375 L 102.04883 1039.1914 L 73.875 1010.2402 z "
       style="fill:#000000;stroke:none;stroke-width:1.46222365px;stroke-linecap:butt;stroke-linejoin:miter;stroke-opacity:1"
       id="path4715-8-3"
       d="m 73.867188,1004.0938 a 6.1475015,6.1475015 0 0 0 -6.001954,4.8593 l -1.396484,6.5176 -22.021484,2.418 a 6.1475015,6.1475015 0 0 0 -3.742188,1.8301 l -23.394531,24.1269 a 6.1475015,6.1475015 0 0 0 -1.726563,4.584 l 1.826172,36.7383 a 6.1475015,6.1475015 0 0 0 2.171875,4.3906 l 25.955078,21.9336 a 6.1475015,6.1475015 0 0 0 4.728516,1.4043 l 35.09375,-4.3867 a 6.1475015,6.1475015 0 0 0 3.759766,-1.9356 l 19.191409,-20.8359 a 6.1475015,6.1475015 0 0 0 1.57422,-3.3711 l 2.37695,-18.2774 a 6.1475015,6.1475015 0 0 0 -6.1582,-6.9394 l -17.912114,0.1816 a 6.1475015,6.1475015 0 0 0 -6.050781,5.4961 l -1.146484,10.7774 -6.548829,7.8808 -16.224609,1.5801 -11.939453,-9.9023 -0.277344,-16.9258 8.191406,-8.4512 6.867188,-0.7285 -0.740234,4.2637 a 6.1475015,6.1475015 0 0 0 8.1875,6.8183 l 35.669924,-13.1836 a 6.1475015,6.1475015 0 0 0 2.27343,-10.0527 l -28.173823,-28.9512 a 6.1475015,6.1475015 0 0 0 -4.412109,-1.8593 z" />
    <path
       style="fill:#3771c8;fill-opacity:1;stroke:none;stroke-width:1.46222365px;stroke-linecap:butt;stroke-linejoin:miter;stroke-opacity:1"
       d="m -99.993154,1079.8082 3.489597,15.7677 36.963698,-0.7754 7.88387,-10.2103 -8.400912,-12.9244 -12.019625,-13.829 z"
       id="path5177"
       inkscape:connector-curvature="0"
       sodipodi:nodetypes="ccccccc" />
    <path
       style="fill:#87aade;fill-opacity:1;stroke:none;stroke-width:1.46222365px;stroke-linecap:butt;stroke-linejoin:miter;stroke-opacity:1"
       d="m -96.503557,1095.5759 -0.247847,-14.6055 -2.207812,-10.9847 -1.033938,9.8225 z"
       id="path5195"
       inkscape:connector-curvature="0"
       sodipodi:nodetypes="ccccc" />
    <path
       style="fill:#ff6600;stroke:none;stroke-width:1.46222365px;stroke-linecap:butt;stroke-linejoin:miter;stroke-opacity:1"
       d="m 68.512918,1040.0832 -2.1347,12.291 35.671102,-13.1828 -28.175012,-28.9505 -2.326398,10.8564 -26.430571,2.9015 -23.395578,24.1267 1.827779,36.7383 25.95447,21.9334 35.093369,-4.3867 19.191691,-20.8367 2.37611,-18.2778 -17.912246,0.1828 -1.342171,12.6247 -9.352968,11.2565 -21.291,2.0733 -16.08446,-13.3428 -0.365556,-22.2989 11.515011,-11.8806 z"
       id="path4715-8"
       inkscape:connector-curvature="0"
       sodipodi:nodetypes="cccccccccccccccccccc" />
    <path
       style="fill:#ff9955;stroke:none;stroke-width:1.46222365px;stroke-linecap:butt;stroke-linejoin:miter;stroke-opacity:1"
       d="m 21.721761,1048.1255 25.657638,-19.2736 -2.26206,-4.8531 z"
       id="path4717-9"
       inkscape:connector-curvature="0" />
    <path
       style="fill:#ffb380;stroke:none;stroke-width:1.46222365px;stroke-linecap:butt;stroke-linejoin:miter;stroke-opacity:1"
       d="m 47.379399,1028.8519 24.168511,-7.7546 -26.430571,2.9015 z"
       id="path4719-2"
       inkscape:connector-curvature="0" />
    <path
       style="fill:#ff9955;stroke:none;stroke-width:1.46222365px;stroke-linecap:butt;stroke-linejoin:miter;stroke-opacity:1"
       d="m 71.54791,1021.0973 4.523535,-3.1018 -2.197137,-7.7546 z"
       id="path4721-6"
       inkscape:connector-curvature="0" />
    <path
       style="fill:#d45500;stroke:none;stroke-width:1.46222365px;stroke-linecap:butt;stroke-linejoin:miter;stroke-opacity:1"
       d="m 73.874308,1010.2409 28.175012,28.9505 -11.502596,-1.0339 z"
       id="path4725-6"
       inkscape:connector-curvature="0" />
    <path
       style="fill:#aa4400;stroke:none;stroke-width:1.46222365px;stroke-linecap:butt;stroke-linejoin:miter;stroke-opacity:1"
       d="m 90.546724,1038.1575 -24.168506,14.2167 35.671102,-13.1828 z"
       id="path4727-49"
       inkscape:connector-curvature="0" />
    <path
       style="fill:#d45500;stroke:none;stroke-width:1.46222365px;stroke-linecap:butt;stroke-linejoin:miter;stroke-opacity:1"
       d="m 68.512918,1040.0832 -18.419485,-1.8611 1.238357,3.6889 z"
       id="path4729-5"
       inkscape:connector-curvature="0" />
    <path
       style="fill:#aa4400;fill-opacity:1;stroke:none;stroke-width:1.46222365px;stroke-linecap:butt;stroke-linejoin:miter;stroke-opacity:1"
       d="m 50.093433,1038.2221 -10.27665,15.5695 11.515007,-11.8806 z"
       id="path4731-0"
       inkscape:connector-curvature="0" />
    <path
       style="fill:#3771c8;fill-opacity:1;stroke:none;stroke-width:1.46222365px;stroke-linecap:butt;stroke-linejoin:miter;stroke-opacity:1"
       d="m -105.29211,1054.0887 0.77542,-9.6932 7.366974,-6.85 7.49609,0.3878 6.97919,-2.0679 13.18283,0.7754 -6.97145,4.027 7.31112,0.6397 -6.58,6.58 3.65541,9.9493 12.01962,13.829 -39.93625,8.1424 1.03394,-9.8225 -2.067874,-7.4961 h -3.87724 l -2.19713,1.8094 -0.25852,-7.7547 z"
       id="path5175"
       inkscape:connector-curvature="0"
       sodipodi:nodetypes="cccccccccccccccccc" />
    <path
       style="fill:#ffb380;stroke:none;stroke-width:1.46222365px;stroke-linecap:butt;stroke-linejoin:miter;stroke-opacity:1"
       d="m 21.721761,1048.1255 4.569449,16.6328 -2.74167,20.1055 z"
       id="path4733-4"
       inkscape:connector-curvature="0" />
    <path
       style="fill:#d45500;stroke:none;stroke-width:1.46222365px;stroke-linecap:butt;stroke-linejoin:miter;stroke-opacity:1"
       d="m 39.816785,1053.7916 -3.47279,13.5255 3.83834,8.7734 z"
       id="path4735-8"
       inkscape:connector-curvature="0" />
    <path
       style="fill:#ff9955;stroke:none;stroke-width:1.46222365px;stroke-linecap:butt;stroke-linejoin:miter;stroke-opacity:1"
       d="m 56.266795,1089.4333 22.847245,2.3761 -1.556245,-4.4494 z"
       id="path4737-7"
       inkscape:connector-curvature="0" />
    <path
       style="fill:#ffb380;stroke:none;stroke-width:1.46222365px;stroke-linecap:butt;stroke-linejoin:miter;stroke-opacity:1"
       d="m 79.11404,1091.8094 7.796723,-15.7059 -9.352968,11.2565 z"
       id="path4739-1"
       inkscape:connector-curvature="0" />
    <path
       style="fill:#aa4400;stroke:none;stroke-width:1.46222365px;stroke-linecap:butt;stroke-linejoin:miter;stroke-opacity:1"
       d="m 49.50401,1106.7972 33.082811,-8.225 2.010558,3.8383 z"
       id="path4741-7"
       inkscape:connector-curvature="0" />
    <path
       style="fill:#d45500;stroke:none;stroke-width:1.46222365px;stroke-linecap:butt;stroke-linejoin:miter;stroke-opacity:1"
       d="m 82.586821,1098.5722 21.202249,-16.9984 -19.191691,20.8367 z"
       id="path4743-2"
       inkscape:connector-curvature="0" />
    <path
       style="fill:#ffb380;stroke:none;stroke-width:1.46222365px;stroke-linecap:butt;stroke-linejoin:miter;stroke-opacity:1"
       d="m 106.16518,1063.296 -13.525576,3.8384 -4.38667,-3.6556 z"
       id="path4745-7"
       inkscape:connector-curvature="0"
       sodipodi:nodetypes="cccc" />
    <path
       style="fill:#ff9955;stroke:none;stroke-width:1.46222365px;stroke-linecap:butt;stroke-linejoin:miter;stroke-opacity:1"
       d="m 92.639604,1067.1344 -5.728841,8.9691 1.342171,-12.6247 z"
       id="path4749-2"
       inkscape:connector-curvature="0"
       sodipodi:nodetypes="cccc" />
    <path
       style="fill:#87aade;fill-opacity:1;stroke:none;stroke-width:1.46222365px;stroke-linecap:butt;stroke-linejoin:miter;stroke-opacity:1"
       d="m -105.29211,1054.0887 3.74812,-8.013 7.108309,-5.2991 -2.714033,-3.2311 -7.366976,6.85 z"
       id="path5179"
       inkscape:connector-curvature="0" />
    <path
       style="fill:#5f8dd3;fill-opacity:1;stroke:none;stroke-width:1.46222365px;stroke-linecap:butt;stroke-linejoin:miter;stroke-opacity:1"
       d="m -94.435681,1040.7766 5.557474,-0.84 -0.775417,-2.0033 -7.49609,-0.3878 z"
       id="path5181"
       inkscape:connector-curvature="0" />
    <path
       style="fill:none;stroke:none;stroke-width:1.46222365px;stroke-linecap:butt;stroke-linejoin:miter;stroke-opacity:1"
       d="m -88.878207,1039.9366 7.754611,-2.1972 -1.550835,-1.874 -6.979193,2.0679 z"
       id="path5183"
       inkscape:connector-curvature="0" />
    <path
       style="fill:#5f8dd3;fill-opacity:1;stroke:none;stroke-width:1.46222365px;stroke-linecap:butt;stroke-linejoin:miter;stroke-opacity:1"
       d="m -81.123596,1037.7394 11.631989,-1.0986 -13.182824,-0.7754 z"
       id="path5185"
       inkscape:connector-curvature="0" />
    <path
       style="fill:#2c5aa0;fill-opacity:1;stroke:none;stroke-width:1.46222365px;stroke-linecap:butt;stroke-linejoin:miter;stroke-opacity:1"
       d="m -76.463051,1040.6678 -2.560207,-1.1837 9.531651,-2.8433 z"
       id="path5187"
       inkscape:connector-curvature="0" />
    <path
       style="fill:#2c5aa0;fill-opacity:1;stroke:none;stroke-width:1.46222365px;stroke-linecap:butt;stroke-linejoin:miter;stroke-opacity:1"
       d="m -69.151933,1041.3075 -7.674188,3.8634 1.094182,2.7166 z"
       id="path5189"
       inkscape:connector-curvature="0" />
    <path
       style="fill:#2c5aa0;fill-opacity:1;stroke:none;stroke-width:1.46222365px;stroke-linecap:butt;stroke-linejoin:miter;stroke-opacity:1"
       d="m -75.731939,1047.8875 2.686105,18.6732 1.873986,-4.3296 -0.904678,-4.3943 z"
       id="path5191"
       inkscape:connector-curvature="0" />
    <path
       style="fill:#2c5aa0;fill-opacity:1;stroke:none;stroke-width:1.46222365px;stroke-linecap:butt;stroke-linejoin:miter;stroke-opacity:1"
       d="m -71.171848,1062.2311 11.114947,9.4347 -12.019625,-13.829 z"
       id="path5193"
       inkscape:connector-curvature="0" />
    <path
       style="fill:#5f8dd3;fill-opacity:1;stroke:none;stroke-width:1.46222365px;stroke-linecap:butt;stroke-linejoin:miter;stroke-opacity:1"
       d="m -96.660746,1068.4501 -4.366344,-5.9605 2.067874,7.4961 z"
       id="path5197"
       inkscape:connector-curvature="0" />
    <path
       style="fill:#c8b7b7;fill-opacity:1;stroke:none;stroke-width:1.46222365px;stroke-linecap:butt;stroke-linejoin:miter;stroke-opacity:1"
       d="m -107.35998,1056.5443 0.25852,7.7547 2.19713,-1.8094 h 3.87724 l 2.630684,-5.2348 -5.300564,-1.645 -1.59514,-1.5211 z"
       id="path5199"
       inkscape:connector-curvature="0" />
    <path
       style="fill:#ac9393;fill-opacity:1;stroke:none;stroke-width:1.46222365px;stroke-linecap:butt;stroke-linejoin:miter;stroke-opacity:1"
       d="m -104.90433,1062.4896 6.507924,-5.2348 -2.630684,5.2348 z"
       id="path5201"
       inkscape:connector-curvature="0" />
    <path
       style="fill:#e3dbdb;fill-opacity:1;stroke:none;stroke-width:1.46222365px;stroke-linecap:butt;stroke-linejoin:miter;stroke-opacity:1"
       d="m -107.10146,1064.299 3.40449,-8.6892 -1.59514,-1.5211 -2.06787,2.4556 z"
       id="path5203"
       inkscape:connector-curvature="0" />
    <path
       style="fill:#ffffff;fill-opacity:1;stroke:none;stroke-width:1.46222365px;stroke-linecap:butt;stroke-linejoin:miter;stroke-opacity:1"
       d="m -95.654737,1054.9245 0.91389,-4.2039 6.397229,-1.0053 -2.74167,5.6661 z"
       id="path5205"
       inkscape:connector-curvature="0" />
    <path
       style="fill:#2c5aa0;fill-opacity:1;stroke:none;stroke-width:1.46222365px;stroke-linecap:butt;stroke-linejoin:miter;stroke-opacity:1"
       d="m -95.654737,1054.9245 -1.59938,-6.6714 6.99133,-2.1477 9.093131,-0.091 -7.173962,3.7006 -6.397229,1.0053 z"
       id="path5207"
       inkscape:connector-curvature="0" />
    <path
       style="fill:#5f8dd3;fill-opacity:1;stroke:none;stroke-width:1.46222365px;stroke-linecap:butt;stroke-linejoin:miter;stroke-opacity:1"
       d="m -91.085288,1055.3814 3.609792,0.4114 5.437717,-9.4589 -6.305839,3.3814 z"
       id="path5209"
       inkscape:connector-curvature="0" />
    <path
       style="fill:#333333;stroke:none;stroke-width:1.46222365px;stroke-linecap:butt;stroke-linejoin:miter;stroke-opacity:1"
       d="m -94.558069,1054.2391 0.263785,-2.0557 2.591499,0.4831 -0.761233,1.7129 z"
       id="path5211"
       inkscape:connector-curvature="0"
       sodipodi:nodetypes="ccccc" />
    <path
       style="fill:#87aade;fill-opacity:1;stroke:none;stroke-width:1.46222365px;stroke-linecap:butt;stroke-linejoin:miter;stroke-opacity:1"
       d="m -96.751404,1080.9704 0.09066,-12.5203 -2.29847,1.5356 -1.033938,9.8225 z"
       id="path5195-1"
       inkscape:connector-curvature="0"
       sodipodi:nodetypes="ccccc" />
    <path
       style="fill:#3771c8;stroke:none;stroke-width:1px;stroke-linecap:butt;stroke-linejoin:miter;stroke-opacity:1"
       d="m 53.376275,1080.4574 -22.43964,2.5863 -5.85713,-0.1521 -4.05539,3.2577 0.70846,-8.5824 4.86826,-4.7161 6.3896,-15.3655 15.36544,-13.5398 15.97399,-6.5418 10.34505,0.4564 -9.73652,4.4119 -5.62893,5.3247 14.52872,-4.1837 -4.86826,3.7273 6.61621,0.053 21.94518,10.7576 -17.68387,0.2951 -5.4768,18.4081 z"
       id="path860"
       inkscape:connector-curvature="0"
       sodipodi:nodetypes="ccccccccccccccccccc" />
    <path
       style="fill:#2c5aa0;stroke:none;stroke-width:1px;stroke-linecap:butt;stroke-linejoin:miter;stroke-opacity:1"
       d="m 24.775245,1080.6096 28.60103,-0.1522 -22.43964,2.5863 z"
       id="path866"
       inkscape:connector-curvature="0" />
    <path
       style="fill:#ac9393;stroke:none;stroke-width:1px;stroke-linecap:butt;stroke-linejoin:miter;stroke-opacity:1"
       d="m 30.936635,1083.0437 1.141,-4.7161 -7.30239,2.282 -3.75113,5.5397 4.05539,-3.2577 z"
       id="path862"
       inkscape:connector-curvature="0" />
    <path
       style="fill:#e3dbdb;stroke:none;stroke-width:1px;stroke-linecap:butt;stroke-linejoin:miter;stroke-opacity:1"
       d="m 32.077635,1078.3276 -4.41186,-2.5102 -1.06494,-2.9666 -4.86826,4.7161 -0.70846,8.5824 3.75113,-5.5397 z"
       id="path864"
       inkscape:connector-curvature="0" />
    <path
       style="fill:#87aade;stroke:none;stroke-width:1px;stroke-linecap:butt;stroke-linejoin:miter;stroke-opacity:1"
       d="m 27.665775,1075.8174 8.74765,-15.2134 -3.42299,-3.1187 -6.3896,15.3655 z"
       id="path868"
       inkscape:connector-curvature="0" />
    <path
       style="fill:#5f8dd3;stroke:none;stroke-width:1px;stroke-linecap:butt;stroke-linejoin:miter;stroke-opacity:1"
       d="m 36.413425,1060.604 13.53985,-14.909 14.37659,-8.2913 -15.97399,6.5418 -15.36544,13.5398 z"
       id="path870"
       inkscape:connector-curvature="0" />
    <path
       style="fill:#2c5aa0;stroke:none;stroke-width:1px;stroke-linecap:butt;stroke-linejoin:miter;stroke-opacity:1"
       d="m 56.342865,1048.8898 5.2486,-6.5417 13.08345,-4.488 -9.73652,4.4119 -5.62893,5.3247 z"
       id="path872"
       inkscape:connector-curvature="0" />
    <path
       style="fill:#2c5aa0;stroke:none;stroke-width:1px;stroke-linecap:butt;stroke-linejoin:miter;stroke-opacity:1"
       d="m 68.969925,1047.1403 h -2.282 l 7.15026,-3.7273 z"
       id="path874"
       inkscape:connector-curvature="0" />
    <path
       style="fill:#2c5aa0;stroke:none;stroke-width:1px;stroke-linecap:butt;stroke-linejoin:miter;stroke-opacity:1"
       d="m 33.903235,1075.9695 0.68459,-6.0093 6.23746,-8.063 29.5899,-0.3804 -11.02965,1.6735 z"
       id="path876"
       inkscape:connector-curvature="0" />
    <path
       style="fill:#5f8dd3;stroke:none;stroke-width:1px;stroke-linecap:butt;stroke-linejoin:miter;stroke-opacity:1"
       d="m 33.903235,1075.9695 6.46565,2.8905 19.62518,-13.3877 10.42112,-3.9555 -11.02965,1.6735 z"
       id="path878"
       inkscape:connector-curvature="0" />
    <path
       style="fill:#ffffff;stroke:none;stroke-width:1px;stroke-linecap:butt;stroke-linejoin:miter;stroke-opacity:1"
       d="m 37.782625,1073.9918 v -2.6624 l 2.282,-2.2059 5.85712,0.9889 -2.96659,4.7922 z"
       id="path880"
       inkscape:connector-curvature="0" />
    <path
       style="fill:#333333;stroke:none;stroke-width:1px;stroke-linecap:butt;stroke-linejoin:miter;stroke-opacity:1"
       d="m 39.189855,1070.9871 0.89378,2.6434 1.9397,0.2091 -0.41836,-2.7003 z"
       id="path882"
       inkscape:connector-curvature="0" />
  </g>
</svg>
