<?xml version="1.0" encoding="UTF-8" standalone="no"?>
<!-- Created with Inkscape (http://www.inkscape.org/) -->

<svg
   xmlns:dc="http://purl.org/dc/elements/1.1/"
   xmlns:cc="http://creativecommons.org/ns#"
   xmlns:rdf="http://www.w3.org/1999/02/22-rdf-syntax-ns#"
   xmlns:svg="http://www.w3.org/2000/svg"
   xmlns="http://www.w3.org/2000/svg"
   xmlns:sodipodi="http://sodipodi.sourceforge.net/DTD/sodipodi-0.dtd"
   xmlns:inkscape="http://www.inkscape.org/namespaces/inkscape"
   width="128"
   height="128"
   viewBox="0 0 128 128.00001"
   version="1.1"
   id="svg6294"
   inkscape:version="0.92.3 (2405546, 2018-03-11)"
   sodipodi:docname="achieve.svg">
  <defs
     id="defs6288" />
  <sodipodi:namedview
     id="base"
     pagecolor="#ffffff"
     bordercolor="#666666"
     borderopacity="1.0"
     inkscape:pageopacity="0.0"
     inkscape:pageshadow="2"
     inkscape:zoom="2.0510585"
     inkscape:cx="0.50302756"
     inkscape:cy="60.741583"
     inkscape:document-units="px"
     inkscape:current-layer="layer1"
     showgrid="false"
     units="px"
     inkscape:window-width="1366"
     inkscape:window-height="713"
     inkscape:window-x="0"
     inkscape:window-y="27"
     inkscape:window-maximized="1" />
  <metadata
     id="metadata6291">
    <rdf:RDF>
      <cc:Work
         rdf:about="">
        <dc:format>image/svg+xml</dc:format>
        <dc:type
           rdf:resource="http://purl.org/dc/dcmitype/StillImage" />
        <dc:title></dc:title>
      </cc:Work>
    </rdf:RDF>
  </metadata>
  <g
     inkscape:label="Layer 1"
     inkscape:groupmode="layer"
     id="layer1"
     transform="translate(0,-994.51965)">
    <path
       sodipodi:type="inkscape:offset"
       inkscape:radius="3.5696802"
       inkscape:original="M 2371.5664 1061.2324 L 2360.584 1074.2227 L 2362.8613 1092.0332 L 2367.1621 1095.6758 L 2355.9785 1111.2773 L 2368.3555 1109.0625 L 2372.8262 1119.707 L 2379.5098 1100.3164 L 2382.4082 1100.3633 L 2388.6289 1119.5723 L 2394.2051 1110.9551 L 2406.7383 1113.0273 L 2394.0742 1095.5059 L 2401.4297 1088.1504 L 2400.4922 1071.5449 L 2391.3867 1062.1699 L 2371.5664 1061.2324 z "
       style="fill:#000000;stroke:none;stroke-width:1px;stroke-linecap:butt;stroke-linejoin:miter;stroke-opacity:1"
       id="path4781-7"
       d="m 2371.7344,1057.666 a 3.5700372,3.5700372 0 0 0 -2.8946,1.2617 l -10.9824,12.9903 a 3.5700372,3.5700372 0 0 0 -0.8144,2.7578 l 2.2773,17.8105 a 3.5700372,3.5700372 0 0 0 1.2344,2.2715 l 1.7871,1.5137 -9.2637,12.9258 a 3.5700372,3.5700372 0 0 0 3.5293,5.5937 l 9.5645,-1.7109 3.3633,8.0097 a 3.5700372,3.5700372 0 0 0 6.666,-0.2187 l 4.6894,-13.6074 4.3418,13.4082 a 3.5700372,3.5700372 0 0 0 6.3926,0.8398 l 4.3066,-6.6523 10.2246,1.6894 a 3.5700372,3.5700372 0 0 0 3.4747,-5.6133 l -10.8829,-15.0566 5.2051,-5.2051 a 3.5700372,3.5700372 0 0 0 1.041,-2.7246 l -0.9375,-16.6054 a 3.5700372,3.5700372 0 0 0 -1.0039,-2.2852 l -9.1054,-9.375 a 3.5700372,3.5700372 0 0 0 -2.3926,-1.0801 z"
       transform="matrix(1.6459743,0,0,1.6459743,-3852.0067,-736.3649)" />
    <path
       style="fill:#ff6600;stroke:none;stroke-width:1.6459744px;stroke-linecap:butt;stroke-linejoin:miter;stroke-opacity:1"
       d="m 55.587248,1051.3164 -29.716637,41.4541 20.373419,-3.6469 7.359173,17.521 13.446378,-39.0163 12.564529,38.796 9.176091,-14.1834 20.631889,3.4107 -31.571368,-43.6739 z"
       id="path4781"
       inkscape:connector-curvature="0"
       sodipodi:nodetypes="cccccccccc" />
    <path
       style="fill:#aa4400;stroke:none;stroke-width:1.6459744px;stroke-linecap:butt;stroke-linejoin:miter;stroke-opacity:1"
       d="m 53.603203,1106.6446 8.878873,-43.3783 4.567505,4.362 z"
       id="path4803"
       inkscape:connector-curvature="0" />
    <path
       style="fill:#ff9955;stroke:none;stroke-width:1.6459744px;stroke-linecap:butt;stroke-linejoin:miter;stroke-opacity:1"
       d="m 55.587248,1051.3164 0.504336,10.547 -30.220973,30.9071 z"
       id="path4795"
       inkscape:connector-curvature="0"
       sodipodi:nodetypes="cccc" />
    <path
       style="fill:#d45500;stroke:none;stroke-width:1.6459744px;stroke-linecap:butt;stroke-linejoin:miter;stroke-opacity:1"
       d="m 109.42209,1095.6516 -31.571368,-43.6739 -5.29032,9.0375 z"
       id="path4811"
       inkscape:connector-curvature="0" />
    <path
       style="fill:#ff9955;fill-opacity:1;stroke:none;stroke-width:1.6459744px;stroke-linecap:butt;stroke-linejoin:miter;stroke-opacity:1"
       d="m 67.049581,1067.6283 12.564529,38.796 -7.053708,-45.4091 z"
       id="path4805"
       inkscape:connector-curvature="0" />
    <path
       style="fill:#ffcc00;stroke:none;stroke-width:1.6459744px;stroke-linecap:butt;stroke-linejoin:miter;stroke-opacity:1"
       d="m 33.45262,1031.7789 18.075349,-21.382 32.623924,1.543 14.98942,15.4304 1.542887,27.3337 -20.27974,20.2796 -27.333293,-0.4408 -15.871114,-13.4464 z"
       id="path4779"
       inkscape:connector-curvature="0"
       sodipodi:nodetypes="ccccccccc" />
    <path
       style="fill:#ffe680;stroke:none;stroke-width:1.6459744px;stroke-linecap:butt;stroke-linejoin:miter;stroke-opacity:1"
       d="m 37.200053,1061.0964 4.669586,-3.373 -8.417019,-25.9445 z"
       id="path4783"
       inkscape:connector-curvature="0"
       sodipodi:nodetypes="cccc" />
    <path
       style="fill:#fff6d5;stroke:none;stroke-width:1.6459744px;stroke-linecap:butt;stroke-linejoin:miter;stroke-opacity:1"
       d="m 33.45262,1031.7789 19.677369,-16.5203 -1.60202,-4.8617 z"
       id="path4785"
       inkscape:connector-curvature="0"
       sodipodi:nodetypes="cccc" />
    <path
       style="fill:#ffe680;stroke:none;stroke-width:1.6459744px;stroke-linecap:butt;stroke-linejoin:miter;stroke-opacity:1"
       d="m 53.129989,1015.2586 31.021904,-3.3187 -32.623924,-1.543 z"
       id="path4787"
       inkscape:connector-curvature="0"
       sodipodi:nodetypes="cccc" />
    <path
       style="fill:#aa8800;stroke:none;stroke-width:1.6459744px;stroke-linecap:butt;stroke-linejoin:miter;stroke-opacity:1"
       d="m 53.071167,1074.5428 25.1538,-4.5742 2.179493,5.015 z"
       id="path4789"
       inkscape:connector-curvature="0"
       sodipodi:nodetypes="cccc" />
    <path
       style="fill:#d4aa00;stroke:none;stroke-width:1.6459744px;stroke-linecap:butt;stroke-linejoin:miter;stroke-opacity:1"
       d="M 78.224967,1069.9686 100.6842,1054.704 80.40446,1074.9836 Z"
       id="path4791"
       inkscape:connector-curvature="0"
       sodipodi:nodetypes="cccc" />
    <path
       style="fill:#aa8800;stroke:none;stroke-width:1.6459744px;stroke-linecap:butt;stroke-linejoin:miter;stroke-opacity:1"
       d="m 100.6842,1054.704 -6.689733,-22.9318 5.146846,-4.4019 z"
       id="path4793"
       inkscape:connector-curvature="0"
       sodipodi:nodetypes="cccc" />
    <path
       style="fill:#aa4400;stroke:none;stroke-width:1.6459744px;stroke-linecap:butt;stroke-linejoin:miter;stroke-opacity:1"
       d="m 25.870611,1092.7705 22.895101,-9.7091 -2.521682,6.0622 z"
       id="path4799"
       inkscape:connector-curvature="0" />
    <path
       style="fill:#ff9955;stroke:none;stroke-width:1.6459744px;stroke-linecap:butt;stroke-linejoin:miter;stroke-opacity:1"
       d="m 48.765712,1083.0614 4.837491,23.5832 -7.359173,-17.521 z"
       id="path4801"
       inkscape:connector-curvature="0" />
    <path
       style="fill:#aa4400;stroke:none;stroke-width:1.6459744px;stroke-linecap:butt;stroke-linejoin:miter;stroke-opacity:1"
       d="m 79.61411,1106.4243 5.731322,-19.6184 3.444769,5.435 z"
       id="path4807"
       inkscape:connector-curvature="0" />
    <path
       style="fill:#ff9955;fill-opacity:1;stroke:none;stroke-width:1.6459744px;stroke-linecap:butt;stroke-linejoin:miter;stroke-opacity:1"
       d="m 85.345432,1086.8059 24.076658,8.8457 -20.631889,-3.4107 z"
       id="path4809"
       inkscape:connector-curvature="0" />
  </g>
</svg>
