<?xml version="1.0" encoding="UTF-8" standalone="no"?>
<svg
   xmlns:dc="http://purl.org/dc/elements/1.1/"
   xmlns:cc="http://creativecommons.org/ns#"
   xmlns:rdf="http://www.w3.org/1999/02/22-rdf-syntax-ns#"
   xmlns:svg="http://www.w3.org/2000/svg"
   xmlns="http://www.w3.org/2000/svg"
   id="svg8"
   version="1.1"
   viewBox="0 0 128 128.00001"
   height="128"
   width="128">
  <defs
     id="defs2" />
  <metadata
     id="metadata5">
    <rdf:RDF>
      <cc:Work
         rdf:about="">
        <dc:format>image/svg+xml</dc:format>
        <dc:type
           rdf:resource="http://purl.org/dc/dcmitype/StillImage" />
        <dc:title></dc:title>
      </cc:Work>
    </rdf:RDF>
  </metadata>
  <g
     transform="translate(0,-994.5197)"
     id="layer1">
    <path
       d="m 70.95173,1004.5201 a 6.2906494,6.2906494 0 0 0 -3.28854,0.884 l -11.39319,6.775 a 6.2906494,6.2906494 0 0 0 -2.8147,3.6209 l -3.16831,10.7356 a 6.2906494,6.2906494 0 0 0 1.28005,5.9051 l 4.13013,4.7597 -0.0777,0.8131 -9.72417,-0.3041 a 6.2906494,6.2906494 0 0 0 -6.46392,6.8601 l 1.28712,14.1442 a 6.2906494,6.2906494 0 0 0 6.63365,5.7072 l 6.01131,-0.3538 -2.19236,15.8132 -6.05373,5.8699 -5.6577,-2.256 -5.46675,-13.2743 a 6.2906494,6.2906494 0 0 0 -11.97311,1.1174 l -3.88966,18.8401 a 6.2906494,6.2906494 0 0 0 0.61527,4.2433 l 6.78217,12.659 a 6.2906494,6.2906494 0 0 0 4.86562,3.2816 l 19.46956,2.1216 a 6.2906494,6.2906494 0 0 0 4.57565,-1.3154 l 10.8062,-8.5219 4.77369,4.2008 a 6.2906494,6.2906494 0 0 0 3.69163,1.5487 l 22.79346,1.662 a 6.2906494,6.2906494 0 0 0 5.60112,-2.652 l 8.31681,-11.8033 a 6.2906494,6.2906494 0 0 0 0.84867,-5.5516 l -5.09904,-15.8414 a 6.2906494,6.2906494 0 0 0 -11.93772,-0.1275 l -3.7341,10.8134 -4.80197,1.1033 -2.6591,-3.1755 -2.14993,-16.273 5.49504,1.1245 a 6.2906494,6.2906494 0 0 0 7.43281,-4.9716 l 3.21781,-16.7116 a 6.2906494,6.2906494 0 0 0 -6.04668,-7.4752 l -9.04523,-0.1836 4.61102,-4.7737 a 6.2906494,6.2906494 0 0 0 1.64072,-5.6223 l -2.16406,-10.6438 a 6.2906494,6.2906494 0 0 0 -2.06506,-3.5147 l -8.98158,-7.7369 a 6.2906494,6.2906494 0 0 0 -4.03111,-1.5205 z"
       id="path817-3"
       style="fill:#000000;stroke:none;stroke-width:0.95803666px;stroke-linecap:butt;stroke-linejoin:miter;stroke-opacity:1" />
    <path
       id="path817"
       d="m 70.88146,1010.8044 -11.39536,6.7811 -3.16603,10.7311 5.90914,6.8187 -0.94306,9.3463 -15.58869,-0.4826 1.2855,14.1442 13.66138,-0.8047 -3.5365,25.5544 -10.54216,10.2092 -11.90996,-4.7511 -6.47798,-15.7439 -3.88828,18.8447 6.78111,12.6564 19.47133,2.1218 14.92256,-11.7656 8.7084,7.6603 22.79266,1.6618 8.3136,-11.8035 -5.09895,-15.8411 -4.88185,14.1066 -11.94928,2.7412 -6.31143,-7.5257 -3.53649,-26.8401 14.14411,2.8929 3.2128,-16.7152 -15.42774,-0.32 0.23011,-8.7047 6.36385,-6.5901 -2.15934,-10.6395 z m -0.77277,7.7561 3.59825,2.2865 1.20128,6.0345 -3.48037,3.8098 -4.01926,-0.1253 -3.60011,-3.1773 2.1013,-6.8595 z"
       style="fill:#6c5353;stroke:none;stroke-width:0.95803666px;stroke-linecap:butt;stroke-linejoin:miter;stroke-opacity:1" />
    <path
       id="path822"
       d="m 24.28946,1091.4518 3.48705,-5.7465 0.40121,-13.0982 z"
       style="fill:#916f6f;stroke:none;stroke-width:0.95803666px;stroke-linecap:butt;stroke-linejoin:miter;stroke-opacity:1" />
    <path
       id="path824"
       d="m 28.17774,1072.6071 2.65242,13.9822 3.82556,1.7617 z"
       style="fill:#483737;stroke:none;stroke-width:0.95803666px;stroke-linecap:butt;stroke-linejoin:miter;stroke-opacity:1" />
    <path
       id="path826"
       d="m 46.56568,1093.1021 14.37844,-7.0453 -3.83628,-3.1639 z"
       style="fill:#916f6f;stroke:none;stroke-width:0.95803666px;stroke-linecap:butt;stroke-linejoin:miter;stroke-opacity:1" />
    <path
       id="path828"
       d="m 60.94412,1086.0568 -0.29976,-28.7183 -3.5365,25.5544 z"
       style="fill:#ac9393;stroke:none;stroke-width:0.95803666px;stroke-linecap:butt;stroke-linejoin:miter;stroke-opacity:1" />
    <path
       id="path830"
       d="m 46.98296,1058.143 2.24954,-9.9657 -3.53504,-4.1783 z"
       style="fill:#916f6f;stroke:none;stroke-width:0.95803666px;stroke-linecap:butt;stroke-linejoin:miter;stroke-opacity:1" />
    <path
       id="path832"
       d="m 49.2325,1048.1773 12.05365,-3.6957 -15.58869,-0.4826 z"
       style="fill:#ac9393;stroke:none;stroke-width:0.95803666px;stroke-linecap:butt;stroke-linejoin:miter;stroke-opacity:1" />
    <path
       id="path834"
       d="m 83.34904,1092.9897 12.33129,0.6712 -0.38203,-3.4124 z"
       style="fill:#916f6f;stroke:none;stroke-width:0.95803666px;stroke-linecap:butt;stroke-linejoin:miter;stroke-opacity:1" />
    <path
       id="path836"
       d="m 95.68033,1093.6609 4.49984,-17.519 -4.88185,14.1066 z"
       style="fill:#ac9393;stroke:none;stroke-width:0.95803666px;stroke-linecap:butt;stroke-linejoin:miter;stroke-opacity:1" />
    <path
       id="path838"
       d="m 61.28615,1044.4816 2.73251,-6.1885 -1.78945,-3.1578 z"
       style="fill:#916f6f;stroke:none;stroke-width:0.95803666px;stroke-linecap:butt;stroke-linejoin:miter;stroke-opacity:1" />
    <path
       id="path840"
       d="m 56.32007,1028.3166 5.2878,-8.8276 -2.12177,-1.9035 z"
       style="fill:#916f6f;stroke:none;stroke-width:0.95803666px;stroke-linecap:butt;stroke-linejoin:miter;stroke-opacity:1" />
    <path
       id="path842"
       d="m 61.60787,1019.489 9.27359,-8.6846 -11.39536,6.7811 z"
       style="fill:#ac9393;stroke:none;stroke-width:0.95803666px;stroke-linecap:butt;stroke-linejoin:miter;stroke-opacity:1" />
    <path
       id="path844"
       d="m 82.02425,1029.1868 -8.75571,4.5745 2.39188,2.0156 z"
       style="fill:#241c1c;stroke:none;stroke-width:0.95803666px;stroke-linecap:butt;stroke-linejoin:miter;stroke-opacity:1" />
    <path
       id="path846"
       d="m 73.26854,1033.7613 2.16175,10.7203 0.23011,-8.7047 z"
       style="fill:#483737;stroke:none;stroke-width:0.95803666px;stroke-linecap:butt;stroke-linejoin:miter;stroke-opacity:1" />
    <path
       id="path848"
       d="m 73.50112,1058.6239 10.33647,-1.2243 3.80764,4.1172 z"
       style="fill:#483737;stroke:none;stroke-width:0.95803666px;stroke-linecap:butt;stroke-linejoin:miter;stroke-opacity:1" />
    <path
       id="path850"
       d="m 83.83759,1057.3996 7.02044,-12.598 -3.2128,16.7152 z"
       style="fill:#241c1c;stroke:none;stroke-width:0.95803666px;stroke-linecap:butt;stroke-linejoin:miter;stroke-opacity:1" />
    <path
       id="path852"
       d="m 90.85803,1044.8016 -14.18013,2.8244 -1.24761,-3.1444 z"
       style="fill:#916f6f;stroke:none;stroke-width:0.95803666px;stroke-linecap:butt;stroke-linejoin:miter;stroke-opacity:1" />
    <path
       id="path854"
       d="m 46.98296,1058.143 11.73895,-3.9256 1.92243,3.1211 z"
       style="fill:#483737;stroke:none;stroke-width:0.95803666px;stroke-linecap:butt;stroke-linejoin:miter;stroke-opacity:1" />
    <path
       id="path856"
       d="m 105.27912,1091.983 -10.07698,7.5791 1.76338,4.2244 z"
       style="fill:#241c1c;stroke:none;stroke-width:0.95803666px;stroke-linecap:butt;stroke-linejoin:miter;stroke-opacity:1" />
    <path
       id="path858"
       d="m 95.20214,1099.5621 -21.02928,2.5626 22.79266,1.6618 z"
       style="fill:#483737;stroke:none;stroke-width:0.95803666px;stroke-linecap:butt;stroke-linejoin:miter;stroke-opacity:1" />
    <path
       id="path860"
       d="m 65.46446,1094.4644 -16.857,8.1661 1.93444,3.5995 z"
       style="fill:#241c1c;stroke:none;stroke-width:0.95803666px;stroke-linecap:butt;stroke-linejoin:miter;stroke-opacity:1" />
    <path
       id="path862"
       d="m 48.60746,1102.6305 -17.53689,1.4777 19.47133,2.1218 z"
       style="fill:#483737;stroke:none;stroke-width:0.95803666px;stroke-linecap:butt;stroke-linejoin:miter;stroke-opacity:1" />
  </g>
</svg>
