<?xml version="1.0" encoding="UTF-8" standalone="no"?>
<!-- Created with Inkscape (http://www.inkscape.org/) -->

<svg
   xmlns:dc="http://purl.org/dc/elements/1.1/"
   xmlns:cc="http://creativecommons.org/ns#"
   xmlns:rdf="http://www.w3.org/1999/02/22-rdf-syntax-ns#"
   xmlns:svg="http://www.w3.org/2000/svg"
   xmlns="http://www.w3.org/2000/svg"
   xmlns:sodipodi="http://sodipodi.sourceforge.net/DTD/sodipodi-0.dtd"
   xmlns:inkscape="http://www.inkscape.org/namespaces/inkscape"
   width="128"
   height="128"
   viewBox="0 0 128 128.00001"
   version="1.1"
   id="svg6294"
   inkscape:version="0.92.3 (2405546, 2018-03-11)"
   sodipodi:docname="banana.svg">
  <defs
     id="defs6288" />
  <sodipodi:namedview
     id="base"
     pagecolor="#ffffff"
     bordercolor="#666666"
     borderopacity="1.0"
     inkscape:pageopacity="0.0"
     inkscape:pageshadow="2"
     inkscape:zoom="2.9006348"
     inkscape:cx="23.947084"
     inkscape:cy="67.694928"
     inkscape:document-units="px"
     inkscape:current-layer="layer1"
     showgrid="false"
     units="px"
     inkscape:window-width="1366"
     inkscape:window-height="713"
     inkscape:window-x="0"
     inkscape:window-y="27"
     inkscape:window-maximized="1" />
  <metadata
     id="metadata6291">
    <rdf:RDF>
      <cc:Work
         rdf:about="">
        <dc:format>image/svg+xml</dc:format>
        <dc:type
           rdf:resource="http://purl.org/dc/dcmitype/StillImage" />
        <dc:title></dc:title>
      </cc:Work>
    </rdf:RDF>
  </metadata>
  <g
     inkscape:label="Layer 1"
     inkscape:groupmode="layer"
     id="layer1"
     transform="translate(0,-994.51965)">
    <path
       transform="matrix(1.5998795,0,0,1.5998795,-1249.5211,-672.17588)"
       sodipodi:type="inkscape:offset"
       inkscape:radius="3.5812283"
       inkscape:original="M 821.88867 1055.0664 L 818.89453 1070.668 L 814.16602 1082.8047 L 813.28516 1089.9707 L 809.50586 1088.8086 L 805.4375 1090.7578 L 807.55469 1092.8203 L 812.86328 1093.0664 L 798.05859 1099.2695 L 790.8418 1103.6074 L 800.7207 1103.1074 L 810.54297 1100.7695 L 819.99805 1095.8848 L 831.50195 1105.3398 L 845.37109 1109.4375 L 850.88867 1106.916 L 840.80078 1099.9824 L 833.43359 1093.5039 L 849.28906 1092.0957 L 851.18359 1088.8633 L 843.27148 1088.8633 L 836.58594 1089.8672 L 831.30273 1089.5332 L 830.40039 1083.4336 L 824.72656 1070.668 L 826.93164 1055.2246 L 821.88867 1055.0664 z "
       style="fill:#000000;stroke:none;stroke-width:1px;stroke-linecap:butt;stroke-linejoin:miter;stroke-opacity:1"
       id="path2686-7"
       d="m 822,1051.4863 a 3.5815864,3.5815864 0 0 0 -3.62891,2.9043 l -2.93164,15.2813 -4.60937,11.832 a 3.5815864,3.5815864 0 0 0 -0.21875,0.8633 l -0.36133,2.9394 a 3.5815864,3.5815864 0 0 0 -2.29102,0.2715 l -4.06836,1.9492 a 3.5815864,3.5815864 0 0 0 -0.95117,5.795 l 0.0137,0.014 -6.27929,2.6309 a 3.5815864,3.5815864 0 0 0 -0.46094,0.2324 l -7.2168,4.3379 a 3.5815864,3.5815864 0 0 0 2.02735,6.6465 l 9.8789,-0.5 a 3.5815864,3.5815864 0 0 0 0.64844,-0.092 l 9.82227,-2.3379 a 3.5815864,3.5815864 0 0 0 0.81445,-0.3027 l 7.35938,-3.8028 9.68164,7.959 a 3.5815864,3.5815864 0 0 0 1.25781,0.666 l 13.86914,4.0977 a 3.5815864,3.5815864 0 0 0 2.50391,-0.1758 l 5.51757,-2.5215 a 3.5815864,3.5815864 0 0 0 0.54102,-6.209 l -9.91211,-6.8125 -0.93359,-0.8203 7.5332,-0.6699 a 3.5815864,3.5815864 0 0 0 2.77344,-1.7559 l 1.89453,-3.2324 a 3.5815864,3.5815864 0 0 0 -3.08985,-5.3926 h -7.91211 a 3.5815864,3.5815864 0 0 0 -0.53125,0.041 l -6.30859,0.9472 -2.00976,-0.1269 -0.47852,-3.2324 a 3.5815864,3.5815864 0 0 0 -0.26953,-0.9317 l -5.25586,-11.8242 2.05859,-14.4238 a 3.5815864,3.5815864 0 0 0 -3.43359,-4.086 z" />
    <path
       style="fill:#d4aa00;stroke:none;stroke-width:1.5998795px;stroke-linecap:butt;stroke-linejoin:miter;stroke-opacity:1"
       d="m 53.702307,1072.2832 -8.112286,-2.4959 -6.507637,3.12 3.387536,3.2984 11.499822,0.535 z"
       id="path2686"
       inkscape:connector-curvature="0"
       sodipodi:nodetypes="cccccc" />
    <path
       style="fill:#d4aa00;stroke:none;stroke-width:1.5998795px;stroke-linecap:butt;stroke-linejoin:miter;stroke-opacity:1"
       d="m 80.446057,1070.946 8.46886,0.535 10.69751,-1.6046 h 12.658713 l -3.03096,5.1705 -26.119733,2.3177 -3.79898,-1.8789 z"
       id="path2684"
       inkscape:connector-curvature="0"
       sodipodi:nodetypes="cccccccc" />
    <path
       style="fill:#ffcc00;stroke:none;stroke-width:1.5998795px;stroke-linecap:butt;stroke-linejoin:miter;stroke-opacity:1"
       d="m 15.73038,1093.4634 11.545645,-6.9411 23.754323,-9.9525 2.017128,-16.3892 7.564278,-19.415 h 9.329283 l 9.07712,20.4236 2.01715,13.6156 14.62427,12.8594 16.137133,11.0942 -8.82499,4.0342 -22.188553,-6.5557 -18.40641,-15.1286 -15.128556,7.8166 -15.711649,3.739 z"
       id="path2680"
       inkscape:connector-curvature="0"
       sodipodi:nodetypes="cccccccccccccccc" />
    <path
       style="fill:#554400;stroke:none;stroke-width:1.5998795px;stroke-linecap:butt;stroke-linejoin:miter;stroke-opacity:1"
       d="m 60.611754,1040.7656 4.790712,-24.9621 8.068561,0.2521 -3.52999,24.71 z"
       id="path2682"
       inkscape:connector-curvature="0" />
    <path
       style="fill:#ffdd55;stroke:none;stroke-width:1.5998795px;stroke-linecap:butt;stroke-linejoin:miter;stroke-opacity:1"
       d="m 15.73038,1093.4634 11.545645,-6.9411 1.124523,1.7092 z"
       id="path2688"
       inkscape:connector-curvature="0" />
    <path
       style="fill:#ffd42a;stroke:none;stroke-width:1.5998795px;stroke-linecap:butt;stroke-linejoin:miter;stroke-opacity:1"
       d="m 28.400548,1088.2315 22.6298,-11.6617 -23.754323,9.9525 z"
       id="path2690"
       inkscape:connector-curvature="0" />
    <path
       style="fill:#d4aa00;stroke:none;stroke-width:1.5998795px;stroke-linecap:butt;stroke-linejoin:miter;stroke-opacity:1"
       d="m 31.536552,1092.6639 13.820591,-6.8908 1.891058,3.1518 z"
       id="path2692"
       inkscape:connector-curvature="0" />
    <path
       style="fill:#aa8800;stroke:none;stroke-width:1.5998795px;stroke-linecap:butt;stroke-linejoin:miter;stroke-opacity:1"
       d="m 45.357143,1085.7731 17.019614,-4.6648 -15.128556,7.8166 z"
       id="path2694"
       inkscape:connector-curvature="0" />
    <path
       style="fill:#ffdd55;stroke:none;stroke-width:1.5998795px;stroke-linecap:butt;stroke-linejoin:miter;stroke-opacity:1"
       d="m 51.030348,1076.5698 2.017128,-16.3892 3.774932,0.6029 z"
       id="path2696"
       inkscape:connector-curvature="0" />
    <path
       style="fill:#ffd42a;stroke:none;stroke-width:1.5998795px;stroke-linecap:butt;stroke-linejoin:miter;stroke-opacity:1"
       d="m 56.822408,1060.7835 3.789346,-20.0179 -7.564278,19.415 z"
       id="path2698"
       inkscape:connector-curvature="0" />
    <path
       style="fill:#aa8800;stroke:none;stroke-width:1.5998795px;stroke-linecap:butt;stroke-linejoin:miter;stroke-opacity:1"
       d="m 79.018157,1061.1892 -1.69221,15.9972 3.70936,-2.3816 z"
       id="path2702"
       inkscape:connector-curvature="0" />
    <path
       style="fill:#d4aa00;stroke:none;stroke-width:1.5998795px;stroke-linecap:butt;stroke-linejoin:miter;stroke-opacity:1"
       d="m 77.325947,1077.1864 18.33363,10.4778 -14.62427,-12.8594 z"
       id="path2704"
       inkscape:connector-curvature="0" />
    <path
       style="fill:#aa8800;stroke:none;stroke-width:1.5998795px;stroke-linecap:butt;stroke-linejoin:miter;stroke-opacity:1"
       d="m 111.79671,1098.7584 -9.7075,-0.1264 0.88251,4.1606 z"
       id="path2706"
       inkscape:connector-curvature="0" />
    <path
       style="fill:#d4aa00;stroke:none;stroke-width:1.5998795px;stroke-linecap:butt;stroke-linejoin:miter;stroke-opacity:1"
       d="m 102.08921,1098.632 -21.306043,-2.3951 22.188553,6.5557 z"
       id="path2708"
       inkscape:connector-curvature="0" />
    <path
       style="fill:#ffdd55;stroke:none;stroke-width:1.5998795px;stroke-linecap:butt;stroke-linejoin:miter;stroke-opacity:1"
       d="m 42.46992,1076.2057 0.239726,-2.5986 -3.627262,-0.6998 z"
       id="path2710"
       inkscape:connector-curvature="0" />
    <path
       style="fill:#ffd42a;stroke:none;stroke-width:1.5998795px;stroke-linecap:butt;stroke-linejoin:miter;stroke-opacity:1"
       d="m 42.709646,1073.6071 2.880375,-3.8198 -6.507637,3.12 z"
       id="path2712"
       inkscape:connector-curvature="0" />
    <path
       style="fill:#d4aa00;stroke:none;stroke-width:1.5998795px;stroke-linecap:butt;stroke-linejoin:miter;stroke-opacity:1"
       d="m 83.120447,1077.3646 22.019023,-4.6355 4.10071,2.3178 z"
       id="path2714"
       inkscape:connector-curvature="0" />
    <path
       style="fill:#aa8800;stroke:none;stroke-width:1.5998795px;stroke-linecap:butt;stroke-linejoin:miter;stroke-opacity:1"
       d="m 105.13947,1072.7291 7.13167,-2.8527 -3.03096,5.1705 z"
       id="path2716"
       inkscape:connector-curvature="0" />
    <path
       style="fill:#806600;stroke:none;stroke-width:1.5998795px;stroke-linecap:butt;stroke-linejoin:miter;stroke-opacity:1"
       d="m 60.611754,1040.7656 6.807853,-21.4322 -2.017141,-3.5299 z"
       id="path2720"
       inkscape:connector-curvature="0" />
    <path
       style="fill:#aa8800;stroke:none;stroke-width:1.5998795px;stroke-linecap:butt;stroke-linejoin:miter;stroke-opacity:1"
       d="m 67.419607,1019.3334 6.05142,-3.2778 -8.068561,-0.2521 z"
       id="path2722"
       inkscape:connector-curvature="0" />
  </g>
</svg>
