<?xml version="1.0" encoding="UTF-8" standalone="no"?>
<!-- Created with Inkscape (http://www.inkscape.org/) -->

<svg
   xmlns:dc="http://purl.org/dc/elements/1.1/"
   xmlns:cc="http://creativecommons.org/ns#"
   xmlns:rdf="http://www.w3.org/1999/02/22-rdf-syntax-ns#"
   xmlns:svg="http://www.w3.org/2000/svg"
   xmlns="http://www.w3.org/2000/svg"
   xmlns:sodipodi="http://sodipodi.sourceforge.net/DTD/sodipodi-0.dtd"
   xmlns:inkscape="http://www.inkscape.org/namespaces/inkscape"
   width="128"
   height="128"
   viewBox="0 0 128 128.00001"
   version="1.1"
   id="svg6294"
   inkscape:version="0.92.3 (2405546, 2018-03-11)"
   sodipodi:docname="blue_plus.svg">
  <defs
     id="defs6288" />
  <sodipodi:namedview
     id="base"
     pagecolor="#ffffff"
     bordercolor="#666666"
     borderopacity="1.0"
     inkscape:pageopacity="0.0"
     inkscape:pageshadow="2"
     inkscape:zoom="2.9006348"
     inkscape:cx="46.360553"
     inkscape:cy="63.412732"
     inkscape:document-units="px"
     inkscape:current-layer="layer1"
     showgrid="false"
     units="px"
     inkscape:window-width="1366"
     inkscape:window-height="713"
     inkscape:window-x="0"
     inkscape:window-y="27"
     inkscape:window-maximized="1" />
  <metadata
     id="metadata6291">
    <rdf:RDF>
      <cc:Work
         rdf:about="">
        <dc:format>image/svg+xml</dc:format>
        <dc:type
           rdf:resource="http://purl.org/dc/dcmitype/StillImage" />
        <dc:title></dc:title>
      </cc:Work>
    </rdf:RDF>
  </metadata>
  <g
     inkscape:label="Layer 1"
     inkscape:groupmode="layer"
     id="layer1"
     transform="translate(0,-994.51965)">
    <path
       transform="matrix(1.6492399,0,0,1.6492399,-2559.5995,-718.50706)"
       sodipodi:type="inkscape:offset"
       inkscape:radius="2.9074292"
       inkscape:original="M 1600.6309 1047.6465 L 1581.7578 1047.9238 L 1582.8672 1072.3477 L 1560.959 1070.8418 L 1561.0547 1087.1992 L 1582.0352 1086.502 L 1582.3125 1107.3164 L 1601.1855 1107.3164 L 1598.9648 1087.6113 L 1620.3359 1088.168 L 1620.0566 1070.4043 L 1599.5195 1072.0703 L 1600.6309 1047.6465 z "
       style="fill:#000000;stroke:none;stroke-width:0.78498554px;stroke-linecap:butt;stroke-linejoin:miter;stroke-opacity:1"
       id="path4098-3"
       d="m 1600.5879,1044.7402 -18.8731,0.2774 a 2.90772,2.90772 0 0 0 -2.8613,3.039 l 0.961,21.168 -18.6563,-1.2832 a 2.90772,2.90772 0 0 0 -3.1074,2.918 l 0.096,16.3574 a 2.90772,2.90772 0 0 0 3.0039,2.8887 l 18.0176,-0.5996 0.2382,17.8496 a 2.90772,2.90772 0 0 0 2.9063,2.8691 h 18.873 a 2.90772,2.90772 0 0 0 2.8887,-3.2344 l -1.8457,-16.3847 18.0313,0.4687 a 2.90772,2.90772 0 0 0 2.9824,-2.9512 l -0.2793,-17.7636 a 2.90772,2.90772 0 0 0 -3.1406,-2.8535 l -17.2481,1.3984 0.961,-21.125 a 2.90772,2.90772 0 0 0 -2.9473,-3.0391 z" />
    <path
       style="fill:#00ccff;stroke:none;stroke-width:1.29462945px;stroke-linecap:butt;stroke-linejoin:miter;stroke-opacity:1"
       d="m 50.929429,1050.0515 -1.830986,-40.2794 31.125115,-0.4577 -1.83099,40.2792 33.871432,-2.7463 0.45766,29.2941 -35.244412,-0.9153 3.6618,32.4981 H 50.013936 l -0.457664,-34.3291 -34.60188,1.1512 -0.156677,-26.9778 z"
       id="path4098"
       inkscape:connector-curvature="0"
       sodipodi:nodetypes="ccccccccccccc" />
    <path
       style="fill:#80e5ff;stroke:none;stroke-width:1.29462945px;stroke-linecap:butt;stroke-linejoin:miter;stroke-opacity:1"
       d="m 50.929429,1050.0515 3.506944,-32.5222 -5.33793,-7.7572 z"
       id="path4100"
       inkscape:connector-curvature="0" />
    <path
       style="fill:#80e5ff;stroke:none;stroke-width:1.29462945px;stroke-linecap:butt;stroke-linejoin:miter;stroke-opacity:1"
       d="m 54.436373,1017.5293 25.787185,-8.2149 -31.125115,0.4577 z"
       id="path4102"
       inkscape:connector-curvature="0" />
    <path
       style="fill:#80e5ff;stroke:none;stroke-width:1.29462945px;stroke-linecap:butt;stroke-linejoin:miter;stroke-opacity:1"
       d="m 50.929429,1050.0515 -31.286247,6.1549 -4.845797,-8.6379 z"
       id="path4104"
       inkscape:connector-curvature="0" />
    <path
       style="fill:#80e5ff;stroke:none;stroke-width:1.29462945px;stroke-linecap:butt;stroke-linejoin:miter;stroke-opacity:1"
       d="m 19.643182,1056.2064 -4.68879,18.3399 -0.156677,-26.9778 z"
       id="path4106"
       inkscape:connector-curvature="0" />
    <path
       style="fill:#80e5ff;stroke:none;stroke-width:1.29462945px;stroke-linecap:butt;stroke-linejoin:miter;stroke-opacity:1"
       d="m 78.392568,1049.5936 5.26388,7.5526 28.607552,-10.2989 z"
       id="path4110"
       inkscape:connector-curvature="0" />
    <path
       style="fill:#80e5ff;stroke:none;stroke-width:1.29462945px;stroke-linecap:butt;stroke-linejoin:miter;stroke-opacity:1"
       d="m 50.013936,1107.7242 5.263879,-29.9807 -5.721543,-4.3484 z"
       id="path4112"
       inkscape:connector-curvature="0" />
    <path
       style="fill:#00aad4;stroke:none;stroke-width:1.29462945px;stroke-linecap:butt;stroke-linejoin:miter;stroke-opacity:1"
       d="m 50.013936,1107.7242 24.030412,-6.6368 7.0947,6.6368 z"
       id="path4114"
       inkscape:connector-curvature="0" />
    <path
       style="fill:#00aad4;stroke:none;stroke-width:1.29462945px;stroke-linecap:butt;stroke-linejoin:miter;stroke-opacity:1"
       d="m 74.044348,1101.0874 3.4329,-25.8613 3.6618,32.4981 z"
       id="path4116"
       inkscape:connector-curvature="0" />
    <path
       style="fill:#00aad4;stroke:none;stroke-width:1.29462945px;stroke-linecap:butt;stroke-linejoin:miter;stroke-opacity:1"
       d="m 77.477248,1075.2261 27.920962,-5.2637 7.32345,6.179 z"
       id="path4118"
       inkscape:connector-curvature="0" />
    <path
       style="fill:#00aad4;stroke:none;stroke-width:1.29462945px;stroke-linecap:butt;stroke-linejoin:miter;stroke-opacity:1"
       d="m 105.39821,1069.9624 6.86579,-23.1151 0.45766,29.2941 z"
       id="path4120"
       inkscape:connector-curvature="0" />
    <path
       style="fill:#00aad4;stroke:none;stroke-width:1.29462945px;stroke-linecap:butt;stroke-linejoin:miter;stroke-opacity:1"
       d="m 80.223558,1009.3144 -9.38335,34.7866 7.55236,5.4926 z"
       id="path4122"
       inkscape:connector-curvature="0" />
    <path
       style="fill:#00aad4;stroke:none;stroke-width:1.29462945px;stroke-linecap:butt;stroke-linejoin:miter;stroke-opacity:1"
       d="m 14.954392,1074.5463 30.711323,-7.3302 3.890557,6.179 z"
       id="path4124"
       inkscape:connector-curvature="0" />
  </g>
</svg>
