<?xml version="1.0" encoding="UTF-8" standalone="no"?>
<!-- Created with Inkscape (http://www.inkscape.org/) -->

<svg
   xmlns:dc="http://purl.org/dc/elements/1.1/"
   xmlns:cc="http://creativecommons.org/ns#"
   xmlns:rdf="http://www.w3.org/1999/02/22-rdf-syntax-ns#"
   xmlns:svg="http://www.w3.org/2000/svg"
   xmlns="http://www.w3.org/2000/svg"
   xmlns:sodipodi="http://sodipodi.sourceforge.net/DTD/sodipodi-0.dtd"
   xmlns:inkscape="http://www.inkscape.org/namespaces/inkscape"
   width="128"
   height="128"
   viewBox="0 0 128 128.00001"
   version="1.1"
   id="svg6294"
   inkscape:version="0.92.3 (2405546, 2018-03-11)"
   sodipodi:docname="bomb_icon.svg">
  <defs
     id="defs6288" />
  <sodipodi:namedview
     id="base"
     pagecolor="#ffffff"
     bordercolor="#666666"
     borderopacity="1.0"
     inkscape:pageopacity="0.0"
     inkscape:pageshadow="2"
     inkscape:zoom="2.9006348"
     inkscape:cx="46.360553"
     inkscape:cy="63.412732"
     inkscape:document-units="px"
     inkscape:current-layer="layer1"
     showgrid="false"
     units="px"
     inkscape:window-width="1366"
     inkscape:window-height="713"
     inkscape:window-x="0"
     inkscape:window-y="27"
     inkscape:window-maximized="1" />
  <metadata
     id="metadata6291">
    <rdf:RDF>
      <cc:Work
         rdf:about="">
        <dc:format>image/svg+xml</dc:format>
        <dc:type
           rdf:resource="http://purl.org/dc/dcmitype/StillImage" />
        <dc:title></dc:title>
      </cc:Work>
    </rdf:RDF>
  </metadata>
  <g
     inkscape:label="Layer 1"
     inkscape:groupmode="layer"
     id="layer1"
     transform="translate(0,-994.51965)">
    <path
       sodipodi:type="inkscape:offset"
       inkscape:radius="2.4113197"
       inkscape:original="M 1769.1211 -5.7714844 L 1768.3145 -2.9492188 L 1763.9414 0.087890625 L 1759.6387 0.89257812 L 1758.8477 5.7773438 L 1759.0137 5.9589844 L 1754.2812 9.03125 L 1753.6641 12.332031 L 1746.2012 11.320312 L 1731.8438 38.439453 L 1736.4219 41.857422 L 1742.4082 41.912109 L 1763.877 17.330078 L 1756.3633 12.851562 L 1757.1562 11.40625 L 1762.4316 8.7675781 L 1765.7168 9.2109375 L 1769.752 5.7832031 L 1770.8516 0.087890625 L 1769.1211 -5.7714844 z "
       style="fill:#000000;fill-opacity:1;stroke:none;stroke-width:1px;stroke-linecap:butt;stroke-linejoin:miter;stroke-opacity:1"
       id="path4181-8"
       d="m 1769.0801,-8.1816406 a 2.4115609,2.4115609 0 0 0 -2.2774,1.7480468 l -0.5703,1.9941407 -3.2422,2.2519531 -3.7949,0.7089844 a 2.4115609,2.4115609 0 0 0 -1.9375,1.9863281 l -0.6719,4.1523437 -3.6171,2.3476563 a 2.4115609,2.4115609 0 0 0 -1.0586,1.5800781 l -0.1954,1.046875 -5.1894,-0.703125 a 2.4115609,2.4115609 0 0 0 -2.4551,1.2597654 l -14.3574,27.119141 a 2.4115609,2.4115609 0 0 0 0.6875,3.060547 l 4.5781,3.417968 a 2.4115609,2.4115609 0 0 0 1.4219,0.480469 l 5.9863,0.05469 a 2.4115609,2.4115609 0 0 0 1.8379,-0.826172 l 21.4688,-24.582031 a 2.4115609,2.4115609 0 0 0 -0.5821,-3.658204 l -4.6836,-2.791015 2.418,-1.210938 2.5488,0.345703 a 2.4115609,2.4115609 0 0 0 1.8828,-0.552734 l 4.0352,-3.4277342 a 2.4115609,2.4115609 0 0 0 0.8066,-1.3808594 l 1.0997,-5.69531252 a 2.4115609,2.4115609 0 0 0 -0.055,-1.140625 l -1.7305,-5.85937498 a 2.4115609,2.4115609 0 0 0 -2.3535,-1.7265625 z"
       transform="matrix(2.0568961,0,0,2.0568961,-3537.2628,1021.3492)" />
    <path
       style="fill:#c83737;stroke:none;stroke-width:2.05689597px;stroke-linecap:butt;stroke-linejoin:miter;stroke-opacity:1"
       d="m 24.960668,1100.4164 29.528854,-55.7821 20.223718,2.7443 16.137406,9.6187 -44.161496,50.5589 -12.312241,-0.1108 z"
       id="path4181"
       inkscape:connector-curvature="0"
       sodipodi:nodetypes="ccccccc" />
    <path
       style="fill:#d35f5f;fill-opacity:1;stroke:none;stroke-width:2.05689597px;stroke-linecap:butt;stroke-linejoin:miter;stroke-opacity:1"
       d="m 74.71324,1047.3786 -16.042222,2.4372 -4.181496,-5.1815 z"
       id="path4189"
       inkscape:connector-curvature="0" />
    <path
       style="fill:#333333;stroke:none;stroke-width:2.05689597px;stroke-linecap:butt;stroke-linejoin:miter;stroke-opacity:1"
       d="m 68.926085,1051.6243 2.185412,-11.6986 14.655309,-9.5131 6.685,6.6848 -15.426819,7.7135 -4.370825,7.9705 z"
       id="path4183"
       inkscape:connector-curvature="0"
       sodipodi:nodetypes="ccccccc" />
    <path
       style="fill:#d35f5f;fill-opacity:1;stroke:none;stroke-width:2.05689597px;stroke-linecap:butt;stroke-linejoin:miter;stroke-opacity:1"
       d="m 54.489522,1044.6343 -29.528854,55.7821 33.71035,-50.6006 z"
       id="path4191"
       inkscape:connector-curvature="0"
       sodipodi:nodetypes="cccc" />
    <path
       style="fill:#a02c2c;stroke:none;stroke-width:2.05689597px;stroke-linecap:butt;stroke-linejoin:miter;stroke-opacity:1"
       d="m 34.376909,1107.4452 9.022354,-3.9056 3.289887,4.0166 z"
       id="path4193"
       inkscape:connector-curvature="0" />
    <path
       style="fill:#a02c2c;stroke:none;stroke-width:2.05689597px;stroke-linecap:butt;stroke-linejoin:miter;stroke-opacity:1"
       d="m 43.399263,1103.5396 42.462383,-43.1493 -6.22119,-2.3562 11.21019,-1.0368 -44.161496,50.5589 z"
       id="path4195"
       inkscape:connector-curvature="0"
       sodipodi:nodetypes="cccccc" />
    <path
       style="fill:#1a1a1a;stroke:none;stroke-width:2.05689597px;stroke-linecap:butt;stroke-linejoin:miter;stroke-opacity:1"
       d="m 72.654162,1052.7814 2.288557,-8.8743 2.082268,0.9038 z"
       id="path4197"
       inkscape:connector-curvature="0" />
    <path
       style="fill:#1a1a1a;stroke:none;stroke-width:2.05689597px;stroke-linecap:butt;stroke-linejoin:miter;stroke-opacity:1"
       d="m 74.942719,1043.9071 17.509087,-6.8097 -15.426819,7.7135 z"
       id="path4199"
       inkscape:connector-curvature="0" />
    <path
       style="fill:#4d4d4d;stroke:none;stroke-width:2.05689597px;stroke-linecap:butt;stroke-linejoin:miter;stroke-opacity:1"
       d="m 71.111497,1039.9257 14.375819,-5.7451 0.27949,-3.768 z"
       id="path4203"
       inkscape:connector-curvature="0" />
    <path
       style="fill:#4d4d4d;stroke:none;stroke-width:2.05689597px;stroke-linecap:butt;stroke-linejoin:miter;stroke-opacity:1"
       d="m 85.487316,1034.1806 6.96449,2.9168 -6.685,-6.6848 z"
       id="path4205"
       inkscape:connector-curvature="0" />
    <path
       style="fill:#ff6600;stroke:none;stroke-width:2.23364401px;stroke-linecap:butt;stroke-linejoin:miter;stroke-opacity:1"
       d="m 90.980266,1021.529 8.99536,-6.2459 1.661384,-5.8071 3.55883,12.0526 -2.26416,11.7159 -8.299134,7.0493 -8.73369,-1.1742 -5.39483,-5.8889 1.62539,-10.0453 z"
       id="path4185"
       inkscape:connector-curvature="0"
       sodipodi:nodetypes="cccccccccc" />
    <path
       style="fill:#ffcc00;stroke:none;stroke-width:2.05689597px;stroke-linecap:butt;stroke-linejoin:miter;stroke-opacity:1"
       d="m 85.487316,1034.1806 0.96412,-4.9495 3.47091,-0.5784 4.82096,-2.8927 2.057,-2.7638 0.57837,4.3708 -1.22112,4.1781 -2.69975,3.3425 -4.88516,1.2855 z"
       id="path4187"
       inkscape:connector-curvature="0" />
    <path
       style="fill:#ff7f2a;stroke:none;stroke-width:2.05689597px;stroke-linecap:butt;stroke-linejoin:miter;stroke-opacity:1"
       d="m 101.63701,1009.476 0.12115,7.524 -1.782704,-1.7169 z"
       id="path4207"
       inkscape:connector-curvature="0" />
    <path
       style="fill:#ff7f2a;stroke:none;stroke-width:2.05689597px;stroke-linecap:butt;stroke-linejoin:miter;stroke-opacity:1"
       d="m 101.75833,1017 -10.778064,4.529 8.99536,-6.2459 z"
       id="path4209"
       inkscape:connector-curvature="0" />
    <path
       style="fill:#ff7f2a;stroke:none;stroke-width:2.05689597px;stroke-linecap:butt;stroke-linejoin:miter;stroke-opacity:1"
       d="m 90.980266,1021.529 -6.94735,3.3795 -1.9035,-1.7231 z"
       id="path4211"
       inkscape:connector-curvature="0" />
    <path
       style="fill:#ff7f2a;stroke:none;stroke-width:2.05689597px;stroke-linecap:butt;stroke-linejoin:miter;stroke-opacity:1"
       d="m 82.129416,1023.1854 -1.62539,10.0453 3.52889,-8.3222 z"
       id="path4213"
       inkscape:connector-curvature="0" />
    <path
       style="fill:#d45500;stroke:none;stroke-width:2.05689597px;stroke-linecap:butt;stroke-linejoin:miter;stroke-opacity:1"
       d="m 80.504026,1033.2307 5.39483,5.8889 1.13389,-0.9392 z"
       id="path4215"
       inkscape:connector-curvature="0" />
    <path
       style="fill:#d45500;stroke:none;stroke-width:2.05689597px;stroke-linecap:butt;stroke-linejoin:miter;stroke-opacity:1"
       d="m 87.032746,1038.1804 7.5998,2.1134 -8.73369,-1.1742 z"
       id="path4217"
       inkscape:connector-curvature="0" />
    <path
       style="fill:#d45500;stroke:none;stroke-width:2.05689597px;stroke-linecap:butt;stroke-linejoin:miter;stroke-opacity:1"
       d="m 94.632546,1040.2938 6.625294,-8.3386 1.67384,1.2893 z"
       id="path4219"
       inkscape:connector-curvature="0" />
    <path
       style="fill:#d45500;stroke:none;stroke-width:2.05689597px;stroke-linecap:butt;stroke-linejoin:miter;stroke-opacity:1"
       d="m 101.25784,1031.9552 3.938,-10.4266 -2.26416,11.7159 z"
       id="path4221"
       inkscape:connector-curvature="0" />
    <path
       style="fill:#ffdd55;stroke:none;stroke-width:2.05689597px;stroke-linecap:butt;stroke-linejoin:miter;stroke-opacity:1"
       d="m 96.800306,1022.9962 -1.07038,3.7523 -0.98662,-0.9885 z"
       id="path4223"
       inkscape:connector-curvature="0" />
    <path
       style="fill:#ffdd55;stroke:none;stroke-width:2.05689597px;stroke-linecap:butt;stroke-linejoin:miter;stroke-opacity:1"
       d="m 94.743306,1025.76 -4.82096,2.8927 5.80758,-1.9042 z"
       id="path4225"
       inkscape:connector-curvature="0" />
    <path
       style="fill:#ffdd55;stroke:none;stroke-width:2.05689597px;stroke-linecap:butt;stroke-linejoin:miter;stroke-opacity:1"
       d="m 86.451436,1029.2311 3.12652,0.4044 0.34439,-0.9828 z"
       id="path4227"
       inkscape:connector-curvature="0" />
    <path
       style="fill:#d4aa00;stroke:none;stroke-width:2.05689597px;stroke-linecap:butt;stroke-linejoin:miter;stroke-opacity:1"
       d="m 85.487316,1034.1806 3.39701,1.0527 -0.31168,0.9398 z"
       id="path4229"
       inkscape:connector-curvature="0" />
    <path
       style="fill:#d4aa00;stroke:none;stroke-width:2.05689597px;stroke-linecap:butt;stroke-linejoin:miter;stroke-opacity:1"
       d="m 88.884326,1035.2333 4.57348,-0.3457 -4.88516,1.2855 z"
       id="path4231"
       inkscape:connector-curvature="0" />
    <path
       style="fill:#d4aa00;stroke:none;stroke-width:2.05689597px;stroke-linecap:butt;stroke-linejoin:miter;stroke-opacity:1"
       d="m 93.457806,1034.8876 1.66139,-3.7037 1.03836,0.3612 z"
       id="path4233"
       inkscape:connector-curvature="0" />
    <path
       style="fill:#d4aa00;stroke:none;stroke-width:2.05689597px;stroke-linecap:butt;stroke-linejoin:miter;stroke-opacity:1"
       d="m 95.119196,1031.1839 2.25948,-3.8169 -1.22112,4.1781 z"
       id="path4235"
       inkscape:connector-curvature="0" />
  </g>
</svg>
