<?xml version="1.0" encoding="UTF-8" standalone="no"?>
<svg
   xmlns:dc="http://purl.org/dc/elements/1.1/"
   xmlns:cc="http://creativecommons.org/ns#"
   xmlns:rdf="http://www.w3.org/1999/02/22-rdf-syntax-ns#"
   xmlns:svg="http://www.w3.org/2000/svg"
   xmlns="http://www.w3.org/2000/svg"
   id="svg8"
   version="1.1"
   viewBox="0 0 128 128.00001"
   height="128"
   width="128">
  <defs
     id="defs2" />
  <metadata
     id="metadata5">
    <rdf:RDF>
      <cc:Work
         rdf:about="">
        <dc:format>image/svg+xml</dc:format>
        <dc:type
           rdf:resource="http://purl.org/dc/dcmitype/StillImage" />
        <dc:title></dc:title>
      </cc:Work>
    </rdf:RDF>
  </metadata>
  <g
     transform="translate(0,-994.5197)"
     id="layer1">
    <path
       style="fill:#000000;stroke:none;stroke-width:0.8693496px;stroke-linecap:butt;stroke-linejoin:miter;stroke-opacity:1"
       id="path1368-7"
       d="m 81.286488,1004.5342 a 7.1234148,7.1234148 0 0 0 -0.24603,0 l -38.44028,2.8013 a 7.1234148,7.1234148 0 0 0 -3.09013,0.968 l -14.98393,8.8121 a 7.1234148,7.1234148 0 0 0 -2.41122,2.3258 l -11.01082,17.378 a 7.1234148,7.1234148 0 0 0 -1.10364,3.8882 l 0.41597,37.3365 a 7.1234148,7.1234148 0 0 0 1.06965,3.6759 l 9.57613,15.4424 a 7.1234148,7.1234148 0 0 0 1.63845,1.8336 l 15.17067,11.9872 a 7.1234148,7.1234148 0 0 0 4.7626,1.5282 l 36.5896,-1.7743 a 7.1234148,7.1234148 0 0 0 3.64195,-1.214 l 16.13848,-10.926 a 7.1234148,7.1234148 0 0 0 1.612992,-1.5027 l 10.67126,-13.6171 a 7.1234148,7.1234148 0 0 0 1.51961,-4.4653 l -0.40728,-40.4183 a 7.1234148,7.1234148 0 0 0 -0.82351,-3.2516 l -7.63198,-14.5 a 7.1234148,7.1234148 0 0 0 -1.9271,-2.3007 l -16.087582,-12.5223 a 7.1234148,7.1234148 0 0 0 -4.64367,-1.4942 z" />
    <path
       id="path1368"
       d="m 17.538908,1077.9754 -0.41248,-37.3314 11.00705,-17.3785 14.98048,-8.8153 38.44132,-2.8023 16.08851,12.5253 7.630302,14.4934 0.41249,40.4251 -10.674472,13.6101 -16.13804,10.9338 -36.58505,1.7714 -15.17,-11.984 z"
       style="fill:#214478;stroke:none;stroke-width:0.8693496px;stroke-linecap:butt;stroke-linejoin:miter;stroke-opacity:1" />
    <path
       id="path1370"
       d="m 17.538868,1077.9754 5.75643,-34.0921 6.57147,-15.4592 -1.73335,-5.1586 -11.00699,17.3785 z"
       style="fill:#2c5aa0;stroke:none;stroke-width:0.95623028px;stroke-linecap:butt;stroke-linejoin:miter;stroke-opacity:1" />
    <path
       id="path1372"
       d="m 44.847288,1019.6091 36.70799,-7.9612 -38.44132,2.8023 -14.98054,8.8153 1.73335,5.1586 z"
       style="fill:#3771c8;stroke:none;stroke-width:0.95623028px;stroke-linecap:butt;stroke-linejoin:miter;stroke-opacity:1" />
    <path
       id="path1374"
       d="m 42.289018,1105.407 33.51118,-7.0535 16.13798,-10.9338 3.07393,5.2821 -16.13804,10.9338 z"
       style="fill:#0b1728;stroke:none;stroke-width:0.95623028px;stroke-linecap:butt;stroke-linejoin:miter;stroke-opacity:1" />
    <path
       id="path1376"
       d="m 91.938178,1087.4197 9.043832,-10.845 4.29212,-37.9081 0.41251,40.4251 -10.674532,13.6101 z"
       style="fill:#162d50;stroke:none;stroke-width:0.95623028px;stroke-linecap:butt;stroke-linejoin:miter;stroke-opacity:1" />
    <path
       id="path1378"
       d="m 46.822428,1034.5428 -1.22664,-5.9925 3.54855,-3.605 5.23809,0.8676 2.96613,4.3955 -4.57385,3.8407 z"
       style="fill:#162d50;stroke:none;stroke-width:1.30493641px;stroke-linecap:butt;stroke-linejoin:miter;stroke-opacity:1" />
    <path
       id="path1380"
       d="m 66.017168,1049.8675 -1.10885,-8.5891 4.97871,-4.7234 5.96392,2.8985 1.15673,7.3181 -4.05807,4.783 z"
       style="fill:#162d50;stroke:none;stroke-width:1.30493641px;stroke-linecap:butt;stroke-linejoin:miter;stroke-opacity:1" />
    <path
       id="path1382"
       d="m 32.171448,1064.112 2.72077,-5.295 5.71395,-0.5445 5.29383,7.5311 -2.48218,8.6896 -8.85485,-3.1741 z"
       style="fill:#162d50;stroke:none;stroke-width:1.82321358px;stroke-linecap:butt;stroke-linejoin:miter;stroke-opacity:1" />
    <path
       id="path1382-1"
       d="m 41.636618,1059.7378 -4.02286,0.3829 -2.71927,5.2966 2.2673,6.8337 6.25655,2.2431 2.48214,-8.6902 z"
       style="fill:#0b1728;fill-opacity:1;stroke:none;stroke-width:1.82321358px;stroke-linecap:butt;stroke-linejoin:miter;stroke-opacity:1" />
    <path
       id="path1380-5"
       d="m 71.966228,1038.7702 -4.97912,4.7232 0.88148,6.8244 5.08188,1.2364 4.05649,-4.783 -0.95062,-6.014 z"
       style="fill:#0b1728;fill-opacity:1;stroke:none;stroke-width:1.30493641px;stroke-linecap:butt;stroke-linejoin:miter;stroke-opacity:1" />
    <path
       id="path1378-7"
       d="m 51.114038,1026.7856 -3.54852,3.6045 0.82365,4.0228 4.38521,-0.3641 4.57384,-3.8399 -1.81531,-2.6913 z"
       style="fill:#0b1728;fill-opacity:1;stroke:none;stroke-width:1.30493641px;stroke-linecap:butt;stroke-linejoin:miter;stroke-opacity:1" />
  </g>
</svg>
