<?xml version="1.0" encoding="UTF-8" standalone="no"?>
<svg
   xmlns:dc="http://purl.org/dc/elements/1.1/"
   xmlns:cc="http://creativecommons.org/ns#"
   xmlns:rdf="http://www.w3.org/1999/02/22-rdf-syntax-ns#"
   xmlns:svg="http://www.w3.org/2000/svg"
   xmlns="http://www.w3.org/2000/svg"
   id="svg8"
   version="1.1"
   viewBox="0 0 128 128.00001"
   height="128"
   width="128">
  <defs
     id="defs2" />
  <metadata
     id="metadata5">
    <rdf:RDF>
      <cc:Work
         rdf:about="">
        <dc:format>image/svg+xml</dc:format>
        <dc:type
           rdf:resource="http://purl.org/dc/dcmitype/StillImage" />
        <dc:title></dc:title>
      </cc:Work>
    </rdf:RDF>
  </metadata>
  <g
     transform="translate(0,-994.5197)"
     id="layer1">
    <path
       style="opacity:1;fill:#000000;stroke:none;stroke-width:0.94437307px;stroke-linecap:butt;stroke-linejoin:miter;stroke-opacity:1"
       d="m 78.45892,1004.5249 -35.81058,1.2645 a 7.8987015,7.8987015 0 0 0 -3.93419,1.2111 l -14.78777,9.3294 a 7.8987015,7.8987015 0 0 0 -2.58719,2.6504 l -10.23715,17.2926 a 7.8987015,7.8987015 0 0 0 -1.09942,4.2277 l 0.94409,37.3883 a 7.8987015,7.8987015 0 0 0 1.32028,4.1645 l 10.75168,16.1907 a 7.8987015,7.8987015 0 0 0 2.02656,2.0922 l 15.23677,10.7418 a 7.8987015,7.8987015 0 0 0 4.7424,1.4392 l 39.59913,-0.9538 a 7.8987015,7.8987015 0 0 0 4.79821,-1.7693 l 13.55729,-11.0453 a 7.8987015,7.8987015 0 0 0 2.30322,-3.092 l 6.08937,-14.6202 a 7.8987015,7.8987015 0 0 0 0.60676,-3.165 l -0.63346,-40.2423 a 7.8987015,7.8987015 0 0 0 -1.08243,-3.871 l -9.16441,-15.6202 a 7.8987015,7.8987015 0 0 0 -2.62359,-2.6989 l -15.54744,-9.7226 a 7.8987015,7.8987015 0 0 0 -4.46813,-1.1918 z m 0.27181,7.888 15.55474,9.7251 9.15954,15.6226 0.63588,40.2399 -6.09425,14.6251 -13.55243,11.0404 -39.60639,0.9514 -15.23437,-10.7396 -10.74681,-16.1929 -0.95137,-37.3882 10.24198,-17.2899 14.79021,-9.327 z"
       id="path1056-5" />
    <path
       id="path1300"
       d="m 80.99058,1047.438 -35.7928,-10.3337 11.08227,24.7107 2.68882,1.9992 z"
       style="fill:#808080;stroke:none;stroke-width:1.26248837px;stroke-linecap:butt;stroke-linejoin:miter;stroke-opacity:1" />
    <path
       id="path1292"
       d="m 47.44418,1081.3702 3.29474,-49.208 24.71053,4.188 -5.24163,53.9193 z"
       style="fill:#ff80e5;stroke:none;stroke-width:1.66904032px;stroke-linecap:butt;stroke-linejoin:miter;stroke-opacity:1" />
    <path
       id="path1306"
       d="m 47.44418,1081.3702 6.30056,-44.7213 -3.00582,-4.4867 z"
       style="fill:#ffd5f6;stroke:none;stroke-width:1.26248837px;stroke-linecap:butt;stroke-linejoin:miter;stroke-opacity:1" />
    <path
       id="path1296"
       d="m 47.44418,1081.3702 1.64737,-27.6424 -3.89377,-16.6235 11.08227,24.7107 5.84067,4.343 -2.96028,19.7927 z"
       style="fill:#999999;stroke:none;stroke-width:1.26248837px;stroke-linecap:butt;stroke-linejoin:miter;stroke-opacity:1" />
    <path
       id="path1310"
       d="m 75.44945,1036.3502 -11.97025,47.3234 6.72862,6.5959 z"
       style="fill:#ff55dd;stroke:none;stroke-width:1.26248837px;stroke-linecap:butt;stroke-linejoin:miter;stroke-opacity:1" />
    <path
       id="path1298"
       d="m 59.16044,1085.9507 11.04738,4.3188 3.29472,-29.9523 7.48804,-12.8792 -22.02171,16.3762 3.15185,2.3438 z"
       style="fill:#b3b3b3;stroke:none;stroke-width:1.26248837px;stroke-linecap:butt;stroke-linejoin:miter;stroke-opacity:1" />
    <path
       id="path1056"
       d="m 18.84615,1077.6847 -0.95054,-37.389 10.24067,-17.2899 14.79078,-9.3257 35.80453,-1.2675 15.55405,9.7256 9.16049,15.6227 0.63371,40.2406 -6.09286,14.6241 -13.55212,11.0409 -39.60666,0.9506 -15.23443,-10.7381 z"
       style="opacity:0.3;fill:#ff80e5;stroke:none;stroke-width:0.94437289px;stroke-linecap:butt;stroke-linejoin:miter;stroke-opacity:1" />
    <path
       id="path1308"
       d="m 53.74474,1036.6489 21.70471,-0.2989 -24.71053,-4.1878 z"
       style="fill:#ffaaee;stroke:none;stroke-width:1.26248837px;stroke-linecap:butt;stroke-linejoin:miter;stroke-opacity:1" />
    <path
       id="path1312"
       d="m 18.84615,1077.6847 4.82096,-34.6316 6.17818,-14.607 -1.70901,-5.4403 -10.24067,17.2899 z"
       style="opacity:0.3;fill:#ffffff;stroke:none;stroke-width:1.26248837px;stroke-linecap:butt;stroke-linejoin:miter;stroke-opacity:1" />
    <path
       id="path1314"
       d="m 44.63466,1019.1204 34.09693,-6.7078 -35.80453,1.2675 -14.79078,9.3257 1.70901,5.4403 z"
       style="opacity:0.5;fill:#ffffff;stroke:none;stroke-width:1.26248837px;stroke-linecap:butt;stroke-linejoin:miter;stroke-opacity:1" />
    <path
       id="path1316"
       d="m 44.8282,1104.6171 34.9642,-5.6506 13.55215,-11.0409 4.64243,4.7 -13.55216,11.0412 z"
       style="opacity:0.3;fill:#ff2ad4;stroke:none;stroke-width:1.26248837px;stroke-linecap:butt;stroke-linejoin:miter;stroke-opacity:1" />
    <path
       id="path1318"
       d="m 93.34455,1087.9256 4.87391,-12.2562 5.22767,-37.9085 0.63371,40.2406 -6.09286,14.6241 z"
       style="opacity:0.3;fill:#ff80e5;stroke:none;stroke-width:1.26248837px;stroke-linecap:butt;stroke-linejoin:miter;stroke-opacity:1" />
  </g>
</svg>
