<?xml version="1.0" encoding="UTF-8" standalone="no"?>
<svg
   xmlns:dc="http://purl.org/dc/elements/1.1/"
   xmlns:cc="http://creativecommons.org/ns#"
   xmlns:rdf="http://www.w3.org/1999/02/22-rdf-syntax-ns#"
   xmlns:svg="http://www.w3.org/2000/svg"
   xmlns="http://www.w3.org/2000/svg"
   id="svg8"
   version="1.1"
   viewBox="0 0 128 128.00001"
   height="128"
   width="128">
  <defs
     id="defs2" />
  <metadata
     id="metadata5">
    <rdf:RDF>
      <cc:Work
         rdf:about="">
        <dc:format>image/svg+xml</dc:format>
        <dc:type
           rdf:resource="http://purl.org/dc/dcmitype/StillImage" />
        <dc:title></dc:title>
      </cc:Work>
    </rdf:RDF>
  </metadata>
  <g
     transform="translate(0,-994.5197)"
     id="layer1">
    <path
       d="m 65.19842,1004.5334 a 8.6273742,8.6273742 0 0 0 -3.29882,0.8482 l -4.6233,2.2323 a 8.6273742,8.6273742 0 0 0 -4.8465,7.0639 8.6273742,8.6273742 0 0 0 -4.17681,1.4038 l -22.54595,14.8819 a 8.6273742,8.6273742 0 0 0 -3.71548,5.5609 l -3.83457,19.8421 a 8.6273742,8.6273742 0 0 0 2.27693,7.6444 l 9.8071,10.0998 4.54888,28.5432 a 8.6273742,8.6273742 0 0 0 6.59263,7.0493 l 11.34491,2.5992 a 8.6273742,8.6273742 0 0 0 1.95449,0.2172 l 20.75019,-0.076 a 8.6273742,8.6273742 0 0 0 1.82053,-0.1988 l 12.55035,-2.7532 a 8.6273742,8.6273742 0 0 0 6.74144,-7.6592 l 2.34637,-26.1624 10.93319,-6.7115 a 8.6273742,8.6273742 0 0 0 3.92381,-9.1425 l -4.73239,-22.3176 a 8.6273742,8.6273742 0 0 0 -2.59443,-4.5589 L 89.51031,1017.378 a 8.6273742,8.6273742 0 0 0 -5.57572,-2.2719 8.6273742,8.6273742 0 0 0 -1.20542,-2.2224 l -3.50716,-4.6283 a 8.6273742,8.6273742 0 0 0 -6.4686,-3.4079 l -6.69682,-0.3174 a 8.6273742,8.6273742 0 0 0 -0.85817,0 z"
       id="path1535-7"
       style="fill:#000000;stroke:none;stroke-width:0.67199636px;stroke-linecap:butt;stroke-linejoin:miter;stroke-opacity:1" />
    <path
       id="path1535"
       d="m 37.47165,1064.5262 0.87747,5.5086 -11.69988,-12.0473 3.83298,-19.841 22.5467,-14.8808 30.66343,0.4511 16.90998,15.557 4.73482,22.3212 -14.65032,8.9931 0.44602,-4.7091 -4.18888,6.2648 -10.92394,-4.1902 -12.61532,5.6372 -12.62774,-6.2378 -7.79022,4.8016 z"
       style="fill:#e6e6e6;stroke:none;stroke-width:0.67199636px;stroke-linecap:butt;stroke-linejoin:miter;stroke-opacity:1" />
    <path
       id="path1710"
       d="m 54.54807,1027.97 29.14428,-4.2532 -30.66343,-0.4511 z"
       style="opacity:0.5;fill:#ffffff;stroke:none;stroke-width:0.97611743px;stroke-linecap:butt;stroke-linejoin:miter;stroke-opacity:1" />
    <path
       id="path1537"
       d="m 37.47165,1064.5262 5.86215,36.7509 11.34236,2.6 20.74894,-0.071 12.55106,-2.7537 3.15659,-35.1728 -4.18884,6.2646 -10.92407,-4.19 -12.61522,5.6372 -12.6278,-6.2378 -7.79017,4.8016 z"
       style="fill:#6c5353;stroke:none;stroke-width:0.67199636px;stroke-linecap:butt;stroke-linejoin:miter;stroke-opacity:1" />
    <path
       id="path1539"
       d="m 60.41546,1023.1783 3.66688,3.5076 7.01485,0.3192 4.30461,-4.1452 0.47827,-4.7827 -3.50747,-4.6235 -6.69601,-0.3189 -4.62341,2.2321 z"
       style="fill:#c83737;stroke:none;stroke-width:0.67199636px;stroke-linecap:butt;stroke-linejoin:miter;stroke-opacity:1" />
    <path
       id="path1631"
       d="m 40.2974,1038.5683 2.86971,-5.7394 0.91675,0.1988 -2.75014,5.9387 z"
       style="fill:#ff6600;stroke:none;stroke-width:0.67199636px;stroke-linecap:butt;stroke-linejoin:miter;stroke-opacity:1" />
    <path
       id="path1631-9"
       d="m 54.26979,1040.9654 5.88444,2.5595 -0.14998,0.9259 -6.07699,-2.4291 z"
       style="fill:#00ffcc;stroke:none;stroke-width:0.67199636px;stroke-linecap:butt;stroke-linejoin:miter;stroke-opacity:1" />
    <path
       id="path1631-3"
       d="m 89.5193,1042.903 -2.11669,-6.0577 0.78181,-0.5185 2.34284,6.1107 z"
       style="fill:#37abc8;stroke:none;stroke-width:0.67199636px;stroke-linecap:butt;stroke-linejoin:miter;stroke-opacity:1" />
    <path
       id="path1631-7"
       d="m 72.64755,1034.1035 -5.91192,2.495 -0.56692,-0.7477 5.95065,-2.724 z"
       style="fill:#37c837;stroke:none;stroke-width:0.67199636px;stroke-linecap:butt;stroke-linejoin:miter;stroke-opacity:1" />
    <path
       id="path1631-4"
       d="m 79.3173,1049.648 -4.15328,-4.8917 0.54308,-0.765 4.38342,4.8596 z"
       style="fill:#ff6600;stroke:none;stroke-width:0.67199636px;stroke-linecap:butt;stroke-linejoin:miter;stroke-opacity:1" />
    <path
       id="path1631-5"
       d="m 45.99828,1057.7788 -0.59297,-6.3897 0.88385,-0.3148 0.79969,6.4956 z"
       style="fill:#ccff00;stroke:none;stroke-width:0.67199636px;stroke-linecap:butt;stroke-linejoin:miter;stroke-opacity:1" />
    <path
       id="path1631-2"
       d="m 93.83578,1055.3245 0.33553,-6.4081 0.91999,-0.183 -0.14609,6.5431 z"
       style="fill:#ffcc00;stroke:none;stroke-width:0.67199636px;stroke-linecap:butt;stroke-linejoin:miter;stroke-opacity:1" />
    <path
       id="path1631-54"
       d="m 51.74241,1034.0405 4.40725,-4.6641 0.81982,0.4561 -4.35036,4.8894 z"
       style="fill:#c83737;stroke:none;stroke-width:0.67199636px;stroke-linecap:butt;stroke-linejoin:miter;stroke-opacity:1" />
    <path
       id="path1708"
       d="m 26.64924,1057.9875 6.77476,-15.1567 21.12407,-14.8608 -1.51915,-4.7043 -22.5467,14.8808 z"
       style="opacity:0.8;fill:#ffffff;stroke:none;stroke-width:0.97611743px;stroke-linecap:butt;stroke-linejoin:miter;stroke-opacity:1" />
    <path
       id="path1712"
       d="m 105.33715,1061.595 -14.2043,4.284 -0.44602,4.7091 z"
       style="fill:#cccccc;stroke:none;stroke-width:0.97611743px;stroke-linecap:butt;stroke-linejoin:miter;stroke-opacity:1" />
    <path
       id="path1714"
       d="m 76.02003,1067.9536 -13.44813,2.2238 0.83281,3.4134 z"
       style="fill:#cccccc;stroke:none;stroke-width:0.97611743px;stroke-linecap:butt;stroke-linejoin:miter;stroke-opacity:1" />
    <path
       id="path1716"
       d="m 42.98675,1072.1546 0.26228,-3.2872 7.52789,-1.5144 z"
       style="fill:#cccccc;stroke:none;stroke-width:0.97611743px;stroke-linecap:butt;stroke-linejoin:miter;stroke-opacity:1" />
    <path
       id="path1718"
       d="m 54.67616,1103.8771 20.74894,-0.071 12.55106,-2.7537 -5.9177,-5.9843 -6.71387,4.7488 z"
       style="fill:#483737;stroke:none;stroke-width:0.97611743px;stroke-linecap:butt;stroke-linejoin:miter;stroke-opacity:1" />
    <path
       id="path1720"
       d="m 82.05846,1095.0677 9.07429,-29.1885 -3.15659,35.1728 z"
       style="fill:#241c1c;stroke:none;stroke-width:0.97611743px;stroke-linecap:butt;stroke-linejoin:miter;stroke-opacity:1" />
    <path
       id="path1724"
       d="m 86.94397,1072.1438 0.35438,-7.0428 3.83423,0.7782 z"
       style="fill:#b3b3b3;stroke:none;stroke-width:0.97611743px;stroke-linecap:butt;stroke-linejoin:miter;stroke-opacity:1" />
    <path
       id="path1726"
       d="m 60.41546,1023.1783 2.07459,-6.9163 3.84816,-1.5968 -0.66162,-1.5304 -4.62341,2.2321 z"
       style="fill:#de8787;stroke:none;stroke-width:0.97611743px;stroke-linecap:butt;stroke-linejoin:miter;stroke-opacity:1" />
    <path
       id="path1728"
       d="m 66.33821,1014.6652 6.03439,-1.2117 -6.69601,-0.3189 z"
       style="fill:#d35f5f;stroke:none;stroke-width:0.97611743px;stroke-linecap:butt;stroke-linejoin:miter;stroke-opacity:1" />
    <path
       id="path1730"
       d="m 64.08234,1026.6859 6.39062,-0.9264 3.60255,-3.5206 1.32629,0.621 -4.30461,4.1452 z"
       style="fill:#782121;stroke:none;stroke-width:0.97611743px;stroke-linecap:butt;stroke-linejoin:miter;stroke-opacity:1" />
    <path
       id="path1732"
       d="m 74.07551,1022.2389 1.80456,-4.1619 -0.47827,4.7829 z"
       style="fill:#a02c2c;stroke:none;stroke-width:0.97611743px;stroke-linecap:butt;stroke-linejoin:miter;stroke-opacity:1" />
  </g>
</svg>
