<?xml version="1.0" encoding="UTF-8" standalone="no"?>
<!-- Created with Inkscape (http://www.inkscape.org/) -->

<svg
   xmlns:dc="http://purl.org/dc/elements/1.1/"
   xmlns:cc="http://creativecommons.org/ns#"
   xmlns:rdf="http://www.w3.org/1999/02/22-rdf-syntax-ns#"
   xmlns:svg="http://www.w3.org/2000/svg"
   xmlns="http://www.w3.org/2000/svg"
   xmlns:sodipodi="http://sodipodi.sourceforge.net/DTD/sodipodi-0.dtd"
   xmlns:inkscape="http://www.inkscape.org/namespaces/inkscape"
   width="128"
   height="128"
   viewBox="0 0 128 128.00001"
   version="1.1"
   id="svg6294"
   inkscape:version="0.92.2 (5c3e80d, 2017-08-06)"
   sodipodi:docname="challenge.svg">
  <defs
     id="defs6288" />
  <sodipodi:namedview
     id="base"
     pagecolor="#ffffff"
     bordercolor="#666666"
     borderopacity="1.0"
     inkscape:pageopacity="0.0"
     inkscape:pageshadow="2"
     inkscape:zoom="2.9006348"
     inkscape:cx="23.947084"
     inkscape:cy="67.694928"
     inkscape:document-units="px"
     inkscape:current-layer="layer1"
     showgrid="false"
     units="px"
     inkscape:window-width="1366"
     inkscape:window-height="713"
     inkscape:window-x="0"
     inkscape:window-y="27"
     inkscape:window-maximized="1" />
  <metadata
     id="metadata6291">
    <rdf:RDF>
      <cc:Work
         rdf:about="">
        <dc:format>image/svg+xml</dc:format>
        <dc:type
           rdf:resource="http://purl.org/dc/dcmitype/StillImage" />
        <dc:title />
      </cc:Work>
    </rdf:RDF>
  </metadata>
  <g
     inkscape:label="Layer 1"
     inkscape:groupmode="layer"
     id="layer1"
     transform="translate(0,-994.51965)">
    <path
       sodipodi:type="inkscape:offset"
       inkscape:radius="3.2779827"
       inkscape:original="M 1072.5039 1069.4746 L 1073.6191 1089.3105 L 1059.3535 1089.3105 L 1061.3594 1113.6055 L 1101.2559 1113.6055 L 1104.377 1095.7754 L 1088.7734 1095.7754 L 1089.666 1069.6973 L 1072.5039 1069.4746 z "
       style="fill:#000000;stroke:none;stroke-width:1px;stroke-linecap:butt;stroke-linejoin:miter;stroke-opacity:1"
       id="path3154-0"
       d="m 1072.5469,1066.1973 a 3.2783105,3.2783105 0 0 0 -3.3164,3.4609 l 0.9199,16.375 h -10.7969 a 3.2783105,3.2783105 0 0 0 -3.2676,3.5469 l 2.0059,24.2949 a 3.2783105,3.2783105 0 0 0 3.2676,3.0078 h 39.8965 a 3.2783105,3.2783105 0 0 0 3.2285,-2.7129 l 3.1211,-17.8301 a 3.2783105,3.2783105 0 0 0 -3.2285,-3.8418 h -12.2129 l 0.7773,-22.6894 a 3.2783105,3.2783105 0 0 0 -3.2324,-3.3887 z"
       transform="matrix(2.0938587,0,0,2.0938587,-2201.2716,-1226.0751)" />
    <path
       style="fill:#71c837;stroke:none;stroke-width:2.09385872px;stroke-linecap:butt;stroke-linejoin:miter;stroke-opacity:1"
       d="m 21.069329,1105.6551 -4.200202,-50.8684 29.867911,2e-4 -2.333523,-41.5349 35.934445,0.4669 -1.866679,54.6017 h 32.667759 l -6.53338,37.3348 z"
       id="path3154"
       inkscape:connector-curvature="0"
       sodipodi:nodetypes="ccccccccc" />
    <g
       aria-label="1"
       style="font-style:normal;font-weight:normal;font-size:24.89756584px;line-height:1.25;font-family:sans-serif;letter-spacing:0px;word-spacing:0px;fill:#000000;fill-opacity:1;stroke:none;stroke-width:0.62243909"
       id="text3158">
      <path
         d="m 59.442044,1035.7218 h 4.133385 v -11.7315 l -4.242798,0.8753 v -3.1852 l 4.218484,-0.8753 h 4.449467 v 14.9167 h 4.133385 v 3.2338 H 59.442044 Z"
         style="font-style:normal;font-variant:normal;font-weight:900;font-stretch:normal;font-family:'Inter UI';-inkscape-font-specification:'Inter UI Heavy';stroke:none;stroke-width:0.62243909"
         id="path22" />
    </g>
    <g
       aria-label="2"
       style="font-style:normal;font-weight:normal;font-size:22.14000893px;line-height:1.25;font-family:sans-serif;letter-spacing:0px;word-spacing:0px;fill:#000000;fill-opacity:1;stroke:none;stroke-width:0.55350024"
       id="text3158-2">
      <path
         d="m 32.785746,1074.8945 h 7.102532 v 3.0594 H 28.15883 v -3.0594 l 5.89175,-5.1999 q 0.78917,-0.7135 1.16754,-1.3946 0.378369,-0.681 0.378369,-1.4161 0,-1.1352 -0.767549,-1.827 -0.756739,-0.6919 -2.021573,-0.6919 -0.97295,0 -2.129679,0.4216 -1.156729,0.4108 -2.475616,1.2324 v -3.5459 q 1.405371,-0.4648 2.778311,-0.7026 1.37294,-0.2487 2.691828,-0.2487 2.897227,0 4.497189,1.2757 1.610772,1.2756 1.610772,3.5566 0,1.3189 -0.681065,2.4648 -0.681064,1.1351 -2.864796,3.0486 z"
         style="font-style:normal;font-variant:normal;font-weight:900;font-stretch:normal;font-family:'Inter UI';-inkscape-font-specification:'Inter UI Heavy';stroke:none;stroke-width:0.55350024"
         id="path25" />
    </g>
    <g
       aria-label="3"
       style="font-style:normal;font-weight:normal;font-size:21.68115044px;line-height:1.25;font-family:sans-serif;letter-spacing:0px;word-spacing:0px;fill:#000000;fill-opacity:1;stroke:none;stroke-width:0.54202873"
       id="text3158-6">
      <path
         d="m 98.426631,1082.2465 q 1.598559,0.4129 2.424309,1.4398 0.83633,1.0163 0.83633,2.5937 0,2.3502 -1.799703,3.5782 -1.799704,1.2175 -5.250903,1.2175 -1.217448,0 -2.445481,-0.2012 -1.217448,-0.1905 -2.413722,-0.5822 v -3.1442 q 1.143342,0.5717 2.265511,0.8681 1.132755,0.2858 2.223164,0.2858 1.619735,0 2.477241,-0.5611 0.868093,-0.561 0.868093,-1.6091 0,-1.0798 -0.889266,-1.6303 -0.878679,-0.5611 -2.604279,-0.5611 h -1.630321 v -2.6255 h 1.715013 q 1.535043,0 2.286684,-0.4764 0.751642,-0.4869 0.751642,-1.4715 0,-0.9104 -0.730469,-1.408 -0.730468,-0.4976 -2.064367,-0.4976 -0.984545,0 -1.990262,0.2224 -1.005717,0.2223 -2.000848,0.6563 v -2.9854 q 1.206861,-0.3387 2.392548,-0.5081 1.185688,-0.1694 2.32903,-0.1694 3.080672,0 4.605127,1.0163 1.535038,1.0057 1.535038,3.0383 0,1.3869 -0.73046,2.2761 -0.730472,0.8787 -2.159649,1.2386 z"
         style="font-style:normal;font-variant:normal;font-weight:900;font-stretch:normal;font-family:'Inter UI';-inkscape-font-specification:'Inter UI Heavy';stroke:none;stroke-width:0.54202873"
         id="path28" />
    </g>
    <path
       style="fill:#aade87;stroke:none;stroke-width:2.09385872px;stroke-linecap:butt;stroke-linejoin:miter;stroke-opacity:1"
       d="m 21.069329,1105.6551 2.099927,-43.6348 -6.300129,-7.2336 z"
       id="path3186"
       inkscape:connector-curvature="0" />
    <path
       style="fill:#8dd35f;stroke:none;stroke-width:2.09385872px;stroke-linecap:butt;stroke-linejoin:miter;stroke-opacity:1"
       d="m 23.169256,1062.0203 23.567782,-7.2334 -29.867911,-2e-4 z"
       id="path3188"
       inkscape:connector-curvature="0" />
    <path
       style="fill:#aade87;stroke:none;stroke-width:2.09385872px;stroke-linecap:butt;stroke-linejoin:miter;stroke-opacity:1"
       d="m 46.737038,1054.7869 3.733358,-34.7679 -6.066881,-6.767 z"
       id="path3190"
       inkscape:connector-curvature="0" />
    <path
       style="fill:#8dd35f;stroke:none;stroke-width:2.09385872px;stroke-linecap:butt;stroke-linejoin:miter;stroke-opacity:1"
       d="m 50.470396,1020.019 29.867564,-6.3001 -35.934445,-0.4669 z"
       id="path3192"
       inkscape:connector-curvature="0" />
    <path
       style="fill:#8dd35f;stroke:none;stroke-width:2.09385872px;stroke-linecap:butt;stroke-linejoin:miter;stroke-opacity:1"
       d="m 111.13904,1068.3206 -31.034328,5.367 -1.633431,-5.367 z"
       id="path3194"
       inkscape:connector-curvature="0" />
    <path
       style="fill:#447821;stroke:none;stroke-width:2.09385872px;stroke-linecap:butt;stroke-linejoin:miter;stroke-opacity:1"
       d="m 111.13904,1068.3206 -10.03384,33.6011 3.50046,3.7337 z"
       id="path3196"
       inkscape:connector-curvature="0" />
    <path
       style="fill:#5aa02c;stroke:none;stroke-width:2.09385872px;stroke-linecap:butt;stroke-linejoin:miter;stroke-opacity:1"
       d="m 101.1052,1101.9217 -80.035871,3.7334 83.536331,3e-4 z"
       id="path3198"
       inkscape:connector-curvature="0" />
  </g>
</svg>
