<?xml version="1.0" encoding="UTF-8" standalone="no"?>
<!-- Created with Inkscape (http://www.inkscape.org/) -->

<svg
   xmlns:dc="http://purl.org/dc/elements/1.1/"
   xmlns:cc="http://creativecommons.org/ns#"
   xmlns:rdf="http://www.w3.org/1999/02/22-rdf-syntax-ns#"
   xmlns:svg="http://www.w3.org/2000/svg"
   xmlns="http://www.w3.org/2000/svg"
   xmlns:sodipodi="http://sodipodi.sourceforge.net/DTD/sodipodi-0.dtd"
   xmlns:inkscape="http://www.inkscape.org/namespaces/inkscape"
   width="128"
   height="128"
   viewBox="0 0 128 128.00001"
   version="1.1"
   id="svg6294"
   inkscape:version="0.92.3 (2405546, 2018-03-11)"
   sodipodi:docname="crown.svg">
  <defs
     id="defs6288" />
  <sodipodi:namedview
     id="base"
     pagecolor="#ffffff"
     bordercolor="#666666"
     borderopacity="1.0"
     inkscape:pageopacity="0.0"
     inkscape:pageshadow="2"
     inkscape:zoom="3.0875898"
     inkscape:cx="40.374886"
     inkscape:cy="67.548567"
     inkscape:document-units="px"
     inkscape:current-layer="layer1"
     showgrid="false"
     units="px"
     inkscape:window-width="1366"
     inkscape:window-height="713"
     inkscape:window-x="0"
     inkscape:window-y="27"
     inkscape:window-maximized="1" />
  <metadata
     id="metadata6291">
    <rdf:RDF>
      <cc:Work
         rdf:about="">
        <dc:format>image/svg+xml</dc:format>
        <dc:type
           rdf:resource="http://purl.org/dc/dcmitype/StillImage" />
        <dc:title />
      </cc:Work>
    </rdf:RDF>
  </metadata>
  <g
     inkscape:label="Layer 1"
     inkscape:groupmode="layer"
     id="layer1"
     transform="translate(0,-994.51965)">
    <path
       style="fill:#000000;stroke:none;stroke-width:2.2773571px;stroke-linecap:butt;stroke-linejoin:miter;stroke-opacity:1"
       d="m 68.974499,1004.5255 c -2.407897,0.098 -4.601698,1.4107 -5.826172,3.4863 l -16.919922,28.6914 -17.039062,-11.9902 c -5.027188,-3.5383 -11.869656,0.5508 -11.134766,6.6543 l 4.572266,38.0215 -0.736328,4.4023 c -0.123947,0.7419 -0.129221,1.4987 -0.01563,2.2422 l 1.75,11.4668 c 1.710964,8.9614 2.158203,8.1348 2.158203,8.1348 l 1.064453,8.8496 c 0.412756,3.4254 3.228441,6.0582 6.673828,6.2402 l 33.847656,1.7852 c 0.249825,0.013 0.500175,0.013 0.75,0 l 33.849605,-1.7852 c 3.55067,-0.1879 6.41474,-2.9735 6.70118,-6.5175 l 0.90234,-11.2149 c 1.83498,-2.7645 2.30969,-11.8041 3.11914,-22.1055 0.0728,-0.9341 -0.0401,-1.8733 -0.33203,-2.7636 l -0.62891,-1.9258 2.35352,-29.2305 c 0.48723,-6.0639 -6.37945,-9.8919 -11.28125,-6.289 l -13.230465,9.7304 -13.804687,-31.6308 c -1.171461,-2.682 -3.868686,-4.3703 -6.792969,-4.252 z"
       id="path2799-6"
       inkscape:connector-curvature="0"
       sodipodi:nodetypes="ccccccccccccccccccccccccc" />
    <path
       style="fill:#ffcc00;stroke:none;stroke-width:2.2773571px;stroke-linecap:butt;stroke-linejoin:miter;stroke-opacity:1"
       d="m 69.264168,1011.6197 -20.829639,35.3212 -23.329817,-16.4201 8.791589,73.1176 33.849004,1.7842 33.849045,-1.7842 5.41614,-67.2403 -20.38836,14.9955 z"
       id="path2799"
       inkscape:connector-curvature="0"
       sodipodi:nodetypes="ccccccccc" />
    <path
       style="fill:#ffdd55;stroke:none;stroke-width:2.2773571px;stroke-linecap:butt;stroke-linejoin:miter;stroke-opacity:1"
       d="M 33.896301,1103.6384 31.72569,1045.459 25.104712,1030.5208 Z"
       id="path2823"
       inkscape:connector-curvature="0" />
    <path
       style="fill:#ffe680;stroke:none;stroke-width:2.2773571px;stroke-linecap:butt;stroke-linejoin:miter;stroke-opacity:1"
       d="m 31.72569,1045.459 16.708839,1.4819 -23.329817,-16.4201 z"
       id="path2825"
       inkscape:connector-curvature="0" />
    <path
       style="fill:#ffdd55;stroke:none;stroke-width:2.2773571px;stroke-linecap:butt;stroke-linejoin:miter;stroke-opacity:1"
       d="m 69.264168,1011.6195 -13.019652,32.3555 -7.809987,2.9659 z"
       id="path2829"
       inkscape:connector-curvature="0" />
    <path
       style="fill:#ffdd55;stroke:none;stroke-width:2.2773571px;stroke-linecap:butt;stroke-linejoin:miter;stroke-opacity:1"
       d="m 107.01049,1036.3981 -14.747175,15.8886 -5.641185,-0.8931 z"
       id="path2831"
       inkscape:connector-curvature="0" />
    <path
       style="fill:#aa8800;stroke:none;stroke-width:2.2773571px;stroke-linecap:butt;stroke-linejoin:miter;stroke-opacity:1"
       d="m 67.745305,1105.4226 27.555737,-7.125 6.293308,5.3408 z"
       id="path2833"
       inkscape:connector-curvature="0" />
    <path
       style="fill:#d4aa00;stroke:none;stroke-width:2.2773571px;stroke-linecap:butt;stroke-linejoin:miter;stroke-opacity:1"
       d="m 95.301042,1098.2976 11.709448,-61.8995 -5.41614,67.2403 z"
       id="path2835"
       inkscape:connector-curvature="0" />
    <path
       style="fill:#c83737;stroke:none;stroke-width:0.89011461px;stroke-linecap:butt;stroke-linejoin:miter;stroke-opacity:1"
       d="m 56.316517,1073.178 7.650789,-5.8713 9.147681,-0.3748 4.49068,5.8714 0.332643,14.4911 -7.817111,4.3723 -7.98343,0.3748 -5.821252,-3.8727 z"
       id="path820"
       inkscape:connector-curvature="0"
       sodipodi:nodetypes="ccccccccc" />
    <path
       style="fill:#d35f5f;stroke:none;stroke-width:0.89011461px;stroke-linecap:butt;stroke-linejoin:miter;stroke-opacity:1"
       d="m 56.316517,1088.1688 3.556255,-14.2435 5.409925,-4.3283 -1.315391,-2.2903 -7.650789,5.8713 z"
       id="path822"
       inkscape:connector-curvature="0" />
    <path
       style="fill:#de8787;stroke:none;stroke-width:0.89011461px;stroke-linecap:butt;stroke-linejoin:miter;stroke-opacity:1"
       d="m 65.282697,1069.597 7.83229,-2.6651 -9.147681,0.3748 z"
       id="path824"
       inkscape:connector-curvature="0" />
    <path
       style="fill:#782121;stroke:none;stroke-width:0.89011461px;stroke-linecap:butt;stroke-linejoin:miter;stroke-opacity:1"
       d="m 62.137769,1092.0415 6.673139,-3.011 1.310291,2.6362 z"
       id="path826"
       inkscape:connector-curvature="0" />
    <path
       style="fill:#a02c2c;stroke:none;stroke-width:0.89011461px;stroke-linecap:butt;stroke-linejoin:miter;stroke-opacity:1"
       d="m 68.810908,1089.0305 5.527531,-3.6217 3.267228,-12.6055 0.332643,14.4911 -7.817111,4.3723 z"
       id="path828"
       inkscape:connector-curvature="0" />
    <path
       style="fill:#c83737;stroke:none;stroke-width:0.71169668px;stroke-linecap:butt;stroke-linejoin:miter;stroke-opacity:1"
       d="m 104.54139,1067.0522 -6.353364,0.246 -6.314283,4.546 v 11.6099 l 4.803539,3.0008 6.323478,-0.2782 1.57777,-2.6704 1.03475,-13.1738 z"
       id="path820-3"
       inkscape:connector-curvature="0"
       sodipodi:nodetypes="ccccccccc" />
    <path
       style="fill:#d35f5f;stroke:none;stroke-width:0.71169668px;stroke-linecap:butt;stroke-linejoin:miter;stroke-opacity:1"
       d="m 91.872686,1083.455 2.935406,-11.0316 4.465464,-3.3522 -1.08575,-1.7738 -6.31512,4.5473 z"
       id="path822-6"
       inkscape:connector-curvature="0" />
    <path
       style="fill:#de8787;stroke:none;stroke-width:0.71169668px;stroke-linecap:butt;stroke-linejoin:miter;stroke-opacity:1"
       d="m 99.273556,1069.0712 4.514244,-0.6922 1.82548,1.9535 -1.07189,-3.2804 -6.353584,0.2453 z"
       id="path824-7"
       inkscape:connector-curvature="0"
       sodipodi:nodetypes="cccccc" />
    <path
       style="fill:#782121;stroke:none;stroke-width:0.71169668px;stroke-linecap:butt;stroke-linejoin:miter;stroke-opacity:1"
       d="m 96.677662,1086.4544 5.508148,-2.332 0.81495,2.0543 z"
       id="path826-5"
       inkscape:connector-curvature="0"
       sodipodi:nodetypes="cccc" />
    <path
       style="fill:#a02c2c;stroke:none;stroke-width:0.71169668px;stroke-linecap:butt;stroke-linejoin:miter;stroke-opacity:1"
       d="m 104.57853,1083.5063 -2.39177,0.617 0.814,2.0534 z"
       id="path828-3"
       inkscape:connector-curvature="0"
       sodipodi:nodetypes="cccc" />
    <path
       style="fill:#c83737;stroke:none;stroke-width:0.71169668px;stroke-linecap:butt;stroke-linejoin:miter;stroke-opacity:1"
       d="m 36.445631,1069.2987 -6.647694,0.2553 -0.903834,5.4099 1.74893,11.467 1.435953,2.1073 1.894742,-0.083 6.452242,-3.3848 -0.273634,-11.2236 z"
       id="path820-3-5"
       inkscape:connector-curvature="0"
       sodipodi:nodetypes="ccccccccc" />
    <path
       style="fill:#de8787;stroke:none;stroke-width:0.71169668px;stroke-linecap:butt;stroke-linejoin:miter;stroke-opacity:1"
       d="m 36.445631,1069.2987 -6.647694,0.2553 -0.903834,5.4099 1.856487,-4.1694 z"
       id="path824-7-2"
       inkscape:connector-curvature="0"
       sodipodi:nodetypes="ccccc" />
    <path
       style="fill:#782121;stroke:none;stroke-width:0.71169668px;stroke-linecap:butt;stroke-linejoin:miter;stroke-opacity:1"
       d="m 32.892989,1086.4135 -2.249956,0.017 1.435953,2.1073 1.894742,-0.083 z"
       id="path826-5-9"
       inkscape:connector-curvature="0"
       sodipodi:nodetypes="ccccc" />
    <path
       style="fill:#a02c2c;stroke:none;stroke-width:0.71169668px;stroke-linecap:butt;stroke-linejoin:miter;stroke-opacity:1"
       d="m 32.892477,1086.4143 4.56253,-2.805 2.696841,-9.7629 0.274562,11.2232 -6.452394,3.3865 z"
       id="path828-3-1"
       inkscape:connector-curvature="0" />
  </g>
</svg>
