<?xml version="1.0" encoding="UTF-8" standalone="no"?>
<!-- Created with Inkscape (http://www.inkscape.org/) -->

<svg
   xmlns:dc="http://purl.org/dc/elements/1.1/"
   xmlns:cc="http://creativecommons.org/ns#"
   xmlns:rdf="http://www.w3.org/1999/02/22-rdf-syntax-ns#"
   xmlns:svg="http://www.w3.org/2000/svg"
   xmlns="http://www.w3.org/2000/svg"
   xmlns:sodipodi="http://sodipodi.sourceforge.net/DTD/sodipodi-0.dtd"
   xmlns:inkscape="http://www.inkscape.org/namespaces/inkscape"
   width="128"
   height="128"
   viewBox="0 0 128 128.00001"
   version="1.1"
   id="svg6294"
   inkscape:version="0.92.3 (2405546, 2018-03-11)"
   sodipodi:docname="cup_gold.svg">
  <defs
     id="defs6288" />
  <sodipodi:namedview
     id="base"
     pagecolor="#ffffff"
     bordercolor="#666666"
     borderopacity="1.0"
     inkscape:pageopacity="0.0"
     inkscape:pageshadow="2"
     inkscape:zoom="2.9006348"
     inkscape:cx="45.901713"
     inkscape:cy="81.778811"
     inkscape:document-units="px"
     inkscape:current-layer="layer1"
     showgrid="false"
     units="px"
     inkscape:window-width="1366"
     inkscape:window-height="713"
     inkscape:window-x="0"
     inkscape:window-y="27"
     inkscape:window-maximized="1" />
  <metadata
     id="metadata6291">
    <rdf:RDF>
      <cc:Work
         rdf:about="">
        <dc:format>image/svg+xml</dc:format>
        <dc:type
           rdf:resource="http://purl.org/dc/dcmitype/StillImage" />
        <dc:title></dc:title>
      </cc:Work>
    </rdf:RDF>
  </metadata>
  <g
     inkscape:label="Layer 1"
     inkscape:groupmode="layer"
     id="layer1"
     transform="translate(0,-994.51965)">
    <path
       transform="matrix(6.8130265,0,0,6.8130235,100.69454,-359.11431)"
       d="m -5.0957031,200.15234 a 0.86905795,0.86905795 0 0 0 -0.5175781,0.20508 l -0.9746094,0.82617 a 0.86905795,0.86905795 0 0 0 -0.3046875,0.59766 l -0.5917969,0.18555 a 0.86905795,0.86905795 0 0 0 -0.4804688,0.375 l -0.8261718,1.34961 a 0.86905795,0.86905795 0 0 0 -0.1191406,0.58398 0.86905795,0.86905795 0 0 0 -0.6953126,0.0566 l -0.6074222,0.32813 a 0.86905795,0.86905795 0 0 0 -0.457031,0.76953 l 0.03125,4.48437 a 0.86905795,0.86905795 0 0 0 0.628906,0.83008 l 1.384766,0.39648 0.3183594,1.1211 a 0.86905795,0.86905795 0 0 0 0.6074218,0.59961 l 0.5996094,0.16211 -0.890625,0.5625 a 0.86905795,0.86905795 0 0 0 0.1757813,1.55273 l 2.3007812,0.81445 a 0.86905795,0.86905795 0 0 0 0.6308594,-0.0195 l 2.0742187,-0.88867 a 0.86905795,0.86905795 0 0 0 0.109375,-1.54297 l -0.7929687,-0.47851 -0.033203,-0.0918 1.0429687,-0.4668 A 0.86905795,0.86905795 0 0 0 -2,211.91211 l 0.2871094,-0.99805 1.52929685,-0.5957 a 0.86905795,0.86905795 0 0 0 0.5546875,-0.79297 l 0.0898438,-4.34961 a 0.86905795,0.86905795 0 0 0 -0.265625,-0.64258 l -0.64648438,-0.62304 a 0.86905795,0.86905795 0 0 0 -1.08789062,-0.0957 l -0.097656,-0.84375 a 0.86905795,0.86905795 0 0 0 -0.4453124,-0.66211 l -1.078125,-0.59179 a 0.86905795,0.86905795 0 0 0 -0.4121094,-0.81446 l -1.0253906,-0.625 a 0.86905795,0.86905795 0 0 0 -0.4980469,-0.125 z"
       id="path6033-9-0-9"
       style="fill:#000000;fill-opacity:1;stroke:none;stroke-width:0.26458332px;stroke-linecap:butt;stroke-linejoin:miter;stroke-opacity:1"
       inkscape:original="M -5.0507812 201.01953 L -6.0253906 201.8457 L -5.5507812 202.26953 L -7.2246094 202.79492 L -8.0507812 204.14453 L -2.375 204.14453 L -2.5 203.07031 L -4.2753906 202.0957 L -4.0253906 201.64453 L -5.0507812 201.01953 z M -1.0546875 204.53516 L -2.109375 205.2832 L -2.3496094 204.64453 L -5.2011719 204.5957 L -8.0507812 204.64453 L -8.3320312 205.58398 L -9.1933594 205.0957 L -9.8007812 205.42383 L -9.7695312 209.9082 L -7.921875 210.43945 L -7.4707031 212.02344 L -5.8261719 212.4707 L -6.4003906 213.60938 L -7.5253906 214.32031 L -5.2246094 215.13477 L -3.1503906 214.24609 L -4.2011719 213.60938 L -4.625 212.4707 L -2.8359375 211.67188 L -2.4296875 210.25977 L -0.49804688 209.50781 L -0.40820312 205.1582 L -1.0546875 204.53516 z M -1.9375 205.76953 L -1.2050781 205.97266 L -1.0996094 208.87109 L -2.4648438 209.37109 L -2.25 208.3457 L -1.59375 206.64648 L -1.9375 205.76953 z M -8.4921875 206.13477 L -8.6035156 206.49023 L -8.1503906 208.3457 L -7.9824219 209.57617 L -9.1679688 209.27148 L -9.0625 206.37305 L -8.4921875 206.13477 z "
       inkscape:radius="0.86897105"
       sodipodi:type="inkscape:offset" />
    <path
       sodipodi:nodetypes="ccccccccccccccccccccccccccccccccccccccccccccccc"
       inkscape:connector-curvature="0"
       id="path6033-6-6"
       d="m 66.288002,1010.4406 -6.643585,5.6192 3.235575,2.8976 -11.410731,3.5771 -5.622575,9.196 h 38.664668 l -0.848502,-7.3231 -12.097273,-6.6437 1.704079,-3.0665 z m 27.225803,23.9447 -7.19284,5.0944 -1.637102,-4.3412 -19.420325,0.261 -19.416852,-0.261 -1.915286,6.3972 -5.8761,-3.3236 -4.129777,2.2288 0.214604,30.5528 12.581812,3.6213 3.071598,10.7894 11.213284,3.0486 -3.918589,7.7525 -7.664651,4.8516 15.674319,5.5487 14.135672,-6.0591 -7.157619,-4.3412 -2.890503,-7.7525 12.188241,-5.4467 2.766214,-9.6146 13.1621,-5.1267 0.60567,-29.6373 z m -6.01691,8.4144 4.9889,1.3766 0.72171,19.7548 -9.310747,3.409 1.466567,-6.9931 4.46785,-11.5727 z m -44.653391,2.4892 -0.760484,2.4258 3.084199,12.6323 1.143079,8.3821 -8.075397,-2.0695 0.721693,-19.7547 z"
       style="fill:#ffd42a;stroke:none;stroke-width:1.80261266px;stroke-linecap:butt;stroke-linejoin:miter;stroke-opacity:1" />
    <path
       sodipodi:nodetypes="ccccc"
       inkscape:connector-curvature="0"
       id="path6090-4-0"
       d="m 84.140036,1073.3917 -6.220968,6.5108 -11.177647,9.6941 14.6324,-6.5903 z"
       style="fill:#947600;fill-opacity:1;stroke:none;stroke-width:1.80261266px;stroke-linecap:butt;stroke-linejoin:miter;stroke-opacity:1" />
    <path
       inkscape:connector-curvature="0"
       id="path6092-6-2"
       d="m 45.846686,1031.7305 32.984298,-3.8793 5.68037,3.8793 z"
       style="fill:#947600;fill-opacity:1;stroke:none;stroke-width:1.80261266px;stroke-linecap:butt;stroke-linejoin:miter;stroke-opacity:1"
       sodipodi:nodetypes="cccc" />
    <path
       inkscape:connector-curvature="0"
       id="path6094-2-7"
       d="m 78.830984,1027.8512 4.831868,-3.4438 0.848502,7.3231 z"
       style="fill:#947600;fill-opacity:1;stroke:none;stroke-width:1.80261266px;stroke-linecap:butt;stroke-linejoin:miter;stroke-opacity:1"
       sodipodi:nodetypes="cccc" />
    <path
       inkscape:connector-curvature="0"
       id="path6096-5-6"
       d="m 85.004144,1073.021 9.368371,-6.0468 2.92962,1.2908 z"
       style="fill:#947600;fill-opacity:1;stroke:none;stroke-width:1.80261266px;stroke-linecap:butt;stroke-linejoin:miter;stroke-opacity:1"
       sodipodi:nodetypes="cccc" />
    <path
       inkscape:connector-curvature="0"
       id="path6098-8-1"
       d="m 72.076084,1096.2055 -6.978035,10.4003 14.135653,-6.0591 z"
       style="fill:#947600;fill-opacity:1;stroke:none;stroke-width:1.80261266px;stroke-linecap:butt;stroke-linejoin:miter;stroke-opacity:1" />
    <path
       inkscape:connector-curvature="0"
       id="path6102-6-3"
       d="m 73.269658,1014.6972 -2.927148,5.1577 -0.658148,-3.4978 z"
       style="fill:#947600;fill-opacity:1;stroke:none;stroke-width:1.80261266px;stroke-linecap:butt;stroke-linejoin:miter;stroke-opacity:1"
       sodipodi:nodetypes="cccc" />
    <path
       inkscape:connector-curvature="0"
       id="path6104-2-2"
       d="m 38.234901,1066.6596 -1.135125,-21.0295 1.856818,1.2748 z"
       style="fill:#947600;fill-opacity:1;stroke:none;stroke-width:1.80261266px;stroke-linecap:butt;stroke-linejoin:miter;stroke-opacity:1" />
    <path
       inkscape:connector-curvature="0"
       id="path6106-8-1"
       d="m 37.099776,1045.6301 5.743728,-0.3414 -3.88691,1.6162 z"
       style="fill:#947600;fill-opacity:1;stroke:none;stroke-width:1.80261266px;stroke-linecap:butt;stroke-linejoin:miter;stroke-opacity:1" />
    <path
       inkscape:connector-curvature="0"
       id="path6108-4-5"
       d="m 62.879992,1018.9574 0.566173,-2.6669 -3.801263,-0.2309 z"
       style="fill:#ffeeaa;fill-opacity:1;stroke:none;stroke-width:1.80261266px;stroke-linecap:butt;stroke-linejoin:miter;stroke-opacity:1"
       sodipodi:nodetypes="cccc" />
    <path
       inkscape:connector-curvature="0"
       id="path6110-7-9"
       d="m 63.445959,1016.2905 2.842043,-5.8499 -6.643585,5.619 z"
       style="fill:#ffeeaa;fill-opacity:1;stroke:none;stroke-width:1.80261266px;stroke-linecap:butt;stroke-linejoin:miter;stroke-opacity:1"
       sodipodi:nodetypes="cccc" />
    <path
       sodipodi:nodetypes="ccccc"
       inkscape:connector-curvature="0"
       id="path6112-2-9"
       d="m 43.357406,1043.8087 2.48928,-8.6702 h 38.837177 l -33.615136,4.2527 z"
       style="fill:#ffeeaa;fill-opacity:1;stroke:none;stroke-width:1.80261266px;stroke-linecap:butt;stroke-linejoin:miter;stroke-opacity:1" />
    <path
       inkscape:connector-curvature="0"
       id="path6114-4-1"
       d="m 38.0553,1038.2121 -2.099704,3.7444 -2.030073,-1.5156 z"
       style="fill:#ffeeaa;fill-opacity:1;stroke:none;stroke-width:1.80261266px;stroke-linecap:butt;stroke-linejoin:miter;stroke-opacity:1" />
    <path
       inkscape:connector-curvature="0"
       id="path6116-0-4"
       d="m 35.955596,1041.9565 -1.815338,29.0372 -0.214604,-30.5528 z"
       style="fill:#ffeeaa;fill-opacity:1;stroke:none;stroke-width:1.80261266px;stroke-linecap:butt;stroke-linejoin:miter;stroke-opacity:1" />
    <path
       inkscape:connector-curvature="0"
       id="path6118-6-9"
       d="m 94.372515,1066.9742 3.53516,-28.3465 -0.60567,29.6373 z"
       style="fill:#947600;fill-opacity:1;stroke:none;stroke-width:1.80261266px;stroke-linecap:butt;stroke-linejoin:miter;stroke-opacity:1" />
    <path
       inkscape:connector-curvature="0"
       id="path6120-2-1"
       d="m 86.320965,1039.4797 7.19986,-2.3141 -0.007,-2.7803 z"
       style="fill:#ffeeaa;fill-opacity:1;stroke:none;stroke-width:1.80261266px;stroke-linecap:butt;stroke-linejoin:miter;stroke-opacity:1" />
    <path
       inkscape:connector-curvature="0"
       id="path6122-9-0"
       d="m 83.350486,1069.8395 2.012839,-9.4925 -4.05191,1.2568 z"
       style="fill:#947600;fill-opacity:1;stroke:none;stroke-width:1.80261266px;stroke-linecap:butt;stroke-linejoin:miter;stroke-opacity:1"
       sodipodi:nodetypes="cccc" />
    <path
       inkscape:connector-curvature="0"
       id="path6124-9-7"
       d="m 81.311415,1061.6038 8.51976,-12.8295 -4.46785,11.5727 z"
       style="fill:#947600;fill-opacity:1;stroke:none;stroke-width:1.80261266px;stroke-linecap:butt;stroke-linejoin:miter;stroke-opacity:1"
       sodipodi:nodetypes="cccc" />
  </g>
</svg>
