<?xml version="1.0" encoding="UTF-8" standalone="no"?>
<!-- Created with Inkscape (http://www.inkscape.org/) -->

<svg
   xmlns:dc="http://purl.org/dc/elements/1.1/"
   xmlns:cc="http://creativecommons.org/ns#"
   xmlns:rdf="http://www.w3.org/1999/02/22-rdf-syntax-ns#"
   xmlns:svg="http://www.w3.org/2000/svg"
   xmlns="http://www.w3.org/2000/svg"
   xmlns:sodipodi="http://sodipodi.sourceforge.net/DTD/sodipodi-0.dtd"
   xmlns:inkscape="http://www.inkscape.org/namespaces/inkscape"
   width="128"
   height="128"
   viewBox="0 0 128 128.00001"
   version="1.1"
   id="svg6294"
   inkscape:version="0.92.3 (2405546, 2018-03-11)"
   sodipodi:docname="difficulty_easy.svg">
  <defs
     id="defs6288" />
  <sodipodi:namedview
     id="base"
     pagecolor="#ffffff"
     bordercolor="#666666"
     borderopacity="1.0"
     inkscape:pageopacity="0.0"
     inkscape:pageshadow="2"
     inkscape:zoom="1.6432973"
     inkscape:cx="23.281655"
     inkscape:cy="86.552819"
     inkscape:document-units="px"
     inkscape:current-layer="layer1"
     showgrid="false"
     units="px"
     inkscape:window-width="1366"
     inkscape:window-height="713"
     inkscape:window-x="0"
     inkscape:window-y="27"
     inkscape:window-maximized="1" />
  <metadata
     id="metadata6291">
    <rdf:RDF>
      <cc:Work
         rdf:about="">
        <dc:format>image/svg+xml</dc:format>
        <dc:type
           rdf:resource="http://purl.org/dc/dcmitype/StillImage" />
        <dc:title />
      </cc:Work>
    </rdf:RDF>
  </metadata>
  <g
     inkscape:label="Layer 1"
     inkscape:groupmode="layer"
     id="layer1"
     transform="translate(0,-994.51965)">
    <path
       sodipodi:type="inkscape:offset"
       inkscape:radius="2.7895055"
       inkscape:original="M 4596.75 1066.5195 L 4584.5 1068.7695 L 4576 1077.5195 L 4574.75 1090.5195 L 4580.5332 1092.1328 L 4578.5 1100.2695 L 4587.25 1105.5195 L 4592.4922 1104.5742 L 4592.4453 1105.6016 L 4599.1953 1111.6016 L 4609.4453 1109.8516 L 4619.4453 1094.8516 L 4616.4453 1085.8516 L 4613.5449 1085.1465 L 4614.75 1079.2695 L 4610.75 1072.5195 L 4602.9062 1074.1426 L 4602.875 1072.1445 L 4596.75 1066.5195 z M 4611.4355 1090.7832 L 4613.3223 1093.0684 L 4606.8223 1104.0684 L 4601.8223 1105.4434 L 4599.1914 1103.3652 L 4602.5 1102.7695 L 4611.4355 1090.7832 z "
       style="fill:#000000;stroke:none;stroke-width:1px;stroke-linecap:butt;stroke-linejoin:miter;stroke-opacity:1"
       id="path3331-8"
       d="m 4596.8691,1063.7324 a 2.7897844,2.7897844 0 0 0 -0.623,0.043 l -12.25,2.25 a 2.7897844,2.7897844 0 0 0 -1.4961,0.8008 l -8.5,8.75 a 2.7897844,2.7897844 0 0 0 -0.7773,1.6758 l -1.25,13 a 2.7897844,2.7897844 0 0 0 2.0273,2.955 l 3.168,0.8828 -1.375,5.504 a 2.7897844,2.7897844 0 0 0 1.2715,3.0683 l 8.75,5.25 a 2.7897844,2.7897844 0 0 0 1.9296,0.3535 l 2.9102,-0.5254 6.6875,5.9453 a 2.7897844,2.7897844 0 0 0 2.3223,0.6661 l 10.25,-1.75 a 2.7897844,2.7897844 0 0 0 1.8515,-1.2032 l 10,-15 a 2.7897844,2.7897844 0 0 0 0.3262,-2.4296 l -3,-9 a 2.7897844,2.7897844 0 0 0 -1.9883,-1.8282 l -0.2851,-0.068 0.664,-3.2422 a 2.7897844,2.7897844 0 0 0 -0.332,-1.9824 l -4,-6.75 a 2.7897844,2.7897844 0 0 0 -2.9649,-1.3106 l -4.871,1.0078 a 2.7897844,2.7897844 0 0 0 -0.5528,-0.7051 l -6.125,-5.625 a 2.7897844,2.7897844 0 0 0 -1.7676,-0.7324 z"
       transform="matrix(2.1318042,0,0,2.1318042,-9736.5231,-1263.144)" />
    <path
       style="fill:#2c5aa0;stroke:none;stroke-width:2.13180399px;stroke-linecap:butt;stroke-linejoin:miter;stroke-opacity:1"
       d="m 67.530201,1042.6217 -12.790811,27.7134 -1.065808,23.45 14.389603,12.7906 21.851057,-3.7305 21.317908,-31.977 -6.39532,-19.1863 z m 12.315581,16.3058 10.26899,-1.6233 8.06431,9.7625 -13.85662,23.4498 -10.659039,2.9312 -10.126053,-7.9943 -0.266412,-11.1919 z"
       id="path3331"
       inkscape:connector-curvature="0"
       sodipodi:nodetypes="cccccccccccccccc" />
    <path
       style="fill:#3771c8;stroke:none;stroke-width:2.13180399px;stroke-linecap:butt;stroke-linejoin:miter;stroke-opacity:1"
       d="m 29.804494,1058.9658 -5.862502,23.4499 18.653314,11.1918 32.509936,-5.8623 21.85121,-29.3122 4.263548,-20.7853 -8.527258,-14.3896 -30.911139,6.3954 z"
       id="path3329"
       inkscape:connector-curvature="0"
       sodipodi:nodetypes="ccccccccc" />
    <path
       style="fill:#87aade;stroke:none;stroke-width:2.13180399px;stroke-linecap:butt;stroke-linejoin:miter;stroke-opacity:1"
       d="m 29.804494,1058.9658 -5.862502,23.4499 10.925608,-18.6534 z"
       id="path3344"
       inkscape:connector-curvature="0" />
    <path
       style="fill:#5f8dd3;stroke:none;stroke-width:2.13180399px;stroke-linecap:butt;stroke-linejoin:miter;stroke-opacity:1"
       d="m 92.692742,1023.2581 -30.911139,6.3954 -31.977109,29.3123 5.063106,4.7965 28.779207,-26.6475 z"
       id="path3346"
       inkscape:connector-curvature="0" />
    <path
       style="fill:#ffe680;stroke:none;stroke-width:2.13180399px;stroke-linecap:butt;stroke-linejoin:miter;stroke-opacity:1"
       d="m 76.171202,1039.2465 -4.975567,-5.8481 -0.02412,-13.9518 -8.323949,-8.9796 -26.114766,4.7969 -18.12017,18.6533 -2.664919,27.7134 10.899204,5.2508 16.966242,-2.728 20.899613,4.1391 10.126048,-10.1262 z"
       id="path3327"
       inkscape:connector-curvature="0"
       sodipodi:nodetypes="cccccccccccc" />
    <path
       style="fill:#ffeeaa;stroke:none;stroke-width:2.13180399px;stroke-linecap:butt;stroke-linejoin:miter;stroke-opacity:1"
       d="m 15.947715,1061.6306 10.392624,-25.3152 14.123191,-13.8567 -3.730726,-7.1948 -18.12017,18.6533 z"
       id="path3336"
       inkscape:connector-curvature="0" />
    <path
       style="fill:#fff6d5;stroke:none;stroke-width:2.13180399px;stroke-linecap:butt;stroke-linejoin:miter;stroke-opacity:1"
       d="m 40.46353,1022.4587 22.38404,-11.9917 -26.114766,4.7969 z"
       id="path3338"
       inkscape:connector-curvature="0" />
    <path
       style="fill:#ffcc00;stroke:none;stroke-width:2.13180399px;stroke-linecap:butt;stroke-linejoin:miter;stroke-opacity:1"
       d="m 43.813157,1064.1534 -16.966242,2.728 16.674706,-7.4633 14.677157,-2.3121 6.513996,11.1865 z"
       id="path3340"
       inkscape:connector-curvature="0"
       sodipodi:nodetypes="cccccc" />
    <path
       style="fill:#ffd42a;stroke:none;stroke-width:2.13180399px;stroke-linecap:butt;stroke-linejoin:miter;stroke-opacity:1"
       d="m 58.198778,1057.106 10.535966,-4.3629 7.436458,-13.4966 -1.33238,18.9198 -10.126048,10.1262 z"
       id="path3342"
       inkscape:connector-curvature="0"
       sodipodi:nodetypes="cccccc" />
    <path
       style="fill:#214478;stroke:none;stroke-width:2.13180399px;stroke-linecap:butt;stroke-linejoin:miter;stroke-opacity:1"
       d="m 42.595306,1093.6075 27.357969,-9.5469 20.161497,-26.7564 6.84168,1.1288 -21.85121,29.3122 z"
       id="path3348"
       inkscape:connector-curvature="0" />
    <path
       style="fill:#2c5aa0;stroke:none;stroke-width:2.13180399px;stroke-linecap:butt;stroke-linejoin:miter;stroke-opacity:1"
       d="M 90.114772,1057.3042 101.22,1037.6477 96.956452,1058.433 Z"
       id="path3350"
       inkscape:connector-curvature="0" />
    <path
       style="fill:#5f8dd3;stroke:none;stroke-width:2.13180399px;stroke-linecap:butt;stroke-linejoin:miter;stroke-opacity:1"
       d="m 73.663423,1093.4477 12.624419,0.978 -1.96538,-3.9092 z"
       id="path3352"
       inkscape:connector-curvature="0" />
    <path
       style="fill:#3771c8;stroke:none;stroke-width:2.13180399px;stroke-linecap:butt;stroke-linejoin:miter;stroke-opacity:1"
       d="m 86.287842,1094.4257 11.89124,-27.359 -13.85662,23.4498 z"
       id="path3354"
       inkscape:connector-curvature="0" />
    <path
       style="fill:#214478;stroke:none;stroke-width:2.13180399px;stroke-linecap:butt;stroke-linejoin:miter;stroke-opacity:1"
       d="m 68.063185,1106.5757 19.920767,-7.0624 1.93029,3.3319 z"
       id="path3357"
       inkscape:connector-curvature="0" />
    <path
       style="fill:#162d50;stroke:none;stroke-width:2.13180399px;stroke-linecap:butt;stroke-linejoin:miter;stroke-opacity:1"
       d="m 87.983952,1099.5133 23.248198,-28.6451 -21.317908,31.977 z"
       id="path3359"
       inkscape:connector-curvature="0" />
    <path
       style="fill:#ffcc00;stroke:none;stroke-width:2.13180399px;stroke-linecap:butt;stroke-linejoin:miter;stroke-opacity:1"
       d="m 66.001878,1028.1837 5.169637,-8.7371 0.02412,13.9518 z"
       id="path3340-3"
       inkscape:connector-curvature="0"
       sodipodi:nodetypes="cccc" />
  </g>
</svg>
