<?xml version="1.0" encoding="UTF-8" standalone="no"?>
<!-- Created with Inkscape (http://www.inkscape.org/) -->

<svg
   xmlns:dc="http://purl.org/dc/elements/1.1/"
   xmlns:cc="http://creativecommons.org/ns#"
   xmlns:rdf="http://www.w3.org/1999/02/22-rdf-syntax-ns#"
   xmlns:svg="http://www.w3.org/2000/svg"
   xmlns="http://www.w3.org/2000/svg"
   xmlns:sodipodi="http://sodipodi.sourceforge.net/DTD/sodipodi-0.dtd"
   xmlns:inkscape="http://www.inkscape.org/namespaces/inkscape"
   width="128"
   height="128"
   viewBox="0 0 128 128.00001"
   version="1.1"
   id="svg6294"
   inkscape:version="0.92.3 (2405546, 2018-03-11)"
   sodipodi:docname="difficulty_medium.svg">
  <defs
     id="defs6288" />
  <sodipodi:namedview
     id="base"
     pagecolor="#ffffff"
     bordercolor="#666666"
     borderopacity="1.0"
     inkscape:pageopacity="0.0"
     inkscape:pageshadow="2"
     inkscape:zoom="2.1832557"
     inkscape:cx="15.209465"
     inkscape:cy="58.590742"
     inkscape:document-units="px"
     inkscape:current-layer="layer1"
     showgrid="false"
     units="px"
     inkscape:window-width="1366"
     inkscape:window-height="713"
     inkscape:window-x="0"
     inkscape:window-y="27"
     inkscape:window-maximized="1" />
  <metadata
     id="metadata6291">
    <rdf:RDF>
      <cc:Work
         rdf:about="">
        <dc:format>image/svg+xml</dc:format>
        <dc:type
           rdf:resource="http://purl.org/dc/dcmitype/StillImage" />
        <dc:title></dc:title>
      </cc:Work>
    </rdf:RDF>
  </metadata>
  <g
     inkscape:label="Layer 1"
     inkscape:groupmode="layer"
     id="layer1"
     transform="translate(0,-994.51965)">
    <path
       sodipodi:type="inkscape:offset"
       inkscape:radius="3.5525012"
       inkscape:original="M 4576.4316 1048.7266 L 4573.7812 1053.1914 L 4574.0664 1053.3262 L 4566.9219 1055.4766 L 4564.0156 1058.6406 L 4557.5684 1106.793 L 4557.25 1106.8203 L 4556.4434 1113.0117 L 4567.4863 1111.3672 L 4568.3984 1105.8711 L 4567.9414 1105.9102 L 4573.5254 1072.2695 L 4570.6816 1111.5195 L 4580.4004 1113.9688 L 4598.4785 1114.0586 L 4609.9199 1111.5195 L 4607.0762 1072.2695 L 4612.6895 1106.0723 L 4612.3496 1106.043 L 4613.2617 1111.5391 L 4624.3047 1113.1836 L 4623.498 1106.9922 L 4623.0742 1106.957 L 4616.8691 1059.4199 L 4613.3184 1055.1855 L 4607.4082 1053.5195 L 4607.4453 1053.5039 L 4604.1699 1048.7266 L 4576.4316 1048.7266 z "
       style="fill:#000000;stroke:none;stroke-width:1px;stroke-linecap:butt;stroke-linejoin:miter;stroke-opacity:1"
       id="path2139-7"
       d="m 4576.4316,1045.1738 a 3.5528565,3.5528565 0 0 0 -3.0546,1.7403 l -2.1036,3.5429 -5.375,1.6172 a 3.5528565,3.5528565 0 0 0 -1.5937,1 l -2.9063,3.1641 a 3.5528565,3.5528565 0 0 0 -0.9043,1.9316 l -6.0683,45.3262 2.5215,-0.2149 a 3.5528565,3.5528565 0 0 0 -3.2207,3.0801 l -0.8067,6.1914 a 3.5528565,3.5528565 0 0 0 4.0469,3.9727 l 11.043,-1.6445 a 3.5528565,3.5528565 0 0 0 0.9238,-0.2735 3.5528565,3.5528565 0 0 0 0.8789,0.3574 l 9.7207,2.4493 a 3.5528565,3.5528565 0 0 0 0.8496,0.1074 l 18.0781,0.09 a 3.5528565,3.5528565 0 0 0 0.7871,-0.084 l 11.4415,-2.539 a 3.5528565,3.5528565 0 0 0 0.8789,-0.3262 3.5528565,3.5528565 0 0 0 1.1699,0.3906 l 11.0429,1.6446 a 3.5528565,3.5528565 0 0 0 4.0469,-3.9727 l -0.8066,-6.1914 a 3.5528565,3.5528565 0 0 0 -3.2285,-3.082 l 2.4336,0.2031 -5.834,-44.6934 a 3.5528565,3.5528565 0 0 0 -0.8008,-1.8242 l -3.5508,-4.2344 a 3.5528565,3.5528565 0 0 0 -1.7578,-1.1367 l -4.6133,-1.3008 -2.5703,-3.748 a 3.5528565,3.5528565 0 0 0 -2.9297,-1.543 z"
       transform="matrix(1.4406212,0,0,1.4406212,-6548.9901,-497.53495)" />
    <path
       style="fill:#f2f2f2;stroke:none;stroke-width:1.44062114px;stroke-linecap:butt;stroke-linejoin:miter;stroke-opacity:1"
       d="m 44.441029,1018.7256 19.453439,44.2417 19.456139,-44.2417 z"
       id="path2373"
       inkscape:connector-curvature="0" />
    <path
       style="fill:#cccccc;stroke:none;stroke-width:1.44062114px;stroke-linecap:butt;stroke-linejoin:miter;stroke-opacity:1"
       d="M 83.874289,1013.2832 H 43.916076 l -3.818618,6.4321 23.797645,1.5528 24.698041,-1.1025 z"
       id="path2139"
       inkscape:connector-curvature="0"
       sodipodi:nodetypes="cccccc" />
    <path
       style="fill:#c83737;stroke:none;stroke-width:1.44062114px;stroke-linecap:butt;stroke-linejoin:miter;stroke-opacity:1"
       d="m 63.895103,1021.2681 -5.899521,6.8967 5.899203,5.7279 5.899999,-5.7279 z"
       id="path2144"
       inkscape:connector-curvature="0"
       sodipodi:nodetypes="ccccc" />
    <path
       style="fill:#c83737;stroke:none;stroke-width:1.44062114px;stroke-linecap:butt;stroke-linejoin:miter;stroke-opacity:1"
       d="m 63.894785,1033.8927 6.834078,13.2447 -6.834078,29.6691 -7.554775,-29.0323 z"
       id="path2146"
       inkscape:connector-curvature="0"
       sodipodi:nodetypes="ccccc" />
    <path
       style="fill:#4d4d4d;stroke:none;stroke-width:1.44062114px;stroke-linecap:butt;stroke-linejoin:miter;stroke-opacity:1"
       d="m 44.441029,1018.7258 -14.225043,4.2803 -4.18707,4.5589 -10.468549,78.1849 14.814185,-2.2058 9.352865,-56.3447 -4.096823,56.5443 14.002764,3.5291 26.04347,0.1303 16.481353,-3.6588 -4.096822,-56.5443 9.355562,56.3447 14.811489,2.2058 -10.05911,-77.0619 -5.113199,-6.1007 -13.705494,-3.8615 -19.456139,44.2417 z"
       id="path2149"
       inkscape:connector-curvature="0"
       sodipodi:nodetypes="cccccccccccccccccc" />
    <path
       style="fill:#333333;stroke:none;stroke-width:1.44062114px;stroke-linecap:butt;stroke-linejoin:miter;stroke-opacity:1"
       d="m 83.350607,1018.7256 4.017541,15.042 -10.314113,11.4602 -2.546593,12.3512 -10.612657,16.0334 v -10.6447 z"
       id="path2184-3"
       inkscape:connector-curvature="0"
       sodipodi:nodetypes="ccccccc" />
    <path
       style="fill:#d35f5f;stroke:none;stroke-width:1.44062114px;stroke-linecap:butt;stroke-linejoin:miter;stroke-opacity:1"
       d="m 63.894785,1033.8927 -7.554775,13.8815 6.253198,-5.9025 z"
       id="path2393"
       inkscape:connector-curvature="0"
       sodipodi:nodetypes="cccc" />
    <path
       style="fill:#333333;stroke:none;stroke-width:1.44062114px;stroke-linecap:butt;stroke-linejoin:miter;stroke-opacity:1"
       d="m 44.441029,1018.7256 -4.019447,15.042 10.314113,11.4602 2.546593,12.3512 10.612497,16.0334 v -10.6447 z"
       id="path2184-3-5"
       inkscape:connector-curvature="0"
       sodipodi:nodetypes="ccccccc" />
    <path
       style="fill:#333333;stroke:none;stroke-width:1.54712725px;stroke-linecap:butt;stroke-linejoin:miter;stroke-opacity:1"
       d="m 112.88094,1106.1396 -15.906509,-2.3691 -1.31476,-7.9162 16.060469,1.3672 z"
       id="path2216"
       inkscape:connector-curvature="0" />
    <path
       style="fill:#808080;stroke:none;stroke-width:1.44062114px;stroke-linecap:butt;stroke-linejoin:miter;stroke-opacity:1"
       d="m 15.560367,1105.7499 10.468549,-78.1851 4.18707,-4.5587 2.121578,2.1661 -3.183241,3.5018 z"
       id="path2369"
       inkscape:connector-curvature="0"
       sodipodi:nodetypes="cccccc" />
    <path
       style="fill:#333333;stroke:none;stroke-width:1.54712725px;stroke-linecap:butt;stroke-linejoin:miter;stroke-opacity:1"
       d="m 15.120576,1105.8927 15.906672,-2.3691 1.314606,-7.9162 -16.060471,1.3672 z"
       id="path2216-6"
       inkscape:connector-curvature="0" />
    <path
       style="fill:#333333;stroke:none;stroke-width:0.94394016px;stroke-linecap:butt;stroke-linejoin:miter;stroke-opacity:1"
       d="m 57.817155,1079.4822 3.128902,-2.4195 2.669728,2.7116 -2.794928,2.6697 z"
       id="path2246"
       inkscape:connector-curvature="0" />
    <path
       style="fill:#333333;stroke:none;stroke-width:0.94394016px;stroke-linecap:butt;stroke-linejoin:miter;stroke-opacity:1"
       d="m 57.370532,1090.9181 3.128902,-2.4197 2.669728,2.7117 -2.794928,2.6697 z"
       id="path2246-2"
       inkscape:connector-curvature="0" />
    <path
       style="fill:#666666;stroke:none;stroke-width:1.44062114px;stroke-linecap:butt;stroke-linejoin:miter;stroke-opacity:1"
       d="m 32.337564,1025.1722 12.103465,-6.4466 -14.225043,4.2805 z"
       id="path2371"
       inkscape:connector-curvature="0" />
    <path
       style="fill:#e6e6e6;stroke:none;stroke-width:1.44062114px;stroke-linecap:butt;stroke-linejoin:miter;stroke-opacity:1"
       d="m 63.895103,1021.2681 -5.899521,6.8967 -17.898124,-8.4495 3.818618,-6.4321 z"
       id="path2116"
       inkscape:connector-curvature="0"
       sodipodi:nodetypes="ccccc" />
    <path
       style="fill:#4d4d4d;stroke:none;stroke-width:1.44062114px;stroke-linecap:butt;stroke-linejoin:miter;stroke-opacity:1"
       d="m 63.894785,1062.9677 6.579387,-9.4635 3.083302,-9.2299 5.705843,-11.5384 4.08729,-14.0103 z"
       id="path2397"
       inkscape:connector-curvature="0"
       sodipodi:nodetypes="cccccc" />
    <path
       style="fill:#e6e6e6;stroke:none;stroke-width:1.44062114px;stroke-linecap:butt;stroke-linejoin:miter;stroke-opacity:1"
       d="m 63.895103,1021.2681 5.899681,6.8967 18.79836,-7.9992 -4.718855,-6.8824 z"
       id="path2116-6"
       inkscape:connector-curvature="0"
       sodipodi:nodetypes="ccccc" />
    <path
       style="fill:#1a1a1a;stroke:none;stroke-width:1.44062114px;stroke-linecap:butt;stroke-linejoin:miter;stroke-opacity:1"
       d="m 49.633358,1107.2726 24.812278,-2.8086 14.586345,-3.4214 3.1262,2.7011 -16.481353,3.6587 z"
       id="path2375"
       inkscape:connector-curvature="0" />
    <path
       style="fill:#333333;stroke:none;stroke-width:1.44062114px;stroke-linecap:butt;stroke-linejoin:miter;stroke-opacity:1"
       d="m 89.031981,1101.0426 -0.970622,-53.8432 4.096822,56.5443 z"
       id="path2377"
       inkscape:connector-curvature="0" />
    <path
       style="fill:#1a1a1a;stroke:none;stroke-width:1.44062114px;stroke-linecap:butt;stroke-linejoin:miter;stroke-opacity:1"
       d="m 96.974431,1103.7705 12.676399,-0.477 3.23011,2.8461 z"
       id="path2379"
       inkscape:connector-curvature="0"
       sodipodi:nodetypes="cccc" />
    <path
       style="fill:#333333;stroke:none;stroke-width:1.44062114px;stroke-linecap:butt;stroke-linejoin:miter;stroke-opacity:1"
       d="m 39.727417,1047.1994 -10.636806,44.6322 1.283941,11.7123 z"
       id="path2387"
       inkscape:connector-curvature="0"
       sodipodi:nodetypes="cccc" />
    <path
       style="fill:#1a1a1a;stroke:none;stroke-width:1.44062114px;stroke-linecap:butt;stroke-linejoin:miter;stroke-opacity:1"
       d="m 15.120576,1105.8927 13.779056,-3.8107 2.127616,1.4416 z"
       id="path2383"
       inkscape:connector-curvature="0" />
    <path
       style="fill:#1a1a1a;stroke:none;stroke-width:1.44062114px;stroke-linecap:butt;stroke-linejoin:miter;stroke-opacity:1"
       d="m 28.899632,1102.082 3.442222,-6.4746 -1.314606,7.9162 z"
       id="path2385"
       inkscape:connector-curvature="0"
       sodipodi:nodetypes="cccc" />
    <path
       style="fill:#d35f5f;stroke:none;stroke-width:1.44062114px;stroke-linecap:butt;stroke-linejoin:miter;stroke-opacity:1"
       d="m 57.995582,1028.1648 5.899521,-6.8967 -1.442825,4.7319 z"
       id="path2395"
       inkscape:connector-curvature="0" />
  </g>
</svg>
