<?xml version="1.0" encoding="UTF-8" standalone="no"?>
<!-- Created with Inkscape (http://www.inkscape.org/) -->

<svg
   xmlns:dc="http://purl.org/dc/elements/1.1/"
   xmlns:cc="http://creativecommons.org/ns#"
   xmlns:rdf="http://www.w3.org/1999/02/22-rdf-syntax-ns#"
   xmlns:svg="http://www.w3.org/2000/svg"
   xmlns="http://www.w3.org/2000/svg"
   xmlns:sodipodi="http://sodipodi.sourceforge.net/DTD/sodipodi-0.dtd"
   xmlns:inkscape="http://www.inkscape.org/namespaces/inkscape"
   width="128"
   height="128"
   viewBox="0 0 128 128.00001"
   version="1.1"
   id="svg6294"
   inkscape:version="0.92.3 (2405546, 2018-03-11)"
   sodipodi:docname="edit.svg">
  <defs
     id="defs6288" />
  <sodipodi:namedview
     id="base"
     pagecolor="#ffffff"
     bordercolor="#666666"
     borderopacity="1.0"
     inkscape:pageopacity="0.0"
     inkscape:pageshadow="2"
     inkscape:zoom="2.9006348"
     inkscape:cx="46.360553"
     inkscape:cy="63.412732"
     inkscape:document-units="px"
     inkscape:current-layer="layer1"
     showgrid="false"
     units="px"
     inkscape:window-width="1366"
     inkscape:window-height="713"
     inkscape:window-x="0"
     inkscape:window-y="27"
     inkscape:window-maximized="1" />
  <metadata
     id="metadata6291">
    <rdf:RDF>
      <cc:Work
         rdf:about="">
        <dc:format>image/svg+xml</dc:format>
        <dc:type
           rdf:resource="http://purl.org/dc/dcmitype/StillImage" />
        <dc:title></dc:title>
      </cc:Work>
    </rdf:RDF>
  </metadata>
  <g
     inkscape:label="Layer 1"
     inkscape:groupmode="layer"
     id="layer1"
     transform="translate(0,-994.51965)">
    <path
       sodipodi:type="inkscape:offset"
       inkscape:radius="3.898747"
       inkscape:original="M 1263.125 1059.6445 L 1257.1465 1065.5977 L 1251.875 1070.7695 L 1226.125 1096.3945 L 1221.5 1113.0195 L 1238.375 1108.2695 L 1263.375 1082.6445 L 1269.0801 1077 L 1269.2891 1076.7969 L 1269.2324 1076.9141 L 1274.9375 1071.2695 L 1263.125 1059.6445 z "
       style="fill:#000000;stroke:none;stroke-width:1px;stroke-linecap:butt;stroke-linejoin:miter;stroke-opacity:1"
       id="path1750-4"
       d="m 1263.0371,1055.7461 a 3.8991368,3.8991368 0 0 0 -2.6641,1.1348 l -5.9668,5.9433 -5.2617,5.1621 a 3.8991368,3.8991368 0 0 0 -0.02,0.02 l -25.75,25.625 a 3.8991368,3.8991368 0 0 0 -1.0059,1.7187 l -4.625,16.625 a 3.8991368,3.8991368 0 0 0 4.8125,4.7969 l 16.875,-4.75 a 3.8991368,3.8991368 0 0 0 1.7344,-1.0293 l 24.9746,-25.5996 5.4024,-5.3457 a 3.8991368,3.8991368 0 0 0 0.4316,-0.3614 l 5.7051,-5.6445 a 3.8991368,3.8991368 0 0 0 -0.01,-5.5508 l -11.8125,-11.625 a 3.8991368,3.8991368 0 0 0 -2.8223,-1.1191 z"
       transform="matrix(1.7637163,0,0,1.7637163,-2137.5043,-857.40523)" />
    <path
       style="fill:#ffd42a;stroke:none;stroke-width:1.76371622px;stroke-linecap:butt;stroke-linejoin:miter;stroke-opacity:1"
       d="m 25.032172,1076.3241 45.415607,-45.1955 20.28265,20.9444 -44.092852,45.1952 -29.762698,8.3776 z"
       id="path1754"
       inkscape:connector-curvature="0"
       sodipodi:nodetypes="cccccc" />
    <path
       style="fill:none;stroke:none;stroke-width:1.76371622px;stroke-linecap:butt;stroke-linejoin:miter;stroke-opacity:1"
       d="m 16.874879,1105.6458 c 0.146093,-0.073 0.294013,-0.146 0,0 z"
       id="path1750"
       inkscape:connector-curvature="0" />
    <path
       style="fill:#ffeeaa;stroke:none;stroke-width:1.76371622px;stroke-linecap:butt;stroke-linejoin:miter;stroke-opacity:1"
       d="m 25.032172,1076.3241 -8.157293,29.3217 29.762698,-8.3776 -0.881837,-10.3619 -9.480049,-0.2203 -0.881836,-9.2595 z"
       id="path1752"
       inkscape:connector-curvature="0" />
    <path
       style="fill:#808080;stroke:none;stroke-width:1.76371622px;stroke-linecap:butt;stroke-linejoin:miter;stroke-opacity:1"
       d="m 70.447779,1031.1286 9.29925,-9.1221 21.045381,20.1102 -10.061981,9.9563 z"
       id="path1756"
       inkscape:connector-curvature="0" />
    <path
       style="fill:#ff2ad4;stroke:none;stroke-width:1.76371622px;stroke-linecap:butt;stroke-linejoin:miter;stroke-opacity:1"
       d="m 79.747029,1022.0065 10.54248,-10.4991 20.833951,20.5031 -10.33105,10.1062 z"
       id="path1758"
       inkscape:connector-curvature="0" />
    <path
       style="fill:#333333;stroke:none;stroke-width:1.76371622px;stroke-linecap:butt;stroke-linejoin:miter;stroke-opacity:1"
       d="m 20.187955,1093.7364 8.245355,8.6558 -11.558431,3.2536 z"
       id="path1764"
       inkscape:connector-curvature="0" />
    <path
       style="fill:#4d4d4d;stroke:none;stroke-width:1.76371622px;stroke-linecap:butt;stroke-linejoin:miter;stroke-opacity:1"
       d="m 16.874879,1105.6458 5.939918,-9.1519 -2.626842,-2.7575 z"
       id="path1766"
       inkscape:connector-curvature="0"
       sodipodi:nodetypes="cccc" />
    <path
       style="fill:#fff6d5;stroke:none;stroke-width:1.76371622px;stroke-linecap:butt;stroke-linejoin:miter;stroke-opacity:1"
       d="m 22.814797,1096.4939 12.579058,-19.0674 -10.361683,-1.1024 -4.844217,17.4123 z"
       id="path1768"
       inkscape:connector-curvature="0"
       sodipodi:nodetypes="ccccc" />
    <path
       style="fill:#1a1a1a;stroke:none;stroke-width:1.76371622px;stroke-linecap:butt;stroke-linejoin:miter;stroke-opacity:1"
       d="m 16.874879,1105.6458 9.058609,-5.8778 2.499822,2.6242 z"
       id="path1774"
       inkscape:connector-curvature="0" />
    <path
       style="fill:#ffe680;stroke:none;stroke-width:1.76371622px;stroke-linecap:butt;stroke-linejoin:miter;stroke-opacity:1"
       d="m 25.933488,1099.768 19.822252,-12.8617 0.881837,10.3619 -18.204267,5.124 z"
       id="path1776"
       inkscape:connector-curvature="0" />
    <path
       style="fill:#999999;stroke:none;stroke-width:1.76371622px;stroke-linecap:butt;stroke-linejoin:miter;stroke-opacity:1"
       d="m 70.447779,1031.1286 3.73837,3.8605 5.56088,-12.9826 z"
       id="path1782"
       inkscape:connector-curvature="0" />
    <path
       style="fill:#666666;stroke:none;stroke-width:1.76371622px;stroke-linecap:butt;stroke-linejoin:miter;stroke-opacity:1"
       d="m 97.125469,1038.6127 3.666941,3.504 -10.061981,9.9563 z"
       id="path1784"
       inkscape:connector-curvature="0" />
    <path
       style="fill:#d4aa00;stroke:none;stroke-width:1.76371622px;stroke-linecap:butt;stroke-linejoin:miter;stroke-opacity:1"
       d="m 46.637577,1097.2682 40.541962,-48.8622 3.55089,3.667 z"
       id="path1786"
       inkscape:connector-curvature="0" />
    <path
       style="fill:#ffdd55;stroke:none;stroke-width:1.76371622px;stroke-linecap:butt;stroke-linejoin:miter;stroke-opacity:1"
       d="m 70.447779,1031.1286 -45.415607,45.1955 7.462538,0.7937 z"
       id="path1788"
       inkscape:connector-curvature="0" />
    <path
       style="fill:#ff55dd;stroke:none;stroke-width:1.76371622px;stroke-linecap:butt;stroke-linejoin:miter;stroke-opacity:1"
       d="m 79.747029,1022.0065 3.73838,3.8605 5.56068,-12.9825 z"
       id="path1782-6"
       inkscape:connector-curvature="0" />
    <path
       style="fill:#ff00cc;stroke:none;stroke-width:1.76371622px;stroke-linecap:butt;stroke-linejoin:miter;stroke-opacity:1"
       d="m 107.45651,1028.5064 3.66695,3.5041 -10.06179,9.9562 z"
       id="path1784-3"
       inkscape:connector-curvature="0" />
  </g>
</svg>
