<?xml version="1.0" encoding="UTF-8" standalone="no"?>
<!-- Created with Inkscape (http://www.inkscape.org/) -->

<svg
   xmlns:dc="http://purl.org/dc/elements/1.1/"
   xmlns:cc="http://creativecommons.org/ns#"
   xmlns:rdf="http://www.w3.org/1999/02/22-rdf-syntax-ns#"
   xmlns:svg="http://www.w3.org/2000/svg"
   xmlns="http://www.w3.org/2000/svg"
   xmlns:sodipodi="http://sodipodi.sourceforge.net/DTD/sodipodi-0.dtd"
   xmlns:inkscape="http://www.inkscape.org/namespaces/inkscape"
   width="128"
   height="128"
   viewBox="0 0 128 128.00001"
   version="1.1"
   id="svg6294"
   inkscape:version="0.92.4 (5da689c313, 2019-01-14)"
   sodipodi:docname="gamepad_off.svg">
  <defs
     id="defs6288" />
  <sodipodi:namedview
     id="base"
     pagecolor="#ffffff"
     bordercolor="#666666"
     borderopacity="1.0"
     inkscape:pageopacity="0.0"
     inkscape:pageshadow="2"
     inkscape:zoom="2.9006348"
     inkscape:cx="49.640763"
     inkscape:cy="65.010384"
     inkscape:document-units="px"
     inkscape:current-layer="layer1"
     showgrid="false"
     units="px"
     inkscape:window-width="1366"
     inkscape:window-height="707"
     inkscape:window-x="0"
     inkscape:window-y="29"
     inkscape:window-maximized="1" />
  <metadata
     id="metadata6291">
    <rdf:RDF>
      <cc:Work
         rdf:about="">
        <dc:format>image/svg+xml</dc:format>
        <dc:type
           rdf:resource="http://purl.org/dc/dcmitype/StillImage" />
        <dc:title />
      </cc:Work>
    </rdf:RDF>
  </metadata>
  <g
     inkscape:label="Layer 1"
     inkscape:groupmode="layer"
     id="layer1"
     transform="translate(0,-994.51965)">
    <path
       transform="matrix(1.5968701,0,0,1.5968701,-1810.7642,-678.54134)"
       sodipodi:type="inkscape:offset"
       inkscape:radius="3.1274941"
       inkscape:original="M 1188.6426 1054.4395 L 1176.2773 1077.7109 L 1174.4492 1077.8125 L 1170.6328 1077.6016 L 1167.166 1075.6152 L 1148.2168 1055.4941 L 1142.0078 1060.2715 L 1155.9727 1074.0371 L 1151.1562 1074.752 L 1143.5938 1083.5957 L 1143.3125 1093.7852 L 1150.2148 1105.248 L 1154.0254 1105.4277 L 1148.6836 1111.6914 L 1157.2988 1115.9414 L 1165.1191 1104.0938 L 1169.8359 1100.2617 L 1178.4648 1100.2617 L 1186.9922 1105.998 L 1188.002 1105.9688 L 1196.5801 1115.832 L 1202.8457 1110.834 L 1197.498 1105.4531 L 1204.5273 1094.832 L 1204.6875 1085.0859 L 1197.5938 1074.752 L 1186.2227 1073.041 L 1184.8496 1073.8281 L 1195.1367 1057.8652 L 1188.6426 1054.4395 z "
       style="fill:#000000;stroke:none;stroke-width:0.84848052px;stroke-linecap:butt;stroke-linejoin:miter;stroke-opacity:1"
       id="path1921-1-5"
       d="m 1188.5977,1051.3125 a 3.1278068,3.1278068 0 0 0 -2.7168,1.6602 l -11.5313,21.7011 -2.8047,-0.1543 -2.4199,-1.3867 -18.6309,-19.7832 a 3.1278068,3.1278068 0 0 0 -4.1836,-0.334 l -6.2089,4.7774 a 3.1278068,3.1278068 0 0 0 -0.2891,4.705 l 9.7207,9.5821 a 3.1278068,3.1278068 0 0 0 -0.7539,0.6387 l -7.5625,8.8437 a 3.1278068,3.1278068 0 0 0 -0.75,1.9473 l -0.2813,10.1894 a 3.1278068,3.1278068 0 0 0 0.4473,1.6992 l 6.9024,11.4629 a 3.1278068,3.1278068 0 0 0 0.5683,0.6914 l -1.7988,2.1094 a 3.1278068,3.1278068 0 0 0 0.9961,4.834 l 8.6152,4.25 a 3.1278068,3.1278068 0 0 0 3.9922,-1.082 l 7.5566,-11.4453 3.4805,-2.8301 h 6.5664 l 7.7344,5.2051 a 3.1278068,3.1278068 0 0 0 1.8359,0.5312 l -0.4687,0.014 7.6074,8.7461 a 3.1278068,3.1278068 0 0 0 4.3105,0.3925 l 6.2657,-4.998 a 3.1278068,3.1278068 0 0 0 0.2676,-4.6504 l -3.5528,-3.5742 5.6231,-8.4961 a 3.1278068,3.1278068 0 0 0 0.5195,-1.6758 l 0.1602,-9.7461 a 3.1278068,3.1278068 0 0 0 -0.5489,-1.8203 l -7.0937,-10.334 a 3.1278068,3.1278068 0 0 0 -2.1133,-1.3222 l -7.377,-1.1094 7.084,-10.9922 a 3.1278068,3.1278068 0 0 0 -1.1699,-4.459 l -6.4941,-3.4258 a 3.1278068,3.1278068 0 0 0 -1.5039,-0.3613 z" />
    <path
       style="fill:#999999;stroke:none;stroke-width:1.35491312px;stroke-linecap:butt;stroke-linejoin:miter;stroke-opacity:1"
       d="m 45.880675,1034.965 -18.397702,2.7339 -12.077447,14.1202 -0.448401,16.2732 11.022715,18.3043 20.349875,0.9581 10.982633,-8.9213 7.367639,-0.2805 6.409677,0.2805 13.61715,9.1607 16.517706,-0.4789 11.48548,-17.3521 0.25582,-15.5628 -11.32818,-16.5014 -18.158181,-2.7339 -12.702303,7.2827 -6.097169,0.3387 -6.097009,-0.3387 z"
       id="path1921-1"
       inkscape:connector-curvature="0"
       sodipodi:nodetypes="ccccccccccccccccccc" />
    <path
       style="fill:#666666;stroke:none;stroke-width:1.35491312px;stroke-linecap:butt;stroke-linejoin:miter;stroke-opacity:1"
       d="m 98.772205,1054.8925 3.769425,-0.8413 4.34109,3.2544 0.48336,4.1764 -12.247833,13.5859 -5.400295,1.274 -3.914089,-3.3193 -0.298614,-4.5068 z"
       id="path3108-0-1"
       inkscape:connector-curvature="0" />
    <path
       style="fill:#666666;stroke:none;stroke-width:1.35491312px;stroke-linecap:butt;stroke-linejoin:miter;stroke-opacity:1"
       d="m 89.890733,1045.394 3.769412,-0.8413 4.341091,3.2544 0.483532,4.1764 -12.247993,13.5859 -5.400295,1.274 -3.914088,-3.3193 -0.298615,-4.5068 z"
       id="path3108-5"
       inkscape:connector-curvature="0" />
    <path
       style="fill:#71c837;fill-opacity:1;stroke:none;stroke-width:1.35491192px;stroke-linecap:butt;stroke-linejoin:miter;stroke-opacity:1"
       d="m 94.957108,1071.4062 -1.9477,2.6251 -3.72597,0.2541 -1.35495,-2.8792 0.16943,-2.9639 2.2864,-2.0324 2.49814,0.3811 2.11713,1.9053 z"
       id="path3061-8"
       inkscape:connector-curvature="0"
       sodipodi:nodetypes="ccccccccc" />
    <path
       style="fill:#00ccff;fill-opacity:1;stroke:none;stroke-width:1.35491192px;stroke-linecap:butt;stroke-linejoin:miter;stroke-opacity:1"
       d="m 86.148618,1061.9885 -1.9477,2.6251 -3.72597,0.2541 -1.35494,-2.8792 0.16942,-2.9638 2.2864,-2.0324 2.49814,0.381 2.11713,1.9054 z"
       id="path3061"
       inkscape:connector-curvature="0"
       sodipodi:nodetypes="ccccccccc" />
    <path
       style="fill:#c83737;fill-opacity:1;stroke:none;stroke-width:1.35491192px;stroke-linecap:butt;stroke-linejoin:miter;stroke-opacity:1"
       d="m 104.61242,1061.6391 -1.9477,2.6251 -3.725986,0.2542 -1.354936,-2.8793 0.16927,-2.9639 2.286552,-2.0323 2.49815,0.381 2.11696,1.9054 z"
       id="path3061-8-8-5"
       inkscape:connector-curvature="0"
       sodipodi:nodetypes="ccccccccc" />
    <path
       style="fill:#ffcc00;fill-opacity:1;stroke:none;stroke-width:1.35491192px;stroke-linecap:butt;stroke-linejoin:miter;stroke-opacity:1"
       d="m 96.148208,1051.8691 -1.9477,2.625 -3.72597,0.2541 -1.35494,-2.8791 0.16943,-2.9639 2.28639,-2.0324 2.49814,0.3811 2.11713,1.9053 z"
       id="path3061-8-8-6"
       inkscape:connector-curvature="0"
       sodipodi:nodetypes="ccccccccc" />
    <path
       style="fill:#d4aa00;fill-opacity:1;stroke:none;stroke-width:1.59686852px;stroke-linecap:butt;stroke-linejoin:miter;stroke-opacity:1"
       d="m 96.190688,1049.1592 -0.72386,2.3604 0.68138,0.3495 z"
       id="path3308"
       inkscape:connector-curvature="0" />
    <path
       style="fill:#d4aa00;fill-opacity:1;stroke:none;stroke-width:1.59686852px;stroke-linecap:butt;stroke-linejoin:miter;stroke-opacity:1"
       d="m 96.148208,1051.8691 -1.9477,2.625 1.26632,-2.9745 z"
       id="path3310"
       inkscape:connector-curvature="0" />
    <path
       style="fill:#ffdd55;fill-opacity:1;stroke:none;stroke-width:1.59686852px;stroke-linecap:butt;stroke-linejoin:miter;stroke-opacity:1"
       d="m 90.301918,1049.4487 -1.18232,2.4204 0.16943,-2.9639 z"
       id="path3312"
       inkscape:connector-curvature="0"
       sodipodi:nodetypes="cccc" />
    <path
       style="fill:#4d4d4d;stroke:none;stroke-width:1.35491312px;stroke-linecap:butt;stroke-linejoin:miter;stroke-opacity:1"
       d="m 55.809693,1070.7337 3.233503,-7.6645 2.155774,-1.6766 0.479061,2.8742 -3.113737,7.1855 -2.035849,1.5567 z"
       id="path3036-2"
       inkscape:connector-curvature="0" />
    <path
       style="fill:#4d4d4d;stroke:none;stroke-width:1.35491312px;stroke-linecap:butt;stroke-linejoin:miter;stroke-opacity:1"
       d="m 65.579983,1070.7278 3.233502,-7.6645 2.155775,-1.6766 0.479061,2.8742 -3.113737,7.1856 -2.03585,1.5568 z"
       id="path3036-7-2"
       inkscape:connector-curvature="0" />
    <path
       style="fill:#4d4d4d;fill-opacity:1;stroke:none;stroke-width:1.63661993px;stroke-linecap:butt;stroke-linejoin:miter;stroke-opacity:1"
       d="m 30.326362,1050.2372 2.557228,6.9556 6.13741,0.1022 2.557068,-7.4661 z"
       id="path3053-0"
       inkscape:connector-curvature="0" />
    <path
       style="fill:#4d4d4d;fill-opacity:1;stroke:none;stroke-width:1.63661993px;stroke-linecap:butt;stroke-linejoin:miter;stroke-opacity:1"
       d="m 31.115854,1065.0954 0.1533,-5.3702 -6.137412,-1.79 -0.460378,7.8763 z"
       id="path3055-2"
       inkscape:connector-curvature="0" />
    <path
       style="fill:#4d4d4d;fill-opacity:1;stroke:none;stroke-width:1.63661993px;stroke-linecap:butt;stroke-linejoin:miter;stroke-opacity:1"
       d="m 38.554874,1067.7699 -6.220448,0.217 -1.157252,4.9183 7.449878,0.5786 z"
       id="path3057-1"
       inkscape:connector-curvature="0" />
    <path
       style="fill:#4d4d4d;fill-opacity:1;stroke:none;stroke-width:1.63661993px;stroke-linecap:butt;stroke-linejoin:miter;stroke-opacity:1"
       d="m 40.580184,1059.9581 5.424567,-1.5909 -0.289193,8.0282 -5.063196,-0.94 z"
       id="path3059-7"
       inkscape:connector-curvature="0" />
    <path
       style="fill:#ffdd55;fill-opacity:1;stroke:none;stroke-width:1.59686852px;stroke-linecap:butt;stroke-linejoin:miter;stroke-opacity:1"
       d="m 90.301918,1049.4487 -1.01289,-0.5435 2.28639,-2.0324 z"
       id="path3314"
       inkscape:connector-curvature="0"
       sodipodi:nodetypes="cccc" />
    <path
       style="fill:#a02c2c;fill-opacity:1;stroke:none;stroke-width:1.59686852px;stroke-linecap:butt;stroke-linejoin:miter;stroke-opacity:1"
       d="m 104.61242,1061.6391 0.0415,-2.7098 -1.17785,2.371 z"
       id="path3318-5"
       inkscape:connector-curvature="0" />
    <path
       style="fill:#b3b3b3;stroke:none;stroke-width:1.59687006px;stroke-linecap:butt;stroke-linejoin:miter;stroke-opacity:1"
       d="m 14.957125,1068.0923 4.799073,-15.6699 -4.350672,-0.6033 z"
       id="path3288-7"
       inkscape:connector-curvature="0" />
    <path
       style="fill:#b3b3b3;stroke:none;stroke-width:1.59687006px;stroke-linecap:butt;stroke-linejoin:miter;stroke-opacity:1"
       d="m 19.756198,1052.4224 7.726775,-14.7235 -12.077447,14.1202 z"
       id="path3290-4"
       inkscape:connector-curvature="0" />
    <path
       style="fill:#b3b3b3;stroke:none;stroke-width:1.59687006px;stroke-linecap:butt;stroke-linejoin:miter;stroke-opacity:1"
       d="m 70.777156,1042.2477 13.761348,-4.5079 -1.059045,-2.7748 z"
       id="path3292-1"
       inkscape:connector-curvature="0" />
    <path
       style="fill:#b3b3b3;stroke:none;stroke-width:1.59687006px;stroke-linecap:butt;stroke-linejoin:miter;stroke-opacity:1"
       d="m 84.538504,1037.7398 17.099136,-0.042 -18.158181,-2.7333 z"
       id="path3294-7"
       inkscape:connector-curvature="0" />
    <path
       style="fill:#b3b3b3;stroke:none;stroke-width:1.59687006px;stroke-linecap:butt;stroke-linejoin:miter;stroke-opacity:1"
       d="m 45.880675,1034.965 -13.989221,4.0451 -4.408481,-1.3112 z"
       id="path3296-1"
       inkscape:connector-curvature="0" />
    <path
       style="fill:#757575;fill-opacity:1;stroke:none;stroke-width:1.59687006px;stroke-linecap:butt;stroke-linejoin:miter;stroke-opacity:1"
       d="m 25.97984,1086.3966 18.473552,-2.3613 1.876323,3.3194 z"
       id="path3298-1"
       inkscape:connector-curvature="0" />
    <path
       style="fill:#757575;fill-opacity:1;stroke:none;stroke-width:1.59687006px;stroke-linecap:butt;stroke-linejoin:miter;stroke-opacity:1"
       d="m 44.453392,1084.0353 12.858956,-5.6019 -10.982633,8.9213 z"
       id="path3300-1"
       inkscape:connector-curvature="0" />
    <path
       style="fill:#757575;fill-opacity:1;stroke:none;stroke-width:1.59687006px;stroke-linecap:butt;stroke-linejoin:miter;stroke-opacity:1"
       d="m 84.706814,1087.5941 14.510758,-4.2646 2.006948,3.7857 z"
       id="path3302-7"
       inkscape:connector-curvature="0" />
    <path
       style="fill:#a02c2c;fill-opacity:1;stroke:none;stroke-width:1.59686852px;stroke-linecap:butt;stroke-linejoin:miter;stroke-opacity:1"
       d="m 102.66472,1064.2642 1.9477,-2.6251 -1.13633,-0.3388 z"
       id="path3316-6"
       inkscape:connector-curvature="0" />
    <path
       style="fill:#757575;fill-opacity:1;stroke:none;stroke-width:1.59687006px;stroke-linecap:butt;stroke-linejoin:miter;stroke-opacity:1"
       d="M 99.217572,1083.3295 112.71,1069.7631 101.22452,1087.1152 Z"
       id="path3304-0"
       inkscape:connector-curvature="0" />
    <path
       style="fill:#757575;fill-opacity:1;stroke:none;stroke-width:1.59687006px;stroke-linecap:butt;stroke-linejoin:miter;stroke-opacity:1"
       d="m 57.312348,1078.4334 5.958561,-1.9582 7.818755,1.9582 z"
       id="path3306-4"
       inkscape:connector-curvature="0" />
    <path
       style="fill:#666666;stroke:none;stroke-width:1.59687006px;stroke-linecap:butt;stroke-linejoin:miter;stroke-opacity:1"
       d="m 32.88359,1057.1928 -0.498064,-5.1975 -2.059164,-1.7581 z"
       id="path3356-0"
       inkscape:connector-curvature="0" />
    <path
       style="fill:#666666;stroke:none;stroke-width:1.59687006px;stroke-linecap:butt;stroke-linejoin:miter;stroke-opacity:1"
       d="m 32.385526,1051.9953 9.192542,-2.1664 -11.251706,0.4083 z"
       id="path3358-8"
       inkscape:connector-curvature="0" />
    <path
       style="fill:#333333;stroke:none;stroke-width:1.59687006px;stroke-linecap:butt;stroke-linejoin:miter;stroke-opacity:1"
       d="m 32.88359,1057.1928 6.13741,0.1022 -1.695397,-1.3476 z"
       id="path3360-5"
       inkscape:connector-curvature="0" />
    <path
       style="fill:#333333;stroke:none;stroke-width:1.59687006px;stroke-linecap:butt;stroke-linejoin:miter;stroke-opacity:1"
       d="m 37.325603,1055.9474 4.252465,-6.1185 -2.557068,7.4661 z"
       id="path3362-1"
       inkscape:connector-curvature="0" />
    <path
       style="fill:#666666;fill-opacity:1;stroke:none;stroke-width:1.59687006px;stroke-linecap:butt;stroke-linejoin:miter;stroke-opacity:1"
       d="m 40.652362,1065.4554 0.911015,-4.4499 -0.983193,-1.0474 z"
       id="path3364-6"
       inkscape:connector-curvature="0" />
    <path
       style="fill:#666666;fill-opacity:1;stroke:none;stroke-width:1.59687006px;stroke-linecap:butt;stroke-linejoin:miter;stroke-opacity:1"
       d="m 41.563377,1061.0055 4.441374,-2.6383 -5.424567,1.5909 z"
       id="path3366-6"
       inkscape:connector-curvature="0" />
    <path
       style="fill:#333333;fill-opacity:1;stroke:none;stroke-width:1.59687006px;stroke-linecap:butt;stroke-linejoin:miter;stroke-opacity:1"
       d="m 40.652362,1065.4554 3.905146,-0.1581 1.15805,1.0981 z"
       id="path3368-2"
       inkscape:connector-curvature="0" />
    <path
       style="fill:#333333;fill-opacity:1;stroke:none;stroke-width:1.59687006px;stroke-linecap:butt;stroke-linejoin:miter;stroke-opacity:1"
       d="m 44.557508,1065.2973 1.447243,-6.9301 -0.289193,8.0282 z"
       id="path3370-1"
       inkscape:connector-curvature="0" />
    <path
       style="fill:#666666;fill-opacity:1;stroke:none;stroke-width:1.59687006px;stroke-linecap:butt;stroke-linejoin:miter;stroke-opacity:1"
       d="m 24.671364,1065.8115 1.522137,-5.804 -1.061759,-2.0723 z"
       id="path3372-9"
       inkscape:connector-curvature="0" />
    <path
       style="fill:#666666;fill-opacity:1;stroke:none;stroke-width:1.59687006px;stroke-linecap:butt;stroke-linejoin:miter;stroke-opacity:1"
       d="m 26.193501,1060.0075 5.075653,-0.2823 -6.137412,-1.79 z"
       id="path3374-6"
       inkscape:connector-curvature="0" />
    <path
       style="fill:#333333;fill-opacity:1;stroke:none;stroke-width:1.59687006px;stroke-linecap:butt;stroke-linejoin:miter;stroke-opacity:1"
       d="m 24.671364,1065.8115 4.965469,-1.7619 1.479021,1.0458 z"
       id="path3376-4"
       inkscape:connector-curvature="0" />
    <path
       style="fill:#333333;fill-opacity:1;stroke:none;stroke-width:1.59687006px;stroke-linecap:butt;stroke-linejoin:miter;stroke-opacity:1"
       d="m 29.636833,1064.0496 1.632321,-4.3244 -0.1533,5.3702 z"
       id="path3378-8"
       inkscape:connector-curvature="0" />
    <path
       style="fill:#666666;fill-opacity:1;stroke:none;stroke-width:1.59687006px;stroke-linecap:butt;stroke-linejoin:miter;stroke-opacity:1"
       d="m 31.177174,1072.9052 1.902831,-3.5659 -0.745579,-1.3524 z"
       id="path3380-0"
       inkscape:connector-curvature="0" />
    <path
       style="fill:#666666;fill-opacity:1;stroke:none;stroke-width:1.59687006px;stroke-linecap:butt;stroke-linejoin:miter;stroke-opacity:1"
       d="m 33.080005,1069.3393 5.474869,-1.5694 -6.220448,0.217 z"
       id="path3382-8"
       inkscape:connector-curvature="0" />
    <path
       style="fill:#333333;fill-opacity:1;stroke:none;stroke-width:1.59687006px;stroke-linecap:butt;stroke-linejoin:miter;stroke-opacity:1"
       d="m 31.177174,1072.9052 6.094614,-0.5718 1.355264,1.1504 z"
       id="path3384-1"
       inkscape:connector-curvature="0" />
    <path
       style="fill:#333333;fill-opacity:1;stroke:none;stroke-width:1.59687006px;stroke-linecap:butt;stroke-linejoin:miter;stroke-opacity:1"
       d="m 37.271788,1072.3334 1.283086,-4.5635 0.07186,5.7139 z"
       id="path3386-0"
       inkscape:connector-curvature="0" />
    <path
       style="fill:#666666;fill-opacity:1;stroke:none;stroke-width:1.59687006px;stroke-linecap:butt;stroke-linejoin:miter;stroke-opacity:1"
       d="m 55.809693,1070.7337 3.665456,-6.8631 1.723821,-2.478 -2.155774,1.6766 z"
       id="path3388-2"
       inkscape:connector-curvature="0"
       sodipodi:nodetypes="ccccc" />
    <path
       style="fill:#333333;fill-opacity:1;stroke:none;stroke-width:1.59687006px;stroke-linecap:butt;stroke-linejoin:miter;stroke-opacity:1"
       d="m 56.528445,1073.009 2.035849,-1.5567 3.113737,-7.1855 -3.686694,6.5935 z"
       id="path3390-2"
       inkscape:connector-curvature="0"
       sodipodi:nodetypes="ccccc" />
    <path
       style="fill:#666666;fill-opacity:1;stroke:none;stroke-width:1.59687006px;stroke-linecap:butt;stroke-linejoin:miter;stroke-opacity:1"
       d="m 65.579983,1070.7278 3.665456,-6.8631 1.723821,-2.478 -2.155775,1.6766 z"
       id="path3388-4-9"
       inkscape:connector-curvature="0"
       sodipodi:nodetypes="ccccc" />
    <path
       style="fill:#333333;fill-opacity:1;stroke:none;stroke-width:1.59687006px;stroke-linecap:butt;stroke-linejoin:miter;stroke-opacity:1"
       d="m 66.298734,1073.0031 2.03585,-1.5568 3.113737,-7.1854 -3.686694,6.5935 z"
       id="path3390-3-7"
       inkscape:connector-curvature="0"
       sodipodi:nodetypes="ccccc" />
    <path
       style="fill:#d35f5f;fill-opacity:1;stroke:none;stroke-width:1.59686852px;stroke-linecap:butt;stroke-linejoin:miter;stroke-opacity:1"
       d="m 100.03962,1056.6429 -2.286552,2.0323 1.181996,0.3296 z"
       id="path3320-9"
       inkscape:connector-curvature="0" />
    <path
       style="fill:#c83737;stroke:none;stroke-width:2.04947519px;stroke-linecap:butt;stroke-linejoin:miter;stroke-opacity:1"
       d="m 12.87289,1014.5741 9.916403,-7.6287 40.697034,43.2129 23.856919,-44.8965 10.371831,5.4704 -28.229788,43.8044 40.537671,40.7783 -10.0028,7.982 -35.598067,-40.9323 -27.131621,41.1083 -13.75544,-6.7867 33.176414,-38.906 z"
       id="path3606"
       inkscape:connector-curvature="0"
       sodipodi:nodetypes="ccccccccccccc" />
    <path
       style="fill:#a02c2c;stroke:none;stroke-width:1.59687006px;stroke-linecap:butt;stroke-linejoin:miter;stroke-opacity:1"
       d="m 23.535032,1096.6862 11.450039,1.7648 2.305401,5.0219 z"
       id="path3612"
       inkscape:connector-curvature="0" />
    <path
       style="fill:#a02c2c;stroke:none;stroke-width:1.59687006px;stroke-linecap:butt;stroke-linejoin:miter;stroke-opacity:1"
       d="m 34.985071,1098.451 29.437022,-36.0864 -27.131621,41.1083 z"
       id="path3614"
       inkscape:connector-curvature="0" />
    <path
       style="fill:#a02c2c;stroke:none;stroke-width:1.59687006px;stroke-linecap:butt;stroke-linejoin:miter;stroke-opacity:1"
       d="m 100.02016,1103.2969 5.9608,-8.4451 4.042,0.4631 z"
       id="path3616"
       inkscape:connector-curvature="0" />
    <path
       style="fill:#d35f5f;fill-opacity:1;stroke:none;stroke-width:1.59686852px;stroke-linecap:butt;stroke-linejoin:miter;stroke-opacity:1"
       d="m 98.935064,1059.0048 -1.351266,2.6343 0.16927,-2.9639 z"
       id="path3322-9"
       inkscape:connector-curvature="0" />
    <path
       style="fill:#a02c2c;stroke:none;stroke-width:1.59687006px;stroke-linecap:butt;stroke-linejoin:miter;stroke-opacity:1"
       d="m 69.485289,1054.5366 28.229788,-43.8044 -28.33598,37.4232 z"
       id="path3618"
       inkscape:connector-curvature="0"
       sodipodi:nodetypes="cccc" />
    <path
       style="fill:#5aa02c;fill-opacity:1;stroke:none;stroke-width:1.59686852px;stroke-linecap:butt;stroke-linejoin:miter;stroke-opacity:1"
       d="m 94.999588,1068.6963 -1.21746,2.4407 1.17498,0.2692 z"
       id="path3324"
       inkscape:connector-curvature="0" />
    <path
       style="fill:#d35f5f;stroke:none;stroke-width:1.59687006px;stroke-linecap:butt;stroke-linejoin:miter;stroke-opacity:1"
       d="m 63.486327,1050.1583 23.547925,-38.824 0.308994,-6.0725 z"
       id="path3620"
       inkscape:connector-curvature="0"
       sodipodi:nodetypes="cccc" />
    <path
       style="fill:#d35f5f;stroke:none;stroke-width:1.59687006px;stroke-linecap:butt;stroke-linejoin:miter;stroke-opacity:1"
       d="m 23.535032,1096.6862 35.508164,-33.617 -2.33175,-5.289 z"
       id="path3622"
       inkscape:connector-curvature="0" />
    <path
       style="fill:#d35f5f;stroke:none;stroke-width:1.59687006px;stroke-linecap:butt;stroke-linejoin:miter;stroke-opacity:1"
       d="m 12.87289,1014.5741 9.569723,-1.7988 0.34668,-5.8299 z"
       id="path3624"
       inkscape:connector-curvature="0" />
    <path
       style="fill:#d35f5f;stroke:none;stroke-width:1.59687006px;stroke-linecap:butt;stroke-linejoin:miter;stroke-opacity:1"
       d="m 87.034252,1011.3342 10.680825,-0.602 -10.371831,-5.4704 z"
       id="path3626"
       inkscape:connector-curvature="0" />
    <path
       style="fill:#00aad4;fill-opacity:1;stroke:none;stroke-width:1.59686852px;stroke-linecap:butt;stroke-linejoin:miter;stroke-opacity:1"
       d="m 86.191098,1059.2787 -0.72386,2.3603 0.68138,0.3495 z"
       id="path3308-9"
       inkscape:connector-curvature="0" />
    <path
       style="fill:#a02c2c;fill-opacity:1;stroke:none;stroke-width:1.59687006px;stroke-linecap:butt;stroke-linejoin:miter;stroke-opacity:1"
       d="m 100.02016,1103.2969 -28.571839,-39.036 -7.026228,-1.8963 35.598067,40.9323"
       id="path3904"
       inkscape:connector-curvature="0" />
    <path
       style="fill:#d35f5f;fill-opacity:1;stroke:none;stroke-width:1.59687006px;stroke-linecap:butt;stroke-linejoin:miter;stroke-opacity:1"
       d="m 63.486327,1050.1583 -40.697034,-43.2129 33.508723,43.2341 z"
       id="path3908"
       inkscape:connector-curvature="0" />
    <path
       style="fill:#5aa02c;fill-opacity:1;stroke:none;stroke-width:1.59686852px;stroke-linecap:butt;stroke-linejoin:miter;stroke-opacity:1"
       d="m 93.782128,1071.137 -0.77272,2.8943 1.9477,-2.6251 z"
       id="path3326"
       inkscape:connector-curvature="0" />
    <path
       style="fill:#00aad4;fill-opacity:1;stroke:none;stroke-width:1.59686852px;stroke-linecap:butt;stroke-linejoin:miter;stroke-opacity:1"
       d="m 86.148618,1061.9885 -1.9477,2.6251 1.26632,-2.9746 z"
       id="path3310-9"
       inkscape:connector-curvature="0" />
    <path
       style="fill:#8dd35f;fill-opacity:1;stroke:none;stroke-width:1.59686852px;stroke-linecap:butt;stroke-linejoin:miter;stroke-opacity:1"
       d="m 89.290938,1068.9913 -1.36245,2.4149 0.16943,-2.9639 z"
       id="path3330"
       inkscape:connector-curvature="0" />
    <path
       style="fill:#55ddff;fill-opacity:1;stroke:none;stroke-width:1.59686852px;stroke-linecap:butt;stroke-linejoin:miter;stroke-opacity:1"
       d="m 80.302328,1059.5682 -1.18232,2.4203 0.16942,-2.9639 z"
       id="path3312-3"
       inkscape:connector-curvature="0"
       sodipodi:nodetypes="cccc" />
    <path
       style="fill:#8dd35f;fill-opacity:1;stroke:none;stroke-width:1.59686852px;stroke-linecap:butt;stroke-linejoin:miter;stroke-opacity:1"
       d="m 90.384318,1066.4099 -2.2864,2.0324 1.19302,0.549 z"
       id="path3328"
       inkscape:connector-curvature="0" />
    <path
       style="fill:#55ddff;fill-opacity:1;stroke:none;stroke-width:1.59686852px;stroke-linecap:butt;stroke-linejoin:miter;stroke-opacity:1"
       d="m 80.302328,1059.5682 -1.0129,-0.5436 2.2864,-2.0323 z"
       id="path3314-2"
       inkscape:connector-curvature="0"
       sodipodi:nodetypes="cccc" />
  </g>
</svg>
