<?xml version="1.0" encoding="UTF-8" standalone="no"?>
<!-- Created with Inkscape (http://www.inkscape.org/) -->

<svg
   xmlns:dc="http://purl.org/dc/elements/1.1/"
   xmlns:cc="http://creativecommons.org/ns#"
   xmlns:rdf="http://www.w3.org/1999/02/22-rdf-syntax-ns#"
   xmlns:svg="http://www.w3.org/2000/svg"
   xmlns="http://www.w3.org/2000/svg"
   xmlns:sodipodi="http://sodipodi.sourceforge.net/DTD/sodipodi-0.dtd"
   xmlns:inkscape="http://www.inkscape.org/namespaces/inkscape"
   width="128"
   height="128"
   viewBox="0 0 128 128.00001"
   version="1.1"
   id="svg6294"
   inkscape:version="0.92.3 (2405546, 2018-03-11)"
   sodipodi:docname="ghost_plus.svg">
  <defs
     id="defs6288" />
  <sodipodi:namedview
     id="base"
     pagecolor="#ffffff"
     bordercolor="#666666"
     borderopacity="1.0"
     inkscape:pageopacity="0.0"
     inkscape:pageshadow="2"
     inkscape:zoom="3.2865946"
     inkscape:cx="56.638941"
     inkscape:cy="52.292507"
     inkscape:document-units="px"
     inkscape:current-layer="layer1"
     showgrid="false"
     units="px"
     inkscape:window-width="1366"
     inkscape:window-height="713"
     inkscape:window-x="0"
     inkscape:window-y="27"
     inkscape:window-maximized="1" />
  <metadata
     id="metadata6291">
    <rdf:RDF>
      <cc:Work
         rdf:about="">
        <dc:format>image/svg+xml</dc:format>
        <dc:type
           rdf:resource="http://purl.org/dc/dcmitype/StillImage" />
        <dc:title />
      </cc:Work>
    </rdf:RDF>
  </metadata>
  <g
     inkscape:label="Layer 1"
     inkscape:groupmode="layer"
     id="layer1"
     transform="translate(0,-994.51965)">
    <path
       sodipodi:type="inkscape:offset"
       inkscape:radius="2.9237554"
       inkscape:original="M 5012.4434 1040.0508 L 5001.1973 1048.8594 L 4995.0117 1062.7305 L 4994.8242 1079.5977 L 4988.8262 1099.4648 L 5003.6348 1097.7793 L 5010.7559 1104.7129 L 5022.9395 1100.4023 L 5034.748 1105.4629 L 5042.2441 1097.5918 L 5053.3027 1097.0293 L 5047.1172 1075.8496 L 5046.7422 1061.793 L 5038.4961 1048.2969 L 5026.5 1040.4258 L 5012.4434 1040.0508 z "
       style="fill:#000000;stroke:none;stroke-width:1px;stroke-linecap:butt;stroke-linejoin:miter;stroke-opacity:1"
       id="path5398-0"
       d="m 5012.5215,1037.1289 a 2.9240478,2.9240478 0 0 0 -1.8809,0.6211 l -11.2461,8.8086 a 2.9240478,2.9240478 0 0 0 -0.8672,1.1094 l -6.1855,13.8711 a 2.9240478,2.9240478 0 0 0 -0.2539,1.1582 l -0.1836,16.4531 -5.877,19.4687 a 2.9240478,2.9240478 0 0 0 3.1289,3.75 l 13.4317,-1.5273 6.1289,5.9668 a 2.9240478,2.9240478 0 0 0 3.0137,0.6602 l 11.1074,-3.9297 10.7578,4.6113 a 2.9240478,2.9240478 0 0 0 3.2695,-0.6719 l 6.6914,-7.0254 9.8946,-0.5039 a 2.9240478,2.9240478 0 0 0 2.6582,-3.7402 l -6.0801,-20.8164 -0.3652,-13.6778 a 2.9240478,2.9240478 0 0 0 -0.4278,-1.4453 l -8.2461,-13.4961 a 2.9240478,2.9240478 0 0 0 -0.8906,-0.9218 l -11.9961,-7.8711 a 2.9240478,2.9240478 0 0 0 -1.5254,-0.4766 z"
       transform="matrix(1.3914753,0,0,1.3914753,-6923.7604,-438.61812)" />
    <path
       style="fill:#cccccc;stroke:none;stroke-width:1.39147532px;stroke-linecap:butt;stroke-linejoin:miter;stroke-opacity:1"
       d="m 18.068634,1091.2612 8.345913,-27.6452 0.260691,-23.4724 8.606472,-19.2995 15.648276,-12.2578 19.560345,0.5216 16.691561,10.9537 11.475262,18.7779 0.52178,19.5605 8.606456,29.4708 -15.387438,0.7823 -10.4321,10.9539 -16.430747,-7.0418 -16.952256,5.9985 -9.910583,-9.6498 z"
       id="path5398"
       inkscape:connector-curvature="0" />
    <path
       style="fill:#f2f2f2;stroke:none;stroke-width:1.39147532px;stroke-linecap:butt;stroke-linejoin:miter;stroke-opacity:1"
       d="m 58.525528,1035.2813 5.532546,-5.9936 5.716863,0.2767 5.071425,4.8869 0.64544,6.9157 -4.979201,7.6532 -6.085892,2e-4 -5.622543,-5.9619 z"
       id="path5400"
       inkscape:connector-curvature="0"
       sodipodi:nodetypes="ccccccccc" />
    <path
       style="fill:#1a1a1a;stroke:none;stroke-width:1.39147532px;stroke-linecap:butt;stroke-linejoin:miter;stroke-opacity:1"
       d="m 61.166499,1039.2959 0.131,2.8037 1.434063,1.7605 3.455794,0.131 1.890731,-1.6955 -0.32606,-3.1299 -1.564671,-2.0211 -2.999388,0.065 z"
       id="path5402"
       inkscape:connector-curvature="0" />
    <path
       style="fill:#f2f2f2;stroke:none;stroke-width:1.39147532px;stroke-linecap:butt;stroke-linejoin:miter;stroke-opacity:1"
       d="m 59.082673,1035.2813 -5.532414,-5.9936 -5.716864,0.2767 -5.071555,4.8869 -0.645439,6.9157 4.97933,7.6532 6.08563,2e-4 5.622805,-5.9619 z"
       id="path5400-4"
       inkscape:connector-curvature="0"
       sodipodi:nodetypes="ccccccccc" />
    <path
       style="fill:#1a1a1a;stroke:none;stroke-width:1.39147532px;stroke-linecap:butt;stroke-linejoin:miter;stroke-opacity:1"
       d="m 56.441703,1039.2959 -0.131001,2.8037 -1.433932,1.7605 -3.455794,0.131 -1.890731,-1.6955 0.326061,-3.1299 1.56467,-2.0211 2.999257,0.065 z"
       id="path5402-8"
       inkscape:connector-curvature="0" />
    <path
       style="fill:#e6e6e6;stroke:none;stroke-width:1.39147532px;stroke-linecap:butt;stroke-linejoin:miter;stroke-opacity:1"
       d="m 59.082673,1035.2813 -1.755931,7.1461 -4.656414,5.3019 -5.574597,1.2909 6.08563,2e-4 5.622805,-5.9619 z"
       id="path5424"
       inkscape:connector-curvature="0" />
    <path
       style="fill:#f9f9f9;stroke:none;stroke-width:1.39147532px;stroke-linecap:butt;stroke-linejoin:miter;stroke-opacity:1"
       d="m 58.804166,1043.0585 1.519475,-7.0396 3.91875,-4.933 5.532546,-1.5215 -5.716863,-0.2767 -5.532546,5.9936 z"
       id="path5422"
       inkscape:connector-curvature="0"
       sodipodi:nodetypes="ccccccc" />
    <path
       style="fill:#f9f9f9;stroke:none;stroke-width:1.39147532px;stroke-linecap:butt;stroke-linejoin:miter;stroke-opacity:1"
       d="m 42.116401,1041.367 2.112776,-5.7235 4.31018,-4.4114 5.010902,-1.9444 -5.716864,0.2767 -5.071555,4.8869 z"
       id="path5422-0"
       inkscape:connector-curvature="0"
       sodipodi:nodetypes="ccccccc" />
    <path
       style="fill:#e6e6e6;stroke:none;stroke-width:1.39147532px;stroke-linecap:butt;stroke-linejoin:miter;stroke-opacity:1"
       d="m 74.846362,1034.4513 -0.83185,6.2846 -4.013075,6.9933 -5.574728,1.2912 6.085892,-2e-4 4.979201,-7.6532 z"
       id="path5424-4"
       inkscape:connector-curvature="0"
       sodipodi:nodetypes="ccccccc" />
    <path
       style="fill:#999999;stroke:none;stroke-width:1.39147532px;stroke-linecap:butt;stroke-linejoin:miter;stroke-opacity:1"
       d="m 18.068634,1091.2612 13.25555,-5.1732 7.348082,2.8259 z"
       id="path5456"
       inkscape:connector-curvature="0" />
    <path
       style="fill:#999999;stroke:none;stroke-width:1.39147532px;stroke-linecap:butt;stroke-linejoin:miter;stroke-opacity:1"
       d="m 48.582849,1098.5637 8.190678,-6.3899 8.761578,0.3914 z"
       id="path5458"
       inkscape:connector-curvature="0" />
    <path
       style="fill:#999999;stroke:none;stroke-width:1.39147532px;stroke-linecap:butt;stroke-linejoin:miter;stroke-opacity:1"
       d="m 81.965852,1099.607 9.47815,-15.5475 0.95395,4.5936 z"
       id="path5462"
       inkscape:connector-curvature="0" />
    <path
       style="fill:#b3b3b3;stroke:none;stroke-width:1.39147532px;stroke-linecap:butt;stroke-linejoin:miter;stroke-opacity:1"
       d="m 91.444002,1084.0595 16.341388,3.8113 -15.387438,0.7823 z"
       id="path5464"
       inkscape:connector-curvature="0" />
    <path
       style="fill:#ececec;stroke:none;stroke-width:1.39147532px;stroke-linecap:butt;stroke-linejoin:miter;stroke-opacity:1"
       d="m 18.068634,1091.2612 16.122103,-29.1591 -2.03863,-21.6978 -5.476869,-0.2607 -0.260691,23.4724 z"
       id="path5466"
       inkscape:connector-curvature="0"
       sodipodi:nodetypes="cccccc" />
    <path
       style="fill:#e6e6e6;stroke:none;stroke-width:1.39147532px;stroke-linecap:butt;stroke-linejoin:miter;stroke-opacity:1"
       d="m 32.152107,1040.4043 6.780981,-16.3001 11.996898,-15.5179 -15.648276,12.2578 -8.606472,19.2995 z"
       id="path5468"
       inkscape:connector-curvature="0"
       sodipodi:nodetypes="ccc" />
    <path
       style="fill:#b3b3b3;stroke:none;stroke-width:1.18779838px;stroke-linecap:butt;stroke-linejoin:miter;stroke-opacity:1"
       d="m 98.657154,1038.8395 -4.28227,19.3145 4.80405,0.246 z"
       id="path5541"
       inkscape:connector-curvature="0"
       sodipodi:nodetypes="cccc" />
    <path
       transform="matrix(0.81539309,0,0,0.81539309,-1207.3381,206.07006)"
       sodipodi:type="inkscape:offset"
       inkscape:radius="4.3552208"
       inkscape:original="M 1600.6309 1047.6465 L 1581.7578 1047.9238 L 1582.8672 1072.3477 L 1560.959 1070.8418 L 1561.0547 1087.1992 L 1582.0352 1086.502 L 1582.3125 1107.3164 L 1601.1855 1107.3164 L 1598.9648 1087.6113 L 1620.3359 1088.168 L 1620.0566 1070.4043 L 1599.5195 1072.0703 L 1600.6309 1047.6465 z "
       style="fill:#000000;stroke:none;stroke-width:0.78498554px;stroke-linecap:butt;stroke-linejoin:miter;stroke-opacity:1"
       id="path4098-3-2"
       d="m 1600.5664,1043.291 -18.873,0.2774 a 4.3556563,4.3556563 0 0 0 -4.2872,4.5527 l 0.8887,19.5469 -17.0371,-1.1719 a 4.3556563,4.3556563 0 0 0 -4.6543,4.3711 l 0.096,16.3574 a 4.3556563,4.3556563 0 0 0 4.5,4.3281 l 16.5391,-0.5488 0.2187,16.3711 a 4.3556563,4.3556563 0 0 0 4.3555,4.2969 h 18.873 a 4.3556563,4.3556563 0 0 0 4.3282,-4.8438 l -1.6602,-14.7324 16.3692,0.4258 a 4.3556563,4.3556563 0 0 0 4.4687,-4.4219 l -0.2793,-17.7637 a 4.3556563,4.3556563 0 0 0 -4.707,-4.2734 l -15.6094,1.2656 0.8867,-19.4843 a 4.3556563,4.3556563 0 0 0 -4.416,-4.5528 z" />
    <path
       style="fill:#71c837;stroke:none;stroke-width:0.64007175px;stroke-linecap:butt;stroke-linejoin:miter;stroke-opacity:1"
       d="m 83.321312,1080.4548 -0.90535,-19.9143 15.388512,-0.2263 -0.90534,19.9144 16.746436,-1.3579 0.22611,14.4831 -17.424896,-0.4525 1.81043,16.0673 H 82.868702 l -0.22624,-16.9725 -17.107357,0.5691 -0.0786,-13.3378 z"
       id="path4098-9"
       inkscape:connector-curvature="0"
       sodipodi:nodetypes="ccccccccccccc" />
    <path
       style="fill:#aade87;stroke:none;stroke-width:0.64007175px;stroke-linecap:butt;stroke-linejoin:miter;stroke-opacity:1"
       d="m 83.321312,1080.4548 1.73379,-16.0791 -2.63914,-3.8352 z"
       id="path4100-6"
       inkscape:connector-curvature="0" />
    <path
       style="fill:#aade87;stroke:none;stroke-width:0.64007175px;stroke-linecap:butt;stroke-linejoin:miter;stroke-opacity:1"
       d="m 85.055102,1064.3757 12.749372,-4.0615 -15.388512,0.2263 z"
       id="path4102-1"
       inkscape:connector-curvature="0" />
    <path
       style="fill:#aade87;stroke:none;stroke-width:0.64007175px;stroke-linecap:butt;stroke-linejoin:miter;stroke-opacity:1"
       d="m 83.321312,1080.4548 -15.468022,3.0431 -2.395869,-4.2705 z"
       id="path4104-0"
       inkscape:connector-curvature="0" />
    <path
       style="fill:#aade87;stroke:none;stroke-width:0.64007175px;stroke-linecap:butt;stroke-linejoin:miter;stroke-opacity:1"
       d="m 67.85329,1083.4979 -2.318185,9.0673 -0.0786,-13.3378 z"
       id="path4106-4"
       inkscape:connector-curvature="0" />
    <path
       style="fill:#aade87;stroke:none;stroke-width:0.64007175px;stroke-linecap:butt;stroke-linejoin:miter;stroke-opacity:1"
       d="m 96.899134,1080.2286 2.60258,3.7339 14.143856,-5.0918 z"
       id="path4110-2"
       inkscape:connector-curvature="0" />
    <path
       style="fill:#aade87;stroke:none;stroke-width:0.64007175px;stroke-linecap:butt;stroke-linejoin:miter;stroke-opacity:1"
       d="m 82.868702,1108.9686 2.60246,-14.8228 -2.8287,-2.1497 z"
       id="path4112-2"
       inkscape:connector-curvature="0" />
    <path
       style="fill:#5aa02c;stroke:none;stroke-width:0.64007175px;stroke-linecap:butt;stroke-linejoin:miter;stroke-opacity:1"
       d="m 82.868702,1108.9686 11.880842,-3.2815 3.50767,3.2815 z"
       id="path4114-2"
       inkscape:connector-curvature="0" />
    <path
       style="fill:#5aa02c;stroke:none;stroke-width:0.64007175px;stroke-linecap:butt;stroke-linejoin:miter;stroke-opacity:1"
       d="m 94.749544,1105.6871 1.69724,-12.7858 1.81043,16.0673 z"
       id="path4116-0"
       inkscape:connector-curvature="0" />
    <path
       style="fill:#5aa02c;stroke:none;stroke-width:0.64007175px;stroke-linecap:butt;stroke-linejoin:miter;stroke-opacity:1"
       d="m 96.446784,1092.9013 13.804166,-2.6024 3.62073,3.0549 z"
       id="path4118-5"
       inkscape:connector-curvature="0" />
    <path
       style="fill:#5aa02c;stroke:none;stroke-width:0.64007175px;stroke-linecap:butt;stroke-linejoin:miter;stroke-opacity:1"
       d="m 110.25095,1090.2989 3.39462,-11.4282 0.22611,14.4831 z"
       id="path4120-5"
       inkscape:connector-curvature="0" />
    <path
       style="fill:#5aa02c;stroke:none;stroke-width:0.64007175px;stroke-linecap:butt;stroke-linejoin:miter;stroke-opacity:1"
       d="m 97.804474,1060.3142 -4.638992,17.1988 3.733652,2.7156 z"
       id="path4122-2"
       inkscape:connector-curvature="0" />
    <path
       style="fill:#5aa02c;stroke:none;stroke-width:0.64007175px;stroke-linecap:butt;stroke-linejoin:miter;stroke-opacity:1"
       d="m 65.535105,1092.5652 15.183877,-3.6241 1.92348,3.055 z"
       id="path4124-9"
       inkscape:connector-curvature="0" />
  </g>
</svg>
