<?xml version="1.0" encoding="UTF-8" standalone="no"?>
<!-- Created with Inkscape (http://www.inkscape.org/) -->

<svg
   xmlns:dc="http://purl.org/dc/elements/1.1/"
   xmlns:cc="http://creativecommons.org/ns#"
   xmlns:rdf="http://www.w3.org/1999/02/22-rdf-syntax-ns#"
   xmlns:svg="http://www.w3.org/2000/svg"
   xmlns="http://www.w3.org/2000/svg"
   xmlns:sodipodi="http://sodipodi.sourceforge.net/DTD/sodipodi-0.dtd"
   xmlns:inkscape="http://www.inkscape.org/namespaces/inkscape"
   width="128"
   height="128"
   viewBox="0 0 128 128.00001"
   version="1.1"
   id="svg6294"
   inkscape:version="0.92.3 (2405546, 2018-03-11)"
   sodipodi:docname="gpcopy.svg">
  <defs
     id="defs6288" />
  <sodipodi:namedview
     id="base"
     pagecolor="#ffffff"
     bordercolor="#666666"
     borderopacity="1.0"
     inkscape:pageopacity="0.0"
     inkscape:pageshadow="2"
     inkscape:zoom="2.1832557"
     inkscape:cx="15.209465"
     inkscape:cy="55.898017"
     inkscape:document-units="px"
     inkscape:current-layer="layer1"
     showgrid="false"
     units="px"
     inkscape:window-width="1366"
     inkscape:window-height="713"
     inkscape:window-x="0"
     inkscape:window-y="27"
     inkscape:window-maximized="1" />
  <metadata
     id="metadata6291">
    <rdf:RDF>
      <cc:Work
         rdf:about="">
        <dc:format>image/svg+xml</dc:format>
        <dc:type
           rdf:resource="http://purl.org/dc/dcmitype/StillImage" />
        <dc:title></dc:title>
      </cc:Work>
    </rdf:RDF>
  </metadata>
  <g
     inkscape:label="Layer 1"
     inkscape:groupmode="layer"
     id="layer1"
     transform="translate(0,-994.51965)">
    <path
       transform="matrix(5.5804829,0,0,5.5804804,79.543378,-112.41949)"
       d="m -5.0957031,200.15234 a 0.86905795,0.86905795 0 0 0 -0.5175781,0.20508 l -0.9746094,0.82617 a 0.86905795,0.86905795 0 0 0 -0.3046875,0.59766 l -0.5917969,0.18555 a 0.86905795,0.86905795 0 0 0 -0.4804688,0.375 l -0.8261718,1.34961 a 0.86905795,0.86905795 0 0 0 -0.1191406,0.58398 0.86905795,0.86905795 0 0 0 -0.6953126,0.0566 l -0.6074222,0.32813 a 0.86905795,0.86905795 0 0 0 -0.457031,0.76953 l 0.03125,4.48437 a 0.86905795,0.86905795 0 0 0 0.628906,0.83008 l 1.384766,0.39648 0.3183594,1.1211 a 0.86905795,0.86905795 0 0 0 0.6074218,0.59961 l 0.5996094,0.16211 -0.890625,0.5625 a 0.86905795,0.86905795 0 0 0 0.1757813,1.55273 l 2.3007812,0.81445 a 0.86905795,0.86905795 0 0 0 0.6308594,-0.0195 l 2.0742187,-0.88867 a 0.86905795,0.86905795 0 0 0 0.109375,-1.54297 l -0.7929687,-0.47851 -0.033203,-0.0918 1.0429687,-0.4668 A 0.86905795,0.86905795 0 0 0 -2,211.91211 l 0.2871094,-0.99805 1.52929685,-0.5957 a 0.86905795,0.86905795 0 0 0 0.5546875,-0.79297 l 0.0898438,-4.34961 a 0.86905795,0.86905795 0 0 0 -0.265625,-0.64258 l -0.64648438,-0.62304 a 0.86905795,0.86905795 0 0 0 -1.08789062,-0.0957 l -0.097656,-0.84375 a 0.86905795,0.86905795 0 0 0 -0.4453124,-0.66211 l -1.078125,-0.59179 a 0.86905795,0.86905795 0 0 0 -0.4121094,-0.81446 l -1.0253906,-0.625 a 0.86905795,0.86905795 0 0 0 -0.4980469,-0.125 z"
       id="path6033-9-0-9-7"
       style="fill:#000000;fill-opacity:1;stroke:none;stroke-width:0.26458332px;stroke-linecap:butt;stroke-linejoin:miter;stroke-opacity:1"
       inkscape:original="M -5.0507812 201.01953 L -6.0253906 201.8457 L -5.5507812 202.26953 L -7.2246094 202.79492 L -8.0507812 204.14453 L -2.375 204.14453 L -2.5 203.07031 L -4.2753906 202.0957 L -4.0253906 201.64453 L -5.0507812 201.01953 z M -1.0546875 204.53516 L -2.109375 205.2832 L -2.3496094 204.64453 L -5.2011719 204.5957 L -8.0507812 204.64453 L -8.3320312 205.58398 L -9.1933594 205.0957 L -9.8007812 205.42383 L -9.7695312 209.9082 L -7.921875 210.43945 L -7.4707031 212.02344 L -5.8261719 212.4707 L -6.4003906 213.60938 L -7.5253906 214.32031 L -5.2246094 215.13477 L -3.1503906 214.24609 L -4.2011719 213.60938 L -4.625 212.4707 L -2.8359375 211.67188 L -2.4296875 210.25977 L -0.49804688 209.50781 L -0.40820312 205.1582 L -1.0546875 204.53516 z M -1.9375 205.76953 L -1.2050781 205.97266 L -1.0996094 208.87109 L -2.4648438 209.37109 L -2.25 208.3457 L -1.59375 206.64648 L -1.9375 205.76953 z M -8.4921875 206.13477 L -8.6035156 206.49023 L -8.1503906 208.3457 L -7.9824219 209.57617 L -9.1679688 209.27148 L -9.0625 206.37305 L -8.4921875 206.13477 z "
       inkscape:radius="0.86897105"
       sodipodi:type="inkscape:offset" />
    <path
       sodipodi:nodetypes="ccccccccccccccccccccccccccccccccccccccccccccccc"
       inkscape:connector-curvature="0"
       id="path6033-6-6-1"
       d="m 51.361326,1009.3695 -5.441695,4.6026 2.650228,2.3734 -9.346418,2.9299 -4.605396,7.5324 h 31.66985 l -0.695,-5.9983 -9.908757,-5.4417 1.395794,-2.5118 z m 22.300388,19.6128 -5.891588,4.1728 -1.340932,-3.5558 -15.906996,0.2137 -15.904153,-0.2137 -1.568791,5.2399 -4.813056,-2.7223 -3.382659,1.8255 0.175779,25.0255 10.305638,2.9662 2.515917,8.8375 9.18469,2.4971 -3.209677,6.35 -6.278041,3.9738 12.83868,4.545 11.57839,-4.963 -5.862735,-3.5558 -2.367583,-6.35 9.983268,-4.4613 2.265779,-7.8753 10.780944,-4.1992 0.4961,-24.2757 z m -4.928392,6.8922 4.086359,1.1275 0.591146,16.1811 -7.626342,2.7922 1.201253,-5.728 3.659571,-9.4791 z m -36.575153,2.0388 -0.622905,1.987 2.526237,10.347 0.936284,6.8657 -6.614477,-1.6951 0.591131,-16.1809 z"
       style="fill:#ffe680;stroke:none;stroke-width:1.4765023px;stroke-linecap:butt;stroke-linejoin:miter;stroke-opacity:1" />
    <path
       sodipodi:nodetypes="ccccc"
       inkscape:connector-curvature="0"
       id="path6090-4-0-38"
       d="m 65.983751,1060.9321 -5.095533,5.3329 -9.155501,7.9404 11.985255,-5.398 z"
       style="fill:#947600;fill-opacity:1;stroke:none;stroke-width:1.4765023px;stroke-linecap:butt;stroke-linejoin:miter;stroke-opacity:1" />
    <path
       inkscape:connector-curvature="0"
       id="path6092-6-2-0"
       d="m 34.618045,1026.8078 27.017115,-3.1775 4.652735,3.1775 z"
       style="fill:#ffd42a;fill-opacity:1;stroke:none;stroke-width:1.4765023px;stroke-linecap:butt;stroke-linejoin:miter;stroke-opacity:1"
       sodipodi:nodetypes="cccc" />
    <path
       inkscape:connector-curvature="0"
       id="path6094-2-7-97"
       d="m 61.63516,1023.6303 3.957735,-2.8208 0.695,5.9983 z"
       style="fill:#ffd42a;fill-opacity:1;stroke:none;stroke-width:1.4765023px;stroke-linecap:butt;stroke-linejoin:miter;stroke-opacity:1"
       sodipodi:nodetypes="cccc" />
    <path
       inkscape:connector-curvature="0"
       id="path6096-5-6-9"
       d="m 66.691534,1060.6285 7.673544,-4.9529 2.399617,1.0573 z"
       style="fill:#947600;fill-opacity:1;stroke:none;stroke-width:1.4765023px;stroke-linecap:butt;stroke-linejoin:miter;stroke-opacity:1"
       sodipodi:nodetypes="cccc" />
    <path
       inkscape:connector-curvature="0"
       id="path6098-8-1-9"
       d="m 56.102287,1079.6187 -5.71564,8.5188 11.578375,-4.963 z"
       style="fill:#ffd42a;fill-opacity:1;stroke:none;stroke-width:1.4765023px;stroke-linecap:butt;stroke-linejoin:miter;stroke-opacity:1" />
    <path
       inkscape:connector-curvature="0"
       id="path6102-6-3-3"
       d="m 57.079932,1012.856 -2.397598,4.2246 -0.539083,-2.865 z"
       style="fill:#947600;fill-opacity:1;stroke:none;stroke-width:1.4765023px;stroke-linecap:butt;stroke-linejoin:miter;stroke-opacity:1"
       sodipodi:nodetypes="cccc" />
    <path
       inkscape:connector-curvature="0"
       id="path6104-2-2-2"
       d="m 28.383308,1055.4179 -0.92977,-17.2251 1.520901,1.0442 z"
       style="fill:#947600;fill-opacity:1;stroke:none;stroke-width:1.4765023px;stroke-linecap:butt;stroke-linejoin:miter;stroke-opacity:1" />
    <path
       inkscape:connector-curvature="0"
       id="path6106-8-1-43"
       d="m 27.453538,1038.1928 4.704631,-0.2796 -3.18373,1.3238 z"
       style="fill:#947600;fill-opacity:1;stroke:none;stroke-width:1.4765023px;stroke-linecap:butt;stroke-linejoin:miter;stroke-opacity:1" />
    <path
       inkscape:connector-curvature="0"
       id="path6108-4-5-71"
       d="m 48.569859,1016.3455 0.463746,-2.1844 -3.113577,-0.1892 z"
       style="fill:#fff6d5;fill-opacity:1;stroke:none;stroke-width:1.4765023px;stroke-linecap:butt;stroke-linejoin:miter;stroke-opacity:1"
       sodipodi:nodetypes="cccc" />
    <path
       inkscape:connector-curvature="0"
       id="path6110-7-9-22"
       d="m 49.033437,1014.1611 2.327889,-4.7916 -5.441695,4.6024 z"
       style="fill:#fff6d5;fill-opacity:1;stroke:none;stroke-width:1.4765023px;stroke-linecap:butt;stroke-linejoin:miter;stroke-opacity:1"
       sodipodi:nodetypes="cccc" />
    <path
       sodipodi:nodetypes="ccccc"
       inkscape:connector-curvature="0"
       id="path6112-2-9-0"
       d="m 32.579101,1036.701 2.038944,-7.1017 h 31.811149 l -27.533826,3.4833 z"
       style="fill:#fff6d5;fill-opacity:1;stroke:none;stroke-width:1.4765023px;stroke-linecap:butt;stroke-linejoin:miter;stroke-opacity:1" />
    <path
       inkscape:connector-curvature="0"
       id="path6114-4-1-2"
       d="m 28.236198,1032.1169 -1.719846,3.0669 -1.662813,-1.2414 z"
       style="fill:#fff6d5;fill-opacity:1;stroke:none;stroke-width:1.4765023px;stroke-linecap:butt;stroke-linejoin:miter;stroke-opacity:1" />
    <path
       inkscape:connector-curvature="0"
       id="path6116-0-4-1"
       d="m 26.516352,1035.1838 -1.486926,23.7841 -0.17578,-25.0255 z"
       style="fill:#fff6d5;fill-opacity:1;stroke:none;stroke-width:1.4765023px;stroke-linecap:butt;stroke-linejoin:miter;stroke-opacity:1" />
    <path
       inkscape:connector-curvature="0"
       id="path6118-6-9-7"
       d="m 74.365078,1055.6756 2.89561,-23.2184 -0.4961,24.2757 z"
       style="fill:#947600;fill-opacity:1;stroke:none;stroke-width:1.4765023px;stroke-linecap:butt;stroke-linejoin:miter;stroke-opacity:1" />
    <path
       inkscape:connector-curvature="0"
       id="path6120-2-1-51"
       d="m 67.770126,1033.1551 5.897337,-1.8954 -0.0061,-2.2774 z"
       style="fill:#ffeeaa;fill-opacity:1;stroke:none;stroke-width:1.4765023px;stroke-linecap:butt;stroke-linejoin:miter;stroke-opacity:1" />
    <path
       inkscape:connector-curvature="0"
       id="path6122-9-0-74"
       d="m 65.337039,1058.0225 1.648699,-7.7752 -3.318882,1.0295 z"
       style="fill:#947600;fill-opacity:1;stroke:none;stroke-width:1.4765023px;stroke-linecap:butt;stroke-linejoin:miter;stroke-opacity:1"
       sodipodi:nodetypes="cccc" />
    <path
       inkscape:connector-curvature="0"
       id="path6124-9-7-1"
       d="m 63.666856,1051.2768 6.978453,-10.5086 -3.659571,9.4791 z"
       style="fill:#947600;fill-opacity:1;stroke:none;stroke-width:1.4765023px;stroke-linecap:butt;stroke-linejoin:miter;stroke-opacity:1"
       sodipodi:nodetypes="cccc" />
    <path
       transform="matrix(5.5804829,0,0,5.5804804,106.23404,-92.881225)"
       d="m -5.0957031,200.15234 a 0.86905795,0.86905795 0 0 0 -0.5175781,0.20508 l -0.9746094,0.82617 a 0.86905795,0.86905795 0 0 0 -0.3046875,0.59766 l -0.5917969,0.18555 a 0.86905795,0.86905795 0 0 0 -0.4804688,0.375 l -0.8261718,1.34961 a 0.86905795,0.86905795 0 0 0 -0.1191406,0.58398 0.86905795,0.86905795 0 0 0 -0.6953126,0.0566 l -0.6074222,0.32813 a 0.86905795,0.86905795 0 0 0 -0.457031,0.76953 l 0.03125,4.48437 a 0.86905795,0.86905795 0 0 0 0.628906,0.83008 l 1.384766,0.39648 0.3183594,1.1211 a 0.86905795,0.86905795 0 0 0 0.6074218,0.59961 l 0.5996094,0.16211 -0.890625,0.5625 a 0.86905795,0.86905795 0 0 0 0.1757813,1.55273 l 2.3007812,0.81445 a 0.86905795,0.86905795 0 0 0 0.6308594,-0.0195 l 2.0742187,-0.88867 a 0.86905795,0.86905795 0 0 0 0.109375,-1.54297 l -0.7929687,-0.47851 -0.033203,-0.0918 1.0429687,-0.4668 A 0.86905795,0.86905795 0 0 0 -2,211.91211 l 0.2871094,-0.99805 1.52929685,-0.5957 a 0.86905795,0.86905795 0 0 0 0.5546875,-0.79297 l 0.0898438,-4.34961 a 0.86905795,0.86905795 0 0 0 -0.265625,-0.64258 l -0.64648438,-0.62304 a 0.86905795,0.86905795 0 0 0 -1.08789062,-0.0957 l -0.097656,-0.84375 a 0.86905795,0.86905795 0 0 0 -0.4453124,-0.66211 l -1.078125,-0.59179 a 0.86905795,0.86905795 0 0 0 -0.4121094,-0.81446 l -1.0253906,-0.625 a 0.86905795,0.86905795 0 0 0 -0.4980469,-0.125 z"
       id="path6033-9-0-9-60"
       style="fill:#000000;fill-opacity:1;stroke:none;stroke-width:0.26458332px;stroke-linecap:butt;stroke-linejoin:miter;stroke-opacity:1"
       inkscape:original="M -5.0507812 201.01953 L -6.0253906 201.8457 L -5.5507812 202.26953 L -7.2246094 202.79492 L -8.0507812 204.14453 L -2.375 204.14453 L -2.5 203.07031 L -4.2753906 202.0957 L -4.0253906 201.64453 L -5.0507812 201.01953 z M -1.0546875 204.53516 L -2.109375 205.2832 L -2.3496094 204.64453 L -5.2011719 204.5957 L -8.0507812 204.64453 L -8.3320312 205.58398 L -9.1933594 205.0957 L -9.8007812 205.42383 L -9.7695312 209.9082 L -7.921875 210.43945 L -7.4707031 212.02344 L -5.8261719 212.4707 L -6.4003906 213.60938 L -7.5253906 214.32031 L -5.2246094 215.13477 L -3.1503906 214.24609 L -4.2011719 213.60938 L -4.625 212.4707 L -2.8359375 211.67188 L -2.4296875 210.25977 L -0.49804688 209.50781 L -0.40820312 205.1582 L -1.0546875 204.53516 z M -1.9375 205.76953 L -1.2050781 205.97266 L -1.0996094 208.87109 L -2.4648438 209.37109 L -2.25 208.3457 L -1.59375 206.64648 L -1.9375 205.76953 z M -8.4921875 206.13477 L -8.6035156 206.49023 L -8.1503906 208.3457 L -7.9824219 209.57617 L -9.1679688 209.27148 L -9.0625 206.37305 L -8.4921875 206.13477 z "
       inkscape:radius="0.86897105"
       sodipodi:type="inkscape:offset" />
    <path
       sodipodi:nodetypes="ccccccccccccccccccccccccccccccccccccccccccccccc"
       inkscape:connector-curvature="0"
       id="path6033-6-6-97"
       d="m 78.051988,1028.9078 -5.441695,4.6026 2.650228,2.3734 -9.346418,2.93 -4.605396,7.5324 h 31.669849 l -0.694999,-5.9983 -9.908758,-5.4418 1.395795,-2.5117 z m 22.300392,19.6129 -5.891594,4.1728 -1.34093,-3.5559 -15.906996,0.2138 -15.904153,-0.2138 -1.568791,5.2399 -4.813056,-2.7223 -3.38266,1.8256 0.17578,25.0255 10.305638,2.9662 2.515917,8.8374 9.18469,2.4971 -3.209678,6.35 -6.27804,3.9739 12.83868,4.5449 11.57839,-4.963 -5.862735,-3.5558 -2.367583,-6.35 9.983268,-4.4613 2.265779,-7.8752 10.780944,-4.1992 0.4961,-24.2757 z m -4.928394,6.8922 4.08636,1.1275 0.591144,16.181 -7.626343,2.7922 1.201249,-5.728 3.65957,-9.479 z m -36.575156,2.0388 -0.622904,1.987 2.526237,10.3469 0.936284,6.8658 -6.614477,-1.6951 0.591131,-16.1809 z"
       style="fill:#ffd42a;stroke:none;stroke-width:1.4765023px;stroke-linecap:butt;stroke-linejoin:miter;stroke-opacity:1" />
    <path
       sodipodi:nodetypes="ccccc"
       inkscape:connector-curvature="0"
       id="path6090-4-0-5"
       d="m 92.674413,1080.4705 -5.095533,5.3329 -9.155501,7.9403 11.985255,-5.398 z"
       style="fill:#947600;fill-opacity:1;stroke:none;stroke-width:1.4765023px;stroke-linecap:butt;stroke-linejoin:miter;stroke-opacity:1" />
    <path
       inkscape:connector-curvature="0"
       id="path6092-6-2-9"
       d="m 61.308707,1046.3462 27.017114,-3.1775 4.652735,3.1775 z"
       style="fill:#947600;fill-opacity:1;stroke:none;stroke-width:1.4765023px;stroke-linecap:butt;stroke-linejoin:miter;stroke-opacity:1"
       sodipodi:nodetypes="cccc" />
    <path
       inkscape:connector-curvature="0"
       id="path6094-2-7-7"
       d="m 88.325821,1043.1687 3.957736,-2.8208 0.694999,5.9983 z"
       style="fill:#947600;fill-opacity:1;stroke:none;stroke-width:1.4765023px;stroke-linecap:butt;stroke-linejoin:miter;stroke-opacity:1"
       sodipodi:nodetypes="cccc" />
    <path
       inkscape:connector-curvature="0"
       id="path6096-5-6-85"
       d="m 93.382195,1080.1668 7.673545,-4.9529 2.39962,1.0574 z"
       style="fill:#947600;fill-opacity:1;stroke:none;stroke-width:1.4765023px;stroke-linecap:butt;stroke-linejoin:miter;stroke-opacity:1"
       sodipodi:nodetypes="cccc" />
    <path
       inkscape:connector-curvature="0"
       id="path6098-8-1-33"
       d="m 82.792949,1099.157 -5.71564,8.5188 11.578375,-4.963 z"
       style="fill:#947600;fill-opacity:1;stroke:none;stroke-width:1.4765023px;stroke-linecap:butt;stroke-linejoin:miter;stroke-opacity:1" />
    <path
       inkscape:connector-curvature="0"
       id="path6102-6-3-83"
       d="m 83.770594,1032.3944 -2.397599,4.2246 -0.539082,-2.865 z"
       style="fill:#947600;fill-opacity:1;stroke:none;stroke-width:1.4765023px;stroke-linecap:butt;stroke-linejoin:miter;stroke-opacity:1"
       sodipodi:nodetypes="cccc" />
    <path
       inkscape:connector-curvature="0"
       id="path6104-2-2-7"
       d="m 55.07397,1074.9563 -0.929771,-17.2251 1.520902,1.0442 z"
       style="fill:#947600;fill-opacity:1;stroke:none;stroke-width:1.4765023px;stroke-linecap:butt;stroke-linejoin:miter;stroke-opacity:1" />
    <path
       inkscape:connector-curvature="0"
       id="path6106-8-1-93"
       d="m 54.144199,1057.7312 4.704631,-0.2796 -3.183729,1.3238 z"
       style="fill:#947600;fill-opacity:1;stroke:none;stroke-width:1.4765023px;stroke-linecap:butt;stroke-linejoin:miter;stroke-opacity:1" />
    <path
       inkscape:connector-curvature="0"
       id="path6108-4-5-78"
       d="m 75.260521,1035.8838 0.463746,-2.1844 -3.113577,-0.1891 z"
       style="fill:#ffeeaa;fill-opacity:1;stroke:none;stroke-width:1.4765023px;stroke-linecap:butt;stroke-linejoin:miter;stroke-opacity:1"
       sodipodi:nodetypes="cccc" />
    <path
       inkscape:connector-curvature="0"
       id="path6110-7-9-7"
       d="m 75.724099,1033.6994 2.327889,-4.7916 -5.441695,4.6025 z"
       style="fill:#ffeeaa;fill-opacity:1;stroke:none;stroke-width:1.4765023px;stroke-linecap:butt;stroke-linejoin:miter;stroke-opacity:1"
       sodipodi:nodetypes="cccc" />
    <path
       sodipodi:nodetypes="ccccc"
       inkscape:connector-curvature="0"
       id="path6112-2-9-41"
       d="m 59.269763,1056.2393 2.038944,-7.1017 h 31.811149 l -27.533826,3.4834 z"
       style="fill:#ffeeaa;fill-opacity:1;stroke:none;stroke-width:1.4765023px;stroke-linecap:butt;stroke-linejoin:miter;stroke-opacity:1" />
    <path
       inkscape:connector-curvature="0"
       id="path6114-4-1-90"
       d="m 54.92686,1051.6552 -1.719847,3.067 -1.662813,-1.2414 z"
       style="fill:#ffeeaa;fill-opacity:1;stroke:none;stroke-width:1.4765023px;stroke-linecap:butt;stroke-linejoin:miter;stroke-opacity:1" />
    <path
       inkscape:connector-curvature="0"
       id="path6116-0-4-98"
       d="m 53.207013,1054.7222 -1.486926,23.7841 -0.175779,-25.0255 z"
       style="fill:#ffeeaa;fill-opacity:1;stroke:none;stroke-width:1.4765023px;stroke-linecap:butt;stroke-linejoin:miter;stroke-opacity:1" />
    <path
       inkscape:connector-curvature="0"
       id="path6118-6-9-8"
       d="m 101.05574,1075.2139 2.89561,-23.2183 -0.4961,24.2757 z"
       style="fill:#947600;fill-opacity:1;stroke:none;stroke-width:1.4765023px;stroke-linecap:butt;stroke-linejoin:miter;stroke-opacity:1" />
    <path
       inkscape:connector-curvature="0"
       id="path6120-2-1-58"
       d="m 94.460786,1052.6935 5.897344,-1.8955 -0.006,-2.2773 z"
       style="fill:#ffeeaa;fill-opacity:1;stroke:none;stroke-width:1.4765023px;stroke-linecap:butt;stroke-linejoin:miter;stroke-opacity:1" />
    <path
       inkscape:connector-curvature="0"
       id="path6122-9-0-4"
       d="m 92.027701,1077.5609 1.648695,-7.7753 -3.318878,1.0296 z"
       style="fill:#947600;fill-opacity:1;stroke:none;stroke-width:1.4765023px;stroke-linecap:butt;stroke-linejoin:miter;stroke-opacity:1"
       sodipodi:nodetypes="cccc" />
    <path
       inkscape:connector-curvature="0"
       id="path6124-9-7-3"
       d="m 90.357518,1070.8152 6.978448,-10.5086 -3.65957,9.479 z"
       style="fill:#947600;fill-opacity:1;stroke:none;stroke-width:1.4765023px;stroke-linecap:butt;stroke-linejoin:miter;stroke-opacity:1"
       sodipodi:nodetypes="cccc" />
  </g>
</svg>
