<?xml version="1.0" encoding="UTF-8" standalone="no"?>
<!-- Created with Inkscape (http://www.inkscape.org/) -->

<svg
   xmlns:dc="http://purl.org/dc/elements/1.1/"
   xmlns:cc="http://creativecommons.org/ns#"
   xmlns:rdf="http://www.w3.org/1999/02/22-rdf-syntax-ns#"
   xmlns:svg="http://www.w3.org/2000/svg"
   xmlns="http://www.w3.org/2000/svg"
   xmlns:sodipodi="http://sodipodi.sourceforge.net/DTD/sodipodi-0.dtd"
   xmlns:inkscape="http://www.inkscape.org/namespaces/inkscape"
   width="128"
   height="128"
   viewBox="0 0 128 128.00001"
   version="1.1"
   id="svg6294"
   inkscape:version="0.92.3 (2405546, 2018-03-11)"
   sodipodi:docname="gp_edit.svg">
  <defs
     id="defs6288" />
  <sodipodi:namedview
     id="base"
     pagecolor="#ffffff"
     bordercolor="#666666"
     borderopacity="1.0"
     inkscape:pageopacity="0.0"
     inkscape:pageshadow="2"
     inkscape:zoom="2.1832557"
     inkscape:cx="15.209465"
     inkscape:cy="55.898017"
     inkscape:document-units="px"
     inkscape:current-layer="layer1"
     showgrid="false"
     units="px"
     inkscape:window-width="1366"
     inkscape:window-height="713"
     inkscape:window-x="0"
     inkscape:window-y="27"
     inkscape:window-maximized="1" />
  <metadata
     id="metadata6291">
    <rdf:RDF>
      <cc:Work
         rdf:about="">
        <dc:format>image/svg+xml</dc:format>
        <dc:type
           rdf:resource="http://purl.org/dc/dcmitype/StillImage" />
        <dc:title></dc:title>
      </cc:Work>
    </rdf:RDF>
  </metadata>
  <g
     inkscape:label="Layer 1"
     inkscape:groupmode="layer"
     id="layer1"
     transform="translate(0,-994.51965)">
    <path
       transform="matrix(6.7844329,0,0,6.7844299,96.389444,-353.39126)"
       d="m -5.0957031,200.15234 a 0.86905795,0.86905795 0 0 0 -0.5175781,0.20508 l -0.9746094,0.82617 a 0.86905795,0.86905795 0 0 0 -0.3046875,0.59766 l -0.5917969,0.18555 a 0.86905795,0.86905795 0 0 0 -0.4804688,0.375 l -0.8261718,1.34961 a 0.86905795,0.86905795 0 0 0 -0.1191406,0.58398 0.86905795,0.86905795 0 0 0 -0.6953126,0.0566 l -0.6074222,0.32813 a 0.86905795,0.86905795 0 0 0 -0.457031,0.76953 l 0.03125,4.48437 a 0.86905795,0.86905795 0 0 0 0.628906,0.83008 l 1.384766,0.39648 0.3183594,1.1211 a 0.86905795,0.86905795 0 0 0 0.6074218,0.59961 l 0.5996094,0.16211 -0.890625,0.5625 a 0.86905795,0.86905795 0 0 0 0.1757813,1.55273 l 2.3007812,0.81445 a 0.86905795,0.86905795 0 0 0 0.6308594,-0.0195 l 2.0742187,-0.88867 a 0.86905795,0.86905795 0 0 0 0.109375,-1.54297 l -0.7929687,-0.47851 -0.033203,-0.0918 1.0429687,-0.4668 A 0.86905795,0.86905795 0 0 0 -2,211.91211 l 0.2871094,-0.99805 1.52929685,-0.5957 a 0.86905795,0.86905795 0 0 0 0.5546875,-0.79297 l 0.0898438,-4.34961 a 0.86905795,0.86905795 0 0 0 -0.265625,-0.64258 l -0.64648438,-0.62304 a 0.86905795,0.86905795 0 0 0 -1.08789062,-0.0957 l -0.097656,-0.84375 a 0.86905795,0.86905795 0 0 0 -0.4453124,-0.66211 l -1.078125,-0.59179 a 0.86905795,0.86905795 0 0 0 -0.4121094,-0.81446 l -1.0253906,-0.625 a 0.86905795,0.86905795 0 0 0 -0.4980469,-0.125 z"
       id="path6033-9-0-9-79"
       style="fill:#000000;fill-opacity:1;stroke:none;stroke-width:0.26458332px;stroke-linecap:butt;stroke-linejoin:miter;stroke-opacity:1"
       inkscape:original="M -5.0507812 201.01953 L -6.0253906 201.8457 L -5.5507812 202.26953 L -7.2246094 202.79492 L -8.0507812 204.14453 L -2.375 204.14453 L -2.5 203.07031 L -4.2753906 202.0957 L -4.0253906 201.64453 L -5.0507812 201.01953 z M -1.0546875 204.53516 L -2.109375 205.2832 L -2.3496094 204.64453 L -5.2011719 204.5957 L -8.0507812 204.64453 L -8.3320312 205.58398 L -9.1933594 205.0957 L -9.8007812 205.42383 L -9.7695312 209.9082 L -7.921875 210.43945 L -7.4707031 212.02344 L -5.8261719 212.4707 L -6.4003906 213.60938 L -7.5253906 214.32031 L -5.2246094 215.13477 L -3.1503906 214.24609 L -4.2011719 213.60938 L -4.625 212.4707 L -2.8359375 211.67188 L -2.4296875 210.25977 L -0.49804688 209.50781 L -0.40820312 205.1582 L -1.0546875 204.53516 z M -1.9375 205.76953 L -1.2050781 205.97266 L -1.0996094 208.87109 L -2.4648438 209.37109 L -2.25 208.3457 L -1.59375 206.64648 L -1.9375 205.76953 z M -8.4921875 206.13477 L -8.6035156 206.49023 L -8.1503906 208.3457 L -7.9824219 209.57617 L -9.1679688 209.27148 L -9.0625 206.37305 L -8.4921875 206.13477 z "
       inkscape:radius="0.86897105"
       sodipodi:type="inkscape:offset" />
    <path
       sodipodi:nodetypes="ccccccccccccccccccccccccccccccccccccccccccccccc"
       inkscape:connector-curvature="0"
       id="path6033-6-6-7"
       d="m 62.127312,1010.4159 -6.615703,5.5956 3.221997,2.8854 -11.362843,3.5621 -5.598977,9.1575 h 38.502397 l -0.844941,-7.2924 -12.046502,-6.6158 1.696927,-3.0536 z m 27.111542,23.8442 -7.162658,5.073 -1.630229,-4.3229 -19.338819,0.2599 -19.335362,-0.2599 -1.907247,6.3704 -5.851439,-3.3097 -4.112445,2.2194 0.213703,30.4246 12.529007,3.6062 3.058708,10.744 11.166223,3.0359 -3.902143,7.7199 -7.632483,4.8312 15.608534,5.5255 14.076346,-6.0337 -7.127578,-4.323 -2.878373,-7.7199 12.137088,-5.4238 2.754605,-9.5743 13.106852,-5.1052 0.60314,-29.513 z m -5.99166,8.3792 4.96796,1.3707 0.71868,19.672 -9.271668,3.3946 1.460415,-6.9637 4.449093,-11.5241 z m -44.465986,2.4787 -0.757292,2.4156 3.071255,12.5793 1.138281,8.3469 -8.041504,-2.0608 0.718663,-19.6718 z"
       style="fill:#ffd42a;stroke:none;stroke-width:1.79504728px;stroke-linecap:butt;stroke-linejoin:miter;stroke-opacity:1" />
    <path
       sodipodi:nodetypes="ccccc"
       inkscape:connector-curvature="0"
       id="path6090-4-0-4"
       d="m 79.904422,1073.1029 -6.194858,6.4834 -11.130736,9.6534 14.57099,-6.5625 z"
       style="fill:#947600;fill-opacity:1;stroke:none;stroke-width:1.79504728px;stroke-linecap:butt;stroke-linejoin:miter;stroke-opacity:1" />
    <path
       inkscape:connector-curvature="0"
       id="path6092-6-2-91"
       d="m 41.771786,1031.6165 32.845867,-3.863 5.65653,3.863 z"
       style="fill:#947600;fill-opacity:1;stroke:none;stroke-width:1.79504728px;stroke-linecap:butt;stroke-linejoin:miter;stroke-opacity:1"
       sodipodi:nodetypes="cccc" />
    <path
       inkscape:connector-curvature="0"
       id="path6094-2-7-70"
       d="m 74.617653,1027.7535 4.811589,-3.4294 0.844941,7.2924 z"
       style="fill:#947600;fill-opacity:1;stroke:none;stroke-width:1.79504728px;stroke-linecap:butt;stroke-linejoin:miter;stroke-opacity:1"
       sodipodi:nodetypes="cccc" />
    <path
       inkscape:connector-curvature="0"
       id="path6096-5-6-6"
       d="m 80.764904,1072.7337 9.32906,-6.0214 2.91731,1.2854 z"
       style="fill:#947600;fill-opacity:1;stroke:none;stroke-width:1.79504728px;stroke-linecap:butt;stroke-linejoin:miter;stroke-opacity:1"
       sodipodi:nodetypes="cccc" />
    <path
       inkscape:connector-curvature="0"
       id="path6098-8-1-0"
       d="m 67.891102,1095.8209 -6.948749,10.3567 14.076327,-6.0337 z"
       style="fill:#947600;fill-opacity:1;stroke:none;stroke-width:1.79504728px;stroke-linecap:butt;stroke-linejoin:miter;stroke-opacity:1" />
    <path
       inkscape:connector-curvature="0"
       id="path6102-6-3-85"
       d="m 69.079667,1014.6547 -2.914863,5.136 -0.655386,-3.4831 z"
       style="fill:#947600;fill-opacity:1;stroke:none;stroke-width:1.79504728px;stroke-linecap:butt;stroke-linejoin:miter;stroke-opacity:1"
       sodipodi:nodetypes="cccc" />
    <path
       inkscape:connector-curvature="0"
       id="path6104-2-2-3"
       d="m 34.191948,1066.399 -1.130362,-20.9412 1.849025,1.2694 z"
       style="fill:#947600;fill-opacity:1;stroke:none;stroke-width:1.79504728px;stroke-linecap:butt;stroke-linejoin:miter;stroke-opacity:1" />
    <path
       inkscape:connector-curvature="0"
       id="path6106-8-1-94"
       d="m 33.061586,1045.4578 5.719622,-0.34 -3.870597,1.6094 z"
       style="fill:#947600;fill-opacity:1;stroke:none;stroke-width:1.79504728px;stroke-linecap:butt;stroke-linejoin:miter;stroke-opacity:1" />
    <path
       inkscape:connector-curvature="0"
       id="path6108-4-5-1"
       d="m 58.733606,1018.8969 0.563795,-2.6556 -3.785309,-0.23 z"
       style="fill:#ffeeaa;fill-opacity:1;stroke:none;stroke-width:1.79504728px;stroke-linecap:butt;stroke-linejoin:miter;stroke-opacity:1"
       sodipodi:nodetypes="cccc" />
    <path
       inkscape:connector-curvature="0"
       id="path6110-7-9-5"
       d="m 59.297197,1016.2413 2.830115,-5.8254 -6.615703,5.5954 z"
       style="fill:#ffeeaa;fill-opacity:1;stroke:none;stroke-width:1.79504728px;stroke-linecap:butt;stroke-linejoin:miter;stroke-opacity:1"
       sodipodi:nodetypes="cccc" />
    <path
       sodipodi:nodetypes="ccccc"
       inkscape:connector-curvature="0"
       id="path6112-2-9-415"
       d="m 39.292954,1043.644 2.478832,-8.6338 h 38.674181 l -33.474056,4.2348 z"
       style="fill:#ffeeaa;fill-opacity:1;stroke:none;stroke-width:1.79504728px;stroke-linecap:butt;stroke-linejoin:miter;stroke-opacity:1" />
    <path
       inkscape:connector-curvature="0"
       id="path6114-4-1-5"
       d="m 34.0131,1038.0709 -2.090892,3.7287 -2.021553,-1.5093 z"
       style="fill:#ffeeaa;fill-opacity:1;stroke:none;stroke-width:1.79504728px;stroke-linecap:butt;stroke-linejoin:miter;stroke-opacity:1" />
    <path
       inkscape:connector-curvature="0"
       id="path6116-0-4-4"
       d="m 31.922208,1041.7996 -1.807719,28.9153 -0.213703,-30.4246 z"
       style="fill:#ffeeaa;fill-opacity:1;stroke:none;stroke-width:1.79504728px;stroke-linecap:butt;stroke-linejoin:miter;stroke-opacity:1" />
    <path
       inkscape:connector-curvature="0"
       id="path6118-6-9-9"
       d="m 90.093964,1066.7123 3.52032,-28.2276 -0.60314,29.513 z"
       style="fill:#947600;fill-opacity:1;stroke:none;stroke-width:1.79504728px;stroke-linecap:butt;stroke-linejoin:miter;stroke-opacity:1" />
    <path
       inkscape:connector-curvature="0"
       id="path6120-2-1-8"
       d="m 82.076196,1039.3331 7.169648,-2.3043 -0.007,-2.7687 z"
       style="fill:#ffeeaa;fill-opacity:1;stroke:none;stroke-width:1.79504728px;stroke-linecap:butt;stroke-linejoin:miter;stroke-opacity:1" />
    <path
       inkscape:connector-curvature="0"
       id="path6122-9-0-3"
       d="m 79.118186,1069.5655 2.004395,-9.4526 -4.034908,1.2516 z"
       style="fill:#947600;fill-opacity:1;stroke:none;stroke-width:1.79504728px;stroke-linecap:butt;stroke-linejoin:miter;stroke-opacity:1"
       sodipodi:nodetypes="cccc" />
    <path
       inkscape:connector-curvature="0"
       id="path6124-9-7-8"
       d="m 77.087673,1061.3645 8.484001,-12.7757 -4.449093,11.5241 z"
       style="fill:#947600;fill-opacity:1;stroke:none;stroke-width:1.79504728px;stroke-linecap:butt;stroke-linejoin:miter;stroke-opacity:1"
       sodipodi:nodetypes="cccc" />
    <path
       sodipodi:type="inkscape:offset"
       inkscape:radius="8.2180386"
       inkscape:original="M 1263.125 1059.6445 L 1257.1465 1065.5977 L 1251.875 1070.7695 L 1226.125 1096.3945 L 1221.5 1113.0195 L 1238.375 1108.2695 L 1263.375 1082.6445 L 1269.0801 1077 L 1269.2891 1076.7969 L 1269.2324 1076.9141 L 1274.9375 1071.2695 L 1263.125 1059.6445 z "
       style="fill:#000000;stroke:none;stroke-width:1px;stroke-linecap:butt;stroke-linejoin:miter;stroke-opacity:1"
       id="path1750-4-7"
       d="m 1262.9375,1051.4297 a 8.2188604,8.2188604 0 0 0 -5.6113,2.3906 l -5.9571,5.9317 -5.25,5.1503 a 8.2188604,8.2188604 0 0 0 -0.041,0.043 l -25.75,25.625 a 8.2188604,8.2188604 0 0 0 -2.1211,3.6211 l -4.625,16.625 a 8.2188604,8.2188604 0 0 0 10.1446,10.1133 l 16.875,-4.75 a 8.2188604,8.2188604 0 0 0 3.6562,-2.1719 l 24.9492,-25.5723 5.166,-5.1132 a 8.2188604,8.2188604 0 0 0 0.6387,-0.5664 l 5.7051,-5.6446 a 8.2188604,8.2188604 0 0 0 -0.016,-11.6992 l -11.8125,-11.625 a 8.2188604,8.2188604 0 0 0 -5.9512,-2.3574 z"
       transform="matrix(0.69311324,0,0,0.69311324,-782.92269,335.3755)" />
    <path
       style="fill:#ffd42a;stroke:none;stroke-width:0.69311327px;stroke-linecap:butt;stroke-linejoin:miter;stroke-opacity:1"
       d="m 66.920832,1095.3015 17.84762,-17.761 7.970772,8.2307 -17.327807,17.7611 -11.696279,3.2922 z"
       id="path1754-1"
       inkscape:connector-curvature="0"
       sodipodi:nodetypes="cccccc" />
    <path
       style="fill:none;stroke:none;stroke-width:0.69311327px;stroke-linecap:butt;stroke-linejoin:miter;stroke-opacity:1"
       d="m 63.715138,1106.8245 c 0.05744,-0.028 0.11544,-0.058 0,0 z"
       id="path1750-1"
       inkscape:connector-curvature="0" />
    <path
       style="fill:#ffeeaa;stroke:none;stroke-width:0.69311327px;stroke-linecap:butt;stroke-linejoin:miter;stroke-opacity:1"
       d="m 66.920832,1095.3015 -3.205694,11.523 11.696279,-3.2922 -0.346542,-4.0721 -3.725526,-0.086 -0.346542,-3.6388 z"
       id="path1752-1"
       inkscape:connector-curvature="0" />
    <path
       style="fill:#808080;stroke:none;stroke-width:0.69311327px;stroke-linecap:butt;stroke-linejoin:miter;stroke-opacity:1"
       d="m 84.768452,1077.5405 3.654482,-3.5849 8.2705,7.9031 -3.95421,3.9125 z"
       id="path1756-7"
       inkscape:connector-curvature="0" />
    <path
       style="fill:#ff2ad4;stroke:none;stroke-width:0.69311327px;stroke-linecap:butt;stroke-linejoin:miter;stroke-opacity:1"
       d="m 88.422934,1073.9556 4.14302,-4.1261 8.187406,8.0576 -4.059926,3.9716 z"
       id="path1758-0"
       inkscape:connector-curvature="0" />
    <path
       style="fill:#333333;stroke:none;stroke-width:0.69311327px;stroke-linecap:butt;stroke-linejoin:miter;stroke-opacity:1"
       d="m 65.017117,1102.1443 3.240307,3.4016 -4.542286,1.2786 z"
       id="path1764-4"
       inkscape:connector-curvature="0" />
    <path
       style="fill:#4d4d4d;stroke:none;stroke-width:0.69311327px;stroke-linecap:butt;stroke-linejoin:miter;stroke-opacity:1"
       d="m 63.715138,1106.8245 2.3343,-3.5965 -1.032321,-1.0837 z"
       id="path1766-0"
       inkscape:connector-curvature="0"
       sodipodi:nodetypes="cccc" />
    <path
       style="fill:#fff6d5;stroke:none;stroke-width:0.69311327px;stroke-linecap:butt;stroke-linejoin:miter;stroke-opacity:1"
       d="m 66.049438,1103.228 4.943369,-7.4931 -4.071975,-0.4334 -1.903715,6.8428 z"
       id="path1768-8"
       inkscape:connector-curvature="0"
       sodipodi:nodetypes="ccccc" />
    <path
       style="fill:#1a1a1a;stroke:none;stroke-width:0.69311327px;stroke-linecap:butt;stroke-linejoin:miter;stroke-opacity:1"
       d="m 63.715138,1106.8245 3.559895,-2.3099 0.982391,1.0313 z"
       id="path1774-5"
       inkscape:connector-curvature="0" />
    <path
       style="fill:#ffe680;stroke:none;stroke-width:0.69311327px;stroke-linecap:butt;stroke-linejoin:miter;stroke-opacity:1"
       d="m 67.275033,1104.5146 7.789842,-5.0544 0.346542,4.0721 -7.153993,2.0136 z"
       id="path1776-1"
       inkscape:connector-curvature="0" />
    <path
       style="fill:#999999;stroke:none;stroke-width:0.69311327px;stroke-linecap:butt;stroke-linejoin:miter;stroke-opacity:1"
       d="m 84.768452,1077.5405 1.469132,1.5171 2.18535,-5.102 z"
       id="path1782-66"
       inkscape:connector-curvature="0" />
    <path
       style="fill:#666666;stroke:none;stroke-width:0.69311327px;stroke-linecap:butt;stroke-linejoin:miter;stroke-opacity:1"
       d="m 95.252374,1080.4816 1.44106,1.3771 -3.95421,3.9125 z"
       id="path1784-2"
       inkscape:connector-curvature="0" />
    <path
       style="fill:#d4aa00;stroke:none;stroke-width:0.69311327px;stroke-linecap:butt;stroke-linejoin:miter;stroke-opacity:1"
       d="m 75.411417,1103.5323 15.932357,-19.2022 1.39545,1.4411 z"
       id="path1786-1"
       inkscape:connector-curvature="0" />
    <path
       style="fill:#ffdd55;stroke:none;stroke-width:0.69311327px;stroke-linecap:butt;stroke-linejoin:miter;stroke-opacity:1"
       d="m 84.768452,1077.5405 -17.84762,17.761 2.932653,0.312 z"
       id="path1788-9"
       inkscape:connector-curvature="0" />
    <path
       style="fill:#ff55dd;stroke:none;stroke-width:0.69311327px;stroke-linecap:butt;stroke-linejoin:miter;stroke-opacity:1"
       d="m 88.422934,1073.9556 1.46911,1.5171 2.18527,-5.1019 z"
       id="path1782-6-6"
       inkscape:connector-curvature="0" />
    <path
       style="fill:#ff00cc;stroke:none;stroke-width:0.69311327px;stroke-linecap:butt;stroke-linejoin:miter;stroke-opacity:1"
       d="m 99.312324,1076.51 1.441036,1.3771 -3.954116,3.9126 z"
       id="path1784-3-4"
       inkscape:connector-curvature="0" />
  </g>
</svg>
