<?xml version="1.0" encoding="UTF-8" standalone="no"?>
<!-- Created with Inkscape (http://www.inkscape.org/) -->

<svg
   xmlns:dc="http://purl.org/dc/elements/1.1/"
   xmlns:cc="http://creativecommons.org/ns#"
   xmlns:rdf="http://www.w3.org/1999/02/22-rdf-syntax-ns#"
   xmlns:svg="http://www.w3.org/2000/svg"
   xmlns="http://www.w3.org/2000/svg"
   xmlns:sodipodi="http://sodipodi.sourceforge.net/DTD/sodipodi-0.dtd"
   xmlns:inkscape="http://www.inkscape.org/namespaces/inkscape"
   width="128"
   height="128"
   viewBox="0 0 128 128.00001"
   version="1.1"
   id="svg6294"
   inkscape:version="0.92.3 (2405546, 2018-03-11)"
   sodipodi:docname="gp_new.svg">
  <defs
     id="defs6288" />
  <sodipodi:namedview
     id="base"
     pagecolor="#ffffff"
     bordercolor="#666666"
     borderopacity="1.0"
     inkscape:pageopacity="0.0"
     inkscape:pageshadow="2"
     inkscape:zoom="2.1832557"
     inkscape:cx="15.209465"
     inkscape:cy="55.898017"
     inkscape:document-units="px"
     inkscape:current-layer="layer1"
     showgrid="false"
     units="px"
     inkscape:window-width="1366"
     inkscape:window-height="713"
     inkscape:window-x="0"
     inkscape:window-y="27"
     inkscape:window-maximized="1" />
  <metadata
     id="metadata6291">
    <rdf:RDF>
      <cc:Work
         rdf:about="">
        <dc:format>image/svg+xml</dc:format>
        <dc:type
           rdf:resource="http://purl.org/dc/dcmitype/StillImage" />
        <dc:title></dc:title>
      </cc:Work>
    </rdf:RDF>
  </metadata>
  <g
     inkscape:label="Layer 1"
     inkscape:groupmode="layer"
     id="layer1"
     transform="translate(0,-994.51965)">
    <path
       transform="matrix(6.8130265,0,0,6.8130235,96.694535,-359.11431)"
       d="m -5.0957031,200.15234 a 0.86905795,0.86905795 0 0 0 -0.5175781,0.20508 l -0.9746094,0.82617 a 0.86905795,0.86905795 0 0 0 -0.3046875,0.59766 l -0.5917969,0.18555 a 0.86905795,0.86905795 0 0 0 -0.4804688,0.375 l -0.8261718,1.34961 a 0.86905795,0.86905795 0 0 0 -0.1191406,0.58398 0.86905795,0.86905795 0 0 0 -0.6953126,0.0566 l -0.6074222,0.32813 a 0.86905795,0.86905795 0 0 0 -0.457031,0.76953 l 0.03125,4.48437 a 0.86905795,0.86905795 0 0 0 0.628906,0.83008 l 1.384766,0.39648 0.3183594,1.1211 a 0.86905795,0.86905795 0 0 0 0.6074218,0.59961 l 0.5996094,0.16211 -0.890625,0.5625 a 0.86905795,0.86905795 0 0 0 0.1757813,1.55273 l 2.3007812,0.81445 a 0.86905795,0.86905795 0 0 0 0.6308594,-0.0195 l 2.0742187,-0.88867 a 0.86905795,0.86905795 0 0 0 0.109375,-1.54297 l -0.7929687,-0.47851 -0.033203,-0.0918 1.0429687,-0.4668 A 0.86905795,0.86905795 0 0 0 -2,211.91211 l 0.2871094,-0.99805 1.52929685,-0.5957 a 0.86905795,0.86905795 0 0 0 0.5546875,-0.79297 l 0.0898438,-4.34961 a 0.86905795,0.86905795 0 0 0 -0.265625,-0.64258 l -0.64648438,-0.62304 a 0.86905795,0.86905795 0 0 0 -1.08789062,-0.0957 l -0.097656,-0.84375 a 0.86905795,0.86905795 0 0 0 -0.4453124,-0.66211 l -1.078125,-0.59179 a 0.86905795,0.86905795 0 0 0 -0.4121094,-0.81446 l -1.0253906,-0.625 a 0.86905795,0.86905795 0 0 0 -0.4980469,-0.125 z"
       id="path6033-9-0-9-5"
       style="fill:#000000;fill-opacity:1;stroke:none;stroke-width:0.26458332px;stroke-linecap:butt;stroke-linejoin:miter;stroke-opacity:1"
       inkscape:original="M -5.0507812 201.01953 L -6.0253906 201.8457 L -5.5507812 202.26953 L -7.2246094 202.79492 L -8.0507812 204.14453 L -2.375 204.14453 L -2.5 203.07031 L -4.2753906 202.0957 L -4.0253906 201.64453 L -5.0507812 201.01953 z M -1.0546875 204.53516 L -2.109375 205.2832 L -2.3496094 204.64453 L -5.2011719 204.5957 L -8.0507812 204.64453 L -8.3320312 205.58398 L -9.1933594 205.0957 L -9.8007812 205.42383 L -9.7695312 209.9082 L -7.921875 210.43945 L -7.4707031 212.02344 L -5.8261719 212.4707 L -6.4003906 213.60938 L -7.5253906 214.32031 L -5.2246094 215.13477 L -3.1503906 214.24609 L -4.2011719 213.60938 L -4.625 212.4707 L -2.8359375 211.67188 L -2.4296875 210.25977 L -0.49804688 209.50781 L -0.40820312 205.1582 L -1.0546875 204.53516 z M -1.9375 205.76953 L -1.2050781 205.97266 L -1.0996094 208.87109 L -2.4648438 209.37109 L -2.25 208.3457 L -1.59375 206.64648 L -1.9375 205.76953 z M -8.4921875 206.13477 L -8.6035156 206.49023 L -8.1503906 208.3457 L -7.9824219 209.57617 L -9.1679688 209.27148 L -9.0625 206.37305 L -8.4921875 206.13477 z "
       inkscape:radius="0.86897105"
       sodipodi:type="inkscape:offset" />
    <path
       sodipodi:nodetypes="ccccccccccccccccccccccccccccccccccccccccccccccc"
       inkscape:connector-curvature="0"
       id="path6033-6-6-2"
       d="m 62.288,1010.4408 -6.643585,5.6191 3.235575,2.8976 -11.410731,3.5771 -5.622575,9.1961 h 38.664668 l -0.848502,-7.3231 -12.097273,-6.6437 1.704079,-3.0665 z m 27.225804,23.9446 -7.192844,5.0944 -1.637099,-4.3411 -19.420325,0.2609 -19.416852,-0.2609 -1.915286,6.3972 -5.8761,-3.3236 -4.129777,2.2287 0.214604,30.5529 12.581812,3.6213 3.071598,10.7894 11.213284,3.0486 -3.918589,7.7525 -7.664651,4.8515 15.674319,5.5488 14.135672,-6.0591 -7.157619,-4.3412 -2.890503,-7.7525 12.188241,-5.4467 2.766214,-9.6146 13.162096,-5.1267 0.605676,-29.6374 z m -6.016911,8.4145 4.988901,1.3765 0.721711,19.7549 -9.310749,3.4089 1.466571,-6.9931 4.467848,-11.5726 z m -44.653391,2.4891 -0.760484,2.4259 3.084199,12.6322 1.143079,8.3822 -8.075397,-2.0695 0.721693,-19.7547 z"
       style="fill:#ffd42a;stroke:none;stroke-width:1.80261266px;stroke-linecap:butt;stroke-linejoin:miter;stroke-opacity:1" />
    <path
       sodipodi:nodetypes="ccccc"
       inkscape:connector-curvature="0"
       id="path6090-4-0-2"
       d="m 80.140034,1073.3919 -6.220968,6.5107 -11.177647,9.6942 14.6324,-6.5903 z"
       style="fill:#947600;fill-opacity:1;stroke:none;stroke-width:1.80261266px;stroke-linecap:butt;stroke-linejoin:miter;stroke-opacity:1" />
    <path
       inkscape:connector-curvature="0"
       id="path6092-6-2-27"
       d="m 41.846684,1031.7307 32.984298,-3.8793 5.68037,3.8793 z"
       style="fill:#947600;fill-opacity:1;stroke:none;stroke-width:1.80261266px;stroke-linecap:butt;stroke-linejoin:miter;stroke-opacity:1"
       sodipodi:nodetypes="cccc" />
    <path
       inkscape:connector-curvature="0"
       id="path6094-2-7-0"
       d="m 74.830982,1027.8514 4.831868,-3.4438 0.848502,7.3231 z"
       style="fill:#947600;fill-opacity:1;stroke:none;stroke-width:1.80261266px;stroke-linecap:butt;stroke-linejoin:miter;stroke-opacity:1"
       sodipodi:nodetypes="cccc" />
    <path
       inkscape:connector-curvature="0"
       id="path6096-5-6-3"
       d="m 81.004142,1073.0212 9.368376,-6.0469 2.929612,1.2909 z"
       style="fill:#947600;fill-opacity:1;stroke:none;stroke-width:1.80261266px;stroke-linecap:butt;stroke-linejoin:miter;stroke-opacity:1"
       sodipodi:nodetypes="cccc" />
    <path
       inkscape:connector-curvature="0"
       id="path6098-8-1-4"
       d="m 68.076082,1096.2057 -6.978035,10.4003 14.135653,-6.0591 z"
       style="fill:#947600;fill-opacity:1;stroke:none;stroke-width:1.80261266px;stroke-linecap:butt;stroke-linejoin:miter;stroke-opacity:1" />
    <path
       inkscape:connector-curvature="0"
       id="path6102-6-3-6"
       d="m 69.269656,1014.6974 -2.927148,5.1577 -0.658148,-3.4978 z"
       style="fill:#947600;fill-opacity:1;stroke:none;stroke-width:1.80261266px;stroke-linecap:butt;stroke-linejoin:miter;stroke-opacity:1"
       sodipodi:nodetypes="cccc" />
    <path
       inkscape:connector-curvature="0"
       id="path6104-2-2-36"
       d="m 34.234899,1066.6598 -1.135125,-21.0295 1.856818,1.2748 z"
       style="fill:#947600;fill-opacity:1;stroke:none;stroke-width:1.80261266px;stroke-linecap:butt;stroke-linejoin:miter;stroke-opacity:1" />
    <path
       inkscape:connector-curvature="0"
       id="path6106-8-1-3"
       d="m 33.099774,1045.6303 5.743728,-0.3415 -3.88691,1.6163 z"
       style="fill:#947600;fill-opacity:1;stroke:none;stroke-width:1.80261266px;stroke-linecap:butt;stroke-linejoin:miter;stroke-opacity:1" />
    <path
       inkscape:connector-curvature="0"
       id="path6108-4-5-3"
       d="m 58.87999,1018.9575 0.566173,-2.6668 -3.801263,-0.231 z"
       style="fill:#ffeeaa;fill-opacity:1;stroke:none;stroke-width:1.80261266px;stroke-linecap:butt;stroke-linejoin:miter;stroke-opacity:1"
       sodipodi:nodetypes="cccc" />
    <path
       inkscape:connector-curvature="0"
       id="path6110-7-9-4"
       d="m 59.445957,1016.2907 2.842043,-5.8499 -6.643585,5.6189 z"
       style="fill:#ffeeaa;fill-opacity:1;stroke:none;stroke-width:1.80261266px;stroke-linecap:butt;stroke-linejoin:miter;stroke-opacity:1"
       sodipodi:nodetypes="cccc" />
    <path
       sodipodi:nodetypes="ccccc"
       inkscape:connector-curvature="0"
       id="path6112-2-9-43"
       d="m 39.357404,1043.8089 2.48928,-8.6702 h 38.837177 l -33.615136,4.2527 z"
       style="fill:#ffeeaa;fill-opacity:1;stroke:none;stroke-width:1.80261266px;stroke-linecap:butt;stroke-linejoin:miter;stroke-opacity:1" />
    <path
       inkscape:connector-curvature="0"
       id="path6114-4-1-97"
       d="m 34.055298,1038.2123 -2.099704,3.7444 -2.030073,-1.5157 z"
       style="fill:#ffeeaa;fill-opacity:1;stroke:none;stroke-width:1.80261266px;stroke-linecap:butt;stroke-linejoin:miter;stroke-opacity:1" />
    <path
       inkscape:connector-curvature="0"
       id="path6116-0-4-2"
       d="m 31.955594,1041.9567 -1.815338,29.0372 -0.214604,-30.5529 z"
       style="fill:#ffeeaa;fill-opacity:1;stroke:none;stroke-width:1.80261266px;stroke-linecap:butt;stroke-linejoin:miter;stroke-opacity:1" />
    <path
       inkscape:connector-curvature="0"
       id="path6118-6-9-5"
       d="m 90.372518,1066.9743 3.535157,-28.3465 -0.605676,29.6374 z"
       style="fill:#947600;fill-opacity:1;stroke:none;stroke-width:1.80261266px;stroke-linecap:butt;stroke-linejoin:miter;stroke-opacity:1" />
    <path
       inkscape:connector-curvature="0"
       id="path6120-2-1-89"
       d="m 82.32096,1039.4798 7.199863,-2.314 -0.0075,-2.7804 z"
       style="fill:#ffeeaa;fill-opacity:1;stroke:none;stroke-width:1.80261266px;stroke-linecap:butt;stroke-linejoin:miter;stroke-opacity:1" />
    <path
       inkscape:connector-curvature="0"
       id="path6122-9-0-0"
       d="m 79.350484,1069.8396 2.012843,-9.4925 -4.051914,1.2569 z"
       style="fill:#947600;fill-opacity:1;stroke:none;stroke-width:1.80261266px;stroke-linecap:butt;stroke-linejoin:miter;stroke-opacity:1"
       sodipodi:nodetypes="cccc" />
    <path
       inkscape:connector-curvature="0"
       id="path6124-9-7-2"
       d="m 77.311413,1061.604 8.519762,-12.8295 -4.467848,11.5726 z"
       style="fill:#947600;fill-opacity:1;stroke:none;stroke-width:1.80261266px;stroke-linecap:butt;stroke-linejoin:miter;stroke-opacity:1"
       sodipodi:nodetypes="cccc" />
    <path
       transform="matrix(0.6265201,0,0,0.6265201,-912.41184,413.11576)"
       sodipodi:type="inkscape:offset"
       inkscape:radius="8.3784142"
       inkscape:original="M 1600.6309 1047.6465 L 1581.7578 1047.9238 L 1582.8672 1072.3477 L 1560.959 1070.8418 L 1561.0547 1087.1992 L 1582.0352 1086.502 L 1582.3125 1107.3164 L 1601.1855 1107.3164 L 1598.9648 1087.6113 L 1620.3359 1088.168 L 1620.0566 1070.4043 L 1599.5195 1072.0703 L 1600.6309 1047.6465 z "
       style="fill:#000000;stroke:none;stroke-width:0.78498554px;stroke-linecap:butt;stroke-linejoin:miter;stroke-opacity:1"
       id="path4098-3-4"
       d="m 1600.5078,1039.2695 -18.873,0.2774 a 8.379252,8.379252 0 0 0 -8.2461,8.7578 l 0.6836,15.0391 -12.5391,-0.8614 a 8.379252,8.379252 0 0 0 -8.9531,8.4082 l 0.096,16.3574 a 8.379252,8.379252 0 0 0 8.6562,8.3243 l 12.4395,-0.4141 0.164,12.2695 a 8.379252,8.379252 0 0 0 8.377,8.2676 h 18.873 a 8.379252,8.379252 0 0 0 8.3262,-9.3164 l -1.1426,-10.1426 11.7481,0.3067 a 8.379252,8.379252 0 0 0 8.5957,-8.5059 l -0.2793,-17.7637 a 8.379252,8.379252 0 0 0 -9.0547,-8.2207 l -11.0586,0.8965 0.6797,-14.9219 a 8.379252,8.379252 0 0 0 -8.4922,-8.7578 z" />
    <path
       style="fill:#71c837;stroke:none;stroke-width:0.49180922px;stroke-linecap:butt;stroke-linejoin:miter;stroke-opacity:1"
       d="m 79.286715,1084.9631 -0.695539,-15.3014 11.823923,-0.1736 -0.695577,15.3016 12.867228,-1.0436 0.1738,11.1284 -13.388788,-0.3476 1.391059,12.3453 H 78.93888 l -0.173796,-13.0409 -13.144698,0.4372 -0.05955,-10.2483 z"
       id="path4098-7"
       inkscape:connector-curvature="0"
       sodipodi:nodetypes="ccccccccccccc" />
    <path
       style="fill:#aade87;stroke:none;stroke-width:0.49180922px;stroke-linecap:butt;stroke-linejoin:miter;stroke-opacity:1"
       d="m 79.286715,1084.9631 1.332238,-12.3545 -2.027777,-2.9469 z"
       id="path4100-65"
       inkscape:connector-curvature="0" />
    <path
       style="fill:#aade87;stroke:none;stroke-width:0.49180922px;stroke-linecap:butt;stroke-linejoin:miter;stroke-opacity:1"
       d="m 80.618953,1072.6086 9.796146,-3.1207 -11.823923,0.1737 z"
       id="path4102-7"
       inkscape:connector-curvature="0" />
    <path
       style="fill:#aade87;stroke:none;stroke-width:0.49180922px;stroke-linecap:butt;stroke-linejoin:miter;stroke-opacity:1"
       d="m 79.286715,1084.9631 -11.885152,2.3383 -1.84082,-3.2814 z"
       id="path4104-1"
       inkscape:connector-curvature="0" />
    <path
       style="fill:#aade87;stroke:none;stroke-width:0.49180922px;stroke-linecap:butt;stroke-linejoin:miter;stroke-opacity:1"
       d="m 67.401563,1087.3014 -1.781177,6.967 -0.05955,-10.2484 z"
       id="path4106-3"
       inkscape:connector-curvature="0" />
    <path
       style="fill:#aade87;stroke:none;stroke-width:0.49180922px;stroke-linecap:butt;stroke-linejoin:miter;stroke-opacity:1"
       d="m 89.719522,1084.7895 1.999663,2.8688 10.867565,-3.9124 z"
       id="path4110-3"
       inkscape:connector-curvature="0" />
    <path
       style="fill:#aade87;stroke:none;stroke-width:0.49180922px;stroke-linecap:butt;stroke-linejoin:miter;stroke-opacity:1"
       d="m 78.938936,1106.872 1.999664,-11.3889 -2.173516,-1.6519 z"
       id="path4112-3"
       inkscape:connector-curvature="0" />
    <path
       style="fill:#5aa02c;stroke:none;stroke-width:0.49180922px;stroke-linecap:butt;stroke-linejoin:miter;stroke-opacity:1"
       d="m 78.938936,1106.872 9.128776,-2.521 2.695184,2.521 z"
       id="path4114-8"
       inkscape:connector-curvature="0" />
    <path
       style="fill:#5aa02c;stroke:none;stroke-width:0.49180922px;stroke-linecap:butt;stroke-linejoin:miter;stroke-opacity:1"
       d="m 88.067712,1104.351 1.304106,-9.8243 1.391078,12.3453 z"
       id="path4116-5"
       inkscape:connector-curvature="0" />
    <path
       style="fill:#5aa02c;stroke:none;stroke-width:0.49180922px;stroke-linecap:butt;stroke-linejoin:miter;stroke-opacity:1"
       d="m 89.371818,1094.5267 10.606737,-1.9997 2.782065,2.3473 z"
       id="path4118-1"
       inkscape:connector-curvature="0" />
    <path
       style="fill:#5aa02c;stroke:none;stroke-width:0.49180922px;stroke-linecap:butt;stroke-linejoin:miter;stroke-opacity:1"
       d="m 99.978555,1092.527 2.608195,-8.7811 0.1738,11.1284 z"
       id="path4120-0"
       inkscape:connector-curvature="0" />
    <path
       style="fill:#5aa02c;stroke:none;stroke-width:0.49180922px;stroke-linecap:butt;stroke-linejoin:miter;stroke-opacity:1"
       d="m 90.415099,1069.4879 -3.564594,13.2147 2.869017,2.0869 z"
       id="path4122-8"
       inkscape:connector-curvature="0" />
    <path
       style="fill:#5aa02c;stroke:none;stroke-width:0.49180922px;stroke-linecap:butt;stroke-linejoin:miter;stroke-opacity:1"
       d="m 65.620386,1094.2684 11.666741,-2.7847 1.477957,2.3475 z"
       id="path4124-7"
       inkscape:connector-curvature="0" />
  </g>
</svg>
