<?xml version="1.0" encoding="UTF-8" standalone="no"?>
<!-- Created with Inkscape (http://www.inkscape.org/) -->

<svg
   xmlns:dc="http://purl.org/dc/elements/1.1/"
   xmlns:cc="http://creativecommons.org/ns#"
   xmlns:rdf="http://www.w3.org/1999/02/22-rdf-syntax-ns#"
   xmlns:svg="http://www.w3.org/2000/svg"
   xmlns="http://www.w3.org/2000/svg"
   xmlns:sodipodi="http://sodipodi.sourceforge.net/DTD/sodipodi-0.dtd"
   xmlns:inkscape="http://www.inkscape.org/namespaces/inkscape"
   width="128"
   height="128"
   viewBox="0 0 128 128.00001"
   version="1.1"
   id="svg6294"
   inkscape:version="0.92.3 (2405546, 2018-03-11)"
   sodipodi:docname="gp_remove.svg">
  <defs
     id="defs6288" />
  <sodipodi:namedview
     id="base"
     pagecolor="#ffffff"
     bordercolor="#666666"
     borderopacity="1.0"
     inkscape:pageopacity="0.0"
     inkscape:pageshadow="2"
     inkscape:zoom="2.1832557"
     inkscape:cx="15.209465"
     inkscape:cy="55.898017"
     inkscape:document-units="px"
     inkscape:current-layer="layer1"
     showgrid="false"
     units="px"
     inkscape:window-width="1366"
     inkscape:window-height="713"
     inkscape:window-x="0"
     inkscape:window-y="27"
     inkscape:window-maximized="1" />
  <metadata
     id="metadata6291">
    <rdf:RDF>
      <cc:Work
         rdf:about="">
        <dc:format>image/svg+xml</dc:format>
        <dc:type
           rdf:resource="http://purl.org/dc/dcmitype/StillImage" />
        <dc:title></dc:title>
      </cc:Work>
    </rdf:RDF>
  </metadata>
  <g
     inkscape:label="Layer 1"
     inkscape:groupmode="layer"
     id="layer1"
     transform="translate(0,-994.51965)">
    <path
       transform="matrix(6.6276334,0,0,6.6276305,94.716403,-322.00774)"
       d="m -5.0957031,200.15234 a 0.86905795,0.86905795 0 0 0 -0.5175781,0.20508 l -0.9746094,0.82617 a 0.86905795,0.86905795 0 0 0 -0.3046875,0.59766 l -0.5917969,0.18555 a 0.86905795,0.86905795 0 0 0 -0.4804688,0.375 l -0.8261718,1.34961 a 0.86905795,0.86905795 0 0 0 -0.1191406,0.58398 0.86905795,0.86905795 0 0 0 -0.6953126,0.0566 l -0.6074222,0.32813 a 0.86905795,0.86905795 0 0 0 -0.457031,0.76953 l 0.03125,4.48437 a 0.86905795,0.86905795 0 0 0 0.628906,0.83008 l 1.384766,0.39648 0.3183594,1.1211 a 0.86905795,0.86905795 0 0 0 0.6074218,0.59961 l 0.5996094,0.16211 -0.890625,0.5625 a 0.86905795,0.86905795 0 0 0 0.1757813,1.55273 l 2.3007812,0.81445 a 0.86905795,0.86905795 0 0 0 0.6308594,-0.0195 l 2.0742187,-0.88867 a 0.86905795,0.86905795 0 0 0 0.109375,-1.54297 l -0.7929687,-0.47851 -0.033203,-0.0918 1.0429687,-0.4668 A 0.86905795,0.86905795 0 0 0 -2,211.91211 l 0.2871094,-0.99805 1.52929685,-0.5957 a 0.86905795,0.86905795 0 0 0 0.5546875,-0.79297 l 0.0898438,-4.34961 a 0.86905795,0.86905795 0 0 0 -0.265625,-0.64258 l -0.64648438,-0.62304 a 0.86905795,0.86905795 0 0 0 -1.08789062,-0.0957 l -0.097656,-0.84375 a 0.86905795,0.86905795 0 0 0 -0.4453124,-0.66211 l -1.078125,-0.59179 a 0.86905795,0.86905795 0 0 0 -0.4121094,-0.81446 l -1.0253906,-0.625 a 0.86905795,0.86905795 0 0 0 -0.4980469,-0.125 z"
       id="path6033-9-0-9-63"
       style="fill:#000000;fill-opacity:1;stroke:none;stroke-width:0.26458332px;stroke-linecap:butt;stroke-linejoin:miter;stroke-opacity:1"
       inkscape:original="M -5.0507812 201.01953 L -6.0253906 201.8457 L -5.5507812 202.26953 L -7.2246094 202.79492 L -8.0507812 204.14453 L -2.375 204.14453 L -2.5 203.07031 L -4.2753906 202.0957 L -4.0253906 201.64453 L -5.0507812 201.01953 z M -1.0546875 204.53516 L -2.109375 205.2832 L -2.3496094 204.64453 L -5.2011719 204.5957 L -8.0507812 204.64453 L -8.3320312 205.58398 L -9.1933594 205.0957 L -9.8007812 205.42383 L -9.7695312 209.9082 L -7.921875 210.43945 L -7.4707031 212.02344 L -5.8261719 212.4707 L -6.4003906 213.60938 L -7.5253906 214.32031 L -5.2246094 215.13477 L -3.1503906 214.24609 L -4.2011719 213.60938 L -4.625 212.4707 L -2.8359375 211.67188 L -2.4296875 210.25977 L -0.49804688 209.50781 L -0.40820312 205.1582 L -1.0546875 204.53516 z M -1.9375 205.76953 L -1.2050781 205.97266 L -1.0996094 208.87109 L -2.4648438 209.37109 L -2.25 208.3457 L -1.59375 206.64648 L -1.9375 205.76953 z M -8.4921875 206.13477 L -8.6035156 206.49023 L -8.1503906 208.3457 L -7.9824219 209.57617 L -9.1679688 209.27148 L -9.0625 206.37305 L -8.4921875 206.13477 z "
       inkscape:radius="0.86897105"
       sodipodi:type="inkscape:offset" />
    <path
       sodipodi:nodetypes="ccccccccccccccccccccccccccccccccccccccccccccccc"
       inkscape:connector-curvature="0"
       id="path6033-6-6-5"
       d="m 61.24613,1010.2795 -6.462803,5.4664 3.147531,2.8188 -11.100229,3.4797 -5.469575,8.9459 h 37.612543 l -0.825413,-7.1239 -11.768088,-6.4628 1.657708,-2.9833 z m 26.484943,23.2933 -6.997111,4.9558 -1.592552,-4.2231 -18.891867,0.2539 -18.888489,-0.2539 -1.863168,6.2232 -5.716203,-3.2332 -4.017398,2.1681 0.208764,29.7215 12.23944,3.5228 2.988016,10.4957 10.908153,2.9657 -3.811958,7.5415 -7.456084,4.7196 15.247796,5.3978 13.751018,-5.8943 -6.962848,-4.2231 -2.811848,-7.5415 11.856579,-5.2985 2.690942,-9.3529 12.803938,-4.9872 0.58919,-28.8309 z m -5.853177,8.1855 4.853147,1.3391 0.70207,19.2173 -9.057388,3.3162 1.426662,-6.8029 4.346271,-11.2577 z m -43.438303,2.4214 -0.73979,2.3599 3.000274,12.2884 1.111973,8.1541 -7.855652,-2.0132 0.702054,-19.2171 z"
       style="fill:#ffd42a;stroke:none;stroke-width:1.75356078px;stroke-linecap:butt;stroke-linejoin:miter;stroke-opacity:1" />
    <path
       sodipodi:nodetypes="ccccc"
       inkscape:connector-curvature="0"
       id="path6090-4-0-08"
       d="m 78.612382,1071.5179 -6.051685,6.3335 -10.873486,9.4304 14.23423,-6.411 z"
       style="fill:#947600;fill-opacity:1;stroke:none;stroke-width:1.75356078px;stroke-linecap:butt;stroke-linejoin:miter;stroke-opacity:1" />
    <path
       inkscape:connector-curvature="0"
       id="path6092-6-2-04"
       d="m 41.361054,1030.9903 32.086744,-3.7738 5.525799,3.7738 z"
       style="fill:#947600;fill-opacity:1;stroke:none;stroke-width:1.75356078px;stroke-linecap:butt;stroke-linejoin:miter;stroke-opacity:1"
       sodipodi:nodetypes="cccc" />
    <path
       inkscape:connector-curvature="0"
       id="path6094-2-7-1"
       d="m 73.447798,1027.2165 4.700386,-3.3501 0.825413,7.1239 z"
       style="fill:#947600;fill-opacity:1;stroke:none;stroke-width:1.75356078px;stroke-linecap:butt;stroke-linejoin:miter;stroke-opacity:1"
       sodipodi:nodetypes="cccc" />
    <path
       inkscape:connector-curvature="0"
       id="path6096-5-6-1"
       d="m 79.452976,1071.1572 9.113447,-5.8823 2.84989,1.2558 z"
       style="fill:#947600;fill-opacity:1;stroke:none;stroke-width:1.75356078px;stroke-linecap:butt;stroke-linejoin:miter;stroke-opacity:1"
       sodipodi:nodetypes="cccc" />
    <path
       inkscape:connector-curvature="0"
       id="path6098-8-1-35"
       d="m 66.876709,1093.7108 -6.788152,10.1174 13.751001,-5.8943 z"
       style="fill:#947600;fill-opacity:1;stroke:none;stroke-width:1.75356078px;stroke-linecap:butt;stroke-linejoin:miter;stroke-opacity:1" />
    <path
       inkscape:connector-curvature="0"
       id="path6102-6-3-93"
       d="m 68.037804,1014.4203 -2.847496,5.0175 -0.640238,-3.4026 z"
       style="fill:#947600;fill-opacity:1;stroke:none;stroke-width:1.75356078px;stroke-linecap:butt;stroke-linejoin:miter;stroke-opacity:1"
       sodipodi:nodetypes="cccc" />
    <path
       inkscape:connector-curvature="0"
       id="path6104-2-2-41"
       d="m 33.956398,1064.9689 -1.104237,-20.4572 1.806291,1.2401 z"
       style="fill:#947600;fill-opacity:1;stroke:none;stroke-width:1.75356078px;stroke-linecap:butt;stroke-linejoin:miter;stroke-opacity:1" />
    <path
       inkscape:connector-curvature="0"
       id="path6106-8-1-50"
       d="m 32.852161,1044.5117 5.587432,-0.3322 -3.781141,1.5723 z"
       style="fill:#947600;fill-opacity:1;stroke:none;stroke-width:1.75356078px;stroke-linecap:butt;stroke-linejoin:miter;stroke-opacity:1" />
    <path
       inkscape:connector-curvature="0"
       id="path6108-4-5-8"
       d="m 57.930858,1018.5647 0.550765,-2.5943 -3.697824,-0.2246 z"
       style="fill:#ffeeaa;fill-opacity:1;stroke:none;stroke-width:1.75356078px;stroke-linecap:butt;stroke-linejoin:miter;stroke-opacity:1"
       sodipodi:nodetypes="cccc" />
    <path
       inkscape:connector-curvature="0"
       id="path6110-7-9-35"
       d="m 58.481424,1015.9704 2.764706,-5.6909 -6.462803,5.4663 z"
       style="fill:#ffeeaa;fill-opacity:1;stroke:none;stroke-width:1.75356078px;stroke-linecap:butt;stroke-linejoin:miter;stroke-opacity:1"
       sodipodi:nodetypes="cccc" />
    <path
       sodipodi:nodetypes="ccccc"
       inkscape:connector-curvature="0"
       id="path6112-2-9-65"
       d="m 38.939511,1042.7398 2.421543,-8.4343 H 79.14141 l -32.700415,4.137 z"
       style="fill:#ffeeaa;fill-opacity:1;stroke:none;stroke-width:1.75356078px;stroke-linecap:butt;stroke-linejoin:miter;stroke-opacity:1" />
    <path
       inkscape:connector-curvature="0"
       id="path6114-4-1-99"
       d="m 33.781683,1037.2955 -2.042567,3.6425 -1.974831,-1.4744 z"
       style="fill:#ffeeaa;fill-opacity:1;stroke:none;stroke-width:1.75356078px;stroke-linecap:butt;stroke-linejoin:miter;stroke-opacity:1" />
    <path
       inkscape:connector-curvature="0"
       id="path6116-0-4-07"
       d="m 31.739116,1040.938 -1.76594,28.2471 -0.208764,-29.7215 z"
       style="fill:#ffeeaa;fill-opacity:1;stroke:none;stroke-width:1.75356078px;stroke-linecap:butt;stroke-linejoin:miter;stroke-opacity:1" />
    <path
       inkscape:connector-curvature="0"
       id="path6118-6-9-63"
       d="m 88.566423,1065.2749 3.43896,-27.5751 -0.58919,28.8309 z"
       style="fill:#947600;fill-opacity:1;stroke:none;stroke-width:1.75356078px;stroke-linecap:butt;stroke-linejoin:miter;stroke-opacity:1" />
    <path
       inkscape:connector-curvature="0"
       id="path6120-2-1-7"
       d="m 80.733962,1038.5286 7.003941,-2.2511 -0.007,-2.7047 z"
       style="fill:#ffeeaa;fill-opacity:1;stroke:none;stroke-width:1.75356078px;stroke-linecap:butt;stroke-linejoin:miter;stroke-opacity:1" />
    <path
       inkscape:connector-curvature="0"
       id="path6122-9-0-61"
       d="m 77.844317,1068.0623 1.95807,-9.2343 -3.941654,1.2227 z"
       style="fill:#947600;fill-opacity:1;stroke:none;stroke-width:1.75356078px;stroke-linecap:butt;stroke-linejoin:miter;stroke-opacity:1"
       sodipodi:nodetypes="cccc" />
    <path
       inkscape:connector-curvature="0"
       id="path6124-9-7-5"
       d="m 75.860733,1060.0507 8.287925,-12.4804 -4.346271,11.2577 z"
       style="fill:#947600;fill-opacity:1;stroke:none;stroke-width:1.75356078px;stroke-linecap:butt;stroke-linejoin:miter;stroke-opacity:1"
       sodipodi:nodetypes="cccc" />
    <path
       sodipodi:type="inkscape:offset"
       inkscape:radius="4.9447436"
       inkscape:original="M 3487.7969 1263.3164 L 3482.5098 1274.7109 L 3472.832 1263.3398 L 3466.3125 1268.5488 L 3478.8359 1279.334 L 3468.6719 1289.873 L 3477.1875 1294.1348 L 3483.5254 1284.1426 L 3491.5039 1294.6094 L 3498.2227 1289.6484 L 3487.0703 1278.8398 L 3495.5586 1267.0156 L 3487.7969 1263.3164 z "
       style="fill:#000000;stroke:none;stroke-width:2.26385689px;stroke-linecap:butt;stroke-linejoin:miter;stroke-opacity:1"
       id="path5323-89-7-0"
       d="m 3488.0176,1258.377 a 4.9452381,4.9452381 0 0 0 -4.7071,2.8574 l -2.039,4.3926 -4.6738,-5.4922 a 4.9452381,4.9452381 0 0 0 -6.8516,-0.6582 l -6.5195,5.2089 a 4.9452381,4.9452381 0 0 0 -0.1407,7.6094 l 8.5606,7.3731 -6.5332,6.7734 a 4.9452381,4.9452381 0 0 0 1.3457,7.8535 l 8.5156,4.2617 a 4.9452381,4.9452381 0 0 0 6.3887,-1.7734 l 2.5351,-3.9961 3.6739,4.8203 a 4.9452381,4.9452381 0 0 0 6.8691,0.9805 l 6.7188,-4.9609 a 4.9452381,4.9452381 0 0 0 0.5039,-7.5293 l -8.0899,-7.8399 6.002,-8.3594 a 4.9452381,4.9452381 0 0 0 -1.8907,-7.3457 l -7.7617,-3.6992 a 4.9452381,4.9452381 0 0 0 -1.9062,-0.4765 z"
       transform="matrix(1.1977423,0,0,1.1977423,-4091.2943,-444.01139)" />
    <path
       style="fill:#c83737;stroke:none;stroke-width:0.71780711px;stroke-linecap:butt;stroke-linejoin:miter;stroke-opacity:1"
       d="m 60.454966,1075.3846 7.807601,-6.2373 11.592211,13.62 6.333088,-13.6501 9.295297,4.4324 -10.165837,14.1622 13.358057,12.9453 -8.04751,5.9417 -9.555705,-12.5366 -7.59092,11.9687 -10.200814,-5.1032 12.174575,-12.6237 z"
       id="path3606-3-6"
       inkscape:connector-curvature="0"
       sodipodi:nodetypes="ccccccccccccc" />
    <path
       style="fill:#a02c2c;stroke:none;stroke-width:0.55928695px;stroke-linecap:butt;stroke-linejoin:miter;stroke-opacity:1"
       d="m 63.280434,1100.9277 7.82785,-0.5544 2.372964,5.6576 z"
       id="path3612-3-5"
       inkscape:connector-curvature="0"
       sodipodi:nodetypes="cccc" />
    <path
       style="fill:#a02c2c;stroke:none;stroke-width:0.55928695px;stroke-linecap:butt;stroke-linejoin:miter;stroke-opacity:1"
       d="m 71.108284,1100.3733 9.963884,-6.3111 -7.59092,11.9687 z"
       id="path3614-3-0"
       inkscape:connector-curvature="0"
       sodipodi:nodetypes="cccc" />
    <path
       style="fill:#a02c2c;stroke:none;stroke-width:0.55928695px;stroke-linecap:butt;stroke-linejoin:miter;stroke-opacity:1"
       d="m 90.627873,1106.5988 1.42917,-5.5663 6.61834,-0.3754 z"
       id="path3616-8-8"
       inkscape:connector-curvature="0"
       sodipodi:nodetypes="cccc" />
    <path
       style="fill:#a02c2c;stroke:none;stroke-width:0.55928695px;stroke-linecap:butt;stroke-linejoin:miter;stroke-opacity:1"
       d="m 85.317326,1087.7118 10.165837,-14.1622 -10.895131,9.7025 z"
       id="path3618-6-1"
       inkscape:connector-curvature="0"
       sodipodi:nodetypes="cccc" />
    <path
       style="fill:#d35f5f;stroke:none;stroke-width:0.55928695px;stroke-linecap:butt;stroke-linejoin:miter;stroke-opacity:1"
       d="m 79.854778,1082.7673 8.988835,-9.1979 -2.655747,-4.4522 z"
       id="path3620-0-2"
       inkscape:connector-curvature="0"
       sodipodi:nodetypes="cccc" />
    <path
       style="fill:#d35f5f;stroke:none;stroke-width:0.55928695px;stroke-linecap:butt;stroke-linejoin:miter;stroke-opacity:1"
       d="m 63.280434,1100.9277 13.386789,-9.1894 -1.212214,-3.4343 z"
       id="path3622-4-2"
       inkscape:connector-curvature="0"
       sodipodi:nodetypes="cccc" />
    <path
       style="fill:#d35f5f;stroke:none;stroke-width:0.55928695px;stroke-linecap:butt;stroke-linejoin:miter;stroke-opacity:1"
       d="m 60.454966,1075.3846 6.804132,-1.4589 1.003469,-4.7784 z"
       id="path3624-8-6"
       inkscape:connector-curvature="0"
       sodipodi:nodetypes="cccc" />
    <path
       style="fill:#d35f5f;stroke:none;stroke-width:0.55928695px;stroke-linecap:butt;stroke-linejoin:miter;stroke-opacity:1"
       d="m 88.843613,1073.5694 6.63955,-0.02 -9.295297,-4.4328 z"
       id="path3626-8-9"
       inkscape:connector-curvature="0"
       sodipodi:nodetypes="cccc" />
    <path
       style="fill:#a02c2c;fill-opacity:1;stroke:none;stroke-width:0.55928695px;stroke-linecap:butt;stroke-linejoin:miter;stroke-opacity:1"
       d="m 92.057043,1101.0325 -10.984875,-6.9703 9.555705,12.5366"
       id="path3904-8-1"
       inkscape:connector-curvature="0"
       sodipodi:nodetypes="ccc" />
    <path
       style="fill:#d35f5f;fill-opacity:1;stroke:none;stroke-width:0.55928695px;stroke-linecap:butt;stroke-linejoin:miter;stroke-opacity:1"
       d="m 79.854778,1082.7673 -11.592211,-13.62 -1.003469,4.7784 z"
       id="path3908-9-0"
       inkscape:connector-curvature="0"
       sodipodi:nodetypes="cccc" />
  </g>
</svg>
