<?xml version="1.0" encoding="UTF-8" standalone="no"?>
<!-- Created with Inkscape (http://www.inkscape.org/) -->

<svg
   xmlns:dc="http://purl.org/dc/elements/1.1/"
   xmlns:cc="http://creativecommons.org/ns#"
   xmlns:rdf="http://www.w3.org/1999/02/22-rdf-syntax-ns#"
   xmlns:svg="http://www.w3.org/2000/svg"
   xmlns="http://www.w3.org/2000/svg"
   xmlns:sodipodi="http://sodipodi.sourceforge.net/DTD/sodipodi-0.dtd"
   xmlns:inkscape="http://www.inkscape.org/namespaces/inkscape"
   width="128"
   height="128"
   viewBox="0 0 128 128.00001"
   version="1.1"
   id="svg6294"
   inkscape:version="0.92.3 (2405546, 2018-03-11)"
   sodipodi:docname="gpedit.svg">
  <defs
     id="defs6288" />
  <sodipodi:namedview
     id="base"
     pagecolor="#ffffff"
     bordercolor="#666666"
     borderopacity="1.0"
     inkscape:pageopacity="0.0"
     inkscape:pageshadow="2"
     inkscape:zoom="2.1832557"
     inkscape:cx="15.209465"
     inkscape:cy="55.898017"
     inkscape:document-units="px"
     inkscape:current-layer="layer1"
     showgrid="false"
     units="px"
     inkscape:window-width="1366"
     inkscape:window-height="713"
     inkscape:window-x="0"
     inkscape:window-y="27"
     inkscape:window-maximized="1" />
  <metadata
     id="metadata6291">
    <rdf:RDF>
      <cc:Work
         rdf:about="">
        <dc:format>image/svg+xml</dc:format>
        <dc:type
           rdf:resource="http://purl.org/dc/dcmitype/StillImage" />
        <dc:title />
      </cc:Work>
    </rdf:RDF>
  </metadata>
  <g
     inkscape:label="Layer 1"
     inkscape:groupmode="layer"
     id="layer1"
     transform="translate(0,-994.51965)">
    <path
       transform="matrix(6.499045,0,0,6.4990422,93.344374,-296.27058)"
       d="m -5.0957031,200.15234 a 0.86905795,0.86905795 0 0 0 -0.5175781,0.20508 l -0.9746094,0.82617 a 0.86905795,0.86905795 0 0 0 -0.3046875,0.59766 l -0.5917969,0.18555 a 0.86905795,0.86905795 0 0 0 -0.4804688,0.375 l -0.8261718,1.34961 a 0.86905795,0.86905795 0 0 0 -0.1191406,0.58398 0.86905795,0.86905795 0 0 0 -0.6953126,0.0566 l -0.6074222,0.32813 a 0.86905795,0.86905795 0 0 0 -0.457031,0.76953 l 0.03125,4.48437 a 0.86905795,0.86905795 0 0 0 0.628906,0.83008 l 1.384766,0.39648 0.3183594,1.1211 a 0.86905795,0.86905795 0 0 0 0.6074218,0.59961 l 0.5996094,0.16211 -0.890625,0.5625 a 0.86905795,0.86905795 0 0 0 0.1757813,1.55273 l 2.3007812,0.81445 a 0.86905795,0.86905795 0 0 0 0.6308594,-0.0195 l 2.0742187,-0.88867 a 0.86905795,0.86905795 0 0 0 0.109375,-1.54297 l -0.7929687,-0.47851 -0.033203,-0.0918 1.0429687,-0.4668 A 0.86905795,0.86905795 0 0 0 -2,211.91211 l 0.2871094,-0.99805 1.52929685,-0.5957 a 0.86905795,0.86905795 0 0 0 0.5546875,-0.79297 l 0.0898438,-4.34961 a 0.86905795,0.86905795 0 0 0 -0.265625,-0.64258 l -0.64648438,-0.62304 a 0.86905795,0.86905795 0 0 0 -1.08789062,-0.0957 l -0.097656,-0.84375 a 0.86905795,0.86905795 0 0 0 -0.4453124,-0.66211 l -1.078125,-0.59179 a 0.86905795,0.86905795 0 0 0 -0.4121094,-0.81446 l -1.0253906,-0.625 a 0.86905795,0.86905795 0 0 0 -0.4980469,-0.125 z"
       id="path6033-9-0-9-7-3"
       style="fill:#000000;fill-opacity:1;stroke:none;stroke-width:0.26458332px;stroke-linecap:butt;stroke-linejoin:miter;stroke-opacity:1"
       inkscape:original="M -5.0507812 201.01953 L -6.0253906 201.8457 L -5.5507812 202.26953 L -7.2246094 202.79492 L -8.0507812 204.14453 L -2.375 204.14453 L -2.5 203.07031 L -4.2753906 202.0957 L -4.0253906 201.64453 L -5.0507812 201.01953 z M -1.0546875 204.53516 L -2.109375 205.2832 L -2.3496094 204.64453 L -5.2011719 204.5957 L -8.0507812 204.64453 L -8.3320312 205.58398 L -9.1933594 205.0957 L -9.8007812 205.42383 L -9.7695312 209.9082 L -7.921875 210.43945 L -7.4707031 212.02344 L -5.8261719 212.4707 L -6.4003906 213.60938 L -7.5253906 214.32031 L -5.2246094 215.13477 L -3.1503906 214.24609 L -4.2011719 213.60938 L -4.625 212.4707 L -2.8359375 211.67188 L -2.4296875 210.25977 L -0.49804688 209.50781 L -0.40820312 205.1582 L -1.0546875 204.53516 z M -1.9375 205.76953 L -1.2050781 205.97266 L -1.0996094 208.87109 L -2.4648438 209.37109 L -2.25 208.3457 L -1.59375 206.64648 L -1.9375 205.76953 z M -8.4921875 206.13477 L -8.6035156 206.49023 L -8.1503906 208.3457 L -7.9824219 209.57617 L -9.1679688 209.27148 L -9.0625 206.37305 L -8.4921875 206.13477 z "
       inkscape:radius="0.86897105"
       sodipodi:type="inkscape:offset" />
    <path
       sodipodi:nodetypes="ccccccccccccccccccccccccccccccccccccccccccccccc"
       inkscape:connector-curvature="0"
       id="path6033-6-6-9"
       d="m 60.734588,1010.5901 -6.337412,5.3602 3.086462,2.7641 -10.884863,3.4122 -5.363473,8.7723 h 36.882807 l -0.809398,-6.9857 -11.539765,-6.3374 1.625528,-2.9252 z m 25.971091,22.8412 -6.861359,4.8596 -1.561671,-4.1411 -18.52533,0.249 -18.522017,-0.249 -1.827001,6.1024 -5.605298,-3.1704 -3.939472,2.126 0.204732,29.1448 12.001973,3.4545 2.930025,10.2921 10.696532,2.9081 -3.737999,7.3952 -7.311422,4.628 14.95196,5.293 13.484223,-5.7799 -6.827773,-4.1411 -2.757276,-7.3952 11.626522,-5.1957 2.63875,-9.1715 12.555498,-4.8904 0.57776,-28.2715 z m -5.739637,8.0266 4.759003,1.3132 0.688433,18.8444 -8.881659,3.2518 1.398983,-6.6708 4.261945,-11.0393 z m -42.595519,2.3745 -0.725419,2.3141 2.942045,12.05 1.090416,7.9959 -7.703255,-1.9741 0.688451,-18.8443 z"
       style="fill:#ffd42a;stroke:none;stroke-width:1.71953845px;stroke-linecap:butt;stroke-linejoin:miter;stroke-opacity:1" />
    <path
       sodipodi:nodetypes="ccccc"
       inkscape:connector-curvature="0"
       id="path6090-4-0-3"
       d="m 77.763903,1070.6401 -5.934271,6.2107 -10.662539,9.2474 13.95806,-6.2866 z"
       style="fill:#947600;fill-opacity:1;stroke:none;stroke-width:1.71953845px;stroke-linecap:butt;stroke-linejoin:miter;stroke-opacity:1" />
    <path
       inkscape:connector-curvature="0"
       id="path6092-6-2-1"
       d="m 41.235302,1030.8989 31.46422,-3.7006 5.418587,3.7006 z"
       style="fill:#947600;fill-opacity:1;stroke:none;stroke-width:1.71953845px;stroke-linecap:butt;stroke-linejoin:miter;stroke-opacity:1"
       sodipodi:nodetypes="cccc" />
    <path
       inkscape:connector-curvature="0"
       id="path6094-2-7-9"
       d="m 72.699522,1027.1983 4.609189,-3.2851 0.809398,6.9857 z"
       style="fill:#947600;fill-opacity:1;stroke:none;stroke-width:1.71953845px;stroke-linecap:butt;stroke-linejoin:miter;stroke-opacity:1"
       sodipodi:nodetypes="cccc" />
    <path
       inkscape:connector-curvature="0"
       id="path6096-5-6-4"
       d="m 78.58817,1070.2865 8.936648,-5.7682 2.794582,1.2314 z"
       style="fill:#947600;fill-opacity:1;stroke:none;stroke-width:1.71953845px;stroke-linecap:butt;stroke-linejoin:miter;stroke-opacity:1"
       sodipodi:nodetypes="cccc" />
    <path
       inkscape:connector-curvature="0"
       id="path6098-8-1-7"
       d="m 66.255906,1092.4025 -6.656449,9.921 13.484223,-5.7799 z"
       style="fill:#947600;fill-opacity:1;stroke:none;stroke-width:1.71953845px;stroke-linecap:butt;stroke-linejoin:miter;stroke-opacity:1" />
    <path
       inkscape:connector-curvature="0"
       id="path6102-6-3-8"
       d="m 67.394474,1014.6506 -2.792249,4.92 -0.627799,-3.3366 z"
       style="fill:#947600;fill-opacity:1;stroke:none;stroke-width:1.71953845px;stroke-linecap:butt;stroke-linejoin:miter;stroke-opacity:1"
       sodipodi:nodetypes="cccc" />
    <path
       inkscape:connector-curvature="0"
       id="path6104-2-2-4"
       d="m 33.97431,1064.2183 -1.082795,-20.0604 1.771246,1.2161 z"
       style="fill:#947600;fill-opacity:1;stroke:none;stroke-width:1.71953845px;stroke-linecap:butt;stroke-linejoin:miter;stroke-opacity:1" />
    <path
       inkscape:connector-curvature="0"
       id="path6106-8-1-5"
       d="m 32.891515,1044.1579 5.479008,-0.3257 -3.707762,1.5418 z"
       style="fill:#947600;fill-opacity:1;stroke:none;stroke-width:1.71953845px;stroke-linecap:butt;stroke-linejoin:miter;stroke-opacity:1" />
    <path
       inkscape:connector-curvature="0"
       id="path6108-4-5-0"
       d="m 57.483638,1018.7144 0.540062,-2.544 -3.626079,-0.2203 z"
       style="fill:#ffeeaa;fill-opacity:1;stroke:none;stroke-width:1.71953845px;stroke-linecap:butt;stroke-linejoin:miter;stroke-opacity:1"
       sodipodi:nodetypes="cccc" />
    <path
       inkscape:connector-curvature="0"
       id="path6110-7-9-3"
       d="m 58.023505,1016.1704 2.711083,-5.5803 -6.337412,5.36 z"
       style="fill:#ffeeaa;fill-opacity:1;stroke:none;stroke-width:1.71953845px;stroke-linecap:butt;stroke-linejoin:miter;stroke-opacity:1"
       sodipodi:nodetypes="cccc" />
    <path
       sodipodi:nodetypes="ccccc"
       inkscape:connector-curvature="0"
       id="path6112-2-9-6"
       d="m 38.860742,1042.4204 2.37456,-8.2706 h 37.047347 l -32.065949,4.0567 z"
       style="fill:#ffeeaa;fill-opacity:1;stroke:none;stroke-width:1.71953845px;stroke-linecap:butt;stroke-linejoin:miter;stroke-opacity:1" />
    <path
       inkscape:connector-curvature="0"
       id="path6114-4-1-1"
       d="m 33.803003,1037.0818 -2.002955,3.5718 -1.936517,-1.4458 z"
       style="fill:#ffeeaa;fill-opacity:1;stroke:none;stroke-width:1.71953845px;stroke-linecap:butt;stroke-linejoin:miter;stroke-opacity:1" />
    <path
       inkscape:connector-curvature="0"
       id="path6116-0-4-0"
       d="m 31.800048,1040.6536 -1.731661,27.699 -0.204713,-29.1448 z"
       style="fill:#ffeeaa;fill-opacity:1;stroke:none;stroke-width:1.71953845px;stroke-linecap:butt;stroke-linejoin:miter;stroke-opacity:1" />
    <path
       inkscape:connector-curvature="0"
       id="path6118-6-9-6"
       d="m 87.524818,1064.5183 3.372218,-27.0401 -0.57776,28.2715 z"
       style="fill:#947600;fill-opacity:1;stroke:none;stroke-width:1.71953845px;stroke-linecap:butt;stroke-linejoin:miter;stroke-opacity:1" />
    <path
       transform="matrix(1.7807372,0,0,1.7807372,-1062.8263,-878.16245)"
       sodipodi:type="inkscape:offset"
       inkscape:radius="2.23769"
       inkscape:original="M 647.60156 1092.9844 L 641.98242 1093.7383 L 642.80664 1096.4102 L 641.3125 1097.5273 L 638.87695 1096.6836 L 636.17578 1101.666 L 638.81836 1102.5762 L 638.51367 1104.416 L 636.16797 1105.4902 L 637.66406 1110.957 L 640.20117 1109.7871 L 641.50586 1111.1191 L 640.99414 1113.6465 L 646.29297 1115.6602 L 646.84375 1112.9199 L 648.66797 1112.5371 L 650.51953 1114.3301 L 655.07227 1110.9531 L 653.05859 1109.0137 L 654.05859 1107.1621 L 656.63672 1107.2227 L 657.69141 1101.6543 L 654.89453 1101.5938 L 654.25586 1099.8418 L 655.76367 1097.752 L 651.76758 1093.7324 L 650.13672 1096.002 L 648.35547 1095.4531 L 647.60156 1092.9844 z M 647.86523 1100.1855 L 650.51953 1103.2285 L 649.73633 1107.082 L 646.41602 1108.2422 L 642.71875 1105.498 L 643.82617 1101.0156 L 647.86523 1100.1855 z "
       style="fill:#000000;stroke:none;stroke-width:0.36252534px;stroke-linecap:butt;stroke-linejoin:miter;stroke-opacity:1"
       id="path5816-22-9-1-8"
       d="m 647.54297,1090.748 a 2.2379137,2.2379137 0 0 0 -0.23828,0.018 l -5.61914,0.7539 a 2.2379137,2.2379137 0 0 0 -1.8418,2.8789 l 0.0859,0.2813 -0.32031,-0.1113 a 2.2379137,2.2379137 0 0 0 -2.69922,1.0488 l -2.70118,4.9824 a 2.2379137,2.2379137 0 0 0 0.80274,2.9766 2.2379137,2.2379137 0 0 0 -1.00195,2.5039 l 1.49609,5.4668 a 2.2379137,2.2379137 0 0 0 3.0957,1.4414 l 0.26758,-0.1231 -0.0684,0.3379 a 2.2379137,2.2379137 0 0 0 1.39844,2.5352 l 5.29883,2.0137 a 2.2379137,2.2379137 0 0 0 2.98828,-1.6504 l 0.10547,-0.5235 0.37109,0.3594 a 2.2379137,2.2379137 0 0 0 2.89063,0.1895 l 4.55273,-3.377 a 2.2379137,2.2379137 0 0 0 0.32422,-3.2949 2.2379137,2.2379137 0 0 0 2.10547,-1.8164 l 1.05468,-5.5684 a 2.2379137,2.2379137 0 0 0 -2.15039,-2.6523 l -0.41406,-0.01 0.25195,-0.3477 a 2.2379137,2.2379137 0 0 0 -0.22656,-2.8867 l -3.99609,-4.0195 a 2.2379137,2.2379137 0 0 0 -3.4043,0.2715 l -0.12695,0.1758 -0.082,-0.2715 a 2.2379137,2.2379137 0 0 0 -2.19922,-1.5821 z m -0.50586,11.8926 1.07031,1.2266 -0.31054,1.5215 -1,0.3496 -1.54883,-1.1504 0.41211,-1.6641 z" />
    <path
       inkscape:connector-curvature="0"
       id="path6120-2-1-3"
       d="m 79.84432,1038.2909 6.868054,-2.2074 -0.0071,-2.6522 z"
       style="fill:#ffdd55;fill-opacity:1;stroke:none;stroke-width:1.71953845px;stroke-linecap:butt;stroke-linejoin:miter;stroke-opacity:1" />
    <path
       inkscape:connector-curvature="0"
       id="path6122-9-0-2"
       d="m 77.010722,1067.2516 1.92008,-9.0551 -3.865179,1.199 z"
       style="fill:#947600;fill-opacity:1;stroke:none;stroke-width:1.71953845px;stroke-linecap:butt;stroke-linejoin:miter;stroke-opacity:1"
       sodipodi:nodetypes="cccc" />
    <path
       inkscape:connector-curvature="0"
       id="path6124-9-7-0"
       d="m 75.065623,1059.3955 8.127124,-12.2383 -4.261945,11.0393 z"
       style="fill:#947600;fill-opacity:1;stroke:none;stroke-width:1.71953845px;stroke-linecap:butt;stroke-linejoin:miter;stroke-opacity:1"
       sodipodi:nodetypes="cccc" />
    <path
       inkscape:connector-curvature="0"
       id="path5816-22-9-1"
       d="m 90.382812,1068.1581 -10.004947,1.3427 1.465119,4.7574 -2.65791,1.9884 -4.339889,-1.5031 -4.808934,8.8741 4.706809,1.6201 -0.544692,3.2744 -4.174742,1.9142 2.661703,9.7363 4.520188,-2.0842 2.323773,2.3704 -0.912859,4.5001 9.43504,3.5871 0.980955,-4.8808 3.247975,-0.6808 3.299699,3.1936 8.10483,-6.0155 -3.58337,-3.4548 1.78032,-3.2971 4.59082,0.1087 1.87616,-9.918 -4.97789,-0.1087 -1.13981,-3.1168 2.6869,-3.7233 -7.11633,-7.1581 -2.90502,4.0425 -3.172326,-0.976 z m 0.467782,12.823 4.729506,5.4191 -1.39577,6.8592 -5.912208,2.0691 -6.584222,-4.8896 1.970724,-7.9802 z"
       style="fill:#666666;stroke:none;stroke-width:0.64556235px;stroke-linecap:butt;stroke-linejoin:miter;stroke-opacity:1" />
    <path
       inkscape:connector-curvature="0"
       id="path5836-4-3-5"
       d="m 78.616431,1104.9489 3.386535,-0.6658 6.048505,4.2529 z"
       style="fill:#454545;fill-opacity:1;stroke:none;stroke-width:0.76315784px;stroke-linecap:butt;stroke-linejoin:miter;stroke-opacity:1"
       sodipodi:nodetypes="cccc" />
    <path
       inkscape:connector-curvature="0"
       id="path5838-7-3-5"
       d="m 79.52929,1100.4488 2.473676,3.8343 -3.386535,0.6658 z"
       style="fill:#2e2e2e;fill-opacity:1;stroke:none;stroke-width:0.76315784px;stroke-linecap:butt;stroke-linejoin:miter;stroke-opacity:1"
       sodipodi:nodetypes="cccc" />
    <path
       sodipodi:nodetypes="cccc"
       inkscape:connector-curvature="0"
       id="path5840-7-8-4"
       d="m 95.5801,1106.168 3.24047,-5.0716 4.86436,-0.9437 z"
       style="fill:#454545;fill-opacity:1;stroke:none;stroke-width:0.76315784px;stroke-linecap:butt;stroke-linejoin:miter;stroke-opacity:1" />
    <path
       sodipodi:nodetypes="cccc"
       inkscape:connector-curvature="0"
       id="path5842-5-0-7"
       d="m 92.280401,1102.9744 3.299699,3.1936 3.24047,-5.0716 z"
       style="fill:#2e2e2e;fill-opacity:1;stroke:none;stroke-width:0.76315784px;stroke-linecap:butt;stroke-linejoin:miter;stroke-opacity:1" />
    <path
       sodipodi:nodetypes="ccccccccccc"
       inkscape:connector-curvature="0"
       id="path5844-4-5-6"
       d="m 90.850594,1080.9811 7.339396,3.0315 1.49518,4.8078 -1.3932,5.804 -6.628915,3.1617 -4.181313,-0.918 -5.793842,-6.4292 6.584222,4.8896 5.912208,-2.0691 1.39577,-6.8592 z"
       style="fill:#2e2e2e;fill-opacity:1;stroke:none;stroke-width:0.76315784px;stroke-linecap:butt;stroke-linejoin:miter;stroke-opacity:1" />
    <path
       inkscape:connector-curvature="0"
       id="path5846-8-6-5"
       d="m 90.382812,1068.1581 -7.621057,2.9814 -2.38389,-1.6387 z"
       style="fill:#9e9e9e;fill-opacity:1;stroke:none;stroke-width:0.76315784px;stroke-linecap:butt;stroke-linejoin:miter;stroke-opacity:1"
       sodipodi:nodetypes="cccc" />
    <path
       inkscape:connector-curvature="0"
       id="path5848-1-6-6"
       d="m 82.761755,1071.1395 -0.918789,3.1187 -1.465101,-4.7574 z"
       style="fill:#b1b1b1;fill-opacity:1;stroke:none;stroke-width:0.76315784px;stroke-linecap:butt;stroke-linejoin:miter;stroke-opacity:1"
       sodipodi:nodetypes="cccc" />
    <path
       inkscape:connector-curvature="0"
       id="path5850-2-4-9"
       d="m 70.036251,1083.6176 5.449394,-6.0671 -0.64046,-2.807 z"
       style="fill:#b1b1b1;fill-opacity:1;stroke:none;stroke-width:0.76315784px;stroke-linecap:butt;stroke-linejoin:miter;stroke-opacity:1"
       sodipodi:nodetypes="cccc" />
    <path
       inkscape:connector-curvature="0"
       id="path5852-8-0-3"
       d="m 75.485645,1077.5505 3.699446,-1.3039 -4.339906,-1.5031 z"
       style="fill:#9e9e9e;fill-opacity:1;stroke:none;stroke-width:0.76315784px;stroke-linecap:butt;stroke-linejoin:miter;stroke-opacity:1"
       sodipodi:nodetypes="cccc" />
    <path
       inkscape:connector-curvature="0"
       id="path5856-3-0-7"
       d="m 105.94724,1085.1519 2.40164,-1.5608 -1.87618,9.918 z"
       style="fill:#454545;fill-opacity:1;stroke:none;stroke-width:0.76315784px;stroke-linecap:butt;stroke-linejoin:miter;stroke-opacity:1"
       sodipodi:nodetypes="cccc" />
    <path
       style="fill:#b1b1b1;fill-opacity:1;stroke:none;stroke-width:0.53055489px;stroke-linecap:butt;stroke-linejoin:miter;stroke-opacity:1"
       d="m 97.80173,1069.4846 0.17594,4.665 -3.08094,-0.6229 z"
       id="path4727-4-4"
       inkscape:connector-curvature="0"
       sodipodi:nodetypes="cccc" />
    <path
       style="fill:#b1b1b1;fill-opacity:1;stroke:none;stroke-width:0.53055489px;stroke-linecap:butt;stroke-linejoin:miter;stroke-opacity:1"
       d="m 74.198368,1088.5123 -4.174742,1.914 2.897402,2.308 z"
       id="path4729-6-5"
       inkscape:connector-curvature="0" />
  </g>
</svg>
