<?xml version="1.0" encoding="UTF-8" standalone="no"?>
<!-- Created with Inkscape (http://www.inkscape.org/) -->

<svg
   xmlns:dc="http://purl.org/dc/elements/1.1/"
   xmlns:cc="http://creativecommons.org/ns#"
   xmlns:rdf="http://www.w3.org/1999/02/22-rdf-syntax-ns#"
   xmlns:svg="http://www.w3.org/2000/svg"
   xmlns="http://www.w3.org/2000/svg"
   xmlns:sodipodi="http://sodipodi.sourceforge.net/DTD/sodipodi-0.dtd"
   xmlns:inkscape="http://www.inkscape.org/namespaces/inkscape"
   width="128"
   height="128"
   viewBox="0 0 128 128.00001"
   version="1.1"
   id="svg6294"
   inkscape:version="0.92.3 (2405546, 2018-03-11)"
   sodipodi:docname="green_check.svg">
  <defs
     id="defs6288" />
  <sodipodi:namedview
     id="base"
     pagecolor="#ffffff"
     bordercolor="#666666"
     borderopacity="1.0"
     inkscape:pageopacity="0.0"
     inkscape:pageshadow="2"
     inkscape:zoom="2.1832557"
     inkscape:cx="15.209465"
     inkscape:cy="55.898017"
     inkscape:document-units="px"
     inkscape:current-layer="layer1"
     showgrid="false"
     units="px"
     inkscape:window-width="1366"
     inkscape:window-height="713"
     inkscape:window-x="0"
     inkscape:window-y="27"
     inkscape:window-maximized="1" />
  <metadata
     id="metadata6291">
    <rdf:RDF>
      <cc:Work
         rdf:about="">
        <dc:format>image/svg+xml</dc:format>
        <dc:type
           rdf:resource="http://purl.org/dc/dcmitype/StillImage" />
        <dc:title></dc:title>
      </cc:Work>
    </rdf:RDF>
  </metadata>
  <g
     inkscape:label="Layer 1"
     inkscape:groupmode="layer"
     id="layer1"
     transform="translate(0,-994.51965)">
    <path
       transform="matrix(5.5001935,0,0,5.5001912,-3124.2918,1298.3095)"
       d="m 577.60547,-52.736328 a 1.3671547,1.3671547 0 0 0 -0.85156,0.322266 l -5.92188,4.996093 a 1.3671547,1.3671547 0 0 0 -0.48242,0.935547 l -0.49414,6.167969 a 1.3671547,1.3671547 0 0 0 0.2168,0.853515 l 2.83789,4.378907 a 1.3671547,1.3671547 0 0 0 1.01562,0.617187 l 7.09375,0.679688 a 1.3671547,1.3671547 0 0 0 1.01172,-0.314453 L 589,-39.960938 a 1.3671547,1.3671547 0 0 0 0.45703,-1.330078 l -1.66406,-7.832031 a 1.3671547,1.3671547 0 0 0 -0.96094,-1.03125 l -8.82031,-2.529297 a 1.3671547,1.3671547 0 0 0 -0.40625,-0.05273 z"
       id="path4377-8-3-4"
       style="fill:#090909;fill-opacity:1;stroke:none;stroke-width:0.26458332px;stroke-linecap:butt;stroke-linejoin:miter;stroke-opacity:1"
       inkscape:original="M 577.63477 -51.369141 L 571.71289 -46.373047 L 571.21875 -40.205078 L 574.05664 -35.826172 L 581.15039 -35.146484 L 588.11914 -41.007812 L 586.45508 -48.839844 L 577.63477 -51.369141 z "
       inkscape:radius="1.367018"
       sodipodi:type="inkscape:offset" />
    <path
       inkscape:connector-curvature="0"
       id="path4377-1-2"
       d="m 20.239577,1043.2482 32.568428,-27.4792 48.512905,13.9091 9.15996,43.0852 -38.335646,32.229 -39.01401,-3.7318 -15.605699,-24.0868 z"
       style="fill:#e6e6e6;stroke:none;stroke-width:1.45525908px;stroke-linecap:butt;stroke-linejoin:miter;stroke-opacity:1" />
    <path
       sodipodi:nodetypes="cccc"
       inkscape:connector-curvature="0"
       id="path4381-8-2"
       d="m 33.131214,1101.2605 43.705582,-4.48 -4.691572,8.2118 z"
       style="fill:#999999;stroke:none;stroke-width:1.45525908px;stroke-linecap:butt;stroke-linejoin:miter;stroke-opacity:1" />
    <path
       sodipodi:nodetypes="cccc"
       inkscape:connector-curvature="0"
       id="path4383-9-2"
       d="m 76.836796,1096.7805 33.643924,-24.0172 -38.335496,32.229 z"
       style="fill:#b3b3b3;stroke:none;stroke-width:1.45525908px;stroke-linecap:butt;stroke-linejoin:miter;stroke-opacity:1" />
    <path
       sodipodi:nodetypes="cccc"
       inkscape:connector-curvature="0"
       id="path4385-6-0"
       d="m 110.48072,1072.7633 -10.37811,-38.6774 1.2183,-4.4078 z"
       style="fill:#999999;stroke:none;stroke-width:1.45525908px;stroke-linecap:butt;stroke-linejoin:miter;stroke-opacity:1" />
    <path
       sodipodi:nodetypes="ccccccc"
       inkscape:connector-curvature="0"
       id="path6914-4-5"
       d="m 31.711899,1068.5768 7.966501,-7.9552 16.476571,14.6773 31.775883,-35.4426 7.027369,7.0273 -37.27557,42.7755 z"
       style="fill:#5dc223;fill-opacity:1;stroke:none;stroke-width:1.22215319px;stroke-linecap:butt;stroke-linejoin:miter;stroke-opacity:1" />
    <path
       inkscape:connector-curvature="0"
       id="path4387-3-5"
       d="m 17.525515,1077.1737 9.348226,-29.3852 -6.634164,-4.5403 z"
       style="fill:#f2f2f2;stroke:none;stroke-width:1.45525908px;stroke-linecap:butt;stroke-linejoin:miter;stroke-opacity:1" />
    <path
       inkscape:connector-curvature="0"
       id="path4389-3-2"
       d="m 26.873741,1047.7885 25.934107,-32.0195 -32.568271,27.4792 z"
       style="fill:#ffffff;stroke:none;stroke-width:1.45525908px;stroke-linecap:butt;stroke-linejoin:miter;stroke-opacity:1" />
  </g>
</svg>
