<?xml version="1.0" encoding="UTF-8" standalone="no"?>
<!-- Created with Inkscape (http://www.inkscape.org/) -->

<svg
   xmlns:dc="http://purl.org/dc/elements/1.1/"
   xmlns:cc="http://creativecommons.org/ns#"
   xmlns:rdf="http://www.w3.org/1999/02/22-rdf-syntax-ns#"
   xmlns:svg="http://www.w3.org/2000/svg"
   xmlns="http://www.w3.org/2000/svg"
   xmlns:sodipodi="http://sodipodi.sourceforge.net/DTD/sodipodi-0.dtd"
   xmlns:inkscape="http://www.inkscape.org/namespaces/inkscape"
   width="128"
   height="128"
   viewBox="0 0 128 128.00001"
   version="1.1"
   id="svg6294"
   inkscape:version="0.92.3 (2405546, 2018-03-11)"
   sodipodi:docname="hourglass.svg">
  <defs
     id="defs6288" />
  <sodipodi:namedview
     id="base"
     pagecolor="#ffffff"
     bordercolor="#666666"
     borderopacity="1.0"
     inkscape:pageopacity="0.0"
     inkscape:pageshadow="2"
     inkscape:zoom="2.1832557"
     inkscape:cx="15.209465"
     inkscape:cy="55.898017"
     inkscape:document-units="px"
     inkscape:current-layer="layer1"
     showgrid="false"
     units="px"
     inkscape:window-width="1366"
     inkscape:window-height="713"
     inkscape:window-x="0"
     inkscape:window-y="27"
     inkscape:window-maximized="1" />
  <metadata
     id="metadata6291">
    <rdf:RDF>
      <cc:Work
         rdf:about="">
        <dc:format>image/svg+xml</dc:format>
        <dc:type
           rdf:resource="http://purl.org/dc/dcmitype/StillImage" />
        <dc:title></dc:title>
      </cc:Work>
    </rdf:RDF>
  </metadata>
  <g
     inkscape:label="Layer 1"
     inkscape:groupmode="layer"
     id="layer1"
     transform="translate(0,-994.51965)">
    <path
       transform="matrix(1.5598189,0,0,1.5598189,-5193.9993,-633.11646)"
       sodipodi:type="inkscape:offset"
       inkscape:radius="3.8417189"
       inkscape:original="M 3352.9941 1053.7305 L 3353.2832 1063.2109 L 3355.6777 1063.1094 L 3368.3848 1084.8223 L 3368.3848 1088.6758 L 3355.2871 1105.7793 L 3352.9473 1105.6562 L 3353.166 1114.7305 L 3390.627 1115.2852 L 3391.9531 1107.7031 L 3389.4805 1107.5742 L 3374.416 1088.0059 L 3374.248 1084.8223 L 3387.5664 1061.7598 L 3389.7031 1061.6699 L 3389.3184 1053.9688 L 3352.9941 1053.7305 z "
       style="fill:#000000;stroke:none;stroke-width:0.83331621px;stroke-linecap:butt;stroke-linejoin:miter;stroke-opacity:1"
       id="path9095-6"
       d="m 3353.0195,1049.8887 a 3.8421031,3.8421031 0 0 0 -3.8652,3.959 l 0.2891,9.4804 a 3.8421031,3.8421031 0 0 0 4.0019,3.7207 l 0.084,-0 11.0137,18.8184 v 1.5097 l -11.0762,14.4629 -0.3184,-0.016 a 3.8421031,3.8421031 0 0 0 -4.041,3.9277 l 0.2188,9.0743 a 3.8421031,3.8421031 0 0 0 3.7832,3.75 l 37.4609,0.5547 a 3.8421031,3.8421031 0 0 0 3.8418,-3.1797 l 1.3262,-7.5821 a 3.8421031,3.8421031 0 0 0 -3.586,-4.498 l -0.707,-0.037 -13.2558,-17.2207 -0.045,-0.8516 11.6934,-20.248 0.027,-0 a 3.8421031,3.8421031 0 0 0 3.6739,-4.0293 l -0.3829,-7.7012 a 3.8421031,3.8421031 0 0 0 -3.8124,-3.6503 z" />
    <path
       style="fill:#cccccc;stroke:none;stroke-width:1.29982245px;stroke-linecap:butt;stroke-linejoin:miter;stroke-opacity:1"
       d="m 39.421397,1023.725 20.648571,35.2854 v 6.0116 l -22.216813,29.0126 56.979714,2.875 -25.353449,-32.933 -0.26127,-4.9662 21.432539,-37.1151 z"
       id="path9095"
       inkscape:connector-curvature="0"
       sodipodi:nodetypes="ccccccccc" />
    <path
       style="fill:#6c5353;fill-opacity:1;stroke:none;stroke-width:1.16902637px;stroke-linecap:butt;stroke-linejoin:miter;stroke-opacity:1"
       d="m 36.514674,1025.2998 56.808295,-2.4026 -0.59804,-12.0132 -56.658859,-0.3696 z"
       id="path9097"
       inkscape:connector-curvature="0"
       sodipodi:nodetypes="ccccc" />
    <path
       style="fill:#ffdd55;stroke:none;stroke-width:1.29982245px;stroke-linecap:butt;stroke-linejoin:miter;stroke-opacity:1"
       d="m 37.853155,1094.0346 25.861798,-17.1702 31.117916,20.0452 z"
       id="path9105"
       inkscape:connector-curvature="0" />
    <path
       style="fill:#e6e6e6;stroke:none;stroke-width:1.29982245px;stroke-linecap:butt;stroke-linejoin:miter;stroke-opacity:1"
       d="m 37.853155,1094.0346 29.579158,-24.5731 -7.362345,-10.4511 v 6.0116 z"
       id="path9123"
       inkscape:connector-curvature="0"
       sodipodi:nodetypes="ccccc" />
    <path
       style="fill:#ffd42a;stroke:none;stroke-width:1.29982245px;stroke-linecap:butt;stroke-linejoin:miter;stroke-opacity:1"
       d="m 63.714953,1076.8644 16.506784,20.934 14.611132,-0.8888 z"
       id="path9133"
       inkscape:connector-curvature="0"
       sodipodi:nodetypes="cccc" />
    <path
       style="fill:#6c5353;stroke:none;stroke-width:1.20665038px;stroke-linecap:butt;stroke-linejoin:miter;stroke-opacity:1"
       d="m 35.992135,1091.5074 60.842294,3.1921 -2.07034,11.8286 -58.430666,-0.8663 z"
       id="path9099"
       inkscape:connector-curvature="0"
       sodipodi:nodetypes="ccccc" />
    <path
       style="fill:#483737;stroke:none;stroke-width:1.16902637px;stroke-linecap:butt;stroke-linejoin:miter;stroke-opacity:1"
       d="m 36.514674,1025.2998 2.454843,-9.8082 -2.903447,-4.9772 z"
       id="path9107"
       inkscape:connector-curvature="0" />
    <path
       style="fill:#483737;stroke:none;stroke-width:1.16902637px;stroke-linecap:butt;stroke-linejoin:miter;stroke-opacity:1"
       d="m 38.969517,1015.4916 53.755412,-4.6076 -56.658859,-0.3696 z"
       id="path9109"
       inkscape:connector-curvature="0" />
    <path
       style="fill:#916f6f;stroke:none;stroke-width:1.16902637px;stroke-linecap:butt;stroke-linejoin:miter;stroke-opacity:1"
       d="m 36.514674,1025.2998 51.821085,-6.6717 4.98721,4.2691 z"
       id="path9111"
       inkscape:connector-curvature="0" />
    <path
       style="fill:#916f6f;stroke:none;stroke-width:1.16902637px;stroke-linecap:butt;stroke-linejoin:miter;stroke-opacity:1"
       d="m 88.335759,1018.6281 4.38917,-7.7441 0.59804,12.0132 z"
       id="path9113"
       inkscape:connector-curvature="0" />
    <path
       style="fill:#483737;fill-opacity:1;stroke:none;stroke-width:1.20665038px;stroke-linecap:butt;stroke-linejoin:miter;stroke-opacity:1"
       d="m 36.333423,1105.6618 2.84433,-8.9292 -3.185618,-5.2252 z"
       id="path9115"
       inkscape:connector-curvature="0" />
    <path
       style="fill:#ffe680;fill-opacity:1;stroke:none;stroke-width:1.29982245px;stroke-linecap:butt;stroke-linejoin:miter;stroke-opacity:1"
       d="m 63.714953,1076.8644 0.667914,8.6625 -26.529712,8.5077 z"
       id="path9131"
       inkscape:connector-curvature="0"
       sodipodi:nodetypes="cccc" />
    <path
       style="fill:#483737;fill-opacity:1;stroke:none;stroke-width:1.20665038px;stroke-linecap:butt;stroke-linejoin:miter;stroke-opacity:1"
       d="m 39.177753,1096.7326 57.656676,-2.0331 -60.842294,-3.1921 z"
       id="path9117"
       inkscape:connector-curvature="0"
       sodipodi:nodetypes="cccc" />
    <path
       style="fill:#916f6f;fill-opacity:1;stroke:none;stroke-width:1.20665038px;stroke-linecap:butt;stroke-linejoin:miter;stroke-opacity:1"
       d="m 36.333423,1105.6618 55.932926,-1.8256 2.49774,2.6919 z"
       id="path9119"
       inkscape:connector-curvature="0" />
    <path
       style="fill:#916f6f;fill-opacity:1;stroke:none;stroke-width:1.20665038px;stroke-linecap:butt;stroke-linejoin:miter;stroke-opacity:1"
       d="m 92.266349,1103.8362 4.56808,-9.1367 -2.07034,11.8286 z"
       id="path9121"
       inkscape:connector-curvature="0" />
    <path
       style="fill:#999999;stroke:none;stroke-width:1.29982245px;stroke-linecap:butt;stroke-linejoin:miter;stroke-opacity:1"
       d="m 69.47942,1063.9766 -7.649664,-9.5678 28.820933,-32.5135 -21.432539,37.1151 z"
       id="path9127"
       inkscape:connector-curvature="0"
       sodipodi:nodetypes="ccccc" />
  </g>
</svg>
