<?xml version="1.0" encoding="UTF-8" standalone="no"?>
<!-- Created with Inkscape (http://www.inkscape.org/) -->

<svg
   xmlns:dc="http://purl.org/dc/elements/1.1/"
   xmlns:cc="http://creativecommons.org/ns#"
   xmlns:rdf="http://www.w3.org/1999/02/22-rdf-syntax-ns#"
   xmlns:svg="http://www.w3.org/2000/svg"
   xmlns="http://www.w3.org/2000/svg"
   xmlns:sodipodi="http://sodipodi.sourceforge.net/DTD/sodipodi-0.dtd"
   xmlns:inkscape="http://www.inkscape.org/namespaces/inkscape"
   width="128"
   height="128"
   viewBox="0 0 128 128.00001"
   version="1.1"
   id="svg6294"
   inkscape:version="0.92.3 (2405546, 2018-03-11)"
   sodipodi:docname="karts.svg">
  <defs
     id="defs6288" />
  <sodipodi:namedview
     id="base"
     pagecolor="#ffffff"
     bordercolor="#666666"
     borderopacity="1.0"
     inkscape:pageopacity="0.0"
     inkscape:pageshadow="2"
     inkscape:zoom="3.4984259"
     inkscape:cx="47.917654"
     inkscape:cy="69.236435"
     inkscape:document-units="px"
     inkscape:current-layer="layer1"
     showgrid="false"
     units="px"
     inkscape:window-width="1366"
     inkscape:window-height="713"
     inkscape:window-x="0"
     inkscape:window-y="27"
     inkscape:window-maximized="1" />
  <metadata
     id="metadata6291">
    <rdf:RDF>
      <cc:Work
         rdf:about="">
        <dc:format>image/svg+xml</dc:format>
        <dc:type
           rdf:resource="http://purl.org/dc/dcmitype/StillImage" />
        <dc:title></dc:title>
      </cc:Work>
    </rdf:RDF>
  </metadata>
  <g
     inkscape:label="Layer 1"
     inkscape:groupmode="layer"
     id="layer1"
     transform="translate(0,-994.51965)">
    <path
       sodipodi:type="inkscape:offset"
       inkscape:radius="10.101538"
       inkscape:original="M 6279.4316 1028.2578 L 6267.4355 1044.3574 L 6265.8574 1065.8223 L 6261.4375 1088.5508 L 6255.2383 1090.3223 L 6173.2949 1090.3223 L 6151.8301 1120.625 L 6195.9746 1120.5234 L 6203.125 1146.1816 L 6195.0898 1156.4492 L 6196.125 1166.8008 L 6147.3223 1168.502 L 6148.2148 1256.002 L 6204.9102 1255.5566 L 6204.5098 1242.2852 L 6381.8027 1241.1172 L 6381.9141 1252.0547 L 6438.6113 1251.6094 L 6435.9199 1162.6406 L 6387.0898 1164.3438 L 6388.1797 1153.4453 L 6380.1445 1143.1777 L 6386.5801 1120.0898 L 6428.3594 1119.9941 L 6406.8926 1090.3223 L 6324.4453 1090.3223 L 6318.8906 1087.9199 L 6313.8398 1066.1387 L 6310.0508 1042.7793 L 6297.7402 1028.2578 L 6279.4316 1028.2578 z M 6357.9766 1120.1543 L 6358.0547 1120.1543 L 6354.252 1141.3926 L 6345.9473 1149.2832 L 6357.6855 1120.1562 L 6357.9766 1120.1543 z M 6338.5371 1120.1992 L 6333.2891 1130.5742 L 6332.4805 1120.2129 L 6338.5371 1120.1992 z M 6248.0508 1120.4062 L 6247.6504 1128.3223 L 6243.6504 1120.416 L 6248.0508 1120.4062 z M 6224.918 1121.502 L 6237.3203 1152.2812 L 6229.0176 1144.3945 L 6224.918 1121.502 z M 6345.2832 1150.9297 L 6344.4316 1173.0254 L 6336.8379 1171.8867 L 6345.2832 1150.9297 z M 6237.9883 1153.9395 L 6244.7383 1170.6914 L 6238.6562 1171.3066 L 6237.9883 1153.9395 z M 6381.1816 1180.1816 L 6381.2773 1189.5547 L 6380.6914 1189.4434 L 6375.1172 1185.7949 L 6379.7734 1181.4863 L 6381.1816 1180.1816 z "
       style="fill:#000000;stroke:none;stroke-width:1px;stroke-linecap:butt;stroke-linejoin:miter;stroke-opacity:1"
       id="path7102-3-1-8"
       d="m 6279.4316,1018.1562 a 10.102548,10.102548 0 0 0 -8.0996,4.0665 l -11.9961,16.0996 a 10.102548,10.102548 0 0 0 -1.9746,5.2949 l -1.5351,20.8652 -3.0586,15.7383 h -79.4727 a 10.102548,10.102548 0 0 0 -8.2422,4.2617 l -21.4648,30.3028 a 10.102548,10.102548 0 0 0 8.2656,15.9414 l 36.4551,-0.084 3.7148,13.334 -4.8886,6.248 a 10.102548,10.102548 0 0 0 -2.1211,6.8555 l -38.043,1.3261 a 10.102548,10.102548 0 0 0 -9.75,10.1993 l 0.8926,87.5 a 10.102548,10.102548 0 0 0 10.1816,9.998 l 56.6953,-0.4453 a 10.102548,10.102548 0 0 0 10.0176,-10.4062 l -0.088,-2.9336 156.8848,-1.0332 0.01,0.873 a 10.102548,10.102548 0 0 0 10.1816,9.998 l 56.6973,-0.4453 a 10.102548,10.102548 0 0 0 10.0176,-10.4062 l -2.6914,-88.9688 a 10.102548,10.102548 0 0 0 -10.4492,-9.791 l -37.3067,1.3008 a 10.102548,10.102548 0 0 0 -2.1269,-6.625 l -4.8887,-6.248 3.0098,-10.7989 34.1269,-0.078 a 10.102548,10.102548 0 0 0 8.1602,-16.0234 l -21.4668,-29.6719 a 10.102548,10.102548 0 0 0 -8.1836,-4.1797 h -79.418 l -3.7187,-16.0332 -3.7344,-23.0254 a 10.102548,10.102548 0 0 0 -2.2656,-4.9141 l -12.3106,-14.5214 a 10.102548,10.102548 0 0 0 -7.7051,-3.5704 z m -32.9375,107.7618 -1.0937,1.7832 -1.2305,-1.2891 z m 134.4981,55.5273 0.2695,3.2246 -2.7226,-1.1719 z"
       transform="matrix(0.34671682,0,0,0.34671682,-2117.8775,669.54017)" />
    <path
       style="fill:#1a1a1a;stroke:none;stroke-width:0.34671682px;stroke-linecap:butt;stroke-linejoin:miter;stroke-opacity:1"
       d="m 48.03375,1055.0582 -1.3136,-3.3928 1.751161,-3.3928 4.596804,-1.3135 1.532197,-7.8806 0.547417,-7.4426 4.15923,-5.5818 h 6.347965 l 4.268533,5.0347 1.31342,8.0992 1.75099,7.5522 4.04992,1.7512 1.42254,4.2685 -0.98479,2.2983 z"
       id="path7102-7-4"
       inkscape:connector-curvature="0" />
    <path
       style="fill:#333333;stroke:none;stroke-width:0.34671682px;stroke-linecap:butt;stroke-linejoin:miter;stroke-opacity:1"
       d="m 94.530357,1073.3108 0.30931,30.3378 19.657813,-0.1548 -0.93324,-30.8468 z"
       id="path7066-6-2-7"
       inkscape:connector-curvature="0" />
    <path
       style="fill:#333333;stroke:none;stroke-width:0.34671682px;stroke-linecap:butt;stroke-linejoin:miter;stroke-opacity:1"
       d="m 13.502219,1074.6792 0.309865,30.3379 19.657251,-0.1549 -0.933058,-30.8463 z"
       id="path7066-72-2"
       inkscape:connector-curvature="0" />
    <path
       style="fill:#1a1a1a;stroke:none;stroke-width:0.34671682px;stroke-linecap:butt;stroke-linejoin:miter;stroke-opacity:1"
       d="m 33.469335,1104.8622 -0.933058,-30.8465 -3.407065,27.7345 z"
       id="path7134-2-4"
       inkscape:connector-curvature="0" />
    <path
       style="fill:#666666;stroke:none;stroke-width:0.34671682px;stroke-linecap:butt;stroke-linejoin:miter;stroke-opacity:1"
       d="m 96.464967,1076.0967 -1.6253,27.5519 -0.30931,-30.3378 z"
       id="path7130-9-61-0"
       inkscape:connector-curvature="0" />
    <path
       style="fill:#c83737;stroke:none;stroke-width:0.34671682px;stroke-linecap:butt;stroke-linejoin:miter;stroke-opacity:1"
       d="m 16.288459,1100.3735 0.774027,-9.7512 4.952933,-6.3463 8.203515,-2.3218 4.643612,-5.2626 16.871742,-1.7028 22.752989,0.1549 12.38278,1.8573 7.54572,4.9388 11.492903,2.1814 3.86959,5.5722 0.46434,10.0612 z"
       id="path7060-0-6"
       inkscape:connector-curvature="0" />
    <path
       style="fill:#de8787;stroke:none;stroke-width:0.34671682px;stroke-linecap:butt;stroke-linejoin:miter;stroke-opacity:1"
       d="m 74.487277,1075.1436 -22.264057,2.3087 -16.509226,1.9481 -0.851448,-2.7088 16.871742,-1.7028 z"
       id="path7120-6-2"
       inkscape:connector-curvature="0" />
    <path
       style="fill:#4d4d4d;stroke:none;stroke-width:0.34671682px;stroke-linecap:butt;stroke-linejoin:miter;stroke-opacity:1"
       d="m 32.536277,1074.0157 -17.098901,3.45 -1.935157,-2.7865 z"
       id="path7128-15-9"
       inkscape:connector-curvature="0" />
    <path
       style="fill:#d35f5f;stroke:none;stroke-width:0.34671682px;stroke-linecap:butt;stroke-linejoin:miter;stroke-opacity:1"
       d="m 34.862546,1076.6916 -4.643612,5.2626 -8.203515,2.3218 -4.952933,6.3463 -0.774027,9.7512 2.708638,-8.281 4.566374,-6.1139 7.971253,-2.0896 4.17927,-4.4886 z"
       id="path7122-9-9"
       inkscape:connector-curvature="0" />
    <path
       style="fill:#999999;stroke:none;stroke-width:0.34671682px;stroke-linecap:butt;stroke-linejoin:miter;stroke-opacity:1"
       d="m 30.218934,1057.4982 2.631398,9.442 -2.786058,3.56 0.773663,7.7392 4.179451,3.8697 6.96514,-0.3096 3.250586,-4.4889 -0.309684,-8.0488 -3.09537,-2.9407 -1.857739,-10.3707 z"
       id="path7041-4-0"
       inkscape:connector-curvature="0" />
    <path
       style="fill:#4d4d4d;stroke:none;stroke-width:0.34671682px;stroke-linecap:butt;stroke-linejoin:miter;stroke-opacity:1"
       d="m 113.56424,1072.6473 -17.099273,3.4494 -1.93461,-2.7859 z"
       id="path7128-4-90-8"
       inkscape:connector-curvature="0" />
    <path
       style="fill:#999999;stroke:none;stroke-width:0.34671682px;stroke-linecap:butt;stroke-linejoin:miter;stroke-opacity:1"
       d="m 96.857367,1056.4573 -2.63141,9.4419 2.78624,3.5602 -0.77403,7.739 -4.17891,3.8695 -6.96551,-0.3093 -3.2504,-4.4889 0.3095,-8.0489 3.09575,-2.9407 1.85737,-10.3707 z"
       id="path7041-9-9-1"
       inkscape:connector-curvature="0" />
    <path
       style="fill:#999999;stroke:none;stroke-width:0.34671682px;stroke-linecap:butt;stroke-linejoin:miter;stroke-opacity:1"
       d="m 54.302466,1072.6367 -9.302884,-18.3873 -6.348149,-0.2204 8.865508,21.9996 7.223454,-0.1132 z"
       id="path7083-1-3"
       inkscape:connector-curvature="0" />
    <path
       style="fill:#999999;stroke:none;stroke-width:0.34671682px;stroke-linecap:butt;stroke-linejoin:miter;stroke-opacity:1"
       d="m 72.330427,1072.6951 9.30306,-18.3874 6.34815,-0.2202 -8.86569,21.9991 -7.22345,-0.1075 z"
       id="path7083-0-7-1"
       inkscape:connector-curvature="0" />
    <path
       style="fill:#3771c8;stroke:none;stroke-width:0.34671682px;stroke-linecap:butt;stroke-linejoin:miter;stroke-opacity:1"
       d="m 48.5808,1054.9488 4.159229,-6.2386 5.581584,-2.4078 9.412925,-0.4379 6.128819,3.6116 3.61218,5.5821 1.64041,21.0296 -31.599006,-0.058 z"
       id="path7100-7-1"
       inkscape:connector-curvature="0"
       sodipodi:nodetypes="ccccccccc" />
    <path
       style="fill:#2a7fff;stroke:none;stroke-width:0.34671682px;stroke-linecap:butt;stroke-linejoin:miter;stroke-opacity:1"
       d="m 52.740029,1048.7102 -4.159229,6.2386 -1.063859,21.0808 2.901554,-20.7755 3.714738,-5.0305 z"
       id="path7118-1-0"
       inkscape:connector-curvature="0" />
    <path
       style="fill:#4d4d4d;stroke:none;stroke-width:0.34671682px;stroke-linecap:butt;stroke-linejoin:miter;stroke-opacity:1"
       d="m 52.19827,1079.0135 0.929038,-22.1344 19.347749,-0.3094 1.39322,22.9079 z"
       id="path7064-1-3"
       inkscape:connector-curvature="0" />
    <path
       style="fill:#000000;stroke:none;stroke-width:0.34671682px;stroke-linecap:butt;stroke-linejoin:miter;stroke-opacity:1"
       d="m 52.19827,1079.0135 21.670007,0.4641 -4.34013,-3.1123 z"
       id="path7132-8-5-4"
       inkscape:connector-curvature="0"
       sodipodi:nodetypes="cccc" />
    <path
       style="fill:#4d4d4d;stroke:none;stroke-width:0.34671682px;stroke-linecap:butt;stroke-linejoin:miter;stroke-opacity:1"
       d="m 48.174017,1087.5263 0.464533,10.0609 29.253967,-0.3093 0.15485,-9.9062 z"
       id="path7062-97-0"
       inkscape:connector-curvature="0" />
    <path
       style="fill:#4d4d4d;stroke:none;stroke-width:0.34671682px;stroke-linecap:butt;stroke-linejoin:miter;stroke-opacity:1"
       d="m 57.306225,1031.8814 -0.851274,7.662 -1.39285,7.2747 -6.59079,1.4545 4.596804,-1.3135 1.532197,-7.8806 0.547417,-7.4426 z"
       id="path7106-7-3"
       inkscape:connector-curvature="0"
       sodipodi:nodetypes="cccccccc" />
    <path
       style="fill:#5599ff;stroke:none;stroke-width:0.34671682px;stroke-linecap:butt;stroke-linejoin:miter;stroke-opacity:1"
       d="m 67.734538,1045.8645 -9.412925,0.4379 -5.581584,2.4078 1.393204,1.5134 4.721045,-2.3219 z"
       id="path7116-6-9"
       inkscape:connector-curvature="0" />
    <path
       style="fill:#b3b3b3;stroke:none;stroke-width:0.34671682px;stroke-linecap:butt;stroke-linejoin:miter;stroke-opacity:1"
       d="m 87.105967,1054.9094 -0.16031,11.7987 -4.79462,1.5127 3.09574,-2.9407 z"
       id="path7160-9-73-1"
       inkscape:connector-curvature="0"
       sodipodi:nodetypes="ccccc" />
    <path
       style="fill:#808080;stroke:none;stroke-width:0.34671682px;stroke-linecap:butt;stroke-linejoin:miter;stroke-opacity:1"
       d="m 72.475057,1056.5697 -16.529801,2.6255 -2.817948,-2.3161 z"
       id="path7128-1-6-9"
       inkscape:connector-curvature="0"
       sodipodi:nodetypes="cccc" />
    <path
       style="fill:#999999;stroke:none;stroke-width:0.34671682px;stroke-linecap:butt;stroke-linejoin:miter;stroke-opacity:1"
       d="m 57.306225,1080.561 h 11.454092 l 0.15484,-25.2297 -11.298894,0.1549 z"
       id="path7058-5-6"
       inkscape:connector-curvature="0" />
    <path
       style="fill:#cccccc;stroke:none;stroke-width:0.34671682px;stroke-linecap:butt;stroke-linejoin:miter;stroke-opacity:1"
       d="m 57.306225,1080.561 2.577104,-23.4942 -2.553794,-2.0119 z"
       id="path7227-6-9"
       inkscape:connector-curvature="0"
       sodipodi:nodetypes="cccc" />
    <path
       style="fill:#b3b3b3;stroke:none;stroke-width:0.34671682px;stroke-linecap:butt;stroke-linejoin:miter;stroke-opacity:1"
       d="m 59.883329,1057.0668 8.900298,-2.0119 H 57.329535 Z"
       id="path7229-3-3"
       inkscape:connector-curvature="0" />
    <path
       style="fill:#666666;stroke:none;stroke-width:0.34671682px;stroke-linecap:butt;stroke-linejoin:miter;stroke-opacity:1"
       d="m 68.915157,1055.3313 -0.15484,25.2297 -2.221164,-2.5981 z"
       id="path7223-9-3"
       inkscape:connector-curvature="0"
       sodipodi:nodetypes="cccc" />
    <path
       style="fill:#c83737;stroke:none;stroke-width:0.34671682px;stroke-linecap:butt;stroke-linejoin:miter;stroke-opacity:1"
       d="m 22.507816,1047.5728 h 80.992244 l 7.44244,10.2881 -95.877472,0.2204 z"
       id="path7039-4-8"
       inkscape:connector-curvature="0" />
    <path
       style="fill:#333333;stroke:none;stroke-width:0.34671682px;stroke-linecap:butt;stroke-linejoin:miter;stroke-opacity:1"
       d="m 65.654924,1026.0541 -5.64007,1.8029 -2.708629,4.0244 -2.158496,-0.2449 4.15923,-5.5821 z"
       id="path7104-8-0"
       inkscape:connector-curvature="0" />
    <path
       style="fill:#de8787;stroke:none;stroke-width:0.34671682px;stroke-linecap:butt;stroke-linejoin:miter;stroke-opacity:1"
       d="m 15.065028,1058.0798 9.581789,-7.5467 -2.139001,-2.9603 z"
       id="path7108-12-5"
       inkscape:connector-curvature="0" />
    <path
       style="fill:#d35f5f;stroke:none;stroke-width:0.34671682px;stroke-linecap:butt;stroke-linejoin:miter;stroke-opacity:1"
       d="m 24.646817,1050.5331 78.853243,-2.9603 H 22.507816 Z"
       id="path7110-9-6"
       inkscape:connector-curvature="0" />
    <path
       style="fill:#666666;stroke:none;stroke-width:0.34671682px;stroke-linecap:butt;stroke-linejoin:miter;stroke-opacity:1"
       d="m 55.945256,1059.1952 -3.746986,19.8183 0.929038,-22.1344 z"
       id="path7130-4-3-6"
       inkscape:connector-curvature="0"
       sodipodi:nodetypes="cccc" />
    <path
       style="fill:#782121;stroke:none;stroke-width:0.34671682px;stroke-linecap:butt;stroke-linejoin:miter;stroke-opacity:1"
       d="m 15.065028,1058.0798 89.141122,-3.5223 6.73635,3.3034 z"
       id="path7112-9-4"
       inkscape:connector-curvature="0" />
    <path
       style="fill:#a02c2c;stroke:none;stroke-width:0.34671682px;stroke-linecap:butt;stroke-linejoin:miter;stroke-opacity:1"
       d="m 104.20615,1054.5575 -0.70609,-6.9847 7.44244,10.2881 c 0.0255,-0.2755 0.0747,-0.5502 0.0747,-0.8271 0,-0.2768 -0.0511,0.5516 -0.0747,0.8271 z"
       id="path7114-0-0"
       inkscape:connector-curvature="0" />
    <path
       style="fill:#782121;stroke:none;stroke-width:0.34671682px;stroke-linecap:butt;stroke-linejoin:miter;stroke-opacity:1"
       d="m 16.288459,1100.3735 91.322741,-3.0956 2.63141,2.4766 z"
       id="path7124-8-0"
       inkscape:connector-curvature="0" />
    <path
       style="fill:#a02c2c;stroke:none;stroke-width:0.34671682px;stroke-linecap:butt;stroke-linejoin:miter;stroke-opacity:1"
       d="m 107.6112,1097.2779 2.16707,-7.5845 0.46434,10.0611 z"
       id="path7126-8-4"
       inkscape:connector-curvature="0" />
    <path
       style="fill:#666666;stroke:none;stroke-width:0.34671682px;stroke-linecap:butt;stroke-linejoin:miter;stroke-opacity:1"
       d="m 15.437376,1077.4657 -1.625292,27.5514 -0.309865,-30.3379 z"
       id="path7130-50-6"
       inkscape:connector-curvature="0" />
    <path
       style="fill:#000000;stroke:none;stroke-width:0.34671682px;stroke-linecap:butt;stroke-linejoin:miter;stroke-opacity:1"
       d="m 13.812084,1105.0171 19.657251,-0.1549 -4.340123,-3.112 z"
       id="path7132-96-2"
       inkscape:connector-curvature="0" />
    <path
       style="fill:#1a1a1a;stroke:none;stroke-width:0.34671682px;stroke-linecap:butt;stroke-linejoin:miter;stroke-opacity:1"
       d="m 114.49748,1103.4938 -0.93324,-30.8465 -3.40706,27.7342 z"
       id="path7134-6-3-6"
       inkscape:connector-curvature="0" />
    <path
       style="fill:#000000;stroke:none;stroke-width:0.34671682px;stroke-linecap:butt;stroke-linejoin:miter;stroke-opacity:1"
       d="m 94.839667,1103.6486 19.657813,-0.1548 -4.3403,-3.1126 z"
       id="path7132-9-8-7"
       inkscape:connector-curvature="0" />
    <path
       style="fill:#b3b3b3;stroke:none;stroke-width:0.34671682px;stroke-linecap:butt;stroke-linejoin:miter;stroke-opacity:1"
       d="m 30.218934,1057.4982 4.488952,9.5195 -4.643612,3.4825 2.786058,-3.56 z"
       id="path7160-5-5"
       inkscape:connector-curvature="0" />
    <path
       style="fill:#666666;stroke:none;stroke-width:0.34671682px;stroke-linecap:butt;stroke-linejoin:miter;stroke-opacity:1"
       d="m 35.017388,1082.1091 5.726959,-1.6253 2.631398,-3.4827 1.857369,0.3095 -3.250586,4.4889 z"
       id="path7162-6-6"
       inkscape:connector-curvature="0" />
    <path
       style="fill:#808080;stroke:none;stroke-width:0.34671682px;stroke-linecap:butt;stroke-linejoin:miter;stroke-opacity:1"
       d="m 43.375745,1077.0011 1.547685,-7.7393 0.309684,8.0488 z"
       id="path7164-1-9"
       inkscape:connector-curvature="0" />
    <path
       style="fill:#666666;stroke:none;stroke-width:0.34671682px;stroke-linecap:butt;stroke-linejoin:miter;stroke-opacity:1"
       d="m 85.093747,1080.7586 5.72696,-1.0062 3.56009,-2.8637 1.85737,0.3097 -4.17891,3.8695 z"
       id="path7162-0-1-8"
       inkscape:connector-curvature="0"
       sodipodi:nodetypes="cccccc" />
    <path
       style="fill:#808080;stroke:none;stroke-width:0.34671682px;stroke-linecap:butt;stroke-linejoin:miter;stroke-opacity:1"
       d="m 94.380797,1076.8887 2.6314,-7.4293 -0.77403,7.739 z"
       id="path7164-8-5-7"
       inkscape:connector-curvature="0"
       sodipodi:nodetypes="cccc" />
    <path
       style="fill:#1a1a1a;stroke:none;stroke-width:0.34671682px;stroke-linecap:butt;stroke-linejoin:miter;stroke-opacity:1"
       d="m 73.868277,1079.4776 -1.39322,-22.9079 -2.94691,19.7956 z"
       id="path7134-3-9-2"
       inkscape:connector-curvature="0"
       sodipodi:nodetypes="cccc" />
    <path
       style="fill:#808080;stroke:none;stroke-width:0.34671682px;stroke-linecap:butt;stroke-linejoin:miter;stroke-opacity:1"
       d="M 68.760317,1080.561 H 57.306225 l 9.233112,-2.5981 z"
       id="path7225-8-8"
       inkscape:connector-curvature="0"
       sodipodi:nodetypes="cccc" />
  </g>
</svg>
