<?xml version="1.0" encoding="UTF-8" standalone="no"?>
<!-- Created with Inkscape (http://www.inkscape.org/) -->

<svg
   xmlns:dc="http://purl.org/dc/elements/1.1/"
   xmlns:cc="http://creativecommons.org/ns#"
   xmlns:rdf="http://www.w3.org/1999/02/22-rdf-syntax-ns#"
   xmlns:svg="http://www.w3.org/2000/svg"
   xmlns="http://www.w3.org/2000/svg"
   xmlns:sodipodi="http://sodipodi.sourceforge.net/DTD/sodipodi-0.dtd"
   xmlns:inkscape="http://www.inkscape.org/namespaces/inkscape"
   width="128"
   height="128"
   viewBox="0 0 128 128.00001"
   version="1.1"
   id="svg6294"
   inkscape:version="0.92.4 (5da689c313, 2019-01-14)"
   sodipodi:docname="loading.svg">
  <defs
     id="defs6288" />
  <sodipodi:namedview
     id="base"
     pagecolor="#ffffff"
     bordercolor="#666666"
     borderopacity="1.0"
     inkscape:pageopacity="0.0"
     inkscape:pageshadow="2"
     inkscape:zoom="2.4737607"
     inkscape:cx="16.085103"
     inkscape:cy="68.506371"
     inkscape:document-units="px"
     inkscape:current-layer="layer1"
     showgrid="false"
     units="px"
     inkscape:window-width="1366"
     inkscape:window-height="707"
     inkscape:window-x="0"
     inkscape:window-y="29"
     inkscape:window-maximized="1" />
  <metadata
     id="metadata6291">
    <rdf:RDF>
      <cc:Work
         rdf:about="">
        <dc:format>image/svg+xml</dc:format>
        <dc:type
           rdf:resource="http://purl.org/dc/dcmitype/StillImage" />
        <dc:title />
      </cc:Work>
    </rdf:RDF>
  </metadata>
  <g
     inkscape:label="Layer 1"
     inkscape:groupmode="layer"
     id="layer1"
     transform="translate(0,-994.51965)">
    <path
       style="fill:#000000;stroke:none;stroke-width:2.62536073px;stroke-linecap:butt;stroke-linejoin:miter;stroke-opacity:1"
       d="m 32.906312,997.45806 c -2.601124,-0.0386 -5.048516,1.18098 -6.51272,3.24724 l -25.0510843,33.1566 c -0.91864252,1.2952 -1.38733762,2.8362 -1.33912892,4.403 l 1.39135492,44.5489 c 0.040174,1.2366 0.3985248,2.4444 1.0463954,3.5134 l 17.0583599,31.018 c 1.42644,2.3555 4.080326,3.7714 6.915262,3.6894 l 69.985019,-1.9292 c 2.29393,-0.067 4.43841,-1.1089 5.85333,-2.845 l 24.10432,-25.2275 c 1.06461,-1.3071 1.64285,-2.9192 1.64258,-4.5791 v -48.2533 c 2.7e-4,-1.753 -0.64439,-3.4498 -1.82041,-4.79 L 96.02387,998.64508 c -1.43984,-1.6437 -3.549767,-2.60773 -5.785308,-2.64376 z"
       id="path6827-8"
       inkscape:connector-curvature="0"
       sodipodi:nodetypes="ccccccccccccccccc" />
    <path
       style="fill:#6c5353;stroke:none;stroke-width:2.62536049px;stroke-linecap:butt;stroke-linejoin:miter;stroke-opacity:1"
       d="m 7.7260282,1038.0434 25.0513518,-33.1558 57.333566,-1.4577 30.156524,34.7696 v 48.2534 l -24.1043,25.2277 -69.984979,1.9301 -17.0583978,-31.0181 z"
       id="path6827"
       inkscape:connector-curvature="0"
       sodipodi:nodetypes="ccccccccc" />
    <path
       style="fill:#e3dbdb;stroke:none;stroke-width:1.98344064px;stroke-linecap:butt;stroke-linejoin:miter;stroke-opacity:1"
       d="m 21.448349,1045.2443 18.926176,-24.5149 45.764004,-4.4888 20.334061,29.1215 v 36.4554 l -18.210553,17.9915 -53.940871,3.6417 -11.819727,-24.5498 z"
       id="path6827-4"
       inkscape:connector-curvature="0"
       sodipodi:nodetypes="ccccccccc" />
    <path
       style="fill:#483737;stroke:none;stroke-width:2.62536049px;stroke-linecap:butt;stroke-linejoin:miter;stroke-opacity:1"
       d="m 58.953866,1058.6716 16.334164,-34.5752 4.261105,2.0471 -13.256574,34.8025 z"
       id="path6844"
       inkscape:connector-curvature="0"
       sodipodi:nodetypes="ccccc" />
    <path
       style="fill:#c83737;stroke:none;stroke-width:2.62536049px;stroke-linecap:butt;stroke-linejoin:miter;stroke-opacity:1"
       d="m 64.398765,1067.9977 1.893796,-7.0517 16.570916,7.7339 -2.604065,4.322 z"
       id="path6846"
       inkscape:connector-curvature="0"
       sodipodi:nodetypes="ccccc" />
    <path
       style="fill:#483737;stroke:none;stroke-width:2.62536049px;stroke-linecap:butt;stroke-linejoin:miter;stroke-opacity:1"
       d="m 53.03572,1060.8324 4.497867,-4.3217 5.918147,-0.4551 4.734622,3.412 0.355138,6.1417 -2.485691,5.5729 -7.220316,0.2264 -4.615976,-3.2972 z"
       id="path6848"
       inkscape:connector-curvature="0"
       sodipodi:nodetypes="ccccccccc" />
    <path
       style="fill:#ac9393;stroke:none;stroke-width:2.62536049px;stroke-linecap:butt;stroke-linejoin:miter;stroke-opacity:1"
       d="m 58.834952,1022.1152 1.339129,10.4549 3.849996,-0.1596 1.50652,-10.1344 z"
       id="path6850"
       inkscape:connector-curvature="0"
       sodipodi:nodetypes="ccccc" />
    <path
       style="fill:#ac9393;stroke:none;stroke-width:2.62536049px;stroke-linecap:butt;stroke-linejoin:miter;stroke-opacity:1"
       d="m 91.925899,1060.4641 12.052161,-1.2866 -0.33479,6.5944 -12.052157,-1.7693 z"
       id="path6852"
       inkscape:connector-curvature="0"
       sodipodi:nodetypes="ccccc" />
    <path
       style="fill:#ac9393;stroke:none;stroke-width:2.62536049px;stroke-linecap:butt;stroke-linejoin:miter;stroke-opacity:1"
       d="m 61.345819,1097.3654 1.339129,-9.168 h 3.347822 l 1.50652,8.203 z"
       id="path6854"
       inkscape:connector-curvature="0"
       sodipodi:nodetypes="ccccc" />
    <path
       style="fill:#ac9393;stroke:none;stroke-width:2.62536049px;stroke-linecap:butt;stroke-linejoin:miter;stroke-opacity:1"
       d="m 26.528469,1060.2353 0.334781,5.4688 6.863035,-2.0912 -0.166052,-3.2167 z"
       id="path6856"
       inkscape:connector-curvature="0"
       sodipodi:nodetypes="ccccc" />
    <path
       style="fill:#ac9393;stroke:none;stroke-width:2.62536049px;stroke-linecap:butt;stroke-linejoin:miter;stroke-opacity:1"
       d="m 9.1197932,1082.5926 5.6912978,-43.1062 20.421714,-27.7332 -2.455425,-6.8656 -25.0513518,33.1558 z"
       id="path6875"
       inkscape:connector-curvature="0"
       sodipodi:nodetypes="cccccc" />
    <path
       style="fill:#916f6f;stroke:none;stroke-width:2.62536049px;stroke-linecap:butt;stroke-linejoin:miter;stroke-opacity:1"
       d="m 35.232805,1011.7532 54.878141,-8.3233 -57.333566,1.4577 z"
       id="path6877"
       inkscape:connector-curvature="0"
       sodipodi:nodetypes="cccc" />
    <path
       style="fill:#241c1c;stroke:none;stroke-width:2.62536049px;stroke-linecap:butt;stroke-linejoin:miter;stroke-opacity:1"
       d="m 26.178191,1113.6107 64.62846,-7.3987 5.356519,5.4686 z"
       id="path6879"
       inkscape:connector-curvature="0"
       sodipodi:nodetypes="cccc" />
    <path
       style="fill:#483737;stroke:none;stroke-width:2.62536049px;stroke-linecap:butt;stroke-linejoin:miter;stroke-opacity:1"
       d="m 90.806651,1106.212 22.095619,-21.6892 7.3652,-46.3233 v 48.2534 l -24.1043,25.2277 z"
       id="path6881"
       inkscape:connector-curvature="0"
       sodipodi:nodetypes="cccccc" />
  </g>
</svg>
