<?xml version="1.0" encoding="UTF-8" standalone="no"?>
<!-- Created with Inkscape (http://www.inkscape.org/) -->

<svg
   xmlns:dc="http://purl.org/dc/elements/1.1/"
   xmlns:cc="http://creativecommons.org/ns#"
   xmlns:rdf="http://www.w3.org/1999/02/22-rdf-syntax-ns#"
   xmlns:svg="http://www.w3.org/2000/svg"
   xmlns="http://www.w3.org/2000/svg"
   xmlns:sodipodi="http://sodipodi.sourceforge.net/DTD/sodipodi-0.dtd"
   xmlns:inkscape="http://www.inkscape.org/namespaces/inkscape"
   width="128"
   height="128"
   viewBox="0 0 128 128.00001"
   version="1.1"
   id="svg6294"
   inkscape:version="0.92.3 (2405546, 2018-03-11)"
   sodipodi:docname="main_about.svg">
  <defs
     id="defs6288" />
  <sodipodi:namedview
     id="base"
     pagecolor="#ffffff"
     bordercolor="#666666"
     borderopacity="1.0"
     inkscape:pageopacity="0.0"
     inkscape:pageshadow="2"
     inkscape:zoom="6.1751796"
     inkscape:cx="35.375703"
     inkscape:cy="75.301267"
     inkscape:document-units="px"
     inkscape:current-layer="layer1"
     showgrid="false"
     units="px"
     inkscape:window-width="1366"
     inkscape:window-height="713"
     inkscape:window-x="0"
     inkscape:window-y="27"
     inkscape:window-maximized="1" />
  <metadata
     id="metadata6291">
    <rdf:RDF>
      <cc:Work
         rdf:about="">
        <dc:format>image/svg+xml</dc:format>
        <dc:type
           rdf:resource="http://purl.org/dc/dcmitype/StillImage" />
        <dc:title />
      </cc:Work>
    </rdf:RDF>
  </metadata>
  <g
     inkscape:label="Layer 1"
     inkscape:groupmode="layer"
     id="layer1"
     transform="translate(0,-994.51965)">
    <path
       transform="matrix(5.78002,0,0,5.7800176,261.4168,-142.1044)"
       d="m -32.035156,200.82031 a 0.92699355,0.92699355 0 0 0 -0.107422,0.008 l -9.546875,1.13086 a 0.92699355,0.92699355 0 0 0 -0.798828,0.73243 L -43.478516,207.5 a 0.92699355,0.92699355 0 0 0 0.04883,0.53516 l 1.484376,3.67773 a 0.92699355,0.92699355 0 0 0 0.269531,0.36719 l 3.677734,3.04101 a 0.92699355,0.92699355 0 0 0 1.515625,-0.74023 l -0.03711,-1.27539 3.710937,0.85937 a 0.92699355,0.92699355 0 0 0 0.554688,-0.043 l 6.859375,-2.75782 a 0.92699355,0.92699355 0 0 0 0.578125,-0.94531 l -0.566406,-6.15234 a 0.92699355,0.92699355 0 0 0 -0.564454,-0.76953 l -5.726562,-2.4043 a 0.92699355,0.92699355 0 0 0 -0.361328,-0.0723 z"
       id="path5858-2-8-8"
       style="fill:#000000;fill-opacity:1;stroke:none;stroke-width:0.26458332px;stroke-linecap:butt;stroke-linejoin:miter;stroke-opacity:1"
       inkscape:original="M -32.033203 201.74805 L -41.580078 202.87891 L -42.570312 207.6875 L -41.085938 211.36523 L -37.408203 214.40625 L -37.478516 211.93164 L -32.599609 213.0625 L -25.740234 210.30469 L -26.306641 204.15234 L -32.033203 201.74805 z "
       inkscape:radius="0.92690086"
       sodipodi:type="inkscape:offset" />
    <path
       sodipodi:nodetypes="cccccccccc"
       inkscape:connector-curvature="0"
       id="path5858-1-7"
       d="m 23.944667,1079.589 21.253932,17.5752 -0.408654,-14.3054 28.20237,6.5396 39.646795,-15.9404 -3.26982,-35.5595 -33.107148,-13.8968 -55.178536,6.5398 -5.722216,27.7934 z"
       style="fill:#39a5e3;fill-opacity:1;stroke:none;stroke-width:1.52929664px;stroke-linecap:butt;stroke-linejoin:miter;stroke-opacity:1" />
    <path
       inkscape:connector-curvature="0"
       id="path5860-3-0"
       d="m 44.789908,1082.8588 27.466066,-2.979 0.736304,9.519 z"
       style="fill:#1b85c0;fill-opacity:1;stroke:none;stroke-width:1.52929664px;stroke-linecap:butt;stroke-linejoin:miter;stroke-opacity:1"
       sodipodi:nodetypes="cccc" />
    <path
       inkscape:connector-curvature="0"
       id="path5862-1-4"
       d="m 72.255974,1079.8798 40.383096,-6.4218 -39.646792,15.9404 z"
       style="fill:#1772a5;fill-opacity:1;stroke:none;stroke-width:1.52929664px;stroke-linecap:butt;stroke-linejoin:miter;stroke-opacity:1"
       sodipodi:nodetypes="cccc" />
    <path
       inkscape:connector-curvature="0"
       id="path5864-1-8"
       d="m 15.361352,1058.3349 14.254573,-21.0951 -8.532357,-6.6983 z"
       style="fill:#93ceef;fill-opacity:1;stroke:none;stroke-width:1.52929664px;stroke-linecap:butt;stroke-linejoin:miter;stroke-opacity:1"
       sodipodi:nodetypes="cccc" />
    <path
       inkscape:connector-curvature="0"
       id="path5866-0-0"
       d="m 29.615925,1037.2398 46.646199,-13.2381 -55.178556,6.5398 z"
       style="fill:#86c8ee;fill-opacity:1;stroke:none;stroke-width:1.52929664px;stroke-linecap:butt;stroke-linejoin:miter;stroke-opacity:1"
       sodipodi:nodetypes="cccc" />
    <path
       sodipodi:type="inkscape:offset"
       inkscape:radius="0.23805638"
       inkscape:original="M -14.267578 -117.35547 C -14.460503 -117.35547 -14.609538 -117.29924 -14.712891 -117.18555 C -14.812798 -117.0753 -14.863281 -116.93926 -14.863281 -116.77734 C -14.863281 -116.61887 -14.812798 -116.48329 -14.712891 -116.37305 C -14.609538 -116.2628 -14.460503 -116.20898 -14.267578 -116.20898 C -14.074653 -116.20898 -13.929986 -116.2628 -13.830078 -116.37305 C -13.726725 -116.48329 -13.673828 -116.61887 -13.673828 -116.77734 C -13.673828 -116.93926 -13.726725 -117.0753 -13.830078 -117.18555 C -13.929986 -117.29924 -14.074653 -117.35547 -14.267578 -117.35547 z M -11.457031 -117.35547 C -11.649957 -117.35547 -11.798991 -117.29924 -11.902344 -117.18555 C -12.002252 -117.0753 -12.050781 -116.93926 -12.050781 -116.77734 C -12.050781 -116.61887 -12.002252 -116.48329 -11.902344 -116.37305 C -11.798991 -116.2628 -11.649957 -116.20898 -11.457031 -116.20898 C -11.264106 -116.20898 -11.117486 -116.2628 -11.017578 -116.37305 C -10.914225 -116.48329 -10.863281 -116.61887 -10.863281 -116.77734 C -10.863281 -116.93926 -10.914225 -117.0753 -11.017578 -117.18555 C -11.117486 -117.29924 -11.264106 -117.35547 -11.457031 -117.35547 z M -8.6464844 -117.35547 C -8.8394097 -117.35547 -8.9864909 -117.29924 -9.0898438 -117.18555 C -9.1897515 -117.0753 -9.2402344 -116.93926 -9.2402344 -116.77734 C -9.2402344 -116.61887 -9.1897515 -116.48329 -9.0898438 -116.37305 C -8.9864909 -116.2628 -8.8394097 -116.20898 -8.6464844 -116.20898 C -8.453559 -116.20898 -8.306939 -116.2628 -8.2070312 -116.37305 C -8.1036784 -116.48329 -8.0527344 -116.61887 -8.0527344 -116.77734 C -8.0527344 -116.93926 -8.1036784 -117.0753 -8.2070312 -117.18555 C -8.306939 -117.29924 -8.453559 -117.35547 -8.6464844 -117.35547 z "
       style="font-style:normal;font-weight:normal;font-size:10.58333302px;line-height:1.25;font-family:sans-serif;letter-spacing:0px;word-spacing:0px;fill:#1772a5;fill-opacity:1;stroke:none;stroke-width:0.26458332"
       id="text5887-3-9-4"
       d="m -14.267578,-117.59375 c -0.239181,0 -0.467399,0.079 -0.621094,0.24805 -0.138544,0.15288 -0.212891,0.35696 -0.21289,0.56836 0,0.20902 0.07456,0.41181 0.21289,0.56445 a 0.23808018,0.23808018 0 0 0 0.002,0.002 c 0.155011,0.16536 0.381942,0.24024 0.619141,0.24024 0.236222,0 0.460529,-0.0753 0.611328,-0.24024 0.142243,-0.15172 0.220703,-0.35496 0.220703,-0.5664 0,-0.21313 -0.07905,-0.41653 -0.220703,-0.56836 -0.149485,-0.1664 -0.374666,-0.24805 -0.611328,-0.24805 z m 2.810547,0 c -0.239182,0 -0.4674,0.079 -0.621094,0.24805 -0.139582,0.15403 -0.210937,0.35887 -0.210937,0.56836 0,0.20707 0.07157,0.41067 0.210937,0.56445 a 0.23808018,0.23808018 0 0 0 0.002,0.002 c 0.15501,0.16536 0.381941,0.24024 0.619141,0.24024 0.236228,0 0.46145,-0.0741 0.613281,-0.24024 0.143266,-0.15281 0.21875,-0.35691 0.21875,-0.5664 0,-0.21122 -0.0761,-0.41545 -0.21875,-0.56836 -0.150488,-0.16753 -0.376599,-0.24805 -0.613281,-0.24805 z m 2.8105466,0 c -0.2391812,0 -0.4664506,0.0801 -0.6191406,0.24805 -0.1385447,0.15288 -0.2128906,0.35696 -0.2128906,0.56836 0,0.20902 0.074559,0.41181 0.2128906,0.56445 a 0.23808018,0.23808018 0 0 0 0.00195,0.002 c 0.1539864,0.16426 0.3799888,0.24024 0.6171875,0.24024 0.2362283,0 0.4614505,-0.0741 0.6132813,-0.24024 0.1432661,-0.15281 0.21875,-0.35691 0.21875,-0.5664 0,-0.21122 -0.076101,-0.41545 -0.21875,-0.56836 -0.1504876,-0.16753 -0.3765988,-0.24805 -0.6132813,-0.24805 z"
       transform="matrix(6.6031366,0,0,6.6031338,143.2301,1828.914)" />
    <path
       style="font-style:normal;font-weight:normal;font-size:69.88317871px;line-height:1.25;font-family:sans-serif;letter-spacing:0px;word-spacing:0px;fill:#000000;fill-opacity:1;stroke:none;stroke-width:1.74707949"
       d="M 46.412109 57.396484 C 45.138197 57.396484 44.159015 57.770786 43.476562 58.521484 C 42.816858 59.249434 42.488281 60.147621 42.488281 61.216797 C 42.488281 62.263225 42.816858 63.150956 43.476562 63.878906 C 44.159015 64.606856 45.138197 64.970703 46.412109 64.970703 C 47.686021 64.970703 48.652796 64.606856 49.3125 63.878906 C 49.994953 63.150956 50.335938 62.263225 50.335938 61.216797 C 50.335938 60.147621 49.994953 59.249434 49.3125 58.521484 C 48.652796 57.770786 47.686021 57.396484 46.412109 57.396484 z M 64.974609 57.396484 C 63.700697 57.396484 62.723469 57.770786 62.041016 58.521484 C 61.381311 59.249434 61.050781 60.147621 61.050781 61.216797 C 61.050781 62.263225 61.381311 63.150956 62.041016 63.878906 C 62.723469 64.606856 63.700697 64.970703 64.974609 64.970703 C 66.248521 64.970703 67.215296 64.606856 67.875 63.878906 C 68.557453 63.150956 68.898438 62.263225 68.898438 61.216797 C 68.898438 60.147621 68.557453 59.249434 67.875 58.521484 C 67.215296 57.770786 66.248521 57.396484 64.974609 57.396484 z M 83.537109 57.396484 C 82.263197 57.396484 81.285969 57.770786 80.603516 58.521484 C 79.943811 59.249434 79.613281 60.147621 79.613281 61.216797 C 79.613281 62.263225 79.943811 63.150956 80.603516 63.878906 C 81.285969 64.606856 82.263197 64.970703 83.537109 64.970703 C 84.811021 64.970703 85.777796 64.606856 86.4375 63.878906 C 87.119953 63.150956 87.460938 62.263225 87.460938 61.216797 C 87.460938 60.147621 87.119953 59.249434 86.4375 58.521484 C 85.777796 57.770786 84.811021 57.396484 83.537109 57.396484 z "
       transform="translate(0,994.51965)"
       id="text5887-3-2" />
    <path
       inkscape:connector-curvature="0"
       id="path6126-0-6"
       d="m 23.944667,1079.589 15.97733,8.8631 5.276602,8.7121 z"
       style="fill:#1772a5;fill-opacity:1;stroke:none;stroke-width:1.74707949px;stroke-linecap:butt;stroke-linejoin:miter;stroke-opacity:1" />
    <path
       inkscape:connector-curvature="0"
       id="path6128-3-1"
       d="m 39.921997,1088.4521 4.867948,-5.5933 0.408672,14.3054 z"
       style="fill:#1b85c0;fill-opacity:1;stroke:none;stroke-width:1.74707949px;stroke-linecap:butt;stroke-linejoin:miter;stroke-opacity:1" />
  </g>
</svg>
