<?xml version="1.0" encoding="UTF-8" standalone="no"?>
<!-- Created with Inkscape (http://www.inkscape.org/) -->

<svg
   xmlns:dc="http://purl.org/dc/elements/1.1/"
   xmlns:cc="http://creativecommons.org/ns#"
   xmlns:rdf="http://www.w3.org/1999/02/22-rdf-syntax-ns#"
   xmlns:svg="http://www.w3.org/2000/svg"
   xmlns="http://www.w3.org/2000/svg"
   xmlns:sodipodi="http://sodipodi.sourceforge.net/DTD/sodipodi-0.dtd"
   xmlns:inkscape="http://www.inkscape.org/namespaces/inkscape"
   width="128"
   height="128"
   viewBox="0 0 128 128.00001"
   version="1.1"
   id="svg6294"
   inkscape:version="0.92.3 (2405546, 2018-03-11)"
   sodipodi:docname="main_race.svg">
  <defs
     id="defs6288" />
  <sodipodi:namedview
     id="base"
     pagecolor="#ffffff"
     bordercolor="#666666"
     borderopacity="1.0"
     inkscape:pageopacity="0.0"
     inkscape:pageshadow="2"
     inkscape:zoom="2.1832557"
     inkscape:cx="15.209465"
     inkscape:cy="55.898017"
     inkscape:document-units="px"
     inkscape:current-layer="layer1"
     showgrid="false"
     units="px"
     inkscape:window-width="1366"
     inkscape:window-height="713"
     inkscape:window-x="0"
     inkscape:window-y="27"
     inkscape:window-maximized="1" />
  <metadata
     id="metadata6291">
    <rdf:RDF>
      <cc:Work
         rdf:about="">
        <dc:format>image/svg+xml</dc:format>
        <dc:type
           rdf:resource="http://purl.org/dc/dcmitype/StillImage" />
        <dc:title></dc:title>
      </cc:Work>
    </rdf:RDF>
  </metadata>
  <g
     inkscape:label="Layer 1"
     inkscape:groupmode="layer"
     id="layer1"
     transform="translate(0,-994.51965)">
    <path
       sodipodi:type="inkscape:offset"
       inkscape:radius="3.4059889"
       inkscape:original="M 660.07617 876.50391 L 643.82617 881.7793 L 636.86133 902.88477 L 640.63867 921.05078 L 652.23633 927.75 L 674.90234 922.9043 L 685.43359 901.64844 L 678.01562 882.625 L 660.07617 876.50391 z "
       style="fill:#000000;stroke:none;stroke-width:2.09904504px;stroke-linecap:butt;stroke-linejoin:miter;stroke-opacity:1"
       id="path2008-8-1"
       d="m 660.17383,873.09961 a 3.4063295,3.4063295 0 0 0 -1.14844,0.16406 l -16.25,5.27539 a 3.4063295,3.4063295 0 0 0 -2.18359,2.17383 l -6.96485,21.10547 a 3.4063295,3.4063295 0 0 0 -0.0996,1.75976 l 3.77735,18.16602 A 3.4063295,3.4063295 0 0 0 638.93555,924 l 11.59765,6.69922 a 3.4063295,3.4063295 0 0 0 2.41602,0.38086 l 22.66601,-4.8457 a 3.4063295,3.4063295 0 0 0 2.33985,-1.81836 l 10.53125,-21.25586 a 3.4063295,3.4063295 0 0 0 0.12109,-2.75 l -7.41797,-19.02344 a 3.4063295,3.4063295 0 0 0 -2.07422,-1.98438 l -17.93945,-6.12109 a 3.4063295,3.4063295 0 0 0 -1.00195,-0.18164 z"
       transform="matrix(1.8602289,0,0,1.8602289,-1168.373,-619.64277)" />
    <path
       style="fill:#333333;stroke:none;stroke-width:3.90470433px;stroke-linecap:butt;stroke-linejoin:miter;stroke-opacity:1"
       d="m 106.69155,1057.6278 -13.800287,-35.3881 -33.369902,-11.385 -30.229277,9.8144 -12.955379,39.2592 7.024597,33.7944 21.576237,12.4626 42.161344,-9.0141 z"
       id="path2008-8"
       inkscape:connector-curvature="0"
       sodipodi:nodetypes="ccccccccc" />
    <path
       style="fill:#f2f2f2;stroke:none;stroke-width:4.91508675px;stroke-linecap:butt;stroke-linejoin:miter;stroke-opacity:1"
       d="m 30.866767,1055.003 1.511064,-16.7689 10.033517,-7.109 10.777422,8.8757 0.117195,16.6503 -11.628105,8.667 z"
       id="path4497-9-9"
       inkscape:connector-curvature="0"
       sodipodi:nodetypes="ccccccc" />
    <path
       style="fill:#cccccc;stroke:none;stroke-width:2.86742568px;stroke-linecap:butt;stroke-linejoin:miter;stroke-opacity:1"
       d="m 53.18877,1040.0008 -3.811051,14.6499 -7.700417,10.6674 11.628291,-8.667 z"
       id="path4507-4-1-26"
       inkscape:connector-curvature="0"
       sodipodi:nodetypes="ccccc" />
    <path
       style="fill:#ffffff;fill-opacity:1;stroke:none;stroke-width:2.86742568px;stroke-linecap:butt;stroke-linejoin:miter;stroke-opacity:1"
       d="m 42.411348,1031.1251 -7.015295,8.8223 -4.529286,15.0556 1.511064,-16.7689 z"
       id="path4503-2-6"
       inkscape:connector-curvature="0"
       sodipodi:nodetypes="ccccc" />
    <path
       style="fill:#000000;fill-opacity:1;stroke:none;stroke-width:1.98513687px;stroke-linecap:butt;stroke-linejoin:miter;stroke-opacity:1"
       d="m 41.004271,1055.0517 -0.07627,-5.9629 3.616657,-3.5667 3.644189,2.9881 -0.207974,6.2883 -3.847511,3.4541 z"
       id="path4528-0-7-4"
       inkscape:connector-curvature="0"
       sodipodi:nodetypes="ccccccc" />
    <path
       style="fill:#f2f2f2;stroke:none;stroke-width:4.91508675px;stroke-linecap:butt;stroke-linejoin:miter;stroke-opacity:1"
       d="m 51.770532,1060.0915 0.895886,-30.5774 14.216427,-9.7799 16.611848,15.3524 -2.34984,27.5264 -14.704556,8.2243 z"
       id="path4499-0-9"
       inkscape:connector-curvature="0"
       sodipodi:nodetypes="ccccccc" />
    <path
       style="fill:#cccccc;stroke:none;stroke-width:2.86742568px;stroke-linecap:butt;stroke-linejoin:miter;stroke-opacity:1"
       d="m 83.494693,1035.0866 -9.33538,26.5799 -7.719016,9.1708 14.704556,-8.2243 z"
       id="path4507-9-5"
       inkscape:connector-curvature="0"
       sodipodi:nodetypes="ccccc" />
    <path
       style="fill:#ffffff;fill-opacity:1;stroke:none;stroke-width:2.86742568px;stroke-linecap:butt;stroke-linejoin:miter;stroke-opacity:1"
       d="m 66.882845,1019.7342 -9.960595,13.7065 -5.151718,26.6508 0.895886,-30.5774 z"
       id="path4505-3-0"
       inkscape:connector-curvature="0"
       sodipodi:nodetypes="ccccc" />
    <path
       style="fill:#000000;fill-opacity:1;stroke:none;stroke-width:2.86742568px;stroke-linecap:butt;stroke-linejoin:miter;stroke-opacity:1"
       d="m 55.784534,1056.3115 -0.364233,-8.332 4.759767,-4.7438 6.557865,5.1882 -0.356605,5.1019 -4.263459,5.0737 z"
       id="path4528-6-4"
       inkscape:connector-curvature="0"
       sodipodi:nodetypes="ccccccc" />
    <path
       style="fill:#ff6600;stroke:none;stroke-width:5.09438992px;stroke-linecap:butt;stroke-linejoin:miter;stroke-opacity:1"
       d="m 71.381063,1071.1023 -35.55939,-5.7793 3.995586,28.5725 z"
       id="path4495-0-8"
       inkscape:connector-curvature="0"
       sodipodi:nodetypes="cccc" />
    <path
       style="fill:#ff7d26;fill-opacity:1;stroke:none;stroke-width:1.63510931px;stroke-linecap:butt;stroke-linejoin:miter;stroke-opacity:1"
       d="m 71.381063,1071.1023 -31.225615,-1.2612 -4.333775,-4.5181"
       id="path4834-6-7"
       inkscape:connector-curvature="0"
       sodipodi:nodetypes="ccc" />
    <path
       style="fill:#cf5300;fill-opacity:1;stroke:none;stroke-width:1.63510931px;stroke-linecap:butt;stroke-linejoin:miter;stroke-opacity:1"
       d="m 39.817259,1093.8955 11.917742,-13.8427 19.646062,-8.9505"
       id="path4836-2-17"
       inkscape:connector-curvature="0"
       sodipodi:nodetypes="ccc" />
    <path
       style="fill:#ff8c3f;fill-opacity:1;stroke:none;stroke-width:1.63510931px;stroke-linecap:butt;stroke-linejoin:miter;stroke-opacity:1"
       d="m 39.817259,1093.8955 0.338189,-24.0544 -4.333775,-4.5181"
       id="path4838-6-2"
       inkscape:connector-curvature="0"
       sodipodi:nodetypes="ccc" />
    <path
       style="fill:#4d4d4d;stroke:none;stroke-width:2.79115772px;stroke-linecap:butt;stroke-linejoin:miter;stroke-opacity:1"
       d="m 34.157698,1026.1032 -4.865614,-5.4341 -12.955379,39.2592 z"
       id="path2067-7"
       inkscape:connector-curvature="0"
       sodipodi:nodetypes="cccc" />
    <path
       style="fill:#666666;stroke:none;stroke-width:2.79115772px;stroke-linecap:butt;stroke-linejoin:miter;stroke-opacity:1"
       d="m 34.157698,1026.1032 25.363663,-15.2485 -30.229277,9.8144 z"
       id="path2069-2"
       inkscape:connector-curvature="0" />
    <path
       style="fill:#000000;stroke:none;stroke-width:2.79115772px;stroke-linecap:butt;stroke-linejoin:miter;stroke-opacity:1"
       d="m 106.69155,1057.6278 -24.252727,31.4468 4.66006,8.0966 z"
       id="path2239-2"
       inkscape:connector-curvature="0" />
    <path
       style="fill:#1a1a1a;stroke:none;stroke-width:2.79115772px;stroke-linecap:butt;stroke-linejoin:miter;stroke-opacity:1"
       d="m 82.438823,1089.0746 -37.501284,17.1107 42.161344,-9.0141 z"
       id="path2241-6"
       inkscape:connector-curvature="0" />
  </g>
</svg>
