<?xml version="1.0" encoding="UTF-8" standalone="no"?>
<!-- Created with Inkscape (http://www.inkscape.org/) -->

<svg
   xmlns:dc="http://purl.org/dc/elements/1.1/"
   xmlns:cc="http://creativecommons.org/ns#"
   xmlns:rdf="http://www.w3.org/1999/02/22-rdf-syntax-ns#"
   xmlns:svg="http://www.w3.org/2000/svg"
   xmlns="http://www.w3.org/2000/svg"
   xmlns:sodipodi="http://sodipodi.sourceforge.net/DTD/sodipodi-0.dtd"
   xmlns:inkscape="http://www.inkscape.org/namespaces/inkscape"
   width="128"
   height="128"
   viewBox="0 0 128 128.00001"
   version="1.1"
   id="svg6294"
   inkscape:version="0.92.3 (2405546, 2018-03-11)"
   sodipodi:docname="main_help.svg">
  <defs
     id="defs6288" />
  <sodipodi:namedview
     id="base"
     pagecolor="#ffffff"
     bordercolor="#666666"
     borderopacity="1.0"
     inkscape:pageopacity="0.0"
     inkscape:pageshadow="2"
     inkscape:zoom="2.1832557"
     inkscape:cx="27.196198"
     inkscape:cy="23.779151"
     inkscape:document-units="px"
     inkscape:current-layer="layer1"
     showgrid="false"
     units="px"
     inkscape:window-width="1366"
     inkscape:window-height="713"
     inkscape:window-x="0"
     inkscape:window-y="27"
     inkscape:window-maximized="1" />
  <metadata
     id="metadata6291">
    <rdf:RDF>
      <cc:Work
         rdf:about="">
        <dc:format>image/svg+xml</dc:format>
        <dc:type
           rdf:resource="http://purl.org/dc/dcmitype/StillImage" />
        <dc:title />
      </cc:Work>
    </rdf:RDF>
  </metadata>
  <g
     inkscape:label="Layer 1"
     inkscape:groupmode="layer"
     id="layer1"
     transform="translate(0,-994.51965)">
    <path
       transform="matrix(1.8169088,0,0,1.8169088,-316.87744,-911.80838)"
       sodipodi:type="inkscape:offset"
       inkscape:radius="3.032671"
       inkscape:original="M 209.41992 1057.752 L 193.69141 1060.8594 L 191.74805 1076.3438 L 202.1875 1076.4102 L 202.79492 1069.2188 L 211.17969 1068.957 L 221.27344 1073.5879 L 220.68945 1077.8828 L 210.77148 1082.8555 L 205.64648 1090.4727 L 206.02344 1098.3105 L 217.66992 1097.957 L 217.57031 1092.0059 L 220.53906 1085.8613 L 229.55859 1080.1719 L 229.99023 1072.6016 L 226.57031 1063.7422 L 209.41992 1057.752 z M 205.45508 1102.4883 L 205.60352 1110.9531 L 218.11914 1111.127 L 217.32812 1103.2891 L 205.45508 1102.4883 z "
       style="fill:#000000;stroke:none;stroke-width:0.97524053px;stroke-linecap:butt;stroke-linejoin:miter;stroke-opacity:1"
       id="path938-3"
       d="m 209.5293,1054.7207 a 3.0329742,3.0329742 0 0 0 -0.69727,0.057 l -15.72851,3.1075 a 3.0329742,3.0329742 0 0 0 -2.42188,2.5976 l -1.94336,15.4844 a 3.0329742,3.0329742 0 0 0 2.99024,3.4102 l 10.43945,0.066 a 3.0329742,3.0329742 0 0 0 3.04101,-2.7774 l 0.38086,-4.5 4.97266,-0.1562 7.40234,3.3964 -0.0645,0.4825 -8.48828,4.2558 a 3.0329742,3.0329742 0 0 0 -1.15625,1.0176 l -5.125,7.6172 a 3.0329742,3.0329742 0 0 0 -0.51367,1.8398 l 0.37695,7.8379 a 3.0329742,3.0329742 0 0 0 0.58789,1.6504 3.0329742,3.0329742 0 0 0 -1.1582,2.4336 l 0.14844,8.4649 a 3.0329742,3.0329742 0 0 0 2.98828,2.9804 l 12.51562,0.1739 a 3.0329742,3.0329742 0 0 0 3.06055,-3.3379 l -0.79102,-7.8379 a 3.0329742,3.0329742 0 0 0 -1.41797,-2.2696 3.0329742,3.0329742 0 0 0 1.77539,-2.8086 l -0.0879,-5.2304 2.27735,-4.7129 8.2832,-5.2266 a 3.0329742,3.0329742 0 0 0 1.41016,-2.3925 l 0.43164,-7.5704 a 3.0329742,3.0329742 0 0 0 -0.19727,-1.2636 l -3.41992,-8.8594 a 3.0329742,3.0329742 0 0 0 -1.83008,-1.7715 l -17.15039,-5.9902 a 3.0329742,3.0329742 0 0 0 -0.89062,-0.168 z" />
    <path
       style="fill:#ff6600;stroke:none;stroke-width:1.77192307px;stroke-linecap:butt;stroke-linejoin:miter;stroke-opacity:1"
       d="m 31.508484,1043.811 18.970363,0.1181 1.103282,-13.0693 15.233236,-0.4747 18.339913,8.4157 -1.059839,7.8009 -18.021355,9.0379 -9.311948,13.8412 0.685083,14.2427 21.160338,-0.6446 -0.179511,-10.8126 5.393185,-11.1636 16.388809,-10.3392 0.78336,-13.756 -6.213538,-16.0954 -31.160567,-10.884 -28.577232,5.6493 z"
       id="path938"
       inkscape:connector-curvature="0"
       sodipodi:nodetypes="cccccccccccccccccc" />
    <path
       style="fill:#ff6600;stroke:none;stroke-width:1.77192307px;stroke-linecap:butt;stroke-linejoin:miter;stroke-opacity:1"
       d="m 56.413816,1091.3124 21.573085,1.4532 1.438029,14.2434 -22.739504,-0.3172 z"
       id="path940"
       inkscape:connector-curvature="0"
       sodipodi:nodetypes="ccccc" />
    <path
       style="fill:#ff9955;stroke:none;stroke-width:1.77192307px;stroke-linecap:butt;stroke-linejoin:miter;stroke-opacity:1"
       d="m 31.508484,1043.811 10.557349,-23.3404 -7.023843,-4.7932 z"
       id="path942"
       inkscape:connector-curvature="0"
       sodipodi:nodetypes="cccc" />
    <path
       style="fill:#ff7f2a;stroke:none;stroke-width:1.77192307px;stroke-linecap:butt;stroke-linejoin:miter;stroke-opacity:1"
       d="m 42.065833,1020.4706 21.553389,-10.4418 -28.577232,5.6486 z"
       id="path944"
       inkscape:connector-curvature="0"
       sodipodi:nodetypes="cccc" />
    <path
       style="fill:#ff7f2a;stroke:none;stroke-width:1.77192307px;stroke-linecap:butt;stroke-linejoin:miter;stroke-opacity:1"
       d="m 63.619222,1010.0288 23.870548,13.2378 7.29002,-2.3538 z"
       id="path946"
       inkscape:connector-curvature="0"
       sodipodi:nodetypes="cccc" />
    <path
       style="fill:#d45500;stroke:none;stroke-width:1.77192307px;stroke-linecap:butt;stroke-linejoin:miter;stroke-opacity:1"
       d="m 51.582129,1030.8606 -6.556134,6.8859 5.452852,6.1833 z"
       id="path948"
       inkscape:connector-curvature="0"
       sodipodi:nodetypes="cccc" />
    <path
       style="fill:#aa4400;stroke:none;stroke-width:1.77192307px;stroke-linecap:butt;stroke-linejoin:miter;stroke-opacity:1"
       d="m 31.508484,1043.811 13.517511,-6.0645 5.452852,6.1833 z"
       id="path950"
       inkscape:connector-curvature="0"
       sodipodi:nodetypes="cccc" />
    <path
       style="fill:#aa4400;stroke:none;stroke-width:1.77192307px;stroke-linecap:butt;stroke-linejoin:miter;stroke-opacity:1"
       d="m 66.815365,1030.3858 23.989591,5.025 -5.649678,3.3908 z"
       id="path952"
       inkscape:connector-curvature="0"
       sodipodi:nodetypes="cccc" />
    <path
       style="fill:#ff9955;stroke:none;stroke-width:1.77192307px;stroke-linecap:butt;stroke-linejoin:miter;stroke-opacity:1"
       d="m 90.804956,1035.4108 -6.709517,11.1917 1.059839,-7.8009 z"
       id="path954"
       inkscape:connector-curvature="0"
       sodipodi:nodetypes="cccc" />
    <path
       style="fill:#d45500;stroke:none;stroke-width:1.77192307px;stroke-linecap:butt;stroke-linejoin:miter;stroke-opacity:1"
       d="m 100.20997,1050.7643 -19.140683,6.3784 2.751872,3.9607 z"
       id="path956"
       inkscape:connector-curvature="0" />
    <path
       style="fill:#aa4400;stroke:none;stroke-width:1.77192307px;stroke-linecap:butt;stroke-linejoin:miter;stroke-opacity:1"
       d="m 81.069287,1057.1427 -2.641313,15.1243 5.393185,-11.1636 z"
       id="path958"
       inkscape:connector-curvature="0" />
    <path
       style="fill:#d45500;stroke:none;stroke-width:1.77192307px;stroke-linecap:butt;stroke-linejoin:miter;stroke-opacity:1"
       d="m 78.427974,1072.267 -5.5149,4.8788 5.694483,5.9331 z"
       id="path960"
       inkscape:connector-curvature="0"
       sodipodi:nodetypes="cccc" />
    <path
       style="fill:#aa4400;stroke:none;stroke-width:1.77192307px;stroke-linecap:butt;stroke-linejoin:miter;stroke-opacity:1"
       d="m 72.913074,1077.1458 -15.465855,6.5777 21.160338,-0.6446 z"
       id="path962"
       inkscape:connector-curvature="0"
       sodipodi:nodetypes="cccc" />
    <path
       style="fill:#ff9955;stroke:none;stroke-width:1.77192307px;stroke-linecap:butt;stroke-linejoin:miter;stroke-opacity:1"
       d="m 56.762136,1069.4815 0.685083,14.242 3.202992,-14.4689 9.109527,-11.0379 -3.685654,-2.5764 z"
       id="path964"
       inkscape:connector-curvature="0"
       sodipodi:nodetypes="cccccc" />
    <path
       style="fill:#ff7f2a;stroke:none;stroke-width:1.77192307px;stroke-linecap:butt;stroke-linejoin:miter;stroke-opacity:1"
       d="m 69.759738,1058.2167 14.335701,-11.6142 -18.021355,9.0378 z"
       id="path966"
       inkscape:connector-curvature="0"
       sodipodi:nodetypes="cccc" />
    <path
       style="fill:#ff9955;stroke:none;stroke-width:1.77192307px;stroke-linecap:butt;stroke-linejoin:miter;stroke-opacity:1"
       d="m 56.685426,1106.6918 4.456895,-10.8678 -4.728505,-4.5116 z"
       id="path968"
       inkscape:connector-curvature="0"
       sodipodi:nodetypes="cccc" />
    <path
       style="fill:#ff7f2a;stroke:none;stroke-width:1.77192307px;stroke-linecap:butt;stroke-linejoin:miter;stroke-opacity:1"
       d="m 61.142321,1095.824 16.84458,-3.0584 -21.573085,-1.4532 z"
       id="path970"
       inkscape:connector-curvature="0"
       sodipodi:nodetypes="cccc" />
    <path
       style="fill:#aa4400;stroke:none;stroke-width:1.77192307px;stroke-linecap:butt;stroke-linejoin:miter;stroke-opacity:1"
       d="m 56.685426,1106.6918 16.006421,-3.5526 6.733083,3.8698 z"
       id="path972"
       inkscape:connector-curvature="0"
       sodipodi:nodetypes="cccc" />
    <path
       style="fill:#d45500;stroke:none;stroke-width:1.77192307px;stroke-linecap:butt;stroke-linejoin:miter;stroke-opacity:1"
       d="m 72.691847,1103.1392 5.295054,-10.3736 1.438029,14.2434 z"
       id="path974"
       inkscape:connector-curvature="0"
       sodipodi:nodetypes="cccc" />
  </g>
</svg>
