<?xml version="1.0" encoding="UTF-8" standalone="no"?>
<!-- Created with Inkscape (http://www.inkscape.org/) -->

<svg
   xmlns:dc="http://purl.org/dc/elements/1.1/"
   xmlns:cc="http://creativecommons.org/ns#"
   xmlns:rdf="http://www.w3.org/1999/02/22-rdf-syntax-ns#"
   xmlns:svg="http://www.w3.org/2000/svg"
   xmlns="http://www.w3.org/2000/svg"
   xmlns:sodipodi="http://sodipodi.sourceforge.net/DTD/sodipodi-0.dtd"
   xmlns:inkscape="http://www.inkscape.org/namespaces/inkscape"
   width="128"
   height="128"
   viewBox="0 0 128 128.00001"
   version="1.1"
   id="svg6294"
   inkscape:version="0.92.3 (2405546, 2018-03-11)"
   sodipodi:docname="main_quit.svg">
  <defs
     id="defs6288" />
  <sodipodi:namedview
     id="base"
     pagecolor="#ffffff"
     bordercolor="#666666"
     borderopacity="1.0"
     inkscape:pageopacity="0.0"
     inkscape:pageshadow="2"
     inkscape:zoom="2.9006348"
     inkscape:cx="23.947084"
     inkscape:cy="67.694928"
     inkscape:document-units="px"
     inkscape:current-layer="layer1"
     showgrid="false"
     units="px"
     inkscape:window-width="1366"
     inkscape:window-height="713"
     inkscape:window-x="0"
     inkscape:window-y="27"
     inkscape:window-maximized="1" />
  <metadata
     id="metadata6291">
    <rdf:RDF>
      <cc:Work
         rdf:about="">
        <dc:format>image/svg+xml</dc:format>
        <dc:type
           rdf:resource="http://purl.org/dc/dcmitype/StillImage" />
        <dc:title></dc:title>
      </cc:Work>
    </rdf:RDF>
  </metadata>
  <g
     inkscape:label="Layer 1"
     inkscape:groupmode="layer"
     id="layer1"
     transform="translate(0,-994.51965)">
    <path
       transform="matrix(7.6093267,0,0,7.6093235,-124.77162,-520.64686)"
       d="m 26.085938,200.43555 a 0.80795272,0.80795272 0 0 0 -0.05273,0.006 l -2.556641,0.33007 a 0.80795272,0.80795272 0 0 0 -0.699218,0.89258 l 0.152344,1.3125 a 0.80795272,0.80795272 0 0 0 -1.283204,-0.0742 l -3.214843,3.75196 a 0.80795272,0.80795272 0 0 0 -0.191407,0.59765 l 0.41211,4.57617 a 0.80795272,0.80795272 0 0 0 0.30664,0.56446 l 2.638672,2.0625 a 0.80795272,0.80795272 0 0 0 0.509766,0.17187 l 5.978516,-0.084 a 0.80795272,0.80795272 0 0 0 0.640624,-0.33203 l 2.47461,-3.37891 a 0.80795272,0.80795272 0 0 0 0.152344,-0.53906 l -0.371094,-4.82422 A 0.80795272,0.80795272 0 0 0 30.648438,204.875 l -2.927735,-2.10352 a 0.80795272,0.80795272 0 0 0 -0.873047,-0.043 l 0.0957,-1.43164 a 0.80795272,0.80795272 0 0 0 -0.857421,-0.86133 z m -2.845704,5.24023 0.15625,1.34766 a 0.80795272,0.80795272 0 0 0 0.865235,0.71289 l 1.566406,-0.12305 a 0.80795272,0.80795272 0 0 0 0.744141,-0.75 l 0.05469,-0.8164 a 0.80795272,0.80795272 0 0 0 0.01758,0.0176 l 1.421875,1.21289 0.09375,2.21094 -1.158203,1.58789 -4.361328,0.0352 -0.931641,-0.66602 -0.259765,-2.58789 1.628906,-1.8789 a 0.80795272,0.80795272 0 0 0 0.162109,-0.30274 z"
       id="path5995-1-8-6"
       style="fill:#000000;fill-opacity:1;stroke:none;stroke-width:0.30853224px;stroke-linecap:butt;stroke-linejoin:miter;stroke-opacity:1"
       inkscape:original="M 26.136719 201.24219 L 23.580078 201.57227 L 24.199219 206.93164 L 25.765625 206.80859 L 26.136719 201.24219 z M 22.259766 203.42773 L 19.044922 207.17969 L 19.457031 211.75586 L 22.095703 213.81836 L 28.074219 213.73438 L 30.548828 210.35547 L 30.177734 205.53125 L 27.25 203.42773 L 27.167969 205.44922 L 28.857422 206.89062 L 28.980469 209.73633 L 27.414062 211.88086 L 22.384766 211.92188 L 20.941406 210.89062 L 20.611328 207.5918 L 22.466797 205.44922 L 22.259766 203.42773 z "
       inkscape:radius="0.80787194"
       sodipodi:type="inkscape:offset" />
    <path
       inkscape:connector-curvature="0"
       id="path5995-0-7"
       d="m 74.108718,1010.6723 -19.452781,2.5127 4.706883,40.785 11.92254,-0.9436 z m -29.491774,16.6295 -24.470219,28.5479 3.137923,34.8276 20.077964,15.6858 45.49192,-0.6293 18.823558,-25.7246 -2.82329,-36.7073 -22.276138,-16.0003 -0.6255,15.375 12.86235,10.9787 0.93983,21.647 -11.92252,16.3149 -38.2724,0.3141 -10.982685,-7.8448 -2.508794,-25.0993 14.116748,-16.3108 z"
       style="fill:#c83737;stroke:none;stroke-width:2.34772205px;stroke-linecap:butt;stroke-linejoin:miter;stroke-opacity:1" />
    <path
       inkscape:connector-curvature="0"
       id="path6017-2-5"
       d="m 43.362612,1106.3631 39.02969,-7.9036 6.46223,7.2743 z"
       style="fill:#a02c2c;fill-opacity:1;stroke:none;stroke-width:2.01330042px;stroke-linecap:butt;stroke-linejoin:miter;stroke-opacity:1" />
    <path
       inkscape:connector-curvature="0"
       id="path6019-1-6"
       d="m 82.392302,1098.4595 25.285788,-18.4503 -18.823558,25.7246 z"
       style="fill:#782121;stroke:none;stroke-width:2.01330042px;stroke-linecap:butt;stroke-linejoin:miter;stroke-opacity:1" />
    <path
       inkscape:connector-curvature="0"
       id="path6021-0-9"
       d="m 45.560722,1091.9313 32.7959,3.5687 5.4765,-3.8828 z"
       style="fill:#d35f5f;stroke:none;stroke-width:2.01330042px;stroke-linecap:butt;stroke-linejoin:miter;stroke-opacity:1" />
    <path
       inkscape:connector-curvature="0"
       id="path6023-5-8"
       d="m 74.108718,1010.6723 -11.760218,9.4955 8.93686,32.8586 z"
       style="fill:#782121;fill-opacity:1;stroke:none;stroke-width:2.01330042px;stroke-linecap:butt;stroke-linejoin:miter;stroke-opacity:1" />
    <path
       inkscape:connector-curvature="0"
       id="path6025-1-7"
       d="m 81.953482,1042.6766 3.39824,-6.6352 -2.77306,-8.7398 z"
       style="fill:#de8787;fill-opacity:1;stroke:none;stroke-width:2.01330042px;stroke-linecap:butt;stroke-linejoin:miter;stroke-opacity:1" />
    <path
       inkscape:connector-curvature="0"
       id="path6027-1-2"
       d="m 85.351722,1036.0414 19.503078,7.2605 -22.276138,-16.0003 z"
       style="fill:#d35f5f;fill-opacity:1;stroke:none;stroke-width:2.01330042px;stroke-linecap:butt;stroke-linejoin:miter;stroke-opacity:1" />
    <path
       inkscape:connector-curvature="0"
       id="path6029-0-8"
       d="m 20.146725,1055.8497 21.636504,-16.0121 2.833715,-12.5358 z"
       style="fill:#de8787;fill-opacity:1;stroke:none;stroke-width:2.01330042px;stroke-linecap:butt;stroke-linejoin:miter;stroke-opacity:1" />
    <path
       inkscape:connector-curvature="0"
       id="path6031-8-2"
       d="m 41.783229,1039.8376 4.402762,2.8388 -1.569047,-15.3746 z"
       style="fill:#d35f5f;fill-opacity:1;stroke:none;stroke-width:2.01330042px;stroke-linecap:butt;stroke-linejoin:miter;stroke-opacity:1" />
  </g>
</svg>
