<?xml version="1.0" encoding="UTF-8" standalone="no"?>
<!-- Created with Inkscape (http://www.inkscape.org/) -->

<svg
   xmlns:dc="http://purl.org/dc/elements/1.1/"
   xmlns:cc="http://creativecommons.org/ns#"
   xmlns:rdf="http://www.w3.org/1999/02/22-rdf-syntax-ns#"
   xmlns:svg="http://www.w3.org/2000/svg"
   xmlns="http://www.w3.org/2000/svg"
   xmlns:sodipodi="http://sodipodi.sourceforge.net/DTD/sodipodi-0.dtd"
   xmlns:inkscape="http://www.inkscape.org/namespaces/inkscape"
   width="128"
   height="128"
   viewBox="0 0 128 128.00001"
   version="1.1"
   id="svg6294"
   inkscape:version="0.92.3 (2405546, 2018-03-11)"
   sodipodi:docname="main_race_multi.svg">
  <defs
     id="defs6288" />
  <sodipodi:namedview
     id="base"
     pagecolor="#ffffff"
     bordercolor="#666666"
     borderopacity="1.0"
     inkscape:pageopacity="0.0"
     inkscape:pageshadow="2"
     inkscape:zoom="2.1832557"
     inkscape:cx="15.209465"
     inkscape:cy="55.898017"
     inkscape:document-units="px"
     inkscape:current-layer="layer1"
     showgrid="false"
     units="px"
     inkscape:window-width="1366"
     inkscape:window-height="713"
     inkscape:window-x="0"
     inkscape:window-y="27"
     inkscape:window-maximized="1" />
  <metadata
     id="metadata6291">
    <rdf:RDF>
      <cc:Work
         rdf:about="">
        <dc:format>image/svg+xml</dc:format>
        <dc:type
           rdf:resource="http://purl.org/dc/dcmitype/StillImage" />
        <dc:title></dc:title>
      </cc:Work>
    </rdf:RDF>
  </metadata>
  <g
     inkscape:label="Layer 1"
     inkscape:groupmode="layer"
     id="layer1"
     transform="translate(0,-994.51965)">
    <path
       sodipodi:type="inkscape:offset"
       inkscape:radius="4.0285277"
       inkscape:original="M 590.42969 -183.53906 L 579.59961 -180.02344 L 574.95898 -165.95703 L 577.47461 -153.84961 L 585.20508 -149.38477 L 591.625 -150.75781 L 590.33008 -147.43945 L 597.34961 -133.27148 L 612.45508 -130.04297 L 620.18555 -134.50781 L 622.70117 -146.61523 L 618.06055 -160.68164 L 607.23047 -164.19727 L 605.80859 -163.71289 L 607.33008 -166.78125 L 602.38672 -179.46094 L 590.42969 -183.53906 z "
       style="fill:#000000;stroke:none;stroke-width:1.39895523px;stroke-linecap:butt;stroke-linejoin:miter;stroke-opacity:1"
       id="path2008-4-4"
       d="m 590.54492,-187.56641 a 4.0289306,4.0289306 0 0 0 -1.35937,0.19532 l -10.83008,3.51562 a 4.0289306,4.0289306 0 0 0 -2.58203,2.57031 l -4.64063,14.06641 a 4.0289306,4.0289306 0 0 0 -0.11719,2.08203 l 2.51563,12.10742 a 4.0289306,4.0289306 0 0 0 1.92773,2.66797 l 7.73047,4.46485 a 4.0289306,4.0289306 0 0 0 2.85743,0.45117 l 0.70117,-0.15039 6.99218,14.11328 a 4.0289306,4.0289306 0 0 0 2.76758,2.15039 l 15.10547,3.22851 a 4.0289306,4.0289306 0 0 0 2.85742,-0.45117 l 7.73047,-4.46484 a 4.0289306,4.0289306 0 0 0 1.92774,-2.66797 l 2.51562,-12.10742 a 4.0289306,4.0289306 0 0 0 -0.11719,-2.08203 l -4.64062,-14.06641 a 4.0289306,4.0289306 0 0 0 -2.58203,-2.57031 l -7.96289,-2.58594 a 4.0289306,4.0289306 0 0 0 -0.25782,-1.14453 l -4.94336,-12.67969 a 4.0289306,4.0289306 0 0 0 -2.45312,-2.34961 l -11.95703,-4.07812 a 4.0289306,4.0289306 0 0 0 -1.18555,-0.21485 z"
       transform="matrix(1.7545698,0,0,1.7545698,-985.73796,1333.6209)" />
    <path
       style="fill:#333333;stroke:none;stroke-width:2.45456457px;stroke-linecap:butt;stroke-linejoin:miter;stroke-opacity:1"
       d="m 50.0374,1074.9282 8.675119,-22.2455 20.976939,-7.1569 19.00269,6.1696 8.144002,24.6789 -4.41589,21.2438 -13.563182,7.8342 -26.5033,-5.6664 z"
       id="path2008-4"
       inkscape:connector-curvature="0"
       sodipodi:nodetypes="ccccccccc" />
    <path
       style="fill:#f2f2f2;stroke:none;stroke-width:3.08970809px;stroke-linecap:butt;stroke-linejoin:miter;stroke-opacity:1"
       d="m 97.702218,1073.2782 -0.94975,-10.5411 -6.30733,-4.4689 -6.77492,5.5794 -0.0737,10.4667 7.30971,5.4483 z"
       id="path4497-9-5"
       inkscape:connector-curvature="0"
       sodipodi:nodetypes="ccccccc" />
    <path
       style="fill:#cccccc;stroke:none;stroke-width:1.80251324px;stroke-linecap:butt;stroke-linejoin:miter;stroke-opacity:1"
       d="m 96.752468,1062.7371 -1.51946,9.2836 -4.32677,7.7419 6.79598,-6.4844 z"
       id="path4507-4-1-25"
       inkscape:connector-curvature="0"
       sodipodi:nodetypes="ccccc" />
    <path
       style="fill:#ffffff;fill-opacity:1;stroke:none;stroke-width:1.80251324px;stroke-linecap:butt;stroke-linejoin:miter;stroke-opacity:1"
       d="m 90.445138,1058.2682 -4.87752,6.6563 -1.97109,9.3898 0.0737,-10.4667 z"
       id="path4503-2-4"
       inkscape:connector-curvature="0"
       sodipodi:nodetypes="ccccc" />
    <path
       style="fill:#000000;fill-opacity:1;stroke:none;stroke-width:1.24789119px;stroke-linecap:butt;stroke-linejoin:miter;stroke-opacity:1"
       d="m 91.329618,1073.3089 0.0491,-3.7484 -2.27357,-2.242 -2.29077,1.8782 0.1316,3.9531 2.41867,2.1713 z"
       id="path4528-0-7-7"
       inkscape:connector-curvature="0"
       sodipodi:nodetypes="ccccccc" />
    <path
       style="fill:#f2f2f2;stroke:none;stroke-width:3.08970809px;stroke-linecap:butt;stroke-linejoin:miter;stroke-opacity:1"
       d="m 84.561718,1076.477 -0.56322,-19.2215 -8.93655,-6.1478 -10.442494,9.6508 1.476994,17.3036 9.2436,5.1698 z"
       id="path4499-0-4"
       inkscape:connector-curvature="0"
       sodipodi:nodetypes="ccccccc" />
    <path
       style="fill:#cccccc;stroke:none;stroke-width:1.80251324px;stroke-linecap:butt;stroke-linejoin:miter;stroke-opacity:1"
       d="m 83.998498,1057.2555 -3.82812,18.6265 -4.83033,7.3499 9.22167,-6.7549 z"
       id="path4507-9-4"
       inkscape:connector-curvature="0"
       sodipodi:nodetypes="ccccc" />
    <path
       style="fill:#ffffff;fill-opacity:1;stroke:none;stroke-width:1.80251324px;stroke-linecap:butt;stroke-linejoin:miter;stroke-opacity:1"
       d="m 75.061948,1051.1077 -6.26135,8.6161 -2.70415,18.3383 -1.476994,-17.3036 z"
       id="path4505-3-3"
       inkscape:connector-curvature="0"
       sodipodi:nodetypes="ccccc" />
    <path
       style="fill:#000000;fill-opacity:1;stroke:none;stroke-width:1.80251324px;stroke-linecap:butt;stroke-linejoin:miter;stroke-opacity:1"
       d="m 82.038468,1074.1008 0.22897,-5.2376 -2.99206,-2.9821 -4.12236,3.2614 0.22423,3.2072 2.67993,3.1895 z"
       id="path4528-6-0"
       inkscape:connector-curvature="0"
       sodipodi:nodetypes="ccccccc" />
    <path
       style="fill:#ff6600;stroke:none;stroke-width:3.20242143px;stroke-linecap:butt;stroke-linejoin:miter;stroke-opacity:1"
       d="m 72.234288,1083.3986 22.35322,-3.633 -2.51184,17.9611 z"
       id="path4495-0-7"
       inkscape:connector-curvature="0"
       sodipodi:nodetypes="cccc" />
    <path
       style="fill:#ff7d26;fill-opacity:1;stroke:none;stroke-width:1.0278579px;stroke-linecap:butt;stroke-linejoin:miter;stroke-opacity:1"
       d="m 94.587508,1079.7656 -17.88258,4.7112 -4.47064,-1.0782"
       id="path4834-6-8"
       inkscape:connector-curvature="0"
       sodipodi:nodetypes="ccc" />
    <path
       style="fill:#cf5300;fill-opacity:1;stroke:none;stroke-width:1.0278579px;stroke-linecap:butt;stroke-linejoin:miter;stroke-opacity:1"
       d="m 94.587508,1079.7656 -3.12243,7.9813 0.61059,9.9798"
       id="path4836-2-6"
       inkscape:connector-curvature="0"
       sodipodi:nodetypes="ccc" />
    <path
       style="fill:#ff8c3f;fill-opacity:1;stroke:none;stroke-width:1.0278579px;stroke-linecap:butt;stroke-linejoin:miter;stroke-opacity:1"
       d="m 92.075668,1097.7267 -15.37074,-13.2499 -4.47064,-1.0782"
       id="path4838-6-8"
       inkscape:connector-curvature="0"
       sodipodi:nodetypes="ccc" />
    <path
       style="fill:#4d4d4d;stroke:none;stroke-width:1.75456977px;stroke-linecap:butt;stroke-linejoin:miter;stroke-opacity:1"
       d="m 58.712519,1052.6827 2.183562,4.5012 -10.858681,17.7443 z"
       id="path2067-8"
       inkscape:connector-curvature="0"
       sodipodi:nodetypes="cccc" />
    <path
       style="fill:#666666;stroke:none;stroke-width:1.75456977px;stroke-linecap:butt;stroke-linejoin:miter;stroke-opacity:1"
       d="m 58.712519,1052.6827 20.976939,-7.1569 -18.793377,11.6581 z"
       id="path2069-4"
       inkscape:connector-curvature="0"
       sodipodi:nodetypes="cccc" />
    <path
       style="fill:#000000;stroke:none;stroke-width:1.75456977px;stroke-linecap:butt;stroke-linejoin:miter;stroke-opacity:1"
       d="m 106.83615,1076.3743 -4.41589,21.2438 -3.288242,-2.273 z"
       id="path2239-3"
       inkscape:connector-curvature="0"
       sodipodi:nodetypes="cccc" />
    <path
       style="fill:#1a1a1a;stroke:none;stroke-width:1.75456977px;stroke-linecap:butt;stroke-linejoin:miter;stroke-opacity:1"
       d="m 99.132018,1095.3451 -10.27494,10.1072 13.563182,-7.8342 z"
       id="path2241-1"
       inkscape:connector-curvature="0"
       sodipodi:nodetypes="cccc" />
    <path
       style="fill:#333333;stroke:none;stroke-width:2.45456457px;stroke-linecap:butt;stroke-linejoin:miter;stroke-opacity:1"
       d="m 79.865088,1040.9905 -8.67495,-22.2457 -20.977106,-7.1567 -19.002517,6.1696 -8.144011,24.6787 4.415726,21.244 13.563175,7.8341 26.503483,-5.6664 z"
       id="path2008"
       inkscape:connector-curvature="0"
       sodipodi:nodetypes="ccccccccc" />
    <path
       style="fill:#f2f2f2;stroke:none;stroke-width:3.08970809px;stroke-linecap:butt;stroke-linejoin:miter;stroke-opacity:1"
       d="m 32.200268,1039.3405 0.949924,-10.5411 6.307328,-4.4689 6.77492,5.5791 0.07369,10.4669 -7.309713,5.4483 z"
       id="path4497-9"
       inkscape:connector-curvature="0"
       sodipodi:nodetypes="ccccccc" />
    <path
       style="fill:#cccccc;stroke:none;stroke-width:1.80251324px;stroke-linecap:butt;stroke-linejoin:miter;stroke-opacity:1"
       d="m 46.23244,1029.9096 -2.395865,9.2094 -4.840507,6.7058 7.309713,-5.4483 z"
       id="path4507-4-1"
       inkscape:connector-curvature="0"
       sodipodi:nodetypes="ccccc" />
    <path
       style="fill:#ffffff;fill-opacity:1;stroke:none;stroke-width:1.80251324px;stroke-linecap:butt;stroke-linejoin:miter;stroke-opacity:1"
       d="m 39.45752,1024.3305 -4.409936,5.5458 -2.847316,9.4642 0.949924,-10.5411 z"
       id="path4503-2"
       inkscape:connector-curvature="0"
       sodipodi:nodetypes="ccccc" />
    <path
       style="fill:#000000;fill-opacity:1;stroke:none;stroke-width:1.24789119px;stroke-linecap:butt;stroke-linejoin:miter;stroke-opacity:1"
       d="m 38.572865,1039.3712 -0.04913,-3.7485 2.273572,-2.242 2.290766,1.8783 -0.131592,3.953 -2.418675,2.1713 z"
       id="path4528-0-7"
       inkscape:connector-curvature="0"
       sodipodi:nodetypes="ccccccc" />
    <path
       style="fill:#f2f2f2;stroke:none;stroke-width:3.08970809px;stroke-linecap:butt;stroke-linejoin:miter;stroke-opacity:1"
       d="m 45.340767,1042.5392 0.563217,-19.2215 8.936726,-6.1478 10.442498,9.6508 -1.477173,17.3036 -9.2436,5.1698 z"
       id="path4499-0"
       inkscape:connector-curvature="0"
       sodipodi:nodetypes="ccccccc" />
    <path
       style="fill:#cccccc;stroke:none;stroke-width:1.80251324px;stroke-linecap:butt;stroke-linejoin:miter;stroke-opacity:1"
       d="m 65.283208,1026.8207 -5.868335,16.7086 -4.852438,5.7648 9.2436,-5.1698 z"
       id="path4507-9"
       inkscape:connector-curvature="0"
       sodipodi:nodetypes="ccccc" />
    <path
       style="fill:#ffffff;fill-opacity:1;stroke:none;stroke-width:1.80251324px;stroke-linecap:butt;stroke-linejoin:miter;stroke-opacity:1"
       d="m 54.84071,1017.1699 -6.261533,8.6162 -3.23841,16.7531 0.563217,-19.2215 z"
       id="path4505-3"
       inkscape:connector-curvature="0"
       sodipodi:nodetypes="ccccc" />
    <path
       style="fill:#000000;fill-opacity:1;stroke:none;stroke-width:1.80251324px;stroke-linecap:butt;stroke-linejoin:miter;stroke-opacity:1"
       d="m 47.864014,1040.163 -0.228796,-5.2376 2.991893,-2.982 4.122537,3.2614 -0.224234,3.207 -2.680105,3.1896 z"
       id="path4528-6"
       inkscape:connector-curvature="0"
       sodipodi:nodetypes="ccccccc" />
    <path
       style="fill:#ff6600;stroke:none;stroke-width:3.20242143px;stroke-linecap:butt;stroke-linejoin:miter;stroke-opacity:1"
       d="m 57.668199,1049.4608 -22.353043,-3.633 2.511666,17.9612 z"
       id="path4495-0"
       inkscape:connector-curvature="0"
       sodipodi:nodetypes="cccc" />
    <path
       style="fill:#ff7d26;fill-opacity:1;stroke:none;stroke-width:1.0278579px;stroke-linecap:butt;stroke-linejoin:miter;stroke-opacity:1"
       d="m 57.668199,1049.4608 -19.628898,-0.7929 -2.724145,-2.8401"
       id="path4834-6"
       inkscape:connector-curvature="0"
       sodipodi:nodetypes="ccc" />
    <path
       style="fill:#cf5300;fill-opacity:1;stroke:none;stroke-width:1.0278579px;stroke-linecap:butt;stroke-linejoin:miter;stroke-opacity:1"
       d="m 37.826822,1063.789 7.491662,-8.7018 12.349715,-5.6264"
       id="path4836-2"
       inkscape:connector-curvature="0"
       sodipodi:nodetypes="ccc" />
    <path
       style="fill:#ff8c3f;fill-opacity:1;stroke:none;stroke-width:1.0278579px;stroke-linecap:butt;stroke-linejoin:miter;stroke-opacity:1"
       d="m 37.826822,1063.789 0.212479,-15.1211 -2.724145,-2.8401"
       id="path4838-6"
       inkscape:connector-curvature="0"
       sodipodi:nodetypes="ccc" />
    <path
       style="fill:#4d4d4d;stroke:none;stroke-width:1.75456977px;stroke-linecap:butt;stroke-linejoin:miter;stroke-opacity:1"
       d="m 34.269081,1021.1736 -3.058566,-3.4159 -8.144011,24.6787 z"
       id="path2067"
       inkscape:connector-curvature="0"
       sodipodi:nodetypes="cccc" />
    <path
       style="fill:#666666;stroke:none;stroke-width:1.75456977px;stroke-linecap:butt;stroke-linejoin:miter;stroke-opacity:1"
       d="m 34.269081,1021.1736 15.943951,-9.5855 -19.002517,6.1696 z"
       id="path2069"
       inkscape:connector-curvature="0" />
    <path
       style="fill:#000000;stroke:none;stroke-width:1.75456977px;stroke-linecap:butt;stroke-linejoin:miter;stroke-opacity:1"
       d="m 79.865088,1040.9905 -15.245634,19.768 2.929434,5.0896 z"
       id="path2239"
       inkscape:connector-curvature="0" />
    <path
       style="fill:#1a1a1a;stroke:none;stroke-width:1.75456977px;stroke-linecap:butt;stroke-linejoin:miter;stroke-opacity:1"
       d="m 64.619454,1060.7585 -23.574049,10.756 26.503483,-5.6664 z"
       id="path2241"
       inkscape:connector-curvature="0" />
  </g>
</svg>
