<?xml version="1.0" encoding="UTF-8" standalone="no"?>
<!-- Created with Inkscape (http://www.inkscape.org/) -->

<svg
   xmlns:dc="http://purl.org/dc/elements/1.1/"
   xmlns:cc="http://creativecommons.org/ns#"
   xmlns:rdf="http://www.w3.org/1999/02/22-rdf-syntax-ns#"
   xmlns:svg="http://www.w3.org/2000/svg"
   xmlns="http://www.w3.org/2000/svg"
   xmlns:sodipodi="http://sodipodi.sourceforge.net/DTD/sodipodi-0.dtd"
   xmlns:inkscape="http://www.inkscape.org/namespaces/inkscape"
   width="128"
   height="128"
   viewBox="0 0 128 128.00001"
   version="1.1"
   id="svg6294"
   inkscape:version="0.92.3 (2405546, 2018-03-11)"
   sodipodi:docname="main_network.svg">
  <defs
     id="defs6288" />
  <sodipodi:namedview
     id="base"
     pagecolor="#ffffff"
     bordercolor="#666666"
     borderopacity="1.0"
     inkscape:pageopacity="0.0"
     inkscape:pageshadow="2"
     inkscape:zoom="2.1832557"
     inkscape:cx="15.209465"
     inkscape:cy="55.898017"
     inkscape:document-units="px"
     inkscape:current-layer="layer1"
     showgrid="false"
     units="px"
     inkscape:window-width="1366"
     inkscape:window-height="713"
     inkscape:window-x="0"
     inkscape:window-y="27"
     inkscape:window-maximized="1" />
  <metadata
     id="metadata6291">
    <rdf:RDF>
      <cc:Work
         rdf:about="">
        <dc:format>image/svg+xml</dc:format>
        <dc:type
           rdf:resource="http://purl.org/dc/dcmitype/StillImage" />
        <dc:title></dc:title>
      </cc:Work>
    </rdf:RDF>
  </metadata>
  <g
     inkscape:label="Layer 1"
     inkscape:groupmode="layer"
     id="layer1"
     transform="translate(0,-994.51965)">
    <path
       style="fill:#000000;fill-opacity:1;stroke:none;stroke-width:1.40700591px;stroke-linecap:butt;stroke-linejoin:miter;stroke-opacity:1"
       d="m 83.097417,1014.5336 c -0.03518,6e-4 -0.07176,0 -0.106933,0 l -37.813282,1.8028 c -1.356213,0.065 -2.638136,0.6383 -3.588991,1.6075 l -11.904535,12.141 -12.445952,-4.5343 c -4.282222,-1.5591 -8.4442862,2.5747 -6.914168,6.8674 l 6.787678,19.0304 c 0.316998,0.8905 0.862917,1.6819 1.582882,2.2945 l 1.349318,1.146 v 23.8421 c 4.22e-4,1.4277 0.567868,2.7968 1.577395,3.8061 l 22.407693,22.4049 c 1.023456,1.0239 2.416111,1.5925 3.863779,1.5774 l 37.612644,-0.3984 c 1.481861,-0.017 2.891401,-0.6426 3.896701,-1.7314 l 3.62473,-3.9241 1.03049,0.4342 c 1.26391,0.5317 2.68316,0.5612 3.96818,0.083 l 16.471964,-6.1392 c 4.56869,-1.7039 4.70081,-8.118 0.20598,-10.0084 l -5.21577,-2.193 1.72035,-1.8605 c 0.94072,-1.0179 1.45245,-2.3597 1.42895,-3.7456 l -0.60177,-34.4084 c -0.0253,-1.4194 -0.6098,-2.7716 -1.62692,-3.7621 l -23.405124,-22.809 c -1.04217,-1.015 -2.450727,-1.5651 -3.905008,-1.525 z"
       id="path8988-3"
       inkscape:connector-curvature="0"
       sodipodi:nodetypes="cccccccccccccccccccccccccccc" />
    <path
       style="fill:#2c5aa0;stroke:none;stroke-width:1.40700591px;stroke-linecap:butt;stroke-linejoin:miter;stroke-opacity:1"
       d="M 47.835599,1101.139 25.42889,1078.7323 v -36.611 l 20.005935,-20.4061 37.811312,-1.8004 23.407093,22.8067 0.60009,34.4103 -21.806485,23.6072 z"
       id="path8988"
       inkscape:connector-curvature="0"
       sodipodi:nodetypes="ccccccccc" />
    <path
       style="fill:#ff6600;stroke:none;stroke-width:1.40700591px;stroke-linecap:butt;stroke-linejoin:miter;stroke-opacity:1"
       d="m 52.731839,1021.3695 -7.29617,0.3463 -12.492664,12.74 9.791353,-2.5365 8.901001,-0.1013 6.202363,-4.8009 -5.100396,-5.6006 z m 29.813609,13.3501 -7.601067,3.5011 4.701932,1.8989 -5.402762,2.5006 -3.701551,-3.501 -9.101639,0.6019 -0.200639,2.8991 -3.201361,1.0004 6.001724,2.2011 1.101967,-1.8988 4.501293,3.0008 4.399708,8.1013 2.800223,-3.5011 5.202123,-0.2005 -3.099916,3.8005 -0.299551,2.5008 -11.104794,-0.099 -7.90076,-10.4042 -9.104313,-0.599 -7.202604,6.903 2.000622,10.3026 8.301757,6.3012 -2.300033,18.3049 7.202604,10.2035 10.604744,-11.7041 14.702226,-11.7012 -8.002346,-2.0033 1.70093,-4.3995 16.504881,8.1012 -0.0985,7.2026 6.00172,-3.501 2.880004,1.3878 4.42166,-4.7872 -0.5991,-34.4111 -5.50716,-5.367 -5.196504,-2.2369 -4.20188,3.2015 -3.80046,-2.8004 z m -53.576109,3.7895 -3.539464,3.611 v 15.5375 l 11.10212,-11.7341 z"
       id="path8990"
       inkscape:connector-curvature="0" />
    <path
       style="opacity:0.4;fill:#ffffff;fill-opacity:1;stroke:none;stroke-width:1.40700591px;stroke-linecap:butt;stroke-linejoin:miter;stroke-opacity:1"
       d="m 25.42889,1078.7323 3.686215,-32.9756 19.405846,-20.206 -3.086126,-3.8355 -20.00495,20.4049 z"
       id="path9013"
       inkscape:connector-curvature="0" />
    <path
       style="opacity:0.6;fill:#ffffff;fill-opacity:1;stroke:none;stroke-width:1.40700591px;stroke-linecap:butt;stroke-linejoin:miter;stroke-opacity:1"
       d="m 48.520951,1025.5507 34.725186,-5.6359 -37.810468,1.801 z"
       id="path9015"
       inkscape:connector-curvature="0" />
    <path
       style="opacity:0.6;fill:#000000;fill-opacity:1;stroke:none;stroke-width:1.40700591px;stroke-linecap:butt;stroke-linejoin:miter;stroke-opacity:1"
       d="m 47.835599,1101.139 34.295486,-3.9669 20.206015,-22.6068 4.91664,2.5682 -21.806905,23.6055 z"
       id="path9017"
       inkscape:connector-curvature="0" />
    <path
       style="opacity:0.4;fill:#000000;fill-opacity:1;stroke:none;stroke-width:1.40700591px;stroke-linecap:butt;stroke-linejoin:miter;stroke-opacity:1"
       d="m 102.3371,1074.5653 4.31613,-31.8438 0.60009,34.4103 z"
       id="path9019"
       inkscape:connector-curvature="0" />
    <path
       style="fill:#ffffff;fill-opacity:1;stroke:none;stroke-width:1.40700591px;stroke-linecap:butt;stroke-linejoin:miter;stroke-opacity:1"
       d="m 31.156951,1036.355 -15.762405,-5.7441 6.7881,19.0321 35.357776,30.0461 38.606694,16.2492 16.470134,-6.1396 -12.29625,-5.1685 2.4745,3.3222 -18.66323,-5.5747 -35.69588,-20.5264 -18.118858,-16.8726 -7.078787,-8.8594 z"
       id="path9046"
       inkscape:connector-curvature="0"
       sodipodi:nodetypes="ccccccccccccc" />
  </g>
</svg>
