<?xml version="1.0" encoding="UTF-8" standalone="no"?>
<!-- Created with Inkscape (http://www.inkscape.org/) -->

<svg
   xmlns:dc="http://purl.org/dc/elements/1.1/"
   xmlns:cc="http://creativecommons.org/ns#"
   xmlns:rdf="http://www.w3.org/1999/02/22-rdf-syntax-ns#"
   xmlns:svg="http://www.w3.org/2000/svg"
   xmlns="http://www.w3.org/2000/svg"
   xmlns:sodipodi="http://sodipodi.sourceforge.net/DTD/sodipodi-0.dtd"
   xmlns:inkscape="http://www.inkscape.org/namespaces/inkscape"
   width="128"
   height="128"
   viewBox="0 0 128 128.00001"
   version="1.1"
   id="svg6294"
   inkscape:version="0.92.3 (2405546, 2018-03-11)"
   sodipodi:docname="mass.svg">
  <defs
     id="defs6288" />
  <sodipodi:namedview
     id="base"
     pagecolor="#ffffff"
     bordercolor="#666666"
     borderopacity="1.0"
     inkscape:pageopacity="0.0"
     inkscape:pageshadow="2"
     inkscape:zoom="4.6479467"
     inkscape:cx="27.042647"
     inkscape:cy="55.898017"
     inkscape:document-units="px"
     inkscape:current-layer="layer1"
     showgrid="false"
     units="px"
     inkscape:window-width="1366"
     inkscape:window-height="713"
     inkscape:window-x="0"
     inkscape:window-y="27"
     inkscape:window-maximized="1" />
  <metadata
     id="metadata6291">
    <rdf:RDF>
      <cc:Work
         rdf:about="">
        <dc:format>image/svg+xml</dc:format>
        <dc:type
           rdf:resource="http://purl.org/dc/dcmitype/StillImage" />
        <dc:title />
      </cc:Work>
    </rdf:RDF>
  </metadata>
  <g
     inkscape:label="Layer 1"
     inkscape:groupmode="layer"
     id="layer1"
     transform="translate(0,-994.51965)">
    <path
       transform="matrix(1.467118,0,0,1.467118,-4624.9496,-530.67309)"
       sodipodi:type="inkscape:offset"
       inkscape:radius="3.9299986"
       inkscape:original="M 3191.8184 1050.3301 L 3182.7695 1057.168 L 3179.5352 1068.2969 L 3170.0996 1068.2266 L 3165.877 1115.2812 L 3226.4043 1116.084 L 3223.5879 1068.6289 L 3214.0098 1068.5566 L 3207.0996 1053.3457 L 3191.8184 1050.3301 z M 3194.0801 1055.9609 L 3203.3887 1058.7754 L 3207.6387 1068.5098 L 3185.6914 1068.3438 L 3189.4551 1059.2793 L 3194.0801 1055.9609 z "
       style="fill:#000000;stroke:none;stroke-width:1px;stroke-linecap:butt;stroke-linejoin:miter;stroke-opacity:1"
       id="path8897-7"
       d="m 3191.7988,1046.4004 a 3.9303916,3.9303916 0 0 0 -2.3496,0.7949 l -9.0488,6.8379 a 3.9303916,3.9303916 0 0 0 -1.4043,2.0371 l -2.4043,8.2754 -6.4629,-0.049 a 3.9303916,3.9303916 0 0 0 -3.9434,3.5781 l -4.2226,47.0547 a 3.9303916,3.9303916 0 0 0 3.8613,4.2812 l 60.5274,0.8028 a 3.9303916,3.9303916 0 0 0 3.9765,-4.1621 l -2.8164,-47.4551 a 3.9303916,3.9303916 0 0 0 -3.8945,-3.6973 l -7.0684,-0.053 -5.8711,-12.9258 a 3.9303916,3.9303916 0 0 0 -2.8164,-2.2305 l -15.2812,-3.0156 a 3.9303916,3.9303916 0 0 0 -0.7813,-0.074 z m 2.9981,13.8828 5.7168,1.7285 1.1015,2.5235 -10.0547,-0.076 1.0957,-2.6387 z" />
    <path
       style="fill:#4d4d4d;stroke:none;stroke-width:1.46711791px;stroke-linecap:butt;stroke-linejoin:miter;stroke-opacity:1"
       d="m 57.824457,1010.2853 -13.275804,10.0318 -4.743925,16.3284 -13.844314,-0.1041 -6.195052,69.0348 88.800698,1.1778 -4.13199,-69.6222 -14.053529,-0.1057 -10.136761,-22.3164 z m 3.318474,8.2604 13.656961,4.1292 6.235838,14.2808 -32.200305,-0.2423 5.520471,-13.2998 z"
       id="path8897"
       inkscape:connector-curvature="0"
       sodipodi:nodetypes="cccccccccccccccc" />
    <path
       style="fill:#666666;stroke:none;stroke-width:1.46711791px;stroke-linecap:butt;stroke-linejoin:miter;stroke-opacity:1"
       d="m 19.765362,1105.5762 12.855476,-62.1844 -6.660424,-6.8504 z"
       id="path8902"
       inkscape:connector-curvature="0" />
    <path
       style="fill:#808080;stroke:none;stroke-width:1.46711791px;stroke-linecap:butt;stroke-linejoin:miter;stroke-opacity:1"
       d="m 32.620838,1043.3918 71.813232,-6.26 -78.473656,-0.5904 z"
       id="path8904"
       inkscape:connector-curvature="0" />
    <path
       style="fill:#1a1a1a;stroke:none;stroke-width:1.46711791px;stroke-linecap:butt;stroke-linejoin:miter;stroke-opacity:1"
       d="m 104.43407,1037.1318 -3.80732,61.7495 7.93931,7.8727 z"
       id="path8906"
       inkscape:connector-curvature="0" />
    <path
       style="fill:#333333;stroke:none;stroke-width:1.46711791px;stroke-linecap:butt;stroke-linejoin:miter;stroke-opacity:1"
       d="m 100.62675,1098.8813 -80.861388,6.6949 88.800698,1.1778 z"
       id="path8908"
       inkscape:connector-curvature="0" />
    <path
       style="fill:#666666;fill-opacity:1;stroke:none;stroke-width:1.46711791px;stroke-linecap:butt;stroke-linejoin:miter;stroke-opacity:1"
       d="m 39.804728,1036.6455 7.105692,-14.2188 -2.361767,-2.1096 z"
       id="path8912"
       inkscape:connector-curvature="0" />
    <path
       style="fill:#808080;fill-opacity:1;stroke:none;stroke-width:1.46711791px;stroke-linecap:butt;stroke-linejoin:miter;stroke-opacity:1"
       d="m 46.91042,1022.4267 10.914037,-12.1416 -13.275804,10.032 z"
       id="path8914"
       inkscape:connector-curvature="0" />
    <path
       style="fill:#333333;fill-opacity:1;stroke:none;stroke-width:1.46711791px;stroke-linecap:butt;stroke-linejoin:miter;stroke-opacity:1"
       d="m 86.024522,1036.9932 -5.780742,-22.2837 10.136761,22.3164 z"
       id="path8916"
       inkscape:connector-curvature="0" />
    <path
       style="fill:#1a1a1a;fill-opacity:1;stroke:none;stroke-width:1.46711791px;stroke-linecap:butt;stroke-linejoin:miter;stroke-opacity:1"
       d="m 74.799892,1022.6749 -11.513942,-7.3408 -2.143019,3.2116 z"
       id="path8918"
       inkscape:connector-curvature="0" />
    <path
       transform="matrix(1.467118,0,0,1.467118,-4624.9496,-530.67309)"
       sodipodi:type="inkscape:offset"
       inkscape:radius="1.6087025"
       inkscape:original="M 3181.2031 1079.1523 L 3181.2031 1101.0566 L 3186.123 1101.0566 L 3186.123 1096.1582 L 3187.3223 1094.7891 L 3191.3438 1101.0566 L 3196.6484 1101.0566 L 3190.498 1091.6328 L 3196.3906 1084.627 L 3190.7012 1084.627 L 3186.3379 1090.0605 L 3186.123 1090.0605 L 3186.123 1079.1523 L 3181.2031 1079.1523 z M 3203.082 1084.4141 C 3201.984 1084.4141 3200.9528 1084.7162 3199.9902 1085.3223 C 3199.0276 1085.9284 3198.2474 1086.8459 3197.6484 1088.0723 C 3197.0495 1089.2987 3196.75 1090.8448 3196.75 1092.7129 C 3196.75 1094.5811 3197.0495 1096.1047 3197.6484 1097.2812 C 3198.2474 1098.4578 3199.0276 1099.3227 3199.9902 1099.8789 C 3200.9528 1100.435 3201.984 1100.7129 3203.082 1100.7129 C 3204.066 1100.7129 3204.8778 1100.5363 3205.5195 1100.1797 C 3206.1613 1099.8232 3206.5888 1099.4298 3206.8027 1099.002 L 3207.0605 1099.002 L 3207.0605 1100.0723 C 3207.0605 1101.2702 3206.7611 1102.1181 3206.1621 1102.6172 C 3205.5632 1103.1164 3204.7494 1103.3652 3203.7227 1103.3652 C 3202.867 1103.3652 3202.0966 1103.2273 3201.4121 1102.9492 C 3200.7276 1102.6711 3200.1286 1102.3402 3199.6152 1101.9551 L 3197.5625 1105.291 C 3197.862 1105.5904 3198.3211 1105.8972 3198.9414 1106.2109 C 3199.5617 1106.5318 3200.296 1106.7998 3201.1445 1107.0137 C 3201.993 1107.2348 3202.9105 1107.3457 3203.8945 1107.3457 C 3205.4775 1107.3457 3206.8639 1107.0732 3208.0547 1106.5312 C 3209.2526 1105.9965 3210.1826 1105.2063 3210.8457 1104.1582 C 3211.516 1103.1171 3211.8516 1101.8397 3211.8516 1100.3281 L 3211.8516 1084.7129 L 3206.9746 1084.7129 L 3206.9746 1086.3809 L 3206.7598 1086.3809 C 3206.4817 1085.7606 3206.0127 1085.2797 3205.3496 1084.9375 C 3204.6936 1084.5881 3203.9377 1084.4141 3203.082 1084.4141 z M 3204.5352 1088.3066 C 3205.2624 1088.3066 3205.8417 1088.5095 3206.2695 1088.916 C 3206.7045 1089.3153 3207.0138 1089.8513 3207.1992 1090.5215 C 3207.3917 1091.1847 3207.4883 1091.9144 3207.4883 1092.7129 C 3207.4883 1093.9536 3207.2637 1094.963 3206.8145 1095.7402 C 3206.3652 1096.5174 3205.6047 1096.9063 3204.5352 1096.9062 C 3203.5726 1096.9062 3202.8041 1096.568 3202.2266 1095.8906 C 3201.6561 1095.2061 3201.3691 1094.1461 3201.3691 1092.7129 C 3201.3691 1091.3653 3201.6345 1090.2953 3202.1621 1089.5039 C 3202.6969 1088.7053 3203.487 1088.3066 3204.5352 1088.3066 z "
       style="font-style:normal;font-weight:normal;font-size:30.11847305px;line-height:1.25;font-family:sans-serif;letter-spacing:0px;word-spacing:0px;fill:#000000;fill-opacity:1;stroke:none;stroke-width:0.75296181"
       id="text8922-3"
       d="m 3181.2031,1077.543 a 1.6088634,1.6088634 0 0 0 -1.6093,1.6093 v 21.9043 a 1.6088634,1.6088634 0 0 0 1.6093,1.6094 h 4.9199 a 1.6088634,1.6088634 0 0 0 1.6094,-1.6094 v -2.6504 l 2.2578,3.5196 a 1.6088634,1.6088634 0 0 0 1.3536,0.7402 h 5.3046 a 1.6088634,1.6088634 0 0 0 0.7578,-0.1894 l -1.2128,1.9707 a 1.6088634,1.6088634 0 0 0 0.2324,1.9824 c 0.4906,0.4904 1.0743,0.8539 1.7832,1.2129 0.7506,0.3877 1.5933,0.6908 2.5293,0.9277 0,3e-4 0,-3e-4 0,0 0.9942,0.2587 2.0488,0.3848 3.1523,0.3848 1.7638,0 3.3845,-0.3052 4.8164,-0.9551 l 0,-0 c 1.4516,-0.6485 2.6596,-1.6667 3.4902,-2.9785 0.8583,-1.3374 1.2578,-2.9455 1.2578,-4.6914 v -15.6152 a 1.6088634,1.6088634 0 0 0 -1.6093,-1.6094 h -4.877 a 1.6088634,1.6088634 0 0 0 -1.0332,0.375 c -0.8759,-0.4332 -1.8439,-0.6738 -2.8594,-0.6738 -1.393,0 -2.7522,0.4025 -3.9492,1.1562 -0.441,0.2777 -0.8047,0.6598 -1.1777,1.0293 a 1.6088634,1.6088634 0 0 0 -1.5645,-1.9726 h -5.6894 a 1.6088634,1.6088634 0 0 0 -1.2539,0.6015 l -1.7149,2.1348 v -6.6016 a 1.6088634,1.6088634 0 0 0 -1.6094,-1.6093 z m 15.0528,9.7422 c -0.015,0.03 -0.038,0.052 -0.053,0.082 -0.74,1.5154 -1.0625,3.3056 -1.0625,5.3457 0,1.5553 0.2611,2.9033 0.6836,4.1387 l -3.3262,-5.0977 z m 8.2793,2.6308 c 0.4279,0 0.531,0.075 0.6269,0.166 a 1.6088634,1.6088634 0 0 0 0.019,0.02 c 0.1866,0.1712 0.3453,0.4101 0.4668,0.8496 a 1.6088634,1.6088634 0 0 0 0.01,0.02 c 0.1446,0.4982 0.2246,1.0734 0.2246,1.7422 0,1.0465 -0.1935,1.7668 -0.457,2.2226 -0.172,0.2976 -0.2073,0.3614 -0.8867,0.3614 -0.5806,0 -0.7865,-0.1102 -1.0743,-0.4453 -0.2169,-0.2634 -0.4824,-0.9258 -0.4824,-2.1387 0,-1.1355 0.2274,-1.8726 0.5215,-2.3145 2e-4,-3e-4 -2e-4,-0 0,-0 0.2637,-0.3933 0.3963,-0.4805 1.0352,-0.4805 z m -6.42,10.4824 c 0.1404,0.1249 0.2863,0.2409 0.4356,0.3536 a 1.6088634,1.6088634 0 0 0 -0.2969,0.3437 1.6088634,1.6088634 0 0 0 -0.1387,-0.6973 z" />
    <path
       style="font-style:normal;font-weight:normal;font-size:30.11847305px;line-height:1.25;font-family:sans-serif;letter-spacing:0px;word-spacing:0px;fill:#ffffff;fill-opacity:1;stroke:none;stroke-width:1.10468376"
       d="M 42.25 58.050781 L 42.25 90.1875 L 49.46875 90.1875 L 49.46875 83 L 51.228516 80.992188 L 57.128906 90.1875 L 64.910156 90.1875 L 55.886719 76.361328 L 64.533203 66.083984 L 56.185547 66.083984 L 49.783203 74.054688 L 49.46875 74.054688 L 49.46875 58.050781 L 42.25 58.050781 z M 74.349609 65.771484 C 72.738714 65.771484 71.224748 66.214516 69.8125 67.103516 C 68.400253 67.992816 67.255757 69.337519 66.376953 71.136719 C 65.498297 72.936119 65.060547 75.204412 65.060547 77.945312 C 65.060547 80.686013 65.498297 82.922438 66.376953 84.648438 C 67.255757 86.374538 68.400253 87.642884 69.8125 88.458984 C 71.224748 89.274784 72.738714 89.683594 74.349609 89.683594 C 75.793254 89.683594 76.984332 89.423391 77.925781 88.900391 C 78.867378 88.377191 79.494777 87.799475 79.808594 87.171875 L 80.185547 87.171875 L 80.185547 88.742188 C 80.185547 90.499587 79.747945 91.744163 78.869141 92.476562 C 77.990485 93.208762 76.795352 93.574219 75.289062 93.574219 C 74.033649 93.574219 72.904633 93.372844 71.900391 92.964844 C 70.896148 92.556744 70.016891 92.070659 69.263672 91.505859 L 66.251953 96.400391 C 66.691354 96.839691 67.365338 97.2897 68.275391 97.75 C 69.185444 98.2208 70.262962 98.613934 71.507812 98.927734 C 72.752662 99.252134 74.097372 99.414062 75.541016 99.414062 C 77.863464 99.414062 79.897487 99.01375 81.644531 98.21875 C 83.401995 97.43425 84.767385 96.275981 85.740234 94.738281 C 86.723636 93.210981 87.214844 91.336841 87.214844 89.119141 L 87.214844 66.208984 L 80.060547 66.208984 L 80.060547 68.65625 L 79.746094 68.65625 C 79.338088 67.74615 78.648628 67.041062 77.675781 66.539062 C 76.713352 66.026462 75.605022 65.771484 74.349609 65.771484 z M 76.482422 71.482422 C 77.54931 71.482422 78.397757 71.7788 79.025391 72.375 C 79.663587 72.9609 80.118622 73.747169 80.390625 74.730469 C 80.673046 75.703369 80.814453 76.773713 80.814453 77.945312 C 80.814453 79.765412 80.485201 81.246419 79.826172 82.386719 C 79.166995 83.526819 78.051504 84.097656 76.482422 84.097656 C 75.070173 84.097656 73.94101 83.601222 73.09375 82.607422 C 72.256759 81.603122 71.835937 80.048012 71.835938 77.945312 C 71.835938 75.968112 72.225949 74.399381 73 73.238281 C 73.784615 72.066681 74.944588 71.482422 76.482422 71.482422 z "
       transform="translate(0,994.51965)"
       id="text8922" />
  </g>
</svg>
