<?xml version="1.0" encoding="UTF-8" standalone="no"?>
<!-- Created with Inkscape (http://www.inkscape.org/) -->

<svg
   xmlns:dc="http://purl.org/dc/elements/1.1/"
   xmlns:cc="http://creativecommons.org/ns#"
   xmlns:rdf="http://www.w3.org/1999/02/22-rdf-syntax-ns#"
   xmlns:svg="http://www.w3.org/2000/svg"
   xmlns="http://www.w3.org/2000/svg"
   xmlns:sodipodi="http://sodipodi.sourceforge.net/DTD/sodipodi-0.dtd"
   xmlns:inkscape="http://www.inkscape.org/namespaces/inkscape"
   width="128"
   height="128"
   viewBox="0 0 128 128.00001"
   version="1.1"
   id="svg6294"
   inkscape:version="0.92.3 (2405546, 2018-03-11)"
   sodipodi:docname="addons.svg">
  <defs
     id="defs6288" />
  <sodipodi:namedview
     id="base"
     pagecolor="#ffffff"
     bordercolor="#666666"
     borderopacity="1.0"
     inkscape:pageopacity="0.0"
     inkscape:pageshadow="2"
     inkscape:zoom="2.1832557"
     inkscape:cx="1.8151318"
     inkscape:cy="102.46796"
     inkscape:document-units="px"
     inkscape:current-layer="layer1"
     showgrid="false"
     units="px"
     inkscape:window-width="1366"
     inkscape:window-height="713"
     inkscape:window-x="0"
     inkscape:window-y="27"
     inkscape:window-maximized="1" />
  <metadata
     id="metadata6291">
    <rdf:RDF>
      <cc:Work
         rdf:about="">
        <dc:format>image/svg+xml</dc:format>
        <dc:type
           rdf:resource="http://purl.org/dc/dcmitype/StillImage" />
        <dc:title />
      </cc:Work>
    </rdf:RDF>
  </metadata>
  <g
     inkscape:label="Layer 1"
     inkscape:groupmode="layer"
     id="layer1"
     transform="translate(0,-994.51965)">
    <path
       sodipodi:type="inkscape:offset"
       inkscape:radius="1.2851087"
       inkscape:original="M 989.45117 963.0918 L 985.73047 963.24414 L 983.82031 964.70117 L 983.61914 967.41602 L 984.85352 969.66602 L 984.58203 972.07617 L 978.27734 972.71094 L 978.87109 978.74805 L 976.56641 978.64453 L 975.5293 977.60742 L 972.77344 977.51562 L 970.37109 979.23633 L 970.32617 981.76562 L 971.99414 984.76953 L 975.18555 984.91992 L 977.25977 983.50195 L 978.87891 983.57227 L 978.18555 990.64062 L 996.66992 990.42578 L 997.49219 983.34766 L 995.71289 983.33203 L 993.85938 984.55469 L 991.69336 984.45312 L 989.98047 982.7207 L 990.07422 979.95117 L 991.73828 978.375 L 994.57031 978.31641 L 996.21289 979.29688 L 997.56836 979.21484 L 997.09961 973.5625 L 989.95117 972.36133 L 989.87109 970.20117 L 991.05859 967.81836 L 991.00781 964.75195 L 989.45117 963.0918 z "
       style="fill:#000000;stroke:none;stroke-width:1px;stroke-linecap:butt;stroke-linejoin:miter;stroke-opacity:1"
       id="path5269-7"
       d="m 989.47266,961.80664 a 1.2852372,1.2852372 0 0 0 -0.0742,0.002 l -3.72071,0.15235 a 1.2852372,1.2852372 0 0 0 -0.72656,0.26172 l -1.91015,1.45703 a 1.2852372,1.2852372 0 0 0 -0.50196,0.92578 l -0.20117,2.71484 a 1.2852372,1.2852372 0 0 0 0.1543,0.71289 l 1.03906,1.89453 -0.10937,0.97461 -5.27344,0.5293 a 1.2852372,1.2852372 0 0 0 -1.15039,1.4043 l 0.44922,4.5625 -0.32422,-0.0156 -0.68555,-0.68359 a 1.2852372,1.2852372 0 0 0 -0.86523,-0.37695 l -2.75586,-0.0918 a 1.2852372,1.2852372 0 0 0 -0.79102,0.24023 l -2.40234,1.72071 a 1.2852372,1.2852372 0 0 0 -0.53711,1.02148 l -0.0449,2.5293 a 1.2852372,1.2852372 0 0 0 0.1621,0.64648 l 1.66797,3.00391 a 1.2852372,1.2852372 0 0 0 1.0625,0.66015 l 3.19141,0.15039 a 1.2852372,1.2852372 0 0 0 0.78516,-0.22265 l 1.54492,-1.05469 -0.54883,5.58984 a 1.2852372,1.2852372 0 0 0 1.29492,1.41016 l 18.48438,-0.21484 a 1.2852372,1.2852372 0 0 0 1.26172,-1.13672 l 0.82226,-7.07813 a 1.2852372,1.2852372 0 0 0 -1.26562,-1.43359 l -1.7793,-0.0156 a 1.2852372,1.2852372 0 0 0 -0.71875,0.21289 l -1.50391,0.99218 -1.24804,-0.0586 -0.97071,-0.98242 0.0566,-1.68946 0.92188,-0.87109 1.9668,-0.041 1.32617,0.79101 a 1.2852372,1.2852372 0 0 0 0.73633,0.17969 l 1.35546,-0.082 a 1.2852372,1.2852372 0 0 0 1.20313,-1.38867 l -0.46875,-5.65235 a 1.2852372,1.2852372 0 0 0 -1.06836,-1.16211 l -6.11523,-1.02734 -0.0293,-0.78711 1.04101,-2.08985 a 1.2852372,1.2852372 0 0 0 0.13477,-0.59374 l -0.0508,-3.06641 a 1.2852372,1.2852372 0 0 0 -0.34766,-0.85742 l -1.55664,-1.66016 a 1.2852372,1.2852372 0 0 0 -0.91601,-0.40625 z"
       transform="matrix(3.5857358,0,0,3.5857477,-3464.7244,-2444.2763)" />
    <path
       style="fill:#71c837;stroke:none;stroke-width:3.58574176px;stroke-linecap:butt;stroke-linejoin:miter;stroke-opacity:1"
       d="m 45.248305,1065.269 -2.129402,-21.6467 22.607878,-2.2764 0.975844,-8.645 -4.42955,-8.068 0.721151,-9.734 6.84976,-5.2276 13.339177,-0.5407 5.588022,5.9485 0.180409,10.9958 -4.256906,8.547 0.285739,7.7437 25.630443,4.3081 1.67911,20.2692 -4.8569,0.2911 -5.89403,-3.5127 -10.153314,0.2113 -5.96879,5.6522 -0.329609,9.9292 6.136369,6.2109 7.766205,0.3606 6.646069,-4.3828 6.38584,0.062 -2.95351,25.3794 -66.280285,0.7646 2.489899,-25.3405 -5.804063,-0.255 -7.441824,5.0857 -11.443401,-0.5407 -5.98162,-10.7714 0.164884,-9.0718 8.610903,-6.1646 9.882938,0.3296 3.718219,3.7182 z"
       id="path5269"
       inkscape:connector-curvature="0"
       sodipodi:nodetypes="ccccccccccccccccccccccccccccccccccc" />
    <path
       style="fill:#aade87;stroke:none;stroke-width:3.58574176px;stroke-linecap:butt;stroke-linejoin:miter;stroke-opacity:1"
       d="m 62.273075,1024.6329 4.639893,-7.2384 4.686619,-3.3348 -1.755601,-4.3884 -6.84976,5.2276 z"
       id="path5291"
       inkscape:connector-curvature="0" />
    <path
       style="fill:#c6e9af;stroke:none;stroke-width:3.58574176px;stroke-linecap:butt;stroke-linejoin:miter;stroke-opacity:1"
       d="m 71.599587,1014.0597 11.583576,-4.9291 -13.339177,0.5407 z"
       id="path5293"
       inkscape:connector-curvature="0" />
    <path
       style="fill:#447821;stroke:none;stroke-width:3.58574176px;stroke-linecap:butt;stroke-linejoin:miter;stroke-opacity:1"
       d="m 88.771185,1015.0791 -4.558005,9.4691 4.738414,1.5269 z"
       id="path5295"
       inkscape:connector-curvature="0" />
    <path
       style="fill:#5aa02c;fill-opacity:1;stroke:none;stroke-width:3.58574176px;stroke-linecap:butt;stroke-linejoin:miter;stroke-opacity:1"
       d="m 84.21318,1024.5482 -4.078877,8.4763 4.846124,9.3411 -0.285739,-7.7437 4.256906,-8.5468 z"
       id="path5297"
       inkscape:connector-curvature="0" />
    <path
       style="fill:#aade87;stroke:none;stroke-width:3.58574176px;stroke-linecap:butt;stroke-linejoin:miter;stroke-opacity:1"
       d="m 45.248305,1065.269 2.37681,-16.0587 -4.506212,-5.588 z"
       id="path5299"
       inkscape:connector-curvature="0" />
    <path
       style="fill:#c6e9af;stroke:none;stroke-width:3.58574176px;stroke-linecap:butt;stroke-linejoin:miter;stroke-opacity:1"
       d="m 47.625115,1049.2103 18.101666,-7.8644 -22.607878,2.2764 z"
       id="path5301"
       inkscape:connector-curvature="0" />
    <path
       style="fill:#447821;stroke:none;stroke-width:3.58574176px;stroke-linecap:butt;stroke-linejoin:miter;stroke-opacity:1"
       d="m 112.02182,1081.7648 -8.81682,18.6239 5.86331,6.7556 z"
       id="path5303"
       inkscape:connector-curvature="0" />
    <path
       style="fill:#5aa02c;stroke:none;stroke-width:3.58574176px;stroke-linecap:butt;stroke-linejoin:miter;stroke-opacity:1"
       d="m 103.205,1100.3887 -60.416975,7.5203 66.280285,-0.7647 z"
       id="path5305"
       inkscape:connector-curvature="0" />
    <path
       style="fill:#5aa02c;stroke:none;stroke-width:3.58574176px;stroke-linecap:butt;stroke-linejoin:miter;stroke-opacity:1"
       d="m 107.43308,1067.234 3.17779,-20.5603 1.67911,20.2692 z"
       id="path5307"
       inkscape:connector-curvature="0" />
    <path
       style="fill:#aade87;stroke:none;stroke-width:3.58574176px;stroke-linecap:butt;stroke-linejoin:miter;stroke-opacity:1"
       d="m 110.61087,1046.6737 -26.57335,0.9142 0.942907,-5.2223 z"
       id="path5309"
       inkscape:connector-curvature="0" />
    <path
       style="fill:#c6e9af;stroke:none;stroke-width:3.58574176px;stroke-linecap:butt;stroke-linejoin:miter;stroke-opacity:1"
       d="m 42.788025,1107.909 8.622624,-26.0717 -6.132725,0.731 z"
       id="path5311"
       inkscape:connector-curvature="0" />
    <path
       style="fill:#447821;stroke:none;stroke-width:3.58574176px;stroke-linecap:butt;stroke-linejoin:miter;stroke-opacity:1"
       d="m 45.277924,1082.5683 -6.936082,-4.5164 -7.210414,4.6868 0.900609,4.6604 7.441824,-5.086 z"
       id="path5313"
       inkscape:connector-curvature="0" />
    <path
       style="fill:#5aa02c;stroke:none;stroke-width:3.58574176px;stroke-linecap:butt;stroke-linejoin:miter;stroke-opacity:1"
       d="m 31.131428,1082.7387 -10.542792,4.1196 11.443401,0.5408 z"
       id="path5315"
       inkscape:connector-curvature="0" />
    <path
       style="fill:#b3ff80;stroke:none;stroke-width:3.58574176px;stroke-linecap:butt;stroke-linejoin:miter;stroke-opacity:1"
       d="m 14.607016,1076.0869 3.726138,-7.5888 6.399137,-3.6051 -1.349488,-4.0425 -8.610903,6.1646 z"
       id="path5317"
       inkscape:connector-curvature="0" />
    <path
       style="fill:#ccffaa;stroke:none;stroke-width:3.58574176px;stroke-linecap:butt;stroke-linejoin:miter;stroke-opacity:1"
       d="m 24.732291,1064.893 8.53345,-3.7129 -9.882938,-0.3296 z"
       id="path5319"
       inkscape:connector-curvature="0" />
    <path
       style="fill:#aade87;stroke:none;stroke-width:3.58574176px;stroke-linecap:butt;stroke-linejoin:miter;stroke-opacity:1"
       d="m 112.02182,1081.7648 -5.3753,3.2009 -5.60847,4.6524 -2.048139,-3.5326 6.646069,-4.3828 z"
       id="path5321"
       inkscape:connector-curvature="0" />
    <path
       style="fill:#c6e9af;stroke:none;stroke-width:3.58574176px;stroke-linecap:butt;stroke-linejoin:miter;stroke-opacity:1"
       d="m 101.03805,1089.6181 -9.814344,-3.8932 7.766205,0.3606 z"
       id="path5323"
       inkscape:connector-curvature="0" />
    <path
       style="fill:#5aa02c;stroke:none;stroke-width:3.58574176px;stroke-linecap:butt;stroke-linejoin:miter;stroke-opacity:1"
       d="m 85.087337,1079.514 -3.0411,-12.2656 6.628008,-6.8831 2.711491,3.5673 -5.96879,5.6522 z"
       id="path5325"
       inkscape:connector-curvature="0" />
    <path
       style="fill:#338000;stroke:none;stroke-width:3.58574176px;stroke-linecap:butt;stroke-linejoin:miter;stroke-opacity:1"
       d="m 88.674245,1060.3653 12.864805,3.356 -10.153314,0.2113 z"
       id="path5327"
       inkscape:connector-curvature="0" />
  </g>
</svg>
