<?xml version="1.0" encoding="UTF-8" standalone="no"?>
<!-- Created with Inkscape (http://www.inkscape.org/) -->

<svg
   xmlns:dc="http://purl.org/dc/elements/1.1/"
   xmlns:cc="http://creativecommons.org/ns#"
   xmlns:rdf="http://www.w3.org/1999/02/22-rdf-syntax-ns#"
   xmlns:svg="http://www.w3.org/2000/svg"
   xmlns="http://www.w3.org/2000/svg"
   xmlns:sodipodi="http://sodipodi.sourceforge.net/DTD/sodipodi-0.dtd"
   xmlns:inkscape="http://www.inkscape.org/namespaces/inkscape"
   width="128"
   height="128"
   viewBox="0 0 128 128.00001"
   version="1.1"
   id="svg6294"
   inkscape:version="0.92.3 (2405546, 2018-03-11)"
   sodipodi:docname="mode_3strikes.svg">
  <defs
     id="defs6288" />
  <sodipodi:namedview
     id="base"
     pagecolor="#ffffff"
     bordercolor="#666666"
     borderopacity="1.0"
     inkscape:pageopacity="0.0"
     inkscape:pageshadow="2"
     inkscape:zoom="3.4984259"
     inkscape:cx="70.956788"
     inkscape:cy="54.286426"
     inkscape:document-units="px"
     inkscape:current-layer="layer1"
     showgrid="false"
     units="px"
     inkscape:window-width="1366"
     inkscape:window-height="713"
     inkscape:window-x="0"
     inkscape:window-y="27"
     inkscape:window-maximized="1" />
  <metadata
     id="metadata6291">
    <rdf:RDF>
      <cc:Work
         rdf:about="">
        <dc:format>image/svg+xml</dc:format>
        <dc:type
           rdf:resource="http://purl.org/dc/dcmitype/StillImage" />
        <dc:title />
      </cc:Work>
    </rdf:RDF>
  </metadata>
  <g
     inkscape:label="Layer 1"
     inkscape:groupmode="layer"
     id="layer1"
     transform="translate(0,-994.51965)">
    <path
       sodipodi:type="inkscape:offset"
       inkscape:radius="10.101538"
       inkscape:original="M 6279.4316 1028.2578 L 6267.4355 1044.3574 L 6265.8574 1065.8223 L 6261.4375 1088.5508 L 6255.2383 1090.3223 L 6173.2949 1090.3223 L 6151.8301 1120.625 L 6195.9746 1120.5234 L 6203.125 1146.1816 L 6195.0898 1156.4492 L 6196.125 1166.8008 L 6147.3223 1168.502 L 6148.2148 1256.002 L 6204.9102 1255.5566 L 6204.5098 1242.2852 L 6381.8027 1241.1172 L 6381.9141 1252.0547 L 6438.6113 1251.6094 L 6435.9199 1162.6406 L 6387.0898 1164.3438 L 6388.1797 1153.4453 L 6380.1445 1143.1777 L 6386.5801 1120.0898 L 6428.3594 1119.9941 L 6406.8926 1090.3223 L 6324.4453 1090.3223 L 6318.8906 1087.9199 L 6313.8398 1066.1387 L 6310.0508 1042.7793 L 6297.7402 1028.2578 L 6279.4316 1028.2578 z M 6357.9766 1120.1543 L 6358.0547 1120.1543 L 6354.252 1141.3926 L 6345.9473 1149.2832 L 6357.6855 1120.1562 L 6357.9766 1120.1543 z M 6338.5371 1120.1992 L 6333.2891 1130.5742 L 6332.4805 1120.2129 L 6338.5371 1120.1992 z M 6248.0508 1120.4062 L 6247.6504 1128.3223 L 6243.6504 1120.416 L 6248.0508 1120.4062 z M 6224.918 1121.502 L 6237.3203 1152.2812 L 6229.0176 1144.3945 L 6224.918 1121.502 z M 6345.2832 1150.9297 L 6344.4316 1173.0254 L 6336.8379 1171.8867 L 6345.2832 1150.9297 z M 6237.9883 1153.9395 L 6244.7383 1170.6914 L 6238.6562 1171.3066 L 6237.9883 1153.9395 z M 6381.1816 1180.1816 L 6381.2773 1189.5547 L 6380.6914 1189.4434 L 6375.1172 1185.7949 L 6379.7734 1181.4863 L 6381.1816 1180.1816 z "
       style="fill:#000000;stroke:none;stroke-width:1px;stroke-linecap:butt;stroke-linejoin:miter;stroke-opacity:1"
       id="path7102-3-1-8"
       d="m 6279.4316,1018.1562 a 10.102548,10.102548 0 0 0 -8.0996,4.0665 l -11.9961,16.0996 a 10.102548,10.102548 0 0 0 -1.9746,5.2949 l -1.5351,20.8652 -3.0586,15.7383 h -79.4727 a 10.102548,10.102548 0 0 0 -8.2422,4.2617 l -21.4648,30.3028 a 10.102548,10.102548 0 0 0 8.2656,15.9414 l 36.4551,-0.084 3.7148,13.334 -4.8886,6.248 a 10.102548,10.102548 0 0 0 -2.1211,6.8555 l -38.043,1.3261 a 10.102548,10.102548 0 0 0 -9.75,10.1993 l 0.8926,87.5 a 10.102548,10.102548 0 0 0 10.1816,9.998 l 56.6953,-0.4453 a 10.102548,10.102548 0 0 0 10.0176,-10.4062 l -0.088,-2.9336 156.8848,-1.0332 0.01,0.873 a 10.102548,10.102548 0 0 0 10.1816,9.998 l 56.6973,-0.4453 a 10.102548,10.102548 0 0 0 10.0176,-10.4062 l -2.6914,-88.9688 a 10.102548,10.102548 0 0 0 -10.4492,-9.791 l -37.3067,1.3008 a 10.102548,10.102548 0 0 0 -2.1269,-6.625 l -4.8887,-6.248 3.0098,-10.7989 34.1269,-0.078 a 10.102548,10.102548 0 0 0 8.1602,-16.0234 l -21.4668,-29.6719 a 10.102548,10.102548 0 0 0 -8.1836,-4.1797 h -79.418 l -3.7187,-16.0332 -3.7344,-23.0254 a 10.102548,10.102548 0 0 0 -2.2656,-4.9141 l -12.3106,-14.5214 a 10.102548,10.102548 0 0 0 -7.7051,-3.5704 z m -32.9375,107.7618 -1.0937,1.7832 -1.2305,-1.2891 z m 134.4981,55.5273 0.2695,3.2246 -2.7226,-1.1719 z"
       transform="matrix(0.27077705,0,0,0.27077705,-1628.1637,761.68779)" />
    <path
       style="fill:#1a1a1a;stroke:none;stroke-width:0.27077705px;stroke-linecap:butt;stroke-linejoin:miter;stroke-opacity:1"
       d="m 63.357976,1062.7676 -1.025889,-2.6497 1.367613,-2.6497 3.589987,-1.0258 1.196608,-6.1546 0.427519,-5.8124 3.248252,-4.3592 h 4.9576 l 3.333617,3.932 1.025746,6.3252 1.367479,5.898 3.162888,1.3677 1.110967,3.3336 -0.7691,1.7949 z"
       id="path7102-7-4"
       inkscape:connector-curvature="0" />
    <path
       style="fill:#333333;stroke:none;stroke-width:0.27077705px;stroke-linecap:butt;stroke-linejoin:miter;stroke-opacity:1"
       d="m 99.670645,1077.0224 0.24157,23.6931 15.352235,-0.1209 -0.72883,-24.0906 z"
       id="path7066-6-2-7"
       inkscape:connector-curvature="0" />
    <path
       style="fill:#333333;stroke:none;stroke-width:0.27077705px;stroke-linecap:butt;stroke-linejoin:miter;stroke-opacity:1"
       d="m 36.389725,1078.0911 0.241998,23.6932 15.351814,-0.1211 -0.728694,-24.0901 z"
       id="path7066-72-2"
       inkscape:connector-curvature="0" />
    <path
       style="fill:#1a1a1a;stroke:none;stroke-width:0.27077705px;stroke-linecap:butt;stroke-linejoin:miter;stroke-opacity:1"
       d="m 51.983537,1101.6632 -0.728694,-24.0902 -2.660832,21.6599 z"
       id="path7134-2-4"
       inkscape:connector-curvature="0" />
    <path
       style="fill:#666666;stroke:none;stroke-width:0.27077705px;stroke-linecap:butt;stroke-linejoin:miter;stroke-opacity:1"
       d="m 101.18152,1079.1982 -1.269305,21.5173 -0.24157,-23.6931 z"
       id="path7130-9-61-0"
       inkscape:connector-curvature="0" />
    <path
       style="fill:#c83737;stroke:none;stroke-width:0.27077705px;stroke-linecap:butt;stroke-linejoin:miter;stroke-opacity:1"
       d="m 38.565709,1098.1577 0.604495,-7.6154 3.868115,-4.9563 6.406737,-1.8133 3.626544,-4.1099 13.176402,-1.3298 17.769509,0.1209 9.670637,1.4504 5.893017,3.8572 8.975665,1.7036 3.02205,4.3517 0.36263,7.8576 z"
       id="path7060-0-6"
       inkscape:connector-curvature="0" />
    <path
       style="fill:#de8787;stroke:none;stroke-width:0.27077705px;stroke-linecap:butt;stroke-linejoin:miter;stroke-opacity:1"
       d="m 84.017511,1078.4538 -17.387666,1.803 -12.893286,1.5214 -0.664959,-2.1154 13.176402,-1.3298 z"
       id="path7120-6-2"
       inkscape:connector-curvature="0" />
    <path
       style="fill:#4d4d4d;stroke:none;stroke-width:0.27077705px;stroke-linecap:butt;stroke-linejoin:miter;stroke-opacity:1"
       d="m 51.254843,1077.573 -13.353809,2.6943 -1.511309,-2.1762 z"
       id="path7128-15-9"
       inkscape:connector-curvature="0" />
    <path
       style="fill:#d35f5f;stroke:none;stroke-width:0.27077705px;stroke-linecap:butt;stroke-linejoin:miter;stroke-opacity:1"
       d="m 53.0716,1079.6628 -3.626544,4.1099 -6.406737,1.8133 -3.868115,4.9563 -0.604495,7.6154 2.115377,-6.4672 3.566222,-4.7748 6.225348,-1.6319 3.263903,-3.5056 z"
       id="path7122-9-9"
       inkscape:connector-curvature="0" />
    <path
       style="fill:#999999;stroke:none;stroke-width:0.27077705px;stroke-linecap:butt;stroke-linejoin:miter;stroke-opacity:1"
       d="m 49.445056,1064.6731 2.055055,7.3741 -2.17584,2.7802 0.604211,6.0441 3.264046,3.0222 5.439597,-0.2419 2.538626,-3.5056 -0.241856,-6.2859 -2.417405,-2.2966 -1.450848,-8.0993 z"
       id="path7041-4-0"
       inkscape:connector-curvature="0" />
    <path
       style="fill:#4d4d4d;stroke:none;stroke-width:0.27077705px;stroke-linecap:butt;stroke-linejoin:miter;stroke-opacity:1"
       d="m 114.53562,1076.5043 -13.3541,2.6939 -1.510875,-2.1758 z"
       id="path7128-4-90-8"
       inkscape:connector-curvature="0" />
    <path
       style="fill:#999999;stroke:none;stroke-width:0.27077705px;stroke-linecap:butt;stroke-linejoin:miter;stroke-opacity:1"
       d="m 101.48797,1063.8602 -2.055045,7.3739 2.175975,2.7804 -0.6045,6.044 -3.263615,3.0221 -5.439885,-0.2416 -2.538487,-3.5057 0.241713,-6.286 2.417702,-2.2966 1.450561,-8.0993 z"
       id="path7041-9-9-1"
       inkscape:connector-curvature="0" />
    <path
       style="fill:#999999;stroke:none;stroke-width:0.27077705px;stroke-linecap:butt;stroke-linejoin:miter;stroke-opacity:1"
       d="m 68.253685,1076.496 -7.265317,-14.36 -4.957744,-0.1722 6.923737,17.1811 5.641334,-0.088 z"
       id="path7083-1-3"
       inkscape:connector-curvature="0" />
    <path
       style="fill:#999999;stroke:none;stroke-width:0.27077705px;stroke-linecap:butt;stroke-linejoin:miter;stroke-opacity:1"
       d="m 82.333062,1076.5416 7.26546,-14.3601 4.957745,-0.1721 -6.923882,17.1808 -5.641335,-0.084 z"
       id="path7083-0-7-1"
       inkscape:connector-curvature="0" />
    <path
       style="fill:#3771c8;stroke:none;stroke-width:0.27077705px;stroke-linecap:butt;stroke-linejoin:miter;stroke-opacity:1"
       d="m 63.785208,1062.6822 3.248252,-4.8722 4.359076,-1.8805 7.351256,-0.342 4.786451,2.8206 2.82102,4.3595 1.281122,16.4236 -24.678024,-0.045 z"
       id="path7100-7-1"
       inkscape:connector-curvature="0"
       sodipodi:nodetypes="ccccccccc" />
    <path
       style="fill:#2a7fff;stroke:none;stroke-width:0.27077705px;stroke-linecap:butt;stroke-linejoin:miter;stroke-opacity:1"
       d="m 67.03346,1057.81 -3.248252,4.8722 -0.830847,16.4635 2.26604,-16.2251 2.901117,-3.9287 z"
       id="path7118-1-0"
       inkscape:connector-curvature="0" />
    <path
       style="fill:#4d4d4d;stroke:none;stroke-width:0.27077705px;stroke-linecap:butt;stroke-linejoin:miter;stroke-opacity:1"
       d="m 66.61036,1081.4761 0.725555,-17.2865 15.110104,-0.2415 1.088068,17.8904 z"
       id="path7064-1-3"
       inkscape:connector-curvature="0" />
    <path
       style="fill:#000000;stroke:none;stroke-width:0.27077705px;stroke-linecap:butt;stroke-linejoin:miter;stroke-opacity:1"
       d="m 66.61036,1081.4761 16.923727,0.3624 -3.389533,-2.4305 z"
       id="path7132-8-5-4"
       inkscape:connector-curvature="0"
       sodipodi:nodetypes="cccc" />
    <path
       style="fill:#4d4d4d;stroke:none;stroke-width:0.27077705px;stroke-linecap:butt;stroke-linejoin:miter;stroke-opacity:1"
       d="m 63.467521,1088.1243 0.362788,7.8574 22.846606,-0.2416 0.120933,-7.7365 z"
       id="path7062-97-0"
       inkscape:connector-curvature="0" />
    <path
       style="fill:#4d4d4d;stroke:none;stroke-width:0.27077705px;stroke-linecap:butt;stroke-linejoin:miter;stroke-opacity:1"
       d="m 70.599544,1044.6671 -0.664824,5.9838 -1.08778,5.6814 -5.14724,1.1359 3.589987,-1.0258 1.196608,-6.1546 0.427519,-5.8124 z"
       id="path7106-7-3"
       inkscape:connector-curvature="0"
       sodipodi:nodetypes="cccccccc" />
    <path
       style="fill:#5599ff;stroke:none;stroke-width:0.27077705px;stroke-linecap:butt;stroke-linejoin:miter;stroke-opacity:1"
       d="m 78.743792,1055.5875 -7.351256,0.342 -4.359076,1.8805 1.088058,1.1819 3.687016,-1.8133 z"
       id="path7116-6-9"
       inkscape:connector-curvature="0" />
    <path
       style="fill:#b3b3b3;stroke:none;stroke-width:0.27077705px;stroke-linecap:butt;stroke-linejoin:miter;stroke-opacity:1"
       d="m 93.872389,1062.6514 -0.125202,9.2145 -3.744475,1.1814 2.417691,-2.2966 z"
       id="path7160-9-73-1"
       inkscape:connector-curvature="0"
       sodipodi:nodetypes="ccccc" />
    <path
       style="fill:#808080;stroke:none;stroke-width:0.27077705px;stroke-linecap:butt;stroke-linejoin:miter;stroke-opacity:1"
       d="m 82.446019,1063.9481 -12.909358,2.0504 -2.200746,-1.8089 z"
       id="path7128-1-6-9"
       inkscape:connector-curvature="0"
       sodipodi:nodetypes="cccc" />
    <path
       style="fill:#999999;stroke:none;stroke-width:0.27077705px;stroke-linecap:butt;stroke-linejoin:miter;stroke-opacity:1"
       d="m 70.599544,1082.6846 h 8.945358 l 0.120923,-19.7037 -8.824149,0.121 z"
       id="path7058-5-6"
       inkscape:connector-curvature="0" />
    <path
       style="fill:#cccccc;stroke:none;stroke-width:0.27077705px;stroke-linecap:butt;stroke-linejoin:miter;stroke-opacity:1"
       d="m 70.599544,1082.6846 2.012653,-18.3483 -1.994449,-1.5713 z"
       id="path7227-6-9"
       inkscape:connector-curvature="0"
       sodipodi:nodetypes="cccc" />
    <path
       style="fill:#b3b3b3;stroke:none;stroke-width:0.27077705px;stroke-linecap:butt;stroke-linejoin:miter;stroke-opacity:1"
       d="m 72.612197,1064.3363 6.95091,-1.5713 h -8.945359 z"
       id="path7229-3-3"
       inkscape:connector-curvature="0" />
    <path
       style="fill:#666666;stroke:none;stroke-width:0.27077705px;stroke-linecap:butt;stroke-linejoin:miter;stroke-opacity:1"
       d="m 79.665825,1062.9809 -0.120923,19.7037 -1.734675,-2.029 z"
       id="path7223-9-3"
       inkscape:connector-curvature="0"
       sodipodi:nodetypes="cccc" />
    <path
       style="fill:#c83737;stroke:none;stroke-width:0.27077705px;stroke-linecap:butt;stroke-linejoin:miter;stroke-opacity:1"
       d="m 43.422868,1056.9218 h 63.252882 l 5.81235,8.0347 -74.877859,0.1721 z"
       id="path7039-4-8"
       inkscape:connector-curvature="0" />
    <path
       style="fill:#333333;stroke:none;stroke-width:0.27077705px;stroke-linecap:butt;stroke-linejoin:miter;stroke-opacity:1"
       d="m 77.119666,1040.1162 -4.404751,1.4079 -2.115371,3.143 -1.68573,-0.1913 3.248252,-4.3594 z"
       id="path7104-8-0"
       inkscape:connector-curvature="0" />
    <path
       style="fill:#de8787;stroke:none;stroke-width:0.27077705px;stroke-linecap:butt;stroke-linejoin:miter;stroke-opacity:1"
       d="m 37.610241,1065.1273 7.483134,-5.8937 -1.670507,-2.3118 z"
       id="path7108-12-5"
       inkscape:connector-curvature="0" />
    <path
       style="fill:#d35f5f;stroke:none;stroke-width:0.27077705px;stroke-linecap:butt;stroke-linejoin:miter;stroke-opacity:1"
       d="m 45.093375,1059.2336 61.582375,-2.3118 H 43.422868 Z"
       id="path7110-9-6"
       inkscape:connector-curvature="0" />
    <path
       style="fill:#666666;stroke:none;stroke-width:0.27077705px;stroke-linecap:butt;stroke-linejoin:miter;stroke-opacity:1"
       d="m 69.536661,1065.9985 -2.926301,15.4776 0.725555,-17.2865 z"
       id="path7130-4-3-6"
       inkscape:connector-curvature="0"
       sodipodi:nodetypes="cccc" />
    <path
       style="fill:#782121;stroke:none;stroke-width:0.27077705px;stroke-linecap:butt;stroke-linejoin:miter;stroke-opacity:1"
       d="m 37.610241,1065.1273 69.616949,-2.7508 5.26091,2.58 z"
       id="path7112-9-4"
       inkscape:connector-curvature="0" />
    <path
       style="fill:#a02c2c;stroke:none;stroke-width:0.27077705px;stroke-linecap:butt;stroke-linejoin:miter;stroke-opacity:1"
       d="m 107.22719,1062.3765 -0.55144,-5.4547 5.81235,8.0347 c 0.0199,-0.2152 0.0583,-0.4297 0.0583,-0.6459 0,-0.2163 -0.0399,0.4307 -0.0583,0.6459 z"
       id="path7114-0-0"
       inkscape:connector-curvature="0" />
    <path
       style="fill:#782121;stroke:none;stroke-width:0.27077705px;stroke-linecap:butt;stroke-linejoin:miter;stroke-opacity:1"
       d="m 38.565709,1098.1577 71.320741,-2.4176 2.05506,1.9342 z"
       id="path7124-8-0"
       inkscape:connector-curvature="0" />
    <path
       style="fill:#a02c2c;stroke:none;stroke-width:0.27077705px;stroke-linecap:butt;stroke-linejoin:miter;stroke-opacity:1"
       d="m 109.88645,1095.7401 1.69243,-5.9233 0.36263,7.8575 z"
       id="path7126-8-4"
       inkscape:connector-curvature="0" />
    <path
       style="fill:#666666;stroke:none;stroke-width:0.27077705px;stroke-linecap:butt;stroke-linejoin:miter;stroke-opacity:1"
       d="m 37.901034,1080.2673 -1.269311,21.517 -0.241998,-23.6932 z"
       id="path7130-50-6"
       inkscape:connector-curvature="0" />
    <path
       style="fill:#000000;stroke:none;stroke-width:0.27077705px;stroke-linecap:butt;stroke-linejoin:miter;stroke-opacity:1"
       d="m 36.631723,1101.7843 15.351814,-0.1211 -3.389526,-2.4303 z"
       id="path7132-96-2"
       inkscape:connector-curvature="0" />
    <path
       style="fill:#1a1a1a;stroke:none;stroke-width:0.27077705px;stroke-linecap:butt;stroke-linejoin:miter;stroke-opacity:1"
       d="m 115.26445,1100.5946 -0.72883,-24.0903 -2.66083,21.6597 z"
       id="path7134-6-3-6"
       inkscape:connector-curvature="0" />
    <path
       style="fill:#000000;stroke:none;stroke-width:0.27077705px;stroke-linecap:butt;stroke-linejoin:miter;stroke-opacity:1"
       d="m 99.912215,1100.7155 15.352235,-0.1209 -3.38966,-2.4309 z"
       id="path7132-9-8-7"
       inkscape:connector-curvature="0" />
    <path
       style="fill:#b3b3b3;stroke:none;stroke-width:0.27077705px;stroke-linecap:butt;stroke-linejoin:miter;stroke-opacity:1"
       d="m 49.445056,1064.6731 3.505758,7.4345 -3.626543,2.7198 2.17584,-2.7802 z"
       id="path7160-5-5"
       inkscape:connector-curvature="0" />
    <path
       style="fill:#666666;stroke:none;stroke-width:0.27077705px;stroke-linecap:butt;stroke-linejoin:miter;stroke-opacity:1"
       d="m 53.192528,1083.8937 4.472609,-1.2693 2.055055,-2.7199 1.450559,0.2417 -2.538626,3.5056 z"
       id="path7162-6-6"
       inkscape:connector-curvature="0" />
    <path
       style="fill:#808080;stroke:none;stroke-width:0.27077705px;stroke-linecap:butt;stroke-linejoin:miter;stroke-opacity:1"
       d="m 59.720192,1079.9045 1.208703,-6.0442 0.241856,6.2859 z"
       id="path7164-1-9"
       inkscape:connector-curvature="0" />
    <path
       style="fill:#666666;stroke:none;stroke-width:0.27077705px;stroke-linecap:butt;stroke-linejoin:miter;stroke-opacity:1"
       d="m 92.3009,1082.839 4.472601,-0.7859 2.780334,-2.2364 1.450565,0.2418 -3.263615,3.0221 z"
       id="path7162-0-1-8"
       inkscape:connector-curvature="0"
       sodipodi:nodetypes="cccccc" />
    <path
       style="fill:#808080;stroke:none;stroke-width:0.27077705px;stroke-linecap:butt;stroke-linejoin:miter;stroke-opacity:1"
       d="m 99.553835,1079.8167 2.055065,-5.8022 -0.6045,6.044 z"
       id="path7164-8-5-7"
       inkscape:connector-curvature="0"
       sodipodi:nodetypes="cccc" />
    <path
       style="fill:#1a1a1a;stroke:none;stroke-width:0.27077705px;stroke-linecap:butt;stroke-linejoin:miter;stroke-opacity:1"
       d="m 83.534087,1081.8385 -1.088068,-17.8904 -2.301465,15.4599 z"
       id="path7134-3-9-2"
       inkscape:connector-curvature="0"
       sodipodi:nodetypes="cccc" />
    <path
       style="fill:#808080;stroke:none;stroke-width:0.27077705px;stroke-linecap:butt;stroke-linejoin:miter;stroke-opacity:1"
       d="m 79.544902,1082.6846 h -8.945358 l 7.210827,-2.029 z"
       id="path7225-8-8"
       inkscape:connector-curvature="0"
       sodipodi:nodetypes="cccc" />
    <path
       sodipodi:type="inkscape:offset"
       inkscape:radius="1.5324794"
       inkscape:original="M 5910.1445 1027.8008 L 5906.1641 1036.8477 L 5901.1543 1032.6055 L 5901.9785 1038.7266 L 5893.7637 1037.2754 L 5898.4297 1043.3809 L 5892.7793 1046.6172 L 5898.7832 1048.4023 L 5894.9961 1054.8906 L 5901.9102 1051.7324 L 5902.5078 1057.8262 L 5906.0156 1052.9121 L 5908.4199 1061.0293 L 5910.2637 1053.9941 L 5914.7012 1058.4941 L 5914.1895 1051.3457 L 5921.3535 1054.0898 L 5917.7695 1048.9961 L 5923.4473 1045.6836 L 5917.4316 1043.1836 L 5923.1992 1035.9414 L 5915.9219 1037.4805 L 5916.3027 1031.8047 L 5912.3809 1035.5762 L 5910.1445 1027.8008 z "
       style="fill:#000000;stroke:none;stroke-width:1.14870226px;stroke-linecap:butt;stroke-linejoin:miter;stroke-opacity:1"
       id="path3779-2"
       d="m 5910.1289,1026.2695 a 1.5326327,1.5326327 0 0 0 -1.3867,0.9141 l -3.1543,7.168 -3.4434,-2.9161 a 1.5326327,1.5326327 0 0 0 -2.5097,1.375 l 0.5449,4.0411 -6.1485,-1.086 a 1.5326327,1.5326327 0 0 0 -1.4843,2.4395 l 3.6035,4.7148 -4.1328,2.3672 a 1.5326327,1.5326327 0 0 0 0.3242,2.7988 l 4.1328,1.2286 -2.8027,4.8027 a 1.5326327,1.5326327 0 0 0 1.9609,2.168 l 4.961,-2.2657 0.3886,3.9571 a 1.5326327,1.5326327 0 0 0 2.7735,0.7402 l 1.6836,-2.3574 1.5117,5.1054 a 1.5326327,1.5326327 0 0 0 2.9511,-0.047 l 1.1602,-4.4297 2.5469,2.582 a 1.5326327,1.5326327 0 0 0 2.6211,-1.1855 l -0.3399,-4.7461 4.9141,1.8828 a 1.5326327,1.5326327 0 0 0 1.8027,-2.3145 l -2.623,-3.7285 4.2344,-2.4707 a 1.5326327,1.5326327 0 0 0 -0.1836,-2.7402 l -4.1368,-1.7188 4.5,-5.6523 a 1.5326327,1.5326327 0 0 0 -1.5156,-2.4551 l -5.2969,1.1191 0.2461,-3.6523 a 1.5326327,1.5326327 0 0 0 -2.5918,-1.209 l -2.0898,2.0098 -1.5332,-5.332 a 1.5326327,1.5326327 0 0 0 -1.4883,-1.1075 z"
       transform="matrix(1.6426366,0,0,1.6426366,-9667.1774,-672.96069)" />
    <path
       style="fill:#ffcc00;stroke:none;stroke-width:1.88690042px;stroke-linecap:butt;stroke-linejoin:miter;stroke-opacity:1"
       d="m 26.273453,1023.2338 8.229612,6.9709 6.539474,-14.8623 3.673776,12.7717 6.441593,-6.1952 -0.625266,9.3228 11.954748,-2.5275 -9.476304,11.8973 9.881198,4.1047 -9.323509,5.4424 5.884189,8.3678 -11.765248,-4.508 0.840233,11.7417 -7.289081,-7.3923 -3.029021,11.5576 -3.950203,-13.3348 -5.7607,8.0739 -0.983639,-10.0118 -11.357649,5.1892 6.221504,-10.6599 -9.863128,-2.9312 9.283673,-5.3155 -7.665095,-10.029 13.493089,2.3836 z"
       id="path3779"
       inkscape:connector-curvature="0"
       sodipodi:nodetypes="ccccccccccccccccccccccccc" />
    <path
       style="fill:#ffdd55;stroke:none;stroke-width:1.64263654px;stroke-linecap:butt;stroke-linejoin:miter;stroke-opacity:1"
       d="m 34.503065,1030.2047 3.618292,-1.9354 2.921182,-12.9269 z"
       id="path3781"
       inkscape:connector-curvature="0" />
    <path
       style="fill:#ffdd55;stroke:none;stroke-width:1.64263654px;stroke-linecap:butt;stroke-linejoin:miter;stroke-opacity:1"
       d="m 12.516032,1046.2508 8.428786,-2.1664 0.854887,-3.1491 z"
       id="path3783"
       inkscape:connector-curvature="0" />
    <path
       style="fill:#ffdd55;stroke:none;stroke-width:1.64263654px;stroke-linecap:butt;stroke-linejoin:miter;stroke-opacity:1"
       d="m 51.157908,1021.9189 -3.573335,7.7113 -2.868258,-1.5161 z"
       id="path3785"
       inkscape:connector-curvature="0" />
    <path
       style="fill:#ffdd55;stroke:none;stroke-width:1.64263654px;stroke-linecap:butt;stroke-linejoin:miter;stroke-opacity:1"
       d="m 50.532642,1031.2417 11.954748,-2.5275 -7.837666,3.7679 z"
       id="path3787"
       inkscape:connector-curvature="0" />
    <path
       style="fill:#ffdd55;stroke:none;stroke-width:1.64263654px;stroke-linecap:butt;stroke-linejoin:miter;stroke-opacity:1"
       d="m 16.157656,1059.8419 5.953899,-5.322 0.267605,-5.3379 z"
       id="path3789"
       inkscape:connector-curvature="0" />
    <path
       style="fill:#ffdd55;stroke:none;stroke-width:1.64263654px;stroke-linecap:butt;stroke-linejoin:miter;stroke-opacity:1"
       d="m 28.498944,1064.6645 1.45554,-6.7092 -2.439179,-3.3026 z"
       id="path3791"
       inkscape:connector-curvature="0" />
    <path
       style="fill:#d4aa00;stroke:none;stroke-width:1.64263654px;stroke-linecap:butt;stroke-linejoin:miter;stroke-opacity:1"
       d="m 16.157656,1059.8419 7.704076,-5.4841 3.653573,0.2949 z"
       id="path3793"
       inkscape:connector-curvature="0"
       sodipodi:nodetypes="cccc" />
    <path
       style="fill:#d4aa00;stroke:none;stroke-width:1.64263654px;stroke-linecap:butt;stroke-linejoin:miter;stroke-opacity:1"
       d="m 38.209847,1069.9254 0.239152,-7.7088 2.789869,-3.8488 z"
       id="path3795"
       inkscape:connector-curvature="0" />
    <path
       style="fill:#d4aa00;stroke:none;stroke-width:1.64263654px;stroke-linecap:butt;stroke-linejoin:miter;stroke-opacity:1"
       d="m 48.527949,1065.7601 -2.424952,-6.3852 1.584719,-5.3565 z"
       id="path3797"
       inkscape:connector-curvature="0" />
    <path
       style="fill:#d4aa00;stroke:none;stroke-width:1.64263654px;stroke-linecap:butt;stroke-linejoin:miter;stroke-opacity:1"
       d="m 53.568775,1050.1586 0.921468,-3.1586 8.402041,-2.2838 z"
       id="path3799"
       inkscape:connector-curvature="0" />
    <path
       style="fill:#d4aa00;stroke:none;stroke-width:1.64263654px;stroke-linecap:butt;stroke-linejoin:miter;stroke-opacity:1"
       d="m 53.011086,1040.6115 0.01565,-3.7403 9.459943,-8.157 z"
       id="path3801"
       inkscape:connector-curvature="0" />
    <path
       style="fill:#d4aa00;stroke:none;stroke-width:1.64263654px;stroke-linecap:butt;stroke-linejoin:miter;stroke-opacity:1"
       d="m 50.532642,1031.2417 0.625266,-9.3228 -2.580023,8.2148 z"
       id="path3803"
       inkscape:connector-curvature="0" />
    <path
       style="fill:#d4aa00;stroke:none;stroke-width:1.64263654px;stroke-linecap:butt;stroke-linejoin:miter;stroke-opacity:1"
       d="m 41.042539,1015.3424 0.06402,12.2705 3.609757,0.5012 z"
       id="path3805"
       inkscape:connector-curvature="0" />
    <path
       style="fill:#d4aa00;stroke:none;stroke-width:1.64263654px;stroke-linecap:butt;stroke-linejoin:miter;stroke-opacity:1"
       d="m 28.498944,1064.6645 3.304166,-7.123 2.456534,-0.9509 z"
       id="path3807"
       inkscape:connector-curvature="0" />
    <path
       sodipodi:type="inkscape:offset"
       inkscape:radius="2.0623975"
       inkscape:original="M 5908.1875 1037.0918 C 5907.355 1037.0918 5906.5878 1037.2424 5905.8848 1037.543 C 5905.1818 1037.8436 5904.6189 1038.2776 5904.1934 1038.8418 C 5903.7679 1039.406 5903.5547 1040.081 5903.5547 1040.8672 L 5906.6348 1040.8672 C 5906.6348 1040.4648 5906.803 1040.1517 5907.1406 1039.9297 C 5907.4829 1039.7031 5907.8687 1039.5898 5908.2988 1039.5898 C 5908.8816 1039.5898 5909.3136 1039.7448 5909.5957 1040.0547 C 5909.8778 1040.3646 5910.0195 1040.7283 5910.0195 1041.1445 C 5910.0195 1041.6856 5909.8646 1042.1417 5909.5547 1042.5117 C 5909.2494 1042.8771 5908.7845 1043.0586 5908.1602 1043.0586 L 5906.6348 1043.0586 L 5906.6348 1045.7227 L 5908.1602 1045.7227 C 5908.8123 1045.7227 5909.3221 1045.8479 5909.6875 1046.0977 C 5910.0575 1046.3428 5910.2422 1046.8197 5910.2422 1047.5273 C 5910.2422 1047.9991 5910.0708 1048.3938 5909.7285 1048.7129 C 5909.3863 1049.032 5908.9093 1049.1914 5908.2988 1049.1914 C 5907.7855 1049.1914 5907.3458 1049.044 5906.9805 1048.748 C 5906.6197 1048.4521 5906.4395 1048.0807 5906.4395 1047.6367 L 5903.3594 1047.6367 C 5903.3594 1048.3443 5903.5011 1048.9554 5903.7832 1049.4688 C 5904.0653 1049.9775 5904.4391 1050.3962 5904.9062 1050.7246 C 5905.378 1051.053 5905.8999 1051.2959 5906.4688 1051.4531 C 5907.0422 1051.6104 5907.614 1051.6895 5908.1875 1051.6895 C 5909.1587 1051.6895 5910.0291 1051.5301 5910.7969 1051.2109 C 5911.5692 1050.8872 5912.1771 1050.4191 5912.6211 1049.8086 C 5913.0697 1049.1935 5913.2949 1048.4515 5913.2949 1047.582 C 5913.2949 1046.7634 5913.0786 1046.0797 5912.6484 1045.5293 C 5912.2183 1044.9743 5911.6149 1044.5688 5910.8379 1044.3145 C 5911.5363 1043.9861 5912.0834 1043.5288 5912.4766 1042.9414 C 5912.8743 1042.3494 5913.0723 1041.7219 5913.0723 1041.0605 C 5913.0723 1039.7702 5912.6206 1038.7885 5911.7188 1038.1133 C 5910.8215 1037.4334 5909.6443 1037.0918 5908.1875 1037.0918 z "
       style="font-style:normal;font-weight:normal;font-size:19.53557777px;line-height:1.25;font-family:sans-serif;letter-spacing:0px;word-spacing:0px;fill:#000000;fill-opacity:1;stroke:none;stroke-width:0.48838946"
       id="text3828-7"
       d="m 5908.1875,1035.0293 c -1.0812,0 -2.1405,0.2012 -3.1133,0.6172 -0.9969,0.4263 -1.8815,1.0967 -2.5273,1.9531 -0.7023,0.9312 -1.0547,2.1085 -1.0547,3.2676 a 2.0626037,2.0626037 0 0 0 2.0625,2.0625 h 1.0234 a 2.0626037,2.0626037 0 0 0 -0.01,0.1289 v 2.5156 h -1.2129 a 2.0626037,2.0626037 0 0 0 -2.0625,2.0625 c 0,0.983 0.2053,1.9629 0.6797,2.8262 a 2.0626037,2.0626037 0 0 0 0,0.01 c 0.424,0.7646 1.0219,1.4383 1.7402,1.9433 a 2.0626037,2.0626037 0 0 0 0.01,0.01 c 0.6658,0.4634 1.4089,0.8072 2.1914,1.0234 a 2.0626037,2.0626037 0 0 0 0,0 c 0.7407,0.2032 1.5006,0.3106 2.2637,0.3106 1.1969,0 2.3472,-0.1989 3.4004,-0.6368 a 2.0626037,2.0626037 0 0 0 0.01,-0 c 1.0693,-0.4482 2.0177,-1.1618 2.6933,-2.0899 0.7203,-0.9875 1.0703,-2.2158 1.0703,-3.4414 0,-1.1819 -0.35,-2.3832 -1.084,-3.3222 -0.038,-0.049 -0.097,-0.077 -0.1367,-0.125 0.014,-0.02 0.039,-0.027 0.053,-0.047 10e-5,-2e-4 0,2e-4 0,0 0.5957,-0.8882 0.9434,-1.9558 0.9434,-3.0274 0,-1.7706 -0.7741,-3.5435 -2.1778,-4.5957 -1.3232,-0.9996 -2.9934,-1.4355 -4.7695,-1.4355 z"
       transform="matrix(1.6426366,0,0,1.6426366,-9667.1774,-672.96069)" />
    <path
       style="font-style:normal;font-weight:normal;font-size:29.0507164px;line-height:1.25;font-family:sans-serif;letter-spacing:0px;word-spacing:0px;fill:#ffffff;fill-opacity:1;stroke:none;stroke-width:0.80224645"
       d="m 37.798875,1030.6153 c -1.367466,0 -2.629421,0.2462 -3.78417,0.7399 -1.154748,0.4939 -2.082026,1.2048 -2.780954,2.1316 -0.698926,0.927 -1.04852,2.0353 -1.04852,3.3268 h 5.061379 c 0,-0.6609 0.276035,-1.1735 0.830619,-1.5383 0.56218,-0.3723 1.196347,-0.5587 1.902871,-0.5587 0.957226,0 1.668143,0.2548 2.131562,0.7637 0.463418,0.509 0.694699,1.1048 0.694699,1.7885 0,0.8889 -0.254736,1.6382 -0.763737,2.2459 -0.501405,0.6003 -1.263458,0.8998 -2.289056,0.8998 H 35.24661 v 4.3775 h 2.506958 c 1.071182,0 1.906792,0.2045 2.506958,0.6147 0.607762,0.4027 0.910444,1.1849 0.910444,2.3474 0,0.7748 -0.281383,1.424 -0.843563,1.9482 -0.56218,0.5241 -1.344499,0.7874 -2.347307,0.7874 -0.84327,0 -1.563758,-0.2452 -2.163922,-0.7313 -0.592569,-0.4863 -0.888871,-1.0938 -0.888871,-1.823 h -5.06138 c 0,1.1622 0.233439,2.1663 0.696856,3.0095 0.46342,0.8357 1.077322,1.5232 1.844622,2.0626 0.774897,0.5393 1.630774,0.937 2.565209,1.1952 0.942031,0.2583 1.884228,0.3884 2.826261,0.3884 1.595375,0 3.023591,-0.2612 4.284697,-0.7854 1.268704,-0.5318 2.267384,-1.2991 2.996698,-2.302 0.736913,-1.0104 1.104615,-2.2308 1.104615,-3.659 10e-7,-1.3447 -0.352783,-2.4681 -1.059308,-3.3722 -0.706523,-0.9115 -1.698823,-1.5778 -2.975124,-1.9955 1.147151,-0.5394 2.044594,-1.292 2.690341,-2.2567 0.653345,-0.9725 0.979482,-2.001 0.979482,-3.0874 0,-2.1196 -0.740753,-3.7343 -2.222173,-4.8434 -1.473825,-1.1168 -3.406164,-1.6742 -5.799228,-1.6742 z"
       id="text3828"
       inkscape:connector-curvature="0" />
  </g>
</svg>
