<?xml version="1.0" encoding="UTF-8" standalone="no"?>
<!-- Created with Inkscape (http://www.inkscape.org/) -->

<svg
   xmlns:dc="http://purl.org/dc/elements/1.1/"
   xmlns:cc="http://creativecommons.org/ns#"
   xmlns:rdf="http://www.w3.org/1999/02/22-rdf-syntax-ns#"
   xmlns:svg="http://www.w3.org/2000/svg"
   xmlns="http://www.w3.org/2000/svg"
   xmlns:sodipodi="http://sodipodi.sourceforge.net/DTD/sodipodi-0.dtd"
   xmlns:inkscape="http://www.inkscape.org/namespaces/inkscape"
   width="128"
   height="128"
   viewBox="0 0 128 128.00001"
   version="1.1"
   id="svg6294"
   inkscape:version="0.92.3 (2405546, 2018-03-11)"
   sodipodi:docname="mode_easter.svg">
  <defs
     id="defs6288" />
  <sodipodi:namedview
     id="base"
     pagecolor="#ffffff"
     bordercolor="#666666"
     borderopacity="1.0"
     inkscape:pageopacity="0.0"
     inkscape:pageshadow="2"
     inkscape:zoom="2.1832557"
     inkscape:cx="15.209465"
     inkscape:cy="58.590742"
     inkscape:document-units="px"
     inkscape:current-layer="layer1"
     showgrid="false"
     units="px"
     inkscape:window-width="1366"
     inkscape:window-height="713"
     inkscape:window-x="0"
     inkscape:window-y="27"
     inkscape:window-maximized="1" />
  <metadata
     id="metadata6291">
    <rdf:RDF>
      <cc:Work
         rdf:about="">
        <dc:format>image/svg+xml</dc:format>
        <dc:type
           rdf:resource="http://purl.org/dc/dcmitype/StillImage" />
        <dc:title></dc:title>
      </cc:Work>
    </rdf:RDF>
  </metadata>
  <g
     inkscape:label="Layer 1"
     inkscape:groupmode="layer"
     id="layer1"
     transform="translate(0,-994.51965)">
    <path
       transform="matrix(1.6879918,0,0,1.6879918,-9028.6475,-750.71481)"
       sodipodi:type="inkscape:offset"
       inkscape:radius="2.50214"
       inkscape:original="M 5394.5918 1042.3379 L 5387.8516 1042.3555 L 5380.2012 1047.7891 L 5372.8008 1058.0762 L 5367.0273 1070.9297 L 5365.4707 1085.6758 L 5370.1094 1094.5547 L 5377.8066 1100.8125 L 5397.2773 1101.3145 L 5406.5469 1096.918 L 5410.5312 1089.1211 L 5409.7988 1071.0547 L 5404.9648 1057.4473 L 5399.6816 1048.4297 L 5394.5918 1042.3379 z "
       style="fill:#000000;stroke:none;stroke-width:1px;stroke-linecap:butt;stroke-linejoin:miter;stroke-opacity:1"
       id="path6884-2"
       d="m 5394.5859,1039.8359 -6.7402,0.018 a 2.5023903,2.5023903 0 0 0 -1.4434,0.4629 l -7.6503,5.4336 a 2.5023903,2.5023903 0 0 0 -0.5821,0.5781 l -7.4004,10.2871 a 2.5023903,2.5023903 0 0 0 -0.2519,0.4356 l -5.7735,12.8535 a 2.5023903,2.5023903 0 0 0 -0.205,0.7637 l -1.5567,14.7461 a 2.5023903,2.5023903 0 0 0 0.2715,1.4199 l 4.6387,8.8789 a 2.5023903,2.5023903 0 0 0 0.6386,0.7832 l 7.6973,6.2578 a 2.5023903,2.5023903 0 0 0 1.5137,0.5606 l 19.4707,0.5019 a 2.5023903,2.5023903 0 0 0 1.1367,-0.2402 l 9.2695,-4.3965 a 2.5023903,2.5023903 0 0 0 1.1563,-1.1231 l 3.9844,-7.7968 a 2.5023903,2.5023903 0 0 0 0.2714,-1.2403 l -0.7324,-18.0664 a 2.5023903,2.5023903 0 0 0 -0.1426,-0.7363 l -4.8339,-13.6074 a 2.5023903,2.5023903 0 0 0 -0.1993,-0.4278 l -5.2832,-9.0175 a 2.5023903,2.5023903 0 0 0 -0.2382,-0.3379 l -5.0899,-6.0918 a 2.5023903,2.5023903 0 0 0 -1.9258,-0.8985 z" />
    <path
       style="fill:#f2f2f2;stroke:none;stroke-width:1.68799186px;stroke-linecap:butt;stroke-linejoin:miter;stroke-opacity:1"
       d="m 36.051797,1096.8855 -7.830088,-14.9889 2.627697,-24.8916 9.746802,-21.6954 12.491646,-17.3635 12.913475,-9.1735 11.378922,-0.03 8.591708,10.2847 8.91665,15.2191 8.160601,22.9709 1.23561,30.4971 -6.724631,13.1584 -15.646836,7.4233 -32.86672,-0.8488 z"
       id="path6884"
       inkscape:connector-curvature="0"
       sodipodi:nodetypes="ccccccccccccccc" />
    <path
       style="fill:#ffcc00;stroke:none;stroke-width:1.68799186px;stroke-linecap:butt;stroke-linejoin:miter;stroke-opacity:1"
       d="m 103.04921,1057.2169 -6.370651,-7.3114 -7.96851,7.0669 -7.46801,-11.094 -8.053578,10.7385 -9.843355,-10.291 -9.843525,9.1724 -9.172379,-9.1722 -13.479796,10.6789 -2.627697,24.8916 14.765202,-10.9619 9.172379,10.2908 10.961988,-10.7383 9.172379,10.2908 8.277405,-8.2774 8.948547,8.9486 7.15895,-7.1588 7.606261,13.4236 z"
       id="path6911"
       inkscape:connector-curvature="0"
       sodipodi:nodetypes="ccccccccc" />
    <path
       style="fill:#71c837;stroke:none;stroke-width:1.68799186px;stroke-linecap:butt;stroke-linejoin:miter;stroke-opacity:1"
       d="m 44.329202,1046.3261 -13.479796,10.6789 9.746802,-21.6954 5.970259,-3.7487 6.711286,5.1453 8.94872,-6.4876 7.382601,7.1588 9.843356,-7.6063 7.158939,8.5011 8.27724,-4.0262 8.160601,22.9709 -6.370651,-7.3114 -7.96851,7.0669 -7.46801,-11.094 -8.053578,10.7385 -9.843355,-10.291 -9.843525,9.1724 z"
       id="path6913"
       inkscape:connector-curvature="0" />
    <path
       style="fill:#ff6600;stroke:none;stroke-width:1.68799186px;stroke-linecap:butt;stroke-linejoin:miter;stroke-opacity:1"
       d="m 28.221709,1081.8966 14.765202,-10.9619 9.172379,10.2908 10.961988,-10.7383 9.172379,10.2908 8.277405,-8.2774 8.948547,8.9486 7.15895,-7.1588 7.606261,13.4236 -6.724631,13.1584 -5.30012,-6.951 -6.15206,6.5435 -6.096179,-9.5078 -6.264137,8.0538 -9.060465,-10.8503 -10.514501,9.508 -10.961988,-9.3961 -7.158942,8.613 z"
       id="path6915"
       inkscape:connector-curvature="0" />
    <path
       style="opacity:0.5;fill:#f9f9f9;stroke:none;stroke-width:1.68799186px;stroke-linecap:butt;stroke-linejoin:miter;stroke-opacity:1"
       d="m 28.221709,1081.8966 8.277575,-23.9374 10.067183,-20.3582 -5.970259,-2.2914 -9.746802,21.6954 z"
       id="path6886"
       inkscape:connector-curvature="0" />
    <path
       style="fill:#37abc8;stroke:none;stroke-width:1.68799186px;stroke-linecap:butt;stroke-linejoin:miter;stroke-opacity:1"
       d="m 40.596208,1035.3096 5.970259,-3.7487 6.711286,5.1453 8.94872,-6.4876 7.382601,7.1588 9.843356,-7.6063 7.158939,8.5011 8.27724,-4.0262 -8.91665,-15.2191 -5.867289,-3.0717 -6.248439,3.5593 -6.090275,-5.1411 -7.355931,4.192 -1.735255,-2.5877 -5.586916,1.9684 z"
       id="path6919"
       inkscape:connector-curvature="0"
       sodipodi:nodetypes="cccccccccccccccc" />
    <path
       style="fill:#7137c8;stroke:none;stroke-width:1.68799186px;stroke-linecap:butt;stroke-linejoin:miter;stroke-opacity:1"
       d="m 53.087854,1017.9461 5.586916,-1.9684 1.735255,2.5877 7.355931,-4.192 6.090275,5.1411 6.248439,-3.5593 5.867289,3.0717 -8.591708,-10.2846 -11.378922,0.03 z"
       id="path6921"
       inkscape:connector-curvature="0"
       sodipodi:nodetypes="cccccccccc" />
    <path
       style="opacity:0.3;fill:#ffffff;stroke:none;stroke-width:1.68799186px;stroke-linecap:butt;stroke-linejoin:miter;stroke-opacity:1"
       d="m 46.566467,1037.601 9.395869,-15.2125 10.498465,-10.9021 10.91945,-2.7441 -11.378922,0.03 -12.913475,9.1734 -12.491646,17.3635 z"
       id="path6888"
       inkscape:connector-curvature="0" />
    <path
       style="fill:#c83737;stroke:none;stroke-width:1.68799186px;stroke-linecap:butt;stroke-linejoin:miter;stroke-opacity:1"
       d="m 36.051797,1096.8855 7.158942,-8.613 10.961988,9.3961 10.514501,-9.508 9.060465,10.8503 6.264137,-8.0538 6.096179,9.5078 6.15206,-6.5435 5.30012,6.951 -15.646836,7.4233 -32.86672,-0.8488 z"
       id="path6917"
       inkscape:connector-curvature="0" />
    <path
       style="opacity:0.5;fill:#000000;stroke:none;stroke-width:1.68799186px;stroke-linecap:butt;stroke-linejoin:miter;stroke-opacity:1"
       d="m 49.046633,1107.4469 30.182138,-5.1922 12.527938,-6.264 5.80348,4.8817 -15.646836,7.4233 z"
       id="path6890"
       inkscape:connector-curvature="0"
       sodipodi:nodetypes="cccccc" />
    <path
       style="opacity:0.3;fill:#000000;stroke:none;stroke-width:1.68799186px;stroke-linecap:butt;stroke-linejoin:miter;stroke-opacity:1"
       d="m 97.125869,1085.0287 5.923341,-27.8118 1.23561,30.4971 -6.724631,13.1584 -5.80348,-4.8817 z"
       id="path6892"
       inkscape:connector-curvature="0"
       sodipodi:nodetypes="cccccc" />
  </g>
</svg>
