<?xml version="1.0" encoding="UTF-8" standalone="no"?>
<!-- Created with Inkscape (http://www.inkscape.org/) -->

<svg
   xmlns:dc="http://purl.org/dc/elements/1.1/"
   xmlns:cc="http://creativecommons.org/ns#"
   xmlns:rdf="http://www.w3.org/1999/02/22-rdf-syntax-ns#"
   xmlns:svg="http://www.w3.org/2000/svg"
   xmlns="http://www.w3.org/2000/svg"
   xmlns:sodipodi="http://sodipodi.sourceforge.net/DTD/sodipodi-0.dtd"
   xmlns:inkscape="http://www.inkscape.org/namespaces/inkscape"
   width="128"
   height="128"
   viewBox="0 0 128 128.00001"
   version="1.1"
   id="svg6294"
   inkscape:version="0.92.3 (2405546, 2018-03-11)"
   sodipodi:docname="addons.svg">
  <defs
     id="defs6288" />
  <sodipodi:namedview
     id="base"
     pagecolor="#ffffff"
     bordercolor="#666666"
     borderopacity="1.0"
     inkscape:pageopacity="0.0"
     inkscape:pageshadow="2"
     inkscape:zoom="2.9006348"
     inkscape:cx="23.947084"
     inkscape:cy="67.694928"
     inkscape:document-units="px"
     inkscape:current-layer="layer1"
     showgrid="false"
     units="px"
     inkscape:window-width="1366"
     inkscape:window-height="713"
     inkscape:window-x="0"
     inkscape:window-y="27"
     inkscape:window-maximized="1" />
  <metadata
     id="metadata6291">
    <rdf:RDF>
      <cc:Work
         rdf:about="">
        <dc:format>image/svg+xml</dc:format>
        <dc:type
           rdf:resource="http://purl.org/dc/dcmitype/StillImage" />
        <dc:title></dc:title>
      </cc:Work>
    </rdf:RDF>
  </metadata>
  <g
     inkscape:label="Layer 1"
     inkscape:groupmode="layer"
     id="layer1"
     transform="translate(0,-994.51965)">
    <path
       sodipodi:type="inkscape:offset"
       inkscape:radius="2.9401672"
       inkscape:original="M 1145.3477 1054.0645 L 1141.5684 1055.3555 L 1139.8184 1061.4375 L 1141.0156 1066.1367 L 1146.9141 1070.7441 L 1150.2188 1071.6094 L 1139.2402 1071.541 L 1139.3848 1078.5293 L 1142.6641 1078.8145 L 1142.3633 1108.7871 L 1158.6133 1109.7422 L 1158.6133 1110.9453 L 1167.4863 1111.6348 L 1167.4863 1111.6191 L 1167.4766 1110.2656 L 1184.9766 1111.293 L 1183.1328 1079.8984 L 1185.3066 1079.957 L 1185.0215 1071.8281 L 1168.7012 1071.7266 L 1168.6875 1071.4219 L 1179.1895 1070.8828 L 1184.0742 1067.1055 L 1186.1016 1060.2852 L 1182.3223 1055.5859 L 1176.6094 1055.7695 L 1169.6992 1057.9824 L 1166.1035 1065.9766 L 1161.8828 1064.8496 L 1159.5723 1065.5098 L 1157.8809 1060.1484 L 1154.1035 1055.7266 L 1145.3477 1054.0645 z M 1145.1602 1057.5762 L 1149.2305 1057.9609 L 1153.1816 1060.1465 L 1156.6816 1064.3867 L 1157.7637 1068.4531 L 1157.752 1070.2949 L 1150.7832 1070.4688 L 1147.084 1067.4355 L 1144.3613 1064.3359 L 1143.5664 1060.6562 L 1145.1602 1057.5762 z M 1177.1191 1058.5059 L 1179.1895 1060.0996 L 1179.373 1063.6016 L 1176.4238 1068.5781 L 1171.9102 1069.8848 L 1168.6387 1070.3633 L 1168.4648 1066.6172 L 1168.4648 1066.6074 L 1170.0645 1063.0488 L 1175.5234 1059.002 L 1177.1191 1058.5059 z M 1157.748 1071.4746 L 1157.748 1071.6562 L 1153.873 1071.6328 L 1157.748 1071.4746 z "
       style="fill:#000000;stroke:none;stroke-width:0.90492755px;stroke-linecap:butt;stroke-linejoin:miter;stroke-opacity:1"
       id="path1137-7"
       d="m 1145.3105,1051.125 a 2.9404612,2.9404612 0 0 0 -0.914,0.1562 l -3.7793,1.2911 a 2.9404612,2.9404612 0 0 0 -1.875,1.9707 l -1.75,6.082 a 2.9404612,2.9404612 0 0 0 -0.023,1.5391 l 1.1972,4.6992 a 2.9404612,2.9404612 0 0 0 1.0391,1.5898 l 0.1914,0.1485 h -0.1387 a 2.9404612,2.9404612 0 0 0 -2.957,3 l 0.1445,6.9882 a 2.9404612,2.9404612 0 0 0 2.6856,2.8692 l 0.5664,0.049 -0.2735,27.25 a 2.9404612,2.9404612 0 0 0 2.7676,2.9649 l 13.4824,0.791 v -1.5684 a 2.9404612,2.9404612 0 0 0 2.711,2.9317 l 8.873,0.6894 a 2.9404612,2.9404612 0 0 0 2.6113,-1.2148 l 14.9356,0.8769 a 2.9404612,2.9404612 0 0 0 3.1074,-3.1074 l -1.666,-28.3809 a 2.9404612,2.9404612 0 0 0 1.998,-2.8867 l -0.2851,-8.1289 a 2.9404612,2.9404612 0 0 0 -1.7637,-2.5898 2.9404612,2.9404612 0 0 0 0.6973,-1.1914 l 2.0273,-6.8204 a 2.9404612,2.9404612 0 0 0 -0.5273,-2.6796 l -3.7793,-4.6993 a 2.9404612,2.9404612 0 0 0 -2.3848,-1.0976 l -5.7129,0.1836 a 2.9404612,2.9404612 0 0 0 -0.8027,0.1387 l -6.9102,2.2128 a 2.9404612,2.9404612 0 0 0 -1.7851,1.5938 l -2.5703,5.7148 -1.8067,-0.4804 a 2.9404612,2.9404612 0 0 0 -1.4551,-0.018 l 0.3301,-0.096 -0.8301,-2.6328 a 2.9404612,2.9404612 0 0 0 -0.5683,-1.0254 l -3.7774,-4.4219 a 2.9404612,2.9404612 0 0 0 -1.6875,-0.9785 l -8.7558,-1.6621 a 2.9404612,2.9404612 0 0 0 -0.586,-0.051 z m 1.5489,9.5645 1.4844,0.1406 2.9257,1.6191 2.7364,3.3145 0.4433,1.6718 -2.6465,0.066 -2.6679,-2.1875 -2.0606,-2.3457 -0.4101,-1.9004 z m 29.4883,1.3613 0.043,0.8164 -1.9023,3.2109 -2.9453,0.8516 0.8886,-1.9766 z"
       transform="matrix(1.7021212,0,0,1.7021212,-1914.1207,-784.62203)" />
    <path
       style="fill:#00ccff;stroke:none;stroke-width:1.54029632px;stroke-linecap:butt;stroke-linejoin:miter;stroke-opacity:1"
       d="m 30.832291,1051.6715 -0.509956,51.0167 72.531105,4.2619 -3.140406,-53.4578 3.702106,0.1225 -0.48544,-13.8369 -77.9236,-0.4854 0.242723,11.8947 z"
       id="path1137"
       inkscape:connector-curvature="0"
       sodipodi:nodetypes="ccccccccc" />
    <path
       style="fill:#00aad4;stroke:none;stroke-width:1.54029632px;stroke-linecap:butt;stroke-linejoin:miter;stroke-opacity:1"
       d="m 30.832291,1051.6715 72.582849,1.9425 -4.101766,-2.8584 z"
       id="path1147"
       inkscape:connector-curvature="0"
       sodipodi:nodetypes="cccc" />
    <path
       style="fill:#80e5ff;stroke:none;stroke-width:1.54029632px;stroke-linecap:butt;stroke-linejoin:miter;stroke-opacity:1"
       d="m 28.107025,1042.7369 74.822675,-2.9598 -77.9236,-0.4856 z"
       id="path1151"
       inkscape:connector-curvature="0" />
    <path
       style="fill:#00aad4;fill-opacity:1;stroke:none;stroke-width:1.54029632px;stroke-linecap:butt;stroke-linejoin:miter;stroke-opacity:1"
       d="m 30.322335,1102.6882 68.676659,0.2125 3.854446,4.0494 z"
       id="path1153"
       inkscape:connector-curvature="0" />
    <path
       style="fill:#e6e6e6;stroke:none;stroke-width:1.52066028px;stroke-linecap:butt;stroke-linejoin:miter;stroke-opacity:1"
       d="m 57.974315,1106.3642 0.171744,-66.9214 14.590395,0.1668 0.343318,67.925 z"
       id="path1139"
       inkscape:connector-curvature="0" />
    <path
       style="fill:#80e5ff;stroke:none;stroke-width:1.54029632px;stroke-linecap:butt;stroke-linejoin:miter;stroke-opacity:1"
       d="m 25.248823,1051.1862 2.858202,-8.4493 -3.100925,-3.4454 z"
       id="path1149"
       inkscape:connector-curvature="0" />
    <path
       style="fill:#00aad4;fill-opacity:1;stroke:none;stroke-width:1.54029632px;stroke-linecap:butt;stroke-linejoin:miter;stroke-opacity:1"
       d="m 98.998994,1102.9007 0.86042,-46.3799 2.994026,50.4293 z"
       id="path1155"
       inkscape:connector-curvature="0" />
    <path
       style="fill:#00aad4;fill-opacity:1;stroke:none;stroke-width:1.54029632px;stroke-linecap:butt;stroke-linejoin:miter;stroke-opacity:1"
       d="m 99.313374,1050.7556 3.616326,-10.9785 0.48544,13.8369 z"
       id="path1157"
       inkscape:connector-curvature="0" />
    <path
       style="fill:#80e5ff;fill-opacity:1;stroke:none;stroke-width:1.54029632px;stroke-linecap:butt;stroke-linejoin:miter;stroke-opacity:1"
       d="m 30.322335,1102.6882 4.151304,-50.9105 -3.641348,-0.1072 z"
       id="path1159"
       inkscape:connector-curvature="0" />
    <path
       style="fill:#d0d0d0;fill-opacity:1;stroke:none;stroke-width:1.52066028px;stroke-linecap:butt;stroke-linejoin:miter;stroke-opacity:1"
       d="m 57.974315,1106.3642 12.187341,-1.255 2.918116,2.4259 z"
       id="path1161"
       inkscape:connector-curvature="0" />
    <path
       style="fill:#d0d0d0;fill-opacity:1;stroke:none;stroke-width:1.52066028px;stroke-linecap:butt;stroke-linejoin:miter;stroke-opacity:1"
       d="m 70.161656,1105.1092 2.574798,-65.4991 0.343659,67.925 z"
       id="path1163"
       inkscape:connector-curvature="0"
       sodipodi:nodetypes="cccc" />
    <path
       style="fill:#f5f5f5;fill-opacity:1;stroke:none;stroke-width:1.52066028px;stroke-linecap:butt;stroke-linejoin:miter;stroke-opacity:1"
       d="m 57.974315,1106.3642 4.168665,-63.9206 -3.996921,-3.0008 z"
       id="path1175"
       inkscape:connector-curvature="0" />
    <path
       style="fill:#f5f5f5;fill-opacity:1;stroke:none;stroke-width:1.52066028px;stroke-linecap:butt;stroke-linejoin:miter;stroke-opacity:1"
       d="m 62.14298,1042.4436 10.593474,-2.8335 -14.590395,-0.1668 z"
       id="path1177"
       inkscape:connector-curvature="0" />
    <path
       style="fill:#e6e6e6;stroke:none;stroke-width:1.99048221px;stroke-linecap:butt;stroke-linejoin:miter;stroke-opacity:1"
       d="m 59.813116,1029.6624 -3.080669,-9.7639 -6.430954,-7.5292 -9.254092,-1.5685 -5.646617,-1.2546 -6.430614,2.1959 -2.980414,10.3523 2.039141,7.9993 10.03843,7.8425 6.58772,1.7255 16.710915,-0.6828 -4.006113,-1.827 -12.704462,0.3139 -6.295806,-5.1624 -4.635046,-5.2762 -1.353697,-6.2621 2.710288,-5.2416 6.930697,0.6521 6.721336,3.7229 5.960317,7.215 1.568505,4.8624 1.097868,5.176 4.006113,1.827 z"
       id="path1145"
       inkscape:connector-curvature="0"
       sodipodi:nodetypes="cccccccccccccccccccccccc" />
    <path
       style="fill:#f5f5f5;fill-opacity:1;stroke:none;stroke-width:1.99048221px;stroke-linecap:butt;stroke-linejoin:miter;stroke-opacity:1"
       d="m 57.359849,1037.1519 -12.881312,1.4218 0.17685,-1.1079 z"
       id="path1203"
       inkscape:connector-curvature="0"
       sodipodi:nodetypes="cccc" />
    <path
       style="fill:#f5f5f5;fill-opacity:1;stroke:none;stroke-width:1.99048221px;stroke-linecap:butt;stroke-linejoin:miter;stroke-opacity:1"
       d="m 25.989756,1022.0944 4.306707,-9.0548 -1.326293,-1.2975 z"
       id="path1189"
       inkscape:connector-curvature="0" />
    <path
       style="fill:#f5f5f5;fill-opacity:1;stroke:none;stroke-width:1.99048221px;stroke-linecap:butt;stroke-linejoin:miter;stroke-opacity:1"
       d="m 30.296463,1013.0396 5.104321,-3.4934 -6.430614,2.1959 z"
       id="path1191"
       inkscape:connector-curvature="0" />
    <path
       style="fill:#f5f5f5;fill-opacity:1;stroke:none;stroke-width:1.99048221px;stroke-linecap:butt;stroke-linejoin:miter;stroke-opacity:1"
       d="m 50.301493,1012.3693 -9.24439,-0.387 -5.656319,-2.4361 z"
       id="path1193"
       inkscape:connector-curvature="0" />
    <path
       style="fill:#d0d0d0;fill-opacity:1;stroke:none;stroke-width:1.99048221px;stroke-linecap:butt;stroke-linejoin:miter;stroke-opacity:1"
       d="m 57.359849,1037.1519 -0.550636,-10.0846 -2.115737,0.048 z"
       id="path1195"
       inkscape:connector-curvature="0" />
    <path
       style="fill:#d0d0d0;fill-opacity:1;stroke:none;stroke-width:1.99048221px;stroke-linecap:butt;stroke-linejoin:miter;stroke-opacity:1"
       d="m 56.809213,1027.0673 -8.076054,-7.1688 5.960317,7.2146 z"
       id="path1197"
       inkscape:connector-curvature="0" />
    <path
       style="fill:#d0d0d0;fill-opacity:1;stroke:none;stroke-width:1.99048221px;stroke-linecap:butt;stroke-linejoin:miter;stroke-opacity:1"
       d="m 32.370838,1020.7651 0.988932,-7.28 1.721356,2.0384 z"
       id="path1199"
       inkscape:connector-curvature="0"
       sodipodi:nodetypes="cccc" />
    <path
       style="fill:#d0d0d0;fill-opacity:1;stroke:none;stroke-width:1.99048221px;stroke-linecap:butt;stroke-linejoin:miter;stroke-opacity:1"
       d="m 33.35977,1013.4851 8.652053,2.6905 -6.930697,-0.6521 z"
       id="path1201"
       inkscape:connector-curvature="0"
       sodipodi:nodetypes="cccc" />
    <path
       style="fill:#f5f5f5;fill-opacity:1;stroke:none;stroke-width:1.99048221px;stroke-linecap:butt;stroke-linejoin:miter;stroke-opacity:1"
       d="m 38.359581,1032.3034 6.118956,6.2703 0.17685,-1.1079 z"
       id="path1205"
       inkscape:connector-curvature="0"
       sodipodi:nodetypes="cccc" />
    <path
       style="fill:#e6e6e6;stroke:none;stroke-width:1.99048221px;stroke-linecap:butt;stroke-linejoin:miter;stroke-opacity:1"
       d="m 74.857297,1039.1001 18.145467,-0.9312 8.313156,-6.4308 3.45071,-11.6071 -6.430786,-7.9996 -9.72456,0.3139 -11.764037,3.7642 -6.274018,13.9601 4.17258,0.7238 2.72867,-6.0569 9.289495,-6.8879 2.71778,-0.8424 3.52101,2.7113 0.3137,5.9601 -5.01888,8.47 -7.6832,2.2238 -7.040656,1.0281 z"
       id="path1143"
       inkscape:connector-curvature="0"
       sodipodi:nodetypes="cccccccccccccccccc" />
    <path
       style="fill:#e6e6e6;stroke:none;stroke-width:1.99048221px;stroke-linecap:butt;stroke-linejoin:miter;stroke-opacity:1"
       d="m 56.557299,1029.8951 -0.05617,10.3698 18.688423,0.1651 -0.444424,-9.5377 -11.201302,-2.9945 z"
       id="path1141"
       inkscape:connector-curvature="0"
       sodipodi:nodetypes="cccccc" />
    <path
       style="fill:#d0d0d0;fill-opacity:1;stroke:none;stroke-width:1.99048221px;stroke-linecap:butt;stroke-linejoin:miter;stroke-opacity:1"
       d="m 72.466498,1037.6753 2.279311,-6.7819 0.444083,9.5368 z"
       id="path1167"
       inkscape:connector-curvature="0"
       sodipodi:nodetypes="cccc" />
    <path
       style="fill:#d0d0d0;fill-opacity:1;stroke:none;stroke-width:1.99048221px;stroke-linecap:butt;stroke-linejoin:miter;stroke-opacity:1"
       d="m 56.50147,1040.2649 15.965028,-2.5896 2.723394,2.7549 z"
       id="path1165"
       inkscape:connector-curvature="0"
       sodipodi:nodetypes="cccc" />
    <path
       style="fill:#f5f5f5;fill-opacity:1;stroke:none;stroke-width:1.99048221px;stroke-linecap:butt;stroke-linejoin:miter;stroke-opacity:1"
       d="m 56.50147,1040.2649 2.06229,-9.3007 -2.006461,-1.0691 z"
       id="path1169"
       inkscape:connector-curvature="0" />
    <path
       style="fill:#f5f5f5;fill-opacity:1;stroke:none;stroke-width:1.99048221px;stroke-linecap:butt;stroke-linejoin:miter;stroke-opacity:1"
       d="m 58.56376,1030.9642 4.980406,-3.0662 -6.986867,1.9971 z"
       id="path1171"
       inkscape:connector-curvature="0" />
    <path
       style="fill:#f5f5f5;fill-opacity:1;stroke:none;stroke-width:1.99048221px;stroke-linecap:butt;stroke-linejoin:miter;stroke-opacity:1"
       d="m 74.745809,1030.8934 -6.725405,-0.5449 -4.476238,-2.4505 z"
       id="path1173"
       inkscape:connector-curvature="0"
       sodipodi:nodetypes="cccc" />
    <path
       style="fill:#f5f5f5;fill-opacity:1;stroke:none;stroke-width:1.99048221px;stroke-linecap:butt;stroke-linejoin:miter;stroke-opacity:1"
       d="m 70.573229,1030.1696 6.274018,-13.9601 1.8211,1.7479 z"
       id="path1207"
       inkscape:connector-curvature="0" />
    <path
       style="fill:#f5f5f5;fill-opacity:1;stroke:none;stroke-width:1.99048221px;stroke-linecap:butt;stroke-linejoin:miter;stroke-opacity:1"
       d="m 78.668347,1017.9574 9.942937,-5.5121 -11.764037,3.7642 z"
       id="path1209"
       inkscape:connector-curvature="0" />
    <path
       style="fill:#f5f5f5;fill-opacity:1;stroke:none;stroke-width:1.99048221px;stroke-linecap:butt;stroke-linejoin:miter;stroke-opacity:1"
       d="m 80.614384,1036.4714 10.99179,-1.9682 -3.30859,-0.2556 z"
       id="path1211"
       inkscape:connector-curvature="0"
       sodipodi:nodetypes="cccc" />
    <path
       style="fill:#f5f5f5;fill-opacity:1;stroke:none;stroke-width:1.99048221px;stroke-linecap:butt;stroke-linejoin:miter;stroke-opacity:1"
       d="m 91.606174,1034.5032 1.71029,-8.7256 -5.01888,8.47 z"
       id="path1213"
       inkscape:connector-curvature="0"
       sodipodi:nodetypes="cccc" />
    <path
       style="fill:#d0d0d0;fill-opacity:1;stroke:none;stroke-width:1.99048221px;stroke-linecap:butt;stroke-linejoin:miter;stroke-opacity:1"
       d="m 77.474479,1024.8365 7.888315,-8.2968 1.40118,1.4089 z"
       id="path1215"
       inkscape:connector-curvature="0"
       sodipodi:nodetypes="cccc" />
    <path
       style="fill:#d0d0d0;fill-opacity:1;stroke:none;stroke-width:1.99048221px;stroke-linecap:butt;stroke-linejoin:miter;stroke-opacity:1"
       d="m 85.362794,1016.5397 4.11896,0.5665 -2.71778,0.8424 z"
       id="path1217"
       inkscape:connector-curvature="0"
       sodipodi:nodetypes="cccc" />
    <path
       style="fill:#d5d5d5;fill-opacity:1;stroke:none;stroke-width:1.99048221px;stroke-linecap:butt;stroke-linejoin:miter;stroke-opacity:1"
       d="m 93.002764,1038.1689 5.3821,-7.8452 2.931056,1.4144 z"
       id="path1219"
       inkscape:connector-curvature="0"
       sodipodi:nodetypes="cccc" />
    <path
       style="fill:#d5d5d5;fill-opacity:1;stroke:none;stroke-width:1.99048221px;stroke-linecap:butt;stroke-linejoin:miter;stroke-opacity:1"
       d="m 98.384864,1030.3237 6.381766,-10.1927 -3.45071,11.6071 z"
       id="path1221"
       inkscape:connector-curvature="0"
       sodipodi:nodetypes="cccc" />
  </g>
</svg>
