<?xml version="1.0" encoding="UTF-8" standalone="no"?>
<!-- Created with Inkscape (http://www.inkscape.org/) -->

<svg
   xmlns:dc="http://purl.org/dc/elements/1.1/"
   xmlns:cc="http://creativecommons.org/ns#"
   xmlns:rdf="http://www.w3.org/1999/02/22-rdf-syntax-ns#"
   xmlns:svg="http://www.w3.org/2000/svg"
   xmlns="http://www.w3.org/2000/svg"
   xmlns:sodipodi="http://sodipodi.sourceforge.net/DTD/sodipodi-0.dtd"
   xmlns:inkscape="http://www.inkscape.org/namespaces/inkscape"
   width="128"
   height="128"
   viewBox="0 0 128 128.00001"
   version="1.1"
   id="svg6294"
   inkscape:version="0.92.3 (2405546, 2018-03-11)"
   sodipodi:docname="mode_ghost.svg">
  <defs
     id="defs6288" />
  <sodipodi:namedview
     id="base"
     pagecolor="#ffffff"
     bordercolor="#666666"
     borderopacity="1.0"
     inkscape:pageopacity="0.0"
     inkscape:pageshadow="2"
     inkscape:zoom="2.1832557"
     inkscape:cx="15.209465"
     inkscape:cy="58.590742"
     inkscape:document-units="px"
     inkscape:current-layer="layer1"
     showgrid="false"
     units="px"
     inkscape:window-width="1366"
     inkscape:window-height="713"
     inkscape:window-x="0"
     inkscape:window-y="27"
     inkscape:window-maximized="1" />
  <metadata
     id="metadata6291">
    <rdf:RDF>
      <cc:Work
         rdf:about="">
        <dc:format>image/svg+xml</dc:format>
        <dc:type
           rdf:resource="http://purl.org/dc/dcmitype/StillImage" />
        <dc:title></dc:title>
      </cc:Work>
    </rdf:RDF>
  </metadata>
  <g
     inkscape:label="Layer 1"
     inkscape:groupmode="layer"
     id="layer1"
     transform="translate(0,-994.51965)">
    <path
       sodipodi:type="inkscape:offset"
       inkscape:radius="2.9237554"
       inkscape:original="M 5012.4434 1040.0508 L 5001.1973 1048.8594 L 4995.0117 1062.7305 L 4994.8242 1079.5977 L 4988.8262 1099.4648 L 5003.6348 1097.7793 L 5010.7559 1104.7129 L 5022.9395 1100.4023 L 5034.748 1105.4629 L 5042.2441 1097.5918 L 5053.3027 1097.0293 L 5047.1172 1075.8496 L 5046.7422 1061.793 L 5038.4961 1048.2969 L 5026.5 1040.4258 L 5012.4434 1040.0508 z "
       style="fill:#000000;stroke:none;stroke-width:1px;stroke-linecap:butt;stroke-linejoin:miter;stroke-opacity:1"
       id="path5398-0-4"
       d="m 5012.5215,1037.1289 a 2.9240478,2.9240478 0 0 0 -1.8809,0.6211 l -11.2461,8.8086 a 2.9240478,2.9240478 0 0 0 -0.8672,1.1094 l -6.1855,13.8711 a 2.9240478,2.9240478 0 0 0 -0.2539,1.1582 l -0.1836,16.4531 -5.877,19.4687 a 2.9240478,2.9240478 0 0 0 3.1289,3.75 l 13.4317,-1.5273 6.1289,5.9668 a 2.9240478,2.9240478 0 0 0 3.0137,0.6602 l 11.1074,-3.9297 10.7578,4.6113 a 2.9240478,2.9240478 0 0 0 3.2695,-0.6719 l 6.6914,-7.0254 9.8946,-0.5039 a 2.9240478,2.9240478 0 0 0 2.6582,-3.7402 l -6.0801,-20.8164 -0.3652,-13.6778 a 2.9240478,2.9240478 0 0 0 -0.4278,-1.4453 l -8.2461,-13.4961 a 2.9240478,2.9240478 0 0 0 -0.8906,-0.9218 l -11.9961,-7.8711 a 2.9240478,2.9240478 0 0 0 -1.5254,-0.4766 z"
       transform="matrix(1.5156026,0,0,1.5156026,-7546.6471,-567.35404)" />
    <path
       style="fill:#cccccc;stroke:none;stroke-width:1.51560271px;stroke-linecap:butt;stroke-linejoin:miter;stroke-opacity:1"
       d="m 14.432001,1098.999 9.090332,-30.1112 0.284078,-25.5663 9.374091,-21.0212 17.044191,-13.3511 21.305364,0.5681 18.1805,11.9308 12.498953,20.453 0.56831,21.3053 9.3741,32.0997 -16.759963,0.8522 -11.3628,11.931 -17.896423,-7.67 -18.464421,6.5337 -10.794799,-10.5106 z"
       id="path5398-1"
       inkscape:connector-curvature="0" />
    <path
       style="fill:#f2f2f2;stroke:none;stroke-width:1.51560271px;stroke-linecap:butt;stroke-linejoin:miter;stroke-opacity:1"
       d="m 58.497861,1038.0253 6.026006,-6.5281 6.22697,0.3013 5.52383,5.3227 0.70299,7.5327 -5.42342,8.336 -6.628754,10e-5 -6.124168,-6.4936 z"
       id="path5400-7"
       inkscape:connector-curvature="0"
       sodipodi:nodetypes="ccccccccc" />
    <path
       style="fill:#1a1a1a;stroke:none;stroke-width:1.51560271px;stroke-linecap:butt;stroke-linejoin:miter;stroke-opacity:1"
       d="m 61.37435,1042.3981 0.142519,3.0538 1.562108,1.9176 3.763952,0.1425 2.059488,-1.8468 -0.35518,-3.4091 -1.704308,-2.2014 -3.266896,0.072 z"
       id="path5402-5"
       inkscape:connector-curvature="0" />
    <path
       style="fill:#f2f2f2;stroke:none;stroke-width:1.51560271px;stroke-linecap:butt;stroke-linejoin:miter;stroke-opacity:1"
       d="m 59.104769,1038.0253 -6.026006,-6.5281 -6.226814,0.3013 -5.523985,5.3227 -0.702989,7.5327 5.423421,8.336 6.628591,10e-5 6.124328,-6.4936 z"
       id="path5400-4-7"
       inkscape:connector-curvature="0"
       sodipodi:nodetypes="ccccccccc" />
    <path
       style="fill:#1a1a1a;stroke:none;stroke-width:1.51560271px;stroke-linecap:butt;stroke-linejoin:miter;stroke-opacity:1"
       d="m 56.22812,1042.3981 -0.142519,3.0538 -1.561788,1.9176 -3.764112,0.1425 -2.059324,-1.8468 0.355017,-3.4091 1.704307,-2.2014 3.266736,0.072 z"
       id="path5402-8-1"
       inkscape:connector-curvature="0" />
    <path
       style="fill:#e6e6e6;stroke:none;stroke-width:1.51560271px;stroke-linecap:butt;stroke-linejoin:miter;stroke-opacity:1"
       d="m 59.104769,1038.0253 -1.912641,7.7837 -5.071767,5.7749 -6.071965,1.406 6.628591,10e-5 6.124328,-6.4936 z"
       id="path5424-6"
       inkscape:connector-curvature="0" />
    <path
       style="fill:#f9f9f9;stroke:none;stroke-width:1.51560271px;stroke-linecap:butt;stroke-linejoin:miter;stroke-opacity:1"
       d="m 58.801315,1046.4964 1.654986,-7.6675 4.268374,-5.3731 6.026162,-1.6573 -6.22697,-0.3013 -6.026006,6.5281 z"
       id="path5422-9"
       inkscape:connector-curvature="0"
       sodipodi:nodetypes="ccccccc" />
    <path
       style="fill:#f9f9f9;stroke:none;stroke-width:1.51560271px;stroke-linecap:butt;stroke-linejoin:miter;stroke-opacity:1"
       d="m 40.624975,1044.6539 2.301287,-6.234 4.694651,-4.805 5.45785,-2.1177 -6.226814,0.3013 -5.523985,5.3227 z"
       id="path5422-0-8"
       inkscape:connector-curvature="0"
       sodipodi:nodetypes="ccccccc" />
    <path
       style="fill:#e6e6e6;stroke:none;stroke-width:1.51560271px;stroke-linecap:butt;stroke-linejoin:miter;stroke-opacity:1"
       d="m 76.274667,1037.1212 -0.9062,6.8453 -4.37102,7.6172 -6.071964,1.4063 6.628754,-10e-5 5.42342,-8.336 z"
       id="path5424-4-1"
       inkscape:connector-curvature="0"
       sodipodi:nodetypes="ccccccc" />
    <path
       style="fill:#999999;stroke:none;stroke-width:1.51560271px;stroke-linecap:butt;stroke-linejoin:miter;stroke-opacity:1"
       d="m 14.432001,1098.999 14.438011,-5.6347 8.003502,3.0781 z"
       id="path5456-3"
       inkscape:connector-curvature="0" />
    <path
       style="fill:#999999;stroke:none;stroke-width:1.51560271px;stroke-linecap:butt;stroke-linejoin:miter;stroke-opacity:1"
       d="m 47.668313,1106.953 8.92123,-6.9601 9.543191,0.4264 z"
       id="path5458-3"
       inkscape:connector-curvature="0" />
    <path
       style="fill:#999999;stroke:none;stroke-width:1.51560271px;stroke-linecap:butt;stroke-linejoin:miter;stroke-opacity:1"
       d="m 84.029157,1108.0893 10.32369,-16.9345 1.03911,5.0035 z"
       id="path5462-3"
       inkscape:connector-curvature="0" />
    <path
       style="fill:#b3b3b3;stroke:none;stroke-width:1.51560271px;stroke-linecap:butt;stroke-linejoin:miter;stroke-opacity:1"
       d="m 94.352847,1091.1548 17.799073,4.1513 -16.759963,0.8522 z"
       id="path5464-7"
       inkscape:connector-curvature="0" />
    <path
       style="fill:#ececec;stroke:none;stroke-width:1.51560271px;stroke-linecap:butt;stroke-linejoin:miter;stroke-opacity:1"
       d="m 14.432001,1098.999 17.560306,-31.7602 -2.22058,-23.6334 -5.965316,-0.2839 -0.284078,25.5663 z"
       id="path5466-9"
       inkscape:connector-curvature="0"
       sodipodi:nodetypes="cccccc" />
    <path
       style="fill:#e6e6e6;stroke:none;stroke-width:1.51560271px;stroke-linecap:butt;stroke-linejoin:miter;stroke-opacity:1"
       d="m 29.771727,1043.6054 7.385865,-17.7543 13.067101,-16.9019 -17.044191,13.3511 -9.374091,21.0212 z"
       id="path5468-8"
       inkscape:connector-curvature="0"
       sodipodi:nodetypes="ccc" />
    <path
       style="fill:#b3b3b3;stroke:none;stroke-width:1.2937566px;stroke-linecap:butt;stroke-linejoin:miter;stroke-opacity:1"
       d="m 102.20951,1041.9011 -4.664393,21.0373 5.232703,0.268 z"
       id="path5541-9"
       inkscape:connector-curvature="0"
       sodipodi:nodetypes="cccc" />
  </g>
</svg>
