<?xml version="1.0" encoding="UTF-8" standalone="no"?>
<!-- Created with Inkscape (http://www.inkscape.org/) -->

<svg
   xmlns:dc="http://purl.org/dc/elements/1.1/"
   xmlns:cc="http://creativecommons.org/ns#"
   xmlns:rdf="http://www.w3.org/1999/02/22-rdf-syntax-ns#"
   xmlns:svg="http://www.w3.org/2000/svg"
   xmlns="http://www.w3.org/2000/svg"
   xmlns:sodipodi="http://sodipodi.sourceforge.net/DTD/sodipodi-0.dtd"
   xmlns:inkscape="http://www.inkscape.org/namespaces/inkscape"
   width="128"
   height="128"
   viewBox="0 0 128 128.00001"
   version="1.1"
   id="svg6294"
   inkscape:version="0.92.3 (2405546, 2018-03-11)"
   sodipodi:docname="mode_ftl.svg">
  <defs
     id="defs6288" />
  <sodipodi:namedview
     id="base"
     pagecolor="#ffffff"
     bordercolor="#666666"
     borderopacity="1.0"
     inkscape:pageopacity="0.0"
     inkscape:pageshadow="2"
     inkscape:zoom="2.1832557"
     inkscape:cx="15.209465"
     inkscape:cy="58.590742"
     inkscape:document-units="px"
     inkscape:current-layer="layer1"
     showgrid="false"
     units="px"
     inkscape:window-width="1366"
     inkscape:window-height="713"
     inkscape:window-x="0"
     inkscape:window-y="27"
     inkscape:window-maximized="1" />
  <metadata
     id="metadata6291">
    <rdf:RDF>
      <cc:Work
         rdf:about="">
        <dc:format>image/svg+xml</dc:format>
        <dc:type
           rdf:resource="http://purl.org/dc/dcmitype/StillImage" />
        <dc:title></dc:title>
      </cc:Work>
    </rdf:RDF>
  </metadata>
  <g
     inkscape:label="Layer 1"
     inkscape:groupmode="layer"
     id="layer1"
     transform="translate(0,-994.51965)">
    <path
       sodipodi:type="inkscape:offset"
       inkscape:radius="10.101538"
       inkscape:original="M 6279.4316 1028.2578 L 6267.4355 1044.3574 L 6265.8574 1065.8223 L 6261.4375 1088.5508 L 6255.2383 1090.3223 L 6173.2949 1090.3223 L 6151.8301 1120.625 L 6195.9746 1120.5234 L 6203.125 1146.1816 L 6195.0898 1156.4492 L 6196.125 1166.8008 L 6147.3223 1168.502 L 6148.2148 1256.002 L 6204.9102 1255.5566 L 6204.5098 1242.2852 L 6381.8027 1241.1172 L 6381.9141 1252.0547 L 6438.6113 1251.6094 L 6435.9199 1162.6406 L 6387.0898 1164.3438 L 6388.1797 1153.4453 L 6380.1445 1143.1777 L 6386.5801 1120.0898 L 6428.3594 1119.9941 L 6406.8926 1090.3223 L 6324.4453 1090.3223 L 6318.8906 1087.9199 L 6313.8398 1066.1387 L 6310.0508 1042.7793 L 6297.7402 1028.2578 L 6279.4316 1028.2578 z M 6357.9766 1120.1543 L 6358.0547 1120.1543 L 6354.252 1141.3926 L 6345.9473 1149.2832 L 6357.6855 1120.1562 L 6357.9766 1120.1543 z M 6338.5371 1120.1992 L 6333.2891 1130.5742 L 6332.4805 1120.2129 L 6338.5371 1120.1992 z M 6248.0508 1120.4062 L 6247.6504 1128.3223 L 6243.6504 1120.416 L 6248.0508 1120.4062 z M 6224.918 1121.502 L 6237.3203 1152.2812 L 6229.0176 1144.3945 L 6224.918 1121.502 z M 6345.2832 1150.9297 L 6344.4316 1173.0254 L 6336.8379 1171.8867 L 6345.2832 1150.9297 z M 6237.9883 1153.9395 L 6244.7383 1170.6914 L 6238.6562 1171.3066 L 6237.9883 1153.9395 z M 6381.1816 1180.1816 L 6381.2773 1189.5547 L 6380.6914 1189.4434 L 6375.1172 1185.7949 L 6379.7734 1181.4863 L 6381.1816 1180.1816 z "
       style="fill:#000000;stroke:none;stroke-width:1px;stroke-linecap:butt;stroke-linejoin:miter;stroke-opacity:1"
       id="path7102-3"
       d="m 6279.4316,1018.1562 a 10.102548,10.102548 0 0 0 -8.0996,4.0665 l -11.9961,16.0996 a 10.102548,10.102548 0 0 0 -1.9746,5.2949 l -1.5351,20.8652 -3.0586,15.7383 h -79.4727 a 10.102548,10.102548 0 0 0 -8.2422,4.2617 l -21.4648,30.3028 a 10.102548,10.102548 0 0 0 8.2656,15.9414 l 36.4551,-0.084 3.7148,13.334 -4.8886,6.248 a 10.102548,10.102548 0 0 0 -2.1211,6.8555 l -38.043,1.3261 a 10.102548,10.102548 0 0 0 -9.75,10.1993 l 0.8926,87.5 a 10.102548,10.102548 0 0 0 10.1816,9.998 l 56.6953,-0.4453 a 10.102548,10.102548 0 0 0 10.0176,-10.4062 l -0.088,-2.9336 156.8848,-1.0332 0.01,0.873 a 10.102548,10.102548 0 0 0 10.1816,9.998 l 56.6973,-0.4453 a 10.102548,10.102548 0 0 0 10.0176,-10.4062 l -2.6914,-88.9688 a 10.102548,10.102548 0 0 0 -10.4492,-9.791 l -37.3067,1.3008 a 10.102548,10.102548 0 0 0 -2.1269,-6.625 l -4.8887,-6.248 3.0098,-10.7989 34.1269,-0.078 a 10.102548,10.102548 0 0 0 8.1602,-16.0234 l -21.4668,-29.6719 a 10.102548,10.102548 0 0 0 -8.1836,-4.1797 h -79.418 l -3.7187,-16.0332 -3.7344,-23.0254 a 10.102548,10.102548 0 0 0 -2.2656,-4.9141 l -12.3106,-14.5214 a 10.102548,10.102548 0 0 0 -7.7051,-3.5704 z m -32.9375,107.7618 -1.0937,1.7832 -1.2305,-1.2891 z m 134.4981,55.5273 0.2695,3.2246 -2.7226,-1.1719 z"
       transform="matrix(0.22967339,0,0,0.22967339,-1399.5562,798.60552)" />
    <path
       style="fill:#1a1a1a;stroke:none;stroke-width:0.22967339px;stroke-linecap:butt;stroke-linejoin:miter;stroke-opacity:1"
       d="m 35.19441,1053.9817 -0.870163,-2.2476 1.160016,-2.2475 3.045026,-0.87 1.014968,-5.2203 0.362618,-4.9301 2.755173,-3.6975 h 4.205041 l 2.827576,3.3351 0.870042,5.3651 1.159895,5.0027 2.68277,1.16 0.942324,2.8275 -0.65235,1.5226 z"
       id="path7102"
       inkscape:connector-curvature="0" />
    <path
       style="fill:#333333;stroke:none;stroke-width:0.22967339px;stroke-linecap:butt;stroke-linejoin:miter;stroke-opacity:1"
       d="m 65.994858,1066.0726 0.2049,20.0965 13.021788,-0.1026 -0.6182,-20.4336 z"
       id="path7066-6"
       inkscape:connector-curvature="0" />
    <path
       style="fill:#333333;stroke:none;stroke-width:0.22967339px;stroke-linecap:butt;stroke-linejoin:miter;stroke-opacity:1"
       d="m 12.31991,1066.9791 0.205262,20.0965 13.021426,-0.1026 -0.618079,-20.4333 z"
       id="path7066"
       inkscape:connector-curvature="0" />
    <path
       style="fill:#1a1a1a;stroke:none;stroke-width:0.22967339px;stroke-linecap:butt;stroke-linejoin:miter;stroke-opacity:1"
       d="m 25.546598,1086.973 -0.618079,-20.4334 -2.25692,18.372 z"
       id="path7134"
       inkscape:connector-curvature="0" />
    <path
       style="fill:#666666;stroke:none;stroke-width:0.22967339px;stroke-linecap:butt;stroke-linejoin:miter;stroke-opacity:1"
       d="m 67.27639,1067.9181 -1.076632,18.251 -0.2049,-20.0965 z"
       id="path7130-9"
       inkscape:connector-curvature="0" />
    <path
       style="fill:#c83737;stroke:none;stroke-width:0.22967339px;stroke-linecap:butt;stroke-linejoin:miter;stroke-opacity:1"
       d="m 14.165582,1083.9995 0.512733,-6.4594 3.280939,-4.2039 5.434202,-1.538 3.076038,-3.4861 11.176237,-1.1279 15.072119,0.1026 8.202648,1.2302 4.998457,3.2717 7.613169,1.445 2.563305,3.6911 0.307591,6.6648 z"
       id="path7060"
       inkscape:connector-curvature="0" />
    <path
       style="fill:#de8787;stroke:none;stroke-width:0.22967339px;stroke-linecap:butt;stroke-linejoin:miter;stroke-opacity:1"
       d="m 52.71785,1067.2867 -14.748236,1.5294 -10.936101,1.2904 -0.564019,-1.7944 11.176237,-1.1279 z"
       id="path7120"
       inkscape:connector-curvature="0" />
    <path
       style="fill:#4d4d4d;stroke:none;stroke-width:0.22967339px;stroke-linecap:butt;stroke-linejoin:miter;stroke-opacity:1"
       d="m 24.928519,1066.5396 -11.326715,2.2854 -1.281894,-1.8459 z"
       id="path7128"
       inkscape:connector-curvature="0" />
    <path
       style="fill:#d35f5f;stroke:none;stroke-width:0.22967339px;stroke-linecap:butt;stroke-linejoin:miter;stroke-opacity:1"
       d="m 26.469494,1068.3121 -3.076038,3.4861 -5.434202,1.538 -3.280939,4.2039 -0.512733,6.4594 1.794265,-5.4854 3.024874,-4.05 5.280345,-1.3842 2.768447,-2.9734 z"
       id="path7122"
       inkscape:connector-curvature="0" />
    <path
       style="fill:#999999;stroke:none;stroke-width:0.22967339px;stroke-linecap:butt;stroke-linejoin:miter;stroke-opacity:1"
       d="m 23.393456,1055.5979 1.7431,6.2547 -1.84555,2.3583 0.512492,5.1266 2.768567,2.5633 4.613877,-0.205 2.153263,-2.9736 -0.205142,-5.3318 -2.050451,-1.948 -1.230608,-6.8697 z"
       id="path7041"
       inkscape:connector-curvature="0" />
    <path
       style="fill:#4d4d4d;stroke:none;stroke-width:0.22967339px;stroke-linecap:butt;stroke-linejoin:miter;stroke-opacity:1"
       d="m 78.603346,1065.6331 -11.326956,2.285 -1.281532,-1.8455 z"
       id="path7128-4"
       inkscape:connector-curvature="0" />
    <path
       style="fill:#999999;stroke:none;stroke-width:0.22967339px;stroke-linecap:butt;stroke-linejoin:miter;stroke-opacity:1"
       d="m 67.536316,1054.9084 -1.7431,6.2545 1.845671,2.3584 -0.512733,5.1265 -2.768206,2.5633 -4.614118,-0.2049 -2.153142,-2.9735 0.205021,-5.3318 2.050692,-1.948 1.230367,-6.8698 z"
       id="path7041-9"
       inkscape:connector-curvature="0" />
    <path
       style="fill:#999999;stroke:none;stroke-width:0.22967339px;stroke-linecap:butt;stroke-linejoin:miter;stroke-opacity:1"
       d="m 39.346959,1065.6261 -6.162455,-12.1802 -4.205162,-0.146 5.872722,14.573 4.784989,-0.075 z"
       id="path7083"
       inkscape:connector-curvature="0" />
    <path
       style="fill:#999999;stroke:none;stroke-width:0.22967339px;stroke-linecap:butt;stroke-linejoin:miter;stroke-opacity:1"
       d="m 51.289098,1065.6647 6.162576,-12.1802 4.205162,-0.1459 -5.872843,14.5728 -4.784989,-0.071 z"
       id="path7083-0"
       inkscape:connector-curvature="0" />
    <path
       style="fill:#3771c8;stroke:none;stroke-width:0.22967339px;stroke-linecap:butt;stroke-linejoin:miter;stroke-opacity:1"
       d="m 35.556786,1053.9091 2.755173,-4.1326 3.697376,-1.5949 6.235341,-0.2901 4.059874,2.3924 2.392796,3.6978 1.086647,13.9305 -20.931929,-0.039 z"
       id="path7100"
       inkscape:connector-curvature="0"
       sodipodi:nodetypes="ccccccccc" />
    <path
       style="fill:#2a7fff;stroke:none;stroke-width:0.22967339px;stroke-linecap:butt;stroke-linejoin:miter;stroke-opacity:1"
       d="m 38.311959,1049.7765 -2.755173,4.1326 -0.704722,13.9645 1.922057,-13.7622 2.460734,-3.3324 z"
       id="path7118"
       inkscape:connector-curvature="0" />
    <path
       style="fill:#4d4d4d;stroke:none;stroke-width:0.22967339px;stroke-linecap:butt;stroke-linejoin:miter;stroke-opacity:1"
       d="m 37.953082,1069.8502 0.615425,-14.6623 12.816405,-0.2049 0.922896,15.1747 z"
       id="path7064"
       inkscape:connector-curvature="0" />
    <path
       style="fill:#000000;stroke:none;stroke-width:0.22967339px;stroke-linecap:butt;stroke-linejoin:miter;stroke-opacity:1"
       d="m 37.953082,1069.8502 14.354726,0.3075 -2.875,-2.0617 z"
       id="path7132-8"
       inkscape:connector-curvature="0"
       sodipodi:nodetypes="cccc" />
    <path
       style="fill:#4d4d4d;stroke:none;stroke-width:0.22967339px;stroke-linecap:butt;stroke-linejoin:miter;stroke-opacity:1"
       d="m 35.287327,1075.4893 0.307712,6.6646 19.378524,-0.2049 0.102571,-6.5621 z"
       id="path7062"
       inkscape:connector-curvature="0" />
    <path
       style="fill:#4d4d4d;stroke:none;stroke-width:0.22967339px;stroke-linecap:butt;stroke-linejoin:miter;stroke-opacity:1"
       d="m 41.336712,1038.6289 -0.563898,5.0754 -0.922655,4.8189 -4.365896,0.9634 3.045026,-0.87 1.014968,-5.2203 0.362618,-4.9301 z"
       id="path7106"
       inkscape:connector-curvature="0"
       sodipodi:nodetypes="cccccccc" />
    <path
       style="fill:#5599ff;stroke:none;stroke-width:0.22967339px;stroke-linecap:butt;stroke-linejoin:miter;stroke-opacity:1"
       d="m 48.244676,1047.8915 -6.235341,0.2901 -3.697376,1.5949 0.922896,1.0025 3.127324,-1.538 z"
       id="path7116"
       inkscape:connector-curvature="0" />
    <path
       style="fill:#b3b3b3;stroke:none;stroke-width:0.22967339px;stroke-linecap:butt;stroke-linejoin:miter;stroke-opacity:1"
       d="m 61.076768,1053.8831 -0.106191,7.8157 -3.176075,1.0021 2.050692,-1.948 z"
       id="path7160-9"
       inkscape:connector-curvature="0"
       sodipodi:nodetypes="ccccc" />
    <path
       style="fill:#808080;stroke:none;stroke-width:0.22967339px;stroke-linecap:butt;stroke-linejoin:miter;stroke-opacity:1"
       d="m 51.384912,1054.983 -10.949737,1.7391 -1.866668,-1.5342 z"
       id="path7128-1"
       inkscape:connector-curvature="0"
       sodipodi:nodetypes="cccc" />
    <path
       style="fill:#999999;stroke:none;stroke-width:0.22967339px;stroke-linecap:butt;stroke-linejoin:miter;stroke-opacity:1"
       d="m 41.336712,1070.8753 h 7.587465 l 0.102571,-16.7128 -7.484653,0.1026 z"
       id="path7058"
       inkscape:connector-curvature="0" />
    <path
       style="fill:#cccccc;stroke:none;stroke-width:0.22967339px;stroke-linecap:butt;stroke-linejoin:miter;stroke-opacity:1"
       d="m 41.336712,1070.8753 1.707141,-15.5631 -1.691695,-1.3327 z"
       id="path7227"
       inkscape:connector-curvature="0"
       sodipodi:nodetypes="cccc" />
    <path
       style="fill:#b3b3b3;stroke:none;stroke-width:0.22967339px;stroke-linecap:butt;stroke-linejoin:miter;stroke-opacity:1"
       d="m 43.043853,1055.3122 5.89577,-1.3327 h -7.587465 z"
       id="path7229"
       inkscape:connector-curvature="0" />
    <path
       style="fill:#666666;stroke:none;stroke-width:0.22967339px;stroke-linecap:butt;stroke-linejoin:miter;stroke-opacity:1"
       d="m 49.026748,1054.1625 -0.102571,16.7128 -1.471348,-1.721 z"
       id="path7223"
       inkscape:connector-curvature="0"
       sodipodi:nodetypes="cccc" />
    <path
       style="fill:#c83737;stroke:none;stroke-width:0.22967339px;stroke-linecap:butt;stroke-linejoin:miter;stroke-opacity:1"
       d="m 18.285429,1049.0231 h 53.651175 l 4.930037,6.8152 -63.51149,0.1459 z"
       id="path7039"
       inkscape:connector-curvature="0" />
    <path
       style="fill:#333333;stroke:none;stroke-width:0.22967339px;stroke-linecap:butt;stroke-linejoin:miter;stroke-opacity:1"
       d="m 46.867089,1034.7687 -3.736111,1.1943 -1.794266,2.6659 -1.429837,-0.1623 2.755173,-3.6978 z"
       id="path7104"
       inkscape:connector-curvature="0" />
    <path
       style="fill:#de8787;stroke:none;stroke-width:0.22967339px;stroke-linecap:butt;stroke-linejoin:miter;stroke-opacity:1"
       d="m 13.355151,1055.9832 6.347203,-4.9991 -1.416925,-1.961 z"
       id="path7108"
       inkscape:connector-curvature="0" />
    <path
       style="fill:#d35f5f;stroke:none;stroke-width:0.22967339px;stroke-linecap:butt;stroke-linejoin:miter;stroke-opacity:1"
       d="m 19.702354,1050.9841 52.23425,-1.961 H 18.285429 Z"
       id="path7110"
       inkscape:connector-curvature="0" />
    <path
       style="fill:#666666;stroke:none;stroke-width:0.22967339px;stroke-linecap:butt;stroke-linejoin:miter;stroke-opacity:1"
       d="m 40.435175,1056.7221 -2.482093,13.1281 0.615425,-14.6623 z"
       id="path7130-4"
       inkscape:connector-curvature="0"
       sodipodi:nodetypes="cccc" />
    <path
       style="fill:#782121;stroke:none;stroke-width:0.22967339px;stroke-linecap:butt;stroke-linejoin:miter;stroke-opacity:1"
       d="m 13.355151,1055.9832 59.049176,-2.3333 4.462314,2.1884 z"
       id="path7112"
       inkscape:connector-curvature="0" />
    <path
       style="fill:#a02c2c;stroke:none;stroke-width:0.22967339px;stroke-linecap:butt;stroke-linejoin:miter;stroke-opacity:1"
       d="m 72.404327,1053.6499 -0.467723,-4.6268 4.930037,6.8152 c 0.01689,-0.1826 0.04948,-0.3645 0.04948,-0.548 0,-0.1833 -0.03379,0.3654 -0.04948,0.548 z"
       id="path7114"
       inkscape:connector-curvature="0" />
    <path
       style="fill:#782121;stroke:none;stroke-width:0.22967339px;stroke-linecap:butt;stroke-linejoin:miter;stroke-opacity:1"
       d="m 14.165582,1083.9995 60.494338,-2.0505 1.7431,1.6405 z"
       id="path7124"
       inkscape:connector-curvature="0" />
    <path
       style="fill:#a02c2c;stroke:none;stroke-width:0.22967339px;stroke-linecap:butt;stroke-linejoin:miter;stroke-opacity:1"
       d="m 74.65992,1081.949 1.435509,-5.0242 0.307591,6.6647 z"
       id="path7126"
       inkscape:connector-curvature="0" />
    <path
       style="fill:#666666;stroke:none;stroke-width:0.22967339px;stroke-linecap:butt;stroke-linejoin:miter;stroke-opacity:1"
       d="m 13.601804,1068.825 -1.076632,18.2506 -0.205262,-20.0965 z"
       id="path7130"
       inkscape:connector-curvature="0" />
    <path
       style="fill:#000000;stroke:none;stroke-width:0.22967339px;stroke-linecap:butt;stroke-linejoin:miter;stroke-opacity:1"
       d="m 12.525172,1087.0756 13.021426,-0.1026 -2.874999,-2.0614 z"
       id="path7132"
       inkscape:connector-curvature="0" />
    <path
       style="fill:#1a1a1a;stroke:none;stroke-width:0.22967339px;stroke-linecap:butt;stroke-linejoin:miter;stroke-opacity:1"
       d="m 79.221546,1086.0665 -0.6182,-20.4334 -2.25692,18.3718 z"
       id="path7134-6"
       inkscape:connector-curvature="0" />
    <path
       style="fill:#000000;stroke:none;stroke-width:0.22967339px;stroke-linecap:butt;stroke-linejoin:miter;stroke-opacity:1"
       d="m 66.199758,1086.1691 13.021788,-0.1026 -2.87512,-2.0618 z"
       id="path7132-9"
       inkscape:connector-curvature="0" />
    <path
       style="fill:#b3b3b3;stroke:none;stroke-width:0.22967339px;stroke-linecap:butt;stroke-linejoin:miter;stroke-opacity:1"
       d="m 23.393456,1055.5979 2.973588,6.306 -3.076038,2.307 1.84555,-2.3583 z"
       id="path7160"
       inkscape:connector-curvature="0" />
    <path
       style="fill:#666666;stroke:none;stroke-width:0.22967339px;stroke-linecap:butt;stroke-linejoin:miter;stroke-opacity:1"
       d="m 26.572065,1071.9008 3.793672,-1.0767 1.743101,-2.307 1.230367,0.2051 -2.153263,2.9736 z"
       id="path7162"
       inkscape:connector-curvature="0" />
    <path
       style="fill:#808080;stroke:none;stroke-width:0.22967339px;stroke-linecap:butt;stroke-linejoin:miter;stroke-opacity:1"
       d="m 32.108838,1068.5171 1.025225,-5.1267 0.205142,5.3318 z"
       id="path7164"
       inkscape:connector-curvature="0" />
    <path
       style="fill:#666666;stroke:none;stroke-width:0.22967339px;stroke-linecap:butt;stroke-linejoin:miter;stroke-opacity:1"
       d="m 59.74383,1071.0062 3.793672,-0.6666 2.358284,-1.8969 1.230368,0.2051 -2.768206,2.5633 z"
       id="path7162-0"
       inkscape:connector-curvature="0"
       sodipodi:nodetypes="cccccc" />
    <path
       style="fill:#808080;stroke:none;stroke-width:0.22967339px;stroke-linecap:butt;stroke-linejoin:miter;stroke-opacity:1"
       d="m 65.895786,1068.4427 1.743101,-4.9214 -0.512733,5.1265 z"
       id="path7164-8"
       inkscape:connector-curvature="0"
       sodipodi:nodetypes="cccc" />
    <path
       style="fill:#1a1a1a;stroke:none;stroke-width:0.22967339px;stroke-linecap:butt;stroke-linejoin:miter;stroke-opacity:1"
       d="m 52.307808,1070.1577 -0.922896,-15.1747 -1.952104,13.113 z"
       id="path7134-3"
       inkscape:connector-curvature="0"
       sodipodi:nodetypes="cccc" />
    <path
       style="fill:#808080;stroke:none;stroke-width:0.22967339px;stroke-linecap:butt;stroke-linejoin:miter;stroke-opacity:1"
       d="m 48.924177,1070.8753 h -7.587465 l 6.116238,-1.721 z"
       id="path7225"
       inkscape:connector-curvature="0"
       sodipodi:nodetypes="cccc" />
    <path
       transform="matrix(0.22967339,0,0,0.22967339,-1363.0979,807.7293)"
       sodipodi:type="inkscape:offset"
       inkscape:radius="10.101538"
       inkscape:original="M 6279.4316 1028.2578 L 6267.4355 1044.3574 L 6265.8574 1065.8223 L 6261.4375 1088.5508 L 6255.2383 1090.3223 L 6173.2949 1090.3223 L 6151.8301 1120.625 L 6195.9746 1120.5234 L 6203.125 1146.1816 L 6195.0898 1156.4492 L 6196.125 1166.8008 L 6147.3223 1168.502 L 6148.2148 1256.002 L 6204.9102 1255.5566 L 6204.5098 1242.2852 L 6381.8027 1241.1172 L 6381.9141 1252.0547 L 6438.6113 1251.6094 L 6435.9199 1162.6406 L 6387.0898 1164.3438 L 6388.1797 1153.4453 L 6380.1445 1143.1777 L 6386.5801 1120.0898 L 6428.3594 1119.9941 L 6406.8926 1090.3223 L 6324.4453 1090.3223 L 6318.8906 1087.9199 L 6313.8398 1066.1387 L 6310.0508 1042.7793 L 6297.7402 1028.2578 L 6279.4316 1028.2578 z M 6357.9766 1120.1543 L 6358.0547 1120.1543 L 6354.252 1141.3926 L 6345.9473 1149.2832 L 6357.6855 1120.1562 L 6357.9766 1120.1543 z M 6338.5371 1120.1992 L 6333.2891 1130.5742 L 6332.4805 1120.2129 L 6338.5371 1120.1992 z M 6248.0508 1120.4062 L 6247.6504 1128.3223 L 6243.6504 1120.416 L 6248.0508 1120.4062 z M 6224.918 1121.502 L 6237.3203 1152.2812 L 6229.0176 1144.3945 L 6224.918 1121.502 z M 6345.2832 1150.9297 L 6344.4316 1173.0254 L 6336.8379 1171.8867 L 6345.2832 1150.9297 z M 6237.9883 1153.9395 L 6244.7383 1170.6914 L 6238.6562 1171.3066 L 6237.9883 1153.9395 z M 6381.1816 1180.1816 L 6381.2773 1189.5547 L 6380.6914 1189.4434 L 6375.1172 1185.7949 L 6379.7734 1181.4863 L 6381.1816 1180.1816 z "
       style="fill:#000000;stroke:none;stroke-width:1px;stroke-linecap:butt;stroke-linejoin:miter;stroke-opacity:1"
       id="path7102-3-2"
       d="m 6279.4316,1018.1562 a 10.102548,10.102548 0 0 0 -8.0996,4.0665 l -11.9961,16.0996 a 10.102548,10.102548 0 0 0 -1.9746,5.2949 l -1.5351,20.8652 -3.0586,15.7383 h -79.4727 a 10.102548,10.102548 0 0 0 -8.2422,4.2617 l -21.4648,30.3028 a 10.102548,10.102548 0 0 0 8.2656,15.9414 l 36.4551,-0.084 3.7148,13.334 -4.8886,6.248 a 10.102548,10.102548 0 0 0 -2.1211,6.8555 l -38.043,1.3261 a 10.102548,10.102548 0 0 0 -9.75,10.1993 l 0.8926,87.5 a 10.102548,10.102548 0 0 0 10.1816,9.998 l 56.6953,-0.4453 a 10.102548,10.102548 0 0 0 10.0176,-10.4062 l -0.088,-2.9336 156.8848,-1.0332 0.01,0.873 a 10.102548,10.102548 0 0 0 10.1816,9.998 l 56.6973,-0.4453 a 10.102548,10.102548 0 0 0 10.0176,-10.4062 l -2.6914,-88.9688 a 10.102548,10.102548 0 0 0 -10.4492,-9.791 l -37.3067,1.3008 a 10.102548,10.102548 0 0 0 -2.1269,-6.625 l -4.8887,-6.248 3.0098,-10.7989 34.1269,-0.078 a 10.102548,10.102548 0 0 0 8.1602,-16.0234 l -21.4668,-29.6719 a 10.102548,10.102548 0 0 0 -8.1836,-4.1797 h -79.418 l -3.7187,-16.0332 -3.7344,-23.0254 a 10.102548,10.102548 0 0 0 -2.2656,-4.9141 l -12.3106,-14.5214 a 10.102548,10.102548 0 0 0 -7.7051,-3.5704 z m -32.9375,107.7618 -1.0937,1.7832 -1.2305,-1.2891 z m 134.4981,55.5273 0.2695,3.2246 -2.7226,-1.1719 z" />
    <path
       style="fill:#1a1a1a;stroke:none;stroke-width:0.22967339px;stroke-linecap:butt;stroke-linejoin:miter;stroke-opacity:1"
       d="m 71.652543,1063.1053 -0.870041,-2.2474 1.160015,-2.2475 3.045268,-0.8702 1.014847,-5.22 0.362498,-4.93 2.755172,-3.6977 h 4.204925 l 2.82769,3.335 0.87004,5.3651 1.16002,5.0026 2.68253,1.1603 0.94244,2.8274 -0.65259,1.5224 z"
       id="path7102-30"
       inkscape:connector-curvature="0" />
    <path
       style="fill:#333333;stroke:none;stroke-width:0.22967339px;stroke-linecap:butt;stroke-linejoin:miter;stroke-opacity:1"
       d="m 102.453,1075.1964 0.20502,20.0966 13.02167,-0.1026 -0.61784,-20.4334 z"
       id="path7066-6-7"
       inkscape:connector-curvature="0" />
    <path
       style="fill:#333333;stroke:none;stroke-width:0.22967339px;stroke-linecap:butt;stroke-linejoin:miter;stroke-opacity:1"
       d="m 48.778285,1076.1029 0.205021,20.0967 13.021668,-0.1026 -0.617959,-20.4334 z"
       id="path7066-7"
       inkscape:connector-curvature="0" />
    <path
       style="fill:#1a1a1a;stroke:none;stroke-width:0.22967339px;stroke-linecap:butt;stroke-linejoin:miter;stroke-opacity:1"
       d="m 62.004974,1096.0968 -0.617959,-20.4334 -2.25692,18.3718 z"
       id="path7134-7"
       inkscape:connector-curvature="0" />
    <path
       style="fill:#666666;stroke:none;stroke-width:0.22967339px;stroke-linecap:butt;stroke-linejoin:miter;stroke-opacity:1"
       d="m 103.73465,1077.0421 -1.07663,18.2509 -0.20502,-20.0966 z"
       id="path7130-9-6"
       inkscape:connector-curvature="0" />
    <path
       style="fill:#37abc8;stroke:none;stroke-width:0.22967339px;stroke-linecap:butt;stroke-linejoin:miter;stroke-opacity:1"
       d="m 50.623836,1093.1234 0.512613,-6.4595 3.28118,-4.2039 5.434202,-1.5379 3.076159,-3.4862 11.175755,-1.1277 15.072602,0.1026 8.20253,1.2303 4.998343,3.2715 7.61316,1.445 2.56331,3.6913 0.30747,6.6646 z"
       id="path7060-9"
       inkscape:connector-curvature="0" />
    <path
       style="fill:#87cdde;stroke:none;stroke-width:0.22967339px;stroke-linecap:butt;stroke-linejoin:miter;stroke-opacity:1"
       d="m 89.176347,1076.4106 -14.748599,1.5293 -10.936101,1.2903 -0.563657,-1.7943 11.175755,-1.1277 z"
       id="path7120-1"
       inkscape:connector-curvature="0" />
    <path
       style="fill:#4d4d4d;stroke:none;stroke-width:0.22967339px;stroke-linecap:butt;stroke-linejoin:miter;stroke-opacity:1"
       d="m 61.387015,1075.6634 -11.327077,2.2852 -1.281653,-1.8457 z"
       id="path7128-19"
       inkscape:connector-curvature="0" />
    <path
       style="fill:#5fbcd3;stroke:none;stroke-width:0.22967339px;stroke-linecap:butt;stroke-linejoin:miter;stroke-opacity:1"
       d="m 62.92799,1077.4359 -3.076159,3.4862 -5.434202,1.5379 -3.28118,4.2039 -0.512613,6.4595 1.794265,-5.4856 3.024633,-4.0499 5.280587,-1.3843 2.768326,-2.9734 z"
       id="path7122-0"
       inkscape:connector-curvature="0" />
    <path
       style="fill:#999999;stroke:none;stroke-width:0.22967339px;stroke-linecap:butt;stroke-linejoin:miter;stroke-opacity:1"
       d="m 59.851831,1064.7219 1.743101,6.2545 -1.845551,2.3582 0.512492,5.1267 2.768326,2.5632 4.614118,-0.205 2.153143,-2.9735 -0.205142,-5.3316 -2.050572,-1.9483 -1.230487,-6.8695 z"
       id="path7041-8"
       inkscape:connector-curvature="0" />
    <path
       style="fill:#4d4d4d;stroke:none;stroke-width:0.22967339px;stroke-linecap:butt;stroke-linejoin:miter;stroke-opacity:1"
       d="m 115.06185,1074.7568 -11.3272,2.2853 -1.28165,-1.8457 z"
       id="path7128-4-9"
       inkscape:connector-curvature="0" />
    <path
       style="fill:#999999;stroke:none;stroke-width:0.22967339px;stroke-linecap:butt;stroke-linejoin:miter;stroke-opacity:1"
       d="m 103.99458,1064.0324 -1.7431,6.2544 1.84579,2.3583 -0.51273,5.1267 -2.76845,2.5632 -4.614123,-0.2051 -2.15315,-2.9733 0.20527,-5.3317 2.05069,-1.9481 1.23025,-6.8699 z"
       id="path7041-9-8"
       inkscape:connector-curvature="0" />
    <path
       style="fill:#999999;stroke:none;stroke-width:0.22967339px;stroke-linecap:butt;stroke-linejoin:miter;stroke-opacity:1"
       d="m 75.805334,1074.7497 -6.162575,-12.1802 -4.205042,-0.146 5.872602,14.5729 4.78511,-0.071 z"
       id="path7083-8"
       inkscape:connector-curvature="0" />
    <path
       style="fill:#999999;stroke:none;stroke-width:0.22967339px;stroke-linecap:butt;stroke-linejoin:miter;stroke-opacity:1"
       d="m 87.747357,1074.7886 6.16257,-12.1803 4.20517,-0.1458 -5.87261,14.5729 -4.78511,-0.075 z"
       id="path7083-0-0"
       inkscape:connector-curvature="0" />
    <path
       style="fill:#3771c8;stroke:none;stroke-width:0.22967339px;stroke-linecap:butt;stroke-linejoin:miter;stroke-opacity:1"
       d="m 72.015041,1063.033 2.755173,-4.1328 3.697497,-1.5949 6.235096,-0.2901 4.06,2.3927 2.39255,3.6974 1.08713,13.9308 -20.932168,-0.039 z"
       id="path7100-3"
       inkscape:connector-curvature="0"
       sodipodi:nodetypes="ccccccccc" />
    <path
       style="fill:#2a7fff;stroke:none;stroke-width:0.22967339px;stroke-linecap:butt;stroke-linejoin:miter;stroke-opacity:1"
       d="m 74.770214,1058.9002 -2.755173,4.1328 -0.704722,13.9642 1.922177,-13.7621 2.460734,-3.3323 z"
       id="path7118-7"
       inkscape:connector-curvature="0" />
    <path
       style="fill:#4d4d4d;stroke:none;stroke-width:0.22967339px;stroke-linecap:butt;stroke-linejoin:miter;stroke-opacity:1"
       d="m 74.411578,1078.9738 0.615183,-14.6619 12.816526,-0.2053 0.92278,15.1748 z"
       id="path7064-0"
       inkscape:connector-curvature="0" />
    <path
       style="fill:#000000;stroke:none;stroke-width:0.22967339px;stroke-linecap:butt;stroke-linejoin:miter;stroke-opacity:1"
       d="m 74.411578,1078.9738 14.354489,0.3076 -2.87513,-2.0615 z"
       id="path7132-8-6"
       inkscape:connector-curvature="0"
       sodipodi:nodetypes="cccc" />
    <path
       style="fill:#4d4d4d;stroke:none;stroke-width:0.22967339px;stroke-linecap:butt;stroke-linejoin:miter;stroke-opacity:1"
       d="m 71.745702,1084.6132 0.307471,6.6647 19.378764,-0.2052 0.10257,-6.562 z"
       id="path7062-9"
       inkscape:connector-curvature="0" />
    <path
       style="fill:#4d4d4d;stroke:none;stroke-width:0.22967339px;stroke-linecap:butt;stroke-linejoin:miter;stroke-opacity:1"
       d="m 77.795208,1047.7527 -0.564019,5.0753 -0.922896,4.8192 -4.365776,0.9632 3.045268,-0.8702 1.014847,-5.22 0.362498,-4.93 z"
       id="path7106-2"
       inkscape:connector-curvature="0"
       sodipodi:nodetypes="cccccccc" />
    <path
       style="fill:#5599ff;stroke:none;stroke-width:0.22967339px;stroke-linecap:butt;stroke-linejoin:miter;stroke-opacity:1"
       d="m 84.702807,1057.0152 -6.235096,0.2901 -3.697497,1.5949 0.923016,1.0026 3.127083,-1.538 z"
       id="path7116-1"
       inkscape:connector-curvature="0" />
    <path
       style="fill:#b3b3b3;stroke:none;stroke-width:0.22967339px;stroke-linecap:butt;stroke-linejoin:miter;stroke-opacity:1"
       d="m 97.535027,1063.0069 -0.10619,7.8156 -3.1762,1.0024 2.05069,-1.9481 z"
       id="path7160-9-7"
       inkscape:connector-curvature="0"
       sodipodi:nodetypes="ccccc" />
    <path
       style="fill:#808080;stroke:none;stroke-width:0.22967339px;stroke-linecap:butt;stroke-linejoin:miter;stroke-opacity:1"
       d="m 87.843287,1064.1066 -10.949857,1.7391 -1.866669,-1.5338 z"
       id="path7128-1-7"
       inkscape:connector-curvature="0"
       sodipodi:nodetypes="cccc" />
    <path
       style="fill:#999999;stroke:none;stroke-width:0.22967339px;stroke-linecap:butt;stroke-linejoin:miter;stroke-opacity:1"
       d="m 77.795208,1079.9993 h 7.587219 l 0.10258,-16.7128 -7.484899,0.1026 z"
       id="path7058-9"
       inkscape:connector-curvature="0" />
    <path
       style="fill:#cccccc;stroke:none;stroke-width:0.22967339px;stroke-linecap:butt;stroke-linejoin:miter;stroke-opacity:1"
       d="m 77.795208,1079.9993 1.70702,-15.5631 -1.691936,-1.3331 z"
       id="path7227-7"
       inkscape:connector-curvature="0"
       sodipodi:nodetypes="cccc" />
    <path
       style="fill:#b3b3b3;stroke:none;stroke-width:0.22967339px;stroke-linecap:butt;stroke-linejoin:miter;stroke-opacity:1"
       d="m 79.502228,1064.4362 5.895409,-1.3331 h -7.587345 z"
       id="path7229-6"
       inkscape:connector-curvature="0" />
    <path
       style="fill:#666666;stroke:none;stroke-width:0.22967339px;stroke-linecap:butt;stroke-linejoin:miter;stroke-opacity:1"
       d="m 85.397637,1063.1031 -0.0169,16.8962 -1.47147,-1.7214 z"
       id="path7223-2"
       inkscape:connector-curvature="0"
       sodipodi:nodetypes="cccc" />
    <path
       style="fill:#37abc8;stroke:none;stroke-width:0.22967339px;stroke-linecap:butt;stroke-linejoin:miter;stroke-opacity:1"
       d="m 54.743563,1058.147 h 53.651177 l 4.93004,6.8152 -63.511253,0.1459 z"
       id="path7039-2"
       inkscape:connector-curvature="0" />
    <path
       style="fill:#333333;stroke:none;stroke-width:0.22967339px;stroke-linecap:butt;stroke-linejoin:miter;stroke-opacity:1"
       d="m 83.325227,1043.8925 -3.735754,1.1942 -1.794265,2.666 -1.430078,-0.1624 2.755172,-3.6976 z"
       id="path7104-7"
       inkscape:connector-curvature="0" />
    <path
       style="fill:#87cdde;stroke:none;stroke-width:0.22967339px;stroke-linecap:butt;stroke-linejoin:miter;stroke-opacity:1"
       d="m 49.813527,1065.1072 6.347203,-4.9993 -1.417167,-1.9609 z"
       id="path7108-1"
       inkscape:connector-curvature="0" />
    <path
       style="fill:#5fbcd3;stroke:none;stroke-width:0.22967339px;stroke-linecap:butt;stroke-linejoin:miter;stroke-opacity:1"
       d="m 56.16073,1060.1079 52.23401,-1.9609 H 54.743563 Z"
       id="path7110-5"
       inkscape:connector-curvature="0" />
    <path
       style="fill:#666666;stroke:none;stroke-width:0.22967339px;stroke-linecap:butt;stroke-linejoin:miter;stroke-opacity:1"
       d="m 76.89343,1065.8457 -2.481852,13.1281 0.615183,-14.6619 z"
       id="path7130-4-8"
       inkscape:connector-curvature="0"
       sodipodi:nodetypes="cccc" />
    <path
       style="fill:#2c89a0;stroke:none;stroke-width:0.22967339px;stroke-linecap:butt;stroke-linejoin:miter;stroke-opacity:1"
       d="m 49.813527,1065.1072 59.048943,-2.3334 4.46231,2.1884 z"
       id="path7112-8"
       inkscape:connector-curvature="0" />
    <path
       style="fill:#216778;stroke:none;stroke-width:0.22967339px;stroke-linecap:butt;stroke-linejoin:miter;stroke-opacity:1"
       d="m 108.86247,1062.7738 -0.46773,-4.6268 4.93004,6.8152 c 0.0169,-0.1827 0.0495,-0.3647 0.0495,-0.548 0,-0.1832 -0.0338,0.3653 -0.0495,0.548 z"
       id="path7114-4"
       inkscape:connector-curvature="0" />
    <path
       style="fill:#2c89a0;stroke:none;stroke-width:0.22967339px;stroke-linecap:butt;stroke-linejoin:miter;stroke-opacity:1"
       d="m 50.623836,1093.1234 60.494344,-2.0507 1.74298,1.6407 z"
       id="path7124-5"
       inkscape:connector-curvature="0" />
    <path
       style="fill:#216778;stroke:none;stroke-width:0.22967339px;stroke-linecap:butt;stroke-linejoin:miter;stroke-opacity:1"
       d="m 111.11818,1091.0727 1.43551,-5.024 0.30747,6.6647 z"
       id="path7126-6"
       inkscape:connector-curvature="0" />
    <path
       style="fill:#666666;stroke:none;stroke-width:0.22967339px;stroke-linecap:butt;stroke-linejoin:miter;stroke-opacity:1"
       d="m 50.059938,1077.9486 -1.076632,18.251 -0.205021,-20.0967 z"
       id="path7130-5"
       inkscape:connector-curvature="0" />
    <path
       style="fill:#000000;stroke:none;stroke-width:0.22967339px;stroke-linecap:butt;stroke-linejoin:miter;stroke-opacity:1"
       d="m 48.983306,1096.1996 13.021668,-0.1026 -2.874879,-2.0616 z"
       id="path7132-6"
       inkscape:connector-curvature="0" />
    <path
       style="fill:#1a1a1a;stroke:none;stroke-width:0.22967339px;stroke-linecap:butt;stroke-linejoin:miter;stroke-opacity:1"
       d="m 115.67969,1095.1905 -0.61784,-20.4337 -2.25692,18.3719 z"
       id="path7134-6-8"
       inkscape:connector-curvature="0" />
    <path
       style="fill:#000000;stroke:none;stroke-width:0.22967339px;stroke-linecap:butt;stroke-linejoin:miter;stroke-opacity:1"
       d="m 102.65802,1095.293 13.02167,-0.1026 -2.87476,-2.0617 z"
       id="path7132-9-4"
       inkscape:connector-curvature="0" />
    <path
       style="fill:#b3b3b3;stroke:none;stroke-width:0.22967339px;stroke-linecap:butt;stroke-linejoin:miter;stroke-opacity:1"
       d="m 59.851831,1064.7219 2.973347,6.3058 -3.075797,2.3069 1.845551,-2.3582 z"
       id="path7160-8"
       inkscape:connector-curvature="0" />
    <path
       style="fill:#666666;stroke:none;stroke-width:0.22967339px;stroke-linecap:butt;stroke-linejoin:miter;stroke-opacity:1"
       d="m 63.030199,1081.0245 3.793793,-1.0765 1.743101,-2.3071 1.230367,0.2051 -2.153143,2.9735 z"
       id="path7162-8"
       inkscape:connector-curvature="0" />
    <path
       style="fill:#808080;stroke:none;stroke-width:0.22967339px;stroke-linecap:butt;stroke-linejoin:miter;stroke-opacity:1"
       d="m 68.567093,1077.6409 1.025225,-5.1265 0.205142,5.3316 z"
       id="path7164-3"
       inkscape:connector-curvature="0" />
    <path
       style="fill:#666666;stroke:none;stroke-width:0.22967339px;stroke-linecap:butt;stroke-linejoin:miter;stroke-opacity:1"
       d="m 96.201967,1080.1299 3.79391,-0.6665 2.358293,-1.8967 1.23037,0.2051 -2.76845,2.5632 z"
       id="path7162-0-8"
       inkscape:connector-curvature="0"
       sodipodi:nodetypes="cccccc" />
    <path
       style="fill:#808080;stroke:none;stroke-width:0.22967339px;stroke-linecap:butt;stroke-linejoin:miter;stroke-opacity:1"
       d="m 102.35417,1077.5667 1.7431,-4.9216 -0.51273,5.1267 z"
       id="path7164-8-7"
       inkscape:connector-curvature="0"
       sodipodi:nodetypes="cccc" />
    <path
       style="fill:#1a1a1a;stroke:none;stroke-width:0.22967339px;stroke-linecap:butt;stroke-linejoin:miter;stroke-opacity:1"
       d="m 88.766067,1079.2814 -0.92278,-15.1748 -1.95235,13.1133 z"
       id="path7134-3-5"
       inkscape:connector-curvature="0"
       sodipodi:nodetypes="cccc" />
    <path
       style="fill:#808080;stroke:none;stroke-width:0.22967339px;stroke-linecap:butt;stroke-linejoin:miter;stroke-opacity:1"
       d="m 85.382427,1079.9993 h -7.587219 l 6.115879,-1.7214 z"
       id="path7225-4"
       inkscape:connector-curvature="0"
       sodipodi:nodetypes="cccc" />
  </g>
</svg>
