<?xml version="1.0" encoding="UTF-8" standalone="no"?>
<!-- Created with Inkscape (http://www.inkscape.org/) -->

<svg
   xmlns:dc="http://purl.org/dc/elements/1.1/"
   xmlns:cc="http://creativecommons.org/ns#"
   xmlns:rdf="http://www.w3.org/1999/02/22-rdf-syntax-ns#"
   xmlns:svg="http://www.w3.org/2000/svg"
   xmlns="http://www.w3.org/2000/svg"
   xmlns:sodipodi="http://sodipodi.sourceforge.net/DTD/sodipodi-0.dtd"
   xmlns:inkscape="http://www.inkscape.org/namespaces/inkscape"
   width="128"
   height="128"
   viewBox="0 0 128 128.00001"
   version="1.1"
   id="svg6294"
   inkscape:version="0.92.3 (2405546, 2018-03-11)"
   sodipodi:docname="mode_tt.svg">
  <defs
     id="defs6288" />
  <sodipodi:namedview
     id="base"
     pagecolor="#ffffff"
     bordercolor="#666666"
     borderopacity="1.0"
     inkscape:pageopacity="0.0"
     inkscape:pageshadow="2"
     inkscape:zoom="3.4984259"
     inkscape:cx="47.917654"
     inkscape:cy="69.236435"
     inkscape:document-units="px"
     inkscape:current-layer="layer1"
     showgrid="false"
     units="px"
     inkscape:window-width="1366"
     inkscape:window-height="713"
     inkscape:window-x="0"
     inkscape:window-y="27"
     inkscape:window-maximized="1" />
  <metadata
     id="metadata6291">
    <rdf:RDF>
      <cc:Work
         rdf:about="">
        <dc:format>image/svg+xml</dc:format>
        <dc:type
           rdf:resource="http://purl.org/dc/dcmitype/StillImage" />
        <dc:title></dc:title>
      </cc:Work>
    </rdf:RDF>
  </metadata>
  <g
     inkscape:label="Layer 1"
     inkscape:groupmode="layer"
     id="layer1"
     transform="translate(0,-994.51965)">
    <path
       transform="matrix(2.1358156,0,0,2.1358156,-13348.398,-1248.4229)"
       sodipodi:type="inkscape:offset"
       inkscape:radius="2.8865688"
       inkscape:original="M 6268.584 1057.7266 L 6259.2305 1071.459 L 6259.75 1088.7695 L 6267.75 1102.5195 L 6292.25 1101.7695 L 6301.25 1090.2695 L 6301.25 1071.5195 L 6289.9219 1058.0801 L 6268.584 1057.7266 z "
       style="fill:#000000;stroke:none;stroke-width:1px;stroke-linecap:butt;stroke-linejoin:miter;stroke-opacity:1"
       id="path6827-8"
       d="m 6268.6309,1054.8398 a 2.8868574,2.8868574 0 0 0 -2.4317,1.2618 l -9.3535,13.7324 a 2.8868574,2.8868574 0 0 0 -0.5,1.7109 l 0.5195,17.3106 a 2.8868574,2.8868574 0 0 0 0.3907,1.3652 l 8,13.75 a 2.8868574,2.8868574 0 0 0 2.582,1.4336 l 24.5,-0.75 a 2.8868574,2.8868574 0 0 0 2.1855,-1.1055 l 9,-11.5 a 2.8868574,2.8868574 0 0 0 0.6133,-1.7793 v -18.75 a 2.8868574,2.8868574 0 0 0 -0.6797,-1.8613 l -11.3281,-13.4375 a 2.8868574,2.8868574 0 0 0 -2.1601,-1.0273 z" />
    <path
       style="fill:#6c5353;stroke:none;stroke-width:2.13581562px;stroke-linecap:butt;stroke-linejoin:miter;stroke-opacity:1"
       d="m 20.161275,1040.0157 19.977565,-29.3292 45.574886,0.7552 24.195364,28.7036 v 40.0466 l -19.222334,24.5619 -52.327478,1.6018 -17.086524,-29.3674 z"
       id="path6827"
       inkscape:connector-curvature="0"
       sodipodi:nodetypes="ccccccccc" />
    <path
       style="fill:#e3dbdb;stroke:none;stroke-width:1.61359298px;stroke-linecap:butt;stroke-linejoin:miter;stroke-opacity:1"
       d="m 31.10434,1045.9919 15.092954,-22.158 34.431272,0.5705 18.27959,21.6853 v 30.2552 l -14.52227,18.5564 -39.532874,1.2099 -12.90887,-22.1869 z"
       id="path6827-4"
       inkscape:connector-curvature="0"
       sodipodi:nodetypes="ccccccccc" />
    <path
       style="fill:#483737;stroke:none;stroke-width:2.13581562px;stroke-linecap:butt;stroke-linejoin:miter;stroke-opacity:1"
       d="m 61.01366,1057.1355 13.025916,-28.6948 3.39808,1.699 -10.571648,28.8835 z"
       id="path6844"
       inkscape:connector-curvature="0" />
    <path
       style="fill:#c83737;stroke:none;stroke-width:2.13581562px;stroke-linecap:butt;stroke-linejoin:miter;stroke-opacity:1"
       d="m 65.355773,1064.8755 1.510235,-5.8523 13.214718,6.4185 -2.07665,3.5869 z"
       id="path6846"
       inkscape:connector-curvature="0" />
    <path
       style="fill:#483737;stroke:none;stroke-width:2.13581562px;stroke-linecap:butt;stroke-linejoin:miter;stroke-opacity:1"
       d="m 56.294148,1058.9288 3.586889,-3.5867 4.719512,-0.3776 3.775694,2.8317 0.28321,5.0971 -1.982251,4.6251 -5.757945,0.1879 -3.681078,-2.7364 z"
       id="path6848"
       inkscape:connector-curvature="0" />
    <path
       style="fill:#ac9393;stroke:none;stroke-width:2.13581562px;stroke-linecap:butt;stroke-linejoin:miter;stroke-opacity:1"
       d="m 60.91883,1026.7965 1.067908,8.6768 3.070235,-0.1325 1.201396,-8.4108 z"
       id="path6850"
       inkscape:connector-curvature="0" />
    <path
       style="fill:#ac9393;stroke:none;stroke-width:2.13581562px;stroke-linecap:butt;stroke-linejoin:miter;stroke-opacity:1"
       d="m 87.307686,1060.4356 9.61117,-1.0679 -0.26698,5.473 -9.61117,-1.4684 z"
       id="path6852"
       inkscape:connector-curvature="0" />
    <path
       style="fill:#ac9393;stroke:none;stroke-width:2.13581562px;stroke-linecap:butt;stroke-linejoin:miter;stroke-opacity:1"
       d="m 62.921157,1092.8733 1.067908,-7.6088 h 2.669769 l 1.201396,6.8079 z"
       id="path6854"
       inkscape:connector-curvature="0" />
    <path
       style="fill:#ac9393;stroke:none;stroke-width:2.13581562px;stroke-linecap:butt;stroke-linejoin:miter;stroke-opacity:1"
       d="m 35.155555,1058.4333 0.266977,4.5386 5.473027,-1.7354 -0.132421,-2.6697 z"
       id="path6856"
       inkscape:connector-curvature="0" />
    <path
       style="fill:#ac9393;stroke:none;stroke-width:2.13581562px;stroke-linecap:butt;stroke-linejoin:miter;stroke-opacity:1"
       d="m 21.272754,1076.9882 4.538608,-35.7749 16.285593,-24.8289 -1.958115,-5.6979 -19.977565,29.3292 z"
       id="path6875"
       inkscape:connector-curvature="0" />
    <path
       style="fill:#916f6f;stroke:none;stroke-width:2.13581562px;stroke-linecap:butt;stroke-linejoin:miter;stroke-opacity:1"
       d="m 42.096955,1016.3844 43.616771,-4.9427 -45.574886,-0.7552 z"
       id="path6877"
       inkscape:connector-curvature="0" />
    <path
       style="fill:#241c1c;stroke:none;stroke-width:2.13581562px;stroke-linecap:butt;stroke-linejoin:miter;stroke-opacity:1"
       d="m 38.359278,1106.3556 48.055848,-6.1404 4.27163,4.5386 z"
       id="path6879"
       inkscape:connector-curvature="0" />
    <path
       style="fill:#483737;stroke:none;stroke-width:2.13581562px;stroke-linecap:butt;stroke-linejoin:miter;stroke-opacity:1"
       d="m 86.415126,1100.2152 17.620474,-21.6252 5.87349,-38.4447 v 40.0466 l -19.222334,24.5619 z"
       id="path6881"
       inkscape:connector-curvature="0" />
  </g>
</svg>
