<?xml version="1.0" encoding="UTF-8" standalone="no"?>
<!-- Created with Inkscape (http://www.inkscape.org/) -->

<svg
   xmlns:osb="http://www.openswatchbook.org/uri/2009/osb"
   xmlns:dc="http://purl.org/dc/elements/1.1/"
   xmlns:cc="http://creativecommons.org/ns#"
   xmlns:rdf="http://www.w3.org/1999/02/22-rdf-syntax-ns#"
   xmlns:svg="http://www.w3.org/2000/svg"
   xmlns="http://www.w3.org/2000/svg"
   xmlns:xlink="http://www.w3.org/1999/xlink"
   xmlns:sodipodi="http://sodipodi.sourceforge.net/DTD/sodipodi-0.dtd"
   xmlns:inkscape="http://www.inkscape.org/namespaces/inkscape"
   version="1.1"
   id="svg2"
   width="170.66667"
   height="170.66667"
   viewBox="0 0 170.66667 170.66667"
   sodipodi:docname="mystery_unlock.svg"
   inkscape:version="0.92.4 (5da689c313, 2019-01-14)">
  <metadata
     id="metadata8">
    <rdf:RDF>
      <cc:Work
         rdf:about="">
        <dc:format>image/svg+xml</dc:format>
        <dc:type
           rdf:resource="http://purl.org/dc/dcmitype/StillImage" />
        <dc:title />
      </cc:Work>
    </rdf:RDF>
  </metadata>
  <defs
     id="defs6">
    <linearGradient
       id="linearGradient4629"
       osb:paint="solid">
      <stop
         style="stop-color:#f9ddcb;stop-opacity:1;"
         offset="0"
         id="stop4627" />
    </linearGradient>
    <linearGradient
       inkscape:collect="always"
       xlink:href="#linearGradient3581"
       id="linearGradient4221"
       gradientUnits="userSpaceOnUse"
       x1="413.96677"
       y1="-213.50293"
       x2="429.42285"
       y2="-213.50293"
       gradientTransform="matrix(2.6156567,0,0,2.6156556,-1072.3043,693.3389)" />
    <linearGradient
       inkscape:collect="always"
       id="linearGradient3581">
      <stop
         style="stop-color:#aa8800;stop-opacity:1;"
         offset="0"
         id="stop3577" />
      <stop
         style="stop-color:#aa8800;stop-opacity:0;"
         offset="1"
         id="stop3579" />
    </linearGradient>
    <linearGradient
       inkscape:collect="always"
       xlink:href="#linearGradient3575"
       id="linearGradient4223"
       gradientUnits="userSpaceOnUse"
       x1="413.96677"
       y1="-204.73222"
       x2="429.42285"
       y2="-204.73222"
       gradientTransform="matrix(2.6156567,0,0,2.6156556,-1072.3043,693.3389)" />
    <linearGradient
       id="linearGradient3575"
       inkscape:collect="always">
      <stop
         id="stop3571"
         offset="0"
         style="stop-color:#ffe680;stop-opacity:0" />
      <stop
         id="stop3573"
         offset="1"
         style="stop-color:#ffe680;stop-opacity:1" />
    </linearGradient>
  </defs>
  <sodipodi:namedview
     pagecolor="#ffffff"
     bordercolor="#666666"
     borderopacity="1"
     objecttolerance="10"
     gridtolerance="10"
     guidetolerance="10"
     inkscape:pageopacity="0"
     inkscape:pageshadow="2"
     inkscape:window-width="1366"
     inkscape:window-height="707"
     id="namedview4"
     showgrid="false"
     inkscape:zoom="3.9111842"
     inkscape:cx="86.924741"
     inkscape:cy="89.982534"
     inkscape:window-x="0"
     inkscape:window-y="29"
     inkscape:window-maximized="1"
     inkscape:current-layer="svg2" />
  <path
     style="fill:#000000;fill-rule:evenodd;stroke:#000000;stroke-width:1px;stroke-linecap:butt;stroke-linejoin:miter;stroke-opacity:1;fill-opacity:1"
     d="m 66.531075,12.666672 h 87.141245 c 15.58285,12.727909 3.75495,64.805508 -7.23164,69.361582 h -6.87005 L 135.23164,133.42373 99.073449,161.62712 11.20904,126.55368 10.124294,77.740115 53.514126,67.977403 Z"
     id="path4520"
     inkscape:connector-curvature="0"
     sodipodi:nodetypes="cccccccccc" />
  <path
     d="m 424.96875,-225.07422 a 1.3739729,1.3739729 0 0 0 -0.0781,0.004 l -7.06445,0.61133 a 1.3739729,1.3739729 0 0 0 -0.9375,0.49023 l -2.35547,2.83398 a 1.3739729,1.3739729 0 0 0 -0.31054,0.75391 l -0.40235,4.38672 h 0.14649 a 1.3739729,1.3739729 0 0 0 -1.37305,1.33398 l -0.28906,10.21875 a 1.3739729,1.3739729 0 0 0 1.29687,1.41016 l 16.49805,0.92773 a 1.3739729,1.3739729 0 0 0 1.44727,-1.46289 l -0.75391,-11.14648 a 1.3739729,1.3739729 0 0 0 -1.36719,-1.28125 h 0.25781 l -0.16015,-3.19531 a 1.3739729,1.3739729 0 0 0 -0.24024,-0.70899 l -3.14062,-4.58008 a 1.3739729,1.3739729 0 0 0 -1.17383,-0.5957 z m -2.42773,4.55664 2.05468,1.75977 0.19141,2.76367 h -6.07227 l -0.006,-2.17969 1.44336,-1.6582 z"
     id="path3749-3-6"
     style="fill:#000000;stroke:none;stroke-width:0.26458332px;stroke-linecap:butt;stroke-linejoin:miter;stroke-opacity:1"
     inkscape:original="M 425.00977 -223.70117 L 417.94531 -223.08984 L 415.58984 -220.25586 L 415.07422 -214.62109 L 413.9668 -214.62109 L 413.67773 -204.40234 L 430.17578 -203.47461 L 429.42188 -214.62109 L 428.37695 -214.62109 L 428.15039 -219.12109 L 425.00977 -223.70117 z M 422.87305 -222.04297 L 425.92578 -219.42578 L 426.25977 -214.62109 L 417.34375 -214.62109 L 417.33398 -218.68555 L 419.38281 -221.04102 L 422.87305 -222.04297 z "
     inkscape:radius="1.3738356"
     sodipodi:type="inkscape:offset"
     transform="matrix(2.6156567,0,0,2.6156556,-1072.3042,693.33889)" />
  <path
     sodipodi:nodetypes="ccccccccccccc"
     inkscape:connector-curvature="0"
     id="path3749-15"
     d="m 13.170198,134.30839 1.563667,-17.08109 6.160417,-7.41517 18.48097,-1.59713 8.213768,11.97838 0.717848,14.22895 -5.47585,0.22819 -1.060081,-15.25561 -7.98561,-6.84488 -9.1265,2.62384 -5.361674,6.16041 0.03356,12.74594 z"
     style="fill:#cccccc;stroke:none;stroke-width:0.69205898px;stroke-linecap:butt;stroke-linejoin:miter;stroke-opacity:1" />
  <path
     inkscape:connector-curvature="0"
     id="path3777-9"
     d="m 13.170103,134.30839 3.933159,-15.8559 -2.369397,-1.22519 z"
     style="fill:#f2f2f2;stroke:none;stroke-width:0.69205898px;stroke-linecap:butt;stroke-linejoin:miter;stroke-opacity:1" />
  <path
     inkscape:connector-curvature="0"
     id="path3787-49"
     d="m 47.58902,120.19338 -3.381676,19.87791 4.099524,-5.64896 z"
     style="fill:#4d4d4d;fill-opacity:1;stroke:none;stroke-width:0.69205898px;stroke-linecap:butt;stroke-linejoin:miter;stroke-opacity:1" />
  <path
     sodipodi:nodetypes="ccccc"
     inkscape:connector-curvature="0"
     id="rect7192-0"
     d="M 10.491001,131.96407 9.7331672,158.69225 52.888704,161.11736 50.91831,131.96407 Z"
     style="opacity:1;fill:#ffcc00;fill-opacity:1;stroke:none;stroke-width:6.41421938;stroke-linecap:round;stroke-linejoin:round;stroke-miterlimit:4;stroke-dasharray:none;stroke-opacity:1" />
  <path
     inkscape:connector-curvature="0"
     style="fill:url(#linearGradient4221);fill-opacity:1;stroke:none;stroke-width:0.69205898px;stroke-linecap:butt;stroke-linejoin:miter;stroke-opacity:1"
     d="m 50.918499,131.96369 -35.200042,5.85032 -5.227834,-5.85032 z"
     id="path7248-9" />
  <path
     sodipodi:nodetypes="cccc"
     inkscape:connector-curvature="0"
     style="fill:#aa8800;fill-opacity:1;stroke:none;stroke-width:0.69205898px;stroke-linecap:butt;stroke-linejoin:miter;stroke-opacity:1"
     d="M 15.718457,137.81401 9.7331672,158.69225 10.490623,131.96369 Z"
     id="path7250-1" />
  <path
     sodipodi:nodetypes="cccc"
     inkscape:connector-curvature="0"
     style="fill:url(#linearGradient4223);fill-opacity:1;stroke:none;stroke-width:0.69205898px;stroke-linecap:butt;stroke-linejoin:miter;stroke-opacity:1"
     d="m 9.7331672,158.69225 35.3769378,-3.84557 7.778599,6.27068 z"
     id="path7248-2-77" />
  <path
     sodipodi:nodetypes="cccc"
     inkscape:connector-curvature="0"
     style="fill:#ffe680;fill-opacity:1;stroke:none;stroke-width:0.69205898px;stroke-linecap:butt;stroke-linejoin:miter;stroke-opacity:1"
     d="m 45.110105,154.84668 5.808394,-22.88299 1.970205,29.15367 z"
     id="path7250-0-1" />
  <path
     inkscape:connector-curvature="0"
     id="path3779-15"
     d="m 17.103262,118.45249 3.79102,-8.64036 -6.160417,7.41517 z"
     style="fill:#f2f2f2;stroke:none;stroke-width:0.69205898px;stroke-linecap:butt;stroke-linejoin:miter;stroke-opacity:1" />
  <path
     inkscape:connector-curvature="0"
     id="path3789-9"
     d="m 24.658921,115.17387 0.375608,-2.19853 8.750798,-0.42531 z"
     style="fill:#4d4d4d;fill-opacity:1;stroke:none;stroke-width:0.69205898px;stroke-linecap:butt;stroke-linejoin:miter;stroke-opacity:1" />
  <path
     style="fill:#fff9f6;fill-opacity:1;stroke:none;stroke-width:1.15115106px;stroke-linecap:butt;stroke-linejoin:miter;stroke-opacity:1"
     d="m 77.24787,54.689896 12.32433,0.07673 0.71675,-8.490627 9.89647,-0.308395 11.91474,5.467361 -0.68854,5.067948 -11.70779,5.87158 -6.04961,8.992097 0.44506,9.252937 13.74707,-0.418764 -0.11664,-7.024539 3.50374,-7.252562 10.6472,-6.716986 0.50891,-8.93675 -4.03669,-10.45657 -20.24385,-7.07092 -18.56554,3.670134 z"
     id="path938"
     inkscape:connector-curvature="0"
     sodipodi:nodetypes="cccccccccccccccccc" />
  <path
     style="fill:#fff9f6;fill-opacity:1;stroke:none;stroke-width:1.15115106px;stroke-linecap:butt;stroke-linejoin:miter;stroke-opacity:1"
     d="m 93.427914,85.549752 14.015216,0.944085 0.93424,9.253393 -14.772996,-0.20607 z"
     id="path940"
     inkscape:connector-curvature="0"
     sodipodi:nodetypes="ccccc" />
</svg>
