<?xml version="1.0" encoding="UTF-8" standalone="no"?>
<!-- Created with Inkscape (http://www.inkscape.org/) -->

<svg
   xmlns:dc="http://purl.org/dc/elements/1.1/"
   xmlns:cc="http://creativecommons.org/ns#"
   xmlns:rdf="http://www.w3.org/1999/02/22-rdf-syntax-ns#"
   xmlns:svg="http://www.w3.org/2000/svg"
   xmlns="http://www.w3.org/2000/svg"
   xmlns:sodipodi="http://sodipodi.sourceforge.net/DTD/sodipodi-0.dtd"
   xmlns:inkscape="http://www.inkscape.org/namespaces/inkscape"
   width="128"
   height="128"
   viewBox="0 0 128 128.00001"
   version="1.1"
   id="svg6294"
   inkscape:version="0.92.4 (5da689c313, 2019-01-14)"
   sodipodi:docname="nitro.svg">
  <defs
     id="defs6288" />
  <sodipodi:namedview
     id="base"
     pagecolor="#ffffff"
     bordercolor="#666666"
     borderopacity="1.0"
     inkscape:pageopacity="0.0"
     inkscape:pageshadow="2"
     inkscape:zoom="2.9006348"
     inkscape:cx="69.294361"
     inkscape:cy="69.412001"
     inkscape:document-units="px"
     inkscape:current-layer="layer1"
     showgrid="false"
     units="px"
     inkscape:window-width="1366"
     inkscape:window-height="707"
     inkscape:window-x="0"
     inkscape:window-y="29"
     inkscape:window-maximized="1" />
  <metadata
     id="metadata6291">
    <rdf:RDF>
      <cc:Work
         rdf:about="">
        <dc:format>image/svg+xml</dc:format>
        <dc:type
           rdf:resource="http://purl.org/dc/dcmitype/StillImage" />
        <dc:title />
      </cc:Work>
    </rdf:RDF>
  </metadata>
  <g
     inkscape:label="Layer 1"
     inkscape:groupmode="layer"
     id="layer1"
     transform="translate(0,-994.51965)">
    <path
       transform="matrix(1.5705938,0,0,1.5705938,-3071.626,-637.66115)"
       sodipodi:type="inkscape:offset"
       inkscape:radius="3.300112"
       inkscape:original="M 2010.8262 1048.8789 L 2009.4238 1051.0293 L 2013.9141 1054.0234 L 2010.0488 1059.1523 L 2007.4121 1057.7188 L 2002.2637 1058.1758 L 1993.2852 1062.1172 L 1972.3281 1090.7441 L 1971.7441 1099.502 L 1975.6758 1106.4844 L 1984.7988 1111.043 L 1994.9648 1110.0488 L 2004.6992 1103.2812 L 2020.8848 1077.3672 L 2020.4902 1070.1582 L 2017.4512 1063.1758 L 2014.4121 1061.5234 L 2017.8438 1056.9238 L 2022.8945 1059.6836 L 2024.3926 1057.8125 L 2010.8262 1048.8789 z "
       style="fill:#000000;stroke:none;stroke-width:1.05846429px;stroke-linecap:butt;stroke-linejoin:miter;stroke-opacity:1"
       id="path4386-9"
       d="m 2010.7676,1045.5801 a 3.300442,3.300442 0 0 0 -2.7051,1.4961 l -1.4023,2.1504 a 3.300442,3.300442 0 0 0 0.9336,4.5488 l 1.58,1.0547 -0.049,0.064 -0.1367,-0.074 a 3.300442,3.300442 0 0 0 -1.8672,-0.3887 l -5.1484,0.4571 a 3.300442,3.300442 0 0 0 -1.0352,0.2656 l -8.9785,3.9414 a 3.300442,3.300442 0 0 0 -1.336,1.0723 l -20.957,28.6269 a 3.300442,3.300442 0 0 0 -0.6308,1.7305 l -0.584,8.7578 a 3.300442,3.300442 0 0 0 0.4179,1.8379 l 3.9317,6.9824 a 3.300442,3.300442 0 0 0 1.4004,1.332 l 9.123,4.5586 a 3.300442,3.300442 0 0 0 1.7949,0.334 l 10.1661,-0.9941 a 3.300442,3.300442 0 0 0 1.5625,-0.5762 l 9.7343,-6.7676 a 3.300442,3.300442 0 0 0 0.916,-0.9609 l 16.1856,-25.9141 a 3.300442,3.300442 0 0 0 0.4961,-1.9277 l -0.3945,-7.209 a 3.300442,3.300442 0 0 0 -0.2696,-1.1367 l -2.8886,-6.6367 0.6855,0.375 a 3.300442,3.300442 0 0 0 4.1582,-0.834 l 1.4981,-1.8711 a 3.300442,3.300442 0 0 0 -0.7618,-4.8184 l -13.5664,-8.9336 a 3.300442,3.300442 0 0 0 -1.873,-0.5429 z" />
    <path
       style="fill:#3778c8;stroke:none;stroke-width:1.66241741px;stroke-linecap:butt;stroke-linejoin:miter;stroke-opacity:1;fill-opacity:1"
       d="m 84.214119,1027.3332 7.20007,-9.5509 -7.05322,-4.7023 2.20417,-3.3796 21.305891,14.0329 -2.35102,2.9388 -7.934481,-4.3348 -6.46535,8.6694 z"
       id="path4386"
       inkscape:connector-curvature="0"
       sodipodi:nodetypes="ccccccccc" />
    <path
       style="fill:#87a7de;stroke:none;stroke-width:1.66241741px;stroke-linecap:butt;stroke-linejoin:miter;stroke-opacity:1;fill-opacity:1"
       d="m 84.214119,1027.3332 7.64188,-7.3282 -0.44181,-2.2227 z"
       id="path4412"
       inkscape:connector-curvature="0" />
    <path
       style="fill:#2c89a0;stroke:none;stroke-width:1.66241741px;stroke-linecap:butt;stroke-linejoin:miter;stroke-opacity:1"
       d="m 97.585529,1022.3373 -5.72953,5.2006 -0.73582,3.4688 z"
       id="path4410"
       inkscape:connector-curvature="0" />
    <path
       style="fill:#2c60a0;stroke:none;stroke-width:1.66241741px;stroke-linecap:butt;stroke-linejoin:miter;stroke-opacity:1;fill-opacity:1"
       d="m 26.099948,1075.4557 32.914149,-44.9632 14.103147,-6.1893 8.084632,-0.717 15.768763,8.5703 4.771931,10.967 0.61835,11.3199 -25.42038,40.7021 -15.287217,10.628 -15.967285,1.5632 -14.327899,-7.162 -6.175261,-10.9661 z"
       id="path4384"
       inkscape:connector-curvature="0"
       sodipodi:nodetypes="ccccccccccccc" />
    <path
       style="fill:#87cdde;stroke:none;stroke-width:2.00631952px;stroke-linecap:butt;stroke-linejoin:miter;stroke-opacity:1"
       d="m 82.446099,1039.1968 -13.452606,14.9259 -2.181084,-4.7258 -2.906698,4.719 -3.426407,-6.353 -2.041615,10.3577 -4.340493,1.9571 -10.136455,13.4814 0.258676,8.5098 8.383987,5.996 10.855473,-1.3003 11.231474,-14.7736 0.549079,-3.716 7.757009,-5.425 -6.588016,-0.9874 3.953028,-3.9876 -6.238713,-0.869 z m -19.307466,23.8026 4.781673,2.6419 1.634988,4.9382 -7.686486,11.8395 -7.391842,1.1834 -4.934963,-4.2092 0.422961,-6.4254 7.294308,-9.5408 z"
       id="path4388"
       inkscape:connector-curvature="0"
       sodipodi:nodetypes="ccccccccccccccccccccccccccc" />
    <path
       style="fill:#377dc8;stroke:none;stroke-width:1.66241741px;stroke-linecap:butt;stroke-linejoin:miter;stroke-opacity:1;fill-opacity:1"
       d="m 26.099948,1075.4557 36.13528,-40.5434 -3.221131,-4.4198 z"
       id="path4394"
       inkscape:connector-curvature="0"
       sodipodi:nodetypes="cccc" />
    <path
       style="fill:#6f9fdd;stroke:none;stroke-width:1.66241741px;stroke-linecap:butt;stroke-linejoin:miter;stroke-opacity:1;fill-opacity:1"
       d="m 62.235228,1034.9123 12.686628,-6.0278 6.106312,0.1896 15.942471,3.0822 -15.768763,-8.5702 -8.084632,0.717 -14.103147,6.1892 z"
       id="path4396"
       inkscape:connector-curvature="0"
       sodipodi:nodetypes="cccccccc" />
    <path
       style="fill:#163150;stroke:none;stroke-width:1.66241741px;stroke-linecap:butt;stroke-linejoin:miter;stroke-opacity:1;fill-opacity:1"
       d="m 61.653323,1105.7735 -15.967285,1.5632 -14.327899,-7.162 14.327899,1.8869 15.550763,-1.7022 11.585014,-9.3191 4.118725,4.1052 z"
       id="path4398"
       inkscape:connector-curvature="0"
       sodipodi:nodetypes="cccccccc" />
    <path
       style="fill:#214878;stroke:none;stroke-width:1.66241741px;stroke-linecap:butt;stroke-linejoin:miter;stroke-opacity:1;fill-opacity:1"
       d="m 72.821815,1091.0403 29.539105,-36.5969 -25.42038,40.7021 z"
       id="path4400"
       inkscape:connector-curvature="0"
       sodipodi:nodetypes="cccc" />
    <path
       style="fill:#87abde;stroke:none;stroke-width:1.66241741px;stroke-linecap:butt;stroke-linejoin:miter;stroke-opacity:1;fill-opacity:1"
       d="m 84.360969,1013.08 2.66357,-1.1795 -0.4594,-2.2001 z"
       id="path4402"
       inkscape:connector-curvature="0" />
    <path
       style="fill:#87aade;stroke:none;stroke-width:1.66241741px;stroke-linecap:butt;stroke-linejoin:miter;stroke-opacity:1;fill-opacity:1"
       d="m 87.024539,1011.9005 20.846491,11.8328 -21.305891,-14.0329 0.4594,2.2001"
       id="path4404"
       inkscape:connector-curvature="0" />
    <path
       style="fill:#2c58a0;stroke:none;stroke-width:1.66241741px;stroke-linecap:butt;stroke-linejoin:miter;stroke-opacity:1;fill-opacity:1"
       d="m 97.585529,1022.3373 6.946421,2.3953 0.98806,1.9395 z"
       id="path4406"
       inkscape:connector-curvature="0" />
    <path
       style="fill:#2c56a0;stroke:none;stroke-width:1.66241741px;stroke-linecap:butt;stroke-linejoin:miter;stroke-opacity:1;fill-opacity:1"
       d="m 104.53195,1024.7326 3.33908,-0.9993 -2.35102,2.9388 z"
       id="path4408"
       inkscape:connector-curvature="0" />
  </g>
</svg>
