<?xml version="1.0" encoding="UTF-8" standalone="no"?>
<!-- Created with Inkscape (http://www.inkscape.org/) -->

<svg
   xmlns:dc="http://purl.org/dc/elements/1.1/"
   xmlns:cc="http://creativecommons.org/ns#"
   xmlns:rdf="http://www.w3.org/1999/02/22-rdf-syntax-ns#"
   xmlns:svg="http://www.w3.org/2000/svg"
   xmlns="http://www.w3.org/2000/svg"
   xmlns:sodipodi="http://sodipodi.sourceforge.net/DTD/sodipodi-0.dtd"
   xmlns:inkscape="http://www.inkscape.org/namespaces/inkscape"
   width="128"
   height="128"
   viewBox="0 0 128 128.00001"
   version="1.1"
   id="svg6294"
   inkscape:version="0.92.4 (5da689c313, 2019-01-14)"
   sodipodi:docname="no-package-featured.svg">
  <defs
     id="defs6288" />
  <sodipodi:namedview
     id="base"
     pagecolor="#ffffff"
     bordercolor="#666666"
     borderopacity="1.0"
     inkscape:pageopacity="0.0"
     inkscape:pageshadow="2"
     inkscape:zoom="2.4737607"
     inkscape:cx="61.000782"
     inkscape:cy="69.068966"
     inkscape:document-units="px"
     inkscape:current-layer="layer1"
     showgrid="false"
     units="px"
     inkscape:window-width="1366"
     inkscape:window-height="707"
     inkscape:window-x="0"
     inkscape:window-y="29"
     inkscape:window-maximized="1" />
  <metadata
     id="metadata6291">
    <rdf:RDF>
      <cc:Work
         rdf:about="">
        <dc:format>image/svg+xml</dc:format>
        <dc:type
           rdf:resource="http://purl.org/dc/dcmitype/StillImage" />
        <dc:title />
      </cc:Work>
    </rdf:RDF>
  </metadata>
  <g
     inkscape:label="Layer 1"
     inkscape:groupmode="layer"
     id="layer1"
     transform="translate(0,-994.51965)">
    <path
       sodipodi:type="inkscape:offset"
       inkscape:radius="1.2851087"
       inkscape:original="M 989.45117 963.0918 L 985.73047 963.24414 L 983.82031 964.70117 L 983.61914 967.41602 L 984.85352 969.66602 L 984.58203 972.07617 L 978.27734 972.71094 L 978.87109 978.74805 L 976.56641 978.64453 L 975.5293 977.60742 L 972.77344 977.51562 L 970.37109 979.23633 L 970.32617 981.76562 L 971.99414 984.76953 L 975.18555 984.91992 L 977.25977 983.50195 L 978.87891 983.57227 L 978.18555 990.64062 L 996.66992 990.42578 L 997.49219 983.34766 L 995.71289 983.33203 L 993.85938 984.55469 L 991.69336 984.45312 L 989.98047 982.7207 L 990.07422 979.95117 L 991.73828 978.375 L 994.57031 978.31641 L 996.21289 979.29688 L 997.56836 979.21484 L 997.09961 973.5625 L 989.95117 972.36133 L 989.87109 970.20117 L 991.05859 967.81836 L 991.00781 964.75195 L 989.45117 963.0918 z "
       style="fill:#000000;stroke:none;stroke-width:1px;stroke-linecap:butt;stroke-linejoin:miter;stroke-opacity:1"
       id="path5269-7-4-6"
       d="m 989.47266,961.80664 a 1.2852372,1.2852372 0 0 0 -0.0742,0.002 l -3.72071,0.15235 a 1.2852372,1.2852372 0 0 0 -0.72656,0.26172 l -1.91015,1.45703 a 1.2852372,1.2852372 0 0 0 -0.50196,0.92578 l -0.20117,2.71484 a 1.2852372,1.2852372 0 0 0 0.1543,0.71289 l 1.03906,1.89453 -0.10937,0.97461 -5.27344,0.5293 a 1.2852372,1.2852372 0 0 0 -1.15039,1.4043 l 0.44922,4.5625 -0.32422,-0.0156 -0.68555,-0.68359 a 1.2852372,1.2852372 0 0 0 -0.86523,-0.37695 l -2.75586,-0.0918 a 1.2852372,1.2852372 0 0 0 -0.79102,0.24023 l -2.40234,1.72071 a 1.2852372,1.2852372 0 0 0 -0.53711,1.02148 l -0.0449,2.5293 a 1.2852372,1.2852372 0 0 0 0.1621,0.64648 l 1.66797,3.00391 a 1.2852372,1.2852372 0 0 0 1.0625,0.66015 l 3.19141,0.15039 a 1.2852372,1.2852372 0 0 0 0.78516,-0.22265 l 1.54492,-1.05469 -0.54883,5.58984 a 1.2852372,1.2852372 0 0 0 1.29492,1.41016 l 18.48438,-0.21484 a 1.2852372,1.2852372 0 0 0 1.26172,-1.13672 l 0.82226,-7.07813 a 1.2852372,1.2852372 0 0 0 -1.26562,-1.43359 l -1.7793,-0.0156 a 1.2852372,1.2852372 0 0 0 -0.71875,0.21289 l -1.50391,0.99218 -1.24804,-0.0586 -0.97071,-0.98242 0.0566,-1.68946 0.92188,-0.87109 1.9668,-0.041 1.32617,0.79101 a 1.2852372,1.2852372 0 0 0 0.73633,0.17969 l 1.35546,-0.082 a 1.2852372,1.2852372 0 0 0 1.20313,-1.38867 l -0.46875,-5.65235 a 1.2852372,1.2852372 0 0 0 -1.06836,-1.16211 l -6.11523,-1.02734 -0.0293,-0.78711 1.04101,-2.08985 a 1.2852372,1.2852372 0 0 0 0.13477,-0.59374 l -0.0508,-3.06641 a 1.2852372,1.2852372 0 0 0 -0.34766,-0.85742 l -1.55664,-1.66016 a 1.2852372,1.2852372 0 0 0 -0.91601,-0.40625 z"
       transform="matrix(3.5857423,0,0,3.5857423,-3464.7307,-2444.2714)" />
    <path
       style="fill:#b3b3b3;stroke:none;stroke-width:3.58574247px;stroke-linecap:butt;stroke-linejoin:miter;stroke-opacity:1;fill-opacity:1"
       d="m 45.248209,1065.2687 -2.129407,-21.6466 22.60792,-2.2764 0.975845,-8.645 -4.429558,-8.0679 0.721153,-9.7341 6.849771,-5.2277 13.339195,-0.5407 5.588038,5.9486 0.180407,10.9958 -4.256911,8.547 0.285743,7.7437 25.630485,4.308 1.6791,20.2693 -4.8569,0.291 -5.89404,-3.5126 -10.15333,0.2113 -5.968795,5.6522 -0.329606,9.9292 6.136381,6.2109 7.766202,0.3606 6.646078,-4.3829 6.38586,0.062 -2.95352,25.3796 -66.280397,0.7644 2.489905,-25.3405 -5.804075,-0.255 -7.441835,5.0858 -11.443424,-0.5407 -5.981631,-10.7714 0.164885,-9.0718 8.610919,-6.1645 9.882957,0.3295 3.718224,3.7182 z"
       id="path5269-25-2"
       inkscape:connector-curvature="0"
       sodipodi:nodetypes="ccccccccccccccccccccccccccccccccccc" />
    <path
       style="fill:#e5e5e5;stroke:none;stroke-width:3.58574247px;stroke-linecap:butt;stroke-linejoin:miter;stroke-opacity:1;fill-opacity:1"
       d="m 62.273009,1024.6328 4.639902,-7.2385 4.686627,-3.3347 -1.755605,-4.3886 -6.849771,5.2277 z"
       id="path5291-86-7"
       inkscape:connector-curvature="0" />
    <path
       style="fill:#cccccc;stroke:none;stroke-width:3.58574247px;stroke-linecap:butt;stroke-linejoin:miter;stroke-opacity:1;fill-opacity:1"
       d="m 71.599538,1014.0596 11.58359,-4.9293 -13.339195,0.5407 z"
       id="path5293-2-6"
       inkscape:connector-curvature="0" />
    <path
       style="fill:#666666;stroke:none;stroke-width:3.58574247px;stroke-linecap:butt;stroke-linejoin:miter;stroke-opacity:1;fill-opacity:1"
       d="m 88.771166,1015.0789 -4.558017,9.4691 4.738424,1.527 z"
       id="path5295-84-1"
       inkscape:connector-curvature="0" />
    <path
       style="fill:#808080;fill-opacity:1;stroke:none;stroke-width:3.58574247px;stroke-linecap:butt;stroke-linejoin:miter;stroke-opacity:1"
       d="m 84.213149,1024.548 -4.078871,8.4763 4.846127,9.3411 -0.285743,-7.7437 4.256911,-8.5467 z"
       id="path5297-7-3"
       inkscape:connector-curvature="0" />
    <path
       style="fill:#e5e5e5;stroke:none;stroke-width:3.58574247px;stroke-linecap:butt;stroke-linejoin:miter;stroke-opacity:1;fill-opacity:1"
       d="m 45.248209,1065.2687 2.376814,-16.0586 -4.506221,-5.588 z"
       id="path5299-24-2"
       inkscape:connector-curvature="0" />
    <path
       style="fill:#cccccc;stroke:none;stroke-width:3.58574247px;stroke-linecap:butt;stroke-linejoin:miter;stroke-opacity:1;fill-opacity:1"
       d="m 47.625023,1049.2101 18.101699,-7.8644 -22.60792,2.2764 z"
       id="path5301-0-1"
       inkscape:connector-curvature="0" />
    <path
       style="fill:#666666;stroke:none;stroke-width:3.58574247px;stroke-linecap:butt;stroke-linejoin:miter;stroke-opacity:1;fill-opacity:1"
       d="m 112.02184,1081.7645 -8.81684,18.6239 5.86332,6.7557 z"
       id="path5303-6-5"
       inkscape:connector-curvature="0" />
    <path
       style="fill:#808080;stroke:none;stroke-width:3.58574247px;stroke-linecap:butt;stroke-linejoin:miter;stroke-opacity:1;fill-opacity:1"
       d="m 103.205,1100.3884 -60.417077,7.5203 66.280397,-0.7646 z"
       id="path5305-2-9"
       inkscape:connector-curvature="0" />
    <path
       style="fill:#808080;stroke:none;stroke-width:3.58574247px;stroke-linecap:butt;stroke-linejoin:miter;stroke-opacity:1;fill-opacity:1"
       d="m 107.43309,1067.2337 3.1778,-20.5603 1.6791,20.2693 z"
       id="path5307-99-9"
       inkscape:connector-curvature="0" />
    <path
       style="fill:#e5e5e5;stroke:none;stroke-width:3.58574247px;stroke-linecap:butt;stroke-linejoin:miter;stroke-opacity:1;fill-opacity:1"
       d="m 110.61089,1046.6734 -26.573392,0.9143 0.942907,-5.2223 z"
       id="path5309-0-1"
       inkscape:connector-curvature="0" />
    <path
       style="fill:#cccccc;stroke:none;stroke-width:3.58574247px;stroke-linecap:butt;stroke-linejoin:miter;stroke-opacity:1;fill-opacity:1"
       d="m 42.787923,1107.9087 8.62264,-26.0717 -6.132735,0.731 z"
       id="path5311-8-4"
       inkscape:connector-curvature="0" />
    <path
       style="fill:#666666;stroke:none;stroke-width:3.58574247px;stroke-linecap:butt;stroke-linejoin:miter;stroke-opacity:1;fill-opacity:1"
       d="m 45.277828,1082.568 -6.936094,-4.5163 -7.210427,4.6868 0.900611,4.6603 7.441835,-5.0859 z"
       id="path5313-13-9"
       inkscape:connector-curvature="0" />
    <path
       style="fill:#7f807f;stroke:none;stroke-width:3.58574247px;stroke-linecap:butt;stroke-linejoin:miter;stroke-opacity:1;fill-opacity:1"
       d="m 31.131307,1082.7385 -10.542813,4.1195 11.443424,0.5408 z"
       id="path5315-11-1"
       inkscape:connector-curvature="0" />
    <path
       style="fill:#e5e5e5;stroke:none;stroke-width:3.58574247px;stroke-linecap:butt;stroke-linejoin:miter;stroke-opacity:1;fill-opacity:1"
       d="m 14.606863,1076.0866 3.726145,-7.5887 6.39915,-3.6052 -1.349491,-4.0424 -8.610919,6.1646 z"
       id="path5317-0-0"
       inkscape:connector-curvature="0" />
    <path
       style="fill:#d4d6d3;stroke:none;stroke-width:3.58574247px;stroke-linecap:butt;stroke-linejoin:miter;stroke-opacity:1;fill-opacity:1"
       d="m 24.732158,1064.8927 8.533466,-3.7129 -9.882957,-0.3295 z"
       id="path5319-34-7"
       inkscape:connector-curvature="0" />
    <path
       style="fill:#e5e5e5;stroke:none;stroke-width:3.58574247px;stroke-linecap:butt;stroke-linejoin:miter;stroke-opacity:1;fill-opacity:1"
       d="m 112.02184,1081.7645 -5.37531,3.201 -5.60848,4.6523 -2.048148,-3.5325 6.646078,-4.3829 z"
       id="path5321-0-5"
       inkscape:connector-curvature="0" />
    <path
       style="fill:#cccccc;stroke:none;stroke-width:3.58574247px;stroke-linecap:butt;stroke-linejoin:miter;stroke-opacity:1;fill-opacity:1"
       d="m 101.03805,1089.6178 -9.81435,-3.8931 7.766202,0.3606 z"
       id="path5323-3-8"
       inkscape:connector-curvature="0" />
    <path
       style="fill:#808080;stroke:none;stroke-width:3.58574247px;stroke-linecap:butt;stroke-linejoin:miter;stroke-opacity:1;fill-opacity:1"
       d="m 85.087319,1079.5138 -3.041114,-12.2656 6.628029,-6.8831 2.711486,3.5673 -5.968795,5.6522 z"
       id="path5325-9-7"
       inkscape:connector-curvature="0" />
    <path
       transform="matrix(0.84864558,0,0,0.84864558,-1447.2184,174.6351)"
       sodipodi:type="inkscape:offset"
       inkscape:radius="3.4821992"
       inkscape:original="M 1815.25 1056.7695 L 1799.6406 1057.2578 L 1792.6289 1074.043 L 1799.3418 1092.5762 L 1822.5 1113.0195 L 1846.0117 1092.3984 L 1853.0781 1072.9824 L 1845.3594 1057.2578 L 1829.75 1056.7695 L 1822.5 1065.7695 L 1815.25 1056.7695 z "
       style="fill:#000000;stroke:none;stroke-width:1px;stroke-linecap:butt;stroke-linejoin:miter;stroke-opacity:1"
       id="path4272-0-1-9"
       d="m 1815.2246,1053.2871 a 3.4825474,3.4825474 0 0 0 -0.084,0 l -15.6094,0.4882 a 3.4825474,3.4825474 0 0 0 -3.1035,2.1387 l -7.0117,16.7852 a 3.4825474,3.4825474 0 0 0 -0.061,2.5273 l 6.7129,18.5332 a 3.4825474,3.4825474 0 0 0 0.9687,1.4258 l 23.1582,20.4434 a 3.4825474,3.4825474 0 0 0 4.6016,0.01 l 23.5117,-20.6211 a 3.4825474,3.4825474 0 0 0 0.9746,-1.4258 l 7.0664,-19.416 a 3.4825474,3.4825474 0 0 0 -0.1465,-2.7265 l -7.7187,-15.7246 a 3.4825474,3.4825474 0 0 0 -3.0156,-1.9454 l -15.6094,-0.4882 a 3.4825474,3.4825474 0 0 0 -2.8203,1.2968 l -4.5391,5.6348 -4.5391,-5.6348 a 3.4825474,3.4825474 0 0 0 -2.7363,-1.2988 z" />
    <path
       style="fill:#666666;stroke:none;stroke-width:3.58574247px;stroke-linecap:butt;stroke-linejoin:miter;stroke-opacity:1;fill-opacity:1"
       d="m 88.674234,1060.3651 12.864816,3.356 -10.15333,0.2113 z"
       id="path5327-1-0"
       inkscape:connector-curvature="0" />
    <path
       style="fill:#c83737;stroke:none;stroke-width:0.84864563px;stroke-linecap:butt;stroke-linejoin:miter;stroke-opacity:1"
       d="m 80.0394,1071.8717 -5.95122,14.2451 5.69636,15.7275 19.65377,17.3501 19.95393,-17.5001 5.99636,-16.4777 -6.5512,-13.3449 -13.24624,-0.4137 -6.15285,7.6379 -6.15268,-7.6379 z"
       id="path4272-05-7"
       inkscape:connector-curvature="0"
       sodipodi:nodetypes="ccccccccccc" />
    <path
       style="fill:#de8787;stroke:none;stroke-width:0.84864563px;stroke-linecap:butt;stroke-linejoin:miter;stroke-opacity:1"
       d="m 74.088177,1086.1168 5.696365,15.7275 -1.30245,-15.5086 3.911306,-10.3861 -2.354002,-4.0779 z"
       id="path4292-1-2"
       inkscape:connector-curvature="0"
       sodipodi:nodetypes="cccccc" />
    <path
       style="fill:#d35f5f;stroke:none;stroke-width:0.84864563px;stroke-linecap:butt;stroke-linejoin:miter;stroke-opacity:1"
       d="m 82.393398,1075.9496 10.892228,-4.4916 -13.24623,0.4137 z"
       id="path4294-1-8"
       inkscape:connector-curvature="0" />
    <path
       style="fill:#de8787;stroke:none;stroke-width:0.84864563px;stroke-linecap:butt;stroke-linejoin:miter;stroke-opacity:1"
       d="m 99.438312,1079.0959 7.858568,-4.3468 -1.70572,-3.2911 z"
       id="path4296-0-2"
       inkscape:connector-curvature="0" />
    <path
       style="fill:#d35f5f;stroke:none;stroke-width:0.84864563px;stroke-linecap:butt;stroke-linejoin:miter;stroke-opacity:1"
       d="m 107.29688,1074.7491 11.54052,-2.8774 -13.24624,-0.4137 z"
       id="path4298-8-9"
       inkscape:connector-curvature="0" />
    <path
       style="fill:#782121;stroke:none;stroke-width:0.84864563px;stroke-linecap:butt;stroke-linejoin:miter;stroke-opacity:1"
       d="m 79.784542,1101.8443 19.561276,12.0604 0.09183,5.2897 z"
       id="path4300-5-9"
       inkscape:connector-curvature="0" />
    <path
       style="fill:#a02c2c;stroke:none;stroke-width:0.84864563px;stroke-linecap:butt;stroke-linejoin:miter;stroke-opacity:1"
       d="m 99.345818,1113.9047 20.046422,-12.2104 -19.953928,17.5001 z"
       id="path4302-0-6"
       inkscape:connector-curvature="0" />
    <path
       style="fill:#a02c2c;stroke:none;stroke-width:0.84864563px;stroke-linecap:butt;stroke-linejoin:miter;stroke-opacity:1"
       d="m 119.39224,1101.6943 0.65637,-14.7933 5.33999,-1.6844 z"
       id="path4304-6-0"
       inkscape:connector-curvature="0" />
  </g>
</svg>
