<?xml version="1.0" encoding="UTF-8" standalone="no"?>
<!-- Created with Inkscape (http://www.inkscape.org/) -->

<svg
   xmlns:dc="http://purl.org/dc/elements/1.1/"
   xmlns:cc="http://creativecommons.org/ns#"
   xmlns:rdf="http://www.w3.org/1999/02/22-rdf-syntax-ns#"
   xmlns:svg="http://www.w3.org/2000/svg"
   xmlns="http://www.w3.org/2000/svg"
   xmlns:sodipodi="http://sodipodi.sourceforge.net/DTD/sodipodi-0.dtd"
   xmlns:inkscape="http://www.inkscape.org/namespaces/inkscape"
   width="128"
   height="128"
   viewBox="0 0 128 128.00001"
   version="1.1"
   id="svg6294"
   inkscape:version="0.92.4 (5da689c313, 2019-01-14)"
   sodipodi:docname="no-package.svg">
  <defs
     id="defs6288" />
  <sodipodi:namedview
     id="base"
     pagecolor="#ffffff"
     bordercolor="#666666"
     borderopacity="1.0"
     inkscape:pageopacity="0.0"
     inkscape:pageshadow="2"
     inkscape:zoom="2.1832557"
     inkscape:cx="33.301711"
     inkscape:cy="73.761248"
     inkscape:document-units="px"
     inkscape:current-layer="layer1"
     showgrid="false"
     units="px"
     inkscape:window-width="1366"
     inkscape:window-height="707"
     inkscape:window-x="0"
     inkscape:window-y="29"
     inkscape:window-maximized="1" />
  <metadata
     id="metadata6291">
    <rdf:RDF>
      <cc:Work
         rdf:about="">
        <dc:format>image/svg+xml</dc:format>
        <dc:type
           rdf:resource="http://purl.org/dc/dcmitype/StillImage" />
        <dc:title />
      </cc:Work>
    </rdf:RDF>
  </metadata>
  <g
     inkscape:label="Layer 1"
     inkscape:groupmode="layer"
     id="layer1"
     transform="translate(0,-994.51965)">
    <path
       sodipodi:type="inkscape:offset"
       inkscape:radius="1.2851087"
       inkscape:original="M 989.45117 963.0918 L 985.73047 963.24414 L 983.82031 964.70117 L 983.61914 967.41602 L 984.85352 969.66602 L 984.58203 972.07617 L 978.27734 972.71094 L 978.87109 978.74805 L 976.56641 978.64453 L 975.5293 977.60742 L 972.77344 977.51562 L 970.37109 979.23633 L 970.32617 981.76562 L 971.99414 984.76953 L 975.18555 984.91992 L 977.25977 983.50195 L 978.87891 983.57227 L 978.18555 990.64062 L 996.66992 990.42578 L 997.49219 983.34766 L 995.71289 983.33203 L 993.85938 984.55469 L 991.69336 984.45312 L 989.98047 982.7207 L 990.07422 979.95117 L 991.73828 978.375 L 994.57031 978.31641 L 996.21289 979.29688 L 997.56836 979.21484 L 997.09961 973.5625 L 989.95117 972.36133 L 989.87109 970.20117 L 991.05859 967.81836 L 991.00781 964.75195 L 989.45117 963.0918 z "
       style="fill:#000000;stroke:none;stroke-width:1px;stroke-linecap:butt;stroke-linejoin:miter;stroke-opacity:1"
       id="path5269-7-46"
       d="m 989.47266,961.80664 a 1.2852372,1.2852372 0 0 0 -0.0742,0.002 l -3.72071,0.15235 a 1.2852372,1.2852372 0 0 0 -0.72656,0.26172 l -1.91015,1.45703 a 1.2852372,1.2852372 0 0 0 -0.50196,0.92578 l -0.20117,2.71484 a 1.2852372,1.2852372 0 0 0 0.1543,0.71289 l 1.03906,1.89453 -0.10937,0.97461 -5.27344,0.5293 a 1.2852372,1.2852372 0 0 0 -1.15039,1.4043 l 0.44922,4.5625 -0.32422,-0.0156 -0.68555,-0.68359 a 1.2852372,1.2852372 0 0 0 -0.86523,-0.37695 l -2.75586,-0.0918 a 1.2852372,1.2852372 0 0 0 -0.79102,0.24023 l -2.40234,1.72071 a 1.2852372,1.2852372 0 0 0 -0.53711,1.02148 l -0.0449,2.5293 a 1.2852372,1.2852372 0 0 0 0.1621,0.64648 l 1.66797,3.00391 a 1.2852372,1.2852372 0 0 0 1.0625,0.66015 l 3.19141,0.15039 a 1.2852372,1.2852372 0 0 0 0.78516,-0.22265 l 1.54492,-1.05469 -0.54883,5.58984 a 1.2852372,1.2852372 0 0 0 1.29492,1.41016 l 18.48438,-0.21484 a 1.2852372,1.2852372 0 0 0 1.26172,-1.13672 l 0.82226,-7.07813 a 1.2852372,1.2852372 0 0 0 -1.26562,-1.43359 l -1.7793,-0.0156 a 1.2852372,1.2852372 0 0 0 -0.71875,0.21289 l -1.50391,0.99218 -1.24804,-0.0586 -0.97071,-0.98242 0.0566,-1.68946 0.92188,-0.87109 1.9668,-0.041 1.32617,0.79101 a 1.2852372,1.2852372 0 0 0 0.73633,0.17969 l 1.35546,-0.082 a 1.2852372,1.2852372 0 0 0 1.20313,-1.38867 l -0.46875,-5.65235 a 1.2852372,1.2852372 0 0 0 -1.06836,-1.16211 l -6.11523,-1.02734 -0.0293,-0.78711 1.04101,-2.08985 a 1.2852372,1.2852372 0 0 0 0.13477,-0.59374 l -0.0508,-3.06641 a 1.2852372,1.2852372 0 0 0 -0.34766,-0.85742 l -1.55664,-1.66016 a 1.2852372,1.2852372 0 0 0 -0.91601,-0.40625 z"
       transform="matrix(3.5857477,0,0,3.5857477,-3464.736,-2444.2763)" />
    <path
       style="fill:#b2b4b1;stroke:none;stroke-width:3.58574772px;stroke-linecap:butt;stroke-linejoin:miter;stroke-opacity:1;fill-opacity:1"
       d="m 45.248306,1065.269 -2.12941,-21.6467 22.607953,-2.2764 0.975848,-8.645 -4.429566,-8.068 0.721155,-9.734 6.849782,-5.2276 13.339219,-0.5407 5.58804,5.9485 0.18041,10.9958 -4.25692,8.547 0.28574,7.7437 25.630533,4.3081 1.6791,20.2692 -4.8569,0.2911 -5.89405,-3.5127 -10.153353,0.2113 -5.96881,5.6522 -0.32961,9.9292 6.13639,6.2109 7.76623,0.3606 6.646093,-4.3828 6.38585,0.062 -2.95352,25.3794 -66.280493,0.7646 2.489908,-25.3405 -5.804084,-0.255 -7.441847,5.0857 -11.44344,-0.5407 -5.98164,-10.7714 0.164885,-9.0718 8.610932,-6.1646 9.882971,0.3296 3.718231,3.7182 z"
       id="path5269-25"
       inkscape:connector-curvature="0"
       sodipodi:nodetypes="ccccccccccccccccccccccccccccccccccc" />
    <path
       style="fill:#e5e5e5;stroke:none;stroke-width:3.58574772px;stroke-linecap:butt;stroke-linejoin:miter;stroke-opacity:1;fill-opacity:1"
       d="m 62.273131,1024.6329 4.639909,-7.2384 4.686637,-3.3348 -1.755609,-4.3884 -6.849782,5.2276 z"
       id="path5291-86"
       inkscape:connector-curvature="0" />
    <path
       style="fill:#cccccc;stroke:none;stroke-width:3.58574772px;stroke-linecap:butt;stroke-linejoin:miter;stroke-opacity:1;fill-opacity:1"
       d="m 71.599677,1014.0597 11.58361,-4.9291 -13.339219,0.5407 z"
       id="path5293-2"
       inkscape:connector-curvature="0" />
    <path
       style="fill:#666666;stroke:none;stroke-width:3.58574772px;stroke-linecap:butt;stroke-linejoin:miter;stroke-opacity:1;fill-opacity:1"
       d="m 88.771327,1015.0791 -4.55802,9.4691 4.73843,1.5269 z"
       id="path5295-84"
       inkscape:connector-curvature="0" />
    <path
       style="fill:#808080;fill-opacity:1;stroke:none;stroke-width:3.58574772px;stroke-linecap:butt;stroke-linejoin:miter;stroke-opacity:1"
       d="m 84.213307,1024.5482 -4.07889,8.4763 4.84614,9.3411 -0.28574,-7.7437 4.25692,-8.5468 z"
       id="path5297-7"
       inkscape:connector-curvature="0" />
    <path
       style="fill:#e5e5e5;stroke:none;stroke-width:3.58574772px;stroke-linecap:butt;stroke-linejoin:miter;stroke-opacity:1;fill-opacity:1"
       d="m 45.248306,1065.269 2.376817,-16.0587 -4.506227,-5.588 z"
       id="path5299-24"
       inkscape:connector-curvature="0" />
    <path
       style="fill:#cccccc;stroke:none;stroke-width:3.58574772px;stroke-linecap:butt;stroke-linejoin:miter;stroke-opacity:1;fill-opacity:1"
       d="m 47.625123,1049.2103 18.101726,-7.8644 -22.607953,2.2764 z"
       id="path5301-0"
       inkscape:connector-curvature="0" />
    <path
       style="fill:#666666;stroke:none;stroke-width:3.58574772px;stroke-linecap:butt;stroke-linejoin:miter;stroke-opacity:1;fill-opacity:1"
       d="m 112.02203,1081.7648 -8.81683,18.6239 5.86331,6.7556 z"
       id="path5303-6"
       inkscape:connector-curvature="0" />
    <path
       style="fill:#808080;stroke:none;stroke-width:3.58574772px;stroke-linecap:butt;stroke-linejoin:miter;stroke-opacity:1;fill-opacity:1"
       d="m 103.2052,1100.3887 -60.417183,7.5203 66.280493,-0.7647 z"
       id="path5305-2"
       inkscape:connector-curvature="0" />
    <path
       style="fill:#808080;stroke:none;stroke-width:3.58574772px;stroke-linecap:butt;stroke-linejoin:miter;stroke-opacity:1;fill-opacity:1"
       d="m 107.43329,1067.234 3.1778,-20.5603 1.6791,20.2692 z"
       id="path5307-99"
       inkscape:connector-curvature="0" />
    <path
       style="fill:#e5e5e5;stroke:none;stroke-width:3.58574772px;stroke-linecap:butt;stroke-linejoin:miter;stroke-opacity:1;fill-opacity:1"
       d="m 110.61109,1046.6737 -26.573433,0.9142 0.9429,-5.2223 z"
       id="path5309-0"
       inkscape:connector-curvature="0" />
    <path
       style="fill:#cccccc;stroke:none;stroke-width:3.58574772px;stroke-linecap:butt;stroke-linejoin:miter;stroke-opacity:1;fill-opacity:1"
       d="m 42.788017,1107.909 8.622653,-26.0717 -6.132745,0.731 z"
       id="path5311-8"
       inkscape:connector-curvature="0" />
    <path
       style="fill:#666666;stroke:none;stroke-width:3.58574772px;stroke-linecap:butt;stroke-linejoin:miter;stroke-opacity:1;fill-opacity:1"
       d="m 45.277925,1082.5683 -6.936105,-4.5164 -7.210438,4.6868 0.900612,4.6604 7.441847,-5.086 z"
       id="path5313-13"
       inkscape:connector-curvature="0" />
    <path
       style="fill:#808080;stroke:none;stroke-width:3.58574772px;stroke-linecap:butt;stroke-linejoin:miter;stroke-opacity:1;fill-opacity:1"
       d="m 31.131382,1082.7387 -10.542828,4.1196 11.44344,0.5408 z"
       id="path5315-11"
       inkscape:connector-curvature="0" />
    <path
       style="fill:#e5e5e5;stroke:none;stroke-width:3.58574772px;stroke-linecap:butt;stroke-linejoin:miter;stroke-opacity:1;fill-opacity:1"
       d="m 14.606914,1076.0869 3.72615,-7.5888 6.399159,-3.6051 -1.349492,-4.0425 -8.610932,6.1646 z"
       id="path5317-0"
       inkscape:connector-curvature="0" />
    <path
       style="fill:#d5d5d5;stroke:none;stroke-width:3.58574772px;stroke-linecap:butt;stroke-linejoin:miter;stroke-opacity:1;fill-opacity:1"
       d="m 24.732223,1064.893 8.533479,-3.7129 -9.882971,-0.3296 z"
       id="path5319-34"
       inkscape:connector-curvature="0" />
    <path
       style="fill:#e5e5e5;stroke:none;stroke-width:3.58574772px;stroke-linecap:butt;stroke-linejoin:miter;stroke-opacity:1;fill-opacity:1"
       d="m 112.02203,1081.7648 -5.37532,3.2009 -5.60846,4.6524 -2.048163,-3.5326 6.646093,-4.3828 z"
       id="path5321-0"
       inkscape:connector-curvature="0" />
    <path
       style="fill:#cccccc;stroke:none;stroke-width:3.58574772px;stroke-linecap:butt;stroke-linejoin:miter;stroke-opacity:1;fill-opacity:1"
       d="m 101.03825,1089.6181 -9.814393,-3.8932 7.76623,0.3606 z"
       id="path5323-3"
       inkscape:connector-curvature="0" />
    <path
       style="fill:#808080;stroke:none;stroke-width:3.58574772px;stroke-linecap:butt;stroke-linejoin:miter;stroke-opacity:1;fill-opacity:1"
       d="m 85.087467,1079.514 -3.04111,-12.2656 6.62804,-6.8831 2.71149,3.5673 -5.96881,5.6522 z"
       id="path5325-9"
       inkscape:connector-curvature="0" />
    <path
       style="fill:#666666;stroke:none;stroke-width:3.58574772px;stroke-linecap:butt;stroke-linejoin:miter;stroke-opacity:1;fill-opacity:1"
       d="m 88.674397,1060.3653 12.864843,3.356 -10.153353,0.2113 z"
       id="path5327-1"
       inkscape:connector-curvature="0" />
  </g>
</svg>
