<?xml version="1.0" encoding="UTF-8" standalone="no"?>
<!-- Created with Inkscape (http://www.inkscape.org/) -->

<svg
   xmlns:dc="http://purl.org/dc/elements/1.1/"
   xmlns:cc="http://creativecommons.org/ns#"
   xmlns:rdf="http://www.w3.org/1999/02/22-rdf-syntax-ns#"
   xmlns:svg="http://www.w3.org/2000/svg"
   xmlns="http://www.w3.org/2000/svg"
   xmlns:sodipodi="http://sodipodi.sourceforge.net/DTD/sodipodi-0.dtd"
   xmlns:inkscape="http://www.inkscape.org/namespaces/inkscape"
   width="128"
   height="128"
   viewBox="0 0 128 128.00001"
   version="1.1"
   id="svg6294"
   inkscape:version="0.92.3 (2405546, 2018-03-11)"
   sodipodi:docname="notes.svg">
  <defs
     id="defs6288" />
  <sodipodi:namedview
     id="base"
     pagecolor="#ffffff"
     bordercolor="#666666"
     borderopacity="1.0"
     inkscape:pageopacity="0.0"
     inkscape:pageshadow="2"
     inkscape:zoom="2.9006348"
     inkscape:cx="46.360553"
     inkscape:cy="63.412732"
     inkscape:document-units="px"
     inkscape:current-layer="layer1"
     showgrid="false"
     units="px"
     inkscape:window-width="1366"
     inkscape:window-height="713"
     inkscape:window-x="0"
     inkscape:window-y="27"
     inkscape:window-maximized="1" />
  <metadata
     id="metadata6291">
    <rdf:RDF>
      <cc:Work
         rdf:about="">
        <dc:format>image/svg+xml</dc:format>
        <dc:type
           rdf:resource="http://purl.org/dc/dcmitype/StillImage" />
        <dc:title></dc:title>
      </cc:Work>
    </rdf:RDF>
  </metadata>
  <g
     inkscape:label="Layer 1"
     inkscape:groupmode="layer"
     id="layer1"
     transform="translate(0,-994.51965)">
    <path
       transform="matrix(1.614209,0,0,1.614209,-3014.9676,-684.40555)"
       sodipodi:type="inkscape:offset"
       inkscape:radius="3.4003706"
       inkscape:original="M 1929.8711 1049.6875 L 1892.041 1058.1738 L 1894.5156 1094.4121 L 1889.3887 1094.4121 L 1882.3184 1100.9531 L 1883.0254 1107.3164 L 1890.4492 1109.791 L 1901.0566 1102.7207 L 1898.4043 1069.1328 L 1925.9824 1063.2988 L 1927.3965 1086.8105 L 1922.623 1087.5176 L 1915.9062 1093.7051 L 1918.0273 1100.5996 L 1927.043 1101.4824 L 1933.9375 1095.6504 L 1929.8711 1049.6875 z "
       style="fill:#000000;stroke:none;stroke-width:1px;stroke-linecap:butt;stroke-linejoin:miter;stroke-opacity:1"
       id="path4334-0"
       d="m 1929.8105,1046.2871 a 3.4007106,3.4007106 0 0 0 -0.6835,0.082 l -37.8301,8.4864 a 3.4007106,3.4007106 0 0 0 -2.6485,3.5507 l 2.2266,32.6055 h -1.4863 a 3.4007106,3.4007106 0 0 0 -2.3086,0.9043 l -7.0703,6.541 a 3.4007106,3.4007106 0 0 0 -1.0703,2.8711 l 0.707,6.3633 a 3.4007106,3.4007106 0 0 0 2.3027,2.8516 l 7.4238,2.4746 a 3.4007106,3.4007106 0 0 0 2.9629,-0.3965 l 10.6075,-7.0703 a 3.4007106,3.4007106 0 0 0 1.5039,-3.0977 l -2.418,-30.6113 20.7949,-4.4004 0.9903,16.4629 -1.6895,0.25 a 3.4007106,3.4007106 0 0 0 -1.8066,0.8633 l -6.7168,6.1875 a 3.4007106,3.4007106 0 0 0 -0.9454,3.5 l 2.1211,6.8945 a 3.4007106,3.4007106 0 0 0 2.918,2.3848 l 9.0156,0.8828 a 3.4007106,3.4007106 0 0 0 2.5274,-0.7891 l 6.8945,-5.832 a 3.4007106,3.4007106 0 0 0 1.1914,-2.8945 l -4.0664,-45.9629 a 3.4007106,3.4007106 0 0 0 -3.4473,-3.1016 z" />
    <path
       style="fill:#ff6600;stroke:none;stroke-width:1.61420906px;stroke-linecap:butt;stroke-linejoin:miter;stroke-opacity:1"
       d="m 49.455078,1041.3988 44.515368,-9.4166 2.28281,37.9521 -7.70462,1.1414 -10.843447,9.9875 3.424221,11.1288 14.553066,1.4268 11.128834,-9.4168 -6.56304,-74.1921 -61.065857,13.697 3.994844,58.4977 h -8.275242 l -11.414234,10.558 1.141569,10.2728 11.984856,3.995 17.12127,-11.4142 z"
       id="path4334"
       inkscape:connector-curvature="0" />
    <path
       style="fill:#ff9955;stroke:none;stroke-width:1.61420906px;stroke-linecap:butt;stroke-linejoin:miter;stroke-opacity:1"
       d="m 43.177257,1082.2046 0.856177,-52.7907 -4.851021,-5.707 z"
       id="path4336"
       inkscape:connector-curvature="0" />
    <path
       style="fill:#ff7f2a;stroke:none;stroke-width:1.61420906px;stroke-linecap:butt;stroke-linejoin:miter;stroke-opacity:1"
       d="m 44.033434,1029.4139 56.214836,-19.404 -61.065857,13.697 z"
       id="path4338"
       inkscape:connector-curvature="0" />
    <path
       style="fill:#ff7f2a;stroke:none;stroke-width:1.61420906px;stroke-linecap:butt;stroke-linejoin:miter;stroke-opacity:1"
       d="m 43.177257,1082.2046 -6.563051,3.2815 -1.712191,-3.2815 z"
       id="path4340"
       inkscape:connector-curvature="0" />
    <path
       style="fill:#ff9955;stroke:none;stroke-width:1.61420906px;stroke-linecap:butt;stroke-linejoin:miter;stroke-opacity:1"
       d="m 36.614206,1085.4861 -13.126425,7.2765 11.414234,-10.558 z"
       id="path4342"
       inkscape:connector-curvature="0" />
    <path
       style="fill:#d45500;stroke:none;stroke-width:1.61420906px;stroke-linecap:butt;stroke-linejoin:miter;stroke-opacity:1"
       d="m 36.614206,1107.0304 11.984857,-12.9837 5.136413,1.5695 z"
       id="path4344"
       inkscape:connector-curvature="0" />
    <path
       style="fill:#d45500;stroke:none;stroke-width:1.61420906px;stroke-linecap:butt;stroke-linejoin:miter;stroke-opacity:1"
       d="m 48.599063,1094.0467 0.856015,-52.6479 4.280398,54.2174 z"
       id="path4346"
       inkscape:connector-curvature="0" />
    <path
       style="fill:#d45500;stroke:none;stroke-width:1.61420906px;stroke-linecap:butt;stroke-linejoin:miter;stroke-opacity:1"
       d="m 95.682476,1093.6188 6.563204,-11.2715 4.56563,1.8547 z"
       id="path4348"
       inkscape:connector-curvature="0" />
    <path
       style="fill:#d45500;stroke:none;stroke-width:1.61420906px;stroke-linecap:butt;stroke-linejoin:miter;stroke-opacity:1"
       d="m 102.24568,1082.3473 -1.99741,-72.3374 6.56304,74.1921 z"
       id="path4350"
       inkscape:connector-curvature="0" />
    <path
       style="fill:#ff9955;stroke:none;stroke-width:1.61420906px;stroke-linecap:butt;stroke-linejoin:miter;stroke-opacity:1"
       d="m 77.705189,1081.0632 10.843447,-9.9875 1.81922,3.8167 z"
       id="path4352"
       inkscape:connector-curvature="0" />
    <path
       style="fill:#ff7f2a;stroke:none;stroke-width:1.61420906px;stroke-linecap:butt;stroke-linejoin:miter;stroke-opacity:1"
       d="m 90.367856,1074.8924 5.8854,-4.9581 -7.70462,1.1414 z"
       id="path4354"
       inkscape:connector-curvature="0" />
  </g>
</svg>
