<?xml version="1.0" encoding="UTF-8" standalone="no"?>
<!-- Created with Inkscape (http://www.inkscape.org/) -->

<svg
   xmlns:dc="http://purl.org/dc/elements/1.1/"
   xmlns:cc="http://creativecommons.org/ns#"
   xmlns:rdf="http://www.w3.org/1999/02/22-rdf-syntax-ns#"
   xmlns:svg="http://www.w3.org/2000/svg"
   xmlns="http://www.w3.org/2000/svg"
   xmlns:sodipodi="http://sodipodi.sourceforge.net/DTD/sodipodi-0.dtd"
   xmlns:inkscape="http://www.inkscape.org/namespaces/inkscape"
   width="128"
   height="128"
   viewBox="0 0 128 128.00001"
   version="1.1"
   id="svg6294"
   inkscape:version="0.92.2 (5c3e80d, 2017-08-06)"
   sodipodi:docname="options_language.svg">
  <defs
     id="defs6288" />
  <sodipodi:namedview
     id="base"
     pagecolor="#ffffff"
     bordercolor="#666666"
     borderopacity="1.0"
     inkscape:pageopacity="0.0"
     inkscape:pageshadow="2"
     inkscape:zoom="2.1832557"
     inkscape:cx="15.209465"
     inkscape:cy="55.898017"
     inkscape:document-units="px"
     inkscape:current-layer="layer1"
     showgrid="false"
     units="px"
     inkscape:window-width="1366"
     inkscape:window-height="713"
     inkscape:window-x="0"
     inkscape:window-y="27"
     inkscape:window-maximized="1" />
  <metadata
     id="metadata6291">
    <rdf:RDF>
      <cc:Work
         rdf:about="">
        <dc:format>image/svg+xml</dc:format>
        <dc:type
           rdf:resource="http://purl.org/dc/dcmitype/StillImage" />
        <dc:title />
      </cc:Work>
    </rdf:RDF>
  </metadata>
  <g
     inkscape:label="Layer 1"
     inkscape:groupmode="layer"
     id="layer1"
     transform="translate(0,-994.51965)">
    <path
       sodipodi:type="inkscape:offset"
       inkscape:radius="2.3749511"
       inkscape:original="M 3533.2812 1059.5801 L 3504.1562 1062.1934 L 3503.4414 1100.4004 L 3528.0957 1101.3906 L 3528.0312 1108.041 L 3555.9805 1105.4277 L 3555.1777 1064.6074 L 3533.3066 1065.7578 L 3533.2812 1059.5801 z "
       style="fill:#000000;stroke:none;stroke-width:1px;stroke-linecap:butt;stroke-linejoin:miter;stroke-opacity:1"
       id="path9434-0"
       d="m 3533.2012,1057.207 a 2.3751886,2.3751886 0 0 0 -0.1328,0.01 l -29.125,2.6133 a 2.3751886,2.3751886 0 0 0 -2.1622,2.3203 l -0.7148,38.2071 a 2.3751886,2.3751886 0 0 0 2.2793,2.4179 l 22.3535,0.8985 -0.043,4.3457 a 2.3751886,2.3751886 0 0 0 2.5958,2.3886 l 27.9492,-2.6132 a 2.3751886,2.3751886 0 0 0 2.1543,-2.4121 l -0.8028,-40.8204 a 2.3751886,2.3751886 0 0 0 -2.5,-2.3242 l -19.3808,1.0196 -0.016,-3.6856 a 2.3751886,2.3751886 0 0 0 -2.455,-2.3633 z"
       transform="matrix(1.8851462,0,0,1.8851462,-6590.0212,-984.77776)" />
    <path
       style="fill:#0066ff;stroke:none;stroke-width:1.88514614px;stroke-linecap:butt;stroke-linejoin:miter;stroke-opacity:1"
       d="m 61.591166,1024.8159 50.416884,-2.6535 1.51617,76.952 -52.691136,4.928 z"
       id="path9434"
       inkscape:connector-curvature="0" />
    <path
       style="fill:#2a7fff;stroke:none;stroke-width:1.88514614px;stroke-linecap:butt;stroke-linejoin:miter;stroke-opacity:1"
       d="m 61.591166,1024.8159 50.416884,-2.6535 -44.351596,7.5815 z"
       id="path9466"
       inkscape:connector-curvature="0"
       sodipodi:nodetypes="cccc" />
    <path
       style="fill:#80b3ff;stroke:none;stroke-width:1.88514614px;stroke-linecap:butt;stroke-linejoin:miter;stroke-opacity:1"
       d="m 60.833084,1104.0424 6.82337,-74.2985 -6.065288,-4.928 z"
       id="path9464"
       inkscape:connector-curvature="0"
       sodipodi:nodetypes="cccc" />
    <path
       style="fill:#e6e6e6;stroke:none;stroke-width:1.77704966px;stroke-linecap:butt;stroke-linejoin:miter;stroke-opacity:1"
       d="m 15.825215,1017.6134 54.90586,-4.9276 0.336908,79.2262 -56.590401,-2.2743 z"
       id="path9432"
       inkscape:connector-curvature="0" />
    <path
       style="fill:#000000;fill-opacity:1;stroke:none;stroke-width:2.64845133px;stroke-linecap:butt;stroke-linejoin:miter;stroke-opacity:1"
       d="m 33.071438,1031.5047 4.661112,6.975 6.122144,0.2086 -0.530658,-3.5783 z m -6.784214,9.0834 7.905518,8.812 0.560574,-4.1959 10.389649,1.8518 -20.785091,24.474 7.177976,-0.017 8.290042,-9.9183 16.944088,10.1719 -0.369801,-5.4662 -12.640872,-9.5697 11.197696,-12.5395 z"
       id="path9451"
       inkscape:connector-curvature="0" />
    <path
       style="fill:#ffffff;stroke:none;stroke-width:1.88514614px;stroke-linecap:butt;stroke-linejoin:miter;stroke-opacity:1"
       d="m 14.477582,1089.6377 6.931757,-67.2859 -5.584124,-4.7384 z"
       id="path9456"
       inkscape:connector-curvature="0" />
    <path
       style="fill:#f2f2f2;stroke:none;stroke-width:1.88514614px;stroke-linecap:butt;stroke-linejoin:miter;stroke-opacity:1"
       d="m 21.409339,1022.3518 49.321736,-9.666 -54.90586,4.9276 z"
       id="path9458"
       inkscape:connector-curvature="0" />
    <path
       style="fill:#cccccc;stroke:none;stroke-width:1.88514614px;stroke-linecap:butt;stroke-linejoin:miter;stroke-opacity:1"
       d="m 14.477582,1089.6377 49.198312,-4.1699 7.392089,6.4442 z"
       id="path9460"
       inkscape:connector-curvature="0" />
    <path
       style="fill:#b3b3b3;stroke:none;stroke-width:1.88514614px;stroke-linecap:butt;stroke-linejoin:miter;stroke-opacity:1"
       d="m 63.675894,1085.4678 7.055181,-72.782 0.336908,79.2262 z"
       id="path9462"
       inkscape:connector-curvature="0" />
    <path
       style="fill:#0055d4;stroke:none;stroke-width:1.88514614px;stroke-linecap:butt;stroke-linejoin:miter;stroke-opacity:1"
       d="m 60.833084,1104.0424 46.815676,-9.4767 5.87546,4.5487 z"
       id="path9468"
       inkscape:connector-curvature="0" />
    <path
       style="fill:#0044aa;stroke:none;stroke-width:1.88514614px;stroke-linecap:butt;stroke-linejoin:miter;stroke-opacity:1"
       d="m 107.64876,1094.5657 4.35929,-72.4033 1.51617,76.952 z"
       id="path9470"
       inkscape:connector-curvature="0" />
    <g
       aria-label="A"
       transform="skewY(0.55006212)"
       style="font-style:normal;font-weight:normal;font-size:47.74922943px;line-height:1.25;font-family:sans-serif;letter-spacing:0px;word-spacing:0px;fill:#f2f2f2;fill-opacity:1;stroke:none;stroke-width:1.19373059"
       id="text9438">
      <path
         d="M 96.405236,1069.5686 H 82.369573 l -2.21493,6.3417 h -9.022925 l 12.893224,-34.8094 h 10.70161 l 12.893228,34.8094 h -9.022929 z m -11.797417,-6.4583 h 9.535856 l -4.75627,-13.8491 z"
         style="font-style:normal;font-variant:normal;font-weight:900;font-stretch:normal;font-family:'Inter UI';-inkscape-font-specification:'Inter UI Heavy';fill:#f2f2f2;stroke:none;stroke-width:1.19373059"
         id="path21" />
    </g>
  </g>
</svg>
