<?xml version="1.0" encoding="UTF-8" standalone="no"?>
<!-- Created with Inkscape (http://www.inkscape.org/) -->

<svg
   xmlns:dc="http://purl.org/dc/elements/1.1/"
   xmlns:cc="http://creativecommons.org/ns#"
   xmlns:rdf="http://www.w3.org/1999/02/22-rdf-syntax-ns#"
   xmlns:svg="http://www.w3.org/2000/svg"
   xmlns="http://www.w3.org/2000/svg"
   xmlns:sodipodi="http://sodipodi.sourceforge.net/DTD/sodipodi-0.dtd"
   xmlns:inkscape="http://www.inkscape.org/namespaces/inkscape"
   width="128"
   height="128"
   viewBox="0 0 128 128.00001"
   version="1.1"
   id="svg6294"
   inkscape:version="0.92.3 (2405546, 2018-03-11)"
   sodipodi:docname="options_video.svg">
  <defs
     id="defs6288" />
  <sodipodi:namedview
     id="base"
     pagecolor="#ffffff"
     bordercolor="#666666"
     borderopacity="1.0"
     inkscape:pageopacity="0.0"
     inkscape:pageshadow="2"
     inkscape:zoom="2.1832557"
     inkscape:cx="15.209465"
     inkscape:cy="55.898017"
     inkscape:document-units="px"
     inkscape:current-layer="layer1"
     showgrid="false"
     units="px"
     inkscape:window-width="1366"
     inkscape:window-height="713"
     inkscape:window-x="0"
     inkscape:window-y="27"
     inkscape:window-maximized="1" />
  <metadata
     id="metadata6291">
    <rdf:RDF>
      <cc:Work
         rdf:about="">
        <dc:format>image/svg+xml</dc:format>
        <dc:type
           rdf:resource="http://purl.org/dc/dcmitype/StillImage" />
        <dc:title></dc:title>
      </cc:Work>
    </rdf:RDF>
  </metadata>
  <g
     inkscape:label="Layer 1"
     inkscape:groupmode="layer"
     id="layer1"
     transform="translate(0,-994.51965)">
    <path
       sodipodi:type="inkscape:offset"
       inkscape:radius="3.4835989"
       inkscape:original="M 2955.1621 1057.6465 L 2950.1172 1064.1758 L 2951.502 1071.1016 L 2955.459 1075.9473 L 2962.3828 1075.5527 L 2967.1309 1069.6172 L 2966.7363 1063.0879 L 2962.3828 1057.6465 L 2955.1621 1057.6465 z M 2936.4922 1058.1445 L 2931.4473 1064.6738 L 2932.832 1071.5977 L 2936.7891 1076.4453 L 2943.7148 1076.0488 L 2948.4629 1070.1133 L 2948.0664 1063.584 L 2943.7148 1058.1445 L 2936.4922 1058.1445 z M 2970.8828 1076.168 L 2930.2168 1077.3047 L 2928.7949 1110.8613 L 2970.3145 1110.5762 L 2970.5977 1102.0449 L 2980.5508 1104.8887 L 2980.9531 1080.0859 L 2971.166 1084.9824 L 2970.8828 1076.168 z "
       style="fill:#000000;stroke:none;stroke-width:1px;stroke-linecap:butt;stroke-linejoin:miter;stroke-opacity:1"
       id="path8702-7"
       d="m 2955.1621,1054.1621 a 3.4839473,3.4839473 0 0 0 -2.7559,1.3535 l -3.1113,4.0274 -2.8594,-3.5742 a 3.4839473,3.4839473 0 0 0 -2.7207,-1.3086 h -7.2226 a 3.4839473,3.4839473 0 0 0 -2.7559,1.3535 l -5.0449,6.5293 a 3.4839473,3.4839473 0 0 0 -0.6602,2.8144 l 1.3848,6.9238 a 3.4839473,3.4839473 0 0 0 0.7168,1.5196 l 0.018,0.022 h -0.031 a 3.4839473,3.4839473 0 0 0 -3.3828,3.3339 l -1.4218,33.5567 a 3.4839473,3.4839473 0 0 0 3.5039,3.6328 l 41.5195,-0.2852 a 3.4839473,3.4839473 0 0 0 3.459,-3.3691 l 0.1347,-4.0703 5.6622,1.6172 a 3.4839473,3.4839473 0 0 0 4.4394,-3.293 l 0.4023,-24.8027 a 3.4839473,3.4839473 0 0 0 -5.041,-3.1719 l -4.9199,2.4609 -0.1094,-3.375 a 3.4839473,3.4839473 0 0 0 -3.58,-3.3711 l -1.6856,0.047 0.752,-0.9394 a 3.4839473,3.4839473 0 0 0 0.7558,-2.3868 l -0.3945,-6.5292 a 3.4839473,3.4839473 0 0 0 -0.7559,-1.9649 l -4.3535,-5.4414 a 3.4839473,3.4839473 0 0 0 -2.7207,-1.3086 z"
       transform="matrix(1.7945065,0,0,1.7945065,-5239.4902,-887.18109)" />
    <path
       style="fill:#999999;stroke:none;stroke-width:1.79450655px;stroke-linecap:butt;stroke-linejoin:miter;stroke-opacity:1"
       d="m 18.804586,1046.0476 72.974954,-2.0412 0.51035,15.8199 17.56215,-8.7886 -0.72174,44.5106 -17.86094,-5.1032 -0.51035,15.3095 -74.506011,0.5104 z"
       id="path8702"
       inkscape:connector-curvature="0"
       sodipodi:nodetypes="ccccccccc" />
    <path
       style="fill:#999999;stroke:none;stroke-width:2.49696779px;stroke-linecap:butt;stroke-linejoin:miter;stroke-opacity:1"
       d="m 21.013951,1023.3798 9.053455,-11.7164 h 12.958938 l 7.810794,9.7639 0.710335,11.7161 -8.521129,10.6511 -12.426442,0.7102 -7.100799,-8.6985 z"
       id="path8704"
       inkscape:connector-curvature="0" />
    <path
       style="fill:#999999;stroke:none;stroke-width:2.49696779px;stroke-linecap:butt;stroke-linejoin:miter;stroke-opacity:1"
       d="m 54.51504,1022.4878 9.05346,-11.7164 h 12.95893 l 7.81097,9.7638 0.71016,11.7161 -8.52113,10.6511 -12.42644,0.7102 -7.100798,-8.6983 z"
       id="path8704-7"
       inkscape:connector-curvature="0" />
    <path
       style="fill:#cccccc;stroke:none;stroke-width:1.79450655px;stroke-linecap:butt;stroke-linejoin:miter;stroke-opacity:1"
       d="m 16.252999,1106.265 9.185643,-51.5419 -6.634056,-8.6755 z"
       id="path8721"
       inkscape:connector-curvature="0" />
    <path
       style="fill:#f2f2f2;stroke:none;stroke-width:1.79450655px;stroke-linecap:butt;stroke-linejoin:miter;stroke-opacity:1"
       d="m 25.438642,1054.7231 66.340898,-10.7167 -72.974954,2.0412 z"
       id="path8723"
       inkscape:connector-curvature="0" />
    <path
       style="fill:#808080;stroke:none;stroke-width:1.79450655px;stroke-linecap:butt;stroke-linejoin:miter;stroke-opacity:1"
       d="m 16.252999,1106.265 66.085901,-8.4203 8.42011,7.9099 z"
       id="path8725"
       inkscape:connector-curvature="0" />
    <path
       style="fill:#666666;stroke:none;stroke-width:1.79450655px;stroke-linecap:butt;stroke-linejoin:miter;stroke-opacity:1"
       d="m 82.3389,1097.8447 9.44064,-53.8383 -1.02053,61.7482 z"
       id="path8727"
       inkscape:connector-curvature="0" />
    <path
       style="fill:#808080;stroke:none;stroke-width:1.79450655px;stroke-linecap:butt;stroke-linejoin:miter;stroke-opacity:1"
       d="m 91.26936,1090.4451 12.75793,-3.0619 5.10301,8.1651 z"
       id="path8729"
       inkscape:connector-curvature="0" />
    <path
       style="fill:#666666;stroke:none;stroke-width:1.79450655px;stroke-linecap:butt;stroke-linejoin:miter;stroke-opacity:1"
       d="m 104.02729,1087.3832 5.82475,-36.3455 -0.72174,44.5106 z"
       id="path8731"
       inkscape:connector-curvature="0" />
    <path
       style="fill:#cccccc;stroke:none;stroke-width:1.79450655px;stroke-linecap:butt;stroke-linejoin:miter;stroke-opacity:1"
       d="m 23.499103,1035.8062 2.704896,-11.447 6.634056,-8.1649 -2.770649,-4.5309 -9.053455,11.7164 z"
       id="path8733"
       inkscape:connector-curvature="0" />
    <path
       style="fill:#f2f2f2;stroke:none;stroke-width:1.79450655px;stroke-linecap:butt;stroke-linejoin:miter;stroke-opacity:1"
       d="m 32.838055,1016.1943 10.188289,-4.5309 H 30.067406 Z"
       id="path8735"
       inkscape:connector-curvature="0" />
    <path
       style="fill:#cccccc;stroke:none;stroke-width:1.79450655px;stroke-linecap:butt;stroke-linejoin:miter;stroke-opacity:1"
       d="m 57.000192,1034.9143 2.704898,-11.447 6.63423,-8.1651 -2.77082,-4.5308 -9.05346,11.7164 z"
       id="path8733-8"
       inkscape:connector-curvature="0" />
    <path
       style="fill:#f2f2f2;stroke:none;stroke-width:1.79450655px;stroke-linecap:butt;stroke-linejoin:miter;stroke-opacity:1"
       d="m 66.33932,1015.3022 10.18811,-4.5308 H 63.5685 Z"
       id="path8735-6"
       inkscape:connector-curvature="0" />
    <path
       style="fill:#666666;stroke:none;stroke-width:1.79450655px;stroke-linecap:butt;stroke-linejoin:miter;stroke-opacity:1"
       d="m 50.837138,1021.4273 0.710335,11.7161 -8.521129,10.6511 -1.768003,-5.6566 5.741112,-6.7617 z"
       id="path8755"
       inkscape:connector-curvature="0" />
    <path
       style="fill:#808080;stroke:none;stroke-width:1.79450655px;stroke-linecap:butt;stroke-linejoin:miter;stroke-opacity:1"
       d="m 41.258341,1038.1379 -10.658439,6.3668 12.426442,-0.7102 z"
       id="path8757"
       inkscape:connector-curvature="0" />
    <path
       style="fill:#666666;stroke:none;stroke-width:1.79450655px;stroke-linecap:butt;stroke-linejoin:miter;stroke-opacity:1"
       d="m 84.3384,1020.5352 0.71016,11.7161 -8.52113,10.6511 -1.768,-5.6566 5.74111,-6.7617 z"
       id="path8755-3"
       inkscape:connector-curvature="0" />
    <path
       style="fill:#808080;stroke:none;stroke-width:1.79450655px;stroke-linecap:butt;stroke-linejoin:miter;stroke-opacity:1"
       d="m 74.75943,1037.2458 -10.65844,6.3668 12.42644,-0.7102 z"
       id="path8757-7"
       inkscape:connector-curvature="0" />
  </g>
</svg>
