<?xml version="1.0" encoding="UTF-8" standalone="no"?>
<!-- Created with Inkscape (http://www.inkscape.org/) -->

<svg
   xmlns:dc="http://purl.org/dc/elements/1.1/"
   xmlns:cc="http://creativecommons.org/ns#"
   xmlns:rdf="http://www.w3.org/1999/02/22-rdf-syntax-ns#"
   xmlns:svg="http://www.w3.org/2000/svg"
   xmlns="http://www.w3.org/2000/svg"
   xmlns:sodipodi="http://sodipodi.sourceforge.net/DTD/sodipodi-0.dtd"
   xmlns:inkscape="http://www.inkscape.org/namespaces/inkscape"
   width="128"
   height="128"
   viewBox="0 0 128 128.00001"
   version="1.1"
   id="svg6294"
   inkscape:version="0.92.3 (2405546, 2018-03-11)"
   sodipodi:docname="package_uninstall.svg">
  <defs
     id="defs6288" />
  <sodipodi:namedview
     id="base"
     pagecolor="#ffffff"
     bordercolor="#666666"
     borderopacity="1.0"
     inkscape:pageopacity="0.0"
     inkscape:pageshadow="2"
     inkscape:zoom="2.4737607"
     inkscape:cx="20.329978"
     inkscape:cy="48.004671"
     inkscape:document-units="px"
     inkscape:current-layer="layer1"
     showgrid="false"
     units="px"
     inkscape:window-width="1366"
     inkscape:window-height="713"
     inkscape:window-x="0"
     inkscape:window-y="27"
     inkscape:window-maximized="1" />
  <metadata
     id="metadata6291">
    <rdf:RDF>
      <cc:Work
         rdf:about="">
        <dc:format>image/svg+xml</dc:format>
        <dc:type
           rdf:resource="http://purl.org/dc/dcmitype/StillImage" />
        <dc:title />
      </cc:Work>
    </rdf:RDF>
  </metadata>
  <g
     inkscape:label="Layer 1"
     inkscape:groupmode="layer"
     id="layer1"
     transform="translate(0,-994.51965)">
    <path
       sodipodi:type="inkscape:offset"
       inkscape:radius="1.2851087"
       inkscape:original="M 989.45117 963.0918 L 985.73047 963.24414 L 983.82031 964.70117 L 983.61914 967.41602 L 984.85352 969.66602 L 984.58203 972.07617 L 978.27734 972.71094 L 978.87109 978.74805 L 976.56641 978.64453 L 975.5293 977.60742 L 972.77344 977.51562 L 970.37109 979.23633 L 970.32617 981.76562 L 971.99414 984.76953 L 975.18555 984.91992 L 977.25977 983.50195 L 978.87891 983.57227 L 978.18555 990.64062 L 996.66992 990.42578 L 997.49219 983.34766 L 995.71289 983.33203 L 993.85938 984.55469 L 991.69336 984.45312 L 989.98047 982.7207 L 990.07422 979.95117 L 991.73828 978.375 L 994.57031 978.31641 L 996.21289 979.29688 L 997.56836 979.21484 L 997.09961 973.5625 L 989.95117 972.36133 L 989.87109 970.20117 L 991.05859 967.81836 L 991.00781 964.75195 L 989.45117 963.0918 z "
       style="fill:#000000;stroke:none;stroke-width:1px;stroke-linecap:butt;stroke-linejoin:miter;stroke-opacity:1"
       id="path5269-7-96"
       d="m 989.47266,961.80664 a 1.2852372,1.2852372 0 0 0 -0.0742,0.002 l -3.72071,0.15235 a 1.2852372,1.2852372 0 0 0 -0.72656,0.26172 l -1.91015,1.45703 a 1.2852372,1.2852372 0 0 0 -0.50196,0.92578 l -0.20117,2.71484 a 1.2852372,1.2852372 0 0 0 0.1543,0.71289 l 1.03906,1.89453 -0.10937,0.97461 -5.27344,0.5293 a 1.2852372,1.2852372 0 0 0 -1.15039,1.4043 l 0.44922,4.5625 -0.32422,-0.0156 -0.68555,-0.68359 a 1.2852372,1.2852372 0 0 0 -0.86523,-0.37695 l -2.75586,-0.0918 a 1.2852372,1.2852372 0 0 0 -0.79102,0.24023 l -2.40234,1.72071 a 1.2852372,1.2852372 0 0 0 -0.53711,1.02148 l -0.0449,2.5293 a 1.2852372,1.2852372 0 0 0 0.1621,0.64648 l 1.66797,3.00391 a 1.2852372,1.2852372 0 0 0 1.0625,0.66015 l 3.19141,0.15039 a 1.2852372,1.2852372 0 0 0 0.78516,-0.22265 l 1.54492,-1.05469 -0.54883,5.58984 a 1.2852372,1.2852372 0 0 0 1.29492,1.41016 l 18.48438,-0.21484 a 1.2852372,1.2852372 0 0 0 1.26172,-1.13672 l 0.82226,-7.07813 a 1.2852372,1.2852372 0 0 0 -1.26562,-1.43359 l -1.7793,-0.0156 a 1.2852372,1.2852372 0 0 0 -0.71875,0.21289 l -1.50391,0.99218 -1.24804,-0.0586 -0.97071,-0.98242 0.0566,-1.68946 0.92188,-0.87109 1.9668,-0.041 1.32617,0.79101 a 1.2852372,1.2852372 0 0 0 0.73633,0.17969 l 1.35546,-0.082 a 1.2852372,1.2852372 0 0 0 1.20313,-1.38867 l -0.46875,-5.65235 a 1.2852372,1.2852372 0 0 0 -1.06836,-1.16211 l -6.11523,-1.02734 -0.0293,-0.78711 1.04101,-2.08985 a 1.2852372,1.2852372 0 0 0 0.13477,-0.59374 l -0.0508,-3.06641 a 1.2852372,1.2852372 0 0 0 -0.34766,-0.85742 l -1.55664,-1.66016 a 1.2852372,1.2852372 0 0 0 -0.91601,-0.40625 z"
       transform="matrix(3.5857165,0,0,3.5857165,-3464.7057,-2444.2454)" />
    <path
       style="fill:#71c837;stroke:none;stroke-width:3.58571672px;stroke-linecap:butt;stroke-linejoin:miter;stroke-opacity:1"
       d="m 45.248006,1065.2693 -2.129392,-21.6464 22.607758,-2.2764 0.975839,-8.645 -4.429527,-8.0679 0.721147,-9.734 6.849724,-5.2276 13.339106,-0.5408 5.58799,5.9487 0.180405,10.9957 -4.256882,8.5469 0.285736,7.7436 25.63031,4.308 1.67908,20.269 -4.85686,0.2912 -5.894,-3.5126 -10.15325,0.2112 -5.968759,5.6523 -0.329608,9.9291 6.136334,6.2108 7.766165,0.3606 6.646028,-4.3829 6.3858,0.062 -2.95348,25.3792 -66.279932,0.7645 2.489887,-25.3403 -5.804034,-0.255 -7.441783,5.0858 -11.443341,-0.5407 -5.981588,-10.7714 0.164883,-9.0717 8.610858,-6.1646 9.882886,0.3297 3.7182,3.7182 z"
       id="path5269-2"
       inkscape:connector-curvature="0"
       sodipodi:nodetypes="ccccccccccccccccccccccccccccccccccc" />
    <path
       style="fill:#aade87;stroke:none;stroke-width:3.58571672px;stroke-linecap:butt;stroke-linejoin:miter;stroke-opacity:1"
       d="m 62.272684,1024.6336 4.639868,-7.2383 4.686594,-3.3348 -1.755591,-4.3885 -6.849724,5.2276 z"
       id="path5291-1"
       inkscape:connector-curvature="0" />
    <path
       style="fill:#c6e9af;stroke:none;stroke-width:3.58571672px;stroke-linecap:butt;stroke-linejoin:miter;stroke-opacity:1"
       d="m 71.599146,1014.0605 11.583515,-4.9293 -13.339106,0.5408 z"
       id="path5293-7"
       inkscape:connector-curvature="0" />
    <path
       style="fill:#447821;stroke:none;stroke-width:3.58571672px;stroke-linecap:butt;stroke-linejoin:miter;stroke-opacity:1"
       d="m 88.770651,1015.0799 -4.557981,9.469 4.738386,1.5269 z"
       id="path5295-8"
       inkscape:connector-curvature="0" />
    <path
       style="fill:#5aa02c;fill-opacity:1;stroke:none;stroke-width:3.58571672px;stroke-linecap:butt;stroke-linejoin:miter;stroke-opacity:1"
       d="m 84.21267,1024.5489 -4.078853,8.4762 4.846093,9.341 -0.285736,-7.7436 4.256882,-8.5467 z"
       id="path5297-5"
       inkscape:connector-curvature="0" />
    <path
       style="fill:#aade87;stroke:none;stroke-width:3.58571672px;stroke-linecap:butt;stroke-linejoin:miter;stroke-opacity:1"
       d="m 45.248006,1065.2693 2.376796,-16.0585 -4.506188,-5.5879 z"
       id="path5299-7"
       inkscape:connector-curvature="0" />
    <path
       style="fill:#c6e9af;stroke:none;stroke-width:3.58571672px;stroke-linecap:butt;stroke-linejoin:miter;stroke-opacity:1"
       d="m 47.624802,1049.2108 18.10157,-7.8643 -22.607758,2.2764 z"
       id="path5301-4"
       inkscape:connector-curvature="0" />
    <path
       style="fill:#447821;stroke:none;stroke-width:3.58571672px;stroke-linecap:butt;stroke-linejoin:miter;stroke-opacity:1"
       d="m 112.02115,1081.7649 -8.81677,18.6239 5.86329,6.7555 z"
       id="path5303-1"
       inkscape:connector-curvature="0" />
    <path
       style="fill:#5aa02c;stroke:none;stroke-width:3.58571672px;stroke-linecap:butt;stroke-linejoin:miter;stroke-opacity:1"
       d="m 103.20438,1100.3888 -60.416642,7.5201 66.279932,-0.7646 z"
       id="path5305-85"
       inkscape:connector-curvature="0" />
    <path
       style="fill:#5aa02c;stroke:none;stroke-width:3.58571672px;stroke-linecap:butt;stroke-linejoin:miter;stroke-opacity:1"
       d="m 107.43244,1067.2343 3.17778,-20.5602 1.67908,20.269 z"
       id="path5307-9"
       inkscape:connector-curvature="0" />
    <path
       style="fill:#aade87;stroke:none;stroke-width:3.58571672px;stroke-linecap:butt;stroke-linejoin:miter;stroke-opacity:1"
       d="m 110.61022,1046.6741 -26.573205,0.9144 0.942895,-5.2224 z"
       id="path5309-7"
       inkscape:connector-curvature="0" />
    <path
       style="fill:#c6e9af;stroke:none;stroke-width:3.58571672px;stroke-linecap:butt;stroke-linejoin:miter;stroke-opacity:1"
       d="m 42.787738,1107.9089 8.622579,-26.0714 -6.132692,0.731 z"
       id="path5311-5"
       inkscape:connector-curvature="0" />
    <path
       style="fill:#447821;stroke:none;stroke-width:3.58571672px;stroke-linecap:butt;stroke-linejoin:miter;stroke-opacity:1"
       d="m 45.277625,1082.5685 -6.936045,-4.5163 -7.210376,4.6867 0.900604,4.6603 7.441783,-5.0859 z"
       id="path5313-3"
       inkscape:connector-curvature="0" />
    <path
       style="fill:#5aa02c;stroke:none;stroke-width:3.58571672px;stroke-linecap:butt;stroke-linejoin:miter;stroke-opacity:1"
       d="m 31.131204,1082.7389 -10.542737,4.1195 11.443341,0.5408 z"
       id="path5315-8"
       inkscape:connector-curvature="0" />
    <path
       style="fill:#b3ff80;stroke:none;stroke-width:3.58571672px;stroke-linecap:butt;stroke-linejoin:miter;stroke-opacity:1"
       d="m 14.606879,1076.0872 3.726118,-7.5888 6.399104,-3.6051 -1.349481,-4.0424 -8.610858,6.1646 z"
       id="path5317-8"
       inkscape:connector-curvature="0" />
    <path
       style="fill:#ccffaa;stroke:none;stroke-width:3.58571672px;stroke-linecap:butt;stroke-linejoin:miter;stroke-opacity:1"
       d="m 24.732101,1064.8933 8.533405,-3.7129 -9.882886,-0.3295 z"
       id="path5319-3"
       inkscape:connector-curvature="0" />
    <path
       style="fill:#aade87;stroke:none;stroke-width:3.58571672px;stroke-linecap:butt;stroke-linejoin:miter;stroke-opacity:1"
       d="m 112.02115,1081.7649 -5.37527,3.201 -5.60842,4.6523 -2.048138,-3.5325 6.646028,-4.3829 z"
       id="path5321-1"
       inkscape:connector-curvature="0" />
    <path
       style="fill:#c6e9af;stroke:none;stroke-width:3.58571672px;stroke-linecap:butt;stroke-linejoin:miter;stroke-opacity:1"
       d="m 101.03746,1089.6182 -9.814303,-3.8931 7.766165,0.3606 z"
       id="path5323-89"
       inkscape:connector-curvature="0" />
    <path
       style="fill:#5aa02c;stroke:none;stroke-width:3.58571672px;stroke-linecap:butt;stroke-linejoin:miter;stroke-opacity:1"
       d="m 85.086823,1079.5143 -3.041083,-12.2656 6.627977,-6.883 2.711473,3.5672 -5.968759,5.6523 z"
       id="path5325-6"
       inkscape:connector-curvature="0" />
    <path
       sodipodi:type="inkscape:offset"
       inkscape:radius="2.574008"
       inkscape:original="M 3487.7969 1263.3164 L 3482.5098 1274.7109 L 3472.832 1263.3398 L 3466.3125 1268.5488 L 3478.8359 1279.334 L 3468.6719 1289.873 L 3477.1875 1294.1348 L 3483.5254 1284.1426 L 3491.5039 1294.6094 L 3498.2227 1289.6484 L 3487.0703 1278.8398 L 3495.5586 1267.0156 L 3487.7969 1263.3164 z "
       style="fill:#000000;stroke:none;stroke-width:2.26385689px;stroke-linecap:butt;stroke-linejoin:miter;stroke-opacity:1"
       id="path5323-89-7"
       d="m 3487.9121,1260.7441 a 2.5742654,2.5742654 0 0 0 -2.4492,1.4883 l -3.5957,7.75 -7.0742,-8.3105 a 2.5742654,2.5742654 0 0 0 -3.5684,-0.3438 l -6.5195,5.209 a 2.5742654,2.5742654 0 0 0 -0.072,3.9629 l 10.459,9.0078 -8.2734,8.5781 a 2.5742654,2.5742654 0 0 0 0.7011,4.0899 l 8.5157,4.2617 a 2.5742654,2.5742654 0 0 0 3.3261,-0.9238 l 4.3575,-6.8711 5.7382,7.5273 a 2.5742654,2.5742654 0 0 0 3.5762,0.5098 l 6.7188,-4.9609 a 2.5742654,2.5742654 0 0 0 0.2617,-3.918 l -9.5567,-9.2637 7.1934,-10.0195 a 2.5742654,2.5742654 0 0 0 -0.9844,-3.8262 l -7.7617,-3.6992 a 2.5742654,2.5742654 0 0 0 -0.9922,-0.2481 z"
       transform="matrix(1.5838973,0,0,1.5838973,-5419.5639,-932.7223)" />
    <path
       style="fill:#338000;stroke:none;stroke-width:3.58571672px;stroke-linecap:butt;stroke-linejoin:miter;stroke-opacity:1"
       d="m 88.673717,1060.3657 12.864723,3.356 -10.15325,0.2112 z"
       id="path5327-4"
       inkscape:connector-curvature="0" />
    <path
       style="fill:#c83737;stroke:none;stroke-width:0.94922984px;stroke-linecap:butt;stroke-linejoin:miter;stroke-opacity:1"
       d="m 70.719469,1076.5303 10.324793,-8.2482 15.329594,18.0111 8.374864,-18.0512 12.29214,5.8619 -13.44333,18.7279 17.66474,17.1189 -10.64205,7.8572 -12.636494,-16.5784 -10.038265,15.8279 -13.489578,-6.749 16.099682,-16.6935 z"
       id="path3606-3"
       inkscape:connector-curvature="0"
       sodipodi:nodetypes="ccccccccccccc" />
    <path
       style="fill:#a02c2c;stroke:none;stroke-width:0.73960239px;stroke-linecap:butt;stroke-linejoin:miter;stroke-opacity:1"
       d="m 74.455883,1110.3084 10.35156,-0.7329 3.138018,7.4819 z"
       id="path3612-3"
       inkscape:connector-curvature="0"
       sodipodi:nodetypes="cccc" />
    <path
       style="fill:#a02c2c;stroke:none;stroke-width:0.73960239px;stroke-linecap:butt;stroke-linejoin:miter;stroke-opacity:1"
       d="m 84.807443,1109.5755 13.176283,-8.346 -10.038265,15.8279 z"
       id="path3614-3"
       inkscape:connector-curvature="0"
       sodipodi:nodetypes="cccc" />
    <path
       style="fill:#a02c2c;stroke:none;stroke-width:0.73960239px;stroke-linecap:butt;stroke-linejoin:miter;stroke-opacity:1"
       d="m 110.62022,1117.8079 1.88991,-7.3608 8.75214,-0.4964 z"
       id="path3616-8"
       inkscape:connector-curvature="0"
       sodipodi:nodetypes="cccc" />
    <path
       style="fill:#a02c2c;stroke:none;stroke-width:0.73960239px;stroke-linecap:butt;stroke-linejoin:miter;stroke-opacity:1"
       d="m 103.59753,1092.8318 13.44333,-18.7279 -14.40776,12.8305 z"
       id="path3618-6"
       inkscape:connector-curvature="0"
       sodipodi:nodetypes="cccc" />
    <path
       style="fill:#d35f5f;stroke:none;stroke-width:0.73960239px;stroke-linecap:butt;stroke-linejoin:miter;stroke-opacity:1"
       d="m 96.373856,1086.2932 11.886834,-12.1634 -3.51197,-5.8878 z"
       id="path3620-0"
       inkscape:connector-curvature="0"
       sodipodi:nodetypes="cccc" />
    <path
       style="fill:#d35f5f;stroke:none;stroke-width:0.73960239px;stroke-linecap:butt;stroke-linejoin:miter;stroke-opacity:1"
       d="m 74.455883,1110.3084 17.702744,-12.1519 -1.603062,-4.5416 z"
       id="path3622-4"
       inkscape:connector-curvature="0"
       sodipodi:nodetypes="cccc" />
    <path
       style="fill:#d35f5f;stroke:none;stroke-width:0.73960239px;stroke-linecap:butt;stroke-linejoin:miter;stroke-opacity:1"
       d="m 70.719469,1076.5303 8.997804,-1.9292 1.326989,-6.319 z"
       id="path3624-8"
       inkscape:connector-curvature="0"
       sodipodi:nodetypes="cccc" />
    <path
       style="fill:#d35f5f;stroke:none;stroke-width:0.73960239px;stroke-linecap:butt;stroke-linejoin:miter;stroke-opacity:1"
       d="m 108.26069,1074.1298 8.78017,-0.025 -12.29214,-5.8618 z"
       id="path3626-8"
       inkscape:connector-curvature="0"
       sodipodi:nodetypes="cccc" />
    <path
       style="fill:#a02c2c;fill-opacity:1;stroke:none;stroke-width:0.73960239px;stroke-linecap:butt;stroke-linejoin:miter;stroke-opacity:1"
       d="m 112.51013,1110.4471 -14.526404,-9.2176 12.636494,16.5784"
       id="path3904-8"
       inkscape:connector-curvature="0"
       sodipodi:nodetypes="ccc" />
    <path
       style="fill:#d35f5f;fill-opacity:1;stroke:none;stroke-width:0.73960239px;stroke-linecap:butt;stroke-linejoin:miter;stroke-opacity:1"
       d="m 96.373856,1086.2932 -15.329594,-18.0111 -1.326989,6.319 z"
       id="path3908-9"
       inkscape:connector-curvature="0"
       sodipodi:nodetypes="cccc" />
  </g>
</svg>
