<?xml version="1.0" encoding="UTF-8" standalone="no"?>
<!-- Created with Inkscape (http://www.inkscape.org/) -->

<svg
   xmlns:dc="http://purl.org/dc/elements/1.1/"
   xmlns:cc="http://creativecommons.org/ns#"
   xmlns:rdf="http://www.w3.org/1999/02/22-rdf-syntax-ns#"
   xmlns:svg="http://www.w3.org/2000/svg"
   xmlns="http://www.w3.org/2000/svg"
   xmlns:sodipodi="http://sodipodi.sourceforge.net/DTD/sodipodi-0.dtd"
   xmlns:inkscape="http://www.inkscape.org/namespaces/inkscape"
   width="128"
   height="128"
   viewBox="0 0 128 128.00001"
   version="1.1"
   id="svg6294"
   inkscape:version="0.92.3 (2405546, 2018-03-11)"
   sodipodi:docname="package_featured.svg">
  <defs
     id="defs6288" />
  <sodipodi:namedview
     id="base"
     pagecolor="#ffffff"
     bordercolor="#666666"
     borderopacity="1.0"
     inkscape:pageopacity="0.0"
     inkscape:pageshadow="2"
     inkscape:zoom="1.6432973"
     inkscape:cx="-52.526003"
     inkscape:cy="114.25764"
     inkscape:document-units="px"
     inkscape:current-layer="layer1"
     showgrid="false"
     units="px"
     inkscape:window-width="1366"
     inkscape:window-height="713"
     inkscape:window-x="0"
     inkscape:window-y="27"
     inkscape:window-maximized="1" />
  <metadata
     id="metadata6291">
    <rdf:RDF>
      <cc:Work
         rdf:about="">
        <dc:format>image/svg+xml</dc:format>
        <dc:type
           rdf:resource="http://purl.org/dc/dcmitype/StillImage" />
        <dc:title />
      </cc:Work>
    </rdf:RDF>
  </metadata>
  <g
     inkscape:label="Layer 1"
     inkscape:groupmode="layer"
     id="layer1"
     transform="translate(0,-994.51965)">
    <path
       sodipodi:type="inkscape:offset"
       inkscape:radius="1.2851087"
       inkscape:original="M 989.45117 963.0918 L 985.73047 963.24414 L 983.82031 964.70117 L 983.61914 967.41602 L 984.85352 969.66602 L 984.58203 972.07617 L 978.27734 972.71094 L 978.87109 978.74805 L 976.56641 978.64453 L 975.5293 977.60742 L 972.77344 977.51562 L 970.37109 979.23633 L 970.32617 981.76562 L 971.99414 984.76953 L 975.18555 984.91992 L 977.25977 983.50195 L 978.87891 983.57227 L 978.18555 990.64062 L 996.66992 990.42578 L 997.49219 983.34766 L 995.71289 983.33203 L 993.85938 984.55469 L 991.69336 984.45312 L 989.98047 982.7207 L 990.07422 979.95117 L 991.73828 978.375 L 994.57031 978.31641 L 996.21289 979.29688 L 997.56836 979.21484 L 997.09961 973.5625 L 989.95117 972.36133 L 989.87109 970.20117 L 991.05859 967.81836 L 991.00781 964.75195 L 989.45117 963.0918 z "
       style="fill:#000000;stroke:none;stroke-width:1px;stroke-linecap:butt;stroke-linejoin:miter;stroke-opacity:1"
       id="path5269-7-4"
       d="m 989.47266,961.80664 a 1.2852372,1.2852372 0 0 0 -0.0742,0.002 l -3.72071,0.15235 a 1.2852372,1.2852372 0 0 0 -0.72656,0.26172 l -1.91015,1.45703 a 1.2852372,1.2852372 0 0 0 -0.50196,0.92578 l -0.20117,2.71484 a 1.2852372,1.2852372 0 0 0 0.1543,0.71289 l 1.03906,1.89453 -0.10937,0.97461 -5.27344,0.5293 a 1.2852372,1.2852372 0 0 0 -1.15039,1.4043 l 0.44922,4.5625 -0.32422,-0.0156 -0.68555,-0.68359 a 1.2852372,1.2852372 0 0 0 -0.86523,-0.37695 l -2.75586,-0.0918 a 1.2852372,1.2852372 0 0 0 -0.79102,0.24023 l -2.40234,1.72071 a 1.2852372,1.2852372 0 0 0 -0.53711,1.02148 l -0.0449,2.5293 a 1.2852372,1.2852372 0 0 0 0.1621,0.64648 l 1.66797,3.00391 a 1.2852372,1.2852372 0 0 0 1.0625,0.66015 l 3.19141,0.15039 a 1.2852372,1.2852372 0 0 0 0.78516,-0.22265 l 1.54492,-1.05469 -0.54883,5.58984 a 1.2852372,1.2852372 0 0 0 1.29492,1.41016 l 18.48438,-0.21484 a 1.2852372,1.2852372 0 0 0 1.26172,-1.13672 l 0.82226,-7.07813 a 1.2852372,1.2852372 0 0 0 -1.26562,-1.43359 l -1.7793,-0.0156 a 1.2852372,1.2852372 0 0 0 -0.71875,0.21289 l -1.50391,0.99218 -1.24804,-0.0586 -0.97071,-0.98242 0.0566,-1.68946 0.92188,-0.87109 1.9668,-0.041 1.32617,0.79101 a 1.2852372,1.2852372 0 0 0 0.73633,0.17969 l 1.35546,-0.082 a 1.2852372,1.2852372 0 0 0 1.20313,-1.38867 l -0.46875,-5.65235 a 1.2852372,1.2852372 0 0 0 -1.06836,-1.16211 l -6.11523,-1.02734 -0.0293,-0.78711 1.04101,-2.08985 a 1.2852372,1.2852372 0 0 0 0.13477,-0.59374 l -0.0508,-3.06641 a 1.2852372,1.2852372 0 0 0 -0.34766,-0.85742 l -1.55664,-1.66016 a 1.2852372,1.2852372 0 0 0 -0.91601,-0.40625 z"
       transform="matrix(3.585744,0,0,3.585744,-3464.7324,-2444.2732)" />
    <path
       style="fill:#71c837;stroke:none;stroke-width:3.58574438px;stroke-linecap:butt;stroke-linejoin:miter;stroke-opacity:1"
       d="m 45.248251,1065.2687 -2.129407,-21.6467 22.60793,-2.2763 0.975847,-8.6451 -4.429562,-8.0679 0.721155,-9.734 6.849774,-5.2276 13.339211,-0.5408 5.588031,5.9486 0.180408,10.9958 -4.256915,8.5469 0.285737,7.7438 25.63051,4.308 1.6791,20.2692 -4.8569,0.291 -5.89405,-3.5126 -10.153331,0.2113 -5.968803,5.6522 -0.329612,9.9292 6.136384,6.2108 7.766224,0.3607 6.646088,-4.3828 6.38584,0.061 -2.95351,25.3795 -66.280435,0.7645 2.489906,-25.3404 -5.804078,-0.2551 -7.44184,5.0858 -11.443428,-0.5408 -5.981634,-10.7713 0.164884,-9.0719 8.610924,-6.1645 9.882961,0.3296 3.718228,3.7181 z"
       id="path5269-05"
       inkscape:connector-curvature="0"
       sodipodi:nodetypes="ccccccccccccccccccccccccccccccccccc" />
    <path
       style="fill:#aade87;stroke:none;stroke-width:3.58574438px;stroke-linecap:butt;stroke-linejoin:miter;stroke-opacity:1"
       d="m 62.273059,1024.6327 4.639905,-7.2384 4.68663,-3.3348 -1.755606,-4.3884 -6.849774,5.2276 z"
       id="path5291-9"
       inkscape:connector-curvature="0" />
    <path
       style="fill:#c6e9af;stroke:none;stroke-width:3.58574438px;stroke-linecap:butt;stroke-linejoin:miter;stroke-opacity:1"
       d="m 71.599594,1014.0595 11.583605,-4.9292 -13.339211,0.5408 z"
       id="path5293-4"
       inkscape:connector-curvature="0" />
    <path
       style="fill:#447821;stroke:none;stroke-width:3.58574438px;stroke-linecap:butt;stroke-linejoin:miter;stroke-opacity:1"
       d="m 88.77123,1015.0789 -4.558016,9.4691 4.738424,1.5268 z"
       id="path5295-6"
       inkscape:connector-curvature="0" />
    <path
       style="fill:#5aa02c;fill-opacity:1;stroke:none;stroke-width:3.58574438px;stroke-linecap:butt;stroke-linejoin:miter;stroke-opacity:1"
       d="m 84.213214,1024.548 -4.078883,8.4762 4.846129,9.3412 -0.285737,-7.7438 4.256915,-8.5468 z"
       id="path5297-9"
       inkscape:connector-curvature="0" />
    <path
       style="fill:#aade87;stroke:none;stroke-width:3.58574438px;stroke-linecap:butt;stroke-linejoin:miter;stroke-opacity:1"
       d="m 45.248251,1065.2687 2.376814,-16.0586 -4.506221,-5.5881 z"
       id="path5299-2"
       inkscape:connector-curvature="0" />
    <path
       style="fill:#c6e9af;stroke:none;stroke-width:3.58574438px;stroke-linecap:butt;stroke-linejoin:miter;stroke-opacity:1"
       d="m 47.625065,1049.2101 18.101709,-7.8644 -22.60793,2.2763 z"
       id="path5301-2"
       inkscape:connector-curvature="0" />
    <path
       style="fill:#447821;stroke:none;stroke-width:3.58574438px;stroke-linecap:butt;stroke-linejoin:miter;stroke-opacity:1"
       d="m 112.02191,1081.7645 -8.81683,18.6239 5.86332,6.7555 z"
       id="path5303-4"
       inkscape:connector-curvature="0" />
    <path
       style="fill:#5aa02c;stroke:none;stroke-width:3.58574438px;stroke-linecap:butt;stroke-linejoin:miter;stroke-opacity:1"
       d="m 103.20508,1100.3884 -60.417115,7.5203 66.280435,-0.7648 z"
       id="path5305-7"
       inkscape:connector-curvature="0" />
    <path
       style="fill:#5aa02c;stroke:none;stroke-width:3.58574438px;stroke-linecap:butt;stroke-linejoin:miter;stroke-opacity:1"
       d="m 107.43317,1067.2336 3.1778,-20.5602 1.6791,20.2692 z"
       id="path5307-7"
       inkscape:connector-curvature="0" />
    <path
       style="fill:#aade87;stroke:none;stroke-width:3.58574438px;stroke-linecap:butt;stroke-linejoin:miter;stroke-opacity:1"
       d="m 110.61097,1046.6734 -26.573411,0.9142 0.942901,-5.2222 z"
       id="path5309-5"
       inkscape:connector-curvature="0" />
    <path
       style="fill:#c6e9af;stroke:none;stroke-width:3.58574438px;stroke-linecap:butt;stroke-linejoin:miter;stroke-opacity:1"
       d="m 42.787965,1107.9087 8.622644,-26.0716 -6.132738,0.7309 z"
       id="path5311-4"
       inkscape:connector-curvature="0" />
    <path
       style="fill:#447821;stroke:none;stroke-width:3.58574438px;stroke-linecap:butt;stroke-linejoin:miter;stroke-opacity:1"
       d="m 45.277871,1082.568 -6.936099,-4.5164 -7.21043,4.6868 0.900611,4.6603 7.44184,-5.0859 z"
       id="path5313-8"
       inkscape:connector-curvature="0" />
    <path
       style="fill:#5aa02c;stroke:none;stroke-width:3.58574438px;stroke-linecap:butt;stroke-linejoin:miter;stroke-opacity:1"
       d="m 31.131342,1082.7384 -10.542817,4.1196 11.443428,0.5407 z"
       id="path5315-1"
       inkscape:connector-curvature="0" />
    <path
       style="fill:#b3ff80;stroke:none;stroke-width:3.58574438px;stroke-linecap:butt;stroke-linejoin:miter;stroke-opacity:1"
       d="m 14.606891,1076.0867 3.726146,-7.5889 6.399153,-3.6052 -1.349491,-4.0424 -8.610924,6.1646 z"
       id="path5317-2"
       inkscape:connector-curvature="0" />
    <path
       style="fill:#ccffaa;stroke:none;stroke-width:3.58574438px;stroke-linecap:butt;stroke-linejoin:miter;stroke-opacity:1"
       d="m 24.73219,1064.8926 8.53347,-3.7127 -9.882961,-0.3297 z"
       id="path5319-89"
       inkscape:connector-curvature="0" />
    <path
       style="fill:#aade87;stroke:none;stroke-width:3.58574438px;stroke-linecap:butt;stroke-linejoin:miter;stroke-opacity:1"
       d="m 112.02191,1081.7645 -5.37531,3.2009 -5.60846,4.6524 -2.048158,-3.5326 6.646088,-4.3828 z"
       id="path5321-3"
       inkscape:connector-curvature="0" />
    <path
       style="fill:#c6e9af;stroke:none;stroke-width:3.58574438px;stroke-linecap:butt;stroke-linejoin:miter;stroke-opacity:1"
       d="m 101.03814,1089.6178 -9.814382,-3.8933 7.766224,0.3607 z"
       id="path5323-6"
       inkscape:connector-curvature="0" />
    <path
       style="fill:#5aa02c;stroke:none;stroke-width:3.58574438px;stroke-linecap:butt;stroke-linejoin:miter;stroke-opacity:1"
       d="m 85.087374,1079.5137 -3.041106,-12.2656 6.628028,-6.8831 2.711493,3.5673 -5.968803,5.6522 z"
       id="path5325-8"
       inkscape:connector-curvature="0" />
    <path
       transform="matrix(0.84864601,0,0,0.84864601,-1447.219,174.63462)"
       sodipodi:type="inkscape:offset"
       inkscape:radius="3.4821992"
       inkscape:original="M 1815.25 1056.7695 L 1799.6406 1057.2578 L 1792.6289 1074.043 L 1799.3418 1092.5762 L 1822.5 1113.0195 L 1846.0117 1092.3984 L 1853.0781 1072.9824 L 1845.3594 1057.2578 L 1829.75 1056.7695 L 1822.5 1065.7695 L 1815.25 1056.7695 z "
       style="fill:#000000;stroke:none;stroke-width:1px;stroke-linecap:butt;stroke-linejoin:miter;stroke-opacity:1"
       id="path4272-0-1"
       d="m 1815.2246,1053.2871 a 3.4825474,3.4825474 0 0 0 -0.084,0 l -15.6094,0.4882 a 3.4825474,3.4825474 0 0 0 -3.1035,2.1387 l -7.0117,16.7852 a 3.4825474,3.4825474 0 0 0 -0.061,2.5273 l 6.7129,18.5332 a 3.4825474,3.4825474 0 0 0 0.9687,1.4258 l 23.1582,20.4434 a 3.4825474,3.4825474 0 0 0 4.6016,0.01 l 23.5117,-20.6211 a 3.4825474,3.4825474 0 0 0 0.9746,-1.4258 l 7.0664,-19.416 a 3.4825474,3.4825474 0 0 0 -0.1465,-2.7265 l -7.7187,-15.7246 a 3.4825474,3.4825474 0 0 0 -3.0156,-1.9454 l -15.6094,-0.4882 a 3.4825474,3.4825474 0 0 0 -2.8203,1.2968 l -4.5391,5.6348 -4.5391,-5.6348 a 3.4825474,3.4825474 0 0 0 -2.7363,-1.2988 z" />
    <path
       style="fill:#338000;stroke:none;stroke-width:3.58574438px;stroke-linecap:butt;stroke-linejoin:miter;stroke-opacity:1"
       d="m 88.674296,1060.365 12.864824,3.356 -10.153331,0.2113 z"
       id="path5327-02"
       inkscape:connector-curvature="0" />
    <path
       style="fill:#c83737;stroke:none;stroke-width:0.84864604px;stroke-linecap:butt;stroke-linejoin:miter;stroke-opacity:1"
       d="m 80.039455,1071.8717 -5.951223,14.245 5.696372,15.7277 19.653777,17.35 19.953939,-17.5003 5.99636,-16.4777 -6.5512,-13.3447 -13.24624,-0.4138 -6.152859,7.638 -6.152694,-7.638 z"
       id="path4272-05"
       inkscape:connector-curvature="0"
       sodipodi:nodetypes="ccccccccccc" />
    <path
       style="fill:#de8787;stroke:none;stroke-width:0.84864604px;stroke-linecap:butt;stroke-linejoin:miter;stroke-opacity:1"
       d="m 74.088232,1086.1167 5.696372,15.7277 -1.302449,-15.5088 3.911306,-10.3861 -2.354006,-4.0778 z"
       id="path4292-1"
       inkscape:connector-curvature="0"
       sodipodi:nodetypes="cccccc" />
    <path
       style="fill:#d35f5f;stroke:none;stroke-width:0.84864604px;stroke-linecap:butt;stroke-linejoin:miter;stroke-opacity:1"
       d="m 82.393461,1075.9495 10.892226,-4.4916 -13.246232,0.4138 z"
       id="path4294-1"
       inkscape:connector-curvature="0" />
    <path
       style="fill:#de8787;stroke:none;stroke-width:0.84864604px;stroke-linecap:butt;stroke-linejoin:miter;stroke-opacity:1"
       d="m 99.438381,1079.0959 7.858579,-4.3467 -1.70572,-3.2913 z"
       id="path4296-0"
       inkscape:connector-curvature="0" />
    <path
       style="fill:#d35f5f;stroke:none;stroke-width:0.84864604px;stroke-linecap:butt;stroke-linejoin:miter;stroke-opacity:1"
       d="m 107.29696,1074.7492 11.54052,-2.8775 -13.24624,-0.4138 z"
       id="path4298-8"
       inkscape:connector-curvature="0" />
    <path
       style="fill:#782121;stroke:none;stroke-width:0.84864604px;stroke-linecap:butt;stroke-linejoin:miter;stroke-opacity:1"
       d="m 79.784604,1101.8444 19.561283,12.0603 0.09183,5.2897 z"
       id="path4300-5"
       inkscape:connector-curvature="0" />
    <path
       style="fill:#a02c2c;stroke:none;stroke-width:0.84864604px;stroke-linecap:butt;stroke-linejoin:miter;stroke-opacity:1"
       d="m 99.345887,1113.9047 20.046433,-12.2106 -19.953939,17.5003 z"
       id="path4302-0"
       inkscape:connector-curvature="0" />
    <path
       style="fill:#a02c2c;stroke:none;stroke-width:0.84864604px;stroke-linecap:butt;stroke-linejoin:miter;stroke-opacity:1"
       d="m 119.39232,1101.6941 0.65637,-14.7932 5.33999,-1.6845 z"
       id="path4304-6"
       inkscape:connector-curvature="0" />
  </g>
</svg>
