<?xml version="1.0" encoding="UTF-8" standalone="no"?>
<!-- Created with Inkscape (http://www.inkscape.org/) -->

<svg
   xmlns:dc="http://purl.org/dc/elements/1.1/"
   xmlns:cc="http://creativecommons.org/ns#"
   xmlns:rdf="http://www.w3.org/1999/02/22-rdf-syntax-ns#"
   xmlns:svg="http://www.w3.org/2000/svg"
   xmlns="http://www.w3.org/2000/svg"
   xmlns:sodipodi="http://sodipodi.sourceforge.net/DTD/sodipodi-0.dtd"
   xmlns:inkscape="http://www.inkscape.org/namespaces/inkscape"
   width="128"
   height="128"
   viewBox="0 0 128 128.00001"
   version="1.1"
   id="svg6294"
   inkscape:version="0.92.3 (2405546, 2018-03-11)"
   sodipodi:docname="package_update.svg">
  <defs
     id="defs6288" />
  <sodipodi:namedview
     id="base"
     pagecolor="#ffffff"
     bordercolor="#666666"
     borderopacity="1.0"
     inkscape:pageopacity="0.0"
     inkscape:pageshadow="2"
     inkscape:zoom="2.4737607"
     inkscape:cx="-11.631339"
     inkscape:cy="55.654498"
     inkscape:document-units="px"
     inkscape:current-layer="layer1"
     showgrid="false"
     units="px"
     inkscape:window-width="1366"
     inkscape:window-height="713"
     inkscape:window-x="0"
     inkscape:window-y="27"
     inkscape:window-maximized="1" />
  <metadata
     id="metadata6291">
    <rdf:RDF>
      <cc:Work
         rdf:about="">
        <dc:format>image/svg+xml</dc:format>
        <dc:type
           rdf:resource="http://purl.org/dc/dcmitype/StillImage" />
        <dc:title />
      </cc:Work>
    </rdf:RDF>
  </metadata>
  <g
     inkscape:label="Layer 1"
     inkscape:groupmode="layer"
     id="layer1"
     transform="translate(0,-994.51965)">
    <path
       sodipodi:type="inkscape:offset"
       inkscape:radius="1.2851087"
       inkscape:original="M 989.45117 963.0918 L 985.73047 963.24414 L 983.82031 964.70117 L 983.61914 967.41602 L 984.85352 969.66602 L 984.58203 972.07617 L 978.27734 972.71094 L 978.87109 978.74805 L 976.56641 978.64453 L 975.5293 977.60742 L 972.77344 977.51562 L 970.37109 979.23633 L 970.32617 981.76562 L 971.99414 984.76953 L 975.18555 984.91992 L 977.25977 983.50195 L 978.87891 983.57227 L 978.18555 990.64062 L 996.66992 990.42578 L 997.49219 983.34766 L 995.71289 983.33203 L 993.85938 984.55469 L 991.69336 984.45312 L 989.98047 982.7207 L 990.07422 979.95117 L 991.73828 978.375 L 994.57031 978.31641 L 996.21289 979.29688 L 997.56836 979.21484 L 997.09961 973.5625 L 989.95117 972.36133 L 989.87109 970.20117 L 991.05859 967.81836 L 991.00781 964.75195 L 989.45117 963.0918 z "
       style="fill:#000000;stroke:none;stroke-width:1px;stroke-linecap:butt;stroke-linejoin:miter;stroke-opacity:1"
       id="path5269-7-9"
       d="m 989.47266,961.80664 a 1.2852372,1.2852372 0 0 0 -0.0742,0.002 l -3.72071,0.15235 a 1.2852372,1.2852372 0 0 0 -0.72656,0.26172 l -1.91015,1.45703 a 1.2852372,1.2852372 0 0 0 -0.50196,0.92578 l -0.20117,2.71484 a 1.2852372,1.2852372 0 0 0 0.1543,0.71289 l 1.03906,1.89453 -0.10937,0.97461 -5.27344,0.5293 a 1.2852372,1.2852372 0 0 0 -1.15039,1.4043 l 0.44922,4.5625 -0.32422,-0.0156 -0.68555,-0.68359 a 1.2852372,1.2852372 0 0 0 -0.86523,-0.37695 l -2.75586,-0.0918 a 1.2852372,1.2852372 0 0 0 -0.79102,0.24023 l -2.40234,1.72071 a 1.2852372,1.2852372 0 0 0 -0.53711,1.02148 l -0.0449,2.5293 a 1.2852372,1.2852372 0 0 0 0.1621,0.64648 l 1.66797,3.00391 a 1.2852372,1.2852372 0 0 0 1.0625,0.66015 l 3.19141,0.15039 a 1.2852372,1.2852372 0 0 0 0.78516,-0.22265 l 1.54492,-1.05469 -0.54883,5.58984 a 1.2852372,1.2852372 0 0 0 1.29492,1.41016 l 18.48438,-0.21484 a 1.2852372,1.2852372 0 0 0 1.26172,-1.13672 l 0.82226,-7.07813 a 1.2852372,1.2852372 0 0 0 -1.26562,-1.43359 l -1.7793,-0.0156 a 1.2852372,1.2852372 0 0 0 -0.71875,0.21289 l -1.50391,0.99218 -1.24804,-0.0586 -0.97071,-0.98242 0.0566,-1.68946 0.92188,-0.87109 1.9668,-0.041 1.32617,0.79101 a 1.2852372,1.2852372 0 0 0 0.73633,0.17969 l 1.35546,-0.082 a 1.2852372,1.2852372 0 0 0 1.20313,-1.38867 l -0.46875,-5.65235 a 1.2852372,1.2852372 0 0 0 -1.06836,-1.16211 l -6.11523,-1.02734 -0.0293,-0.78711 1.04101,-2.08985 a 1.2852372,1.2852372 0 0 0 0.13477,-0.59374 l -0.0508,-3.06641 a 1.2852372,1.2852372 0 0 0 -0.34766,-0.85742 l -1.55664,-1.66016 a 1.2852372,1.2852372 0 0 0 -0.91601,-0.40625 z"
       transform="matrix(3.58572,0,0,3.58572,-3464.7092,-2444.2491)" />
    <path
       style="fill:#71c837;stroke:none;stroke-width:3.58572006px;stroke-linecap:butt;stroke-linejoin:miter;stroke-opacity:1"
       d="m 45.248117,1065.2691 -2.129394,-21.6465 22.607779,-2.2764 0.97584,-8.6449 -4.429531,-8.0679 0.721149,-9.734 6.849729,-5.2277 13.339121,-0.5407 5.587994,5.9487 0.180406,10.9956 -4.256886,8.5469 0.285735,7.7437 25.630331,4.3081 1.67908,20.269 -4.85685,0.2911 -5.89401,-3.5126 -10.153264,0.2112 -5.968764,5.6522 -0.32961,9.9292 6.136341,6.2107 7.766168,0.3607 6.646049,-4.3828 6.3858,0.062 -2.9535,25.3793 -66.279984,0.7645 2.48989,-25.3403 -5.80404,-0.2551 -7.44179,5.0858 -11.443352,-0.5407 -5.981593,-10.7713 0.164883,-9.0718 8.610866,-6.1645 9.882896,0.3295 3.718202,3.7183 z"
       id="path5269-0"
       inkscape:connector-curvature="0"
       sodipodi:nodetypes="ccccccccccccccccccccccccccccccccccc" />
    <path
       style="fill:#aade87;stroke:none;stroke-width:3.58572006px;stroke-linecap:butt;stroke-linejoin:miter;stroke-opacity:1"
       d="m 62.272811,1024.6334 4.639872,-7.2384 4.686599,-3.3348 -1.755593,-4.3885 -6.849729,5.2277 z"
       id="path5291-8"
       inkscape:connector-curvature="0" />
    <path
       style="fill:#c6e9af;stroke:none;stroke-width:3.58572006px;stroke-linecap:butt;stroke-linejoin:miter;stroke-opacity:1"
       d="m 71.599282,1014.0602 11.583528,-4.9292 -13.339121,0.5407 z"
       id="path5293-8"
       inkscape:connector-curvature="0" />
    <path
       style="fill:#447821;stroke:none;stroke-width:3.58572006px;stroke-linecap:butt;stroke-linejoin:miter;stroke-opacity:1"
       d="m 88.770804,1015.0797 -4.557985,9.4689 4.738391,1.527 z"
       id="path5295-5"
       inkscape:connector-curvature="0" />
    <path
       style="fill:#5aa02c;fill-opacity:1;stroke:none;stroke-width:3.58572006px;stroke-linecap:butt;stroke-linejoin:miter;stroke-opacity:1"
       d="m 84.212819,1024.5486 -4.078857,8.4763 4.846097,9.341 -0.285735,-7.7437 4.256886,-8.5466 z"
       id="path5297-0"
       inkscape:connector-curvature="0" />
    <path
       style="fill:#aade87;stroke:none;stroke-width:3.58572006px;stroke-linecap:butt;stroke-linejoin:miter;stroke-opacity:1"
       d="m 45.248117,1065.2691 2.376797,-16.0585 -4.506191,-5.588 z"
       id="path5299-9"
       inkscape:connector-curvature="0" />
    <path
       style="fill:#c6e9af;stroke:none;stroke-width:3.58572006px;stroke-linecap:butt;stroke-linejoin:miter;stroke-opacity:1"
       d="m 47.624914,1049.2106 18.101588,-7.8644 -22.607779,2.2764 z"
       id="path5301-6"
       inkscape:connector-curvature="0" />
    <path
       style="fill:#447821;stroke:none;stroke-width:3.58572006px;stroke-linecap:butt;stroke-linejoin:miter;stroke-opacity:1"
       d="m 112.02133,1081.7648 -8.81677,18.6238 5.86327,6.7555 z"
       id="path5303-3"
       inkscape:connector-curvature="0" />
    <path
       style="fill:#5aa02c;stroke:none;stroke-width:3.58572006px;stroke-linecap:butt;stroke-linejoin:miter;stroke-opacity:1"
       d="m 103.20456,1100.3886 -60.416714,7.5201 66.279984,-0.7646 z"
       id="path5305-8"
       inkscape:connector-curvature="0" />
    <path
       style="fill:#5aa02c;stroke:none;stroke-width:3.58572006px;stroke-linecap:butt;stroke-linejoin:miter;stroke-opacity:1"
       d="m 107.43262,1067.2341 3.17777,-20.5601 1.67908,20.269 z"
       id="path5307-5"
       inkscape:connector-curvature="0" />
    <path
       style="fill:#aade87;stroke:none;stroke-width:3.58572006px;stroke-linecap:butt;stroke-linejoin:miter;stroke-opacity:1"
       d="m 110.61039,1046.674 -26.573226,0.9142 0.942895,-5.2223 z"
       id="path5309-6"
       inkscape:connector-curvature="0" />
    <path
       style="fill:#c6e9af;stroke:none;stroke-width:3.58572006px;stroke-linecap:butt;stroke-linejoin:miter;stroke-opacity:1"
       d="m 42.787846,1107.9087 8.622587,-26.0713 -6.132697,0.7309 z"
       id="path5311-1"
       inkscape:connector-curvature="0" />
    <path
       style="fill:#447821;stroke:none;stroke-width:3.58572006px;stroke-linecap:butt;stroke-linejoin:miter;stroke-opacity:1"
       d="m 45.277736,1082.5683 -6.936052,-4.5163 -7.210383,4.6867 0.900605,4.6603 7.44179,-5.0858 z"
       id="path5313-1"
       inkscape:connector-curvature="0" />
    <path
       style="fill:#5aa02c;stroke:none;stroke-width:3.58572006px;stroke-linecap:butt;stroke-linejoin:miter;stroke-opacity:1"
       d="m 31.131301,1082.7387 -10.542747,4.1196 11.443352,0.5407 z"
       id="path5315-5"
       inkscape:connector-curvature="0" />
    <path
       style="fill:#b3ff80;stroke:none;stroke-width:3.58572006px;stroke-linecap:butt;stroke-linejoin:miter;stroke-opacity:1"
       d="m 14.606961,1076.087 3.726121,-7.5888 6.39911,-3.6051 -1.349482,-4.0424 -8.610866,6.1645 z"
       id="path5317-9"
       inkscape:connector-curvature="0" />
    <path
       style="fill:#ccffaa;stroke:none;stroke-width:3.58572006px;stroke-linecap:butt;stroke-linejoin:miter;stroke-opacity:1"
       d="m 24.732192,1064.8931 8.533414,-3.7128 -9.882896,-0.3296 z"
       id="path5319-8"
       inkscape:connector-curvature="0" />
    <path
       style="fill:#aade87;stroke:none;stroke-width:3.58572006px;stroke-linecap:butt;stroke-linejoin:miter;stroke-opacity:1"
       d="m 112.02133,1081.7648 -5.37527,3.2009 -5.60844,4.6524 -2.048139,-3.5326 6.646049,-4.3828 z"
       id="path5321-4"
       inkscape:connector-curvature="0" />
    <path
       style="fill:#c6e9af;stroke:none;stroke-width:3.58572006px;stroke-linecap:butt;stroke-linejoin:miter;stroke-opacity:1"
       d="m 101.03762,1089.6181 -9.814307,-3.8933 7.766168,0.3607 z"
       id="path5323-8"
       inkscape:connector-curvature="0" />
    <path
       transform="matrix(0,-0.8100747,0.8100747,0,-773.54373,2123.5948)"
       sodipodi:type="inkscape:offset"
       inkscape:radius="4.8473926"
       inkscape:original="M 1274.9141 1063.2988 L 1240.7949 1082.9219 L 1274.207 1107.1406 L 1274.75 1094.8945 L 1302.8125 1094.5195 L 1302.6875 1076.2695 L 1274.9141 1076.3809 L 1274.9141 1063.2988 z "
       style="fill:#000000;stroke:none;stroke-width:1px;stroke-linecap:butt;stroke-linejoin:miter;stroke-opacity:1"
       id="path3921-0-7-6-30"
       d="m 1274.7715,1058.4531 a 4.8478773,4.8478773 0 0 0 -2.2735,0.6446 l -34.1191,19.623 a 4.8478773,4.8478773 0 0 0 -0.4297,8.127 l 33.4121,24.2168 a 4.8478773,4.8478773 0 0 0 7.6875,-3.709 l 0.3418,-7.6758 23.4864,-0.3125 a 4.8478773,4.8478773 0 0 0 4.7832,-4.8809 l -0.125,-18.25 a 4.8478773,4.8478773 0 0 0 -4.8672,-4.8144 l -22.9063,0.092 v -8.2149 a 4.8478773,4.8478773 0 0 0 -4.9902,-4.8457 z" />
    <path
       style="fill:#5aa02c;stroke:none;stroke-width:3.58572006px;stroke-linecap:butt;stroke-linejoin:miter;stroke-opacity:1"
       d="m 85.086972,1079.5141 -3.041085,-12.2656 6.627982,-6.883 2.711477,3.5672 -5.968764,5.6522 z"
       id="path5325-1"
       inkscape:connector-curvature="0" />
    <path
       style="fill:#338000;stroke:none;stroke-width:3.58572006px;stroke-linecap:butt;stroke-linejoin:miter;stroke-opacity:1"
       d="m 88.673869,1060.3655 12.864741,3.356 -10.153264,0.2112 z"
       id="path5327-0"
       inkscape:connector-curvature="0" />
    <path
       style="fill:#ff6600;stroke:none;stroke-width:0.81007475px;stroke-linecap:butt;stroke-linejoin:miter;stroke-opacity:1"
       d="m 123.32248,1091.3923 -19.61864,27.0652 -15.895531,-27.6379 H 98.40539 l -0.0903,-22.4992 14.78396,-0.1016 0.30379,22.7328 z"
       id="path3921-6-5-44"
       inkscape:connector-curvature="0" />
    <path
       style="fill:#aa4400;fill-opacity:1;stroke:none;stroke-width:0.81007475px;stroke-linecap:butt;stroke-linejoin:miter;stroke-opacity:1"
       d="m 123.32248,1091.3923 -17.41892,18.6311 -2.19972,8.4341 z"
       id="path3923-3-0-4"
       inkscape:connector-curvature="0"
       sodipodi:nodetypes="cccc" />
    <path
       style="fill:#ff9955;fill-opacity:1;stroke:none;stroke-width:0.81007475px;stroke-linecap:butt;stroke-linejoin:miter;stroke-opacity:1"
       d="m 87.808309,1090.8196 10.608161,3.5751 -0.0158,-3.5751 z"
       id="path3927-7-8-47"
       inkscape:connector-curvature="0"
       sodipodi:nodetypes="cccc" />
    <path
       style="fill:#ff7f2a;stroke:none;stroke-width:0.81007475px;stroke-linecap:butt;stroke-linejoin:miter;stroke-opacity:1"
       d="m 98.41647,1094.3947 4.20795,-21.6253 -4.30932,-4.449 z"
       id="path3929-6-1-6"
       inkscape:connector-curvature="0"
       sodipodi:nodetypes="cccc" />
    <path
       style="fill:#d45500;stroke:none;stroke-width:0.81007475px;stroke-linecap:butt;stroke-linejoin:miter;stroke-opacity:1"
       d="m 113.50405,1094.7997 -2.76659,-5.7299 2.36159,-20.8506 z"
       id="path3931-1-2-3"
       inkscape:connector-curvature="0"
       sodipodi:nodetypes="cccc" />
    <path
       style="fill:#ff9955;fill-opacity:1;stroke:none;stroke-width:0.81007475px;stroke-linecap:butt;stroke-linejoin:miter;stroke-opacity:1"
       d="m 102.62442,1072.7694 -4.30932,-4.449 14.78395,-0.1016 z"
       id="path3933-5-2-17"
       inkscape:connector-curvature="0"
       sodipodi:nodetypes="cccc" />
    <path
       style="fill:#ff9955;fill-opacity:1;stroke:none;stroke-width:0.81007475px;stroke-linecap:butt;stroke-linejoin:miter;stroke-opacity:1"
       d="m 113.40284,1090.952 0.10136,3.8477 9.81842,-3.4074 z"
       id="path3935-0-6-5"
       inkscape:connector-curvature="0"
       sodipodi:nodetypes="cccc" />
  </g>
</svg>
