<?xml version="1.0" encoding="UTF-8" standalone="no"?>
<svg
   xmlns:dc="http://purl.org/dc/elements/1.1/"
   xmlns:cc="http://creativecommons.org/ns#"
   xmlns:rdf="http://www.w3.org/1999/02/22-rdf-syntax-ns#"
   xmlns:svg="http://www.w3.org/2000/svg"
   xmlns="http://www.w3.org/2000/svg"
   id="svg8"
   version="1.1"
   viewBox="0 0 128 128.00001"
   height="128"
   width="128">
  <defs
     id="defs2" />
  <metadata
     id="metadata5">
    <rdf:RDF>
      <cc:Work
         rdf:about="">
        <dc:format>image/svg+xml</dc:format>
        <dc:type
           rdf:resource="http://purl.org/dc/dcmitype/StillImage" />
        <dc:title></dc:title>
      </cc:Work>
    </rdf:RDF>
  </metadata>
  <g
     transform="translate(0,-994.5197)"
     id="layer1">
    <path
       d="m 39.34209,1004.5205 a 7.2097515,7.2097515 0 0 0 -3.219928,0.7378 l -20.955268,10.2945 a 7.2097515,7.2097515 0 0 0 -4.02062,6.1254 l -1.138127,23.7635 a 7.2097515,7.2097515 0 0 0 1.629981,4.9184 l 1.349739,1.6414 5.622004,54.0525 a 7.2097515,7.2097515 0 0 0 8.870531,6.2626 l 49.677254,-12.0276 21.858912,1.8073 a 7.2097515,7.2097515 0 0 0 6.966022,-3.8033 l 6.75441,-12.7367 a 7.2097515,7.2097515 0 0 0 0.45183,-1.0581 l 4.42097,-12.9999 a 7.2097515,7.2097515 0 0 0 0.17729,-4.049 l -5.19878,-21.0525 a 7.2097515,7.2097515 0 0 0 -1.40694,-2.8255 l -15.155959,-18.616 a 7.2097515,7.2097515 0 0 0 -1.338301,-1.2696 l -19.805706,-14.4699 a 7.2097515,7.2097515 0 0 0 -3.49445,-1.3498 l -31.324239,-3.3111 a 7.2097515,7.2097515 0 0 0 -0.720622,-0.035 z"
       id="path1874-4"
       style="fill:#000000;stroke:none;stroke-width:0.77476531px;stroke-linecap:butt;stroke-linejoin:miter;stroke-opacity:1" />
    <path
       id="path1874"
       d="m 19.802805,1047.8491 5.980569,57.4617 53.679159,-12.9973 -2.930316,-4.3483 -45.493567,13.1089 16.710286,-30.4662 -3.123305,-1.158 -16.157894,29.9282 -5.014742,-52.2584 z"
       style="fill:#b3b3b3;stroke:none;stroke-width:0.77476531px;stroke-linecap:butt;stroke-linejoin:miter;stroke-opacity:1" />
    <path
       id="path1862"
       d="m 17.205109,1045.7829 19.698813,23.956 25.012155,22.0546 13.388977,-27.6992 6.107086,-24.5501 -8.058374,-8.0586 -31.256432,2.3531 z"
       style="fill:#ececec;stroke:none;stroke-width:0.77476531px;stroke-linecap:butt;stroke-linejoin:miter;stroke-opacity:1" />
    <path
       id="path1864"
       d="m 17.205109,1045.7829 1.139148,-23.7596 20.956387,-10.2937 20.402098,5.4122 13.391077,8.6252 0.25992,5.7186 -31.256425,2.3531 z"
       style="fill:#c83737;stroke:none;stroke-width:0.77476531px;stroke-linecap:butt;stroke-linejoin:miter;stroke-opacity:1" />
    <path
       id="path1866"
       d="m 61.916077,1091.7935 37.692381,3.1195 6.758652,-12.7375 -5.19896,-23.3954 -11.957585,-18.4561 -7.798425,-0.7798 -6.107086,24.5501 z"
       style="fill:#c83737;stroke:none;stroke-width:0.77476531px;stroke-linecap:butt;stroke-linejoin:miter;stroke-opacity:1" />
    <path
       id="path1868"
       d="m 106.36711,1082.1755 4.4191,-12.9973 -5.19895,-21.0559 -18.326299,-14.2971 1.949604,6.4988 11.957585,18.4561 z"
       style="fill:#ececec;stroke:none;stroke-width:0.77476531px;stroke-linecap:butt;stroke-linejoin:miter;stroke-opacity:1" />
    <path
       id="path1870"
       d="m 39.300644,1011.7296 31.325802,3.3095 10.687146,12.5474 -8.219773,-1.8195 -13.391077,-8.6252 z"
       style="fill:#ececec;stroke:none;stroke-width:0.77476531px;stroke-linecap:butt;stroke-linejoin:miter;stroke-opacity:1" />
    <path
       id="path1872"
       d="m 81.313592,1027.5865 5.947369,6.2387 18.326299,14.2971 -15.155775,-18.6161 -19.805039,-14.4671 z"
       style="fill:#c83737;stroke:none;stroke-width:0.77476531px;stroke-linecap:butt;stroke-linejoin:miter;stroke-opacity:1" />
    <path
       id="path1912"
       d="m 17.205109,1045.7829 5.569627,-21.8208 21.458241,-10.924 -4.932333,-1.3085 -20.956387,10.2937 z"
       style="fill:#d35f5f;stroke:none;stroke-width:0.92452538px;stroke-linecap:butt;stroke-linejoin:miter;stroke-opacity:1" />
    <path
       id="path1916"
       d="m 44.232977,1013.0381 26.393469,2.001 -31.325802,-3.3095 z"
       style="fill:#f9f9f9;stroke:none;stroke-width:0.92452538px;stroke-linecap:butt;stroke-linejoin:miter;stroke-opacity:1" />
    <path
       id="path1920"
       d="m 99.608448,1094.913 5.700182,-17.5008 1.05848,4.7633 z"
       style="fill:#a02c2c;stroke:none;stroke-width:0.92452538px;stroke-linecap:butt;stroke-linejoin:miter;stroke-opacity:1" />
    <path
       id="path1922"
       d="m 105.30863,1077.4122 1.87109,-8.4982 -1.59246,-20.7917 5.19895,21.0559 -4.4191,12.9973 z"
       style="fill:#b3b3b3;stroke:none;stroke-width:0.92452538px;stroke-linecap:butt;stroke-linejoin:miter;stroke-opacity:1" />
    <path
       id="path1924"
       d="m 81.41214,1039.5442 9.654177,3.644 -1.855752,-2.8642 z"
       style="fill:#d35f5f;stroke:none;stroke-width:0.92452538px;stroke-linecap:butt;stroke-linejoin:miter;stroke-opacity:1" />
    <path
       id="path1926"
       d="m 91.066317,1043.1882 -3.80536,-9.363 1.949608,6.4988 z"
       style="fill:#f9f9f9;stroke:none;stroke-width:0.92452538px;stroke-linecap:butt;stroke-linejoin:miter;stroke-opacity:1" />
    <path
       id="path1928"
       d="m 73.353766,1031.4856 -2.636797,-7.2497 2.37685,1.5311 z"
       style="fill:#a02c2c;stroke:none;stroke-width:0.92452538px;stroke-linecap:butt;stroke-linejoin:miter;stroke-opacity:1" />
    <path
       id="path1930"
       d="m 73.093819,1025.767 8.219773,1.8195 -10.596623,-3.3506 z"
       style="fill:#b3b3b3;stroke:none;stroke-width:0.92452538px;stroke-linecap:butt;stroke-linejoin:miter;stroke-opacity:1" />
  </g>
</svg>
