<?xml version="1.0" encoding="UTF-8" standalone="no"?>
<svg
   xmlns:dc="http://purl.org/dc/elements/1.1/"
   xmlns:cc="http://creativecommons.org/ns#"
   xmlns:rdf="http://www.w3.org/1999/02/22-rdf-syntax-ns#"
   xmlns:svg="http://www.w3.org/2000/svg"
   xmlns="http://www.w3.org/2000/svg"
   id="svg8"
   version="1.1"
   viewBox="0 0 128 128.00001"
   height="128"
   width="128">
  <defs
     id="defs2" />
  <metadata
     id="metadata5">
    <rdf:RDF>
      <cc:Work
         rdf:about="">
        <dc:format>image/svg+xml</dc:format>
        <dc:type
           rdf:resource="http://purl.org/dc/dcmitype/StillImage" />
        <dc:title></dc:title>
      </cc:Work>
    </rdf:RDF>
  </metadata>
  <g
     transform="translate(0,-994.5197)"
     id="layer1">
    <path
       d="m 105.99899,1013.549 c -0.20637,0.021 -0.41205,0.025 -0.61705,0.046 l -5.412794,0.6404 c -1.35272,0.1605 -2.63993,0.6717 -3.73353,1.484 l -35.30428,26.1813 c -3.12428,2.7806 0,0 -3.12428,2.7806 l -4.07719,0.8204 -12.9423,-1.6171 c -1.46229,-0.1813 -2.94632,0.052 -4.28024,0.6796 l -12.20028,5.7097 -5.97518,-0.3906 c -6.84654,-0.4506 -10.8979097,7.5207 -6.4985,12.786 l 32.65647,39.0457 c 4.24196,5.075 12.47858,2.8993 13.66091,-3.6085 l 1.03879,-5.7333 9.27913,-10.8256 c 0.94467,-1.1001 1.56404,-2.4414 1.78861,-3.874 l 1.58557,-10.1853 0.7811,-1.5855 40.350004,-29.7274 c 1.19974,-0.8838 2.12129,-2.0924 2.65561,-3.4836 l 1.85112,-4.8269 c 1.12954,-2.9397 0.38071,-6.2701 -1.898,-8.4435 l -3.90532,-3.7257 c -1.52513,-1.4532 -3.57323,-2.228 -5.67837,-2.1478 z"
       id="path1496-5"
       style="fill:#000000;stroke:none;stroke-width:1.05808759px;stroke-linecap:butt;stroke-linejoin:miter;stroke-opacity:1" />
    <path
       id="path1496"
       d="m 52.782136,1057.6598 48.103474,-35.678 5.40754,-0.6365 3.90509,3.7274 -1.8504,4.825 -48.288034,35.5724 z"
       style="fill:#ac9393;stroke:none;stroke-width:1.05808759px;stroke-linecap:butt;stroke-linejoin:miter;stroke-opacity:1" />
    <path
       id="path1506"
       d="m 52.782136,1057.6598 48.103474,-35.678 1.0675,3.0765 z"
       style="fill:#c8b7b7;stroke:none;stroke-width:1.05808759px;stroke-linecap:butt;stroke-linejoin:miter;stroke-opacity:1" />
    <path
       id="path1510"
       d="m 60.059806,1065.4701 48.288034,-35.5724 -2.62932,-1.0737 z"
       style="fill:#6c5353;stroke:none;stroke-width:1.05808759px;stroke-linecap:butt;stroke-linejoin:miter;stroke-opacity:1" />
    <path
       id="path1494"
       d="m 25.801626,1058.1924 14.02277,-6.5677 14.20029,1.775 5.3228,-1.0737 6.9006,8.8588 -1.9282,3.9303 -1.77504,11.3601 -10.65022,12.4254 -1.42003,7.8101 -32.66066,-39.0509 z"
       style="fill:#c83737;stroke:none;stroke-width:1.05808759px;stroke-linecap:butt;stroke-linejoin:miter;stroke-opacity:1" />
    <path
       id="path1498"
       d="m 25.801626,1058.1924 14.64402,-1.8639 -0.62121,-4.7038 z"
       style="fill:#d35f5f;stroke:none;stroke-width:1.05808759px;stroke-linecap:butt;stroke-linejoin:miter;stroke-opacity:1" />
    <path
       id="path1500"
       d="m 54.024686,1053.3997 4.5263,2.1301 0.7965,-3.2038 z"
       style="fill:#d35f5f;stroke:none;stroke-width:1.05808759px;stroke-linecap:butt;stroke-linejoin:miter;stroke-opacity:1" />
    <path
       id="path1502"
       d="m 50.474596,1096.7107 -2.46115,-11.3741 10.38631,-11.1394 4.14509,2.278 -10.65022,12.4254 z"
       style="fill:#782121;stroke:none;stroke-width:1.05808759px;stroke-linecap:butt;stroke-linejoin:miter;stroke-opacity:1" />
    <path
       id="path1504"
       d="m 58.399756,1074.1972 2.16509,-10.1666 5.68324,-2.8458 -1.9282,3.9303 -1.77504,11.3601 z"
       style="fill:#a02c2c;stroke:none;stroke-width:1.05808759px;stroke-linecap:butt;stroke-linejoin:miter;stroke-opacity:1" />
    <path
       id="path1508"
       d="m 101.95311,1025.0583 4.34004,-3.713 -5.40754,0.6365 z"
       style="fill:#e3dbdb;stroke:none;stroke-width:1.05808759px;stroke-linecap:butt;stroke-linejoin:miter;stroke-opacity:1" />
    <path
       id="path1512"
       d="m 105.71852,1028.824 4.47972,-3.7513 -1.8504,4.825 z"
       style="fill:#916f6f;stroke:none;stroke-width:1.05808759px;stroke-linecap:butt;stroke-linejoin:miter;stroke-opacity:1" />
  </g>
</svg>
