<?xml version="1.0" encoding="UTF-8" standalone="no"?>
<!-- Created with Inkscape (http://www.inkscape.org/) -->

<svg
   xmlns:dc="http://purl.org/dc/elements/1.1/"
   xmlns:cc="http://creativecommons.org/ns#"
   xmlns:rdf="http://www.w3.org/1999/02/22-rdf-syntax-ns#"
   xmlns:svg="http://www.w3.org/2000/svg"
   xmlns="http://www.w3.org/2000/svg"
   xmlns:sodipodi="http://sodipodi.sourceforge.net/DTD/sodipodi-0.dtd"
   xmlns:inkscape="http://www.inkscape.org/namespaces/inkscape"
   width="128"
   height="128"
   viewBox="0 0 128 128.00001"
   version="1.1"
   id="svg6294"
   inkscape:version="0.92.3 (2405546, 2018-03-11)"
   sodipodi:docname="race_giveup.svg">
  <defs
     id="defs6288" />
  <sodipodi:namedview
     id="base"
     pagecolor="#ffffff"
     bordercolor="#666666"
     borderopacity="1.0"
     inkscape:pageopacity="0.0"
     inkscape:pageshadow="2"
     inkscape:zoom="2.3239734"
     inkscape:cx="26.646411"
     inkscape:cy="67.267814"
     inkscape:document-units="px"
     inkscape:current-layer="layer1"
     showgrid="false"
     units="px"
     inkscape:window-width="1366"
     inkscape:window-height="713"
     inkscape:window-x="0"
     inkscape:window-y="27"
     inkscape:window-maximized="1" />
  <metadata
     id="metadata6291">
    <rdf:RDF>
      <cc:Work
         rdf:about="">
        <dc:format>image/svg+xml</dc:format>
        <dc:type
           rdf:resource="http://purl.org/dc/dcmitype/StillImage" />
        <dc:title />
      </cc:Work>
    </rdf:RDF>
  </metadata>
  <g
     inkscape:label="Layer 1"
     inkscape:groupmode="layer"
     id="layer1"
     transform="translate(0,-994.51965)">
    <path
       sodipodi:type="inkscape:offset"
       inkscape:radius="5.0795822"
       inkscape:original="M 94.644531 1013.6836 L 68.1875 1019.7422 L 67.007812 1014.9453 L 39.957031 1021.1406 L 39.226562 1017.1562 L 33.328125 1018.5273 L 49.947266 1109.1953 L 55.845703 1107.8242 L 46.9375 1059.2285 L 70.443359 1052.75 L 71.527344 1058.8066 L 103.56641 1049.9766 L 94.644531 1013.6836 z "
       style="fill:#000000;stroke:none;stroke-width:1.1878649px;stroke-linecap:butt;stroke-linejoin:miter;stroke-opacity:1"
       id="path6701-9"
       d="m 94.794922,1008.6055 a 5.0800902,5.0800902 0 0 0 -1.285156,0.1269 l -21.583985,4.9434 0.01367,0.057 a 5.0800902,5.0800902 0 0 0 -6.066406,-3.7383 l -22.035156,5.0469 a 5.0800902,5.0800902 0 0 0 -5.761719,-2.832 l -5.898438,1.3711 a 5.0800902,5.0800902 0 0 0 -3.845703,5.8633 l 16.619141,90.6679 a 5.0800902,5.0800902 0 0 0 6.146484,4.0313 l 5.898438,-1.3711 a 5.0800902,5.0800902 0 0 0 3.845703,-5.8633 l -8.068359,-44.0195 13.65039,-3.7617 0.103516,0.5742 a 5.0800902,5.0800902 0 0 0 6.349609,4.0019 l 32.039067,-8.8301 a 5.0800902,5.0800902 0 0 0 3.58398,-6.1093 l -8.921875,-36.293 a 5.0800902,5.0800902 0 0 0 -4.783203,-3.8652 z" />
    <path
       style="fill:#ececec;stroke:none;stroke-width:1.1878649px;stroke-linecap:butt;stroke-linejoin:miter;stroke-opacity:1"
       d="m 64.678708,1020.546 29.966917,-6.8631 8.921995,36.2928 -32.040202,8.8315 z"
       id="path6701-5"
       inkscape:connector-curvature="0"
       sodipodi:nodetypes="ccccc" />
    <path
       style="fill:#f2f2f2;stroke:none;stroke-width:1.1878649px;stroke-linecap:butt;stroke-linejoin:miter;stroke-opacity:1"
       d="m 70.866115,1022.78 23.77951,-9.0971 -29.966917,6.8631 z"
       id="path6713-3"
       inkscape:connector-curvature="0"
       sodipodi:nodetypes="cccc" />
    <path
       style="fill:#ffffff;stroke:none;stroke-width:1.1878649px;stroke-linecap:butt;stroke-linejoin:miter;stroke-opacity:1"
       d="m 71.527418,1058.8072 -0.661303,-36.0272 -6.187407,-2.234 z"
       id="path6711-5"
       inkscape:connector-curvature="0" />
    <path
       style="fill:#e6e6e6;stroke:none;stroke-width:1.1878649px;stroke-linecap:butt;stroke-linejoin:miter;stroke-opacity:1"
       d="m 71.527418,1058.8072 26.329887,-11.4198 5.710315,2.5883 z"
       id="path6715-6"
       inkscape:connector-curvature="0"
       sodipodi:nodetypes="cccc" />
    <path
       style="fill:#cccccc;stroke:none;stroke-width:1.1878649px;stroke-linecap:butt;stroke-linejoin:miter;stroke-opacity:1"
       d="m 97.857305,1047.3874 -3.21168,-33.7045 8.921995,36.2928 z"
       id="path6717-2"
       inkscape:connector-curvature="0" />
    <path
       style="fill:#ececec;stroke:none;stroke-width:1.1878649px;stroke-linecap:butt;stroke-linejoin:miter;stroke-opacity:1"
       d="m 37.041814,1021.8078 29.966913,-6.8632 8.922008,36.2928 -32.040211,8.8316 z"
       id="path6701"
       inkscape:connector-curvature="0"
       sodipodi:nodetypes="ccccc" />
    <path
       style="fill:#f2f2f2;stroke:none;stroke-width:1.1878649px;stroke-linecap:butt;stroke-linejoin:miter;stroke-opacity:1"
       d="m 43.229221,1024.0418 23.779506,-9.0972 -29.966913,6.8632 z"
       id="path6713"
       inkscape:connector-curvature="0"
       sodipodi:nodetypes="cccc" />
    <path
       style="fill:#ffffff;stroke:none;stroke-width:1.1878649px;stroke-linecap:butt;stroke-linejoin:miter;stroke-opacity:1"
       d="m 43.890524,1060.069 -0.661303,-36.0272 -6.187407,-2.234 z"
       id="path6711"
       inkscape:connector-curvature="0" />
    <path
       style="fill:#cccccc;stroke:none;stroke-width:1.1878649px;stroke-linecap:butt;stroke-linejoin:miter;stroke-opacity:1"
       d="m 75.930735,1051.2374 -8.922008,-36.2928 3.201927,37.8062 1.316764,6.0564 z"
       id="path6717"
       inkscape:connector-curvature="0"
       sodipodi:nodetypes="ccccc" />
    <path
       style="fill:#e6e6e6;stroke:none;stroke-width:1.1878649px;stroke-linecap:butt;stroke-linejoin:miter;stroke-opacity:1"
       d="m 43.890524,1060.069 26.329883,-11.4199 5.710328,2.5883 z"
       id="path6715"
       inkscape:connector-curvature="0"
       sodipodi:nodetypes="cccc" />
    <path
       style="fill:#666666;stroke:none;stroke-width:1.1878649px;stroke-linecap:butt;stroke-linejoin:miter;stroke-opacity:1"
       d="m 49.946982,1109.1945 -16.618338,-90.667 5.89929,-1.371 16.618199,90.667 z"
       id="path6699"
       inkscape:connector-curvature="0" />
    <path
       style="fill:#999999;stroke:none;stroke-width:1.1878649px;stroke-linecap:butt;stroke-linejoin:miter;stroke-opacity:1"
       d="m 49.946982,1109.1945 -14.601378,-88.9575 -2.01696,-1.7095 z"
       id="path6703"
       inkscape:connector-curvature="0" />
    <path
       style="fill:#333333;stroke:none;stroke-width:1.1878649px;stroke-linecap:butt;stroke-linejoin:miter;stroke-opacity:1"
       d="m 49.946982,1109.1945 4.089702,-2.3352 1.809449,0.9642 z"
       id="path6705"
       inkscape:connector-curvature="0" />
    <path
       style="fill:#4d4d4d;stroke:none;stroke-width:1.1878649px;stroke-linecap:butt;stroke-linejoin:miter;stroke-opacity:1"
       d="m 54.036684,1106.8593 -14.80875,-89.7028 16.618199,90.667 z"
       id="path6707"
       inkscape:connector-curvature="0" />
    <path
       style="fill:#808080;stroke:none;stroke-width:1.1878649px;stroke-linecap:butt;stroke-linejoin:miter;stroke-opacity:1"
       d="m 33.328644,1018.5275 5.89929,-1.371 -3.88233,3.0805 z"
       id="path6709"
       inkscape:connector-curvature="0" />
  </g>
</svg>
