<?xml version="1.0" encoding="UTF-8" standalone="no"?>
<!-- Created with Inkscape (http://www.inkscape.org/) -->

<svg
   xmlns:dc="http://purl.org/dc/elements/1.1/"
   xmlns:cc="http://creativecommons.org/ns#"
   xmlns:rdf="http://www.w3.org/1999/02/22-rdf-syntax-ns#"
   xmlns:svg="http://www.w3.org/2000/svg"
   xmlns="http://www.w3.org/2000/svg"
   xmlns:sodipodi="http://sodipodi.sourceforge.net/DTD/sodipodi-0.dtd"
   xmlns:inkscape="http://www.inkscape.org/namespaces/inkscape"
   width="128"
   height="128"
   viewBox="0 0 128 128.00001"
   version="1.1"
   id="svg6294"
   inkscape:version="0.92.3 (2405546, 2018-03-11)"
   sodipodi:docname="random_kart.svg">
  <defs
     id="defs6288" />
  <sodipodi:namedview
     id="base"
     pagecolor="#ffffff"
     bordercolor="#666666"
     borderopacity="1.0"
     inkscape:pageopacity="0.0"
     inkscape:pageshadow="2"
     inkscape:zoom="2.1832557"
     inkscape:cx="15.209465"
     inkscape:cy="58.590742"
     inkscape:document-units="px"
     inkscape:current-layer="layer1"
     showgrid="false"
     units="px"
     inkscape:window-width="1366"
     inkscape:window-height="713"
     inkscape:window-x="0"
     inkscape:window-y="27"
     inkscape:window-maximized="1" />
  <metadata
     id="metadata6291">
    <rdf:RDF>
      <cc:Work
         rdf:about="">
        <dc:format>image/svg+xml</dc:format>
        <dc:type
           rdf:resource="http://purl.org/dc/dcmitype/StillImage" />
        <dc:title></dc:title>
      </cc:Work>
    </rdf:RDF>
  </metadata>
  <g
     inkscape:label="Layer 1"
     inkscape:groupmode="layer"
     id="layer1"
     transform="translate(0,-994.51965)">
    <path
       style="fill:#4d4d4d;stroke:none;stroke-width:0.34488973px;stroke-linecap:butt;stroke-linejoin:miter;stroke-opacity:1"
       d="m 58.270692,1063.1356 -17.009158,3.4313 -1.924416,-2.7713 z"
       id="path7128-4-5"
       inkscape:connector-curvature="0" />
    <path
       style="fill:#1a1a1a;stroke:none;stroke-width:0.34488973px;stroke-linecap:butt;stroke-linejoin:miter;stroke-opacity:1"
       d="m 59.199014,1093.8195 -0.928322,-30.6839 -3.389111,27.588 z"
       id="path7134-6-7"
       inkscape:connector-curvature="0" />
    <path
       transform="matrix(0.34488975,0,0,0.34488975,-2106.6643,675.85342)"
       sodipodi:type="inkscape:offset"
       inkscape:radius="10.101538"
       inkscape:original="M 6279.4316 1028.2578 L 6267.4355 1044.3574 L 6265.8574 1065.8223 L 6261.4375 1088.5508 L 6255.2383 1090.3223 L 6173.2949 1090.3223 L 6151.8301 1120.625 L 6195.9746 1120.5234 L 6203.125 1146.1816 L 6195.0898 1156.4492 L 6196.125 1166.8008 L 6147.3223 1168.502 L 6148.2148 1256.002 L 6204.9102 1255.5566 L 6204.5098 1242.2852 L 6381.8027 1241.1172 L 6381.9141 1252.0547 L 6438.6113 1251.6094 L 6435.9199 1162.6406 L 6387.0898 1164.3438 L 6388.1797 1153.4453 L 6380.1445 1143.1777 L 6386.5801 1120.0898 L 6428.3594 1119.9941 L 6406.8926 1090.3223 L 6324.4453 1090.3223 L 6318.8906 1087.9199 L 6313.8398 1066.1387 L 6310.0508 1042.7793 L 6297.7402 1028.2578 L 6279.4316 1028.2578 z M 6357.9766 1120.1543 L 6358.0547 1120.1543 L 6354.252 1141.3926 L 6345.9473 1149.2832 L 6357.6855 1120.1562 L 6357.9766 1120.1543 z M 6338.5371 1120.1992 L 6333.2891 1130.5742 L 6332.4805 1120.2129 L 6338.5371 1120.1992 z M 6248.0508 1120.4062 L 6247.6504 1128.3223 L 6243.6504 1120.416 L 6248.0508 1120.4062 z M 6224.918 1121.502 L 6237.3203 1152.2812 L 6229.0176 1144.3945 L 6224.918 1121.502 z M 6345.2832 1150.9297 L 6344.4316 1173.0254 L 6336.8379 1171.8867 L 6345.2832 1150.9297 z M 6237.9883 1153.9395 L 6244.7383 1170.6914 L 6238.6562 1171.3066 L 6237.9883 1153.9395 z M 6381.1816 1180.1816 L 6381.2773 1189.5547 L 6380.6914 1189.4434 L 6375.1172 1185.7949 L 6379.7734 1181.4863 L 6381.1816 1180.1816 z "
       style="fill:#000000;stroke:none;stroke-width:1px;stroke-linecap:butt;stroke-linejoin:miter;stroke-opacity:1"
       id="path7102-3-2-0"
       d="m 6279.4316,1018.1562 a 10.102548,10.102548 0 0 0 -8.0996,4.0665 l -11.9961,16.0996 a 10.102548,10.102548 0 0 0 -1.9746,5.2949 l -1.5351,20.8652 -3.0586,15.7383 h -79.4727 a 10.102548,10.102548 0 0 0 -8.2422,4.2617 l -21.4648,30.3028 a 10.102548,10.102548 0 0 0 8.2656,15.9414 l 36.4551,-0.084 3.7148,13.334 -4.8886,6.248 a 10.102548,10.102548 0 0 0 -2.1211,6.8555 l -38.043,1.3261 a 10.102548,10.102548 0 0 0 -9.75,10.1993 l 0.8926,87.5 a 10.102548,10.102548 0 0 0 10.1816,9.998 l 56.6953,-0.4453 a 10.102548,10.102548 0 0 0 10.0176,-10.4062 l -0.088,-2.9336 156.8848,-1.0332 0.01,0.873 a 10.102548,10.102548 0 0 0 10.1816,9.998 l 56.6973,-0.4453 a 10.102548,10.102548 0 0 0 10.0176,-10.4062 l -2.6914,-88.9688 a 10.102548,10.102548 0 0 0 -10.4492,-9.791 l -37.3067,1.3008 a 10.102548,10.102548 0 0 0 -2.1269,-6.625 l -4.8887,-6.248 3.0098,-10.7989 34.1269,-0.078 a 10.102548,10.102548 0 0 0 8.1602,-16.0234 l -21.4668,-29.6719 a 10.102548,10.102548 0 0 0 -8.1836,-4.1797 h -79.418 l -3.7187,-16.0332 -3.7344,-23.0254 a 10.102548,10.102548 0 0 0 -2.2656,-4.9141 l -12.3106,-14.5214 a 10.102548,10.102548 0 0 0 -7.7051,-3.5704 z m -32.9375,107.7618 -1.0937,1.7832 -1.2305,-1.2891 z m 134.4981,55.5273 0.2695,3.2246 -2.7226,-1.1719 z" />
    <path
       style="fill:#1a1a1a;stroke:none;stroke-width:0.34488973px;stroke-linecap:butt;stroke-linejoin:miter;stroke-opacity:1"
       d="m 47.832999,1059.3397 -1.306501,-3.3748 1.741941,-3.375 4.572935,-1.3067 1.523949,-7.8386 0.544345,-7.4032 4.137314,-5.5526 h 6.314332 l 4.246219,5.0081 1.306501,8.0564 1.741941,7.5121 4.028223,1.7425 1.41523,4.2457 -0.97997,2.2861 z"
       id="path7102-30-6"
       inkscape:connector-curvature="0" />
    <path
       style="fill:#333333;stroke:none;stroke-width:0.34488973px;stroke-linecap:butt;stroke-linejoin:miter;stroke-opacity:1"
       d="m 94.084588,1077.4964 0.30787,30.178 19.554022,-0.154 -0.92777,-30.6839 z"
       id="path7066-6-7-2"
       inkscape:connector-curvature="0" />
    <path
       style="fill:#333333;stroke:none;stroke-width:0.34488973px;stroke-linecap:butt;stroke-linejoin:miter;stroke-opacity:1"
       d="m 13.4838,1078.8576 0.30787,30.1782 19.554026,-0.154 -0.92796,-30.6839 z"
       id="path7066-7-6"
       inkscape:connector-curvature="0" />
    <path
       style="fill:#1a1a1a;stroke:none;stroke-width:0.34488973px;stroke-linecap:butt;stroke-linejoin:miter;stroke-opacity:1"
       d="m 33.345696,1108.8814 -0.92796,-30.6837 -3.389111,27.588 z"
       id="path7134-7-1"
       inkscape:connector-curvature="0" />
    <path
       style="fill:#666666;stroke:none;stroke-width:0.34488973px;stroke-linecap:butt;stroke-linejoin:miter;stroke-opacity:1"
       d="m 96.009188,1080.268 -1.61673,27.4064 -0.30787,-30.178 z"
       id="path7130-9-6-8"
       inkscape:connector-curvature="0" />
    <path
       style="fill:#4d4d4d;stroke:none;stroke-width:0.34488973px;stroke-linecap:butt;stroke-linejoin:miter;stroke-opacity:1"
       d="m 16.255177,1104.4165 0.769766,-9.7 4.927194,-6.3127 8.160286,-2.3095 4.619324,-5.235 16.782106,-1.6934 22.633815,0.154 12.31735,1.8476 7.50577,4.9127 11.432342,2.1698 3.84919,5.5431 0.46172,10.0078 z"
       id="path7060-9-7"
       inkscape:connector-curvature="0" />
    <path
       style="fill:#808080;stroke:none;stroke-width:0.34488973px;stroke-linecap:butt;stroke-linejoin:miter;stroke-opacity:1"
       d="m 74.147668,1079.3197 -22.147275,2.2965 -16.422229,1.9376 -0.846417,-2.6945 16.782106,-1.6934 z"
       id="path7120-1-9"
       inkscape:connector-curvature="0" />
    <path
       style="fill:#4d4d4d;stroke:none;stroke-width:0.34488973px;stroke-linecap:butt;stroke-linejoin:miter;stroke-opacity:1"
       d="m 32.417736,1078.1977 -17.009339,3.4315 -1.924597,-2.7716 z"
       id="path7128-19-2"
       inkscape:connector-curvature="0" />
    <path
       style="fill:#666666;stroke:none;stroke-width:0.34488973px;stroke-linecap:butt;stroke-linejoin:miter;stroke-opacity:1"
       d="m 34.731747,1080.8593 -4.619324,5.235 -8.160286,2.3095 -4.927194,6.3127 -0.769766,9.7 2.694363,-8.2375 4.541949,-6.0815 7.92961,-2.0788 4.157065,-4.4649 z"
       id="path7122-0-0"
       inkscape:connector-curvature="0" />
    <path
       style="fill:#4d4d4d;stroke:none;stroke-width:0.34488973px;stroke-linecap:butt;stroke-linejoin:miter;stroke-opacity:1"
       d="m 30.112423,1061.7673 2.617532,9.3921 -2.771376,3.5412 0.769585,7.6986 4.157065,3.849 6.928805,-0.3079 3.233273,-4.4651 -0.308052,-8.0063 -3.079247,-2.9256 -1.847766,-10.3157 z"
       id="path7041-8-2"
       inkscape:connector-curvature="0" />
    <path
       style="fill:#4d4d4d;stroke:none;stroke-width:0.34488973px;stroke-linecap:butt;stroke-linejoin:miter;stroke-opacity:1"
       d="m 113.01871,1076.8363 -17.009522,3.4317 -1.9246,-2.7716 z"
       id="path7128-4-9-3"
       inkscape:connector-curvature="0" />
    <path
       style="fill:#4d4d4d;stroke:none;stroke-width:0.34488973px;stroke-linecap:butt;stroke-linejoin:miter;stroke-opacity:1"
       d="m 96.399498,1060.7319 -2.61753,9.3919 2.77174,3.5414 -0.76995,7.6985 -4.15724,3.8491 -6.92881,-0.3081 -3.23327,-4.4648 0.30823,-8.0064 3.07943,-2.9254 1.8474,-10.3161 z"
       id="path7041-9-8-7"
       inkscape:connector-curvature="0" />
    <path
       style="fill:#4d4d4d;fill-opacity:1;stroke:none;stroke-width:0.34488973px;stroke-linecap:butt;stroke-linejoin:miter;stroke-opacity:1"
       d="m 54.06905,1076.8256 -9.25405,-18.2905 -6.314514,-0.2192 8.81861,21.8834 7.185575,-0.1069 z"
       id="path7083-8-5"
       inkscape:connector-curvature="0" />
    <path
       style="fill:#4d4d4d;fill-opacity:1;stroke:none;stroke-width:0.34488973px;stroke-linecap:butt;stroke-linejoin:miter;stroke-opacity:1"
       d="m 72.001819,1076.8839 9.254049,-18.2904 6.3147,-0.2191 -8.81861,21.8834 -7.185579,-0.1123 z"
       id="path7083-0-0-9"
       inkscape:connector-curvature="0" />
    <path
       style="fill:#4d4d4d;stroke:none;stroke-width:0.34488973px;stroke-linecap:butt;stroke-linejoin:miter;stroke-opacity:1"
       d="m 48.377344,1059.2311 4.137314,-6.2059 5.552357,-2.395 9.362956,-0.4357 6.096703,3.593 3.592784,5.5522 1.6325,20.9192 -31.432862,-0.058 z"
       id="path7100-3-2"
       inkscape:connector-curvature="0"
       sodipodi:nodetypes="ccccccccc" />
    <path
       style="fill:#808080;stroke:none;stroke-width:0.34488973px;stroke-linecap:butt;stroke-linejoin:miter;stroke-opacity:1"
       d="m 52.514658,1053.0252 -4.137314,6.2059 -1.058248,20.9695 2.886444,-20.6659 3.695169,-5.0041 z"
       id="path7118-7-2"
       inkscape:connector-curvature="0" />
    <path
       style="fill:#4d4d4d;stroke:none;stroke-width:0.34488973px;stroke-linecap:butt;stroke-linejoin:miter;stroke-opacity:1"
       d="m 51.976111,1083.1687 0.923792,-22.0171 19.245975,-0.3083 1.385688,22.7873 z"
       id="path7064-0-8"
       inkscape:connector-curvature="0" />
    <path
       style="fill:#000000;stroke:none;stroke-width:0.34488973px;stroke-linecap:butt;stroke-linejoin:miter;stroke-opacity:1"
       d="m 51.976111,1083.1687 21.555455,0.4619 -4.317433,-3.0957 z"
       id="path7132-8-6-9"
       inkscape:connector-curvature="0"
       sodipodi:nodetypes="cccc" />
    <path
       style="fill:#333333;stroke:none;stroke-width:0.34488973px;stroke-linecap:butt;stroke-linejoin:miter;stroke-opacity:1"
       d="m 47.97289,1091.6371 0.461715,10.008 29.100183,-0.308 0.15402,-9.8539 z"
       id="path7062-9-7"
       inkscape:connector-curvature="0" />
    <path
       style="fill:#4d4d4d;stroke:none;stroke-width:0.34488973px;stroke-linecap:butt;stroke-linejoin:miter;stroke-opacity:1"
       d="m 57.05715,1036.2855 -0.846961,7.6213 -1.385869,7.2367 -6.555881,1.4464 4.572935,-1.3067 1.523949,-7.8386 0.544345,-7.4032 z"
       id="path7106-2-3"
       inkscape:connector-curvature="0"
       sodipodi:nodetypes="cccccccc" />
    <path
       style="fill:#666666;stroke:none;stroke-width:0.34488973px;stroke-linecap:butt;stroke-linejoin:miter;stroke-opacity:1"
       d="m 67.429971,1050.1945 -9.362956,0.4357 -5.552357,2.395 1.386051,1.5054 4.695793,-2.3094 z"
       id="path7116-1-6"
       inkscape:connector-curvature="0" />
    <path
       style="fill:#666666;stroke:none;stroke-width:0.34488973px;stroke-linecap:butt;stroke-linejoin:miter;stroke-opacity:1"
       d="m 86.699498,1059.192 -0.15946,11.7362 -4.76954,1.5053 3.07943,-2.9254 z"
       id="path7160-9-7-1"
       inkscape:connector-curvature="0"
       sodipodi:nodetypes="ccccc" />
    <path
       style="fill:#808080;stroke:none;stroke-width:0.34488973px;stroke-linecap:butt;stroke-linejoin:miter;stroke-opacity:1"
       d="m 72.145878,1060.8433 -16.442886,2.6116 -2.803089,-2.3033 z"
       id="path7128-1-7-2"
       inkscape:connector-curvature="0"
       sodipodi:nodetypes="cccc" />
    <path
       style="fill:#4d4d4d;fill-opacity:1;stroke:none;stroke-width:0.34488973px;stroke-linecap:butt;stroke-linejoin:miter;stroke-opacity:1"
       d="m 57.05715,1084.7086 h 11.393378 l 0.154025,-25.0967 -11.239714,0.154 z"
       id="path7058-9-9"
       inkscape:connector-curvature="0" />
    <path
       style="fill:#666666;stroke:none;stroke-width:0.34488973px;stroke-linecap:butt;stroke-linejoin:miter;stroke-opacity:1"
       d="m 57.05715,1084.7086 2.563351,-23.3704 -2.5407,-2.0018 z"
       id="path7227-7-3"
       inkscape:connector-curvature="0"
       sodipodi:nodetypes="cccc" />
    <path
       style="fill:#b3b3b3;stroke:none;stroke-width:0.34488973px;stroke-linecap:butt;stroke-linejoin:miter;stroke-opacity:1"
       d="m 59.620501,1061.3382 8.852859,-2.0018 H 57.079801 Z"
       id="path7229-6-1"
       inkscape:connector-curvature="0" />
    <path
       style="fill:#1a1a1a;fill-opacity:1;stroke:none;stroke-width:0.34488973px;stroke-linecap:butt;stroke-linejoin:miter;stroke-opacity:1"
       d="m 68.47336,1059.3364 -0.02537,25.3722 -2.209636,-2.5849 z"
       id="path7223-2-9"
       inkscape:connector-curvature="0"
       sodipodi:nodetypes="cccc" />
    <path
       style="fill:#4d4d4d;stroke:none;stroke-width:0.34488973px;stroke-linecap:butt;stroke-linejoin:miter;stroke-opacity:1"
       d="m 22.441577,1051.8941 h 80.565453 l 7.4032,10.234 -95.371857,0.2191 z"
       id="path7039-2-4"
       inkscape:connector-curvature="0" />
    <path
       style="fill:#333333;stroke:none;stroke-width:0.34488973px;stroke-linecap:butt;stroke-linejoin:miter;stroke-opacity:1"
       d="m 65.361314,1030.4888 -5.6098,1.7933 -2.694364,4.0034 -2.147482,-0.2439 4.137314,-5.5526 z"
       id="path7104-7-7"
       inkscape:connector-curvature="0" />
    <path
       style="fill:#808080;stroke:none;stroke-width:0.34488973px;stroke-linecap:butt;stroke-linejoin:miter;stroke-opacity:1"
       d="m 15.038373,1062.3459 9.531296,-7.5072 -2.128092,-2.9446 z"
       id="path7108-1-8"
       inkscape:connector-curvature="0" />
    <path
       style="fill:#666666;stroke:none;stroke-width:0.34488973px;stroke-linecap:butt;stroke-linejoin:miter;stroke-opacity:1"
       d="m 24.569669,1054.8387 78.437361,-2.9446 H 22.441577 Z"
       id="path7110-5-4"
       inkscape:connector-curvature="0" />
    <path
       style="fill:#666666;stroke:none;stroke-width:0.34488973px;stroke-linecap:butt;stroke-linejoin:miter;stroke-opacity:1"
       d="m 55.702992,1063.4549 -3.726881,19.7138 0.923792,-22.0171 z"
       id="path7130-4-8-5"
       inkscape:connector-curvature="0"
       sodipodi:nodetypes="cccc" />
    <path
       style="fill:#333333;stroke:none;stroke-width:0.34488973px;stroke-linecap:butt;stroke-linejoin:miter;stroke-opacity:1"
       d="m 15.038373,1062.3459 88.671017,-3.504 6.70084,3.2862 z"
       id="path7112-8-0"
       inkscape:connector-curvature="0" />
    <path
       style="fill:#1a1a1a;stroke:none;stroke-width:0.34488973px;stroke-linecap:butt;stroke-linejoin:miter;stroke-opacity:1"
       d="m 103.70939,1058.8419 -0.70236,-6.9478 7.4032,10.234 c 0.0254,-0.2744 0.0743,-0.5476 0.0743,-0.8229 0,-0.275 -0.0507,0.5485 -0.0743,0.8229 z"
       id="path7114-4-3"
       inkscape:connector-curvature="0" />
    <path
       style="fill:#333333;stroke:none;stroke-width:0.34488973px;stroke-linecap:butt;stroke-linejoin:miter;stroke-opacity:1"
       d="m 16.255177,1104.4165 90.841513,-3.0794 2.61735,2.4637 z"
       id="path7124-5-6"
       inkscape:connector-curvature="0" />
    <path
       style="fill:#1a1a1a;stroke:none;stroke-width:0.34488973px;stroke-linecap:butt;stroke-linejoin:miter;stroke-opacity:1"
       d="m 107.09669,1101.3371 2.15563,-7.5444 0.46172,10.0081 z"
       id="path7126-6-1"
       inkscape:connector-curvature="0" />
    <path
       style="fill:#666666;stroke:none;stroke-width:0.34488973px;stroke-linecap:butt;stroke-linejoin:miter;stroke-opacity:1"
       d="m 15.408397,1081.6292 -1.616727,27.4066 -0.30787,-30.1782 z"
       id="path7130-5-0"
       inkscape:connector-curvature="0" />
    <path
       style="fill:#000000;stroke:none;stroke-width:0.34488973px;stroke-linecap:butt;stroke-linejoin:miter;stroke-opacity:1"
       d="m 13.79167,1109.0358 19.554026,-0.154 -4.317071,-3.0957 z"
       id="path7132-6-6"
       inkscape:connector-curvature="0" />
    <path
       style="fill:#1a1a1a;stroke:none;stroke-width:0.34488973px;stroke-linecap:butt;stroke-linejoin:miter;stroke-opacity:1"
       d="m 113.94648,1107.5206 -0.92777,-30.6843 -3.38912,27.5882 z"
       id="path7134-6-8-3"
       inkscape:connector-curvature="0" />
    <path
       style="fill:#000000;stroke:none;stroke-width:0.34488973px;stroke-linecap:butt;stroke-linejoin:miter;stroke-opacity:1"
       d="m 94.392458,1107.6744 19.554022,-0.154 -4.31689,-3.0959 z"
       id="path7132-9-4-2"
       inkscape:connector-curvature="0" />
    <path
       style="fill:#666666;stroke:none;stroke-width:0.34488973px;stroke-linecap:butt;stroke-linejoin:miter;stroke-opacity:1"
       d="m 30.112423,1061.7673 4.464936,9.4692 -4.61878,3.4641 2.771376,-3.5412 z"
       id="path7160-8-0"
       inkscape:connector-curvature="0" />
    <path
       style="fill:#333333;fill-opacity:1;stroke:none;stroke-width:0.34488973px;stroke-linecap:butt;stroke-linejoin:miter;stroke-opacity:1"
       d="m 34.885229,1086.2482 5.696961,-1.6166 2.617532,-3.4645 1.847585,0.3081 -3.233273,4.4651 z"
       id="path7162-8-6"
       inkscape:connector-curvature="0" />
    <path
       style="fill:#1a1a1a;fill-opacity:1;stroke:none;stroke-width:0.34488973px;stroke-linecap:butt;stroke-linejoin:miter;stroke-opacity:1"
       d="m 43.199722,1081.1671 1.539533,-7.6982 0.308052,8.0063 z"
       id="path7164-3-1"
       inkscape:connector-curvature="0" />
    <path
       style="fill:#333333;fill-opacity:1;stroke:none;stroke-width:0.34488973px;stroke-linecap:butt;stroke-linejoin:miter;stroke-opacity:1"
       d="m 84.697708,1084.9047 5.69714,-1.0008 3.54133,-2.8482 1.84758,0.308 -4.15724,3.8491 z"
       id="path7162-0-8-5"
       inkscape:connector-curvature="0"
       sodipodi:nodetypes="cccccc" />
    <path
       style="fill:#1a1a1a;fill-opacity:1;stroke:none;stroke-width:0.34488973px;stroke-linecap:butt;stroke-linejoin:miter;stroke-opacity:1"
       d="m 93.936178,1081.0557 2.61753,-7.3905 -0.76995,7.6985 z"
       id="path7164-8-7-5"
       inkscape:connector-curvature="0"
       sodipodi:nodetypes="cccc" />
    <path
       style="fill:#1a1a1a;stroke:none;stroke-width:0.34488973px;stroke-linecap:butt;stroke-linejoin:miter;stroke-opacity:1"
       d="m 73.531566,1083.6306 -1.385688,-22.7873 -2.931745,19.6916 z"
       id="path7134-3-5-4"
       inkscape:connector-curvature="0"
       sodipodi:nodetypes="cccc" />
    <path
       style="fill:#333333;fill-opacity:1;stroke:none;stroke-width:0.34488973px;stroke-linecap:butt;stroke-linejoin:miter;stroke-opacity:1"
       d="M 68.450528,1084.7086 H 57.05715 l 9.183923,-2.5849 z"
       id="path7225-4-7"
       inkscape:connector-curvature="0"
       sodipodi:nodetypes="cccc" />
    <path
       transform="matrix(1.812068,0,0,1.812068,-320.51621,-906.70272)"
       sodipodi:type="inkscape:offset"
       inkscape:radius="3.032671"
       inkscape:original="M 209.41992 1057.752 L 193.69141 1060.8594 L 191.74805 1076.3438 L 202.1875 1076.4102 L 202.79492 1069.2188 L 211.17969 1068.957 L 221.27344 1073.5879 L 220.68945 1077.8828 L 210.77148 1082.8555 L 205.64648 1090.4727 L 206.02344 1098.3105 L 217.66992 1097.957 L 217.57031 1092.0059 L 220.53906 1085.8613 L 229.55859 1080.1719 L 229.99023 1072.6016 L 226.57031 1063.7422 L 209.41992 1057.752 z M 205.45508 1102.4883 L 205.60352 1110.9531 L 218.11914 1111.127 L 217.32812 1103.2891 L 205.45508 1102.4883 z "
       style="fill:#000000;stroke:none;stroke-width:0.97524053px;stroke-linecap:butt;stroke-linejoin:miter;stroke-opacity:1"
       id="path938-3-8"
       d="m 209.5293,1054.7207 a 3.0329742,3.0329742 0 0 0 -0.69727,0.057 l -15.72851,3.1075 a 3.0329742,3.0329742 0 0 0 -2.42188,2.5976 l -1.94336,15.4844 a 3.0329742,3.0329742 0 0 0 2.99024,3.4102 l 10.43945,0.066 a 3.0329742,3.0329742 0 0 0 3.04101,-2.7774 l 0.38086,-4.5 4.97266,-0.1562 7.40234,3.3964 -0.0645,0.4825 -8.48828,4.2558 a 3.0329742,3.0329742 0 0 0 -1.15625,1.0176 l -5.125,7.6172 a 3.0329742,3.0329742 0 0 0 -0.51367,1.8398 l 0.37695,7.8379 a 3.0329742,3.0329742 0 0 0 0.58789,1.6504 3.0329742,3.0329742 0 0 0 -1.1582,2.4336 l 0.14844,8.4649 a 3.0329742,3.0329742 0 0 0 2.98828,2.9804 l 12.51562,0.1739 a 3.0329742,3.0329742 0 0 0 3.06055,-3.3379 l -0.79102,-7.8379 a 3.0329742,3.0329742 0 0 0 -1.41797,-2.2696 3.0329742,3.0329742 0 0 0 1.77539,-2.8086 l -0.0879,-5.2304 2.27735,-4.7129 8.2832,-5.2266 a 3.0329742,3.0329742 0 0 0 1.41016,-2.3925 l 0.43164,-7.5704 a 3.0329742,3.0329742 0 0 0 -0.19727,-1.2636 l -3.41992,-8.8594 a 3.0329742,3.0329742 0 0 0 -1.83008,-1.7715 l -17.15039,-5.9902 a 3.0329742,3.0329742 0 0 0 -0.89062,-0.168 z" />
    <path
       style="fill:#ff6600;stroke:none;stroke-width:1.76720214px;stroke-linecap:butt;stroke-linejoin:miter;stroke-opacity:1"
       d="m 26.941485,1043.7062 18.919803,0.1178 1.100469,-13.0344 15.192559,-0.4735 18.291012,8.3934 -1.05698,7.7801 -17.973356,9.0138 -9.28703,13.8043 0.68315,14.2048 21.104069,-0.6429 -0.179395,-10.7838 5.378762,-11.1339 16.34522,-10.3116 0.78118,-13.7193 -6.19691,-16.0526 -31.077693,-10.855 -28.500931,5.6342 z"
       id="path938-7"
       inkscape:connector-curvature="0"
       sodipodi:nodetypes="cccccccccccccccccc" />
    <path
       style="fill:#ff6600;stroke:none;stroke-width:1.76720214px;stroke-linecap:butt;stroke-linejoin:miter;stroke-opacity:1"
       d="m 51.780589,1091.0811 21.51559,1.4493 1.434069,14.2056 -22.678936,-0.3164 z"
       id="path940-9"
       inkscape:connector-curvature="0"
       sodipodi:nodetypes="ccccc" />
    <path
       style="fill:#ff9955;stroke:none;stroke-width:1.76720214px;stroke-linecap:butt;stroke-linejoin:miter;stroke-opacity:1"
       d="m 26.941485,1043.7062 10.529203,-23.2781 -7.005093,-4.7805 z"
       id="path942-2"
       inkscape:connector-curvature="0"
       sodipodi:nodetypes="cccc" />
    <path
       style="fill:#ff7f2a;stroke:none;stroke-width:1.76720214px;stroke-linecap:butt;stroke-linejoin:miter;stroke-opacity:1"
       d="m 37.470688,1020.4281 21.496019,-10.414 -28.501112,5.6335 z"
       id="path944-0"
       inkscape:connector-curvature="0"
       sodipodi:nodetypes="cccc" />
    <path
       style="fill:#ff7f2a;stroke:none;stroke-width:1.76720214px;stroke-linecap:butt;stroke-linejoin:miter;stroke-opacity:1"
       d="m 58.966707,1010.0141 23.806951,13.2025 7.27056,-2.3475 z"
       id="path946-23"
       inkscape:connector-curvature="0"
       sodipodi:nodetypes="cccc" />
    <path
       style="fill:#d45500;stroke:none;stroke-width:1.76720214px;stroke-linecap:butt;stroke-linejoin:miter;stroke-opacity:1"
       d="m 46.961757,1030.7904 -6.538667,6.8675 5.438198,6.1669 z"
       id="path948-7"
       inkscape:connector-curvature="0"
       sodipodi:nodetypes="cccc" />
    <path
       style="fill:#aa4400;stroke:none;stroke-width:1.76720214px;stroke-linecap:butt;stroke-linejoin:miter;stroke-opacity:1"
       d="m 26.941485,1043.7062 13.481605,-6.0483 5.438198,6.1669 z"
       id="path950-5"
       inkscape:connector-curvature="0"
       sodipodi:nodetypes="cccc" />
    <path
       style="fill:#aa4400;stroke:none;stroke-width:1.76720214px;stroke-linecap:butt;stroke-linejoin:miter;stroke-opacity:1"
       d="m 62.154316,1030.3169 23.925642,5.0116 -5.63463,3.3817 z"
       id="path952-9"
       inkscape:connector-curvature="0"
       sodipodi:nodetypes="cccc" />
    <path
       style="fill:#ff9955;stroke:none;stroke-width:1.76720214px;stroke-linecap:butt;stroke-linejoin:miter;stroke-opacity:1"
       d="m 86.079958,1035.3285 -6.69161,11.1618 1.05698,-7.7801 z"
       id="path954-2"
       inkscape:connector-curvature="0"
       sodipodi:nodetypes="cccc" />
    <path
       style="fill:#d45500;stroke:none;stroke-width:1.76720214px;stroke-linecap:butt;stroke-linejoin:miter;stroke-opacity:1"
       d="m 95.459948,1050.641 -19.0896,6.3615 2.74456,3.9501 z"
       id="path956-28"
       inkscape:connector-curvature="0" />
    <path
       style="fill:#aa4400;stroke:none;stroke-width:1.76720214px;stroke-linecap:butt;stroke-linejoin:miter;stroke-opacity:1"
       d="m 76.370348,1057.0025 -2.63438,15.084 5.37894,-11.1339 z"
       id="path958-9"
       inkscape:connector-curvature="0" />
    <path
       style="fill:#d45500;stroke:none;stroke-width:1.76720214px;stroke-linecap:butt;stroke-linejoin:miter;stroke-opacity:1"
       d="m 73.735968,1072.0865 -5.50017,4.8658 5.679383,5.9173 z"
       id="path960-7"
       inkscape:connector-curvature="0"
       sodipodi:nodetypes="cccc" />
    <path
       style="fill:#aa4400;stroke:none;stroke-width:1.76720214px;stroke-linecap:butt;stroke-linejoin:miter;stroke-opacity:1"
       d="m 68.235798,1076.9523 -15.424686,6.5602 21.104069,-0.6429 z"
       id="path962-3"
       inkscape:connector-curvature="0"
       sodipodi:nodetypes="cccc" />
    <path
       style="fill:#ff9955;stroke:none;stroke-width:1.76720214px;stroke-linecap:butt;stroke-linejoin:miter;stroke-opacity:1"
       d="m 52.127962,1069.3084 0.68315,14.2041 3.194495,-14.4304 9.085347,-11.0085 -3.675962,-2.5695 z"
       id="path964-6"
       inkscape:connector-curvature="0"
       sodipodi:nodetypes="cccccc" />
    <path
       style="fill:#ff7f2a;stroke:none;stroke-width:1.76720214px;stroke-linecap:butt;stroke-linejoin:miter;stroke-opacity:1"
       d="m 65.090954,1058.0736 14.297394,-11.5833 -17.973356,9.0138 z"
       id="path966-1"
       inkscape:connector-curvature="0"
       sodipodi:nodetypes="cccc" />
    <path
       style="fill:#ff9955;stroke:none;stroke-width:1.76720214px;stroke-linecap:butt;stroke-linejoin:miter;stroke-opacity:1"
       d="m 52.051312,1106.4196 4.445184,-10.8389 -4.715907,-4.4996 z"
       id="path968-2"
       inkscape:connector-curvature="0"
       sodipodi:nodetypes="cccc" />
    <path
       style="fill:#ff7f2a;stroke:none;stroke-width:1.76720214px;stroke-linecap:butt;stroke-linejoin:miter;stroke-opacity:1"
       d="m 56.496496,1095.5807 16.799683,-3.0503 -21.51559,-1.4493 z"
       id="path970-9"
       inkscape:connector-curvature="0"
       sodipodi:nodetypes="cccc" />
    <path
       style="fill:#aa4400;stroke:none;stroke-width:1.76720214px;stroke-linecap:butt;stroke-linejoin:miter;stroke-opacity:1"
       d="m 52.051312,1106.4196 15.963776,-3.5432 6.71516,3.8596 z"
       id="path972-3"
       inkscape:connector-curvature="0"
       sodipodi:nodetypes="cccc" />
    <path
       style="fill:#d45500;stroke:none;stroke-width:1.76720214px;stroke-linecap:butt;stroke-linejoin:miter;stroke-opacity:1"
       d="m 68.015088,1102.8764 5.281091,-10.346 1.434069,14.2056 z"
       id="path974-1"
       inkscape:connector-curvature="0"
       sodipodi:nodetypes="cccc" />
  </g>
</svg>
