<?xml version="1.0" encoding="UTF-8" standalone="no"?>
<!-- Created with Inkscape (http://www.inkscape.org/) -->

<svg
   xmlns:dc="http://purl.org/dc/elements/1.1/"
   xmlns:cc="http://creativecommons.org/ns#"
   xmlns:rdf="http://www.w3.org/1999/02/22-rdf-syntax-ns#"
   xmlns:svg="http://www.w3.org/2000/svg"
   xmlns="http://www.w3.org/2000/svg"
   xmlns:sodipodi="http://sodipodi.sourceforge.net/DTD/sodipodi-0.dtd"
   xmlns:inkscape="http://www.inkscape.org/namespaces/inkscape"
   width="128"
   height="128"
   viewBox="0 0 128 128.00001"
   version="1.1"
   id="svg6294"
   inkscape:version="0.92.3 (2405546, 2018-03-11)"
   sodipodi:docname="red_mark.svg">
  <defs
     id="defs6288" />
  <sodipodi:namedview
     id="base"
     pagecolor="#ffffff"
     bordercolor="#666666"
     borderopacity="1.0"
     inkscape:pageopacity="0.0"
     inkscape:pageshadow="2"
     inkscape:zoom="2.0510585"
     inkscape:cx="0.50302756"
     inkscape:cy="60.741583"
     inkscape:document-units="px"
     inkscape:current-layer="layer1"
     showgrid="false"
     units="px"
     inkscape:window-width="1366"
     inkscape:window-height="713"
     inkscape:window-x="0"
     inkscape:window-y="27"
     inkscape:window-maximized="1" />
  <metadata
     id="metadata6291">
    <rdf:RDF>
      <cc:Work
         rdf:about="">
        <dc:format>image/svg+xml</dc:format>
        <dc:type
           rdf:resource="http://purl.org/dc/dcmitype/StillImage" />
        <dc:title></dc:title>
      </cc:Work>
    </rdf:RDF>
  </metadata>
  <g
     inkscape:label="Layer 1"
     inkscape:groupmode="layer"
     id="layer1"
     transform="translate(0,-994.51965)">
    <path
       sodipodi:type="inkscape:offset"
       inkscape:radius="4.0626554"
       inkscape:original="M 2225 1055.5195 L 2195.75 1057.5195 L 2181.75 1077.8945 L 2182.5 1107.0195 L 2199.25 1120.0195 L 2226.75 1119.7695 L 2240.25 1101.0195 L 2240.5 1078.0195 L 2225 1055.5195 z "
       style="fill:#1a1a1a;stroke:none;stroke-width:1px;stroke-linecap:butt;stroke-linejoin:miter;stroke-opacity:1"
       id="path4637-7"
       d="m 2224.8672,1051.459 a 4.0630617,4.0630617 0 0 0 -0.1445,0.01 l -29.25,2 a 4.0630617,4.0630617 0 0 0 -3.0704,1.752 l -14,20.375 a 4.0630617,4.0630617 0 0 0 -0.7128,2.4062 l 0.75,29.125 a 4.0630617,4.0630617 0 0 0 1.5703,3.1035 l 16.75,13 a 4.0630617,4.0630617 0 0 0 2.5273,0.8535 l 27.5,-0.25 a 4.0630617,4.0630617 0 0 0 3.2598,-1.6894 l 13.5,-18.75 a 4.0630617,4.0630617 0 0 0 0.7656,-2.3281 l 0.25,-23 a 4.0630617,4.0630617 0 0 0 -0.7168,-2.3497 l -15.5,-22.5 a 4.0630617,4.0630617 0 0 0 -3.4785,-1.7558 z"
       transform="matrix(1.6149626,0,0,1.4870846,-3506.8847,-559.08561)" />
    <path
       style="fill:#c83737;stroke:none;stroke-width:1.54970515px;stroke-linecap:butt;stroke-linejoin:miter;stroke-opacity:1"
       d="m 16.559649,1043.8351 22.609428,-30.2994 47.237744,-2.9742 25.031819,33.4595 -0.40367,34.203 -21.801921,27.8827 -44.411523,0.3719 -27.05069,-19.3322 z"
       id="path4637"
       inkscape:connector-curvature="0"
       sodipodi:nodetypes="ccccccccc" />
    <path
       style="fill:#ececec;stroke:none;stroke-width:1.54970515px;stroke-linecap:butt;stroke-linejoin:miter;stroke-opacity:1"
       d="m 31.128839,1079.6901 -1.043844,-36.5986 15.342123,-18.2167 37.144218,-1.8589 17.562564,23.4216 -1.614844,30.6711 -16.957166,15.6144 -33.308546,0.7436 z"
       id="path4641"
       inkscape:connector-curvature="0"
       sodipodi:nodetypes="ccccccccc" />
    <path
       style="fill:#c83737;stroke:none;stroke-width:1.54970515px;stroke-linecap:butt;stroke-linejoin:miter;stroke-opacity:1"
       d="m 55.36762,1032.9634 2.826226,37.9207 13.929011,0.5577 4.037411,-37.5489 z"
       id="path4643"
       inkscape:connector-curvature="0" />
    <path
       style="fill:#c83737;stroke:none;stroke-width:1.54970515px;stroke-linecap:butt;stroke-linejoin:miter;stroke-opacity:1"
       d="m 58.143086,1077.2046 13.132648,0.8542 -1.213417,8.6094 -11.847833,-0.197 z"
       id="path4645"
       inkscape:connector-curvature="0" />
    <path
       style="fill:#de8787;stroke:none;stroke-width:1.54970515px;stroke-linecap:butt;stroke-linejoin:miter;stroke-opacity:1"
       d="m 16.559649,1043.8351 24.026072,-24.3332 -1.416644,-5.9662 z"
       id="path4664"
       inkscape:connector-curvature="0" />
    <path
       style="fill:#d35f5f;stroke:none;stroke-width:1.54970515px;stroke-linecap:butt;stroke-linejoin:miter;stroke-opacity:1"
       d="m 40.585721,1019.5019 45.8211,-8.9404 -47.237744,2.9742 z"
       id="path4666"
       inkscape:connector-curvature="0" />
    <path
       style="fill:#d35f5f;stroke:none;stroke-width:1.54970515px;stroke-linecap:butt;stroke-linejoin:miter;stroke-opacity:1"
       d="m 16.559649,1043.8351 4.041874,21.934 -2.830687,21.3773 z"
       id="path4668"
       inkscape:connector-curvature="0" />
    <path
       style="fill:#a02c2c;stroke:none;stroke-width:1.54970515px;stroke-linecap:butt;stroke-linejoin:miter;stroke-opacity:1"
       d="m 44.821526,1106.4786 40.871301,-4.6947 3.540222,4.3228 z"
       id="path4670"
       inkscape:connector-curvature="0" />
    <path
       style="fill:#782121;stroke:none;stroke-width:1.54970515px;stroke-linecap:butt;stroke-linejoin:miter;stroke-opacity:1"
       d="m 85.692827,1101.7839 25.342143,-23.5599 -21.801921,27.8827 z"
       id="path4672"
       inkscape:connector-curvature="0" />
    <path
       style="fill:#a02c2c;stroke:none;stroke-width:1.54970515px;stroke-linecap:butt;stroke-linejoin:miter;stroke-opacity:1"
       d="m 111.03497,1078.224 -3.64491,-18.2381 4.04858,-15.9649 z"
       id="path4674"
       inkscape:connector-curvature="0" />
    <path
       style="fill:#d35f5f;stroke:none;stroke-width:1.54970515px;stroke-linecap:butt;stroke-linejoin:miter;stroke-opacity:1"
       d="m 58.193846,1070.8841 1.377041,-33.2434 -4.203267,-4.6773 z"
       id="path4688"
       inkscape:connector-curvature="0" />
    <path
       style="fill:#de8787;stroke:none;stroke-width:1.54970515px;stroke-linecap:butt;stroke-linejoin:miter;stroke-opacity:1"
       d="m 59.570887,1037.6407 16.589381,-3.7478 -20.792648,-0.9295 z"
       id="path4690"
       inkscape:connector-curvature="0" />
    <path
       style="fill:#782121;stroke:none;stroke-width:1.54970515px;stroke-linecap:butt;stroke-linejoin:miter;stroke-opacity:1"
       d="m 58.193846,1070.8841 11.083449,-2.2232 2.845562,2.7809 z"
       id="path4692"
       inkscape:connector-curvature="0" />
    <path
       style="fill:#a02c2c;stroke:none;stroke-width:1.54970515px;stroke-linecap:butt;stroke-linejoin:miter;stroke-opacity:1"
       d="m 69.277295,1068.6609 6.882973,-34.768 -4.037411,37.5489 z"
       id="path4694"
       inkscape:connector-curvature="0" />
    <path
       style="fill:#d35f5f;stroke:none;stroke-width:1.54970515px;stroke-linecap:butt;stroke-linejoin:miter;stroke-opacity:1"
       d="m 58.214484,1086.4712 2.070025,-6.9008 -2.141423,-2.3658 z"
       id="path4696"
       inkscape:connector-curvature="0" />
    <path
       style="fill:#de8787;stroke:none;stroke-width:1.54970515px;stroke-linecap:butt;stroke-linejoin:miter;stroke-opacity:1"
       d="m 60.284509,1079.5704 10.991225,-1.5116 -13.132648,-0.8542 z"
       id="path4698"
       inkscape:connector-curvature="0" />
    <path
       style="fill:#782121;stroke:none;stroke-width:1.54970515px;stroke-linecap:butt;stroke-linejoin:miter;stroke-opacity:1"
       d="m 58.214484,1086.4712 10.206391,-1.3802 1.641442,1.5772 z"
       id="path4700"
       inkscape:connector-curvature="0" />
    <path
       style="fill:#a02c2c;stroke:none;stroke-width:1.54970515px;stroke-linecap:butt;stroke-linejoin:miter;stroke-opacity:1"
       d="m 68.420875,1085.091 2.854859,-7.0322 -1.213417,8.6094 z"
       id="path4702"
       inkscape:connector-curvature="0" />
  </g>
</svg>
