<?xml version="1.0" encoding="UTF-8" standalone="no"?>
<!-- Created with Inkscape (http://www.inkscape.org/) -->

<svg
   xmlns:dc="http://purl.org/dc/elements/1.1/"
   xmlns:cc="http://creativecommons.org/ns#"
   xmlns:rdf="http://www.w3.org/1999/02/22-rdf-syntax-ns#"
   xmlns:svg="http://www.w3.org/2000/svg"
   xmlns="http://www.w3.org/2000/svg"
   xmlns:sodipodi="http://sodipodi.sourceforge.net/DTD/sodipodi-0.dtd"
   xmlns:inkscape="http://www.inkscape.org/namespaces/inkscape"
   width="128"
   height="128"
   viewBox="0 0 128 128.00001"
   version="1.1"
   id="svg6294"
   inkscape:version="0.92.3 (2405546, 2018-03-11)"
   sodipodi:docname="rename.svg">
  <defs
     id="defs6288" />
  <sodipodi:namedview
     id="base"
     pagecolor="#ffffff"
     bordercolor="#666666"
     borderopacity="1.0"
     inkscape:pageopacity="0.0"
     inkscape:pageshadow="2"
     inkscape:zoom="2.0510585"
     inkscape:cx="0.50302756"
     inkscape:cy="60.741583"
     inkscape:document-units="px"
     inkscape:current-layer="layer1"
     showgrid="false"
     units="px"
     inkscape:window-width="1366"
     inkscape:window-height="713"
     inkscape:window-x="0"
     inkscape:window-y="27"
     inkscape:window-maximized="1" />
  <metadata
     id="metadata6291">
    <rdf:RDF>
      <cc:Work
         rdf:about="">
        <dc:format>image/svg+xml</dc:format>
        <dc:type
           rdf:resource="http://purl.org/dc/dcmitype/StillImage" />
        <dc:title></dc:title>
      </cc:Work>
    </rdf:RDF>
  </metadata>
  <g
     inkscape:label="Layer 1"
     inkscape:groupmode="layer"
     id="layer1"
     transform="translate(0,-994.51965)">
    <path
       sodipodi:type="inkscape:offset"
       inkscape:radius="3.5820174"
       inkscape:original="M 2633.1816 0.22070312 L 2633.1816 2.2988281 L 2640.9102 2.2988281 L 2640.9102 47.089844 L 2633.1816 47.089844 L 2633.1816 49.166016 L 2650.9023 49.166016 L 2650.9023 47.089844 L 2643.4727 47.089844 L 2643.4727 2.2988281 L 2650.9023 2.2988281 L 2650.9023 0.22070312 L 2633.1816 0.22070312 z M 2608.4238 4.9726562 L 2594.9961 41.351562 L 2603.877 41.351562 L 2606.168 34.529297 L 2619.4902 34.529297 L 2621.7812 41.351562 L 2630.6621 41.351562 L 2617.2344 4.9726562 L 2608.4238 4.9726562 z M 2612.6152 15.273438 L 2613.043 15.273438 L 2617.2871 27.923828 L 2608.3711 27.923828 L 2612.6152 15.273438 z "
       style="font-style:normal;font-weight:normal;font-size:40px;line-height:1.25;font-family:sans-serif;letter-spacing:0px;word-spacing:0px;fill:#000000;fill-opacity:1;stroke:none;stroke-width:1.20372939"
       id="text6186-3"
       d="m 2633.1816,-3.3613281 a 3.5823756,3.5823756 0 0 0 -3.582,3.58203122 V 2.2988281 a 3.5823756,3.5823756 0 0 0 3.582,3.5820313 h 4.1465 V 43.507812 h -3.8086 a 3.5823756,3.5823756 0 0 0 0.5039,-3.396484 L 2620.5957,3.7324219 a 3.5823756,3.5823756 0 0 0 -3.3613,-2.3417969 h -8.8106 a 3.5823756,3.5823756 0 0 0 -3.3613,2.3417969 l -13.4277,36.3789061 a 3.5823756,3.5823756 0 0 0 3.3613,4.822266 h 8.8809 a 3.5823756,3.5823756 0 0 0 3.3964,-2.441406 l 1.4707,-4.38086 h 8.17 l 1.4707,4.38086 a 3.5823756,3.5823756 0 0 0 3.3964,2.441406 h 8.543 a 3.5823756,3.5823756 0 0 0 -0.7246,2.15625 v 2.076172 a 3.5823756,3.5823756 0 0 0 3.582,3.582031 h 17.7207 a 3.5823756,3.5823756 0 0 0 3.5821,-3.582031 v -2.076172 a 3.5823756,3.5823756 0 0 0 -3.5821,-3.582032 h -3.8476 V 5.8808594 h 3.8476 a 3.5823756,3.5823756 0 0 0 3.5821,-3.5820313 V 0.22070312 a 3.5823756,3.5823756 0 0 0 -3.5821,-3.58203122 z"
       transform="matrix(1.7123556,0,0,1.7123556,-4427.4212,1016.1962)" />
    <path
       style="font-style:normal;font-weight:normal;font-size:40px;line-height:1.25;font-family:sans-serif;letter-spacing:0px;word-spacing:0px;fill:#ececec;fill-opacity:1;stroke:none;stroke-width:2.06121278"
       d="m 81.52046,1016.5739 v 3.5576 h 13.2367 v 76.7006 h -13.2367 v 3.5538 h 30.34446 v -3.5538 H 99.14446 v -76.7006 l 12.72046,4e-4 v -3.5579 z"
       id="text6186"
       inkscape:connector-curvature="0"
       sodipodi:nodetypes="ccccccccccccc" />
    <path
       style="font-style:normal;font-weight:normal;font-size:40px;line-height:1.25;font-family:sans-serif;letter-spacing:0px;word-spacing:0px;fill:#ececec;fill-opacity:1;stroke:none;stroke-width:2.14124703"
       d="m 39.128544,1024.7108 -22.993226,62.2928 h 15.206244 l 3.922815,-11.6808 h 22.813468 l 3.922815,11.6808 h 15.205948 l -22.993077,-62.2928 z m 7.176604,17.64 h 0.731779 l 7.268242,21.6593 H 39.036467 Z"
       id="text6192"
       inkscape:connector-curvature="0" />
    <path
       style="fill:#f9f9f9;stroke:none;stroke-width:2.14124703px;stroke-linecap:butt;stroke-linejoin:miter;stroke-opacity:1"
       d="m 16.135318,1087.0036 22.993226,-62.2928 3.475771,4.887 z"
       id="path6220"
       inkscape:connector-curvature="0" />
    <path
       style="fill:#ffffff;stroke:none;stroke-width:2.14124703px;stroke-linecap:butt;stroke-linejoin:miter;stroke-opacity:1"
       d="m 42.604315,1029.5978 11.609216,-4.887 H 39.128544 Z"
       id="path6222"
       inkscape:connector-curvature="0" />
    <path
       style="fill:#999999;stroke:none;stroke-width:2.14124703px;stroke-linecap:butt;stroke-linejoin:miter;stroke-opacity:1"
       d="m 54.213531,1024.7108 17.454658,58.063 5.538419,4.2298 z"
       id="path6224"
       inkscape:connector-curvature="0" />
    <path
       style="fill:#808080;stroke:none;stroke-width:2.14124703px;stroke-linecap:butt;stroke-linejoin:miter;stroke-opacity:1"
       d="m 71.668189,1082.7738 -9.667529,4.2298 h 15.205948 z"
       id="path6226"
       inkscape:connector-curvature="0" />
    <path
       style="fill:#808080;stroke:none;stroke-width:2.14124703px;stroke-linecap:butt;stroke-linejoin:miter;stroke-opacity:1"
       d="m 35.264377,1075.3228 h 22.813468 l -23.740546,-2.2381 z"
       id="path6228"
       inkscape:connector-curvature="0"
       sodipodi:nodetypes="cccc" />
    <path
       style="fill:#999999;stroke:none;stroke-width:2.14124703px;stroke-linecap:butt;stroke-linejoin:miter;stroke-opacity:1"
       d="m 35.264377,1075.3228 -3.922815,11.6808 -6.175337,-3.369 9.171074,-10.5499 z"
       id="path6230"
       inkscape:connector-curvature="0"
       sodipodi:nodetypes="ccccc" />
    <path
       style="fill:#808080;stroke:none;stroke-width:2.14124703px;stroke-linecap:butt;stroke-linejoin:miter;stroke-opacity:1"
       d="m 16.135318,1087.0036 9.030907,-3.369 6.175337,3.369 z"
       id="path6232"
       inkscape:connector-curvature="0" />
    <path
       style="fill:#999999;stroke:none;stroke-width:2.14124703px;stroke-linecap:butt;stroke-linejoin:miter;stroke-opacity:1"
       d="m 39.036467,1064.0101 18.422935,3.0476 -10.422475,-24.7069 7.268242,21.6593 z"
       id="path6234"
       inkscape:connector-curvature="0" />
  </g>
</svg>
