<?xml version="1.0" encoding="UTF-8" standalone="no"?>
<!-- Created with Inkscape (http://www.inkscape.org/) -->

<svg
   xmlns:dc="http://purl.org/dc/elements/1.1/"
   xmlns:cc="http://creativecommons.org/ns#"
   xmlns:rdf="http://www.w3.org/1999/02/22-rdf-syntax-ns#"
   xmlns:svg="http://www.w3.org/2000/svg"
   xmlns="http://www.w3.org/2000/svg"
   xmlns:sodipodi="http://sodipodi.sourceforge.net/DTD/sodipodi-0.dtd"
   xmlns:inkscape="http://www.inkscape.org/namespaces/inkscape"
   width="128"
   height="128"
   viewBox="0 0 128 128.00001"
   version="1.1"
   id="svg6294"
   inkscape:version="0.92.3 (2405546, 2018-03-11)"
   sodipodi:docname="restart.svg">
  <defs
     id="defs6288" />
  <sodipodi:namedview
     id="base"
     pagecolor="#ffffff"
     bordercolor="#666666"
     borderopacity="1.0"
     inkscape:pageopacity="0.0"
     inkscape:pageshadow="2"
     inkscape:zoom="2.0510585"
     inkscape:cx="0.50302756"
     inkscape:cy="60.741583"
     inkscape:document-units="px"
     inkscape:current-layer="layer1"
     showgrid="false"
     units="px"
     inkscape:window-width="1366"
     inkscape:window-height="713"
     inkscape:window-x="0"
     inkscape:window-y="27"
     inkscape:window-maximized="1" />
  <metadata
     id="metadata6291">
    <rdf:RDF>
      <cc:Work
         rdf:about="">
        <dc:format>image/svg+xml</dc:format>
        <dc:type
           rdf:resource="http://purl.org/dc/dcmitype/StillImage" />
        <dc:title></dc:title>
      </cc:Work>
    </rdf:RDF>
  </metadata>
  <g
     inkscape:label="Layer 1"
     inkscape:groupmode="layer"
     id="layer1"
     transform="translate(0,-994.51965)">
    <path
       transform="matrix(1.4831309,0,0,1.4831309,-3333.3325,-550.68221)"
       sodipodi:type="inkscape:offset"
       inkscape:radius="3.392586"
       inkscape:original="M 2300.041 1051.9863 L 2298.4512 1059.4102 L 2280.375 1061.3945 L 2264.375 1077.8945 L 2265.625 1103.0195 L 2283.375 1118.0195 L 2307.375 1115.0195 L 2320.5 1100.7695 L 2322.125 1088.2695 L 2309.875 1088.3945 L 2308.957 1097.0293 L 2302.5605 1104.7266 L 2288 1106.1445 L 2277 1097.0195 L 2276.75 1081.7695 L 2284.625 1073.6445 L 2296.375 1072.3945 L 2294.916 1080.8008 L 2319.3105 1071.7852 L 2300.041 1051.9863 z "
       style="fill:#000000;stroke:none;stroke-width:1px;stroke-linecap:butt;stroke-linejoin:miter;stroke-opacity:1"
       id="path4715-5"
       d="m 2300.0371,1048.5938 a 3.3929253,3.3929253 0 0 0 -3.3144,2.6816 l -1.0762,5.0293 -15.6426,1.7168 a 3.3929253,3.3929253 0 0 0 -2.0644,1.0117 l -16,16.5 a 3.3929253,3.3929253 0 0 0 -0.9532,2.5293 l 1.25,25.125 a 3.3929253,3.3929253 0 0 0 1.1992,2.4238 l 17.75,15 a 3.3929253,3.3929253 0 0 0 2.6094,0.7754 l 24,-3 a 3.3929253,3.3929253 0 0 0 2.0762,-1.0683 l 13.125,-14.25 a 3.3929253,3.3929253 0 0 0 0.8691,-1.8614 l 1.625,-12.5 a 3.3929253,3.3929253 0 0 0 -3.4004,-3.83 l -12.25,0.125 a 3.3929253,3.3929253 0 0 0 -3.3378,3.0332 l -0.8106,7.6152 -4.8476,5.834 -11.7657,1.1465 -8.7109,-7.2266 -0.2012,-12.2832 6.0391,-6.2324 6.0586,-0.6446 -0.6895,3.9766 a 3.3929253,3.3929253 0 0 0 4.5176,3.7617 l 24.3945,-9.0156 a 3.3929253,3.3929253 0 0 0 1.2559,-5.5469 l -19.2695,-19.8008 a 3.3929253,3.3929253 0 0 0 -2.4356,-1.0253 z" />
    <path
       style="fill:#00ccff;stroke:none;stroke-width:1.48313093px;stroke-linecap:butt;stroke-linejoin:miter;stroke-opacity:1"
       d="m 72.492237,1039.8196 -2.165222,12.4667 36.181125,-13.3713 -28.577855,-29.3645 -2.359661,11.0117 -26.808481,2.943 -23.730094,24.4716 1.853913,37.2637 26.325574,22.2469 35.595141,-4.4494 19.466093,-21.1346 2.41008,-18.5391 -18.168342,0.1854 -1.36137,12.8052 -9.486698,11.4174 -21.595424,2.103 -16.31444,-13.5336 -0.370783,-22.6178 11.679656,-12.0504 z"
       id="path4715"
       inkscape:connector-curvature="0"
       sodipodi:nodetypes="cccccccccccccccccccc" />
    <path
       style="fill:#55ddff;stroke:none;stroke-width:1.48313093px;stroke-linecap:butt;stroke-linejoin:miter;stroke-opacity:1"
       d="m 25.032049,1047.9768 26.024497,-19.5491 -2.294403,-4.9225 z"
       id="path4717"
       inkscape:connector-curvature="0" />
    <path
       style="fill:#aaeeff;stroke:none;stroke-width:1.48313093px;stroke-linecap:butt;stroke-linejoin:miter;stroke-opacity:1"
       d="m 51.056546,1028.4277 24.514078,-7.8655 -26.808481,2.943 z"
       id="path4719"
       inkscape:connector-curvature="0" />
    <path
       style="fill:#55ddff;stroke:none;stroke-width:1.48313093px;stroke-linecap:butt;stroke-linejoin:miter;stroke-opacity:1"
       d="m 75.570624,1020.5622 4.588214,-3.1462 -2.228553,-7.8655 z"
       id="path4721"
       inkscape:connector-curvature="0" />
    <path
       style="fill:#00aad4;stroke:none;stroke-width:1.48313093px;stroke-linecap:butt;stroke-linejoin:miter;stroke-opacity:1"
       d="m 77.930285,1009.5505 28.577855,29.3645 -11.667052,-1.0487 z"
       id="path4725"
       inkscape:connector-curvature="0" />
    <path
       style="fill:#0088aa;stroke:none;stroke-width:1.48313093px;stroke-linecap:butt;stroke-linejoin:miter;stroke-opacity:1"
       d="m 94.841088,1037.8663 -24.514073,14.42 36.181125,-13.3713 z"
       id="path4727"
       inkscape:connector-curvature="0" />
    <path
       style="fill:#00aad4;stroke:none;stroke-width:1.48313093px;stroke-linecap:butt;stroke-linejoin:miter;stroke-opacity:1"
       d="m 72.492237,1039.8196 -18.682851,-1.8877 1.256063,3.7416 z"
       id="path4729"
       inkscape:connector-curvature="0" />
    <path
       style="fill:#0088aa;stroke:none;stroke-width:1.48313093px;stroke-linecap:butt;stroke-linejoin:miter;stroke-opacity:1"
       d="m 53.809386,1037.9319 -10.423593,15.792 11.679656,-12.0504 z"
       id="path4731"
       inkscape:connector-curvature="0" />
    <path
       style="fill:#aaeeff;stroke:none;stroke-width:1.48313093px;stroke-linecap:butt;stroke-linejoin:miter;stroke-opacity:1"
       d="m 25.032049,1047.9768 4.634784,16.8706 -2.780871,20.3931 z"
       id="path4733"
       inkscape:connector-curvature="0" />
    <path
       style="fill:#00aad4;stroke:none;stroke-width:1.48313093px;stroke-linecap:butt;stroke-linejoin:miter;stroke-opacity:1"
       d="m 43.385793,1053.7239 -3.522435,13.719 3.893218,8.8988 z"
       id="path4735"
       inkscape:connector-curvature="0" />
    <path
       style="fill:#55ddff;stroke:none;stroke-width:1.48313093px;stroke-linecap:butt;stroke-linejoin:miter;stroke-opacity:1"
       d="m 60.071016,1089.8753 23.17392,2.4101 -1.578496,-4.5131 z"
       id="path4737"
       inkscape:connector-curvature="0" />
    <path
       style="fill:#aaeeff;stroke:none;stroke-width:1.48313093px;stroke-linecap:butt;stroke-linejoin:miter;stroke-opacity:1"
       d="m 83.244936,1092.2854 7.908202,-15.9305 -9.486698,11.4174 z"
       id="path4739"
       inkscape:connector-curvature="0" />
    <path
       style="fill:#0088aa;stroke:none;stroke-width:1.48313093px;stroke-linecap:butt;stroke-linejoin:miter;stroke-opacity:1"
       d="m 53.211536,1107.4874 33.555836,-8.3426 2.039305,3.8932 z"
       id="path4741"
       inkscape:connector-curvature="0" />
    <path
       style="fill:#00aad4;stroke:none;stroke-width:1.48313093px;stroke-linecap:butt;stroke-linejoin:miter;stroke-opacity:1"
       d="m 86.767372,1099.1448 21.505398,-17.2414 -19.466093,21.1346 z"
       id="path4743"
       inkscape:connector-curvature="0" />
    <path
       style="fill:#aaeeff;stroke:none;stroke-width:1.48313093px;stroke-linecap:butt;stroke-linejoin:miter;stroke-opacity:1"
       d="m 110.68285,1063.3643 -13.718952,3.8932 -4.44939,-3.7078 z"
       id="path4745"
       inkscape:connector-curvature="0"
       sodipodi:nodetypes="cccc" />
    <path
       style="fill:#55ddff;stroke:none;stroke-width:1.48313093px;stroke-linecap:butt;stroke-linejoin:miter;stroke-opacity:1"
       d="m 96.963898,1067.2575 -5.81076,9.0974 1.36137,-12.8052 z"
       id="path4749"
       inkscape:connector-curvature="0"
       sodipodi:nodetypes="cccc" />
  </g>
</svg>
