<?xml version="1.0" encoding="UTF-8" standalone="no"?>
<svg
   xmlns:dc="http://purl.org/dc/elements/1.1/"
   xmlns:cc="http://creativecommons.org/ns#"
   xmlns:rdf="http://www.w3.org/1999/02/22-rdf-syntax-ns#"
   xmlns:svg="http://www.w3.org/2000/svg"
   xmlns="http://www.w3.org/2000/svg"
   id="svg8"
   version="1.1"
   viewBox="0 0 128 128.00001"
   height="128"
   width="128">
  <defs
     id="defs2" />
  <metadata
     id="metadata5">
    <rdf:RDF>
      <cc:Work
         rdf:about="">
        <dc:format>image/svg+xml</dc:format>
        <dc:type
           rdf:resource="http://purl.org/dc/dcmitype/StillImage" />
        <dc:title></dc:title>
      </cc:Work>
    </rdf:RDF>
  </metadata>
  <g
     transform="translate(0,-994.5197)"
     id="layer1">
    <path
       style="fill:#000000;stroke:none;stroke-width:0.98111725px;stroke-linecap:butt;stroke-linejoin:miter;stroke-opacity:1"
       id="path1781-3"
       d="m 46.836554,1005.2215 a 7.095147,7.095147 0 0 0 -3.7799,0.9817 l -19.3644,11.4258 a 7.095147,7.095147 0 0 0 -2.8672,3.2116 l -10.2031,22.7911 a 7.095147,7.095147 0 0 0 -0.61994,3.074 l 0.69742,28.629 a 7.095147,7.095147 0 0 0 0.70604,2.9017 l 8.36054,17.3666 a 7.095147,7.095147 0 0 0 2.23866,2.6778 l 13.9916,10.0998 a 7.095147,7.095147 0 0 0 3.69377,1.3259 l 43.29222,2.7985 a 7.095147,7.095147 0 0 0 4.35677,-1.1537 l 17.125726,-11.2882 a 7.095147,7.095147 0 0 0 2.06645,-2.0836 l 10.10837,-15.7137 a 7.095147,7.095147 0 0 0 1.12797,-3.7969 l 0.23232,-39.1078 a 7.095147,7.095147 0 0 0 -0.82658,-3.3665 l -6.44047,-12.1491 a 7.095147,7.095147 0 0 0 -2.16099,-2.4626 l -19.631296,-13.9226 a 7.095147,7.095147 0 0 0 -3.93486,-1.3087 z" />
    <path
       id="path1781"
       d="m 17.100144,1046.5333 0.69828,28.6304 8.35847,17.3676 13.98717,10.0989 43.29467,2.7932 17.128766,-11.2849 10.10498,-15.716 0.23276,-39.1051 -6.43666,-12.1497 -19.633346,-13.92 -38.17379,-0.9312 -19.35768,11.4273 z"
       style="fill:#d45500;stroke:none;stroke-width:0.98111731px;stroke-linecap:butt;stroke-linejoin:miter;stroke-opacity:1" />
    <path
       id="path1783"
       d="m 53.290384,1012.4772 -14.93329,24.8002 -3.66285,34.6451 -3.5375,-1.3155 -2.34639,-26.2531 -1.50659,-20.6101 -3.68247,8.6662 2.06174,16.3875 2.14045,20.7396 -10.3409,-7.3227 0.11037,4.5229 10.39539,6.2548 -1.83137,19.5392 4.62795,3.2772 0.16591,-21.498 4.44377,0.8628 2.63292,17.7345 7.09011,10.043 4.86726,0.3143 -8.00608,-11.5091 -3.7865,-16.1285 5.10297,0.8216 7.57109,16.7884 14.437,11.0165 7.5155,0.4846 -18.99,-12.9826 -6.41942,-14.483 37.52775,0.4925 25.783076,-7.4023 0.0352,-5.8867 -25.656566,8.8454 -37.50667,-0.023 12.80053,-25.6028 44.075816,-20.5294 -6.333456,-4.4969 -40.99999,20.3697 -13.29748,30.2573 -5.91791,-0.7866 5.20956,-33.7534 17.04117,-26.1129 z"
       style="fill:#803300;stroke:none;stroke-width:0.98111731px;stroke-linecap:butt;stroke-linejoin:miter;stroke-opacity:1" />
    <path
       id="path1824"
       d="m 17.798424,1075.1637 3.95703,-25.8372 9.38916,-22.9995 -3.84085,-2.5832 -10.20362,22.7895 z"
       style="opacity:0.3;fill:#ffffff;stroke:none;stroke-width:0.98111731px;stroke-linecap:butt;stroke-linejoin:miter;stroke-opacity:1" />
    <path
       id="path1826"
       d="m 47.592584,1017.6702 37.24274,-4.4225 -38.1738,-0.9312 -19.35776,11.4273 3.84085,2.5832 z"
       style="opacity:0.2;fill:#ffffff;stroke:none;stroke-width:0.98111731px;stroke-linecap:butt;stroke-linejoin:miter;stroke-opacity:1" />
    <path
       id="path1828"
       d="m 40.144064,1102.6302 40.03589,-3.7244 14.69116,-7.7535 5.696386,2.9862 -17.128766,11.2849 z"
       style="opacity:0.3;fill:#000000;stroke:none;stroke-width:0.98111731px;stroke-linecap:butt;stroke-linejoin:miter;stroke-opacity:1" />
    <path
       id="path1830"
       d="m 94.871114,1091.1523 9.982196,-14.8247 6.05202,-37.0102 -0.23276,39.1051 -10.10507,15.716 z"
       style="opacity:0.2;fill:#000000;stroke:none;stroke-width:0.98111731px;stroke-linecap:butt;stroke-linejoin:miter;stroke-opacity:1" />
  </g>
</svg>
