<?xml version="1.0" encoding="UTF-8" standalone="no"?>
<!-- Created with Inkscape (http://www.inkscape.org/) -->

<svg
   xmlns:dc="http://purl.org/dc/elements/1.1/"
   xmlns:cc="http://creativecommons.org/ns#"
   xmlns:rdf="http://www.w3.org/1999/02/22-rdf-syntax-ns#"
   xmlns:svg="http://www.w3.org/2000/svg"
   xmlns="http://www.w3.org/2000/svg"
   xmlns:sodipodi="http://sodipodi.sourceforge.net/DTD/sodipodi-0.dtd"
   xmlns:inkscape="http://www.inkscape.org/namespaces/inkscape"
   width="128"
   height="128"
   viewBox="0 0 128 128.00001"
   version="1.1"
   id="svg6294"
   inkscape:version="0.92.3 (2405546, 2018-03-11)"
   sodipodi:docname="save.svg">
  <defs
     id="defs6288" />
  <sodipodi:namedview
     id="base"
     pagecolor="#ffffff"
     bordercolor="#666666"
     borderopacity="1.0"
     inkscape:pageopacity="0.0"
     inkscape:pageshadow="2"
     inkscape:zoom="2.0510585"
     inkscape:cx="0.50302756"
     inkscape:cy="60.741583"
     inkscape:document-units="px"
     inkscape:current-layer="layer1"
     showgrid="false"
     units="px"
     inkscape:window-width="1366"
     inkscape:window-height="713"
     inkscape:window-x="0"
     inkscape:window-y="27"
     inkscape:window-maximized="1" />
  <metadata
     id="metadata6291">
    <rdf:RDF>
      <cc:Work
         rdf:about="">
        <dc:format>image/svg+xml</dc:format>
        <dc:type
           rdf:resource="http://purl.org/dc/dcmitype/StillImage" />
        <dc:title></dc:title>
      </cc:Work>
    </rdf:RDF>
  </metadata>
  <g
     inkscape:label="Layer 1"
     inkscape:groupmode="layer"
     id="layer1"
     transform="translate(0,-994.51965)">
    <path
       sodipodi:type="inkscape:offset"
       inkscape:radius="3.8840015"
       inkscape:original="M 2522.916 1049.4141 L 2524.0527 1098.8457 L 2528.2188 1102.8223 L 2577.8418 1102.4434 L 2576.5156 1052.2539 L 2522.916 1049.4141 z "
       style="fill:#000000;stroke:none;stroke-width:1px;stroke-linecap:butt;stroke-linejoin:miter;stroke-opacity:1"
       id="path4969-9"
       d="m 2522.7324,1045.5352 a 3.8843899,3.8843899 0 0 0 -3.6992,3.9687 l 1.1367,49.4316 a 3.8843899,3.8843899 0 0 0 1.2012,2.7188 l 4.166,3.9785 a 3.8843899,3.8843899 0 0 0 2.7109,1.0742 l 49.6231,-0.3789 a 3.8843899,3.8843899 0 0 0 3.8535,-3.9883 l -1.3262,-50.1894 a 3.8843899,3.8843899 0 0 0 -3.6777,-3.7754 l -53.5996,-2.8398 a 3.8843899,3.8843899 0 0 0 -0.3887,0 z"
       transform="matrix(1.7226582,0,0,1.7226582,-4329.4315,-793.95843)" />
    <path
       style="fill:#666666;stroke:none;stroke-width:1.72265804px;stroke-linecap:butt;stroke-linejoin:miter;stroke-opacity:1"
       d="m 18.648718,1098.9767 -1.957416,-85.1543 92.331938,4.8939 2.28379,86.4592 -85.480564,0.6526 z"
       id="path4969"
       inkscape:connector-curvature="0" />
    <path
       style="fill:#333333;stroke:none;stroke-width:1.72265804px;stroke-linecap:butt;stroke-linejoin:miter;stroke-opacity:1"
       d="m 25.826466,1105.8281 77.438064,-7.3645 8.0425,6.7119 z"
       id="path5023"
       inkscape:connector-curvature="0" />
    <path
       style="fill:#b3b3b3;stroke:none;stroke-width:1.72265804px;stroke-linecap:butt;stroke-linejoin:miter;stroke-opacity:1"
       d="m 90.424696,1073.5278 -51.057249,2.4461 0.299415,29.7494 51.198584,-0.3937 z m -30.015493,4.7305 -0.326041,23.165 -12.560012,-0.8142 0.326375,-20.7189 z"
       id="path4971"
       inkscape:connector-curvature="0" />
    <path
       style="fill:#999999;stroke:none;stroke-width:1.72265804px;stroke-linecap:butt;stroke-linejoin:miter;stroke-opacity:1"
       d="m 23.672622,1023.2549 85.350618,-4.5386 -92.331938,-4.8939 z"
       id="path5021"
       inkscape:connector-curvature="0" />
    <path
       style="fill:#f2f2f2;stroke:none;stroke-width:1.72265804px;stroke-linecap:butt;stroke-linejoin:miter;stroke-opacity:1"
       d="m 31.319253,1014.5974 -1.086802,55.5052 69.004045,-2.2844 -0.69646,-49.6578 z"
       id="path4975"
       inkscape:connector-curvature="0" />
    <path
       style="fill:#808080;stroke:none;stroke-width:1.72265804px;stroke-linecap:butt;stroke-linejoin:miter;stroke-opacity:1"
       d="m 18.648718,1098.9767 5.023904,-75.7218 -6.98132,-9.4325 z"
       id="path5019"
       inkscape:connector-curvature="0" />
    <path
       style="fill:#4d4d4d;stroke:none;stroke-width:1.72265804px;stroke-linecap:butt;stroke-linejoin:miter;stroke-opacity:1"
       d="m 103.26453,1098.4636 5.75871,-79.7473 2.28379,86.4592 z"
       id="path5025"
       inkscape:connector-curvature="0" />
    <path
       style="fill:#c83737;stroke:none;stroke-width:1.67457902px;stroke-linecap:butt;stroke-linejoin:miter;stroke-opacity:1"
       d="m 31.101055,1025.7405 67.550171,0.3579 -0.11052,-7.9377 -67.221621,-3.563 z"
       id="path5050"
       inkscape:connector-curvature="0"
       sodipodi:nodetypes="ccccc" />
    <path
       style="fill:#4d4d4d;stroke:none;stroke-width:1.47997129px;stroke-linecap:butt;stroke-linejoin:miter;stroke-opacity:1"
       d="m 34.626379,1035.433 59.949257,-0.1357 0.062,4.4779 -60.091429,-0.2871 z"
       id="path5052"
       inkscape:connector-curvature="0"
       sodipodi:nodetypes="ccccc" />
    <path
       style="fill:#4d4d4d;stroke:none;stroke-width:1.47997129px;stroke-linecap:butt;stroke-linejoin:miter;stroke-opacity:1"
       d="m 34.376867,1048.1789 60.355849,-1.6766 0.0569,4.0754 -60.481604,1.0982 z"
       id="path5054"
       inkscape:connector-curvature="0"
       sodipodi:nodetypes="ccccc" />
    <path
       style="fill:#4d4d4d;stroke:none;stroke-width:1.47997129px;stroke-linecap:butt;stroke-linejoin:miter;stroke-opacity:1"
       d="m 34.157329,1059.3949 60.728947,-1.963 0.0402,2.8297 -60.839804,2.7728 z"
       id="path5056"
       inkscape:connector-curvature="0"
       sodipodi:nodetypes="ccccc" />
  </g>
</svg>
