<?xml version="1.0" encoding="UTF-8" standalone="no"?>
<!-- Created with Inkscape (http://www.inkscape.org/) -->

<svg
   xmlns:dc="http://purl.org/dc/elements/1.1/"
   xmlns:cc="http://creativecommons.org/ns#"
   xmlns:rdf="http://www.w3.org/1999/02/22-rdf-syntax-ns#"
   xmlns:svg="http://www.w3.org/2000/svg"
   xmlns="http://www.w3.org/2000/svg"
   xmlns:sodipodi="http://sodipodi.sourceforge.net/DTD/sodipodi-0.dtd"
   xmlns:inkscape="http://www.inkscape.org/namespaces/inkscape"
   width="128"
   height="128"
   viewBox="0 0 128 128.00001"
   version="1.1"
   id="svg6294"
   inkscape:version="0.92.3 (2405546, 2018-03-11)"
   sodipodi:docname="screen32.svg">
  <defs
     id="defs6288" />
  <sodipodi:namedview
     id="base"
     pagecolor="#ffffff"
     bordercolor="#666666"
     borderopacity="1.0"
     inkscape:pageopacity="0.0"
     inkscape:pageshadow="2"
     inkscape:zoom="5.8012695"
     inkscape:cx="45.647481"
     inkscape:cy="39.237827"
     inkscape:document-units="px"
     inkscape:current-layer="layer1"
     showgrid="false"
     units="px"
     inkscape:window-width="1366"
     inkscape:window-height="713"
     inkscape:window-x="0"
     inkscape:window-y="27"
     inkscape:window-maximized="1" />
  <metadata
     id="metadata6291">
    <rdf:RDF>
      <cc:Work
         rdf:about="">
        <dc:format>image/svg+xml</dc:format>
        <dc:type
           rdf:resource="http://purl.org/dc/dcmitype/StillImage" />
        <dc:title />
      </cc:Work>
    </rdf:RDF>
  </metadata>
  <g
     inkscape:label="Layer 1"
     inkscape:groupmode="layer"
     id="layer1"
     transform="translate(0,-994.51965)">
    <path
       sodipodi:type="inkscape:offset"
       inkscape:radius="3.8390856"
       inkscape:original="M 100.09375 927.21289 L 100.09375 960.46289 L 121.98633 960.7168 L 121.44922 966.13477 L 115.22461 966.66211 L 109.89258 970.4375 L 120.53516 972.9043 L 130.95703 973.15234 L 142.95898 970.07031 L 136.46289 966.85938 L 129.13867 966.87109 L 128.76367 960.79492 L 150.5293 961.04688 L 152.46875 927.21289 L 100.09375 927.21289 z "
       style="fill:#000000;stroke:none;stroke-width:1.16400194px;stroke-linecap:butt;stroke-linejoin:miter;stroke-opacity:1"
       id="path19321-6-1-9"
       d="m 100.09375,923.37305 a 3.8394695,3.8394695 0 0 0 -3.839844,3.83984 v 33.25 a 3.8394695,3.8394695 0 0 0 3.794924,3.83789 l 11.67578,0.13477 -4.05078,2.86914 a 3.8394695,3.8394695 0 0 0 1.35156,6.87304 l 10.64258,2.4668 a 3.8394695,3.8394695 0 0 0 0.77539,0.0977 l 10.42187,0.24804 a 3.8394695,3.8394695 0 0 0 1.04688,-0.11914 l 12.00195,-3.08203 a 3.8394695,3.8394695 0 0 0 0.7461,-7.16015 l -3.75196,-1.85547 9.57618,0.11133 a 3.8394695,3.8394695 0 0 0 3.87695,-3.61915 l 1.93945,-33.83398 a 3.8394695,3.8394695 0 0 0 -3.83203,-4.05859 z"
       transform="matrix(1.7984075,0,0,1.7984075,-163.10375,-638.50895)" />
    <path
       style="fill:#333333;stroke:none;stroke-width:2.0933497px;stroke-linecap:butt;stroke-linejoin:miter;stroke-opacity:1"
       d="m 56.952389,1082.4184 -1.640651,16.5745 -11.192766,0.9463 -9.589433,6.7926 19.138653,4.435 18.743811,0.4448 21.584972,-5.5417 -11.68303,-5.7736 -13.173802,0.022 -1.068794,-17.3296 z"
       id="path19321-6-1"
       inkscape:connector-curvature="0"
       sodipodi:nodetypes="ccccccccccc" />
    <path
       style="fill:#444444;fill-opacity:1;stroke:none;stroke-width:1.69720674px;stroke-linecap:butt;stroke-linejoin:miter;stroke-opacity:1"
       d="m 54.791621,1104.596 6.267054,-18.301 -4.106286,-3.8766 z"
       id="path19347-7-1"
       inkscape:connector-curvature="0"
       sodipodi:nodetypes="cccc" />
    <path
       style="fill:#4d4d4d;stroke:none;stroke-width:1.71914041px;stroke-linecap:butt;stroke-linejoin:miter;stroke-opacity:1"
       d="m 16.905152,1028.9963 h 94.191588 l -3.48856,60.845 -90.703028,-1.0492 z"
       id="path19317-0-3"
       inkscape:connector-curvature="0"
       sodipodi:nodetypes="ccccc" />
    <path
       style="fill:#37abc8;stroke:none;stroke-width:1.71914041px;stroke-linecap:butt;stroke-linejoin:miter;stroke-opacity:1"
       d="m 23.678416,1035.7328 80.441174,-0.9667 -1.58573,44.0603 -76.431532,-1.0492 z"
       id="path19319-4-0"
       inkscape:connector-curvature="0"
       sodipodi:nodetypes="ccccc" />
    <path
       style="fill:#808080;fill-opacity:1;stroke:none;stroke-width:1.71914041px;stroke-linecap:butt;stroke-linejoin:miter;stroke-opacity:1"
       d="m 16.905152,1088.7921 3.343743,-56.2837 -3.343743,-3.5121 z"
       id="path19323-8-3"
       inkscape:connector-curvature="0"
       sodipodi:nodetypes="cccc" />
    <path
       style="fill:#666666;fill-opacity:1;stroke:none;stroke-width:1.71914041px;stroke-linecap:butt;stroke-linejoin:miter;stroke-opacity:1"
       d="m 20.248895,1032.5084 90.847845,-3.5121 H 16.905152 Z"
       id="path19325-4-2"
       inkscape:connector-curvature="0"
       sodipodi:nodetypes="cccc" />
    <path
       style="fill:#252525;fill-opacity:1;stroke:none;stroke-width:1.71914041px;stroke-linecap:butt;stroke-linejoin:miter;stroke-opacity:1"
       d="m 16.905152,1088.7921 90.703028,1.0492 -2.77502,-5.4418 z"
       id="path19327-8-1"
       inkscape:connector-curvature="0"
       sodipodi:nodetypes="cccc" />
    <path
       style="fill:#333333;stroke:none;stroke-width:1.71914041px;stroke-linecap:butt;stroke-linejoin:miter;stroke-opacity:1"
       d="m 104.83316,1084.3995 6.26358,-55.4032 -3.48856,60.845 z"
       id="path19329-1-7"
       inkscape:connector-curvature="0"
       sodipodi:nodetypes="cccc" />
    <path
       style="fill:#2c879e;fill-opacity:1;stroke:none;stroke-width:1.71914041px;stroke-linecap:butt;stroke-linejoin:miter;stroke-opacity:1"
       d="m 104.11959,1034.7661 -76.806682,4.8822 -3.634492,-3.9155 z"
       id="path19331-6-5"
       inkscape:connector-curvature="0"
       sodipodi:nodetypes="cccc" />
    <path
       style="fill:#287b90;fill-opacity:1;stroke:none;stroke-width:1.71914041px;stroke-linecap:butt;stroke-linejoin:miter;stroke-opacity:1"
       d="m 27.312908,1039.6483 -1.21058,38.1289 -2.423912,-42.0444 z"
       id="path19333-8-6"
       inkscape:connector-curvature="0"
       sodipodi:nodetypes="cccc" />
    <path
       style="fill:#6bc0d6;fill-opacity:1;stroke:none;stroke-width:1.71914041px;stroke-linecap:butt;stroke-linejoin:miter;stroke-opacity:1"
       d="m 26.102328,1077.7772 72.354553,-2.4886 4.076979,3.5378 z"
       id="path19335-5-5"
       inkscape:connector-curvature="0"
       sodipodi:nodetypes="cccc" />
    <path
       style="fill:#59b9d1;fill-opacity:1;stroke:none;stroke-width:1.71914041px;stroke-linecap:butt;stroke-linejoin:miter;stroke-opacity:1"
       d="m 98.456881,1075.2886 5.662709,-40.5225 -1.58573,44.0603 z"
       id="path19337-2-4"
       inkscape:connector-curvature="0"
       sodipodi:nodetypes="cccc" />
    <path
       style="fill:#262626;fill-opacity:1;stroke:none;stroke-width:1.69720674px;stroke-linecap:butt;stroke-linejoin:miter;stroke-opacity:1"
       d="m 72.412003,1111.6116 11.332809,-7.2262 10.252163,1.6845 z"
       id="path19343-1-2"
       inkscape:connector-curvature="0"
       sodipodi:nodetypes="cccc" />
    <path
       style="fill:#2b2b2b;fill-opacity:1;stroke:none;stroke-width:1.69720674px;stroke-linecap:butt;stroke-linejoin:miter;stroke-opacity:1"
       d="m 83.744812,1104.3854 -1.430867,-4.0891 11.68303,5.7736 z"
       id="path19345-9-2"
       inkscape:connector-curvature="0"
       sodipodi:nodetypes="cccc" />
    <path
       style="fill:#505050;fill-opacity:1;stroke:none;stroke-width:1.69720674px;stroke-linecap:butt;stroke-linejoin:miter;stroke-opacity:1"
       d="m 55.311738,1098.9929 -0.161497,1.8822 -11.031305,-0.9359 z"
       id="path19349-9-1"
       inkscape:connector-curvature="0"
       sodipodi:nodetypes="cccc" />
    <path
       style="fill:#444444;fill-opacity:1;stroke:none;stroke-width:1.69720674px;stroke-linecap:butt;stroke-linejoin:miter;stroke-opacity:1"
       d="m 46.644637,1105.9408 -12.115098,0.791 9.589433,-6.7926 z"
       id="path19351-6-7"
       inkscape:connector-curvature="0"
       sodipodi:nodetypes="cccc" />
    <path
       style="fill:#444444;fill-opacity:1;stroke:none;stroke-width:1.69720674px;stroke-linecap:butt;stroke-linejoin:miter;stroke-opacity:1"
       d="m 34.529539,1106.7318 12.115098,-0.791 7.023555,5.226 z"
       id="path19353-0-2"
       inkscape:connector-curvature="0"
       sodipodi:nodetypes="cccc" />
    <path
       sodipodi:type="inkscape:offset"
       inkscape:radius="0.77357572"
       inkscape:original="M 117.28125 935.40039 C 116.43782 935.40039 115.6595 935.5509 114.94727 935.85547 C 114.23504 936.16004 113.66351 936.59826 113.23242 937.16992 C 112.80134 937.74158 112.58594 938.42608 112.58594 939.22266 L 115.70703 939.22266 C 115.70703 938.815 115.87669 938.49835 116.21875 938.27344 C 116.56549 938.04384 116.95681 937.92969 117.39258 937.92969 C 117.98298 937.92969 118.4212 938.08645 118.70703 938.40039 C 118.99286 938.71433 119.13672 939.08219 119.13672 939.50391 C 119.13672 940.05214 118.97996 940.51381 118.66602 940.88867 C 118.35676 941.25884 117.88453 941.44336 117.25195 941.44336 L 115.70703 941.44336 L 115.70703 944.14258 L 117.25195 944.14258 C 117.91264 944.14258 118.42866 944.27041 118.79883 944.52344 C 119.17369 944.77178 119.36133 945.25379 119.36133 945.9707 C 119.36133 946.44865 119.18854 946.84856 118.8418 947.17188 C 118.49505 947.49519 118.01109 947.6582 117.39258 947.6582 C 116.87246 947.6582 116.42877 947.50692 116.05859 947.20703 C 115.69311 946.90714 115.50977 946.53381 115.50977 946.08398 L 112.38867 946.08398 C 112.38867 946.8009 112.53253 947.41934 112.81836 947.93945 C 113.10419 948.45488 113.48377 948.87825 113.95703 949.21094 C 114.43498 949.54362 114.96077 949.7899 115.53711 949.94922 C 116.11814 950.10853 116.70022 950.1875 117.28125 950.1875 C 118.26525 950.1875 119.146 950.02644 119.92383 949.70312 C 120.70634 949.37512 121.32165 948.90172 121.77148 948.2832 C 122.226 947.66 122.45313 946.90826 122.45312 946.02734 C 122.45312 945.19797 122.23655 944.50487 121.80078 943.94727 C 121.36501 943.38498 120.75205 942.97451 119.96484 942.7168 C 120.67239 942.38411 121.22671 941.91931 121.625 941.32422 C 122.02797 940.72445 122.22852 940.08998 122.22852 939.41992 C 122.22852 938.1126 121.77309 937.11771 120.85938 936.43359 C 119.95034 935.74479 118.75725 935.40039 117.28125 935.40039 z M 134.76367 935.40039 C 133.74218 935.40039 132.86026 935.62009 132.11523 936.06055 C 131.3702 936.49632 130.79555 937.0827 130.39258 937.81836 C 129.98961 938.54933 129.78906 939.35346 129.78906 940.23438 L 132.9082 940.23438 C 132.9082 939.58775 133.06809 939.0471 133.38672 938.61133 C 133.70535 938.17556 134.1467 937.95703 134.70898 937.95703 C 135.2291 937.95703 135.63331 938.14037 135.92383 938.50586 C 136.21903 938.86666 136.36719 939.29316 136.36719 939.78516 C 136.36719 940.19281 136.24131 940.65762 135.98828 941.17773 C 135.73994 941.69316 135.28373 942.28815 134.62305 942.96289 L 129.95703 947.62891 L 129.95703 949.99023 L 139.85352 949.99023 L 139.85352 947.29102 L 134.42773 947.29102 L 134.42773 947.20703 L 136.25391 945.32422 C 137.25197 944.28399 138.03459 943.33288 138.60156 942.4707 C 139.17322 941.60384 139.45898 940.67189 139.45898 939.67383 C 139.45898 938.8304 139.25844 938.08726 138.85547 937.44531 C 138.4525 936.80337 137.897 936.30221 137.18945 935.94141 C 136.48191 935.58061 135.6727 935.40039 134.76367 935.40039 z M 126.15039 937.56445 C 125.67245 937.56445 125.26393 937.73607 124.92188 938.07812 C 124.57982 938.42018 124.4082 938.8287 124.4082 939.30664 C 124.4082 939.79864 124.57982 940.21966 124.92188 940.56641 C 125.26393 940.90846 125.67245 941.07812 126.15039 941.07812 C 126.62833 941.07812 127.0388 940.90846 127.38086 940.56641 C 127.72292 940.21966 127.89453 939.79864 127.89453 939.30664 C 127.89453 938.8287 127.72292 938.42018 127.38086 938.07812 C 127.0388 937.73607 126.62833 937.56445 126.15039 937.56445 z M 126.15039 944.64844 C 125.67245 944.64844 125.26393 944.82005 124.92188 945.16211 C 124.57982 945.50417 124.4082 945.91463 124.4082 946.39258 C 124.4082 946.88458 124.57982 947.30365 124.92188 947.65039 C 125.26393 947.99245 125.67245 948.16406 126.15039 948.16406 C 126.62833 948.16406 127.0388 947.99245 127.38086 947.65039 C 127.72292 947.30365 127.89453 946.88458 127.89453 946.39258 C 127.89453 945.91463 127.72292 945.50417 127.38086 945.16211 C 127.0388 944.82005 126.62833 944.64844 126.15039 944.64844 z "
       style="font-style:normal;font-weight:normal;font-size:19.79249763px;line-height:1.25;font-family:sans-serif;letter-spacing:0px;word-spacing:0px;fill:#000000;fill-opacity:1;stroke:none;stroke-width:0.49481243"
       id="text19429-4-1-8"
       d="m 117.28125,934.62695 c -0.93546,0 -1.82382,0.16913 -2.63867,0.51758 -0.82132,0.35122 -1.51278,0.8782 -2.02735,1.56055 -0.53522,0.70977 -0.80273,1.58154 -0.80273,2.51758 a 0.77365308,0.77365308 0 0 0 0.77344,0.77343 h 3.12109 a 0.77365308,0.77365308 0 0 0 0.77344,-0.77343 c 0,-0.19303 0.002,-0.19643 0.16406,-0.30274 a 0.77365308,0.77365308 0 0 0 0.002,-0.002 c 0.22177,-0.14684 0.44542,-0.21484 0.7461,-0.21485 0.45347,0 0.63504,0.10107 0.74219,0.21876 0.17029,0.18704 0.22851,0.33623 0.22851,0.58203 0,0.40076 -0.0964,0.65632 -0.29101,0.88867 -0.14194,0.16989 -0.33817,0.27734 -0.82032,0.27734 h -1.54492 a 0.77365308,0.77365308 0 0 0 -0.77344,0.77344 v 2.69922 a 0.77365308,0.77365308 0 0 0 0.77344,0.77344 h 1.54492 c 0.56091,0 0.9155,0.11357 1.10938,0.24609 a 0.77365308,0.77365308 0 0 0 0.01,0.006 c 0.0898,0.0595 0.2168,0.2208 0.2168,0.80273 0,0.29151 -0.0656,0.44101 -0.27344,0.63477 -0.17902,0.16692 -0.43928,0.2793 -0.92187,0.2793 -0.36935,0 -0.61202,-0.0904 -0.8457,-0.2793 -0.21598,-0.17821 -0.26368,-0.28363 -0.26368,-0.52149 a 0.77365308,0.77365308 0 0 0 -0.77343,-0.77343 h -3.1211 a 0.77365308,0.77365308 0 0 0 -0.77344,0.77343 c 0,0.82041 0.16767,1.57759 0.52539,2.22852 a 0.77365308,0.77365308 0 0 0 0.002,0.002 c 0.33957,0.61234 0.80248,1.13096 1.36914,1.5293 a 0.77365308,0.77365308 0 0 0 0.004,0.002 c 0.54936,0.38239 1.15725,0.66794 1.81446,0.84961 a 0.77365308,0.77365308 0 0 0 0.002,0 c 0.64522,0.17691 1.2981,0.26563 1.94922,0.26563 1.06841,0 2.05458,-0.17516 2.93945,-0.54297 a 0.77365308,0.77365308 0 0 0 0.002,-0.002 c 0.89391,-0.3747 1.63706,-0.93969 2.17382,-1.67774 0.55675,-0.76336 0.83009,-1.69704 0.83008,-2.71094 0,-0.96308 -0.26484,-1.85034 -0.81445,-2.55468 l -0.002,-0.002 c -0.2909,-0.3748 -0.6566,-0.67975 -1.06446,-0.93945 0.30461,-0.26496 0.69783,-0.4426 0.92188,-0.77734 0.47685,-0.71037 0.73437,-1.5102 0.73437,-2.33399 0,-1.48698 -0.57666,-2.7796 -1.67968,-3.60547 -1.06931,-0.80881 -2.4464,-1.1875 -4.04102,-1.1875 z m 17.48242,0 c -1.13081,0 -2.16163,0.24792 -3.03906,0.76563 -4.5e-4,2.6e-4 -0.002,-2.7e-4 -0.002,0 -7.3e-4,4.3e-4 -0.001,0.002 -0.002,0.002 -0.85468,0.50078 -1.53792,1.19847 -2.00586,2.05274 -0.46576,0.84557 -0.69921,1.78943 -0.69922,2.78711 a 0.77365308,0.77365308 0 0 0 0.77344,0.77343 h 3.11914 a 0.77365308,0.77365308 0 0 0 0.77344,-0.77343 c 0,-0.51912 0.11861,-0.87681 0.33008,-1.16602 0.19047,-0.26049 0.33542,-0.33789 0.69726,-0.33789 0.33834,0 0.45793,0.0653 0.60938,0.25586 a 0.77365308,0.77365308 0 0 0 0.006,0.01 c 0.18633,0.22774 0.26953,0.45237 0.26953,0.78907 0,0.2484 -0.0829,0.60685 -0.30078,1.05468 a 0.77365308,0.77365308 0 0 0 -0.002,0.002 c -0.18859,0.3914 -0.59453,0.94057 -1.22071,1.58008 l -4.66015,4.66015 a 0.77365308,0.77365308 0 0 0 -0.22657,0.54688 v 2.36132 a 0.77365308,0.77365308 0 0 0 0.77344,0.77344 h 9.89649 a 0.77365308,0.77365308 0 0 0 0.77343,-0.77344 v -2.69921 a 0.77365308,0.77365308 0 0 0 -0.77343,-0.77344 h -3.67969 l 0.63476,-0.6543 a 0.77365308,0.77365308 0 0 0 0.004,-0.004 c 1.02128,-1.06444 1.83252,-2.04588 2.43555,-2.9629 0.64671,-0.98067 0.98437,-2.07693 0.98437,-3.22265 0,-0.96605 -0.2382,-1.86887 -0.72265,-2.64063 -0.47678,-0.75952 -1.14892,-1.36319 -1.96875,-1.78125 -0.82732,-0.42187 -1.76607,-0.625 -2.77735,-0.625 z m -8.61328,2.16407 c -0.66312,0 -1.30706,0.2719 -1.77539,0.74023 -0.46834,0.46834 -0.74023,1.11227 -0.74023,1.77539 0,0.67189 0.26526,1.32521 0.73632,1.80274 a 0.77365308,0.77365308 0 0 0 0.004,0.004 c 0.46938,0.46938 1.11438,0.73828 1.77539,0.73828 0.66101,0 1.30692,-0.26787 1.77734,-0.73828 a 0.77365308,0.77365308 0 0 0 0.004,-0.004 c 0.47107,-0.47754 0.73633,-1.13086 0.73633,-1.80274 0,-0.66311 -0.27189,-1.30705 -0.74024,-1.77539 -0.46937,-0.46936 -1.11421,-0.74023 -1.77734,-0.74023 z m 0,7.08398 c -0.66311,0 -1.30705,0.27188 -1.77539,0.74023 -0.46937,0.46938 -0.74023,1.11422 -0.74023,1.77735 0,0.67189 0.26627,1.32429 0.73632,1.80078 a 0.77365308,0.77365308 0 0 0 0.004,0.004 c 0.46834,0.46835 1.11228,0.74023 1.77539,0.74023 0.66311,0 1.30796,-0.27085 1.77734,-0.74023 a 0.77365308,0.77365308 0 0 0 0.004,-0.004 c 0.47006,-0.47649 0.73633,-1.1289 0.73633,-1.80078 0,-0.66312 -0.27086,-1.30797 -0.74024,-1.77735 -0.46938,-0.46938 -1.11423,-0.74023 -1.77734,-0.74023 z"
       transform="matrix(1.7984075,0,0,1.7984075,-163.10375,-638.50895)" />
    <path
       style="font-style:normal;font-weight:normal;font-size:35.59497452px;line-height:1.25;font-family:sans-serif;letter-spacing:0px;word-spacing:0px;fill:#ffffff;fill-opacity:1;stroke:none;stroke-width:0.88987434"
       d="M 47.71875 48.998047 C 46.201919 48.998047 44.802364 49.270615 43.521484 49.818359 C 42.240605 50.366104 41.212769 51.153566 40.4375 52.181641 C 39.662231 53.209715 39.275391 54.440484 39.275391 55.873047 L 44.886719 55.873047 C 44.886719 55.139912 45.193434 54.570504 45.808594 54.166016 C 46.43218 53.7531 47.136226 53.546875 47.919922 53.546875 C 48.981704 53.546875 49.769166 53.829933 50.283203 54.394531 C 50.79724 54.95913 51.054688 55.620491 51.054688 56.378906 C 51.054688 57.364847 50.773583 58.194993 50.208984 58.869141 C 49.652813 59.534861 48.805592 59.867188 47.667969 59.867188 L 44.886719 59.867188 L 44.886719 64.720703 L 47.667969 64.720703 C 48.856153 64.720703 49.783498 64.949247 50.449219 65.404297 C 51.123366 65.850919 51.458984 66.718506 51.458984 68.007812 C 51.458984 68.86735 51.147024 69.58847 50.523438 70.169922 C 49.899851 70.751374 49.032265 71.041016 47.919922 71.041016 C 46.984543 71.041016 46.185252 70.77174 45.519531 70.232422 C 44.862238 69.693104 44.533203 69.019914 44.533203 68.210938 L 38.919922 68.210938 C 38.919922 69.500244 39.177369 70.611496 39.691406 71.546875 C 40.205444 72.473827 40.889123 73.237632 41.740234 73.835938 C 42.599772 74.434243 43.547483 74.875597 44.583984 75.162109 C 45.628913 75.448622 46.673822 75.591797 47.71875 75.591797 C 49.488387 75.591797 51.071848 75.302155 52.470703 74.720703 C 53.877985 74.130824 54.985945 73.278359 55.794922 72.166016 C 56.612325 71.045246 57.021484 69.693621 57.021484 68.109375 C 57.021484 66.617824 56.629399 65.369982 55.845703 64.367188 C 55.062007 63.355967 53.962584 62.619726 52.546875 62.15625 C 53.819328 61.557944 54.813015 60.722553 55.529297 59.652344 C 56.254005 58.573708 56.617188 57.431601 56.617188 56.226562 C 56.617187 53.875474 55.795578 52.085787 54.152344 50.855469 C 52.517537 49.616723 50.373205 48.998047 47.71875 48.998047 z M 79.160156 48.998047 C 77.323105 48.998047 75.734399 49.393424 74.394531 50.185547 C 73.054664 50.969243 72.023536 52.022689 71.298828 53.345703 C 70.57412 54.66029 70.210938 56.109113 70.210938 57.693359 L 75.824219 57.693359 C 75.824219 56.530455 76.110569 55.557134 76.683594 54.773438 C 77.256619 53.989741 78.049326 53.597656 79.060547 53.597656 C 79.995926 53.597656 80.72363 53.926691 81.246094 54.583984 C 81.776985 55.232851 82.042969 55.999947 82.042969 56.884766 C 82.042969 57.617901 81.814424 58.451339 81.359375 59.386719 C 80.912752 60.313671 80.096388 61.384191 78.908203 62.597656 L 70.515625 70.990234 L 70.515625 75.238281 L 88.3125 75.238281 L 88.3125 70.384766 L 78.554688 70.384766 L 78.554688 70.232422 L 81.839844 66.845703 C 83.634761 64.974945 85.042852 63.263429 86.0625 61.712891 C 87.090575 60.153925 87.603516 58.476558 87.603516 56.681641 C 87.603516 55.164809 87.242286 53.830258 86.517578 52.675781 C 85.79287 51.521304 84.793937 50.61957 83.521484 49.970703 C 82.249031 49.321836 80.794963 48.998047 79.160156 48.998047 z M 63.669922 52.890625 C 62.810384 52.890625 62.074144 53.197341 61.458984 53.8125 C 60.843825 54.427659 60.535156 55.165853 60.535156 56.025391 C 60.535156 56.910209 60.843825 57.663523 61.458984 58.287109 C 62.074144 58.902269 62.810384 59.210938 63.669922 59.210938 C 64.52946 59.210938 65.267653 58.902269 65.882812 58.287109 C 66.497972 57.663523 66.804688 56.910209 66.804688 56.025391 C 66.804688 55.165853 66.497972 54.427659 65.882812 53.8125 C 65.267653 53.197341 64.52946 52.890625 63.669922 52.890625 z M 63.669922 65.630859 C 62.810384 65.630859 62.074144 65.939528 61.458984 66.554688 C 60.843825 67.169847 60.535156 67.906087 60.535156 68.765625 C 60.535156 69.650443 60.843825 70.405711 61.458984 71.029297 C 62.074144 71.644456 62.810384 71.951172 63.669922 71.951172 C 64.52946 71.951172 65.267653 71.644456 65.882812 71.029297 C 66.497972 70.405711 66.804688 69.650443 66.804688 68.765625 C 66.804688 67.906087 66.497972 67.169847 65.882812 66.554688 C 65.267653 65.939528 64.52946 65.630859 63.669922 65.630859 z "
       transform="translate(0,994.51965)"
       id="text19429-4-1" />
  </g>
</svg>
