<?xml version="1.0" encoding="UTF-8" standalone="no"?>
<!-- Created with Inkscape (http://www.inkscape.org/) -->

<svg
   xmlns:dc="http://purl.org/dc/elements/1.1/"
   xmlns:cc="http://creativecommons.org/ns#"
   xmlns:rdf="http://www.w3.org/1999/02/22-rdf-syntax-ns#"
   xmlns:svg="http://www.w3.org/2000/svg"
   xmlns="http://www.w3.org/2000/svg"
   xmlns:sodipodi="http://sodipodi.sourceforge.net/DTD/sodipodi-0.dtd"
   xmlns:inkscape="http://www.inkscape.org/namespaces/inkscape"
   width="128"
   height="128"
   viewBox="0 0 128 128.00001"
   version="1.1"
   id="svg6294"
   inkscape:version="0.92.3 (2405546, 2018-03-11)"
   sodipodi:docname="screen169.svg">
  <defs
     id="defs6288" />
  <sodipodi:namedview
     id="base"
     pagecolor="#ffffff"
     bordercolor="#666666"
     borderopacity="1.0"
     inkscape:pageopacity="0.0"
     inkscape:pageshadow="2"
     inkscape:zoom="16.408468"
     inkscape:cx="21.063356"
     inkscape:cy="64.718332"
     inkscape:document-units="px"
     inkscape:current-layer="layer1"
     showgrid="false"
     units="px"
     inkscape:window-width="1366"
     inkscape:window-height="713"
     inkscape:window-x="0"
     inkscape:window-y="27"
     inkscape:window-maximized="1" />
  <metadata
     id="metadata6291">
    <rdf:RDF>
      <cc:Work
         rdf:about="">
        <dc:format>image/svg+xml</dc:format>
        <dc:type
           rdf:resource="http://purl.org/dc/dcmitype/StillImage" />
        <dc:title />
      </cc:Work>
    </rdf:RDF>
  </metadata>
  <g
     inkscape:label="Layer 1"
     inkscape:groupmode="layer"
     id="layer1"
     transform="translate(0,-994.51965)">
    <path
       sodipodi:type="inkscape:offset"
       inkscape:radius="3.5771835"
       inkscape:original="M 101.08594 992.76562 L 101.08594 1027.9707 L 122.98047 1028.2383 L 122.44141 1033.6777 L 116.2168 1034.2031 L 110.88477 1037.9805 L 121.52734 1040.4473 L 131.94922 1040.6934 L 143.95117 1037.6113 L 137.45508 1034.4023 L 130.13086 1034.4141 L 129.75391 1028.3223 L 151.51953 1028.5879 L 153.46094 992.76562 L 101.08594 992.76562 z "
       style="fill:#000000;stroke:none;stroke-width:1.16400194px;stroke-linecap:butt;stroke-linejoin:miter;stroke-opacity:1"
       id="path19321-6-8"
       d="m 101.08594,989.1875 a 3.5775412,3.5775412 0 0 0 -3.578128,3.57812 v 35.20508 a 3.5775412,3.5775412 0 0 0 3.535158,3.5762 l 12.51758,0.1523 -4.74414,3.3633 a 3.5775412,3.5775412 0 0 0 1.25976,6.4023 l 10.64258,2.4668 a 3.5775412,3.5775412 0 0 0 0.72461,0.092 l 10.42187,0.2461 a 3.5775412,3.5775412 0 0 0 0.97461,-0.1113 l 12.00196,-3.082 a 3.5775412,3.5775412 0 0 0 0.69336,-6.6719 l -4.80078,-2.3711 10.74218,0.1309 a 3.5775412,3.5775412 0 0 0 3.61524,-3.3829 l 1.9414,-35.82222 a 3.5775412,3.5775412 0 0 0 -3.57226,-3.77148 z"
       transform="matrix(1.8141916,0,0,1.8141916,-166.89785,-775.98715)" />
    <path
       style="fill:#333333;stroke:none;stroke-width:2.11172247px;stroke-linecap:butt;stroke-linejoin:miter;stroke-opacity:1"
       d="m 56.889243,1082.5823 -1.655051,16.72 -11.291002,0.9546 -9.673596,6.8522 19.306626,4.474 18.908317,0.4486 21.77442,-5.5902 -11.78557,-5.8243 -13.28942,0.022 -1.07818,-17.4818 z"
       id="path19321-6"
       inkscape:connector-curvature="0"
       sodipodi:nodetypes="ccccccccccc" />
    <path
       style="fill:#444444;fill-opacity:1;stroke:none;stroke-width:1.71210265px;stroke-linecap:butt;stroke-linejoin:miter;stroke-opacity:1"
       d="m 54.70951,1104.9546 6.322057,-18.4616 -4.142324,-3.9107 z"
       id="path19347-7"
       inkscape:connector-curvature="0"
       sodipodi:nodetypes="cccc" />
    <path
       style="fill:#4d4d4d;stroke:none;stroke-width:1.7845186px;stroke-linecap:butt;stroke-linejoin:miter;stroke-opacity:1"
       d="m 16.490517,1025.0801 h 95.018313 l -3.51919,64.9903 -91.499123,-1.1206 z"
       id="path19317-0"
       inkscape:connector-curvature="0"
       sodipodi:nodetypes="ccccc" />
    <path
       style="fill:#37abc8;stroke:none;stroke-width:1.7845186px;stroke-linecap:butt;stroke-linejoin:miter;stroke-opacity:1"
       d="m 23.323234,1032.2753 81.147196,-1.0324 -1.59964,47.0621 -77.102371,-1.1206 z"
       id="path19319-4"
       inkscape:connector-curvature="0"
       sodipodi:nodetypes="ccccc" />
    <path
       style="fill:#808080;fill-opacity:1;stroke:none;stroke-width:1.7845186px;stroke-linecap:butt;stroke-linejoin:miter;stroke-opacity:1"
       d="m 16.490517,1088.9498 3.37309,-60.1185 -3.37309,-3.7512 z"
       id="path19323-8"
       inkscape:connector-curvature="0"
       sodipodi:nodetypes="cccc" />
    <path
       style="fill:#666666;fill-opacity:1;stroke:none;stroke-width:1.7845186px;stroke-linecap:butt;stroke-linejoin:miter;stroke-opacity:1"
       d="m 19.863607,1028.8313 91.645223,-3.7512 H 16.490517 Z"
       id="path19325-4"
       inkscape:connector-curvature="0"
       sodipodi:nodetypes="cccc" />
    <path
       style="fill:#252525;fill-opacity:1;stroke:none;stroke-width:1.7845186px;stroke-linecap:butt;stroke-linejoin:miter;stroke-opacity:1"
       d="m 16.490517,1088.9498 91.499123,1.1206 -2.79937,-5.8127 z"
       id="path19327-8"
       inkscape:connector-curvature="0"
       sodipodi:nodetypes="cccc" />
    <path
       style="fill:#333333;stroke:none;stroke-width:1.7845186px;stroke-linecap:butt;stroke-linejoin:miter;stroke-opacity:1"
       d="m 105.19027,1084.2577 6.31856,-59.1776 -3.51919,64.9903 z"
       id="path19329-1"
       inkscape:connector-curvature="0"
       sodipodi:nodetypes="cccc" />
    <path
       style="fill:#2c879e;fill-opacity:1;stroke:none;stroke-width:1.7845186px;stroke-linecap:butt;stroke-linejoin:miter;stroke-opacity:1"
       d="m 104.47043,1031.2429 -77.480806,5.2147 -3.66639,-4.1823 z"
       id="path19331-6"
       inkscape:connector-curvature="0"
       sodipodi:nodetypes="cccc" />
    <path
       style="fill:#287b90;fill-opacity:1;stroke:none;stroke-width:1.7845186px;stroke-linecap:butt;stroke-linejoin:miter;stroke-opacity:1"
       d="m 26.989624,1036.4576 -1.221205,40.7268 -2.445185,-44.9091 z"
       id="path19333-8"
       inkscape:connector-curvature="0"
       sodipodi:nodetypes="cccc" />
    <path
       style="fill:#6bc0d6;fill-opacity:1;stroke:none;stroke-width:1.7845186px;stroke-linecap:butt;stroke-linejoin:miter;stroke-opacity:1"
       d="m 25.768419,1077.1844 72.989588,-2.6582 4.112783,3.7788 z"
       id="path19335-5"
       inkscape:connector-curvature="0"
       sodipodi:nodetypes="cccc" />
    <path
       style="fill:#59b9d1;fill-opacity:1;stroke:none;stroke-width:1.7845186px;stroke-linecap:butt;stroke-linejoin:miter;stroke-opacity:1"
       d="m 98.758007,1074.5262 5.712423,-43.2833 -1.59964,47.0621 z"
       id="path19337-2"
       inkscape:connector-curvature="0"
       sodipodi:nodetypes="cccc" />
    <path
       style="fill:#262626;fill-opacity:1;stroke:none;stroke-width:1.71210265px;stroke-linecap:butt;stroke-linejoin:miter;stroke-opacity:1"
       d="m 72.484537,1112.0317 11.43228,-7.2896 10.34214,1.6994 z"
       id="path19343-1"
       inkscape:connector-curvature="0"
       sodipodi:nodetypes="cccc" />
    <path
       style="fill:#2b2b2b;fill-opacity:1;stroke:none;stroke-width:1.71210265px;stroke-linecap:butt;stroke-linejoin:miter;stroke-opacity:1"
       d="m 83.916817,1104.7421 -1.44343,-4.1249 11.78557,5.8243 z"
       id="path19345-9"
       inkscape:connector-curvature="0"
       sodipodi:nodetypes="cccc" />
    <path
       style="fill:#505050;fill-opacity:1;stroke:none;stroke-width:1.71210265px;stroke-linecap:butt;stroke-linejoin:miter;stroke-opacity:1"
       d="m 55.234192,1099.3023 -0.162914,1.8987 -11.128124,-0.9441 z"
       id="path19349-9"
       inkscape:connector-curvature="0"
       sodipodi:nodetypes="cccc" />
    <path
       style="fill:#444444;fill-opacity:1;stroke:none;stroke-width:1.71210265px;stroke-linecap:butt;stroke-linejoin:miter;stroke-opacity:1"
       d="m 46.491022,1106.3112 -12.221428,0.7979 9.673596,-6.8522 z"
       id="path19351-6"
       inkscape:connector-curvature="0"
       sodipodi:nodetypes="cccc" />
    <path
       style="fill:#444444;fill-opacity:1;stroke:none;stroke-width:1.71210265px;stroke-linecap:butt;stroke-linejoin:miter;stroke-opacity:1"
       d="m 34.269594,1107.1091 12.221428,-0.7979 7.085198,5.2719 z"
       id="path19353-0"
       inkscape:connector-curvature="0"
       sodipodi:nodetypes="cccc" />
    <path
       sodipodi:type="inkscape:offset"
       inkscape:radius="0.90161228"
       inkscape:original="M 123.2832 1001.623 C 121.95246 1001.623 120.92355 1001.9526 120.19727 1002.6133 C 119.47566 1003.2693 118.9745 1004.1969 118.69336 1005.3965 C 118.4169 1006.5913 118.2793 1007.9955 118.2793 1009.6074 L 118.2793 1010.1699 C 118.2793 1011.5194 118.49587 1012.6625 118.93164 1013.5996 C 119.3721 1014.5368 119.97764 1015.249 120.74609 1015.7363 C 121.51924 1016.2236 122.40311 1016.4668 123.39648 1016.4668 C 124.35237 1016.4668 125.19481 1016.2557 125.92578 1015.834 C 126.65675 1015.4076 127.22828 1014.8286 127.64062 1014.0977 C 128.05297 1013.362 128.25977 1012.5313 128.25977 1011.6035 C 128.25977 1010.7413 128.07955 1009.9439 127.71875 1009.2129 C 127.35795 1008.4772 126.84936 1007.8866 126.19336 1007.4414 C 125.53736 1006.9916 124.76333 1006.7676 123.87305 1006.7676 C 123.25453 1006.7676 122.72874 1006.8743 122.29297 1007.0898 C 121.8572 1007.3007 121.50107 1007.5736 121.22461 1007.9062 C 121.28084 1006.5849 121.48138 1005.6381 121.82812 1005.0664 C 122.17487 1004.4947 122.67916 1004.209 123.33984 1004.209 C 123.81779 1004.209 124.2048 1004.3423 124.5 1004.6094 C 124.7952 1004.8718 124.99887 1005.2353 125.11133 1005.6992 L 128.14648 1005.6992 C 127.90751 1004.4622 127.3872 1003.4728 126.58594 1002.7324 C 125.78936 1001.9921 124.68892 1001.623 123.2832 1001.623 z M 140.80273 1001.6797 C 139.84685 1001.6797 139.00246 1001.892 138.27148 1002.3184 C 137.54051 1002.7401 136.96898 1003.319 136.55664 1004.0547 C 136.1443 1004.7857 135.9375 1005.6152 135.9375 1006.543 C 135.9375 1007.4051 136.11771 1008.2038 136.47852 1008.9395 C 136.83932 1009.6704 137.3479 1010.2611 138.00391 1010.7109 C 138.65991 1011.1561 139.43393 1011.3789 140.32422 1011.3789 C 140.94273 1011.3789 141.47048 1011.2734 141.90625 1011.0625 C 142.34202 1010.847 142.69815 1010.5729 142.97461 1010.2402 C 142.91838 1011.5616 142.71588 1012.5084 142.36914 1013.0801 C 142.0224 1013.6517 141.51811 1013.9375 140.85742 1013.9375 C 140.37948 1013.9375 139.99442 1013.8054 139.69922 1013.543 C 139.40402 1013.2759 139.20035 1012.9112 139.08789 1012.4473 L 136.05078 1012.4473 C 136.28975 1013.6843 136.80694 1014.6718 137.60352 1015.4121 C 138.40477 1016.1525 139.50835 1016.5234 140.91406 1016.5234 C 142.24481 1016.5234 143.27059 1016.1951 143.99219 1015.5391 C 144.71847 1014.8784 145.22159 1013.9507 145.49805 1012.7559 C 145.77919 1011.5563 145.91797 1010.151 145.91797 1008.5391 L 145.91797 1007.9766 C 145.91797 1006.6271 145.69827 1005.484 145.25781 1004.5469 C 144.82204 1003.6097 144.21846 1002.8975 143.44531 1002.4102 C 142.67685 1001.9228 141.79611 1001.6797 140.80273 1001.6797 z M 112.33594 1001.875 C 112.33594 1001.9031 112.30506 1002.0427 112.24414 1002.291 C 112.18323 1002.5394 112.05422 1002.8177 111.85742 1003.127 C 111.66531 1003.4362 111.37094 1003.7071 110.97266 1003.9414 C 110.57906 1004.1757 110.05014 1004.293 109.38477 1004.293 L 109.38477 1006.8809 C 110.14385 1006.8809 110.75916 1006.7999 111.23242 1006.6406 C 111.70568 1006.4813 112.02663 1006.2616 112.19531 1005.9805 L 112.30859 1005.9805 L 112.30859 1016.2695 L 115.25977 1016.2695 L 115.25977 1001.875 L 112.33594 1001.875 z M 132.2168 1003.8438 C 131.73885 1003.8438 131.32839 1004.0154 130.98633 1004.3574 C 130.64427 1004.6995 130.47266 1005.108 130.47266 1005.5859 C 130.47266 1006.0779 130.64427 1006.499 130.98633 1006.8457 C 131.32839 1007.1878 131.73885 1007.3574 132.2168 1007.3574 C 132.69474 1007.3574 133.10521 1007.1878 133.44727 1006.8457 C 133.78932 1006.499 133.95898 1006.0779 133.95898 1005.5859 C 133.95898 1005.108 133.78932 1004.6995 133.44727 1004.3574 C 133.10521 1004.0154 132.69474 1003.8438 132.2168 1003.8438 z M 140.9707 1004.209 C 141.51893 1004.209 141.99234 1004.4275 142.39062 1004.8633 C 142.7936 1005.2944 142.99414 1005.9671 142.99414 1006.8809 L 142.99414 1007.0488 C 142.99414 1007.5268 142.82135 1007.9501 142.47461 1008.3203 C 142.13255 1008.6905 141.65915 1008.877 141.05469 1008.877 C 140.43617 1008.877 139.94987 1008.6627 139.59375 1008.2363 C 139.23763 1007.8099 139.05859 1007.2458 139.05859 1006.543 C 139.05859 1005.8401 139.23138 1005.2741 139.57812 1004.8477 C 139.92955 1004.4213 140.39436 1004.209 140.9707 1004.209 z M 123.14258 1009.2695 C 123.76109 1009.2695 124.24935 1009.4838 124.60547 1009.9102 C 124.96158 1010.3366 125.13867 1010.9007 125.13867 1011.6035 C 125.13867 1012.3064 124.96276 1012.8705 124.61133 1013.2969 C 124.26458 1013.7233 123.80291 1013.9375 123.22656 1013.9375 C 122.67833 1013.9375 122.20375 1013.7201 121.80078 1013.2891 C 121.40249 1012.8533 121.20312 1012.1793 121.20312 1011.2656 L 121.20312 1011.0977 C 121.20312 1010.6197 121.37474 1010.1944 121.7168 1009.8242 C 122.06354 1009.454 122.53812 1009.2695 123.14258 1009.2695 z M 132.2168 1010.9277 C 131.73885 1010.9277 131.32839 1011.0993 130.98633 1011.4414 C 130.64427 1011.7835 130.47266 1012.1939 130.47266 1012.6719 C 130.47266 1013.1639 130.64427 1013.5829 130.98633 1013.9297 C 131.32839 1014.2717 131.73885 1014.4434 132.2168 1014.4434 C 132.69474 1014.4434 133.10521 1014.2717 133.44727 1013.9297 C 133.78932 1013.5829 133.95898 1013.1639 133.95898 1012.6719 C 133.95898 1012.1939 133.78932 1011.7835 133.44727 1011.4414 C 133.10521 1011.0993 132.69474 1010.9277 132.2168 1010.9277 z "
       style="font-style:normal;font-weight:normal;font-size:19.79249763px;line-height:1.25;font-family:sans-serif;letter-spacing:0px;word-spacing:0px;fill:#000000;fill-opacity:1;stroke:none;stroke-width:0.49481243"
       id="text19429-4-9"
       d="m 123.2832,1000.7207 c -1.47961,0 -2.76394,0.3811 -3.69336,1.2266 -0.88026,0.8007 -1.46167,1.9139 -1.77343,3.2441 a 0.90170244,0.90170244 0 0 0 -0.002,0 c -0.29662,1.2819 -0.4375,2.7508 -0.4375,4.414 v 0.5625 c 0,1.446 0.23051,2.7228 0.73633,3.8106 a 0.90170244,0.90170244 0 0 0 0.002,0 c 0.50098,1.066 1.22537,1.9303 2.14844,2.5156 a 0.90170244,0.90170244 0 0 0 0.002,0 c 0.9209,0.5804 1.99034,0.8691 3.13086,0.8691 1.08864,0 2.10259,-0.2474 2.98047,-0.7539 a 0.90170244,0.90170244 0 0 0 0.004,-0 c 0.86113,-0.5023 1.55752,-1.2083 2.04492,-2.0723 a 0.90170244,0.90170244 0 0 0 0.002,-0 c 0.49102,-0.8761 0.73438,-1.8738 0.73438,-2.9356 0,-0.9872 -0.2121,-1.9301 -0.63477,-2.7871 v -0 c -0.42427,-0.8646 -1.04513,-1.5878 -1.82812,-2.1192 -0.061,-0.042 -0.13646,-0.055 -0.19922,-0.094 h 1.64648 a 0.90170244,0.90170244 0 0 0 0.88477,-1.0743 c -0.26803,-1.3874 -0.88077,-2.5751 -1.83203,-3.455 -0.99042,-0.9205 -2.35247,-1.3516 -3.91602,-1.3516 z m 17.51953,0.057 c -1.08787,0 -2.10376,0.2482 -2.98242,0.7598 -8.2e-4,5e-4 -0.001,0 -0.002,0 -0.86219,0.4979 -1.55996,1.2045 -2.04688,2.0722 -0.49236,0.8729 -0.73632,1.8699 -0.73632,2.9317 0,0.9877 0.21262,1.9322 0.63476,2.7929 a 0.90170244,0.90170244 0 0 0 0,0 c 0.42431,0.8596 1.04382,1.5821 1.82422,2.1172 a 0.90170244,0.90170244 0 0 0 0.004,0 c 0.0579,0.039 0.12992,0.051 0.18945,0.088 h -1.63672 a 0.90170244,0.90170244 0 0 0 -0.88476,1.0742 c 0.26797,1.3872 0.87731,2.5732 1.82421,3.4532 a 0.90170244,0.90170244 0 0 0 0.002,0 c 0.99409,0.9186 2.35757,1.3516 3.92187,1.3516 1.47904,0 2.76005,-0.3774 3.68555,-1.2188 a 0.90170244,0.90170244 0 0 0 0,-0 c 0.88315,-0.8034 1.46772,-1.9163 1.77539,-3.2442 0.30179,-1.2877 0.44531,-2.7582 0.44531,-4.4218 v -0.5625 c 0,-1.4474 -0.23466,-2.7244 -0.74609,-3.8125 -0.49589,-1.0654 -1.21902,-1.9304 -2.14649,-2.5157 l -0.002,-0 c -0.91659,-0.5807 -1.98348,-0.8692 -3.12305,-0.8692 z m -28.46679,0.1954 a 0.90170244,0.90170244 0 0 0 -0.89258,0.7812 c 7e-5,-4e-4 -0.002,0.014 -0.002,0.014 -0.002,0.01 -0.005,0.018 -0.01,0.039 -0.0126,0.057 -0.033,0.1492 -0.0625,0.2696 -0.0279,0.1137 -0.11038,0.3132 -0.27148,0.5664 a 0.90170244,0.90170244 0 0 0 -0.006,0.01 c -0.0988,0.159 -0.27234,0.3349 -0.57618,0.5137 a 0.90170244,0.90170244 0 0 0 -0.004,0 c -0.20219,0.1204 -0.56755,0.2246 -1.12695,0.2246 a 0.90170244,0.90170244 0 0 0 -0.90235,0.9024 v 2.5879 a 0.90170244,0.90170244 0 0 0 0.90235,0.9023 c 0.77952,0 1.43482,-0.091 2.02148,-0.2734 v 8.7597 a 0.90170244,0.90170244 0 0 0 0.90234,0.9024 h 2.95118 a 0.90170244,0.90170244 0 0 0 0.90234,-0.9024 v -14.3945 a 0.90170244,0.90170244 0 0 0 -0.90234,-0.9023 z m 19.88086,1.9687 c -0.69376,0 -1.37674,0.2889 -1.86719,0.7793 -0.4892,0.4893 -0.7793,1.1715 -0.7793,1.8652 0,0.7017 0.28092,1.3934 0.77344,1.8926 a 0.90170244,0.90170244 0 0 0 0.006,0 c 0.4917,0.4918 1.17595,0.7774 1.86719,0.7774 0.69123,0 1.37548,-0.2856 1.86718,-0.7774 a 0.90170244,0.90170244 0 0 0 0.006,-0 c 0.49371,-0.5004 0.77149,-1.1933 0.77149,-1.8926 0,-0.6913 -0.28695,-1.3747 -0.77735,-1.8652 -0.49045,-0.4904 -1.17343,-0.7793 -1.86718,-0.7793 z m -8.87696,2.1699 c 0.31031,0 0.43953,0.062 0.55469,0.166 a 0.90170244,0.90170244 0 0 0 0.006,0.01 c 0.14009,0.1245 0.25484,0.3024 0.33399,0.6289 a 0.90170244,0.90170244 0 0 0 0,0 c -0.12339,-0.01 -0.23585,-0.051 -0.36133,-0.051 -0.50923,0 -0.94975,0.1545 -1.39649,0.293 0.0512,-0.1513 0.0718,-0.5405 0.12305,-0.625 0.21481,-0.3542 0.33948,-0.4219 0.74023,-0.4219 z m 17.63086,0 c 0.30867,0 0.49441,0.075 0.75391,0.3594 a 0.90170244,0.90170244 0 0 0 0.008,0.01 c 0.18536,0.1983 0.35938,0.6205 0.35938,1.4024 v 0.1679 c 0,0.2607 -0.0609,0.4253 -0.27539,0.6543 a 0.90170244,0.90170244 0 0 0 -0.004,0.01 c -0.1631,0.1765 -0.33881,0.2656 -0.75781,0.2656 -0.41027,0 -0.577,-0.086 -0.76953,-0.3164 -0.20064,-0.2402 -0.32422,-0.5656 -0.32422,-1.1152 0,-0.5531 0.12281,-0.8861 0.31445,-1.1231 0.19568,-0.2367 0.34158,-0.3086 0.69531,-0.3086 z m -19.07031,1.166 c -0.002,9e-4 -0.002,0 -0.004,0 -0.001,6e-4 -0.003,-5e-4 -0.004,0 z m 10.31641,3.7481 c -0.69376,0 -1.37673,0.2888 -1.86719,0.7793 -0.49038,0.4904 -0.7793,1.1734 -0.7793,1.8672 0,0.7016 0.28229,1.3926 0.77344,1.8906 a 0.90170244,0.90170244 0 0 0 0.006,0 c 0.49039,0.4903 1.17331,0.7793 1.86719,0.7793 0.69387,0 1.37679,-0.289 1.86718,-0.7793 a 0.90170244,0.90170244 0 0 0 0.006,-0 c 0.49234,-0.4992 0.77149,-1.1914 0.77149,-1.8906 0,-0.6914 -0.28577,-1.3756 -0.77735,-1.8672 -0.49046,-0.4905 -1.17343,-0.7793 -1.86718,-0.7793 z m -9.07422,0.1465 c 0.41025,0 0.58,0.087 0.77148,0.3164 0.1996,0.239 0.32227,0.5639 0.32227,1.1152 0,0.5525 -0.12318,0.88 -0.32031,1.1192 a 0.90170244,0.90170244 0 0 0 -0.004,0.01 c -0.19285,0.2372 -0.33259,0.3067 -0.68555,0.3067 -0.30733,0 -0.49998,-0.08 -0.76172,-0.3575 -0.18644,-0.2054 -0.35937,-0.6318 -0.35937,-1.4121 v -0.1679 c 0,-0.26 0.0653,-0.4314 0.27148,-0.6563 0.16799,-0.1789 0.34559,-0.2695 0.76563,-0.2695 z m 18.57812,1.8222 c -0.051,0.1495 -0.0721,0.5351 -0.12304,0.6192 -0.21481,0.3541 -0.33956,0.4219 -0.74024,0.4219 -0.3098,0 -0.43872,-0.064 -0.55469,-0.1661 -0.14369,-0.1313 -0.25932,-0.3107 -0.33789,-0.6347 a 0.90170244,0.90170244 0 0 0 0,-0 c 0.12271,0.01 0.23456,0.049 0.35938,0.049 0.50992,0 0.94989,-0.1508 1.39648,-0.2871 z"
       transform="matrix(1.8141916,0,0,1.8141916,-166.89785,-775.98715)" />
    <path
       style="font-style:normal;font-weight:normal;font-size:35.90738297px;line-height:1.25;font-family:sans-serif;letter-spacing:0px;word-spacing:0px;fill:#ffffff;fill-opacity:1;stroke:none;stroke-width:0.89768451"
       d="M 56.740234 46.654297 C 54.326007 46.654297 52.460202 47.254512 51.142578 48.453125 C 49.833455 49.643237 48.924111 51.325748 48.414062 53.501953 C 47.912515 55.669657 47.660156 58.214396 47.660156 61.138672 L 47.660156 62.160156 C 47.660156 64.608387 48.057082 66.682652 48.847656 68.382812 C 49.646732 70.082973 50.742587 71.373729 52.136719 72.257812 C 53.539351 73.141896 55.14119 73.583984 56.943359 73.583984 C 58.677523 73.583984 60.209031 73.202572 61.535156 72.4375 C 62.861281 71.663927 63.898414 70.613234 64.646484 69.287109 C 65.394555 67.952484 65.767578 66.444877 65.767578 64.761719 C 65.767578 63.197571 65.439718 61.751906 64.785156 60.425781 C 64.130595 59.091156 63.209643 58.020467 62.019531 57.212891 C 60.829419 56.396814 59.425699 55.988281 57.810547 55.988281 C 56.688441 55.988281 55.731981 56.183182 54.941406 56.574219 C 54.150832 56.956755 53.505454 57.451131 53.003906 58.054688 C 53.105916 55.657462 53.47055 53.939441 54.099609 52.902344 C 54.728669 51.865246 55.643184 51.347656 56.841797 51.347656 C 57.708879 51.347656 58.409762 51.589673 58.945312 52.074219 C 59.480863 52.550264 59.850668 53.209202 60.054688 54.050781 L 65.564453 54.050781 C 65.130912 51.80657 64.186059 50.013048 62.732422 48.669922 C 61.287286 47.326795 59.290475 46.654297 56.740234 46.654297 z M 88.521484 46.755859 C 86.787321 46.755859 85.257766 47.142443 83.931641 47.916016 C 82.605516 48.681088 81.568383 49.731781 80.820312 51.066406 C 80.072242 52.392531 79.699219 53.89692 79.699219 55.580078 C 79.699219 57.144225 80.025126 58.593109 80.679688 59.927734 C 81.334249 61.253859 82.257154 62.324548 83.447266 63.140625 C 84.637378 63.948201 86.039145 64.353516 87.654297 64.353516 C 88.776403 64.353516 89.732863 64.161833 90.523438 63.779297 C 91.314012 63.38826 91.961343 62.890666 92.462891 62.287109 C 92.360881 64.684335 91.994294 66.402355 91.365234 67.439453 C 90.736175 68.476551 89.823613 68.994141 88.625 68.994141 C 87.757918 68.994141 87.055082 68.757295 86.519531 68.28125 C 85.983981 67.796704 85.614175 67.132595 85.410156 66.291016 L 79.902344 66.291016 C 80.335885 68.535227 81.275567 70.328748 82.720703 71.671875 C 84.17434 73.015002 86.176322 73.6875 88.726562 73.6875 C 91.14079 73.6875 93.001424 73.092456 94.310547 71.902344 C 95.628171 70.703731 96.537515 69.019267 97.039062 66.851562 C 97.549111 64.675357 97.804688 62.125447 97.804688 59.201172 L 97.804688 58.181641 C 97.804687 55.73341 97.406497 53.659145 96.607422 51.958984 C 95.816847 50.258824 94.719038 48.966115 93.316406 48.082031 C 91.922275 47.197948 90.323654 46.755859 88.521484 46.755859 z M 36.878906 47.113281 C 36.878906 47.164286 36.825354 47.414692 36.714844 47.865234 C 36.604333 48.315777 36.370706 48.82176 36.013672 49.382812 C 35.665139 49.943865 35.128818 50.436288 34.40625 50.861328 C 33.692183 51.286368 32.730551 51.5 31.523438 51.5 L 31.523438 56.191406 C 32.900567 56.191406 34.018372 56.04684 34.876953 55.757812 C 35.735534 55.468785 36.318971 55.070595 36.625 54.560547 L 36.828125 54.560547 L 36.828125 73.228516 L 42.183594 73.228516 L 42.183594 47.113281 L 36.878906 47.113281 z M 72.947266 50.683594 C 72.080184 50.683594 71.335402 50.994676 70.714844 51.615234 C 70.094285 52.235793 69.785156 52.978621 69.785156 53.845703 C 69.785156 54.738287 70.094285 55.499847 70.714844 56.128906 C 71.335402 56.749465 72.080184 57.058594 72.947266 57.058594 C 73.814347 57.058594 74.557176 56.749465 75.177734 56.128906 C 75.798293 55.499847 76.109375 54.738287 76.109375 53.845703 C 76.109375 52.978621 75.798293 52.235793 75.177734 51.615234 C 74.557176 50.994676 73.814347 50.683594 72.947266 50.683594 z M 88.828125 51.347656 C 89.822719 51.347656 90.681729 51.742629 91.404297 52.533203 C 92.135366 53.315277 92.5 54.53375 92.5 56.191406 L 92.5 56.498047 C 92.5 57.365129 92.1857 58.135077 91.556641 58.806641 C 90.936082 59.478204 90.077072 59.814453 88.980469 59.814453 C 87.858363 59.814453 86.974186 59.425917 86.328125 58.652344 C 85.682064 57.878771 85.359375 56.855198 85.359375 55.580078 C 85.359375 54.304958 85.673675 53.281385 86.302734 52.507812 C 86.940294 51.73424 87.782526 51.347656 88.828125 51.347656 z M 56.484375 60.527344 C 57.606481 60.527344 58.490658 60.913927 59.136719 61.6875 C 59.78278 62.461073 60.105469 63.486599 60.105469 64.761719 C 60.105469 66.036839 59.787951 67.060411 59.150391 67.833984 C 58.521331 68.607557 57.68427 68.994141 56.638672 68.994141 C 55.644078 68.994141 54.779897 68.602386 54.048828 67.820312 C 53.32626 67.029738 52.964844 65.806094 52.964844 64.148438 L 52.964844 63.84375 C 52.964844 62.976668 53.275926 62.20672 53.896484 61.535156 C 54.525544 60.863593 55.387772 60.527344 56.484375 60.527344 z M 72.947266 63.537109 C 72.080184 63.537109 71.335402 63.846238 70.714844 64.466797 C 70.094285 65.087355 69.785156 65.832137 69.785156 66.699219 C 69.785156 67.591803 70.094285 68.353363 70.714844 68.982422 C 71.335402 69.60298 72.080184 69.912109 72.947266 69.912109 C 73.814347 69.912109 74.557176 69.60298 75.177734 68.982422 C 75.798293 68.353363 76.109375 67.591803 76.109375 66.699219 C 76.109375 65.832137 75.798293 65.087355 75.177734 64.466797 C 74.557176 63.846238 73.814347 63.537109 72.947266 63.537109 z "
       transform="translate(0,994.51965)"
       id="text19429-4" />
  </g>
</svg>
