<?xml version="1.0" encoding="UTF-8" standalone="no"?>
<!-- Created with Inkscape (http://www.inkscape.org/) -->

<svg
   xmlns:dc="http://purl.org/dc/elements/1.1/"
   xmlns:cc="http://creativecommons.org/ns#"
   xmlns:rdf="http://www.w3.org/1999/02/22-rdf-syntax-ns#"
   xmlns:svg="http://www.w3.org/2000/svg"
   xmlns="http://www.w3.org/2000/svg"
   xmlns:sodipodi="http://sodipodi.sourceforge.net/DTD/sodipodi-0.dtd"
   xmlns:inkscape="http://www.inkscape.org/namespaces/inkscape"
   width="128"
   height="128"
   viewBox="0 0 128 128.00001"
   version="1.1"
   id="svg6294"
   inkscape:version="0.92.3 (2405546, 2018-03-11)"
   sodipodi:docname="screen53.svg">
  <defs
     id="defs6288" />
  <sodipodi:namedview
     id="base"
     pagecolor="#ffffff"
     bordercolor="#666666"
     borderopacity="1.0"
     inkscape:pageopacity="0.0"
     inkscape:pageshadow="2"
     inkscape:zoom="16.408468"
     inkscape:cx="21.063356"
     inkscape:cy="64.718332"
     inkscape:document-units="px"
     inkscape:current-layer="layer1"
     showgrid="false"
     units="px"
     inkscape:window-width="1366"
     inkscape:window-height="713"
     inkscape:window-x="0"
     inkscape:window-y="27"
     inkscape:window-maximized="1" />
  <metadata
     id="metadata6291">
    <rdf:RDF>
      <cc:Work
         rdf:about="">
        <dc:format>image/svg+xml</dc:format>
        <dc:type
           rdf:resource="http://purl.org/dc/dcmitype/StillImage" />
        <dc:title />
      </cc:Work>
    </rdf:RDF>
  </metadata>
  <g
     inkscape:label="Layer 1"
     inkscape:groupmode="layer"
     id="layer1"
     transform="translate(0,-994.51965)">
    <path
       sodipodi:type="inkscape:offset"
       inkscape:radius="3.8390856"
       inkscape:original="M 98.939453 793.42578 L 98.939453 827.36719 L 120.83203 827.625 L 120.29492 833.05078 L 114.07031 833.57617 L 108.73828 837.35352 L 119.38086 839.82031 L 129.80273 840.06641 L 141.80469 836.98633 L 135.30859 833.77539 L 127.98438 833.78711 L 127.60742 827.70508 L 149.37305 827.96094 L 151.31445 793.42578 L 98.939453 793.42578 z "
       style="fill:#000000;fill-opacity:1;stroke:none;stroke-width:1.16400194px;stroke-linecap:butt;stroke-linejoin:miter;stroke-opacity:1"
       id="path19321-6-1-92-9"
       d="m 98.939453,789.58594 a 3.8394695,3.8394695 0 0 0 -3.839844,3.83984 v 33.94141 a 3.8394695,3.8394695 0 0 0 3.794922,3.83789 l 11.687499,0.13672 -4.0625,2.8789 a 3.8394695,3.8394695 0 0 0 1.35156,6.87305 l 10.64258,2.4668 a 3.8394695,3.8394695 0 0 0 0.77735,0.0976 l 10.42187,0.2461 a 3.8394695,3.8394695 0 0 0 1.04492,-0.11914 l 12.00196,-3.08008 a 3.8394695,3.8394695 0 0 0 0.74609,-7.16016 l -3.75977,-1.85937 9.58203,0.11328 a 3.8394695,3.8394695 0 0 0 3.87891,-3.62305 l 1.94141,-34.53516 a 3.8394695,3.8394695 0 0 0 -3.83399,-4.05468 z"
       transform="matrix(1.7983555,0,0,1.7983555,-161.0229,-399.12225)" />
    <path
       style="fill:#333333;stroke:none;stroke-width:2.09328938px;stroke-linecap:butt;stroke-linejoin:miter;stroke-opacity:1"
       d="m 56.950282,1082.4243 -1.640604,16.574 -11.192443,0.9463 -9.589155,6.7923 19.138099,4.435 18.743266,0.4447 21.58435,-5.5415 -11.68269,-5.7734 -13.17342,0.022 -1.06876,-17.3291 z"
       id="path19321-6-1-92"
       inkscape:connector-curvature="0"
       sodipodi:nodetypes="ccccccccccc" />
    <path
       style="fill:#444444;fill-opacity:1;stroke:none;stroke-width:1.69715774px;stroke-linecap:butt;stroke-linejoin:miter;stroke-opacity:1"
       d="m 54.789576,1104.6012 6.266873,-18.3004 -4.106167,-3.8765 z"
       id="path19347-7-1-4"
       inkscape:connector-curvature="0"
       sodipodi:nodetypes="cccc" />
    <path
       style="fill:#4d4d4d;stroke:none;stroke-width:1.73687911px;stroke-linecap:butt;stroke-linejoin:miter;stroke-opacity:1"
       d="m 16.904193,1027.7383 h 94.188897 l -3.48847,62.1087 -90.700427,-1.071 z"
       id="path19317-0-3-4"
       inkscape:connector-curvature="0"
       sodipodi:nodetypes="ccccc" />
    <path
       style="fill:#37abc8;stroke:none;stroke-width:1.73687911px;stroke-linecap:butt;stroke-linejoin:miter;stroke-opacity:1"
       d="m 23.677271,1034.6146 80.438859,-0.9867 -1.58568,44.9754 -76.429338,-1.0709 z"
       id="path19319-4-0-5"
       inkscape:connector-curvature="0"
       sodipodi:nodetypes="ccccc" />
    <path
       style="fill:#808080;fill-opacity:1;stroke:none;stroke-width:1.73687911px;stroke-linecap:butt;stroke-linejoin:miter;stroke-opacity:1"
       d="m 16.904193,1088.776 3.34365,-57.4527 -3.34365,-3.585 z"
       id="path19323-8-3-9"
       inkscape:connector-curvature="0"
       sodipodi:nodetypes="cccc" />
    <path
       style="fill:#666666;fill-opacity:1;stroke:none;stroke-width:1.73687911px;stroke-linecap:butt;stroke-linejoin:miter;stroke-opacity:1"
       d="m 20.247843,1031.3233 90.845247,-3.585 H 16.904193 Z"
       id="path19325-4-2-1"
       inkscape:connector-curvature="0"
       sodipodi:nodetypes="cccc" />
    <path
       style="fill:#252525;fill-opacity:1;stroke:none;stroke-width:1.73687911px;stroke-linecap:butt;stroke-linejoin:miter;stroke-opacity:1"
       d="m 16.904193,1088.776 90.700427,1.071 -2.77493,-5.5548 z"
       id="path19327-8-1-2"
       inkscape:connector-curvature="0"
       sodipodi:nodetypes="cccc" />
    <path
       style="fill:#333333;stroke:none;stroke-width:1.73687911px;stroke-linecap:butt;stroke-linejoin:miter;stroke-opacity:1"
       d="m 104.82969,1084.2922 6.2634,-56.5539 -3.48847,62.1087 z"
       id="path19329-1-7-8"
       inkscape:connector-curvature="0"
       sodipodi:nodetypes="cccc" />
    <path
       style="fill:#2c879e;fill-opacity:1;stroke:none;stroke-width:1.73687911px;stroke-linecap:butt;stroke-linejoin:miter;stroke-opacity:1"
       d="m 104.11613,1033.6279 -76.804473,4.9834 -3.634386,-3.9967 z"
       id="path19331-6-5-9"
       inkscape:connector-curvature="0"
       sodipodi:nodetypes="cccc" />
    <path
       style="fill:#287b90;fill-opacity:1;stroke:none;stroke-width:1.73687911px;stroke-linecap:butt;stroke-linejoin:miter;stroke-opacity:1"
       d="m 27.311657,1038.6113 -1.210545,38.9211 -2.423841,-42.9178 z"
       id="path19333-8-6-6"
       inkscape:connector-curvature="0"
       sodipodi:nodetypes="cccc" />
    <path
       style="fill:#6bc0d6;fill-opacity:1;stroke:none;stroke-width:1.73687911px;stroke-linecap:butt;stroke-linejoin:miter;stroke-opacity:1"
       d="m 26.101112,1077.5324 72.352463,-2.5404 4.076875,3.6113 z"
       id="path19335-5-5-0"
       inkscape:connector-curvature="0"
       sodipodi:nodetypes="cccc" />
    <path
       style="fill:#59b9d1;fill-opacity:1;stroke:none;stroke-width:1.73687911px;stroke-linecap:butt;stroke-linejoin:miter;stroke-opacity:1"
       d="m 98.453575,1074.992 5.662555,-41.3641 -1.58568,44.9754 z"
       id="path19337-2-4-6"
       inkscape:connector-curvature="0"
       sodipodi:nodetypes="cccc" />
    <path
       style="fill:#262626;fill-opacity:1;stroke:none;stroke-width:1.69715774px;stroke-linecap:butt;stroke-linejoin:miter;stroke-opacity:1"
       d="m 72.409445,1111.6166 11.33249,-7.226 10.25186,1.6845 z"
       id="path19343-1-2-4"
       inkscape:connector-curvature="0"
       sodipodi:nodetypes="cccc" />
    <path
       style="fill:#2b2b2b;fill-opacity:1;stroke:none;stroke-width:1.69715774px;stroke-linecap:butt;stroke-linejoin:miter;stroke-opacity:1"
       d="m 83.741935,1104.3906 -1.43083,-4.0889 11.68269,5.7734 z"
       id="path19345-9-2-0"
       inkscape:connector-curvature="0"
       sodipodi:nodetypes="cccc" />
    <path
       style="fill:#505050;fill-opacity:1;stroke:none;stroke-width:1.69715774px;stroke-linecap:butt;stroke-linejoin:miter;stroke-opacity:1"
       d="m 55.309678,1098.9983 -0.161492,1.8821 -11.030987,-0.9358 z"
       id="path19349-9-1-9"
       inkscape:connector-curvature="0"
       sodipodi:nodetypes="cccc" />
    <path
       style="fill:#444444;fill-opacity:1;stroke:none;stroke-width:1.69715774px;stroke-linecap:butt;stroke-linejoin:miter;stroke-opacity:1"
       d="m 46.642828,1105.946 -12.114748,0.7909 9.589155,-6.7923 z"
       id="path19351-6-7-4"
       inkscape:connector-curvature="0"
       sodipodi:nodetypes="cccc" />
    <path
       style="fill:#444444;fill-opacity:1;stroke:none;stroke-width:1.69715774px;stroke-linecap:butt;stroke-linejoin:miter;stroke-opacity:1"
       d="m 34.52808,1106.7369 12.114748,-0.7909 7.023351,5.2259 z"
       id="path19353-0-2-5"
       inkscape:connector-curvature="0"
       sodipodi:nodetypes="cccc" />
    <path
       sodipodi:type="inkscape:offset"
       inkscape:radius="0.8685708"
       inkscape:original="M 133.54297 802.16992 C 132.69954 802.16992 131.92121 802.32043 131.20898 802.625 C 130.49675 802.92957 129.92523 803.36779 129.49414 803.93945 C 129.06305 804.51111 128.84766 805.19561 128.84766 805.99219 L 131.96875 805.99219 C 131.96875 805.58453 132.13841 805.26788 132.48047 805.04297 C 132.82721 804.81337 133.21852 804.69922 133.6543 804.69922 C 134.2447 804.69922 134.68292 804.85598 134.96875 805.16992 C 135.25458 805.48387 135.39844 805.85172 135.39844 806.27344 C 135.39844 806.82167 135.24168 807.28335 134.92773 807.6582 C 134.61848 808.02838 134.14624 808.21289 133.51367 808.21289 L 131.96875 808.21289 L 131.96875 810.91211 L 133.51367 810.91211 C 134.17436 810.91211 134.69037 811.03994 135.06055 811.29297 C 135.4354 811.54131 135.62305 812.02332 135.62305 812.74023 C 135.62305 813.21818 135.45026 813.61809 135.10352 813.94141 C 134.75677 814.26472 134.27281 814.42773 133.6543 814.42773 C 133.13418 814.42773 132.69048 814.27645 132.32031 813.97656 C 131.95483 813.67668 131.77148 813.30335 131.77148 812.85352 L 128.65039 812.85352 C 128.65039 813.57043 128.79425 814.18887 129.08008 814.70898 C 129.36591 815.22441 129.74549 815.64778 130.21875 815.98047 C 130.69669 816.31316 131.22248 816.55944 131.79883 816.71875 C 132.37986 816.87806 132.96194 816.95703 133.54297 816.95703 C 134.52697 816.95703 135.40772 816.79597 136.18555 816.47266 C 136.96806 816.14466 137.58337 815.67125 138.0332 815.05273 C 138.48772 814.42953 138.71484 813.67779 138.71484 812.79688 C 138.71484 811.9675 138.49827 811.2744 138.0625 810.7168 C 137.62673 810.15451 137.01572 809.74404 136.22852 809.48633 C 136.93606 809.15364 137.48843 808.68884 137.88672 808.09375 C 138.28969 807.49398 138.49023 806.85951 138.49023 806.18945 C 138.49023 804.88214 138.03481 803.88724 137.12109 803.20312 C 136.21206 802.51432 135.01897 802.16992 133.54297 802.16992 z M 112.4043 802.36523 L 111.56055 809.70312 L 114.03516 810.32227 C 114.17573 810.15358 114.38057 809.98939 114.65234 809.83008 C 114.92412 809.67076 115.2994 809.5918 115.77734 809.5918 C 116.50832 809.5918 117.04349 809.80837 117.38086 810.24414 C 117.71823 810.67523 117.88672 811.26474 117.88672 812.00977 C 117.88672 812.41274 117.83238 812.7978 117.72461 813.16797 C 117.61684 813.53814 117.4335 813.84189 117.17578 814.07617 C 116.91807 814.31046 116.56506 814.42773 116.11523 814.42773 C 115.68415 814.42773 115.34717 814.32219 115.10352 814.11133 C 114.85986 813.90047 114.68394 813.63191 114.57617 813.30859 C 114.4684 812.98528 114.40116 812.65573 114.37305 812.31836 L 111.25195 812.31836 C 111.25195 813.18053 111.44507 813.96316 111.83398 814.66602 C 112.2229 815.36419 112.78465 815.92086 113.51562 816.33789 C 114.2466 816.75023 115.12109 816.95703 116.14258 816.95703 C 117.24841 816.95703 118.15886 816.72248 118.87109 816.25391 C 119.58801 815.78533 120.11693 815.17745 120.45898 814.42773 C 120.80573 813.67802 120.97852 812.88054 120.97852 812.03711 C 120.97852 811.10934 120.79713 810.29466 120.43164 809.5918 C 120.06615 808.88425 119.56617 808.33305 118.93359 807.93945 C 118.30102 807.54117 117.58564 807.3418 116.78906 807.3418 C 116.21272 807.3418 115.74557 807.43444 115.38477 807.61719 C 115.02396 807.79525 114.77886 807.97546 114.65234 808.1582 L 114.59766 808.1582 L 114.93359 805.06445 L 120.5293 805.06445 L 120.5293 802.36523 L 112.4043 802.36523 z M 124.90039 804.33398 C 124.42245 804.33398 124.01393 804.5056 123.67188 804.84766 C 123.32982 805.18971 123.1582 805.59823 123.1582 806.07617 C 123.1582 806.56817 123.32982 806.98919 123.67188 807.33594 C 124.01393 807.678 124.42245 807.84766 124.90039 807.84766 C 125.37833 807.84766 125.7888 807.678 126.13086 807.33594 C 126.47292 806.98919 126.64453 806.56817 126.64453 806.07617 C 126.64453 805.59823 126.47292 805.18971 126.13086 804.84766 C 125.7888 804.5056 125.37833 804.33398 124.90039 804.33398 z M 124.90039 811.41797 C 124.42245 811.41797 124.01393 811.58958 123.67188 811.93164 C 123.32982 812.2737 123.1582 812.68417 123.1582 813.16211 C 123.1582 813.65411 123.32982 814.07318 123.67188 814.41992 C 124.01393 814.76198 124.42245 814.93359 124.90039 814.93359 C 125.37833 814.93359 125.7888 814.76198 126.13086 814.41992 C 126.47292 814.07318 126.64453 813.65411 126.64453 813.16211 C 126.64453 812.68417 126.47292 812.2737 126.13086 811.93164 C 125.7888 811.58958 125.37833 811.41797 124.90039 811.41797 z "
       style="font-style:normal;font-weight:normal;font-size:19.79249763px;line-height:1.25;font-family:sans-serif;letter-spacing:0px;word-spacing:0px;fill:#000000;fill-opacity:1;stroke:none;stroke-width:0.49481243"
       id="text19429-4-1-6-3"
       d="m 133.54297,801.30078 c -0.94676,0 -1.84833,0.17155 -2.67578,0.52539 -0.83472,0.35695 -1.5416,0.89391 -2.06641,1.58985 -0.54803,0.72673 -0.82226,1.62302 -0.82226,2.57617 a 0.86865766,0.86865766 0 0 0 0.86914,0.86914 h 3.12109 a 0.86865766,0.86865766 0 0 0 0.86914,-0.86914 c 0,-0.16667 -0.0204,-0.13092 0.11914,-0.22266 a 0.86865766,0.86865766 0 0 0 0.004,-0.002 c 0.20642,-0.13669 0.40925,-0.19922 0.69336,-0.19922 0.43665,0 0.58667,0.092 0.67187,0.18555 0.15613,0.17148 0.20313,0.29534 0.20313,0.51953 0,0.38266 -0.0877,0.61134 -0.26758,0.82617 a 0.86865766,0.86865766 0 0 0 0,0.002 c -0.12137,0.14528 -0.28438,0.24219 -0.74805,0.24219 h -1.54492 a 0.86865766,0.86865766 0 0 0 -0.86914,0.86914 v 2.69922 a 0.86865766,0.86865766 0 0 0 0.86914,0.86914 h 1.54492 c 0.54866,0 0.88439,0.11078 1.05664,0.22852 a 0.86865766,0.86865766 0 0 0 0.01,0.008 c 0.0547,0.0363 0.17383,0.15731 0.17383,0.72265 0,0.26862 -0.0515,0.38856 -0.24219,0.56641 -0.15843,0.14772 -0.39152,0.25195 -0.85742,0.25195 -0.35092,0 -0.56824,-0.0825 -0.78516,-0.25781 -0.19763,-0.16298 -0.22852,-0.2353 -0.22852,-0.44726 a 0.86865766,0.86865766 0 0 0 -0.86914,-0.86914 h -3.12109 a 0.86865766,0.86865766 0 0 0 -0.86914,0.86914 c 0,0.8331 0.17056,1.60644 0.53711,2.27343 a 0.86865766,0.86865766 0 0 0 0.002,0.004 c 0.34617,0.62423 0.82032,1.15414 1.39844,1.56055 a 0.86865766,0.86865766 0 0 0 0.004,0.002 c 0.55812,0.38851 1.17854,0.67887 1.8457,0.86328 0.6531,0.17907 1.31488,0.26953 1.97461,0.26953 1.07878,0 2.07855,-0.17752 2.97656,-0.55078 a 0.86865766,0.86865766 0 0 0 0.002,-0.002 c 0.9071,-0.38022 1.66553,-0.95687 2.2129,-1.70899 0.56929,-0.78057 0.8496,-1.73737 0.8496,-2.76757 0,-0.97964 -0.27221,-1.89088 -0.83593,-2.61329 -0.27786,-0.35803 -0.75245,-0.51226 -1.13477,-0.76757 0.33284,-0.28125 0.75253,-0.47737 0.99414,-0.8379 0.48671,-0.72441 0.75196,-1.54531 0.75196,-2.38867 0,-1.507 -0.58956,-2.83429 -1.7129,-3.67773 -4.6e-4,-3.5e-4 -0.001,3.5e-4 -0.002,0 -1.08933,-0.82485 -2.49113,-1.21094 -4.10156,-1.21094 z m -21.13867,0.19531 a 0.86865766,0.86865766 0 0 0 -0.86328,0.76953 l -0.84375,7.3379 a 0.86865766,0.86865766 0 0 0 0.65234,0.9414 l 2.47461,0.61914 a 0.86865766,0.86865766 0 0 0 0.8789,-0.28515 c 0.0524,-0.0628 0.17726,-0.1749 0.38868,-0.29883 0.0788,-0.0462 0.30327,-0.11914 0.68554,-0.11914 0.55943,0 0.76556,0.12011 0.91602,0.31445 a 0.86865766,0.86865766 0 0 0 0.004,0.004 c 0.18701,0.23897 0.32031,0.61639 0.32031,1.23047 0,0.32488 -0.0425,0.62582 -0.12696,0.91601 -0.0695,0.23877 -0.16589,0.38697 -0.29882,0.50781 -0.0723,0.0658 -0.17769,0.125 -0.47657,0.125 -0.28931,0 -0.39091,-0.0581 -0.44335,-0.10351 -0.12414,-0.10743 -0.20776,-0.23068 -0.27149,-0.42188 -0.0861,-0.25815 -0.13963,-0.51731 -0.16211,-0.78711 a 0.86865766,0.86865766 0 0 0 -0.86523,-0.79687 h -3.1211 a 0.86865766,0.86865766 0 0 0 -0.86914,0.86914 c 0,0.99187 0.22923,1.93231 0.69141,2.76758 a 0.86865766,0.86865766 0 0 0 0.002,0.002 c 0.46644,0.83732 1.1562,1.51693 2.00977,2.00391 a 0.86865766,0.86865766 0 0 0 0.004,0.002 c 0.88094,0.49693 1.91402,0.73242 3.05274,0.73242 1.22796,0 2.31841,-0.26416 3.20312,-0.8457 0.8399,-0.54896 1.49342,-1.2932 1.90235,-2.1875 v -0.002 c 0.39857,-0.86244 0.59961,-1.7925 0.59961,-2.75391 0,-1.0403 -0.20716,-2.00191 -0.64454,-2.84375 v -0.002 c -0.42839,-0.82879 -1.04214,-1.50942 -1.80664,-1.98633 -0.77183,-0.48597 -1.66591,-0.73242 -2.60742,-0.73242 -0.4322,0 -0.78663,0.13622 -1.16015,0.23828 l 0.084,-0.77735 h 4.81641 a 0.86865766,0.86865766 0 0 0 0.86914,-0.86914 v -2.69922 a 0.86865766,0.86865766 0 0 0 -0.86914,-0.86914 z m 12.49609,1.96875 c -0.68587,0 -1.35796,0.28568 -1.8418,0.76954 -0.48385,0.48384 -0.76953,1.15593 -0.76953,1.84179 0,0.69399 0.27677,1.37556 0.76367,1.86914 a 0.86865766,0.86865766 0 0 0 0.006,0.004 c 0.48502,0.48503 1.15831,0.76758 1.8418,0.76758 0.68349,0 1.35757,-0.2814 1.84375,-0.76758 a 0.86865766,0.86865766 0 0 0 0.006,-0.004 c 0.48691,-0.49359 0.76367,-1.17517 0.76367,-1.86914 0,-0.68585 -0.28567,-1.35795 -0.76953,-1.84179 -0.48501,-0.48502 -1.15788,-0.76954 -1.84375,-0.76954 z M 115,806.83789 c -0.002,8.6e-4 -0.002,0.003 -0.004,0.004 -0.001,5.5e-4 -0.003,-5.6e-4 -0.004,0 z m 9.90039,3.71094 c -0.68585,0 -1.35795,0.28567 -1.8418,0.76953 -0.48501,0.48501 -0.76953,1.15788 -0.76953,1.84375 0,0.69398 0.2779,1.37477 0.76367,1.86719 a 0.86865766,0.86865766 0 0 0 0.006,0.004 c 0.48385,0.48386 1.15595,0.76953 1.8418,0.76953 0.68585,0 1.35873,-0.28451 1.84375,-0.76953 a 0.86865766,0.86865766 0 0 0 0.006,-0.004 c 0.48578,-0.49243 0.76367,-1.17322 0.76367,-1.86719 0,-0.68585 -0.28451,-1.35873 -0.76953,-1.84375 -0.48502,-0.48502 -1.1579,-0.76953 -1.84375,-0.76953 z"
       transform="matrix(1.7983555,0,0,1.7983555,-161.0229,-399.12225)" />
    <path
       style="font-style:normal;font-weight:normal;font-size:35.59394836px;line-height:1.25;font-family:sans-serif;letter-spacing:0px;word-spacing:0px;fill:#ffffff;fill-opacity:1;stroke:none;stroke-width:0.88984865"
       d="M 79.208984 49.003906 C 77.692197 49.003906 76.292562 49.278443 75.011719 49.826172 C 73.730876 50.373901 72.702981 51.161408 71.927734 52.189453 C 71.152487 53.217498 70.765625 54.448338 70.765625 55.880859 L 76.376953 55.880859 C 76.376953 55.147745 76.68564 54.578305 77.300781 54.173828 C 77.924349 53.760925 78.626483 53.554688 79.410156 53.554688 C 80.471908 53.554688 81.261368 53.837762 81.775391 54.402344 C 82.289413 54.966926 82.544922 55.628325 82.544922 56.386719 C 82.544922 57.372631 82.263801 58.202825 81.699219 58.876953 C 81.143063 59.542654 80.295794 59.875 79.158203 59.875 L 76.376953 59.875 L 76.376953 64.728516 L 79.158203 64.728516 C 80.346353 64.728516 81.273752 64.95512 81.939453 65.410156 C 82.613581 65.856766 82.949219 66.726356 82.949219 68.015625 C 82.949219 68.875138 82.63724 69.594346 82.013672 70.175781 C 81.390104 70.757216 80.522467 71.048828 79.410156 71.048828 C 78.474804 71.048828 77.675467 70.779537 77.009766 70.240234 C 76.352491 69.700932 76.023438 69.02575 76.023438 68.216797 L 70.412109 68.216797 C 70.412109 69.506066 70.667618 70.619335 71.181641 71.554688 C 71.695663 72.481613 72.379382 73.243508 73.230469 73.841797 C 74.089982 74.440085 75.037747 74.883418 76.074219 75.169922 C 77.119117 75.456426 78.164086 75.599609 79.208984 75.599609 C 80.97857 75.599609 82.562122 75.307998 83.960938 74.726562 C 85.368179 74.136701 86.476203 73.286139 87.285156 72.173828 C 88.102536 71.053091 88.511719 69.699435 88.511719 68.115234 C 88.511719 66.623727 88.119611 65.377765 87.335938 64.375 C 86.552264 63.363808 85.452778 62.625572 84.037109 62.162109 C 85.309526 61.563821 86.30327 60.730334 87.019531 59.660156 C 87.744219 58.581552 88.107422 57.439378 88.107422 56.234375 C 88.107422 53.883354 87.285765 52.093565 85.642578 50.863281 C 84.007818 49.624571 81.863363 49.003906 79.208984 49.003906 z M 41.193359 49.357422 L 39.677734 62.554688 L 44.126953 63.666016 C 44.379751 63.362658 44.749539 63.067754 45.238281 62.78125 C 45.727024 62.494746 46.402206 62.351562 47.261719 62.351562 C 48.576268 62.351563 49.535863 62.74367 50.142578 63.527344 C 50.749293 64.302591 51.052734 65.361343 51.052734 66.701172 C 51.052734 67.425859 50.95553 68.119455 50.761719 68.785156 C 50.567907 69.450857 50.240807 69.994686 49.777344 70.416016 C 49.313881 70.837346 48.676141 71.048828 47.867188 71.048828 C 47.091941 71.048828 46.485058 70.859666 46.046875 70.480469 C 45.608692 70.101272 45.293421 69.620498 45.099609 69.039062 C 44.905798 68.457627 44.782981 67.862574 44.732422 67.255859 L 39.121094 67.255859 C 39.121094 68.806353 39.470514 70.214526 40.169922 71.478516 C 40.869329 72.734079 41.876857 73.736361 43.191406 74.486328 C 44.505955 75.227869 46.08097 75.599609 47.917969 75.599609 C 49.906646 75.599609 51.541423 75.176644 52.822266 74.333984 C 54.111535 73.491325 55.064546 72.397084 55.679688 71.048828 C 56.303256 69.700573 56.615234 68.266788 56.615234 66.75 C 56.615234 65.081534 56.286181 63.615552 55.628906 62.351562 C 54.971632 61.079146 54.073138 60.088694 52.935547 59.380859 C 51.797956 58.664599 50.514553 58.306641 49.082031 58.306641 C 48.04556 58.306641 47.201582 58.472144 46.552734 58.800781 C 45.903886 59.120992 45.465799 59.4448 45.238281 59.773438 L 45.138672 59.773438 L 45.744141 54.212891 L 55.806641 54.212891 L 55.806641 49.357422 L 41.193359 49.357422 z M 63.667969 52.898438 C 62.808456 52.898437 62.07022 53.205171 61.455078 53.820312 C 60.839936 54.435454 60.533203 55.17369 60.533203 56.033203 C 60.533203 56.917996 60.839936 57.671354 61.455078 58.294922 C 62.07022 58.910064 62.808456 59.216797 63.667969 59.216797 C 64.527482 59.216797 65.263765 58.910064 65.878906 58.294922 C 66.494048 57.671354 66.802734 56.917996 66.802734 56.033203 C 66.802734 55.17369 66.494048 54.435454 65.878906 53.820312 C 65.263765 53.205171 64.527482 52.898438 63.667969 52.898438 z M 63.667969 65.638672 C 62.808456 65.638672 62.07022 65.945405 61.455078 66.560547 C 60.839936 67.175689 60.533203 67.913925 60.533203 68.773438 C 60.533203 69.65823 60.839936 70.411588 61.455078 71.035156 C 62.07022 71.650298 62.808456 71.958984 63.667969 71.958984 C 64.527482 71.958984 65.263765 71.650298 65.878906 71.035156 C 66.494048 70.411588 66.802734 69.65823 66.802734 68.773438 C 66.802734 67.913925 66.494048 67.175689 65.878906 66.560547 C 65.263765 65.945405 64.527482 65.638672 63.667969 65.638672 z "
       transform="translate(0,994.51965)"
       id="text19429-4-1-6" />
  </g>
</svg>
