<?xml version="1.0" encoding="UTF-8" standalone="no"?>
<!-- Created with Inkscape (http://www.inkscape.org/) -->

<svg
   xmlns:dc="http://purl.org/dc/elements/1.1/"
   xmlns:cc="http://creativecommons.org/ns#"
   xmlns:rdf="http://www.w3.org/1999/02/22-rdf-syntax-ns#"
   xmlns:svg="http://www.w3.org/2000/svg"
   xmlns="http://www.w3.org/2000/svg"
   xmlns:sodipodi="http://sodipodi.sourceforge.net/DTD/sodipodi-0.dtd"
   xmlns:inkscape="http://www.inkscape.org/namespaces/inkscape"
   width="128"
   height="128"
   viewBox="0 0 128 128.00001"
   version="1.1"
   id="svg6294"
   inkscape:version="0.92.3 (2405546, 2018-03-11)"
   sodipodi:docname="screen1610.svg">
  <defs
     id="defs6288" />
  <sodipodi:namedview
     id="base"
     pagecolor="#ffffff"
     bordercolor="#666666"
     borderopacity="1.0"
     inkscape:pageopacity="0.0"
     inkscape:pageshadow="2"
     inkscape:zoom="16.408468"
     inkscape:cx="42.16582"
     inkscape:cy="64.718332"
     inkscape:document-units="px"
     inkscape:current-layer="layer1"
     showgrid="false"
     units="px"
     inkscape:window-width="1366"
     inkscape:window-height="713"
     inkscape:window-x="0"
     inkscape:window-y="27"
     inkscape:window-maximized="1" />
  <metadata
     id="metadata6291">
    <rdf:RDF>
      <cc:Work
         rdf:about="">
        <dc:format>image/svg+xml</dc:format>
        <dc:type
           rdf:resource="http://purl.org/dc/dcmitype/StillImage" />
        <dc:title />
      </cc:Work>
    </rdf:RDF>
  </metadata>
  <g
     inkscape:label="Layer 1"
     inkscape:groupmode="layer"
     id="layer1"
     transform="translate(0,-994.51965)">
    <path
       sodipodi:type="inkscape:offset"
       inkscape:radius="3.5547094"
       inkscape:original="M 99.289062 931.72461 L 99.289062 968.04883 L 121.18359 968.32617 L 120.64453 973.77344 L 114.42188 974.30078 L 109.08984 978.07812 L 119.73047 980.54297 L 130.1543 980.79102 L 142.15625 977.70898 L 135.66016 974.49805 L 128.33398 974.51172 L 127.95898 968.41016 L 149.72461 968.68555 L 151.66406 931.72461 L 99.289062 931.72461 z "
       style="fill:#000000;stroke:none;stroke-width:1.16400194px;stroke-linecap:butt;stroke-linejoin:miter;stroke-opacity:1"
       id="path19321-6-85-7"
       d="m 99.289062,928.16992 a 3.5550649,3.5550649 0 0 0 -3.554687,3.55469 v 36.32422 a 3.5550649,3.5550649 0 0 0 3.509766,3.55469 l 12.611329,0.16015 -4.82031,3.41406 a 3.5550649,3.5550649 0 0 0 1.25195,6.36329 l 10.64062,2.46484 a 3.5550649,3.5550649 0 0 0 0.71875,0.0898 l 10.42383,0.24805 a 3.5550649,3.5550649 0 0 0 0.96875,-0.10937 l 12.00196,-3.08204 a 3.5550649,3.5550649 0 0 0 0.68945,-6.63086 l -4.89258,-2.41796 10.8418,0.13671 a 3.5550649,3.5550649 0 0 0 3.5957,-3.36914 l 1.93945,-36.96093 a 3.5550649,3.5550649 0 0 0 -3.55078,-3.74024 z"
       transform="matrix(1.8155749,0,0,1.8155749,-163.81293,-668.63219)" />
    <path
       style="fill:#333333;stroke:none;stroke-width:2.11333275px;stroke-linecap:butt;stroke-linejoin:miter;stroke-opacity:1"
       d="m 56.883509,1082.5959 -1.656312,16.7327 -11.299612,0.9554 -9.680972,6.8574 19.321348,4.4774 18.922738,0.449 21.791023,-5.5946 -11.794558,-5.8287 -13.299558,0.022 -1.078996,-17.495 z"
       id="path19321-6-85"
       inkscape:connector-curvature="0"
       sodipodi:nodetypes="ccccccccccc" />
    <path
       style="fill:#444444;fill-opacity:1;stroke:none;stroke-width:1.71340811px;stroke-linecap:butt;stroke-linejoin:miter;stroke-opacity:1"
       d="m 54.702114,1104.9852 6.326879,-18.4756 -4.145484,-3.9137 z"
       id="path19347-7-5"
       inkscape:connector-curvature="0"
       sodipodi:nodetypes="cccc" />
    <path
       style="fill:#4d4d4d;stroke:none;stroke-width:1.81401157px;stroke-linecap:butt;stroke-linejoin:miter;stroke-opacity:1"
       d="m 16.453987,1022.9846 h 95.090743 l -3.52187,67.1051 -91.568873,-1.1571 z"
       id="path19317-0-0"
       inkscape:connector-curvature="0"
       sodipodi:nodetypes="ccccc" />
    <path
       style="fill:#37abc8;stroke:none;stroke-width:1.81401157px;stroke-linecap:butt;stroke-linejoin:miter;stroke-opacity:1"
       d="m 23.291906,1030.4139 81.209064,-1.0659 -1.60086,48.5935 -77.161154,-1.1571 z"
       id="path19319-4-7"
       inkscape:connector-curvature="0"
       sodipodi:nodetypes="ccccc" />
    <path
       style="fill:#808080;fill-opacity:1;stroke:none;stroke-width:1.81401157px;stroke-linecap:butt;stroke-linejoin:miter;stroke-opacity:1"
       d="m 16.453987,1088.9326 3.375654,-62.0748 -3.375654,-3.8732 z"
       id="path19323-8-38"
       inkscape:connector-curvature="0"
       sodipodi:nodetypes="cccc" />
    <path
       style="fill:#666666;fill-opacity:1;stroke:none;stroke-width:1.81401157px;stroke-linecap:butt;stroke-linejoin:miter;stroke-opacity:1"
       d="m 19.829641,1026.8578 91.715089,-3.8732 H 16.453987 Z"
       id="path19325-4-23"
       inkscape:connector-curvature="0"
       sodipodi:nodetypes="cccc" />
    <path
       style="fill:#252525;fill-opacity:1;stroke:none;stroke-width:1.81401157px;stroke-linecap:butt;stroke-linejoin:miter;stroke-opacity:1"
       d="m 16.453987,1088.9326 91.568873,1.1571 -2.80151,-6.0018 z"
       id="path19327-8-0"
       inkscape:connector-curvature="0"
       sodipodi:nodetypes="cccc" />
    <path
       style="fill:#333333;stroke:none;stroke-width:1.81401157px;stroke-linecap:butt;stroke-linejoin:miter;stroke-opacity:1"
       d="m 105.22135,1084.0879 6.32338,-61.1033 -3.52187,67.1051 z"
       id="path19329-1-77"
       inkscape:connector-curvature="0"
       sodipodi:nodetypes="cccc" />
    <path
       style="fill:#2c879e;fill-opacity:1;stroke:none;stroke-width:1.81401157px;stroke-linecap:butt;stroke-linejoin:miter;stroke-opacity:1"
       d="m 104.50097,1029.348 -77.539878,5.3843 -3.669186,-4.3184 z"
       id="path19331-6-7"
       inkscape:connector-curvature="0"
       sodipodi:nodetypes="cccc" />
    <path
       style="fill:#287b90;fill-opacity:1;stroke:none;stroke-width:1.81401157px;stroke-linecap:butt;stroke-linejoin:miter;stroke-opacity:1"
       d="m 26.961092,1034.7323 -1.222136,42.0521 -2.44705,-46.3705 z"
       id="path19333-8-69"
       inkscape:connector-curvature="0"
       sodipodi:nodetypes="cccc" />
    <path
       style="fill:#6bc0d6;fill-opacity:1;stroke:none;stroke-width:1.81401157px;stroke-linecap:butt;stroke-linejoin:miter;stroke-opacity:1"
       d="m 25.738956,1076.7844 73.045246,-2.7448 4.115908,3.9019 z"
       id="path19335-5-1"
       inkscape:connector-curvature="0"
       sodipodi:nodetypes="cccc" />
    <path
       style="fill:#59b9d1;fill-opacity:1;stroke:none;stroke-width:1.81401157px;stroke-linecap:butt;stroke-linejoin:miter;stroke-opacity:1"
       d="m 98.784202,1074.0396 5.716768,-44.6916 -1.60086,48.5935 z"
       id="path19337-2-1"
       inkscape:connector-curvature="0"
       sodipodi:nodetypes="cccc" />
    <path
       style="fill:#262626;fill-opacity:1;stroke:none;stroke-width:1.71340811px;stroke-linecap:butt;stroke-linejoin:miter;stroke-opacity:1"
       d="m 72.490699,1112.0678 11.440991,-7.2952 10.350032,1.7006 z"
       id="path19343-1-9"
       inkscape:connector-curvature="0"
       sodipodi:nodetypes="cccc" />
    <path
       style="fill:#2b2b2b;fill-opacity:1;stroke:none;stroke-width:1.71340811px;stroke-linecap:butt;stroke-linejoin:miter;stroke-opacity:1"
       d="m 83.93169,1104.7726 -1.444526,-4.1281 11.794558,5.8287 z"
       id="path19345-9-0"
       inkscape:connector-curvature="0"
       sodipodi:nodetypes="cccc" />
    <path
       style="fill:#505050;fill-opacity:1;stroke:none;stroke-width:1.71340811px;stroke-linecap:butt;stroke-linejoin:miter;stroke-opacity:1"
       d="m 55.227197,1099.3286 -0.163039,1.9002 -11.136609,-0.9448 z"
       id="path19349-9-8"
       inkscape:connector-curvature="0"
       sodipodi:nodetypes="cccc" />
    <path
       style="fill:#444444;fill-opacity:1;stroke:none;stroke-width:1.71340811px;stroke-linecap:butt;stroke-linejoin:miter;stroke-opacity:1"
       d="m 46.47736,1106.3429 -12.230747,0.7985 9.680972,-6.8574 z"
       id="path19351-6-9"
       inkscape:connector-curvature="0"
       sodipodi:nodetypes="cccc" />
    <path
       style="fill:#444444;fill-opacity:1;stroke:none;stroke-width:1.71340811px;stroke-linecap:butt;stroke-linejoin:miter;stroke-opacity:1"
       d="m 34.246613,1107.1414 12.230747,-0.7985 7.090601,5.2759 z"
       id="path19353-0-8"
       inkscape:connector-curvature="0"
       sodipodi:nodetypes="cccc" />
    <path
       sodipodi:type="inkscape:offset"
       inkscape:radius="0.79886085"
       inkscape:original="M 118.26562 942.96875 C 117.20528 942.96875 116.38535 943.23137 115.80664 943.75781 C 115.23166 944.28052 114.83339 945.02076 114.60938 945.97656 C 114.38909 946.92864 114.27734 948.04767 114.27734 949.33203 L 114.27734 949.7793 C 114.27734 950.85458 114.4516 951.765 114.79883 952.51172 C 115.14979 953.25844 115.63183 953.82655 116.24414 954.21484 C 116.86019 954.60314 117.56394 954.79688 118.35547 954.79688 C 119.11713 954.79687 119.78865 954.62899 120.37109 954.29297 C 120.95354 953.95321 121.40972 953.4926 121.73828 952.91016 C 122.06684 952.32398 122.23047 951.66113 122.23047 950.92188 C 122.23047 950.23489 122.08632 949.60002 121.79883 949.01758 C 121.51134 948.4314 121.10669 947.96016 120.58398 947.60547 C 120.06128 947.24704 119.44572 947.06836 118.73633 947.06836 C 118.24349 947.06836 117.82379 947.15443 117.47656 947.32617 C 117.12934 947.49418 116.84528 947.71148 116.625 947.97656 C 116.6698 946.92368 116.82918 946.16839 117.10547 945.71289 C 117.38176 945.25739 117.78411 945.0293 118.31055 945.0293 C 118.69138 945.0293 118.99916 945.13679 119.23438 945.34961 C 119.46959 945.55869 119.6311 945.84717 119.7207 946.2168 L 122.14062 946.2168 C 121.95021 945.23112 121.53689 944.44343 120.89844 943.85352 C 120.26372 943.2636 119.38571 942.96875 118.26562 942.96875 z M 140.28906 943.01367 C 139.51247 943.01367 138.81722 943.19873 138.20117 943.56836 C 137.58886 943.93799 137.10257 944.48466 136.74414 945.20898 C 136.38945 945.93331 136.21289 946.82867 136.21289 947.89648 L 136.21289 949.80078 C 136.21289 950.92833 136.38732 951.86231 136.73828 952.60156 C 137.09297 953.34082 137.57714 953.89175 138.18945 954.25391 C 138.8055 954.61607 139.505 954.79688 140.28906 954.79688 C 141.06566 954.79687 141.76073 954.61607 142.37305 954.25391 C 142.98909 953.89175 143.47343 953.34082 143.82812 952.60156 C 144.18655 951.86231 144.36719 950.92833 144.36719 949.80078 L 144.36719 947.89648 C 144.36719 946.82867 144.18655 945.93331 143.82812 945.20898 C 143.47343 944.48466 142.98909 943.93799 142.37305 943.56836 C 141.76073 943.19873 141.06566 943.01367 140.28906 943.01367 z M 109.54297 943.16992 C 109.54297 943.19232 109.51924 943.30407 109.4707 943.50195 C 109.42217 943.69983 109.31892 943.92155 109.16211 944.16797 C 109.00903 944.41439 108.77439 944.62973 108.45703 944.81641 C 108.14341 945.00309 107.72158 945.09766 107.19141 945.09766 L 107.19141 947.1582 C 107.79625 947.1582 108.28697 947.09374 108.66406 946.9668 C 109.04116 946.83985 109.29723 946.66542 109.43164 946.44141 L 109.51953 946.44141 L 109.51953 954.64062 L 111.87305 954.64062 L 111.87305 943.16992 L 109.54297 943.16992 z M 130.85742 943.16992 C 130.85742 943.19232 130.83369 943.30407 130.78516 943.50195 C 130.73662 943.69983 130.63337 943.92155 130.47656 944.16797 C 130.32348 944.41439 130.08884 944.62973 129.77148 944.81641 C 129.45786 945.00309 129.03603 945.09766 128.50586 945.09766 L 128.50586 947.1582 C 129.11071 947.1582 129.60142 947.09374 129.97852 946.9668 C 130.35561 946.83985 130.61168 946.66542 130.74609 946.44141 L 130.83594 946.44141 L 130.83594 954.64062 L 133.1875 954.64062 L 133.1875 943.16992 L 130.85742 943.16992 z M 125.38281 944.73828 C 125.00198 944.73828 124.67685 944.87588 124.4043 945.14844 C 124.13174 945.42099 123.99414 945.74612 123.99414 946.12695 C 123.99414 946.51898 124.13174 946.85457 124.4043 947.13086 C 124.67685 947.40341 125.00198 947.53906 125.38281 947.53906 C 125.76364 947.53906 126.09073 947.40341 126.36328 947.13086 C 126.63584 946.85457 126.77344 946.51898 126.77344 946.12695 C 126.77344 945.74612 126.63584 945.42099 126.36328 945.14844 C 126.09073 944.87588 125.76364 944.73828 125.38281 944.73828 z M 140.28906 945.11914 C 140.7371 945.11914 141.10722 945.3127 141.39844 945.69727 C 141.68966 946.07809 141.83398 946.69808 141.83398 947.56055 L 141.83398 950.13672 C 141.83398 951.08879 141.68541 951.75147 141.38672 952.12109 C 141.09176 952.48699 140.7259 952.66992 140.28906 952.66992 C 139.84103 952.66992 139.47091 952.48699 139.17969 952.12109 C 138.88847 951.75147 138.74414 951.08879 138.74414 950.13672 L 138.74414 947.56055 C 138.74414 946.69808 138.88847 946.07809 139.17969 945.69727 C 139.47091 945.3127 139.84103 945.11914 140.28906 945.11914 z M 118.1543 949.0625 C 118.64713 949.0625 119.0346 949.23251 119.31836 949.57227 C 119.60211 949.91202 119.74414 950.36183 119.74414 950.92188 C 119.74414 951.48192 119.60424 951.93173 119.32422 952.27148 C 119.04793 952.61124 118.67994 952.78125 118.2207 952.78125 C 117.78387 952.78125 117.40508 952.60912 117.08398 952.26562 C 116.76663 951.9184 116.60742 951.3804 116.60742 950.65234 L 116.60742 950.51758 C 116.60742 950.13675 116.74307 949.79886 117.01562 949.50391 C 117.29191 949.20895 117.67266 949.0625 118.1543 949.0625 z M 125.38281 950.38477 C 125.00198 950.38477 124.67685 950.52041 124.4043 950.79297 C 124.13174 951.06552 123.99414 951.39261 123.99414 951.77344 C 123.99414 952.16547 124.13174 952.4991 124.4043 952.77539 C 124.67685 953.04794 125.00198 953.18359 125.38281 953.18359 C 125.76364 953.18359 126.09073 953.04794 126.36328 952.77539 C 126.63584 952.4991 126.77344 952.16547 126.77344 951.77344 C 126.77344 951.39261 126.63584 951.06552 126.36328 950.79297 C 126.09073 950.52041 125.76364 950.38477 125.38281 950.38477 z "
       style="font-style:normal;font-weight:normal;font-size:15.77080345px;line-height:1.25;font-family:sans-serif;letter-spacing:0px;word-spacing:0px;fill:#000000;fill-opacity:1;stroke:none;stroke-width:0.39427009"
       id="text19429-4-4-6"
       d="m 118.26562,942.16992 c -1.19224,0 -2.23737,0.3059 -2.99609,0.9961 -0.71689,0.65171 -1.1864,1.55751 -1.4375,2.6289 a 0.79894073,0.79894073 0 0 0 0,0.002 c -0.2379,1.0282 -0.35351,2.20445 -0.35351,3.53515 v 0.44727 c 0,1.16159 0.18688,2.18918 0.5957,3.06836 a 0.79894073,0.79894073 0 0 0 0.002,0.004 c 0.40439,0.86041 0.99045,1.56164 1.74024,2.03711 a 0.79894073,0.79894073 0 0 0 0.002,0.002 c 0.74682,0.47073 1.61522,0.70508 2.53711,0.70508 0.87904,-10e-6 1.70117,-0.20004 2.41406,-0.61132 a 0.79894073,0.79894073 0 0 0 0.004,-0.002 c 0.69707,-0.40662 1.26468,-0.97862 1.66015,-1.67969 a 0.79894073,0.79894073 0 0 0 0.002,-0.002 c 0.39883,-0.71156 0.59375,-1.52177 0.59375,-2.3789 0,-0.79809 -0.17168,-1.56231 -0.51368,-2.25586 v -0.002 c -0.32939,-0.67108 -0.82245,-1.22236 -1.42187,-1.64844 h 1.04687 a 0.79894073,0.79894073 0 0 0 0.78516,-0.95117 c -0.21621,-1.11924 -0.7118,-2.08304 -1.48437,-2.79687 -0.80659,-0.74966 -1.9155,-1.09766 -3.17579,-1.09766 z m 22.02344,0.0449 c -0.9035,0 -1.75549,0.22244 -2.49804,0.66797 a 0.79894073,0.79894073 0 0 0 -0.002,0.002 c -0.75044,0.45301 -1.34676,1.13216 -1.76172,1.9707 a 0.79894073,0.79894073 0 0 0 0,0.002 c -0.42299,0.86382 -0.61328,1.88319 -0.61328,3.03906 v 1.9043 c 0,1.20994 0.18474,2.26047 0.60352,3.14258 a 0.79894073,0.79894073 0 0 0 0,0.004 c 0.41038,0.85533 1.00658,1.54519 1.76562,1.99414 a 0.79894073,0.79894073 0 0 0 0.002,0.002 c 0.74366,0.43718 1.59703,0.65234 2.5039,0.65234 0.90058,-10e-6 1.75019,-0.21659 2.49024,-0.65429 0.76158,-0.44843 1.35762,-1.13882 1.76758,-1.99219 0.4277,-0.88212 0.61914,-1.93557 0.61914,-3.14844 v -1.9043 c 0,-1.15719 -0.19448,-2.17615 -0.6211,-3.03906 -0.41076,-0.83883 -1.00527,-1.51928 -1.75976,-1.97265 -0.74031,-0.4469 -1.59259,-0.66993 -2.4961,-0.66993 z m -30.74609,0.15625 a 0.79894073,0.79894073 0 0 0 -0.79102,0.69141 c -2e-4,0.001 -0.003,0.0172 -0.008,0.0391 -0.009,0.0436 -0.0257,0.11654 -0.0488,0.21094 -0.019,0.0774 -0.0815,0.22847 -0.20703,0.42578 a 0.79894073,0.79894073 0 0 0 -0.004,0.008 c -0.0701,0.11281 -0.19737,0.24306 -0.43165,0.38086 a 0.79894073,0.79894073 0 0 0 -0.004,0.004 c -0.14498,0.0863 -0.42225,0.16797 -0.85742,0.16797 a 0.79894073,0.79894073 0 0 0 -0.79883,0.79883 v 2.06054 a 0.79894073,0.79894073 0 0 0 0.79883,0.79883 c 0.58596,0 1.07369,-0.0768 1.52929,-0.20508 v 6.88867 a 0.79894073,0.79894073 0 0 0 0.79883,0.79883 h 2.35352 a 0.79894073,0.79894073 0 0 0 0.79883,-0.79883 v -11.4707 a 0.79894073,0.79894073 0 0 0 -0.79883,-0.79883 z m 21.31445,0 a 0.79894073,0.79894073 0 0 0 -0.79101,0.69141 c -2.1e-4,0.001 -0.003,0.0172 -0.008,0.0391 -0.009,0.0436 -0.0257,0.11653 -0.0488,0.21094 -0.019,0.0774 -0.0815,0.22847 -0.20704,0.42578 a 0.79894073,0.79894073 0 0 0 -0.004,0.008 c -0.0701,0.11281 -0.19737,0.24306 -0.43164,0.38086 a 0.79894073,0.79894073 0 0 0 -0.004,0.004 c -0.14497,0.0863 -0.42225,0.16797 -0.85742,0.16797 a 0.79894073,0.79894073 0 0 0 -0.79883,0.79883 v 2.06054 a 0.79894073,0.79894073 0 0 0 0.79883,0.79883 c 0.58681,0 1.07516,-0.0784 1.53125,-0.20703 v 6.89062 a 0.79894073,0.79894073 0 0 0 0.79883,0.79883 h 2.35156 a 0.79894073,0.79894073 0 0 0 0.79883,-0.79883 v -11.4707 a 0.79894073,0.79894073 0 0 0 -0.79883,-0.79883 z m -5.47461,1.56836 c -0.57326,0 -1.14086,0.24241 -1.54297,0.64453 -0.40212,0.40211 -0.64453,0.96972 -0.64453,1.54297 0,0.57896 0.23534,1.15363 0.64063,1.56446 a 0.79894073,0.79894073 0 0 0 0.004,0.004 c 0.40346,0.40346 0.97244,0.64258 1.54297,0.64258 0.57053,0 1.14012,-0.23777 1.54492,-0.64258 a 0.79894073,0.79894073 0 0 0 0.004,-0.004 c 0.40529,-0.41083 0.64063,-0.9855 0.64063,-1.56446 0,-0.57325 -0.24241,-1.14086 -0.64454,-1.54297 -0.40346,-0.40347 -0.97166,-0.64453 -1.54492,-0.64453 z m -7.07226,1.88867 c 0.23051,0 0.3113,0.0433 0.38867,0.11329 a 0.79894073,0.79894073 0 0 0 0.004,0.006 c 0.0795,0.0706 0.13997,0.20441 0.19532,0.36914 -0.0589,-0.002 -0.10272,-0.0469 -0.16211,-0.0469 -0.36888,0 -0.68432,0.12531 -1.01563,0.21485 0.0287,-0.0747 0.0411,-0.31243 0.0684,-0.35743 0.15927,-0.26257 0.22579,-0.29883 0.52149,-0.29883 z m 21.97851,0.0898 c 0.21796,0 0.30022,0.034 0.47266,0.26172 a 0.79894073,0.79894073 0 0 0 0.002,0.002 c 0.11444,0.14964 0.27149,0.60555 0.27149,1.37891 v 2.57617 c 0,0.86896 -0.18284,1.37513 -0.26954,1.48242 -0.17403,0.2159 -0.26274,0.25195 -0.47656,0.25195 -0.22984,0 -0.31683,-0.0404 -0.48242,-0.24804 -0.0836,-0.10761 -0.26367,-0.61721 -0.26367,-1.48633 v -2.57617 c 0,-0.77335 0.15704,-1.22926 0.27148,-1.37891 a 0.79894073,0.79894073 0 0 0 0.002,-0.002 c 0.17244,-0.22772 0.25471,-0.26172 0.47265,-0.26172 z m -14.90625,3.66797 c -0.57051,0 -1.1395,0.2391 -1.54297,0.64258 -0.40347,0.40346 -0.64453,0.97166 -0.64453,1.54492 0,0.57896 0.23667,1.15301 0.64063,1.5625 a 0.79894073,0.79894073 0 0 0 0.004,0.004 c 0.40346,0.40346 0.97244,0.64258 1.54297,0.64258 0.57053,0 1.14012,-0.23777 1.54492,-0.64258 a 0.79894073,0.79894073 0 0 0 0.004,-0.004 c 0.40396,-0.40949 0.64063,-0.98354 0.64063,-1.5625 0,-0.57326 -0.24106,-1.14146 -0.64454,-1.54492 -0.40481,-0.40483 -0.9744,-0.64258 -1.54492,-0.64258 z m -7.22851,0.27539 c 0.30911,0 0.41232,0.0569 0.55078,0.22265 0.14545,0.17416 0.24023,0.41291 0.24023,0.8379 0,0.427 -0.0953,0.66832 -0.23828,0.84179 a 0.79894073,0.79894073 0 0 0 -0.002,0.004 c -0.13953,0.17158 -0.22229,0.21484 -0.48438,0.21484 -0.22469,0 -0.35224,-0.0533 -0.54687,-0.25976 -0.12949,-0.14284 -0.26758,-0.46081 -0.26758,-1.07032 v -0.13476 c 0,-0.1895 0.0408,-0.30056 0.19336,-0.4668 0.11615,-0.124 0.23498,-0.18945 0.55469,-0.18945 z"
       transform="matrix(1.8155749,0,0,1.8155749,-163.81293,-668.63219)" />
    <path
       style="font-style:normal;font-weight:normal;font-size:28.63307381px;line-height:1.25;font-family:sans-serif;letter-spacing:0px;word-spacing:0px;fill:#ffffff;fill-opacity:1;stroke:none;stroke-width:0.71582687"
       d="M 50.941406 48.828125 C 49.016266 48.828125 47.527255 49.305927 46.476562 50.261719 C 45.432648 51.210732 44.707501 52.551772 44.300781 54.287109 C 43.90084 56.015669 43.701172 58.047046 43.701172 60.378906 L 43.701172 61.191406 C 43.701172 63.143661 44.016069 64.798564 44.646484 66.154297 C 45.283679 67.51003 46.159784 68.541113 47.271484 69.246094 C 48.389964 69.951075 49.666439 70.302734 51.103516 70.302734 C 52.486363 70.302734 53.7062 69.996798 54.763672 69.386719 C 55.821143 68.76986 56.649571 67.934425 57.246094 66.876953 C 57.842616 65.812703 58.140625 64.6078 58.140625 63.265625 C 58.140625 62.018351 57.879379 60.866065 57.357422 59.808594 C 56.835465 58.744344 56.099403 57.890067 55.150391 57.246094 C 54.201378 56.595342 53.082868 56.271484 51.794922 56.271484 C 50.900138 56.271484 50.138228 56.426463 49.507812 56.738281 C 48.877397 57.043321 48.362832 57.436684 47.962891 57.917969 C 48.044235 56.006386 48.334316 54.637544 48.835938 53.810547 C 49.337559 52.98355 50.067646 52.570312 51.023438 52.570312 C 51.714861 52.570313 52.274116 52.762054 52.701172 53.148438 C 53.128228 53.528043 53.421296 54.053522 53.583984 54.724609 L 57.976562 54.724609 C 57.630851 52.935042 56.879855 51.504623 55.720703 50.433594 C 54.56833 49.362565 52.975005 48.828125 50.941406 48.828125 z M 90.927734 48.910156 C 89.517772 48.910156 88.253245 49.244928 87.134766 49.916016 C 86.023065 50.587103 85.140986 51.579471 84.490234 52.894531 C 83.846261 54.209592 83.525391 55.836693 83.525391 57.775391 L 83.525391 61.232422 C 83.525391 63.279578 83.843274 64.974231 84.480469 66.316406 C 85.124442 67.658582 86.00158 68.658876 87.113281 69.316406 C 88.231761 69.973937 89.504215 70.302734 90.927734 70.302734 C 92.337696 70.302734 93.597284 69.973937 94.708984 69.316406 C 95.827464 68.658876 96.709543 67.658582 97.353516 66.316406 C 98.004267 64.974231 98.330078 63.279578 98.330078 61.232422 L 98.330078 57.775391 C 98.330078 55.836693 98.004267 54.209592 97.353516 52.894531 C 96.709543 51.579471 95.827464 50.587103 94.708984 49.916016 C 93.597284 49.244928 92.337696 48.910156 90.927734 48.910156 z M 35.105469 49.193359 C 35.105469 49.234031 35.060779 49.4337 34.972656 49.792969 C 34.884534 50.152238 34.698766 50.556514 34.414062 51.003906 C 34.136137 51.451298 33.708999 51.844661 33.132812 52.183594 C 32.563405 52.522527 31.796555 52.691406 30.833984 52.691406 L 30.833984 56.433594 C 31.932128 56.433594 32.823168 56.318365 33.507812 56.087891 C 34.192457 55.857416 34.656359 55.539532 34.900391 55.132812 L 35.064453 55.132812 L 35.064453 70.017578 L 39.333984 70.017578 L 39.333984 49.193359 L 35.105469 49.193359 z M 73.804688 49.193359 C 73.804687 49.234031 73.759998 49.4337 73.671875 49.792969 C 73.583752 50.152238 73.397985 50.556514 73.113281 51.003906 C 72.835356 51.451298 72.408218 51.844661 71.832031 52.183594 C 71.262624 52.522527 70.495773 52.691406 69.533203 52.691406 L 69.533203 56.433594 C 70.631347 56.433594 71.522386 56.318365 72.207031 56.087891 C 72.891676 55.857416 73.357531 55.539532 73.601562 55.132812 L 73.763672 55.132812 L 73.763672 70.017578 L 78.033203 70.017578 L 78.033203 49.193359 L 73.804688 49.193359 z M 63.865234 52.041016 C 63.173811 52.041016 62.58078 52.288361 62.085938 52.783203 C 61.591095 53.278046 61.34375 53.871076 61.34375 54.5625 C 61.34375 55.27426 61.591095 55.881191 62.085938 56.382812 C 62.58078 56.877655 63.173811 57.125 63.865234 57.125 C 64.556658 57.125 65.149689 56.877655 65.644531 56.382812 C 66.139374 55.881191 66.386719 55.27426 66.386719 54.5625 C 66.386719 53.871076 66.139374 53.278046 65.644531 52.783203 C 65.149689 52.288361 64.556658 52.041016 63.865234 52.041016 z M 90.927734 52.732422 C 91.741174 52.732422 92.410717 53.081095 92.939453 53.779297 C 93.468189 54.470721 93.732422 55.600144 93.732422 57.166016 L 93.732422 61.84375 C 93.732422 63.572309 93.462215 64.770319 92.919922 65.441406 C 92.384407 66.105715 91.720838 66.439453 90.927734 66.439453 C 90.114295 66.439453 89.442798 66.105715 88.914062 65.441406 C 88.385327 64.770319 88.121094 63.572309 88.121094 61.84375 L 88.121094 57.166016 C 88.121094 55.600144 88.385327 54.470721 88.914062 53.779297 C 89.442798 53.081095 90.114295 52.732422 90.927734 52.732422 z M 50.738281 59.890625 C 51.633065 59.890625 52.338337 60.199548 52.853516 60.816406 C 53.368694 61.433265 53.625 62.248826 53.625 63.265625 C 53.625 64.282424 53.371681 65.099939 52.863281 65.716797 C 52.36166 66.333655 51.693151 66.642578 50.859375 66.642578 C 50.066271 66.642578 49.377887 66.330668 48.794922 65.707031 C 48.218735 65.076616 47.931641 64.101136 47.931641 62.779297 L 47.931641 62.535156 C 47.931641 61.843733 48.178986 61.228874 48.673828 60.693359 C 49.175449 60.157845 49.863834 59.890625 50.738281 59.890625 z M 63.865234 62.291016 C 63.173811 62.291016 62.58078 62.538361 62.085938 63.033203 C 61.591095 63.528046 61.34375 64.121076 61.34375 64.8125 C 61.34375 65.52426 61.591095 66.131191 62.085938 66.632812 C 62.58078 67.127655 63.173811 67.375 63.865234 67.375 C 64.556658 67.375 65.149689 67.127655 65.644531 66.632812 C 66.139374 66.131191 66.386719 65.52426 66.386719 64.8125 C 66.386719 64.121076 66.139374 63.528046 65.644531 63.033203 C 65.149689 62.538361 64.556658 62.291016 63.865234 62.291016 z "
       transform="translate(0,994.51965)"
       id="text19429-4-4" />
  </g>
</svg>
