<?xml version="1.0" encoding="UTF-8" standalone="no"?>
<!-- Created with Inkscape (http://www.inkscape.org/) -->

<svg
   xmlns:dc="http://purl.org/dc/elements/1.1/"
   xmlns:cc="http://creativecommons.org/ns#"
   xmlns:rdf="http://www.w3.org/1999/02/22-rdf-syntax-ns#"
   xmlns:svg="http://www.w3.org/2000/svg"
   xmlns="http://www.w3.org/2000/svg"
   xmlns:sodipodi="http://sodipodi.sourceforge.net/DTD/sodipodi-0.dtd"
   xmlns:inkscape="http://www.inkscape.org/namespaces/inkscape"
   width="128"
   height="128"
   viewBox="0 0 128 128.00001"
   version="1.1"
   id="svg6294"
   inkscape:version="0.92.3 (2405546, 2018-03-11)"
   sodipodi:docname="screen43.svg">
  <defs
     id="defs6288" />
  <sodipodi:namedview
     id="base"
     pagecolor="#ffffff"
     bordercolor="#666666"
     borderopacity="1.0"
     inkscape:pageopacity="0.0"
     inkscape:pageshadow="2"
     inkscape:zoom="16.408468"
     inkscape:cx="42.16582"
     inkscape:cy="64.718332"
     inkscape:document-units="px"
     inkscape:current-layer="layer1"
     showgrid="false"
     units="px"
     inkscape:window-width="1366"
     inkscape:window-height="713"
     inkscape:window-x="0"
     inkscape:window-y="27"
     inkscape:window-maximized="1" />
  <metadata
     id="metadata6291">
    <rdf:RDF>
      <cc:Work
         rdf:about="">
        <dc:format>image/svg+xml</dc:format>
        <dc:type
           rdf:resource="http://purl.org/dc/dcmitype/StillImage" />
        <dc:title />
      </cc:Work>
    </rdf:RDF>
  </metadata>
  <g
     inkscape:label="Layer 1"
     inkscape:groupmode="layer"
     id="layer1"
     transform="translate(0,-994.51965)">
    <path
       sodipodi:type="inkscape:offset"
       inkscape:radius="3.5965235"
       inkscape:original="M 76.605469 4.0703125 L 76.605469 46.673828 L 99.810547 46.998047 L 99.234375 52.814453 L 92.640625 53.371094 L 86.990234 57.375 L 98.267578 59.986328 L 109.31055 60.25 L 122.0293 56.984375 L 115.14453 53.582031 L 107.38281 53.595703 L 106.98242 47.099609 L 130.04883 47.421875 L 132.10352 4.0703125 L 76.605469 4.0703125 z "
       style="fill:#000000;stroke:none;stroke-width:1.23340881px;stroke-linecap:butt;stroke-linejoin:miter;stroke-opacity:1"
       id="path19321-3"
       d="M 76.605469,0.47460938 A 3.5968832,3.5968832 0 0 0 73.009766,4.0703125 V 46.673828 a 3.5968832,3.5968832 0 0 0 3.544922,3.595703 l 13.966796,0.195313 -5.611328,3.976562 a 3.5968832,3.5968832 0 0 0 1.269532,6.4375 l 11.277343,2.611328 a 3.5968832,3.5968832 0 0 0 0.72461,0.0918 l 11.042969,0.263672 a 3.5968832,3.5968832 0 0 0 0.98047,-0.111328 l 12.71875,-3.265625 a 3.5968832,3.5968832 0 0 0 0.69922,-6.708984 l -5.89649,-2.914063 12.27149,0.171875 a 3.5968832,3.5968832 0 0 0 3.64257,-3.425781 l 2.05469,-43.3515626 a 3.5968832,3.5968832 0 0 0 -3.59179,-3.76562502 z"
       transform="matrix(1.7227764,0,0,1.7227764,-115.7795,1008.5259)" />
    <path
       style="fill:#333333;stroke:none;stroke-width:2.12488747px;stroke-linecap:butt;stroke-linejoin:miter;stroke-opacity:1"
       d="m 56.845659,1082.6893 -1.665368,16.8242 -11.361394,0.9606 -9.733904,6.8949 19.42699,4.5019 19.026201,0.4514 21.910163,-5.6251 -11.85904,-5.8606 -13.372277,0.022 -1.084896,-17.5907 z"
       id="path19321"
       inkscape:connector-curvature="0"
       sodipodi:nodetypes="ccccccccccc" />
    <path
       style="fill:#444444;fill-opacity:1;stroke:none;stroke-width:1.72277641px;stroke-linecap:butt;stroke-linejoin:miter;stroke-opacity:1"
       d="m 54.652337,1105.201 6.361472,-18.5766 -4.16815,-3.9351 z"
       id="path19347"
       inkscape:connector-curvature="0"
       sodipodi:nodetypes="cccc" />
    <path
       style="fill:#4d4d4d;stroke:none;stroke-width:1.91895354px;stroke-linecap:butt;stroke-linejoin:miter;stroke-opacity:1"
       d="m 16.195076,1015.5382 h 95.610674 l -3.54112,74.6859 -92.069554,-1.2877 z"
       id="path19317"
       inkscape:connector-curvature="0"
       sodipodi:nodetypes="ccccc" />
    <path
       style="fill:#37abc8;stroke:none;stroke-width:1.91895354px;stroke-linecap:butt;stroke-linejoin:miter;stroke-opacity:1"
       d="m 23.07039,1023.807 81.65309,-1.1866 -1.60962,54.0831 -77.58304,-1.2877 z"
       id="path19319"
       inkscape:connector-curvature="0"
       sodipodi:nodetypes="ccccc" />
    <path
       style="fill:#808080;fill-opacity:1;stroke:none;stroke-width:1.91895354px;stroke-linecap:butt;stroke-linejoin:miter;stroke-opacity:1"
       d="m 16.195076,1088.9364 3.394119,-69.0873 -3.394119,-4.3109 z"
       id="path19323"
       inkscape:connector-curvature="0"
       sodipodi:nodetypes="cccc" />
    <path
       style="fill:#666666;fill-opacity:1;stroke:none;stroke-width:1.91895354px;stroke-linecap:butt;stroke-linejoin:miter;stroke-opacity:1"
       d="m 19.589195,1019.8491 92.216555,-4.3109 H 16.195076 Z"
       id="path19325"
       inkscape:connector-curvature="0"
       sodipodi:nodetypes="cccc" />
    <path
       style="fill:#252525;fill-opacity:1;stroke:none;stroke-width:1.91895354px;stroke-linecap:butt;stroke-linejoin:miter;stroke-opacity:1"
       d="m 16.195076,1088.9364 92.069554,1.2877 -2.81683,-6.6799 z"
       id="path19327"
       inkscape:connector-curvature="0"
       sodipodi:nodetypes="cccc" />
    <path
       style="fill:#333333;stroke:none;stroke-width:1.91895354px;stroke-linecap:butt;stroke-linejoin:miter;stroke-opacity:1"
       d="m 105.4478,1083.5442 6.35795,-68.006 -3.54112,74.6859 z"
       id="path19329"
       inkscape:connector-curvature="0"
       sodipodi:nodetypes="cccc" />
    <path
       style="fill:#2c879e;fill-opacity:1;stroke:none;stroke-width:1.91895354px;stroke-linecap:butt;stroke-linejoin:miter;stroke-opacity:1"
       d="m 104.72348,1022.6204 -77.963842,5.9926 -3.689248,-4.806 z"
       id="path19331"
       inkscape:connector-curvature="0"
       sodipodi:nodetypes="cccc" />
    <path
       style="fill:#287b90;fill-opacity:1;stroke:none;stroke-width:1.91895354px;stroke-linecap:butt;stroke-linejoin:miter;stroke-opacity:1"
       d="m 26.759638,1028.613 -1.228818,46.8028 -2.46043,-51.6088 z"
       id="path19333"
       inkscape:connector-curvature="0"
       sodipodi:nodetypes="cccc" />
    <path
       style="fill:#6bc0d6;fill-opacity:1;stroke:none;stroke-width:1.91895354px;stroke-linecap:butt;stroke-linejoin:miter;stroke-opacity:1"
       d="m 25.53082,1075.4158 73.444627,-3.0548 4.138413,4.3425 z"
       id="path19335"
       inkscape:connector-curvature="0"
       sodipodi:nodetypes="cccc" />
    <path
       style="fill:#59b9d1;fill-opacity:1;stroke:none;stroke-width:1.91895354px;stroke-linecap:butt;stroke-linejoin:miter;stroke-opacity:1"
       d="m 98.975447,1072.361 5.748033,-49.7406 -1.60962,54.0831 z"
       id="path19337"
       inkscape:connector-curvature="0"
       sodipodi:nodetypes="cccc" />
    <path
       style="fill:#262626;fill-opacity:1;stroke:none;stroke-width:1.72277641px;stroke-linecap:butt;stroke-linejoin:miter;stroke-opacity:1"
       d="m 72.538184,1112.3223 11.503543,-7.335 10.40662,1.7099 z"
       id="path19343"
       inkscape:connector-curvature="0"
       sodipodi:nodetypes="cccc" />
    <path
       style="fill:#2b2b2b;fill-opacity:1;stroke:none;stroke-width:1.72277641px;stroke-linecap:butt;stroke-linejoin:miter;stroke-opacity:1"
       d="m 84.041727,1104.9873 -1.45242,-4.1507 11.85904,5.8606 z"
       id="path19345"
       inkscape:connector-curvature="0"
       sodipodi:nodetypes="cccc" />
    <path
       style="fill:#505050;fill-opacity:1;stroke:none;stroke-width:1.72277641px;stroke-linecap:butt;stroke-linejoin:miter;stroke-opacity:1"
       d="m 55.180291,1099.5135 -0.16393,1.9106 -11.1975,-0.95 z"
       id="path19349"
       inkscape:connector-curvature="0"
       sodipodi:nodetypes="cccc" />
    <path
       style="fill:#444444;fill-opacity:1;stroke:none;stroke-width:1.72277641px;stroke-linecap:butt;stroke-linejoin:miter;stroke-opacity:1"
       d="m 46.382614,1106.5662 -12.297621,0.8028 9.733904,-6.8949 z"
       id="path19351"
       inkscape:connector-curvature="0"
       sodipodi:nodetypes="cccc" />
    <path
       style="fill:#444444;fill-opacity:1;stroke:none;stroke-width:1.72277641px;stroke-linecap:butt;stroke-linejoin:miter;stroke-opacity:1"
       d="m 34.084993,1107.369 12.297621,-0.8028 7.129369,5.3047 z"
       id="path19353"
       inkscape:connector-curvature="0"
       sodipodi:nodetypes="cccc" />
    <path
       sodipodi:type="inkscape:offset"
       inkscape:radius="1.1846501"
       inkscape:original="M 138.62109 1073.5117 C 137.63294 1073.5117 136.72116 1073.69 135.88672 1074.0469 C 135.05228 1074.4037 134.38201 1074.9162 133.87695 1075.5859 C 133.3719 1076.2557 133.11914 1077.057 133.11914 1077.9902 L 136.77539 1077.9902 C 136.77539 1077.5126 136.9762 1077.1424 137.37695 1076.8789 C 137.78319 1076.6099 138.24141 1076.4746 138.75195 1076.4746 C 139.44366 1076.4746 139.95809 1076.6595 140.29297 1077.0273 C 140.62784 1077.3952 140.79492 1077.8262 140.79492 1078.3203 C 140.79492 1078.9626 140.61 1079.5022 140.24219 1079.9414 C 139.87986 1080.3751 139.32901 1080.5937 138.58789 1080.5938 L 136.77539 1080.5938 L 136.77539 1083.7559 L 138.58789 1083.7559 C 139.36195 1083.7559 139.96475 1083.9028 140.39844 1084.1992 C 140.83762 1084.4902 141.05859 1085.0566 141.05859 1085.8965 C 141.05859 1086.4564 140.85546 1086.9259 140.44922 1087.3047 C 140.04298 1087.6835 139.4766 1087.873 138.75195 1087.873 C 138.14259 1087.873 137.62119 1087.697 137.1875 1087.3457 C 136.7593 1086.9944 136.54492 1086.5544 136.54492 1086.0273 L 132.88867 1086.0273 C 132.88867 1086.8673 133.05575 1087.5918 133.39062 1088.2012 C 133.7255 1088.805 134.17014 1089.3016 134.72461 1089.6914 C 135.28456 1090.0812 135.90289 1090.37 136.57812 1090.5566 C 137.25885 1090.7433 137.94036 1090.8359 138.62109 1090.8359 C 139.77394 1090.8359 140.8055 1090.6483 141.7168 1090.2695 C 142.63359 1089.8852 143.3558 1089.3301 143.88281 1088.6055 C 144.41532 1087.8753 144.68164 1086.993 144.68164 1085.9609 C 144.68164 1084.9893 144.42656 1084.1787 143.91602 1083.5254 C 143.40547 1082.8666 142.6879 1082.3859 141.76562 1082.084 C 142.59458 1081.6942 143.24236 1081.1503 143.70898 1080.4531 C 144.1811 1079.7504 144.41797 1079.0057 144.41797 1078.2207 C 144.41797 1076.6891 143.883 1075.5222 142.8125 1074.7207 C 141.74749 1073.9137 140.35037 1073.5117 138.62109 1073.5117 z M 118.29688 1073.7422 L 111.57812 1084.7754 L 111.57812 1087.3125 L 118.69336 1087.3125 L 118.69336 1090.6055 L 122.08594 1090.6055 L 122.08594 1087.3125 L 124.58789 1087.3125 L 124.58789 1084.1504 L 122.08594 1084.1504 L 122.08594 1073.7422 L 118.29688 1073.7422 z M 128.49609 1076.0469 C 127.93614 1076.0469 127.45544 1076.2477 127.05469 1076.6484 C 126.65394 1077.0492 126.45312 1077.5299 126.45312 1078.0898 C 126.45313 1078.6663 126.65394 1079.1582 127.05469 1079.5645 C 127.45544 1079.9652 127.93614 1080.1641 128.49609 1080.1641 C 129.05605 1080.1641 129.53675 1079.9652 129.9375 1079.5645 C 130.33825 1079.1582 130.53906 1078.6663 130.53906 1078.0898 C 130.53906 1077.5299 130.33825 1077.0492 129.9375 1076.6484 C 129.53675 1076.2477 129.05605 1076.0469 128.49609 1076.0469 z M 118.69336 1078.4355 L 118.69336 1084.1504 L 115.36523 1084.1504 L 118.29688 1079.1113 L 118.69336 1078.4355 z M 128.49609 1084.3477 C 127.93614 1084.3477 127.45544 1084.5485 127.05469 1084.9492 C 126.65394 1085.35 126.45312 1085.8307 126.45312 1086.3906 C 126.45313 1086.967 126.65394 1087.457 127.05469 1087.8633 C 127.45544 1088.264 127.93614 1088.4648 128.49609 1088.4648 C 129.05605 1088.4648 129.53675 1088.264 129.9375 1087.8633 C 130.33825 1087.457 130.53906 1086.967 130.53906 1086.3906 C 130.53906 1085.8307 130.33825 1085.35 129.9375 1084.9492 C 129.53675 1084.5485 129.05605 1084.3477 128.49609 1084.3477 z "
       style="font-style:normal;font-weight:normal;font-size:23.18872452px;line-height:1.25;font-family:sans-serif;letter-spacing:0px;word-spacing:0px;fill:#000000;fill-opacity:1;stroke:none;stroke-width:0.57971811"
       id="text19429-0"
       d="m 138.62109,1072.3262 c -1.13065,0 -2.21101,0.2073 -3.20117,0.6308 -1,0.4279 -1.85509,1.0764 -2.48828,1.916 -0.6641,0.8808 -0.99805,1.9701 -0.99805,3.1172 a 1.1847685,1.1847685 0 0 0 1.18555,1.1856 h 3.65625 a 1.1847685,1.1847685 0 0 0 1.18555,-1.1856 c 0,-0.1455 -0.0605,-0.038 0.0664,-0.1211 a 1.1847685,1.1847685 0 0 0 0.004,-0 c 0.21679,-0.1436 0.41946,-0.207 0.7207,-0.207 0.47927,0 0.60255,0.097 0.66407,0.164 0.15688,0.1724 0.19336,0.2691 0.19336,0.4961 0,0.4149 -0.0887,0.6385 -0.2754,0.8613 -0.10914,0.1307 -0.23784,0.2265 -0.74609,0.2266 h -1.8125 a 1.1847685,1.1847685 0 0 0 -1.18555,1.1856 v 3.1621 a 1.1847685,1.1847685 0 0 0 0.71485,1.0859 h -3.41602 a 1.1847685,1.1847685 0 0 0 -1.18555,1.1855 c 0,0.9971 0.20282,1.9332 0.64844,2.7442 a 1.1847685,1.1847685 0 0 0 0.004,0 c 0.41698,0.7518 0.98953,1.3941 1.6875,1.8848 a 1.1847685,1.1847685 0 0 0 0.004,0 c 0.67038,0.4666 1.4161,0.8144 2.21484,1.0351 a 1.1847685,1.1847685 0 0 0 0.004,0 c 0.77888,0.2136 1.56731,0.3223 2.35547,0.3223 1.28137,0 2.47491,-0.211 3.55079,-0.6582 a 1.1847685,1.1847685 0 0 0 0.002,-0 c 1.08682,-0.4555 2.00553,-1.151 2.66601,-2.0586 0.6894,-0.9453 1.02735,-2.1059 1.02735,-3.3418 0,-1.178 -0.33133,-2.2853 -1.01563,-3.1621 l -0.002,-0 c -0.28755,-0.3706 -0.64698,-0.6721 -1.02734,-0.9512 0.27089,-0.2658 0.65749,-0.4165 0.86914,-0.7324 0.58589,-0.8721 0.91211,-1.8693 0.91211,-2.8926 0,-1.8049 -0.71941,-3.4245 -2.07618,-4.4434 -1.31156,-0.9938 -2.99337,-1.4511 -4.90625,-1.4511 z m -20.32421,0.2304 a 1.1847685,1.1847685 0 0 0 -1.01172,0.5704 l -6.71875,11.0332 a 1.1847685,1.1847685 0 0 0 -0.17383,0.6152 v 2.5371 a 1.1847685,1.1847685 0 0 0 1.18554,1.1855 h 5.92969 v 2.1075 a 1.1847685,1.1847685 0 0 0 1.18555,1.1855 h 3.39258 a 1.1847685,1.1847685 0 0 0 1.18554,-1.1855 v -2.1075 h 1.31641 a 1.1847685,1.1847685 0 0 0 1.1582,-0.9394 c 0.16098,0.3879 0.17083,0.8386 0.46485,1.1367 a 1.1847685,1.1847685 0 0 0 0.006,0.01 c 0.59576,0.5957 1.43613,0.9492 2.27929,0.9492 0.84317,0 1.68353,-0.3535 2.2793,-0.9492 a 1.1847685,1.1847685 0 0 0 0.006,-0.01 c 0.5962,-0.6044 0.94336,-1.4531 0.94336,-2.3047 0,-0.8431 -0.35351,-1.6835 -0.94922,-2.2793 -0.59577,-0.5957 -1.43613,-0.9492 -2.2793,-0.9492 -0.84316,0 -1.68353,0.3535 -2.27929,0.9492 -0.27821,0.2783 -0.28231,0.7042 -0.44336,1.0645 v -1.0254 a 1.1847685,1.1847685 0 0 0 -1.18555,-1.1856 h -1.31641 v -9.2226 a 1.1847685,1.1847685 0 0 0 -1.18554,-1.1856 z m 10.19921,2.3047 c -0.84316,0 -1.68353,0.3536 -2.27929,0.9492 -0.59571,0.5958 -0.94922,1.4362 -0.94922,2.2793 1e-5,0.8516 0.34586,1.7009 0.94336,2.3067 a 1.1847685,1.1847685 0 0 0 0.006,0.01 c 0.59709,0.5971 1.43881,0.9473 2.27929,0.9473 0.84049,0 1.68221,-0.3502 2.2793,-0.9473 a 1.1847685,1.1847685 0 0 0 0.006,-0.01 c 0.5975,-0.6058 0.94336,-1.4551 0.94336,-2.3067 0,-0.8431 -0.35351,-1.6835 -0.94922,-2.2793 -0.59577,-0.5956 -1.43613,-0.9492 -2.2793,-0.9492 z m -10.98828,7.961 v 0.1425 h -0.082 z m 19.50781,2.1191 h 1.57227 c 0.62418,0 0.98054,0.1256 1.14258,0.2363 a 1.1847685,1.1847685 0 0 0 0.0137,0.01 c 0.002,0 0.12891,0.077 0.12891,0.709 0,0.2734 -0.0392,0.3608 -0.23243,0.541 -0.14869,0.1387 -0.37055,0.25 -0.88867,0.25 -0.37934,0 -0.59245,-0.081 -0.81445,-0.2598 -0.19965,-0.1641 -0.20703,-0.1957 -0.20703,-0.4004 a 1.1847685,1.1847685 0 0 0 -0.71485,-1.0859 z"
       transform="matrix(1.8255018,0,0,1.8255018,-170.47642,-925.4798)" />
    <path
       style="font-style:normal;font-weight:normal;font-size:42.3310585px;line-height:1.25;font-family:sans-serif;letter-spacing:0px;word-spacing:0px;fill:#ffffff;fill-opacity:1;stroke:none;stroke-width:1.05827641"
       d="M 82.380859 39.535156 C 80.576979 39.535156 78.911949 39.860318 77.388672 40.511719 C 75.865395 41.16312 74.642686 42.101589 73.720703 43.324219 C 72.79872 44.546849 72.337891 46.009226 72.337891 47.712891 L 79.011719 47.712891 C 79.011719 46.841015 79.377801 46.164629 80.109375 45.683594 C 80.85097 45.192537 81.689089 44.947266 82.621094 44.947266 C 83.88381 44.947266 84.820326 45.283634 85.431641 45.955078 C 86.042956 46.626522 86.347656 47.412513 86.347656 48.314453 C 86.347656 49.486975 86.013241 50.473666 85.341797 51.275391 C 84.680374 52.067094 83.673223 52.462891 82.320312 52.462891 L 79.011719 52.462891 L 79.011719 58.236328 L 82.320312 58.236328 C 83.733352 58.236328 84.83525 58.505711 85.626953 59.046875 C 86.428678 59.578018 86.830078 60.611233 86.830078 62.144531 C 86.830078 63.16673 86.458392 64.023356 85.716797 64.714844 C 84.975202 65.406331 83.943939 65.751953 82.621094 65.751953 C 81.508701 65.751953 80.555375 65.430442 79.763672 64.789062 C 78.98199 64.147683 78.591797 63.346835 78.591797 62.384766 L 71.917969 62.384766 C 71.917969 63.918064 72.222669 65.241123 72.833984 66.353516 C 73.445299 67.455887 74.257354 68.362688 75.269531 69.074219 C 76.29173 69.785749 77.419692 70.311611 78.652344 70.652344 C 79.895017 70.993077 81.138186 71.164062 82.380859 71.164062 C 84.485386 71.164062 86.367671 70.818441 88.03125 70.126953 C 89.70485 69.425444 91.024259 68.412689 91.986328 67.089844 C 92.958419 65.756977 93.443359 64.147725 93.443359 62.263672 C 93.443359 60.489856 92.976927 59.007018 92.044922 57.814453 C 91.112917 56.611866 89.806669 55.734779 88.123047 55.183594 C 89.636302 54.472063 90.818089 53.479769 91.669922 52.207031 C 92.531776 50.924272 92.962891 49.567848 92.962891 48.134766 C 92.962891 45.338751 91.985454 43.209241 90.03125 41.746094 C 88.087068 40.272925 85.53765 39.535156 82.380859 39.535156 z M 45.279297 39.957031 L 33.013672 60.099609 L 33.013672 64.730469 L 46.001953 64.730469 L 46.001953 70.742188 L 52.195312 70.742188 L 52.195312 64.730469 L 56.765625 64.730469 L 56.765625 58.957031 L 52.195312 58.957031 L 52.195312 39.957031 L 45.279297 39.957031 z M 63.898438 44.166016 C 62.876239 44.166016 61.999152 44.532098 61.267578 45.263672 C 60.536004 45.995246 60.169922 46.870379 60.169922 47.892578 C 60.169922 48.944842 60.536004 49.842389 61.267578 50.583984 C 61.999152 51.315558 62.876239 51.681641 63.898438 51.681641 C 64.920636 51.681641 65.79577 51.315558 66.527344 50.583984 C 67.258917 49.842389 67.625 48.944842 67.625 47.892578 C 67.625 46.870379 67.258917 45.995246 66.527344 45.263672 C 65.79577 44.532098 64.920636 44.166016 63.898438 44.166016 z M 46.001953 48.525391 L 46.001953 58.957031 L 39.927734 58.957031 L 45.279297 49.757812 L 46.001953 48.525391 z M 63.898438 59.318359 C 62.876239 59.318359 61.999152 59.684442 61.267578 60.416016 C 60.536004 61.147589 60.169922 62.024676 60.169922 63.046875 C 60.169922 64.099139 60.536004 64.994733 61.267578 65.736328 C 61.999152 66.467902 62.876239 66.833984 63.898438 66.833984 C 64.920636 66.833984 65.79577 66.467902 66.527344 65.736328 C 67.258917 64.994733 67.625 64.099139 67.625 63.046875 C 67.625 62.024676 67.258917 61.147589 66.527344 60.416016 C 65.79577 59.684442 64.920636 59.318359 63.898438 59.318359 z "
       transform="translate(0,994.51965)"
       id="text19429" />
  </g>
</svg>
