<?xml version="1.0" encoding="UTF-8" standalone="no"?>
<!-- Created with Inkscape (http://www.inkscape.org/) -->

<svg
   xmlns:dc="http://purl.org/dc/elements/1.1/"
   xmlns:cc="http://creativecommons.org/ns#"
   xmlns:rdf="http://www.w3.org/1999/02/22-rdf-syntax-ns#"
   xmlns:svg="http://www.w3.org/2000/svg"
   xmlns="http://www.w3.org/2000/svg"
   xmlns:sodipodi="http://sodipodi.sourceforge.net/DTD/sodipodi-0.dtd"
   xmlns:inkscape="http://www.inkscape.org/namespaces/inkscape"
   width="128"
   height="128"
   viewBox="0 0 128 128.00001"
   version="1.1"
   id="svg6294"
   inkscape:version="0.92.3 (2405546, 2018-03-11)"
   sodipodi:docname="screen54.svg">
  <defs
     id="defs6288" />
  <sodipodi:namedview
     id="base"
     pagecolor="#ffffff"
     bordercolor="#666666"
     borderopacity="1.0"
     inkscape:pageopacity="0.0"
     inkscape:pageshadow="2"
     inkscape:zoom="7.7074639"
     inkscape:cx="32.338022"
     inkscape:cy="64.718332"
     inkscape:document-units="px"
     inkscape:current-layer="layer1"
     showgrid="false"
     units="px"
     inkscape:window-width="1366"
     inkscape:window-height="713"
     inkscape:window-x="0"
     inkscape:window-y="27"
     inkscape:window-maximized="1" />
  <metadata
     id="metadata6291">
    <rdf:RDF>
      <cc:Work
         rdf:about="">
        <dc:format>image/svg+xml</dc:format>
        <dc:type
           rdf:resource="http://purl.org/dc/dcmitype/StillImage" />
        <dc:title />
      </cc:Work>
    </rdf:RDF>
  </metadata>
  <g
     inkscape:label="Layer 1"
     inkscape:groupmode="layer"
     id="layer1"
     transform="translate(0,-994.51965)">
    <path
       transform="matrix(1.8239571,0,0,1.8239571,-164.13091,-924.07882)"
       sodipodi:type="inkscape:offset"
       inkscape:radius="3.4184396"
       inkscape:original="M 98.886719 1058.0059 L 98.886719 1103.5488 L 120.79297 1103.8965 L 120.24414 1109.4355 L 114.01953 1109.9629 L 108.6875 1113.7383 L 119.33008 1116.2051 L 129.75195 1116.4531 L 141.75391 1113.3711 L 135.25781 1110.1602 L 127.93164 1110.1719 L 127.55078 1104.002 L 149.32227 1104.3477 L 151.26172 1058.0059 L 98.886719 1058.0059 z "
       style="fill:#000000;fill-opacity:1;stroke:none;stroke-width:1.16400194px;stroke-linecap:butt;stroke-linejoin:miter;stroke-opacity:1"
       id="path19321-8-7"
       d="m 98.886719,1054.5879 a 3.4187815,3.4187815 0 0 0 -3.417969,3.418 v 45.5429 a 3.4187815,3.4187815 0 0 0 3.363281,3.418 l 13.208989,0.209 -5.32813,3.7734 a 3.4187815,3.4187815 0 0 0 1.20313,6.1192 l 10.64257,2.4668 a 3.4187815,3.4187815 0 0 0 0.68946,0.088 l 10.42187,0.2481 a 3.4187815,3.4187815 0 0 0 0.93164,-0.1074 l 12.00196,-3.0821 a 3.4187815,3.4187815 0 0 0 0.66601,-6.375 l -5.50976,-2.7246 11.50781,0.1836 a 3.4187815,3.4187815 0 0 0 3.4707,-3.2754 l 1.93945,-46.3418 a 3.4187815,3.4187815 0 0 0 -3.41601,-3.5605 z" />
    <path
       style="fill:#333333;stroke:none;stroke-width:2.12308955px;stroke-linecap:butt;stroke-linejoin:miter;stroke-opacity:1"
       d="m 56.851658,1082.6739 -1.66396,16.8099 -11.35178,0.9598 -9.725667,6.8889 19.410551,4.4982 19.010102,0.4511 21.891626,-5.6203 -11.849009,-5.8557 -13.36096,0.022 -1.083978,-17.5758 z"
       id="path19321-8"
       inkscape:connector-curvature="0"
       sodipodi:nodetypes="ccccccccccc" />
    <path
       style="fill:#444444;fill-opacity:1;stroke:none;stroke-width:1.72131872px;stroke-linecap:butt;stroke-linejoin:miter;stroke-opacity:1"
       d="m 54.660192,1105.1664 6.356089,-18.5608 -4.164623,-3.9317 z"
       id="path19347-4"
       inkscape:connector-curvature="0"
       sodipodi:nodetypes="cccc" />
    <path
       style="fill:#4d4d4d;stroke:none;stroke-width:2.0405879px;stroke-linecap:butt;stroke-linejoin:miter;stroke-opacity:1"
       d="m 16.235471,1005.677 h 95.529769 l -3.53813,84.5253 -91.991639,-1.4574 z"
       id="path19317-8"
       inkscape:connector-curvature="0"
       sodipodi:nodetypes="ccccc" />
    <path
       style="fill:#37abc8;stroke:none;stroke-width:2.0405879px;stroke-linecap:butt;stroke-linejoin:miter;stroke-opacity:1"
       d="m 23.104968,1015.035 81.583992,-1.3428 -1.60825,61.2082 -77.517395,-1.4574 z"
       id="path19319-8"
       inkscape:connector-curvature="0"
       sodipodi:nodetypes="ccccc" />
    <path
       style="fill:#808080;fill-opacity:1;stroke:none;stroke-width:2.0405879px;stroke-linecap:butt;stroke-linejoin:miter;stroke-opacity:1"
       d="m 16.235471,1088.7449 3.391247,-78.1892 -3.391247,-4.8787 z"
       id="path19323-3"
       inkscape:connector-curvature="0"
       sodipodi:nodetypes="cccc" />
    <path
       style="fill:#666666;fill-opacity:1;stroke:none;stroke-width:2.0405879px;stroke-linecap:butt;stroke-linejoin:miter;stroke-opacity:1"
       d="m 19.626718,1010.5557 92.138522,-4.8787 H 16.235471 Z"
       id="path19325-8"
       inkscape:connector-curvature="0"
       sodipodi:nodetypes="cccc" />
    <path
       style="fill:#252525;fill-opacity:1;stroke:none;stroke-width:2.0405879px;stroke-linecap:butt;stroke-linejoin:miter;stroke-opacity:1"
       d="m 16.235471,1088.7449 91.991639,1.4574 -2.81444,-7.56 z"
       id="path19327-7"
       inkscape:connector-curvature="0"
       sodipodi:nodetypes="cccc" />
    <path
       style="fill:#333333;stroke:none;stroke-width:2.0405879px;stroke-linecap:butt;stroke-linejoin:miter;stroke-opacity:1"
       d="m 105.41267,1082.6423 6.35257,-76.9653 -3.53813,84.5253 z"
       id="path19329-52"
       inkscape:connector-curvature="0"
       sodipodi:nodetypes="cccc" />
    <path
       style="fill:#2c879e;fill-opacity:1;stroke:none;stroke-width:2.0405879px;stroke-linecap:butt;stroke-linejoin:miter;stroke-opacity:1"
       d="m 104.68896,1013.6922 -77.897866,6.782 -3.686126,-5.4392 z"
       id="path19331-4"
       inkscape:connector-curvature="0"
       sodipodi:nodetypes="cccc" />
    <path
       style="fill:#287b90;fill-opacity:1;stroke:none;stroke-width:2.0405879px;stroke-linecap:butt;stroke-linejoin:miter;stroke-opacity:1"
       d="m 26.791094,1020.4742 -1.227779,52.9688 -2.458347,-58.408 z"
       id="path19333-5"
       inkscape:connector-curvature="0"
       sodipodi:nodetypes="cccc" />
    <path
       style="fill:#6bc0d6;fill-opacity:1;stroke:none;stroke-width:2.0405879px;stroke-linecap:butt;stroke-linejoin:miter;stroke-opacity:1"
       d="m 25.563315,1073.443 73.382482,-3.4573 4.134913,4.9147 z"
       id="path19335-0"
       inkscape:connector-curvature="0"
       sodipodi:nodetypes="cccc" />
    <path
       style="fill:#59b9d1;fill-opacity:1;stroke:none;stroke-width:2.0405879px;stroke-linecap:butt;stroke-linejoin:miter;stroke-opacity:1"
       d="m 98.945797,1069.9857 5.743163,-56.2935 -1.60825,61.2082 z"
       id="path19337-5"
       inkscape:connector-curvature="0"
       sodipodi:nodetypes="cccc" />
    <path
       style="fill:#262626;fill-opacity:1;stroke:none;stroke-width:1.72131872px;stroke-linecap:butt;stroke-linejoin:miter;stroke-opacity:1"
       d="m 72.530904,1112.2818 11.493812,-7.3288 10.397814,1.7085 z"
       id="path19343-7"
       inkscape:connector-curvature="0"
       sodipodi:nodetypes="cccc" />
    <path
       style="fill:#2b2b2b;fill-opacity:1;stroke:none;stroke-width:1.72131872px;stroke-linecap:butt;stroke-linejoin:miter;stroke-opacity:1"
       d="m 84.024716,1104.953 -1.451195,-4.1472 11.849009,5.8557 z"
       id="path19345-3"
       inkscape:connector-curvature="0"
       sodipodi:nodetypes="cccc" />
    <path
       style="fill:#505050;fill-opacity:1;stroke:none;stroke-width:1.72131872px;stroke-linecap:butt;stroke-linejoin:miter;stroke-opacity:1"
       d="m 55.187698,1099.4838 -0.163791,1.909 -11.188025,-0.9492 z"
       id="path19349-2"
       inkscape:connector-curvature="0"
       sodipodi:nodetypes="cccc" />
    <path
       style="fill:#444444;fill-opacity:1;stroke:none;stroke-width:1.72131872px;stroke-linecap:butt;stroke-linejoin:miter;stroke-opacity:1"
       d="m 46.397465,1106.5305 -12.287214,0.802 9.725667,-6.8889 z"
       id="path19351-72"
       inkscape:connector-curvature="0"
       sodipodi:nodetypes="cccc" />
    <path
       style="fill:#444444;fill-opacity:1;stroke:none;stroke-width:1.72131872px;stroke-linecap:butt;stroke-linejoin:miter;stroke-opacity:1"
       d="m 34.110251,1107.3325 12.287214,-0.802 7.123337,5.3002 z"
       id="path19353-1"
       inkscape:connector-curvature="0"
       sodipodi:nodetypes="cccc" />
    <path
       transform="matrix(1.8239571,0,0,1.8239571,-164.13091,-924.07882)"
       sodipodi:type="inkscape:offset"
       inkscape:radius="1.1060096"
       inkscape:original="M 110.17773 1070.8398 L 109.18945 1079.4355 L 112.08789 1080.1602 C 112.25258 1079.9625 112.49409 1079.7706 112.8125 1079.584 C 113.13091 1079.3973 113.56895 1079.3047 114.12891 1079.3047 C 114.98531 1079.3047 115.61255 1079.5598 116.00781 1080.0703 C 116.40307 1080.5754 116.59961 1081.2638 116.59961 1082.1367 C 116.59961 1082.6088 116.53642 1083.0624 116.41016 1083.4961 C 116.28389 1083.9298 116.06951 1084.2841 115.76758 1084.5586 C 115.46564 1084.8331 115.05241 1084.9707 114.52539 1084.9707 C 114.02033 1084.9707 113.62531 1084.8466 113.33984 1084.5996 C 113.05438 1084.3526 112.84892 1084.0389 112.72266 1083.6602 C 112.59639 1083.2814 112.51536 1082.8953 112.48242 1082.5 L 108.82617 1082.5 C 108.82617 1083.5101 109.05412 1084.4265 109.50977 1085.25 C 109.96542 1086.068 110.62211 1086.7204 111.47852 1087.209 C 112.33492 1087.6921 113.36183 1087.9336 114.55859 1087.9336 C 115.85418 1087.9336 116.91946 1087.6603 117.75391 1087.1113 C 118.59384 1086.5624 119.21253 1085.8491 119.61328 1084.9707 C 120.01952 1084.0923 120.22266 1083.1581 120.22266 1082.1699 C 120.22266 1081.083 120.01023 1080.1282 119.58203 1079.3047 C 119.15383 1078.4757 118.56924 1077.8303 117.82812 1077.3691 C 117.08701 1076.9025 116.24966 1076.6699 115.31641 1076.6699 C 114.64117 1076.6699 114.09068 1076.7761 113.66797 1076.9902 C 113.24526 1077.1988 112.96072 1077.4109 112.8125 1077.625 L 112.74609 1077.625 L 113.14258 1074.002 L 119.69727 1074.002 L 119.69727 1070.8398 L 110.17773 1070.8398 z M 135.63477 1070.8398 L 128.91602 1081.873 L 128.91602 1084.4102 L 136.0293 1084.4102 L 136.0293 1087.7031 L 139.42188 1087.7031 L 139.42188 1084.4102 L 141.92578 1084.4102 L 141.92578 1081.248 L 139.42188 1081.248 L 139.42188 1070.8398 L 135.63477 1070.8398 z M 124.81836 1073.1445 C 124.2584 1073.1445 123.77771 1073.3453 123.37695 1073.7461 C 122.9762 1074.1468 122.77539 1074.6275 122.77539 1075.1875 C 122.77539 1075.7639 122.9762 1076.2559 123.37695 1076.6621 C 123.77771 1077.0629 124.2584 1077.2617 124.81836 1077.2617 C 125.37831 1077.2617 125.85901 1077.0629 126.25977 1076.6621 C 126.66052 1076.2559 126.86133 1075.7639 126.86133 1075.1875 C 126.86133 1074.6275 126.66052 1074.1468 126.25977 1073.7461 C 125.85901 1073.3453 125.37831 1073.1445 124.81836 1073.1445 z M 136.0293 1075.5332 L 136.0293 1081.248 L 132.70312 1081.248 L 135.63477 1076.209 L 136.0293 1075.5332 z M 124.81836 1081.4453 C 124.2584 1081.4453 123.77771 1081.6461 123.37695 1082.0469 C 122.9762 1082.4476 122.77539 1082.9283 122.77539 1083.4883 C 122.77539 1084.0647 122.9762 1084.5547 123.37695 1084.9609 C 123.77771 1085.3617 124.2584 1085.5625 124.81836 1085.5625 C 125.37831 1085.5625 125.85901 1085.3617 126.25977 1084.9609 C 126.66052 1084.5547 126.86133 1084.0647 126.86133 1083.4883 C 126.86133 1082.9283 126.66052 1082.4476 126.25977 1082.0469 C 125.85901 1081.6461 125.37831 1081.4453 124.81836 1081.4453 z "
       style="font-style:normal;font-weight:normal;font-size:23.18872452px;line-height:1.25;font-family:sans-serif;letter-spacing:0px;word-spacing:0px;fill:#000000;fill-opacity:1;stroke:none;stroke-width:0.57971811"
       id="text19429-49-8"
       d="m 110.17773,1069.7344 a 1.1061202,1.1061202 0 0 0 -1.09961,0.9785 l -0.98828,8.5957 a 1.1061202,1.1061202 0 0 0 0.83204,1.1992 l 2.89843,0.7246 a 1.1061202,1.1061202 0 0 0 1.11719,-0.3652 c 0.0496,-0.06 0.19009,-0.1854 0.43359,-0.3281 0.0743,-0.044 0.31979,-0.1289 0.75782,-0.1289 0.63676,0 0.84621,0.1342 1.0039,0.3378 a 1.1061202,1.1061202 0 0 0 0.004,0 c 0.20435,0.2611 0.35742,0.6778 0.35742,1.3847 0,0.3734 -0.0504,0.7207 -0.14648,1.0508 -0.0775,0.2663 -0.17998,0.4216 -0.32422,0.5527 -0.0664,0.06 -0.16354,0.125 -0.49805,0.125 -0.32389,0 -0.41863,-0.065 -0.46094,-0.1015 -0.13363,-0.1157 -0.22261,-0.2421 -0.29297,-0.4532 -0.0999,-0.2995 -0.16207,-0.5972 -0.1875,-0.9023 a 1.1061202,1.1061202 0 0 0 -1.10156,-1.0137 h -3.65625 a 1.1061202,1.1061202 0 0 0 -1.10547,1.1055 c 0,1.1765 0.27399,2.2942 0.82227,3.2852 a 1.1061202,1.1061202 0 0 0 0,0 c 0.55383,0.9942 1.37361,1.8028 2.38672,2.3808 a 1.1061202,1.1061202 0 0 0 0.006,0 c 1.04855,0.5915 2.27749,0.8672 3.62304,0.8672 1.45016,0 2.74644,-0.309 3.80079,-1.002 l 0.002,-0 c 0.99745,-0.6525 1.77283,-1.5412 2.25781,-2.6036 0.47149,-1.0209 0.70898,-2.1233 0.70898,-3.2617 0,-1.231 -0.24506,-2.3739 -0.76562,-3.375 -0.50842,-0.9833 -1.23831,-1.794 -2.14844,-2.3613 -0.918,-0.5771 -1.98194,-0.8691 -3.09765,-0.8691 -0.46395,0 -0.84713,0.1594 -1.25977,0.2578 l 0.0781,-0.7149 h 5.5625 a 1.1061202,1.1061202 0 0 0 1.10546,-1.1054 v -3.1622 a 1.1061202,1.1061202 0 0 0 -1.10546,-1.1054 z m 25.45704,0 a 1.1061202,1.1061202 0 0 0 -0.94532,0.5293 l -6.71875,11.0332 a 1.1061202,1.1061202 0 0 0 -0.16015,0.5761 v 1.2403 c -0.0937,-0.6777 -0.28501,-1.3632 -0.76953,-1.8477 -0.58284,-0.5829 -1.3983,-0.9258 -2.22266,-0.9258 -0.82437,0 -1.63983,0.3429 -2.22266,0.9258 -0.58287,0.5828 -0.92578,1.3983 -0.92578,2.2227 0,0.8333 0.33659,1.6587 0.91992,2.25 a 1.1061202,1.1061202 0 0 0 0.006,0 c 0.58283,0.5829 1.39829,0.9258 2.22266,0.9258 0.82436,0 1.63982,-0.3429 2.22266,-0.9258 a 1.1061202,1.1061202 0 0 0 0.006,-0 c 0.4841,-0.4907 0.67072,-1.1835 0.76367,-1.8672 v 0.5391 a 1.1061202,1.1061202 0 0 0 1.10547,1.1054 h 6.00781 v 2.1875 a 1.1061202,1.1061202 0 0 0 1.10547,1.1055 h 3.39258 a 1.1061202,1.1061202 0 0 0 1.10546,-1.1055 v -2.1875 h 1.39844 a 1.1061202,1.1061202 0 0 0 1.10547,-1.1054 v -3.1622 a 1.1061202,1.1061202 0 0 0 -1.10547,-1.1054 h -1.39844 v -9.3028 a 1.1061202,1.1061202 0 0 0 -1.10546,-1.1054 z m -10.81641,2.3047 c -0.82437,0 -1.63983,0.3429 -2.22266,0.9257 -0.58287,0.5828 -0.92578,1.3983 -0.92578,2.2227 0,0.8333 0.33532,1.6594 0.91992,2.252 a 1.1061202,1.1061202 0 0 0 0.006,0 c 0.58413,0.5841 1.40093,0.9238 2.22266,0.9238 0.82173,0 1.63852,-0.3396 2.22266,-0.9238 a 1.1061202,1.1061202 0 0 0 0.006,-0 c 0.5846,-0.5926 0.91992,-1.4187 0.91992,-2.252 0,-0.8244 -0.34291,-1.6399 -0.92578,-2.2227 -0.58284,-0.5828 -1.3983,-0.9257 -2.22266,-0.9257 z m -11.64063,3.9589 c -0.003,0 -0.003,0 -0.006,0.01 -0.001,6e-4 -0.003,-6e-4 -0.004,0 z m 21.7461,3.6309 v 0.5137 H 134.625 Z" />
    <path
       style="font-style:normal;font-weight:normal;font-size:42.29523849px;line-height:1.25;font-family:sans-serif;letter-spacing:0px;word-spacing:0px;fill:#ffffff;fill-opacity:1;stroke:none;stroke-width:1.05738103"
       d="M 37.017578 34.296875 L 35.214844 49.976562 L 40.501953 51.298828 C 40.802345 50.938357 41.24346 50.588492 41.824219 50.248047 C 42.404977 49.907602 43.205229 49.736328 44.226562 49.736328 C 45.788603 49.736328 46.931402 50.203549 47.652344 51.134766 C 48.373285 52.055969 48.732422 53.312218 48.732422 54.904297 C 48.732422 55.765422 48.61702 56.591779 48.386719 57.382812 C 48.156418 58.173846 47.767516 58.819659 47.216797 59.320312 C 46.666078 59.820966 45.908521 60.070312 44.947266 60.070312 C 44.026063 60.070312 43.305836 59.84512 42.785156 59.394531 C 42.264476 58.943943 41.888504 58.372543 41.658203 57.681641 C 41.427902 56.990738 41.282735 56.285395 41.222656 55.564453 L 34.554688 55.564453 C 34.554688 57.406859 34.969696 59.08007 35.800781 60.582031 C 36.631867 62.07398 37.828585 63.265086 39.390625 64.15625 C 40.952665 65.037401 42.824962 65.478516 45.007812 65.478516 C 47.370899 65.478516 49.31395 64.97787 50.835938 63.976562 C 52.367938 62.975255 53.499514 61.672405 54.230469 60.070312 C 54.971436 58.46822 55.341797 56.767198 55.341797 54.964844 C 55.341797 52.982254 54.950942 51.23829 54.169922 49.736328 C 53.388902 48.224353 52.322469 47.04813 50.970703 46.207031 C 49.618938 45.35592 48.092848 44.931641 46.390625 44.931641 C 45.159016 44.931641 44.157726 45.127068 43.386719 45.517578 C 42.615712 45.898075 42.094572 46.283318 41.824219 46.673828 L 41.703125 46.673828 L 42.423828 40.064453 L 54.380859 40.064453 L 54.380859 34.296875 L 37.017578 34.296875 z M 83.451172 34.296875 L 71.195312 54.423828 L 71.195312 59.048828 L 84.171875 59.048828 L 84.171875 65.056641 L 90.359375 65.056641 L 90.359375 59.048828 L 94.925781 59.048828 L 94.925781 53.28125 L 90.359375 53.28125 L 90.359375 34.296875 L 83.451172 34.296875 z M 63.722656 38.501953 C 62.701322 38.501953 61.824705 38.868655 61.09375 39.599609 C 60.362795 40.330564 59.998047 41.205229 59.998047 42.226562 C 59.998047 43.277936 60.362795 44.175048 61.09375 44.916016 C 61.824705 45.64697 62.701322 46.011719 63.722656 46.011719 C 64.74399 46.011719 65.620608 45.64697 66.351562 44.916016 C 67.082517 44.175048 67.447266 43.277936 67.447266 42.226562 C 67.447266 41.205229 67.082517 40.330564 66.351562 39.599609 C 65.620608 38.868655 64.74399 38.501953 63.722656 38.501953 z M 84.171875 42.857422 L 84.171875 53.28125 L 78.103516 53.28125 L 83.451172 44.089844 L 84.171875 42.857422 z M 63.722656 53.642578 C 62.701322 53.642578 61.824705 54.007327 61.09375 54.738281 C 60.362795 55.469236 59.998047 56.345854 59.998047 57.367188 C 59.998047 58.418561 60.362795 59.31372 61.09375 60.054688 C 61.824705 60.785642 62.701322 61.152344 63.722656 61.152344 C 64.74399 61.152344 65.620608 60.785642 66.351562 60.054688 C 67.082517 59.31372 67.447266 58.418561 67.447266 57.367188 C 67.447266 56.345854 67.082517 55.469236 66.351562 54.738281 C 65.620608 54.007327 64.74399 53.642578 63.722656 53.642578 z "
       transform="translate(0,994.51965)"
       id="text19429-49" />
  </g>
</svg>
