<?xml version="1.0" encoding="UTF-8" standalone="no"?>
<!-- Created with Inkscape (http://www.inkscape.org/) -->

<svg
   xmlns:dc="http://purl.org/dc/elements/1.1/"
   xmlns:cc="http://creativecommons.org/ns#"
   xmlns:rdf="http://www.w3.org/1999/02/22-rdf-syntax-ns#"
   xmlns:svg="http://www.w3.org/2000/svg"
   xmlns="http://www.w3.org/2000/svg"
   xmlns:sodipodi="http://sodipodi.sourceforge.net/DTD/sodipodi-0.dtd"
   xmlns:inkscape="http://www.inkscape.org/namespaces/inkscape"
   width="128"
   height="128"
   viewBox="0 0 128 128.00001"
   version="1.1"
   id="svg6294"
   inkscape:version="0.92.3 (2405546, 2018-03-11)"
   sodipodi:docname="soccer_ball_red.svg">
  <defs
     id="defs6288" />
  <sodipodi:namedview
     id="base"
     pagecolor="#ffffff"
     bordercolor="#666666"
     borderopacity="1.0"
     inkscape:pageopacity="0.0"
     inkscape:pageshadow="2"
     inkscape:zoom="2.1832557"
     inkscape:cx="15.209465"
     inkscape:cy="55.898017"
     inkscape:document-units="px"
     inkscape:current-layer="layer1"
     showgrid="false"
     units="px"
     inkscape:window-width="1366"
     inkscape:window-height="713"
     inkscape:window-x="0"
     inkscape:window-y="27"
     inkscape:window-maximized="1" />
  <metadata
     id="metadata6291">
    <rdf:RDF>
      <cc:Work
         rdf:about="">
        <dc:format>image/svg+xml</dc:format>
        <dc:type
           rdf:resource="http://purl.org/dc/dcmitype/StillImage" />
        <dc:title></dc:title>
      </cc:Work>
    </rdf:RDF>
  </metadata>
  <g
     inkscape:label="Layer 1"
     inkscape:groupmode="layer"
     id="layer1"
     transform="translate(0,-994.51965)">
    <path
       sodipodi:type="inkscape:offset"
       inkscape:radius="3.2009137"
       inkscape:original="M 2694.1855 1067.3516 L 2681.3887 1081.2852 L 2680.8184 1098.6328 L 2690.2031 1110.8594 L 2711.248 1112.2812 L 2722.0547 1102.0449 L 2724.0449 1081.8535 L 2715.5137 1067.6348 L 2694.1855 1067.3516 z "
       style="fill:#000000;fill-opacity:1;stroke:none;stroke-width:1px;stroke-linecap:butt;stroke-linejoin:miter;stroke-opacity:1"
       id="path8452-7-0"
       d="m 2694.2285,1064.1504 a 3.2012338,3.2012338 0 0 0 -2.4004,1.0351 l -12.7969,13.9336 a 3.2012338,3.2012338 0 0 0 -0.8417,2.0606 l -0.5704,17.3476 a 3.2012338,3.2012338 0 0 0 0.6602,2.0547 l 9.3848,12.2266 a 3.2012338,3.2012338 0 0 0 2.3242,1.2441 l 21.0449,1.4219 a 3.2012338,3.2012338 0 0 0 2.416,-0.8691 l 10.8067,-10.2364 a 3.2012338,3.2012338 0 0 0 0.9843,-2.0097 l 1.9903,-20.1914 a 3.2012338,3.2012338 0 0 0 -0.4414,-1.961 l -8.5313,-14.2187 a 3.2012338,3.2012338 0 0 0 -2.7012,-1.5547 z"
       transform="matrix(2.1039613,0,0,2.1039613,-5621.6033,-1234.411)" />
    <path
       style="fill:#c83737;stroke:none;stroke-width:2.10396123px;stroke-linecap:butt;stroke-linejoin:miter;stroke-opacity:1"
       d="m 19.933498,1040.5707 26.924266,-29.3173 44.873884,0.5984 17.949462,29.9159 -4.18811,42.4804 -22.736162,21.5395 -44.275632,-2.9915 -19.74455,-25.7276 z"
       id="path8452-5"
       inkscape:connector-curvature="0"
       sodipodi:nodetypes="ccccccccc" />
    <path
       style="fill:#333333;stroke:none;stroke-width:2.10396123px;stroke-linecap:butt;stroke-linejoin:miter;stroke-opacity:1"
       d="m 34.068813,1026.2862 -5.534475,19.0712 16.521289,5.4989 12.692399,-15.2307 -5.817259,-13.9613 z"
       id="path8488-1"
       inkscape:connector-curvature="0" />
    <path
       style="fill:#333333;stroke:none;stroke-width:2.10396123px;stroke-linecap:butt;stroke-linejoin:miter;stroke-opacity:1"
       d="m 79.430658,1040.3851 12.16304,-10.471 13.644342,12.4805 -2.64412,19.1443 -17.557712,-1.9039 z"
       id="path8490-1"
       inkscape:connector-curvature="0" />
    <path
       style="fill:#333333;stroke:none;stroke-width:2.10396123px;stroke-linecap:butt;stroke-linejoin:miter;stroke-opacity:1"
       d="m 39.661454,1086.9234 10.682742,-15.5481 20.518982,5.8174 4.75954,17.1345 -20.942062,6.1346 z"
       id="path8492-0"
       inkscape:connector-curvature="0" />
    <path
       style="fill:#333333;stroke:none;stroke-width:2.10396123px;stroke-linecap:butt;stroke-linejoin:miter;stroke-opacity:1"
       d="m 91.721428,1097.2948 -0.66313,-3.4735 14.961542,-14.9183 -0.52684,5.3451 z"
       id="path8494-3"
       inkscape:connector-curvature="0"
       sodipodi:nodetypes="ccccc" />
    <path
       style="fill:#333333;stroke:none;stroke-width:2.10396123px;stroke-linecap:butt;stroke-linejoin:miter;stroke-opacity:1"
       d="m 19.10191,1065.9272 6.703828,14.4385 -3.105086,1.8679 -3.963996,-5.1651 z"
       id="path8496-0"
       inkscape:connector-curvature="0"
       sodipodi:nodetypes="ccccc" />
    <path
       style="fill:#333333;stroke:none;stroke-width:2.10396123px;stroke-linecap:butt;stroke-linejoin:miter;stroke-opacity:1"
       d="m 74.100848,1011.6168 8.58123,3.4883 5.20057,-3.3047 z"
       id="path8498-0"
       inkscape:connector-curvature="0"
       sodipodi:nodetypes="cccc" />
    <path
       style="opacity:0.2;fill:#f7f7f7;fill-opacity:1;stroke:none;stroke-width:2.10396123px;stroke-linecap:butt;stroke-linejoin:miter;stroke-opacity:1"
       d="m 18.736656,1077.0685 1.196842,-36.4978 26.924266,-29.3173 4.651594,7.8829 -27.199003,25.1952 z"
       id="path8545-4"
       inkscape:connector-curvature="0"
       sodipodi:nodetypes="cccccc" />
    <path
       style="opacity:0.4;fill:#f7f7f7;fill-opacity:1;stroke:none;stroke-width:2.10396123px;stroke-linecap:butt;stroke-linejoin:miter;stroke-opacity:1"
       d="m 51.509358,1019.1363 40.22229,-7.2845 -44.873884,-0.5984 z"
       id="path8547-5"
       inkscape:connector-curvature="0"
       sodipodi:nodetypes="cccc" />
    <path
       style="opacity:0.2;fill:#000000;stroke:none;stroke-width:2.10396123px;stroke-linecap:butt;stroke-linejoin:miter;stroke-opacity:1"
       d="m 109.68111,1041.7677 -4.18811,42.4804 -22.736162,21.5395 -4.40032,-9.2021 22.478512,-15.4995 z"
       id="path8549-4"
       inkscape:connector-curvature="0"
       sodipodi:nodetypes="cccccc" />
    <path
       style="opacity:0.4;fill:#000000;stroke:none;stroke-width:2.10396123px;stroke-linecap:butt;stroke-linejoin:miter;stroke-opacity:1"
       d="m 78.356518,1096.5855 -39.875312,6.2106 44.275632,2.9915 z"
       id="path8551-2"
       inkscape:connector-curvature="0"
       sodipodi:nodetypes="cccc" />
  </g>
</svg>
