<?xml version="1.0" encoding="UTF-8" standalone="no"?>
<!-- Created with Inkscape (http://www.inkscape.org/) -->

<svg
   xmlns:dc="http://purl.org/dc/elements/1.1/"
   xmlns:cc="http://creativecommons.org/ns#"
   xmlns:rdf="http://www.w3.org/1999/02/22-rdf-syntax-ns#"
   xmlns:svg="http://www.w3.org/2000/svg"
   xmlns="http://www.w3.org/2000/svg"
   xmlns:sodipodi="http://sodipodi.sourceforge.net/DTD/sodipodi-0.dtd"
   xmlns:inkscape="http://www.inkscape.org/namespaces/inkscape"
   width="128"
   height="128"
   viewBox="0 0 128 128.00001"
   version="1.1"
   id="svg6294"
   inkscape:version="0.92.3 (2405546, 2018-03-11)"
   sodipodi:docname="soccer_ball_blue.svg">
  <defs
     id="defs6288" />
  <sodipodi:namedview
     id="base"
     pagecolor="#ffffff"
     bordercolor="#666666"
     borderopacity="1.0"
     inkscape:pageopacity="0.0"
     inkscape:pageshadow="2"
     inkscape:zoom="2.1832557"
     inkscape:cx="15.209465"
     inkscape:cy="55.898017"
     inkscape:document-units="px"
     inkscape:current-layer="layer1"
     showgrid="false"
     units="px"
     inkscape:window-width="1366"
     inkscape:window-height="713"
     inkscape:window-x="0"
     inkscape:window-y="27"
     inkscape:window-maximized="1" />
  <metadata
     id="metadata6291">
    <rdf:RDF>
      <cc:Work
         rdf:about="">
        <dc:format>image/svg+xml</dc:format>
        <dc:type
           rdf:resource="http://purl.org/dc/dcmitype/StillImage" />
        <dc:title></dc:title>
      </cc:Work>
    </rdf:RDF>
  </metadata>
  <g
     inkscape:label="Layer 1"
     inkscape:groupmode="layer"
     id="layer1"
     transform="translate(0,-994.51965)">
    <path
       sodipodi:type="inkscape:offset"
       inkscape:radius="3.2009137"
       inkscape:original="M 2694.1855 1067.3516 L 2681.3887 1081.2852 L 2680.8184 1098.6328 L 2690.2031 1110.8594 L 2711.248 1112.2812 L 2722.0547 1102.0449 L 2724.0449 1081.8535 L 2715.5137 1067.6348 L 2694.1855 1067.3516 z "
       style="fill:#000000;fill-opacity:1;stroke:none;stroke-width:1px;stroke-linecap:butt;stroke-linejoin:miter;stroke-opacity:1"
       id="path8452-7-4"
       d="m 2694.2285,1064.1504 a 3.2012338,3.2012338 0 0 0 -2.4004,1.0351 l -12.7969,13.9336 a 3.2012338,3.2012338 0 0 0 -0.8417,2.0606 l -0.5704,17.3476 a 3.2012338,3.2012338 0 0 0 0.6602,2.0547 l 9.3848,12.2266 a 3.2012338,3.2012338 0 0 0 2.3242,1.2441 l 21.0449,1.4219 a 3.2012338,3.2012338 0 0 0 2.416,-0.8691 l 10.8067,-10.2364 a 3.2012338,3.2012338 0 0 0 0.9843,-2.0097 l 1.9903,-20.1914 a 3.2012338,3.2012338 0 0 0 -0.4414,-1.961 l -8.5313,-14.2187 a 3.2012338,3.2012338 0 0 0 -2.7012,-1.5547 z"
       transform="matrix(2.1039613,0,0,2.1039613,-5621.6033,-1234.411)" />
    <path
       style="fill:#37abc8;stroke:none;stroke-width:2.10396123px;stroke-linecap:butt;stroke-linejoin:miter;stroke-opacity:1"
       d="m 19.933394,1040.5706 26.924266,-29.3172 44.873888,0.5985 17.949452,29.9157 -4.18811,42.4803 -22.736154,21.5395 -44.275634,-2.9914 -19.74455,-25.7276 z"
       id="path8452-9"
       inkscape:connector-curvature="0"
       sodipodi:nodetypes="ccccccccc" />
    <path
       style="fill:#333333;stroke:none;stroke-width:2.10396123px;stroke-linecap:butt;stroke-linejoin:miter;stroke-opacity:1"
       d="m 34.068709,1026.2861 -5.534475,19.0712 16.521289,5.4989 12.692399,-15.2307 -5.817259,-13.9614 z"
       id="path8488-9"
       inkscape:connector-curvature="0" />
    <path
       style="fill:#333333;stroke:none;stroke-width:2.10396123px;stroke-linecap:butt;stroke-linejoin:miter;stroke-opacity:1"
       d="m 79.430553,1040.385 12.163035,-10.471 13.644352,12.4805 -2.64412,19.1443 -17.557719,-1.9039 z"
       id="path8490-9"
       inkscape:connector-curvature="0" />
    <path
       style="fill:#333333;stroke:none;stroke-width:2.10396123px;stroke-linecap:butt;stroke-linejoin:miter;stroke-opacity:1"
       d="m 39.66135,1086.9232 10.682743,-15.548 20.518978,5.8174 4.759545,17.1345 -20.942064,6.1345 z"
       id="path8492-4"
       inkscape:connector-curvature="0" />
    <path
       style="fill:#333333;stroke:none;stroke-width:2.10396123px;stroke-linecap:butt;stroke-linejoin:miter;stroke-opacity:1"
       d="m 91.721318,1097.2947 -0.66312,-3.4735 14.961542,-14.9183 -0.52685,5.345 z"
       id="path8494-9"
       inkscape:connector-curvature="0"
       sodipodi:nodetypes="ccccc" />
    <path
       style="fill:#333333;stroke:none;stroke-width:2.10396123px;stroke-linecap:butt;stroke-linejoin:miter;stroke-opacity:1"
       d="m 19.101807,1065.927 6.703827,14.4386 -3.105086,1.8678 -3.963996,-5.165 z"
       id="path8496-8"
       inkscape:connector-curvature="0"
       sodipodi:nodetypes="ccccc" />
    <path
       style="fill:#333333;stroke:none;stroke-width:2.10396123px;stroke-linecap:butt;stroke-linejoin:miter;stroke-opacity:1"
       d="m 74.100748,1011.6169 8.581228,3.4881 5.200566,-3.3046 z"
       id="path8498-1"
       inkscape:connector-curvature="0"
       sodipodi:nodetypes="cccc" />
    <path
       style="opacity:0.2;fill:#f7f7f7;fill-opacity:1;stroke:none;stroke-width:2.10396123px;stroke-linecap:butt;stroke-linejoin:miter;stroke-opacity:1"
       d="m 18.736552,1077.0684 1.196842,-36.4978 26.924266,-29.3172 4.651594,7.8828 -27.199003,25.1952 z"
       id="path8545-6"
       inkscape:connector-curvature="0"
       sodipodi:nodetypes="cccccc" />
    <path
       style="opacity:0.4;fill:#f7f7f7;fill-opacity:1;stroke:none;stroke-width:2.10396123px;stroke-linecap:butt;stroke-linejoin:miter;stroke-opacity:1"
       d="m 51.509254,1019.1362 40.222294,-7.2843 -44.873888,-0.5985 z"
       id="path8547-3"
       inkscape:connector-curvature="0"
       sodipodi:nodetypes="cccc" />
    <path
       style="opacity:0.2;fill:#000000;stroke:none;stroke-width:2.10396123px;stroke-linecap:butt;stroke-linejoin:miter;stroke-opacity:1"
       d="m 109.681,1041.7676 -4.18811,42.4803 -22.736154,21.5395 -4.400324,-9.2021 22.478518,-15.4994 z"
       id="path8549-9"
       inkscape:connector-curvature="0"
       sodipodi:nodetypes="cccccc" />
    <path
       style="opacity:0.4;fill:#000000;stroke:none;stroke-width:2.10396123px;stroke-linecap:butt;stroke-linejoin:miter;stroke-opacity:1"
       d="m 78.356412,1096.5853 -39.87531,6.2107 44.275634,2.9914 z"
       id="path8551-3"
       inkscape:connector-curvature="0"
       sodipodi:nodetypes="cccc" />
  </g>
</svg>
