<?xml version="1.0" encoding="UTF-8" standalone="no"?>
<!-- Created with Inkscape (http://www.inkscape.org/) -->

<svg
   xmlns:dc="http://purl.org/dc/elements/1.1/"
   xmlns:cc="http://creativecommons.org/ns#"
   xmlns:rdf="http://www.w3.org/1999/02/22-rdf-syntax-ns#"
   xmlns:svg="http://www.w3.org/2000/svg"
   xmlns="http://www.w3.org/2000/svg"
   xmlns:sodipodi="http://sodipodi.sourceforge.net/DTD/sodipodi-0.dtd"
   xmlns:inkscape="http://www.inkscape.org/namespaces/inkscape"
   width="128"
   height="128"
   viewBox="0 0 128 128.00001"
   version="1.1"
   id="svg6294"
   inkscape:version="0.92.3 (2405546, 2018-03-11)"
   sodipodi:docname="speed.svg">
  <defs
     id="defs6288" />
  <sodipodi:namedview
     id="base"
     pagecolor="#ffffff"
     bordercolor="#666666"
     borderopacity="1.0"
     inkscape:pageopacity="0.0"
     inkscape:pageshadow="2"
     inkscape:zoom="2.1832557"
     inkscape:cx="15.209465"
     inkscape:cy="55.898017"
     inkscape:document-units="px"
     inkscape:current-layer="layer1"
     showgrid="false"
     units="px"
     inkscape:window-width="1366"
     inkscape:window-height="713"
     inkscape:window-x="0"
     inkscape:window-y="27"
     inkscape:window-maximized="1" />
  <metadata
     id="metadata6291">
    <rdf:RDF>
      <cc:Work
         rdf:about="">
        <dc:format>image/svg+xml</dc:format>
        <dc:type
           rdf:resource="http://purl.org/dc/dcmitype/StillImage" />
        <dc:title></dc:title>
      </cc:Work>
    </rdf:RDF>
  </metadata>
  <g
     inkscape:label="Layer 1"
     inkscape:groupmode="layer"
     id="layer1"
     transform="translate(0,-994.51965)">
    <path
       transform="matrix(1.5865681,0,0,1.5865681,-5831.5887,-662.41561)"
       sodipodi:type="inkscape:offset"
       inkscape:radius="3.4944303"
       inkscape:original="M 3715.5039 1057.7793 L 3708.127 1058.8555 L 3695.9434 1065.5684 L 3688.5684 1075.0996 L 3703.9844 1081.9785 L 3706.3867 1076.5918 L 3711.1934 1071.7031 L 3716.498 1068.8848 L 3715.5039 1057.7793 z M 3717.8242 1057.7793 L 3718.3223 1068.2207 L 3725.2012 1068.1387 L 3733.2402 1071.3711 L 3738.2129 1076.7578 L 3743.5996 1073.7734 L 3738.875 1067.4746 L 3728.0176 1060.0156 L 3717.8242 1057.7793 z M 3687.623 1077.168 L 3685.3965 1089.8262 L 3688.7949 1102.8379 L 3698.4062 1113.9727 L 3708.9551 1099.9062 L 3705.4395 1095.2188 L 3703.5645 1089.4746 L 3703.916 1083.8496 L 3687.623 1077.168 z M 3746.4785 1079.9844 L 3738.916 1080.0547 L 3720.7617 1084.7344 L 3720.207 1083.8008 L 3715.4023 1081.9727 L 3711.8965 1084.0098 L 3710.5996 1088.0332 L 3712.6328 1092.0625 L 3716.3418 1093.252 L 3720.5508 1091.7207 L 3721.9707 1087.9746 L 3721.7285 1087.3086 L 3740.4316 1083.293 L 3746.4785 1079.9844 z "
       style="fill:#000000;stroke:none;stroke-width:0.82431644px;stroke-linecap:butt;stroke-linejoin:miter;stroke-opacity:1"
       id="path9742-2"
       d="m 3715.4395,1054.2852 a 3.4947797,3.4947797 0 0 0 -0.4395,0.037 l -7.377,1.0761 a 3.4947797,3.4947797 0 0 0 -1.1816,0.3965 l -12.1836,6.7129 a 3.4947797,3.4947797 0 0 0 -1.0781,0.9219 l -7.375,9.5312 a 3.4947797,3.4947797 0 0 0 -0.709,1.7969 3.4947797,3.4947797 0 0 0 -0.9141,1.8047 l -2.2265,12.6582 a 3.4947797,3.4947797 0 0 0 0.061,1.4883 l 3.3985,13.0117 a 3.4947797,3.4947797 0 0 0 0.7363,1.4004 l 9.6113,11.1348 a 3.4947797,3.4947797 0 0 0 5.4395,-0.1875 l 10.5488,-14.0664 a 3.4947797,3.4947797 0 0 0 0,-4.1934 l -3.168,-4.2246 -1.4882,-4.5586 0.037,-0.5957 a 3.4947797,3.4947797 0 0 0 0.3496,1.1777 l 2.0332,4.0293 a 3.4947797,3.4947797 0 0 0 2.0527,1.7539 l 3.709,1.1895 a 3.4947797,3.4947797 0 0 0 2.2617,-0.045 l 4.209,-1.5313 a 3.4947797,3.4947797 0 0 0 2.0723,-2.0449 l 1.0429,-2.75 16.3047,-3.5 a 3.4947797,3.4947797 0 0 0 0.9434,-0.3496 l 6.0468,-3.3086 a 3.4947797,3.4947797 0 0 0 -1.7109,-6.5606 l -0.6621,0.01 a 3.4947797,3.4947797 0 0 0 0.6113,-4.8203 l -4.7246,-6.2988 a 3.4947797,3.4947797 0 0 0 -0.8164,-0.7832 l -10.8574,-7.459 a 3.4947797,3.4947797 0 0 0 -1.2305,-0.5332 l -10.1933,-2.2364 a 3.4947797,3.4947797 0 0 0 -1.9063,0.1231 3.4947797,3.4947797 0 0 0 -1.2265,-0.2031 z m 9.1054,17.3554 6.6621,2.6797 3.0664,3.3223 -11.8457,3.0547 0.7832,1.3183 a 3.4947797,3.4947797 0 0 0 -1.7617,-1.4804 l -4.8047,-1.8282 a 3.4947797,3.4947797 0 0 0 -2.998,0.2442 l -3.5059,2.0371 a 3.4947797,3.4947797 0 0 0 -1.5703,1.9492 l -1.2969,4.0234 a 3.4947797,3.4947797 0 0 0 -0.066,0.2481 l 0.1973,-3.1406 a 3.4947797,3.4947797 0 0 0 -0.082,-0.9922 l 1.998,-4.4844 3.9883,-4.0547 4.8281,-2.5664 a 3.4947797,3.4947797 0 0 0 0.4063,-0.2578 z" />
    <path
       style="fill:#c83737;stroke:none;stroke-width:1.30783415px;stroke-linecap:butt;stroke-linejoin:miter;stroke-opacity:1"
       d="m 36.184904,1104.9767 16.73639,-22.3151 -5.57885,-7.4384 -2.975291,-9.112 0.557996,-8.9259 -25.848366,-10.5997 -3.533287,20.0836 5.392904,20.6414 z"
       id="path9742"
       inkscape:connector-curvature="0" />
    <path
       style="fill:#ff6600;stroke:none;stroke-width:1.30783415px;stroke-linecap:butt;stroke-linejoin:miter;stroke-opacity:1"
       d="m 20.575297,1043.3043 24.45758,10.914 3.813316,-8.5472 7.626633,-7.758 8.415475,-4.4708 -1.578001,-17.6199 -11.702843,1.7095 -19.329318,10.6508 z"
       id="path9744"
       inkscape:connector-curvature="0" />
    <path
       style="fill:#ffd42a;stroke:none;stroke-width:1.30783415px;stroke-linecap:butt;stroke-linejoin:miter;stroke-opacity:1"
       d="m 66.992249,1015.8224 0.789,16.568 10.913843,-0.1316 12.754737,5.1282 7.88953,8.547 8.547161,-4.7337 -7.49511,-9.9934 -17.225686,-11.8344 z"
       id="path9746"
       inkscape:connector-curvature="0" />
    <path
       style="fill:#cccccc;stroke:none;stroke-width:1.30783415px;stroke-linecap:butt;stroke-linejoin:miter;stroke-opacity:1"
       d="m 73.1851,1062.6736 29.67517,-6.3704 9.59414,-5.2508 -11.99811,0.1127 -28.802714,7.4235 -0.879911,-1.4797 -7.62346,-2.9016 -5.561714,3.2312 -2.05762,6.3842 3.22343,6.3936 5.886644,1.8864 6.676754,-2.4301 2.254355,-5.9433 z"
       id="path9748"
       inkscape:connector-curvature="0"
       sodipodi:nodetypes="cccccccccccccc" />
    <path
       style="fill:#ff9955;stroke:none;stroke-width:1.58656812px;stroke-linecap:butt;stroke-linejoin:miter;stroke-opacity:1"
       d="m 20.575297,1043.3043 13.666537,-10.4909 18.272822,-9.8132 -0.907199,-5.4683 -19.329318,10.6508 z"
       id="path9806"
       inkscape:connector-curvature="0"
       sodipodi:nodetypes="cccccc" />
    <path
       style="fill:#ff7f2a;stroke:none;stroke-width:1.58656812px;stroke-linecap:butt;stroke-linejoin:miter;stroke-opacity:1"
       d="m 52.514656,1023.0002 10.795644,-7.1778 -11.702843,1.7095 z"
       id="path9808"
       inkscape:connector-curvature="0"
       sodipodi:nodetypes="cccc" />
    <path
       style="fill:#ffe680;stroke:none;stroke-width:1.58656812px;stroke-linecap:butt;stroke-linejoin:miter;stroke-opacity:1"
       d="m 67.781249,1032.3904 2.893583,-12.21 -3.682583,-4.358 z"
       id="path9810"
       inkscape:connector-curvature="0"
       sodipodi:nodetypes="cccc" />
    <path
       style="fill:#ffdd55;stroke:none;stroke-width:1.58656812px;stroke-linecap:butt;stroke-linejoin:miter;stroke-opacity:1"
       d="m 70.674832,1020.1804 12.490892,-0.8079 -16.173475,-3.5501 z"
       id="path9814"
       inkscape:connector-curvature="0"
       sodipodi:nodetypes="cccc" />
    <path
       style="fill:#de8787;stroke:none;stroke-width:1.58656812px;stroke-linecap:butt;stroke-linejoin:miter;stroke-opacity:1"
       d="m 15.543496,1066.6692 8.038665,-12.5533 -4.505378,-7.5303 z"
       id="path9816"
       inkscape:connector-curvature="0"
       sodipodi:nodetypes="cccc" />
    <path
       style="fill:#d35f5f;stroke:none;stroke-width:1.58656812px;stroke-linecap:butt;stroke-linejoin:miter;stroke-opacity:1"
       d="m 23.582161,1054.1159 21.342988,3.0694 -25.848366,-10.5997 z"
       id="path9818"
       inkscape:connector-curvature="0"
       sodipodi:nodetypes="cccc" />
    <path
       style="fill:#d4aa00;stroke:none;stroke-width:1.58656812px;stroke-linecap:butt;stroke-linejoin:miter;stroke-opacity:1"
       d="m 99.339359,1045.934 3.656401,-7.1246 4.89076,2.3909 z"
       id="path9820"
       inkscape:connector-curvature="0"
       sodipodi:nodetypes="cccc" />
    <path
       style="fill:#aa8800;stroke:none;stroke-width:1.58656812px;stroke-linecap:butt;stroke-linejoin:miter;stroke-opacity:1"
       d="m 102.99576,1038.8094 -2.60435,-7.6025 7.49511,9.9934 z"
       id="path9822"
       inkscape:connector-curvature="0"
       sodipodi:nodetypes="cccc" />
    <path
       style="fill:#782121;stroke:none;stroke-width:1.58656812px;stroke-linecap:butt;stroke-linejoin:miter;stroke-opacity:1"
       d="m 20.9364,1087.3106 13.418239,7.6533 1.830265,10.0128 z"
       id="path9824"
       inkscape:connector-curvature="0"
       sodipodi:nodetypes="cccc" />
    <path
       style="fill:#a02c2c;stroke:none;stroke-width:1.58656812px;stroke-linecap:butt;stroke-linejoin:miter;stroke-opacity:1"
       d="m 34.354639,1094.9639 12.069024,-12.8587 -3.496638,-6.5422 1.440128,-9.4518 2.975291,9.112 5.57885,7.4384 -16.73639,22.3151 z"
       id="path9828"
       inkscape:connector-curvature="0"
       sodipodi:nodetypes="cccccccc" />
    <path
       style="fill:#d45500;stroke:none;stroke-width:1.58656812px;stroke-linecap:butt;stroke-linejoin:miter;stroke-opacity:1"
       d="m 45.032877,1054.2183 -0.864997,-9.3357 7.331531,-9.7004 4.973415,2.7309 -7.626633,7.758 z"
       id="path9830"
       inkscape:connector-curvature="0"
       sodipodi:nodetypes="cccccc" />
    <path
       style="fill:#aa4400;stroke:none;stroke-width:1.58656812px;stroke-linecap:butt;stroke-linejoin:miter;stroke-opacity:1"
       d="m 51.499411,1035.1822 8.798155,-3.9477 3.012734,-15.4121 1.578001,17.6199 -8.415475,4.4708 z"
       id="path9832"
       inkscape:connector-curvature="0"
       sodipodi:nodetypes="cccccc" />
    <path
       style="fill:#d4aa00;stroke:none;stroke-width:1.58656812px;stroke-linecap:butt;stroke-linejoin:miter;stroke-opacity:1"
       d="m 91.449829,1037.387 3.75795,-2.5996 4.13158,11.1466 z"
       id="path9834"
       inkscape:connector-curvature="0"
       sodipodi:nodetypes="cccc" />
    <path
       style="fill:#f9f9f9;stroke:none;stroke-width:1.58656812px;stroke-linecap:butt;stroke-linejoin:miter;stroke-opacity:1"
       d="m 58.754311,1070.2163 0.383474,-7.1337 1.63829,-3.01 -3.187574,-2.6341 -2.05762,6.3842 z"
       id="path9836"
       inkscape:connector-curvature="0"
       sodipodi:nodetypes="cccccc" />
    <path
       style="fill:#e6e6e6;stroke:none;stroke-width:1.58656812px;stroke-linecap:butt;stroke-linejoin:miter;stroke-opacity:1"
       d="m 60.776075,1060.0726 2.37414,-5.8653 -5.561714,3.2312 z"
       id="path9838"
       inkscape:connector-curvature="0"
       sodipodi:nodetypes="cccc" />
    <path
       style="fill:#b3b3b3;stroke:none;stroke-width:1.58656812px;stroke-linecap:butt;stroke-linejoin:miter;stroke-opacity:1"
       d="m 64.640955,1072.1027 6.676754,-2.4301 2.254355,-5.9433 -4.359096,-0.6933 -0.477398,4.7441 z"
       id="path9840"
       inkscape:connector-curvature="0"
       sodipodi:nodetypes="cccccc" />
    <path
       style="fill:#808080;stroke:none;stroke-width:1.58656812px;stroke-linecap:butt;stroke-linejoin:miter;stroke-opacity:1"
       d="m 69.212968,1063.036 2.423483,-2.9585 31.223819,-3.7743 -29.67517,6.3704 0.386964,1.0557 z"
       id="path9842"
       inkscape:connector-curvature="0"
       sodipodi:nodetypes="cccccc" />
    <path
       style="fill:#f9f9f9;stroke:none;stroke-width:1.58656812px;stroke-linecap:butt;stroke-linejoin:miter;stroke-opacity:1"
       d="m 71.653586,1058.5886 29.684214,-4.6548 -0.8815,-2.7687 z"
       id="path9844"
       inkscape:connector-curvature="0"
       sodipodi:nodetypes="cccc" />
    <path
       style="fill:#e6e6e6;stroke:none;stroke-width:1.58656812px;stroke-linecap:butt;stroke-linejoin:miter;stroke-opacity:1"
       d="m 101.3378,1053.9338 11.11661,-2.8814 -11.99811,0.1127 z"
       id="path9846"
       inkscape:connector-curvature="0"
       sodipodi:nodetypes="cccc" />
    <path
       style="fill:#aa8800;stroke:none;stroke-width:1.58656812px;stroke-linecap:butt;stroke-linejoin:miter;stroke-opacity:1"
       d="m 95.207779,1034.7874 -16.242494,-6.1475 -11.184036,3.7505 10.913843,-0.1316 12.754737,5.1282 z"
       id="path9848"
       inkscape:connector-curvature="0"
       sodipodi:nodetypes="cccccc" />
  </g>
</svg>
