<?xml version="1.0" encoding="UTF-8" standalone="no"?>
<!-- Created with Inkscape (http://www.inkscape.org/) -->

<svg
   xmlns:dc="http://purl.org/dc/elements/1.1/"
   xmlns:cc="http://creativecommons.org/ns#"
   xmlns:rdf="http://www.w3.org/1999/02/22-rdf-syntax-ns#"
   xmlns:svg="http://www.w3.org/2000/svg"
   xmlns="http://www.w3.org/2000/svg"
   xmlns:sodipodi="http://sodipodi.sourceforge.net/DTD/sodipodi-0.dtd"
   xmlns:inkscape="http://www.inkscape.org/namespaces/inkscape"
   width="128"
   height="128"
   viewBox="0 0 128 128.00001"
   version="1.1"
   id="svg6294"
   inkscape:version="0.92.3 (2405546, 2018-03-11)"
   sodipodi:docname="story_mode_book.svg">
  <defs
     id="defs6288" />
  <sodipodi:namedview
     id="base"
     pagecolor="#ffffff"
     bordercolor="#666666"
     borderopacity="1.0"
     inkscape:pageopacity="0.0"
     inkscape:pageshadow="2"
     inkscape:zoom="2.1832557"
     inkscape:cx="15.209465"
     inkscape:cy="55.898017"
     inkscape:document-units="px"
     inkscape:current-layer="layer1"
     showgrid="false"
     units="px"
     inkscape:window-width="1366"
     inkscape:window-height="713"
     inkscape:window-x="0"
     inkscape:window-y="27"
     inkscape:window-maximized="1" />
  <metadata
     id="metadata6291">
    <rdf:RDF>
      <cc:Work
         rdf:about="">
        <dc:format>image/svg+xml</dc:format>
        <dc:type
           rdf:resource="http://purl.org/dc/dcmitype/StillImage" />
        <dc:title></dc:title>
      </cc:Work>
    </rdf:RDF>
  </metadata>
  <g
     inkscape:label="Layer 1"
     inkscape:groupmode="layer"
     id="layer1"
     transform="translate(0,-994.51965)">
    <path
       sodipodi:type="inkscape:offset"
       inkscape:radius="4.3413186"
       inkscape:original="M 493.51172 883.60547 L 475.52148 884.06055 L 468.39062 890.56445 L 468.16992 890.57031 L 460.3125 884.74219 L 448.79883 884.87695 L 439.99805 891.39258 L 434.3457 891.55664 L 434.16016 931.83789 L 501.11719 931.38281 L 501.75 889.5918 L 497.96094 889.70312 L 497.96289 889.52148 L 493.51172 883.60547 z "
       style="fill:#000000;stroke:none;stroke-width:1.44468677px;stroke-linecap:butt;stroke-linejoin:miter;stroke-opacity:1"
       id="path1929-3"
       d="m 493.40234,879.26562 -17.99023,0.45508 a 4.3417527,4.3417527 0 0 0 -2.81641,1.13282 l -4.59179,4.18945 -5.10547,-3.78711 a 4.3417527,4.3417527 0 0 0 -2.63672,-0.85547 l -11.51367,0.13477 a 4.3417527,4.3417527 0 0 0 -2.53321,0.85351 l -7.70507,5.70313 -4.28907,0.125 a 4.3417527,4.3417527 0 0 0 -4.21679,4.32031 l -0.18555,40.28125 a 4.3417527,4.3417527 0 0 0 4.37109,4.36133 l 66.95703,-0.45508 a 4.3417527,4.3417527 0 0 0 4.3125,-4.27539 l 0.63282,-41.79102 a 4.3417527,4.3417527 0 0 0 -4.46875,-4.40625 l -1.41016,0.041 -3.23242,-4.29688 a 4.3417527,4.3417527 0 0 0 -3.57813,-1.73047 z"
       transform="matrix(1.4159479,0,0,1.4159479,-598.60034,-227.06216)" />
    <path
       style="fill:#d45500;stroke:none;stroke-width:2.04560113px;stroke-linecap:butt;stroke-linejoin:miter;stroke-opacity:1"
       d="m 16.245024,1035.2101 -0.262659,57.0346 94.805785,-0.6443 0.89658,-59.1723 z"
       id="path1929"
       inkscape:connector-curvature="0"
       sodipodi:nodetypes="ccccc" />
    <path
       style="fill:#ff7f2a;stroke:none;stroke-width:1.41594791px;stroke-linecap:butt;stroke-linejoin:miter;stroke-opacity:1"
       d="m 22.172465,1039.7732 89.512265,-7.3451 -95.439706,2.782 z"
       id="path1994"
       inkscape:connector-curvature="0"
       sodipodi:nodetypes="cccc" />
    <path
       style="fill:#ff9955;stroke:none;stroke-width:1.41594791px;stroke-linecap:butt;stroke-linejoin:miter;stroke-opacity:1"
       d="m 15.982365,1092.2447 6.1901,-52.4715 -5.927441,-4.5631 z"
       id="path1992"
       inkscape:connector-curvature="0" />
    <path
       style="fill:#aa4400;stroke:none;stroke-width:1.41594791px;stroke-linecap:butt;stroke-linejoin:miter;stroke-opacity:1"
       d="m 101.57713,1084.9957 10.1076,-52.5676 -0.89658,59.1723 z"
       id="path1990"
       inkscape:connector-curvature="0" />
    <path
       style="fill:#ececec;stroke:none;stroke-width:2.04560113px;stroke-linecap:butt;stroke-linejoin:miter;stroke-opacity:1"
       d="m 21.476526,1037.0257 15.23192,-11.2749 16.303366,-0.1886 11.292609,8.3754 10.24226,-9.342 25.474179,-0.6442 6.30281,8.3756 -0.61806,50.5332 -9.098881,-4.4155 -20.158006,0.2668 -10.072345,5.7399 -11.263583,-7.6693 -19.454841,-0.1331 -13.454621,6.1691 z"
       id="path1927"
       inkscape:connector-curvature="0"
       sodipodi:nodetypes="ccccccccccccccc" />
    <path
       style="fill:#803300;stroke:none;stroke-width:1.41594791px;stroke-linecap:butt;stroke-linejoin:miter;stroke-opacity:1"
       d="m 15.982365,1092.2447 94.805785,-0.6443 -9.21102,-6.6047 z"
       id="path1988"
       inkscape:connector-curvature="0"
       sodipodi:nodetypes="cccc" />
    <path
       style="fill:#999999;stroke:none;stroke-width:2.04560113px;stroke-linecap:butt;stroke-linejoin:miter;stroke-opacity:1"
       d="m 22.203333,1082.8178 0.344641,4.2727 h 83.513176 l -0.35554,-4.2303 -9.098881,-4.4155 -20.158006,0.2668 -10.072345,5.7399 -11.263583,-7.6693 -19.454841,-0.1331 z"
       id="path1931"
       inkscape:connector-curvature="0" />
    <path
       style="fill:#4d4d4d;stroke:none;stroke-width:1.41594791px;stroke-linecap:butt;stroke-linejoin:miter;stroke-opacity:1"
       d="m 59.149097,1037.3553 -8.254552,-4.4292 -16.509245,0.4025 -9.663844,5.436 0.08496,3.0017 9.751775,-4.9115 15.090464,-0.4983 9.46717,4.1286 z"
       id="path1957"
       inkscape:connector-curvature="0" />
    <path
       style="fill:#4d4d4d;stroke:none;stroke-width:1.41594791px;stroke-linecap:butt;stroke-linejoin:miter;stroke-opacity:1"
       d="m 59.39179,1047.544 -8.254552,-4.4292 -16.509244,0.4026 -9.663845,5.4359 0.08496,3.0018 9.751917,-4.9116 15.090323,-0.4983 9.467169,4.1286 z"
       id="path1957-5"
       inkscape:connector-curvature="0" />
    <path
       style="fill:#4d4d4d;stroke:none;stroke-width:1.41594791px;stroke-linecap:butt;stroke-linejoin:miter;stroke-opacity:1"
       d="m 59.81884,1058.9331 -8.254552,-4.4293 -16.509103,0.4026 -9.663986,5.436 0.08496,3.0018 9.751916,-4.9117 15.090465,-0.4982 9.467028,4.1286 z"
       id="path1957-3"
       inkscape:connector-curvature="0" />
    <path
       style="fill:#4d4d4d;stroke:none;stroke-width:1.41594791px;stroke-linecap:butt;stroke-linejoin:miter;stroke-opacity:1"
       d="m 59.961284,1069.468 -8.254551,-4.4292 -16.509245,0.4025 -9.663845,5.436 0.08496,3.0018 9.751775,-4.9116 15.090465,-0.4983 9.46717,4.1286 z"
       id="path1957-56"
       inkscape:connector-curvature="0" />
    <path
       style="fill:#b3b3b3;stroke:none;stroke-width:1.41594791px;stroke-linecap:butt;stroke-linejoin:miter;stroke-opacity:1"
       d="m 66.376378,1084.4514 8.114373,-9.3723 21.781388,-0.5693 0.33459,3.9349 -20.158006,0.2668 z"
       id="path1996"
       inkscape:connector-curvature="0" />
    <path
       style="fill:#cccccc;stroke:none;stroke-width:1.41594791px;stroke-linecap:butt;stroke-linejoin:miter;stroke-opacity:1"
       d="m 96.272139,1074.5098 6.833501,4.2708 3.21803,-46.4536 -0.61806,50.5332 -9.098881,-4.4155 z"
       id="path2000"
       inkscape:connector-curvature="0" />
    <path
       style="fill:#cccccc;stroke:none;stroke-width:1.41594791px;stroke-linecap:butt;stroke-linejoin:miter;stroke-opacity:1"
       d="m 66.376378,1084.4514 -2.071957,-50.5138 -1.7722,44.5584 -5.979265,-4.4134 -1.440161,2.6995 z"
       id="path2002"
       inkscape:connector-curvature="0" />
    <path
       style="fill:#b3b3b3;stroke:none;stroke-width:1.41594791px;stroke-linecap:butt;stroke-linejoin:miter;stroke-opacity:1"
       d="m 56.552956,1074.0826 -21.069588,-0.2846 -13.280035,9.0198 13.454621,-6.1691 19.454841,0.1331 z"
       id="path2004"
       inkscape:connector-curvature="0" />
    <path
       style="fill:#00ccff;fill-opacity:1;stroke:none;stroke-width:1.41594791px;stroke-linecap:butt;stroke-linejoin:miter;stroke-opacity:1"
       d="m 66.945447,1050.4504 11.95853,16.2293 14.378672,0.1425 10.534791,-16.3718 -5.409771,-7.4028 -22.493324,-0.5695 z"
       id="path2147"
       inkscape:connector-curvature="0"
       sodipodi:nodetypes="ccccccc" />
    <path
       style="fill:#333333;stroke:none;stroke-width:1.0426954px;stroke-linecap:butt;stroke-linejoin:miter;stroke-opacity:1"
       d="m 98.179139,1039.8472 -2.41122,-9.7496 -8.91099,-3.0402 -8.072316,2.6208 -3.459444,10.4835 -5.552215,8.9689 8.541706,15.2328 14.378669,0.1424 7.26055,-15.2329 v 0 z"
       id="path2008-9"
       inkscape:connector-curvature="0"
       sodipodi:nodetypes="ccccccccccc" />
    <path
       style="fill:#f2f2f2;stroke:none;stroke-width:1.31250346px;stroke-linecap:butt;stroke-linejoin:miter;stroke-opacity:1"
       d="m 79.205149,1038.8466 0.403545,-4.478 2.679257,-1.8983 2.878056,2.3701 0.03115,4.4463 -3.105174,2.3143 z"
       id="path4497-9-2"
       inkscape:connector-curvature="0"
       sodipodi:nodetypes="ccccccc" />
    <path
       style="fill:#cccccc;stroke:none;stroke-width:0.76570499px;stroke-linecap:butt;stroke-linejoin:miter;stroke-opacity:1"
       d="m 85.166007,1034.8404 -1.017784,3.912 -2.056239,2.8486 3.105174,-2.3143 z"
       id="path4507-4-1-2"
       inkscape:connector-curvature="0"
       sodipodi:nodetypes="ccccc" />
    <path
       style="fill:#ffffff;fill-opacity:1;stroke:none;stroke-width:0.76570499px;stroke-linecap:butt;stroke-linejoin:miter;stroke-opacity:1"
       d="m 82.287951,1032.4703 -1.873299,2.3558 -1.209503,4.0205 0.403545,-4.478 z"
       id="path4503-2-8"
       inkscape:connector-curvature="0"
       sodipodi:nodetypes="ccccc" />
    <path
       style="fill:#000000;fill-opacity:1;stroke:none;stroke-width:0.53010237px;stroke-linecap:butt;stroke-linejoin:miter;stroke-opacity:1"
       d="m 81.9123,1038.8596 -0.01982,-1.5924 0.965676,-0.9523 0.973181,0.7979 -0.05522,1.6791 -1.027411,0.9224 z"
       id="path4528-0-7-9"
       inkscape:connector-curvature="0"
       sodipodi:nodetypes="ccccccc" />
    <path
       style="fill:#f2f2f2;stroke:none;stroke-width:1.31250346px;stroke-linecap:butt;stroke-linejoin:miter;stroke-opacity:1"
       d="m 84.787241,1040.2053 0.239153,-8.1652 3.796295,-2.6116 4.43603,4.0996 -0.62755,7.3506 -3.92657,2.1962 z"
       id="path4499-0-7"
       inkscape:connector-curvature="0"
       sodipodi:nodetypes="ccccccc" />
    <path
       style="fill:#cccccc;stroke:none;stroke-width:0.76570499px;stroke-linecap:butt;stroke-linejoin:miter;stroke-opacity:1"
       d="m 93.258719,1033.5281 -2.49292,7.0979 -2.0612,2.4489 3.92657,-2.1962 z"
       id="path4507-9-3"
       inkscape:connector-curvature="0"
       sodipodi:nodetypes="ccccc" />
    <path
       style="fill:#ffffff;fill-opacity:1;stroke:none;stroke-width:0.76570499px;stroke-linecap:butt;stroke-linejoin:miter;stroke-opacity:1"
       d="m 88.822689,1029.4285 -2.659855,3.6601 -1.375593,7.1167 0.239153,-8.1652 z"
       id="path4505-3-6"
       inkscape:connector-curvature="0"
       sodipodi:nodetypes="ccccc" />
    <path
       style="fill:#000000;fill-opacity:1;stroke:none;stroke-width:0.76570499px;stroke-linecap:butt;stroke-linejoin:miter;stroke-opacity:1"
       d="m 85.859113,1039.1959 -0.0977,-2.2249 1.270956,-1.2667 1.75124,1.3854 -0.0949,1.3624 -1.13842,1.3549 z"
       id="path4528-6-1"
       inkscape:connector-curvature="0"
       sodipodi:nodetypes="ccccccc" />
    <path
       style="fill:#ffffff;stroke:none;stroke-width:1.0426954px;stroke-linecap:butt;stroke-linejoin:miter;stroke-opacity:1"
       d="m 77.336381,1049.7085 5.782165,-3.6324 6.152723,3.8548 -0.593,10.0075 -8.255405,0.3285 -3.329459,-3.813 z"
       id="path2065-2"
       inkscape:connector-curvature="0"
       sodipodi:nodetypes="ccccccc" />
    <path
       style="fill:#ff6600;stroke:none;stroke-width:1.36038387px;stroke-linecap:butt;stroke-linejoin:miter;stroke-opacity:1"
       d="m 90.023979,1043.1457 -9.495626,-1.5434 1.066916,7.63 z"
       id="path4495-0-9"
       inkscape:connector-curvature="0"
       sodipodi:nodetypes="cccc" />
    <path
       style="fill:#ff7d26;fill-opacity:1;stroke:none;stroke-width:0.43663251px;stroke-linecap:butt;stroke-linejoin:miter;stroke-opacity:1"
       d="m 90.023979,1043.1457 -8.338372,-0.3369 -1.157254,-1.2065"
       id="path4834-6-3"
       inkscape:connector-curvature="0"
       sodipodi:nodetypes="ccc" />
    <path
       style="fill:#cf5300;fill-opacity:1;stroke:none;stroke-width:0.43663251px;stroke-linecap:butt;stroke-linejoin:miter;stroke-opacity:1"
       d="m 81.595269,1049.2323 3.182485,-3.6966 5.246225,-2.39"
       id="path4836-2-1"
       inkscape:connector-curvature="0"
       sodipodi:nodetypes="ccc" />
    <path
       style="fill:#ff8c3f;fill-opacity:1;stroke:none;stroke-width:0.43663251px;stroke-linecap:butt;stroke-linejoin:miter;stroke-opacity:1"
       d="m 81.595269,1049.2323 0.09062,-6.4235 -1.157254,-1.2065"
       id="path4838-6-9"
       inkscape:connector-curvature="0"
       sodipodi:nodetypes="ccc" />
    <path
       style="fill:#4d4d4d;stroke:none;stroke-width:0.74533868px;stroke-linecap:butt;stroke-linejoin:miter;stroke-opacity:1"
       d="m 69.772954,1049.1306 7.493763,-7.5066 2.817311,-10.4948 -1.299415,-1.451 -3.459444,10.4835 z"
       id="path2067-4"
       inkscape:connector-curvature="0"
       sodipodi:nodetypes="cccccc" />
    <path
       style="fill:#666666;stroke:none;stroke-width:0.74533868px;stroke-linecap:butt;stroke-linejoin:miter;stroke-opacity:1"
       d="m 80.084028,1031.1292 6.772901,-4.0718 -8.072316,2.6208 z"
       id="path2069-5"
       inkscape:connector-curvature="0" />
  </g>
</svg>
