<?xml version="1.0" encoding="UTF-8" standalone="no"?>
<svg
   xmlns:dc="http://purl.org/dc/elements/1.1/"
   xmlns:cc="http://creativecommons.org/ns#"
   xmlns:rdf="http://www.w3.org/1999/02/22-rdf-syntax-ns#"
   xmlns:svg="http://www.w3.org/2000/svg"
   xmlns="http://www.w3.org/2000/svg"
   id="svg8"
   version="1.1"
   viewBox="0 0 128 128.00001"
   height="128"
   width="128">
  <defs
     id="defs2" />
  <metadata
     id="metadata5">
    <rdf:RDF>
      <cc:Work
         rdf:about="">
        <dc:format>image/svg+xml</dc:format>
        <dc:type
           rdf:resource="http://purl.org/dc/dcmitype/StillImage" />
        <dc:title></dc:title>
      </cc:Work>
    </rdf:RDF>
  </metadata>
  <g
     transform="translate(0,-994.5197)"
     id="layer1">
    <path
       d="m 72.092099,1004.5242 a 8.220063,8.220063 0 0 0 -7.0515,4.477 l -18.17241,35.6095 a 8.220063,8.220063 0 0 0 -0.63159,5.8123 l 1.10329,4.2213 -31.396,37.0804 a 8.220063,8.220063 0 0 0 1.01535,11.6245 l 8.72244,7.2673 a 8.220063,8.220063 0 0 0 11.81647,-1.359 l 29.24537,-38.6635 6.62776,-0.2315 a 8.220063,8.220063 0 0 0 4.31726,-1.3912 l 33.426691,-22.5377 a 8.220063,8.220063 0 0 0 0.48772,-13.2715 l -34.154241,-26.8867 a 8.220063,8.220063 0 0 0 -5.35661,-1.751 z"
       id="path1832-1"
       style="fill:#000000;stroke:none;stroke-width:1.0830431px;stroke-linecap:butt;stroke-linejoin:miter;stroke-opacity:1" />
    <path
       id="path1832"
       d="m 73.090979,1062.1517 33.430951,-22.5297 -34.157731,-26.8902 -18.169,35.6115 2.18028,8.3577 -34.15774,40.3351 8.72113,7.2677 31.61407,-41.7886 z"
       style="fill:#71c837;stroke:none;stroke-width:1.0830431px;stroke-linecap:butt;stroke-linejoin:miter;stroke-opacity:1" />
    <path
       id="path1934"
       d="m 22.217739,1097.0361 33.43097,-34.5209 0.72677,-5.8142 z"
       style="fill:#aade87;stroke:none;stroke-width:1.0830431px;stroke-linecap:butt;stroke-linejoin:miter;stroke-opacity:1" />
    <path
       id="path1936"
       d="m 54.195199,1048.3433 18.169,-35.6115 -2.36197,17.2608 z"
       style="fill:#8dd35f;stroke:none;stroke-width:1.0830431px;stroke-linecap:butt;stroke-linejoin:miter;stroke-opacity:1" />
    <path
       id="path1938"
       d="m 30.938859,1104.3038 30.34226,-46.3309 11.62814,0.1813 0.1818,3.9972 -10.53804,0.3636 z"
       style="fill:#447821;stroke:none;stroke-width:1.0830431px;stroke-linecap:butt;stroke-linejoin:miter;stroke-opacity:1" />
    <path
       id="path1940"
       d="m 72.909259,1058.1544 33.612671,-18.5324 -33.430931,22.5297 z"
       style="fill:#5aa02c;stroke:none;stroke-width:1.0830431px;stroke-linecap:butt;stroke-linejoin:miter;stroke-opacity:1" />
  </g>
</svg>
