<?xml version="1.0" encoding="UTF-8" standalone="no"?>
<!-- Created with Inkscape (http://www.inkscape.org/) -->

<svg
   xmlns:dc="http://purl.org/dc/elements/1.1/"
   xmlns:cc="http://creativecommons.org/ns#"
   xmlns:rdf="http://www.w3.org/1999/02/22-rdf-syntax-ns#"
   xmlns:svg="http://www.w3.org/2000/svg"
   xmlns="http://www.w3.org/2000/svg"
   xmlns:sodipodi="http://sodipodi.sourceforge.net/DTD/sodipodi-0.dtd"
   xmlns:inkscape="http://www.inkscape.org/namespaces/inkscape"
   width="128"
   height="128"
   viewBox="0 0 128 128.00001"
   version="1.1"
   id="svg6294"
   inkscape:version="0.92.3 (2405546, 2018-03-11)"
   sodipodi:docname="tutorial.svg">
  <defs
     id="defs6288" />
  <sodipodi:namedview
     id="base"
     pagecolor="#ffffff"
     bordercolor="#666666"
     borderopacity="1.0"
     inkscape:pageopacity="0.0"
     inkscape:pageshadow="2"
     inkscape:zoom="2.1832557"
     inkscape:cx="15.209465"
     inkscape:cy="58.590742"
     inkscape:document-units="px"
     inkscape:current-layer="layer1"
     showgrid="false"
     units="px"
     inkscape:window-width="1366"
     inkscape:window-height="713"
     inkscape:window-x="0"
     inkscape:window-y="27"
     inkscape:window-maximized="1" />
  <metadata
     id="metadata6291">
    <rdf:RDF>
      <cc:Work
         rdf:about="">
        <dc:format>image/svg+xml</dc:format>
        <dc:type
           rdf:resource="http://purl.org/dc/dcmitype/StillImage" />
        <dc:title></dc:title>
      </cc:Work>
    </rdf:RDF>
  </metadata>
  <g
     inkscape:label="Layer 1"
     inkscape:groupmode="layer"
     id="layer1"
     transform="translate(0,-994.51965)">
    <path
       sodipodi:type="inkscape:offset"
       inkscape:radius="4.0548716"
       inkscape:original="M 4857.75 1021.7695 L 4748.5 1023.2695 L 4751.5 1097.5195 L 4856 1098.2695 L 4857.75 1021.7695 z "
       style="fill:#000000;stroke:none;stroke-width:1px;stroke-linecap:butt;stroke-linejoin:miter;stroke-opacity:1"
       id="path2505-2"
       d="m 4857.6934,1017.7148 -109.25,1.5 a 4.055277,4.055277 0 0 0 -3.9942,4.2188 l 3,74.25 a 4.055277,4.055277 0 0 0 4.0215,3.8906 l 104.5,0.75 a 4.055277,4.055277 0 0 0 4.084,-3.9629 l 1.75,-76.5 a 4.055277,4.055277 0 0 0 -4.1113,-4.1465 z"
       transform="matrix(0.92024657,0,0,0.92024657,-4356.0601,84.109485)" />
    <path
       style="fill:#6c5353;stroke:none;stroke-width:0.92024654px;stroke-linecap:butt;stroke-linejoin:miter;stroke-opacity:1"
       d="m 13.730504,1025.7699 2.76082,68.3283 96.165766,0.6902 1.61037,-70.3989 z"
       id="path2505"
       inkscape:connector-curvature="0" />
    <path
       style="fill:#217844;stroke:none;stroke-width:0.92024654px;stroke-linecap:butt;stroke-linejoin:miter;stroke-opacity:1"
       d="m 18.331709,1030.3712 2.76082,59.3558 86.043161,1.6106 2.07053,-61.4266 z"
       id="path2503"
       inkscape:connector-curvature="0" />
    <path
       style="fill:#2ca05a;stroke:none;stroke-width:0.92024654px;stroke-linecap:butt;stroke-linejoin:miter;stroke-opacity:1"
       d="m 21.092529,1089.727 0.64229,-55.5463 -3.40311,-3.8095 z"
       id="path2507"
       inkscape:connector-curvature="0"
       sodipodi:nodetypes="cccc" />
    <path
       style="fill:#37c871;stroke:none;stroke-width:0.92024654px;stroke-linecap:butt;stroke-linejoin:miter;stroke-opacity:1"
       d="m 21.734819,1034.1807 87.471401,-4.2697 -90.874511,0.4602 z"
       id="path2509"
       inkscape:connector-curvature="0"
       sodipodi:nodetypes="cccc" />
    <path
       style="fill:#16502d;stroke:none;stroke-width:0.92024654px;stroke-linecap:butt;stroke-linejoin:miter;stroke-opacity:1"
       d="m 21.092529,1089.727 81.041871,-2.5554 5.00129,4.166 z"
       id="path2511"
       inkscape:connector-curvature="0" />
    <path
       style="fill:#0b2817;stroke:none;stroke-width:0.92024654px;stroke-linecap:butt;stroke-linejoin:miter;stroke-opacity:1"
       d="m 102.1344,1087.1716 7.07182,-57.2606 -2.07053,61.4266 z"
       id="path2513"
       inkscape:connector-curvature="0" />
    <path
       style="fill:#ac9393;stroke:none;stroke-width:0.92024654px;stroke-linecap:butt;stroke-linejoin:miter;stroke-opacity:1"
       d="m 13.730504,1025.7699 2.76082,68.3283 -0.373071,-65.3279 z"
       id="path2515"
       inkscape:connector-curvature="0" />
    <path
       style="fill:#916f6f;stroke:none;stroke-width:0.92024654px;stroke-linecap:butt;stroke-linejoin:miter;stroke-opacity:1"
       d="m 13.730504,1025.7699 100.536956,-1.3804 -98.149207,4.3808 z"
       id="path2517"
       inkscape:connector-curvature="0" />
    <path
       style="fill:#241c1c;stroke:none;stroke-width:0.92024654px;stroke-linecap:butt;stroke-linejoin:miter;stroke-opacity:1"
       d="m 16.491324,1094.0982 96.165766,0.6902 -2.70328,-1.6104 z"
       id="path2519"
       inkscape:connector-curvature="0" />
    <path
       style="fill:#483737;stroke:none;stroke-width:0.92024654px;stroke-linecap:butt;stroke-linejoin:miter;stroke-opacity:1"
       d="m 109.95381,1093.178 4.31365,-68.7885 -1.61037,70.3989 z"
       id="path2521"
       inkscape:connector-curvature="0" />
    <path
       style="opacity:0.7;fill:#f2f2f2;fill-opacity:1;stroke-width:0.14657499"
       d="m 77.799161,1043.6946 a 1.4353209,1.4353209 0 0 0 -0.0784,0 l -26.134492,1.1334 a 1.4353209,1.4353209 0 0 0 -0.841912,0.3217 l -1.156604,-0.3441 a 1.4353209,1.4353209 0 0 0 -0.789564,-0.012 l -15.26864,4.1974 a 1.4353209,1.4353209 0 0 0 -0.886059,0.7089 l -2.276177,4.2705 a 1.4353209,1.4353209 0 0 0 -0.125925,1.023 l 1.717959,6.8708 a 1.4353209,1.4353209 0 0 0 0.801746,0.9599 l 3.97327,1.7948 -2.919674,0.4607 a 1.4353209,1.4353209 0 0 0 -1.131998,1.888 l 2.20429,6.3554 a 1.4353209,1.4353209 0 0 0 0.840103,0.8689 l 3.481993,1.3411 a 1.4353209,1.4353209 0 0 0 0.862176,0.053 l 16.599658,-4.1298 a 1.4353209,1.4353209 0 0 0 0.549052,-0.2731 l -0.02292,0.9518 a 1.4353209,1.4353209 0 0 0 1.482754,1.4683 l 12.145967,-0.4047 a 1.4353209,1.4353209 0 0 0 1.383848,-1.5342 l -0.02654,-0.3699 7.905892,-0.8977 a 1.4353209,1.4353209 0 0 0 1.258766,-1.2242 l 0.542177,-3.8173 6.416986,9.1368 a 1.4353209,1.4353209 0 0 0 2.135895,0.2407 l 7.44959,-6.7211 a 1.4353209,1.4353209 0 0 0 0.088,-2.0439 l -7.55983,-8.1079 4.70107,-6.2449 a 1.4353209,1.4353209 0 0 0 -0.32506,-2.0398 l -6.437126,-4.494 a 1.4353209,1.4353209 0 0 0 -2.008888,0.3703 l -3.895954,5.7351 v -4.6452 a 1.4353209,1.4353209 0 0 0 -1.416656,-1.4351 l -1.821931,-0.023 v -0.043 a 1.4353209,1.4353209 0 0 0 -1.416053,-1.3507 z m -0.01568,1.4339 0.07961,1.3762 3.157653,0.041 v 9.3118 l 6.518425,-9.5952 6.437129,4.494 -5.424905,7.2064 8.380515,8.9882 -7.44959,6.7206 -8.501981,-12.1053 -1.052631,7.4088 -9.271285,1.0528 0.121583,1.7408 -12.145968,0.4048 0.405155,-17.0849 -7.674064,0.2689 0.04101,-1.3057 -2.245541,0.1463 -0.566783,-1.5386 -10.526312,3.158 0.526497,1.9837 14.777485,-2.1048 3.846139,1.7809 1.497831,9.1093 -2.388714,3.4819 -16.599658,4.1295 -3.481994,-1.3408 -2.204289,-6.3551 6.527109,-1.0311 0.629746,1.7181 9.819492,-2.2903 -0.42952,-2.4047 -11.909074,1.4313 -5.324913,-2.4046 -1.717597,-6.8707 2.276178,-4.2704 15.268641,-4.1975 2.449506,0.7287 0.0193,-0.648 z m -30.071456,9.294 0.100112,0.2722 a 1.4353209,1.4353209 0 0 0 0.168503,0.32 l -4.27023,0.6084 z m 24.565013,0.099 -3.765204,0.2428 1.37649,10.2836 z m -1.82567,1.5568 -0.19914,0.8777 -0.114587,-0.8575 z m -23.52951,8.3017 -4.814941,1.1232 -0.190938,-0.5214 z"
       id="path2579"
       inkscape:connector-curvature="0" />
  </g>
</svg>
