<?xml version="1.0" encoding="UTF-8" standalone="no"?>
<svg
   xmlns:dc="http://purl.org/dc/elements/1.1/"
   xmlns:cc="http://creativecommons.org/ns#"
   xmlns:rdf="http://www.w3.org/1999/02/22-rdf-syntax-ns#"
   xmlns:svg="http://www.w3.org/2000/svg"
   xmlns="http://www.w3.org/2000/svg"
   id="svg8"
   version="1.1"
   viewBox="0 0 128 128.00001"
   height="128"
   width="128">
  <defs
     id="defs2" />
  <metadata
     id="metadata5">
    <rdf:RDF>
      <cc:Work
         rdf:about="">
        <dc:format>image/svg+xml</dc:format>
        <dc:type
           rdf:resource="http://purl.org/dc/dcmitype/StillImage" />
        <dc:title></dc:title>
      </cc:Work>
    </rdf:RDF>
  </metadata>
  <g
     transform="translate(0,-994.5197)"
     id="layer1">
    <path
       d="m 66.040569,1008.409 a 7.629549,7.629549 0 0 0 -4.66521,1.3864 l -46.72208,32.9211 a 7.629549,7.629549 0 0 0 -0.8567,11.7758 l 3.00627,2.8506 -2.85829,2.0094 a 7.629549,7.629549 0 0 0 -1.37853,11.223 l 4.68077,5.4206 -4.01099,2.8272 a 7.629549,7.629549 0 0 0 -1.73678,10.779 l 14.15914,19.1203 a 7.629549,7.629549 0 0 0 11.20739,1.1526 l 27.39927,-24.4241 27.13447,25.0473 a 7.629549,7.629549 0 0 0 11.643511,-1.5654 l 12.38343,-19.8291 a 7.629549,7.629549 0 0 0 -1.9393,-10.1794 l -2.98294,-2.2042 5.10137,-6.3472 a 7.629549,7.629549 0 0 0 -1.40971,-10.9194 l -1.97821,-1.4565 3.62154,-3.7228 a 7.629549,7.629549 0 0 0 -0.93456,-11.4564 l -44.603661,-32.9212 a 7.629549,7.629549 0 0 0 -4.2602,-1.4876 z"
       id="path881-6-3"
       style="fill:#000000;stroke:none;stroke-width:1.05505633px;stroke-linecap:butt;stroke-linejoin:miter;stroke-opacity:1" />
    <path
       id="path881-6"
       d="m 19.042539,1048.9576 46.72669,-32.9211 44.602781,32.9211 -13.097681,13.4517 -32.21307,-29.7351 -32.56709,29.0271 z"
       style="fill:#c83737;stroke:none;stroke-width:1.05505633px;stroke-linecap:butt;stroke-linejoin:miter;stroke-opacity:1" />
    <path
       id="path964"
       d="m 97.274329,1062.4093 3.443001,-10.3901 9.65468,-3.0616 z"
       style="fill:#a02c2c;stroke:none;stroke-width:1.05505633px;stroke-linecap:butt;stroke-linejoin:miter;stroke-opacity:1" />
    <path
       id="path881-6-5"
       d="m 18.334559,1065.5952 46.7267,-32.921 44.602761,32.921 -13.097641,16.2836 -32.2131,-29.7351 -32.56709,29.0271 z"
       style="fill:#ff6600;stroke:none;stroke-width:1.05505633px;stroke-linecap:butt;stroke-linejoin:miter;stroke-opacity:1" />
    <path
       id="path960"
       d="m 96.566379,1081.8788 3.650361,-13.5895 9.44728,-2.6941 z"
       style="fill:#d45500;stroke:none;stroke-width:1.05505633px;stroke-linecap:butt;stroke-linejoin:miter;stroke-opacity:1" />
    <path
       id="path881-6-7"
       d="m 17.626589,1085.0647 46.72669,-32.921 44.602761,32.921 -12.389661,19.8235 -32.21308,-29.7351 -32.56711,29.0271 z"
       style="fill:#ffcc00;stroke:none;stroke-width:1.05505633px;stroke-linecap:butt;stroke-linejoin:miter;stroke-opacity:1" />
    <path
       id="path952"
       d="m 31.786189,1104.1802 24.64427,-28.2173 7.92284,-0.8098 z"
       style="fill:#d4aa00;stroke:none;stroke-width:1.05505633px;stroke-linecap:butt;stroke-linejoin:miter;stroke-opacity:1" />
    <path
       id="path954"
       d="m 96.566379,1104.8882 1.89819,-15.8232 10.491471,-4.0003 z"
       style="fill:#d4aa00;stroke:none;stroke-width:1.05505633px;stroke-linecap:butt;stroke-linejoin:miter;stroke-opacity:1" />
    <path
       id="path956"
       d="m 17.626589,1085.0647 43.9174,-19.779 2.80929,-13.142 z"
       style="fill:#ffd42a;stroke:none;stroke-width:1.05505633px;stroke-linecap:butt;stroke-linejoin:miter;stroke-opacity:1" />
    <path
       id="path958"
       d="m 18.334559,1065.5952 43.33459,-23.8385 3.39213,-9.0825 z"
       style="fill:#ff7f2a;stroke:none;stroke-width:1.05505633px;stroke-linecap:butt;stroke-linejoin:miter;stroke-opacity:1" />
    <path
       id="path962"
       d="m 19.042539,1048.9576 41.24992,-24.7226 5.47677,-8.1985 z"
       style="fill:#d35f5f;stroke:none;stroke-width:1.05505633px;stroke-linecap:butt;stroke-linejoin:miter;stroke-opacity:1" />
  </g>
</svg>
