<?xml version="1.0" encoding="UTF-8" standalone="no"?>
<svg
   xmlns:dc="http://purl.org/dc/elements/1.1/"
   xmlns:cc="http://creativecommons.org/ns#"
   xmlns:rdf="http://www.w3.org/1999/02/22-rdf-syntax-ns#"
   xmlns:svg="http://www.w3.org/2000/svg"
   xmlns="http://www.w3.org/2000/svg"
   xmlns:sodipodi="http://sodipodi.sourceforge.net/DTD/sodipodi-0.dtd"
   xmlns:inkscape="http://www.inkscape.org/namespaces/inkscape"
   inkscape:export-ydpi="144"
   inkscape:export-xdpi="144"
   inkscape:export-filename="/home/qwerty/STK/newgui/skin-padding/stk-code/data/skins/modern/left_arrow_focus.png"
   inkscape:version="0.92.2 (5c3e80d, 2017-08-06)"
   sodipodi:docname="checkbox_checked_deactivated.svg"
   viewBox="0 0 64 64"
   height="64"
   width="64"
   id="svg2"
   version="1.1">
  <metadata
     id="metadata8">
    <rdf:RDF>
      <cc:Work
         rdf:about="">
        <dc:format>image/svg+xml</dc:format>
        <dc:type
           rdf:resource="http://purl.org/dc/dcmitype/StillImage" />
        <dc:title />
      </cc:Work>
    </rdf:RDF>
  </metadata>
  <defs
     id="defs6" />
  <sodipodi:namedview
     inkscape:document-rotation="0"
     fit-margin-bottom="5"
     fit-margin-right="5"
     fit-margin-left="5"
     fit-margin-top="5"
     inkscape:current-layer="svg2"
     inkscape:window-maximized="0"
     inkscape:window-y="97"
     inkscape:window-x="253"
     inkscape:cy="29.763343"
     inkscape:cx="19.774966"
     inkscape:zoom="8.0000004"
     showgrid="false"
     id="namedview4"
     inkscape:window-height="551"
     inkscape:window-width="1032"
     inkscape:pageshadow="2"
     inkscape:pageopacity="0"
     guidetolerance="10"
     gridtolerance="10"
     objecttolerance="10"
     borderopacity="1"
     bordercolor="#666666"
     pagecolor="#ffffff" />
  <path
     sodipodi:nodetypes="sssssss"
     id="path12"
     d="M 47,17.000001 H 17 c -8.28,0 -15,6.719999 -15,14.999997 0,8.279999 6.72,15.000004 15,15.000004 h 30 c 8.28,0 15,-6.720005 15,-15.000004 C 62,23.72 55.28,17.000001 47,17.000001 Z"
     inkscape:connector-curvature="0"
     style="fill:#9e9e9e;fill-opacity:1;stroke-width:2.99999976" />
  <path
     inkscape:connector-curvature="0"
     id="path15"
     d="m 44.906438,40.729997 c -5.14455,-1.10492 -8.280996,-6.44965 -6.691914,-11.403506 1.689629,-5.267305 7.599191,-7.719989 12.579949,-5.221138 2.110721,1.058952 3.916031,3.32317 4.530451,5.682094 0.291423,1.118845 0.295796,3.345536 0.0086,4.425806 -0.658648,2.478262 -2.357457,4.582641 -4.586502,5.681473 -2.045359,1.008282 -3.840087,1.264945 -5.840674,0.835271 z"
     style="fill:#e8e8e8;fill-opacity:1;stroke:none;stroke-width:0.45014155;stroke-linecap:round;stroke-linejoin:round" />
</svg>
