<?xml version="1.0" encoding="UTF-8" standalone="no"?>
<!-- Created with Inkscape (http://www.inkscape.org/) -->

<svg
   xmlns:dc="http://purl.org/dc/elements/1.1/"
   xmlns:cc="http://creativecommons.org/ns#"
   xmlns:rdf="http://www.w3.org/1999/02/22-rdf-syntax-ns#"
   xmlns:svg="http://www.w3.org/2000/svg"
   xmlns="http://www.w3.org/2000/svg"
   xmlns:sodipodi="http://sodipodi.sourceforge.net/DTD/sodipodi-0.dtd"
   xmlns:inkscape="http://www.inkscape.org/namespaces/inkscape"
   width="67.73333mm"
   height="33.866665mm"
   viewBox="0 0 67.733328 33.866664"
   version="1.1"
   id="svg834"
   inkscape:version="0.92.2 (5c3e80d, 2017-08-06)"
   sodipodi:docname="friend.svg">
  <defs
     id="defs828" />
  <sodipodi:namedview
     id="base"
     pagecolor="#ffffff"
     bordercolor="#666666"
     borderopacity="1.0"
     inkscape:pageopacity="0.0"
     inkscape:pageshadow="2"
     inkscape:zoom="0.9899495"
     inkscape:cx="97.012081"
     inkscape:cy="71.103279"
     inkscape:document-units="mm"
     inkscape:current-layer="layer1"
     showgrid="false"
     fit-margin-top="0"
     fit-margin-left="0"
     fit-margin-right="0"
     fit-margin-bottom="0"
     inkscape:window-width="1366"
     inkscape:window-height="665"
     inkscape:window-x="0"
     inkscape:window-y="28"
     inkscape:window-maximized="1"
     inkscape:snap-global="false"
     inkscape:snap-page="true" />
  <metadata
     id="metadata831">
    <rdf:RDF>
      <cc:Work
         rdf:about="">
        <dc:format>image/svg+xml</dc:format>
        <dc:type
           rdf:resource="http://purl.org/dc/dcmitype/StillImage" />
        <dc:title />
      </cc:Work>
    </rdf:RDF>
  </metadata>
  <g
     inkscape:label="Layer 1"
     inkscape:groupmode="layer"
     id="layer1"
     transform="translate(463.06369,-245.24435)">
    <rect
       style="fill:#0288d1;fill-opacity:1;stroke:none;stroke-width:0.79400003;stroke-linecap:round;stroke-linejoin:round"
       id="rect19"
       width="67.73333"
       height="33.866665"
       x="-463.06369"
       y="245.24435"
       rx="3.0735996"
       ry="3.0735996" />
    <path
       sodipodi:nodetypes="sssssssss"
       style="stroke-width:1.35466659"
       id="path64"
       d="m -353.79519,229.00609 h -18.96534 c -1.49013,0 -2.70933,1.2192 -2.70933,2.70933 v 18.96534 c 0,1.49013 1.2192,2.70933 2.70933,2.70933 h 18.96534 c 1.49013,0 2.70933,-1.2192 2.70933,-2.70933 v -18.96534 c 0,-1.49013 -1.2192,-2.70933 -2.70933,-2.70933 z"
       inkscape:connector-curvature="0" />
    <path
       inkscape:connector-curvature="0"
       d="m -368.01917,233.0701 c 0.93472,0 1.69333,0.75861 1.69333,1.69333 0,0.93472 -0.75861,1.69334 -1.69333,1.69334 -0.93472,0 -1.69334,-0.75862 -1.69334,-1.69334 0,-0.93472 0.75862,-1.69333 1.69334,-1.69333 z m 3.38666,10.83733 h -1.35466 v 5.41867 h -4.064 v -5.41867 h -1.35467 v -3.38666 c 0,-1.49014 1.2192,-2.70934 2.70933,-2.70934 h 1.35467 c 1.49013,0 2.70933,1.2192 2.70933,2.70934 z"
       id="path66"
       style="fill:#ffffff;stroke-width:1.35466659"
       sodipodi:nodetypes="sssssccccccssssc" />
    <path
       sodipodi:nodetypes="sssssccccccssssc"
       style="fill:#ffffff;stroke-width:1.35466659"
       id="path68"
       d="m -359.02334,233.0701 c 0.93472,0 1.69333,0.75861 1.69333,1.69333 0,0.93472 -0.75861,1.69334 -1.69333,1.69334 -0.93472,0 -1.69334,-0.75862 -1.69334,-1.69334 0,-0.93472 0.75862,-1.69333 1.69334,-1.69333 z m 3.38666,10.83733 h -1.35466 v 5.41867 h -4.064 v -5.41867 h -1.35467 v -3.38666 c 0,-1.49014 1.2192,-2.70934 2.70933,-2.70934 h 1.35467 c 1.49013,0 2.70933,1.2192 2.70933,2.70934 z"
       inkscape:connector-curvature="0" />
    <path
       style="fill:#ffffff;stroke-width:1.35466659"
       d="m -455.69136,249.73062 c -1.49013,0 -2.70939,1.21927 -2.70939,2.7094 v 18.96525 c 0,1.49013 1.21926,2.70939 2.70939,2.70939 h 18.96525 c 1.49013,0 2.7094,-1.21926 2.7094,-2.70939 v -18.96525 c 0,-1.49013 -1.21927,-2.7094 -2.7094,-2.7094 z m 6.0663,6.54999 c 1.245,0 2.24276,1.00499 2.24276,2.24999 0,1.245 -0.99776,2.24999 -2.24276,2.24999 -1.245,0 -2.24999,-1.00499 -2.24999,-2.24999 0,-1.245 1.00499,-2.24999 2.24999,-2.24999 z m 6.00015,0 c 1.245,0 2.24224,1.00499 2.24224,2.24999 0,1.245 -0.99724,2.24999 -2.24224,2.24999 -1.245,0 -2.24999,-1.00499 -2.24999,-2.24999 0,-1.245 1.00499,-2.24999 2.24999,-2.24999 z m -6.00015,6.00015 c 1.7475,0 5.24981,0.87714 5.24981,2.62464 v 1.87534 h -10.49962 v -1.87534 c 0,-1.7475 3.50231,-2.62464 5.24981,-2.62464 z m 6.00015,0 c 1.7475,0 5.24981,0.87714 5.24981,2.62464 v 1.87534 h -4.49998 v -1.87534 c 0,-1.11 -0.60743,-1.95743 -1.47743,-2.58743 0.2625,-0.0225 0.5101,-0.0372 0.7276,-0.0372 z"
       id="path31"
       inkscape:connector-curvature="0" />
    <path
       sodipodi:nodetypes="sssssssss"
       style="stroke-width:1.35466659"
       id="path33"
       d="m -322.04519,229.76206 h -18.96534 c -1.49013,0 -2.70933,1.2192 -2.70933,2.70933 v 18.96534 c 0,1.49013 1.2192,2.70933 2.70933,2.70933 h 18.96534 c 1.49013,0 2.70933,-1.2192 2.70933,-2.70933 v -18.96534 c 0,-1.49013 -1.2192,-2.70933 -2.70933,-2.70933 z"
       inkscape:connector-curvature="0" />
    <path
       style="fill:#ffffff;stroke-width:0.75"
       id="path35"
       d="m -328.94437,240.15057 c 1.245,0 2.2425,-1.005 2.2425,-2.25 0,-1.245 -0.9975,-2.25 -2.2425,-2.25 -1.245,0 -2.25,1.005 -2.25,2.25 0,1.245 1.005,2.25 2.25,2.25 z m -6,0 c 1.245,0 2.2425,-1.005 2.2425,-2.25 0,-1.245 -0.9975,-2.25 -2.2425,-2.25 -1.245,0 -2.25,1.005 -2.25,2.25 0,1.245 1.005,2.25 2.25,2.25 z m 0,1.5 c -1.7475,0 -5.25,0.8775 -5.25,2.625 v 1.875 h 10.5 v -1.875 c 0,-1.7475 -3.5025,-2.625 -5.25,-2.625 z m 6,0 c -0.2175,0 -0.465,0.015 -0.7275,0.0375 0.87,0.63 1.4775,1.4775 1.4775,2.5875 v 1.875 h 4.5 v -1.875 c 0,-1.7475 -3.5025,-2.625 -5.25,-2.625 z"
       inkscape:connector-curvature="0" />
    <g
       id="g25"
       style="fill:#ffffff"
       transform="translate(85.421498,-12.828937)">
      <path
         id="path28"
         d="m -455.69141,249.73597 c -1.49013,0 -2.70939,1.21926 -2.70939,2.70939 v 18.96525 c 0,1.49014 1.21926,2.7094 2.70939,2.7094 h 18.96525 c 1.49013,0 2.7094,-1.21926 2.7094,-2.7094 v -18.96525 c 0,-1.49013 -1.21927,-2.70939 -2.7094,-2.70939 z m 4.74131,4.06435 c 0.93472,0 1.69344,0.7582 1.69344,1.69292 0,0.93472 -0.75872,1.69344 -1.69344,1.69344 -0.93472,0 -1.69343,-0.75872 -1.69343,-1.69344 0,-0.93472 0.75871,-1.69292 1.69343,-1.69292 z m 8.99584,0 c 0.93472,0 1.69343,0.7582 1.69343,1.69292 0,0.93472 -0.75871,1.69344 -1.69343,1.69344 -0.93472,0 -1.69344,-0.75872 -1.69344,-1.69344 0,-0.93472 0.75872,-1.69292 1.69344,-1.69292 z m -9.67331,4.74131 h 1.35495 c 1.49013,0 2.70888,1.21926 2.70888,2.7094 v 3.38635 h -1.35444 v 5.4188 h -4.06383 v -5.4188 h -1.35496 v -3.38635 c 0,-1.49014 1.21926,-2.7094 2.7094,-2.7094 z m 8.99583,0 h 1.35495 c 1.49013,0 2.70888,1.21926 2.70888,2.7094 v 3.38635 h -1.35444 v 5.4188 h -4.06383 v -5.4188 h -1.35496 v -3.38635 c 0,-1.49014 1.21927,-2.7094 2.7094,-2.7094 z"
         style="fill:#ffffff;stroke-width:1.35466659"
         inkscape:connector-curvature="0" />
    </g>
  </g>
</svg>
